<?xml version="1.0" encoding="utf-8"?>
<!-- Generator: Adobe Illustrator 19.0.0, SVG Export Plug-In . SVG Version: 6.00 Build 0)  -->
<svg version="1.1" id="Layer_1" xmlns="http://www.w3.org/2000/svg" xmlns:xlink="http://www.w3.org/1999/xlink" x="0px" y="0px"
	 width="22px" height="22px" viewBox="0 0 22 22" enable-background="new 0 0 22 22" xml:space="preserve">
<path id="XMLID_4_" fill="#7D8C96" d="M11,1.9c5,0,9,4.1,9,9s-4.1,9-9,9s-9-4.1-9-9S6,1.9,11,1.9 M11,0C4.9,0,0,4.9,0,11
	s4.9,11,11,11s11-4.9,11-11S17,0,11,0L11,0z"/>
<path id="XMLID_10_" fill="#7D8C96" d="M10.8,5C12.9,5,15,6,15,8.5c0,2.3-2.4,3.2-3,4c-0.4,0.6-0.3,1.5-1.3,1.5c-0.7,0-1-0.6-1-1.2
	c0-2.1,2.9-2.6,2.9-4.3c0-0.9-0.6-1.5-1.6-1.5C8.8,7,9.7,9.3,8.1,9.3C7.5,9.3,7,9,7,8.3C7,6.5,8.8,5,10.8,5z M10.8,15.1
	c0.7,0,1.3,0.6,1.3,1.4c0,0.8-0.6,1.4-1.3,1.4c-0.7,0-1.3-0.6-1.3-1.4C9.4,15.8,10,15.1,10.8,15.1z"/>
</svg>
