<?xml version="1.0" encoding="utf-8"?>
<!-- Generator: Adobe Illustrator 19.0.0, SVG Export Plug-In . SVG Version: 6.00 Build 0)  -->
<svg version="1.1" id="Layer_1" xmlns="http://www.w3.org/2000/svg" xmlns:xlink="http://www.w3.org/1999/xlink" x="0px" y="0px"
	 width="69px" height="30px" viewBox="0 0 69 30" enable-background="new 0 0 69 30" xml:space="preserve">
<g id="XMLID_17_">
	<g id="XMLID_108_">
		<path id="XMLID_109_" fill="#005581" d="M6.7,13.7L6.7,13.7c0.8,0,1.4-0.7,1.4-1.5c0-0.8-0.6-1.4-1.4-1.5v0H2.4v0
			c-0.8,0-1.4,0.7-1.4,1.5c0,0.8,0.6,1.5,1.4,1.5v0L6.7,13.7z M9.7,16.4c-0.5-0.6-1.4-0.6-2,0l0,0l-3.9,4.1l0,0
			c-0.5,0.6-0.5,1.5,0,2.1c0.5,0.6,1.4,0.6,2,0l0,0l3.9-4.1l0,0C10.3,17.9,10.3,17,9.7,16.4z M17.9,8.1c0.5,0.6,1.4,0.6,2,0l0,0
			l0.7-0.8l0,0c0.5-0.6,0.5-1.5,0-2.1c-0.5-0.6-1.4-0.6-2,0l0,0L17.9,6l0,0C17.4,6.6,17.4,7.5,17.9,8.1z M15.3,4.8L15.3,4.8l0-2.4h0
			c0-0.8-0.6-1.4-1.4-1.4c-0.8,0-1.4,0.6-1.4,1.4l0,0v2.4h0c0,0.8,0.6,1.4,1.4,1.4C14.7,6.3,15.3,5.6,15.3,4.8z M9.9,5.9L7.5,3.4
			l0,0c-0.5-0.6-1.4-0.6-2,0C5,4,5,4.9,5.5,5.5l0,0L7.9,8l0,0c0.6,0.5,1.4,0.5,2,0C10.4,7.4,10.4,6.5,9.9,5.9L9.9,5.9z M23.7,11
			h-4.2c-4.2,0-6.5,2.3-6.5,5.7v10.4c0,1.1,0.9,1.9,2,1.9c1.1,0,2-0.9,2-1.9v-5.8h4.9c0.7,0,1.2-0.5,1.2-1.2c0-0.7-0.5-1.2-1.2-1.2
			H17v-2.4c0-2.2,1.5-3.1,3.2-3.1h3.5c0.6,0,1.1-0.5,1.1-1.1C24.9,11.5,24.4,11,23.7,11z M61.2,11c-2.9,0-5,0.9-6.4,2
			c-1.2-1.1-3-2-6.2-2c-3,0-5.5,0.5-7.4,1.2v14.8c0,1.1,0.9,1.9,2,1.9c1.1,0,1.9-0.9,2-1.9V13.9c0.8-0.3,1.9-0.5,3.4-0.5
			c2.6,0,4.1,1.2,4.1,2.9v10.8c0,1.1,0.9,1.9,2,1.9c1.1,0,2-0.9,2-1.9V14.6c1-0.9,2.3-1.3,3.7-1.3c2.6,0,3.7,1.4,3.7,3v10.7
			c0,1.1,0.9,1.9,2,1.9c1.1,0,2-0.9,2-1.9V16.3C68,13.7,66,11,61.2,11z M37.2,25.6c-0.2,0-0.4,0-0.6,0.1c-0.6,0.3-1.5,0.6-2.5,0.6
			c-2.9,0-4.8-2.6-4.8-6.5c0-3.8,1.7-6.4,4.9-6.4c1.1,0,1.9,0.3,2.5,0.6c0.2,0.1,0.3,0.1,0.5,0.1c0.6,0,1.1-0.5,1.1-1.1
			c0-0.4-0.2-0.7-0.5-0.9C37,11.6,35.5,11,33.3,11c-4.5,0-8.1,3.3-8.1,9c0,5.6,3.5,9,8,9c2.2,0,3.8-0.5,4.6-1.1c0,0,0.1,0,0.1-0.1
			c0,0,0,0,0,0c0.3-0.2,0.4-0.6,0.4-0.9C38.5,26.2,37.9,25.6,37.2,25.6z"/>
	</g>
</g>
</svg>
