<?xml version="1.0" encoding="utf-8"?>
<!-- Generator: Adobe Illustrator 19.0.0, SVG Export Plug-In . SVG Version: 6.00 Build 0)  -->
<svg version="1.1" id="Layer_1" xmlns="http://www.w3.org/2000/svg" xmlns:xlink="http://www.w3.org/1999/xlink" x="0px" y="0px"
	 width="22px" height="22px" viewBox="0 0 22 22" enable-background="new 0 0 22 22" xml:space="preserve">
<path id="XMLID_13_" fill="#7D8C96" d="M11,1.9C16,1.9,20,6,20,11S16,20,11,20S1.9,16,1.9,11S6,1.9,11,1.9 M11,0C4.9,0,0,4.9,0,11
	s4.9,11,11,11s11-4.9,11-11S17.1,0,11,0L11,0z"/>
<g id="XMLID_16_">
	<g id="XMLID_38_">
		<path id="XMLID_40_" fill="#7D8C96" d="M15.7,13.2h-0.8V9.4c0-1.8-1.4-3.4-3.2-3.7c0,0,0,0,0-0.1C11.7,5.3,11.4,5,11,5
			c-0.4,0-0.7,0.3-0.7,0.7c0,0,0,0,0,0.1C8.5,6.1,7.1,7.6,7.1,9.4v3.7H6.2c-0.1,0-0.3,0.1-0.3,0.2v1.3C6,14.9,6.1,15,6.2,15h9.5
			c0.1,0,0.3-0.1,0.3-0.2v-1.3C16,13.3,15.9,13.2,15.7,13.2z M11,18c1.1,0,2-0.9,2-2H9C9,17.1,9.9,18,11,18z"/>
	</g>
</g>
</svg>
