<?xml version="1.0" encoding="utf-8"?>
<!-- Generator: Adobe Illustrator 19.0.0, SVG Export Plug-In . SVG Version: 6.00 Build 0)  -->
<svg version="1.1" id="Layer_1" xmlns="http://www.w3.org/2000/svg" xmlns:xlink="http://www.w3.org/1999/xlink" x="0px" y="0px"
	 width="22px" height="22px" viewBox="0 0 22 22" enable-background="new 0 0 22 22" xml:space="preserve">
<path id="XMLID_2_" fill-rule="evenodd" clip-rule="evenodd" fill="#7D8C96" d="M14,13.7c1,0.4,2,0.8,2.6,1.2
	c-0.9,1.5-3.5,3.2-5.8,3.2c-2.3,0-5-1.5-5.8-3.2c0.6-0.4,1.6-0.7,2.6-1.2c1.3-0.5,1.6-0.7,1.6-0.7l0-1.2c0,0-0.5-0.4-0.6-1.5
	c-0.3,0.1-0.6-0.5-0.6-0.7c0-0.3,0-1,0.4-1C8.3,7.8,8.2,7.3,8.2,7.1C8.3,6.1,9.3,5,10.8,5c1.5,0,2.5,1.1,2.6,2.1
	c0,0.3,0,0.8-0.1,1.4c0.4-0.1,0.4,0.7,0.4,1c0,0.3-0.3,0.8-0.6,0.7c-0.1,1.2-0.6,1.5-0.6,1.5l0,1.2C12.4,12.9,12.7,13.1,14,13.7z"/>
<path id="XMLID_5_" fill="#7D8C96" d="M11,1.9C16,1.9,20,6,20,11S16,20,11,20S1.9,16,1.9,11S6,1.9,11,1.9 M11,0C4.9,0,0,4.9,0,11
	s4.9,11,11,11S22,17,22,11S17,0,11,0L11,0z"/>
</svg>
