<svg xmlns="http://www.w3.org/2000/svg" width="24" height="24" viewBox="0 0 24 24">
    <path fill="#00415E" fill-rule="nonzero" d="M11.976 7.32a4.67 4.67 0 0 1 4.668 4.668c0 .606-.12 1.176-.336 1.708l2.727 2.726a11.033 11.033 0 0 0 3.202-4.434c-1.615-4.1-5.602-7.003-10.27-7.003-1.307 0-2.558.234-3.716.654l2.017 2.016a4.531 4.531 0 0 1 1.708-.336zM2.64 4.77L4.769 6.9l.43.429a11.02 11.02 0 0 0-3.493 4.659c1.615 4.098 5.602 7.002 10.27 7.002 1.447 0 2.83-.28 4.09-.784l.392.392 2.735 2.726 1.186-1.186L3.826 3.585 2.64 4.77zm5.163 5.164L9.25 11.38a2.634 2.634 0 0 0-.075.607c0 1.55 1.251 2.8 2.801 2.8.206 0 .411-.028.607-.074l1.447 1.447a4.628 4.628 0 0 1-2.054.495 4.67 4.67 0 0 1-4.668-4.668c0-.738.187-1.429.495-2.054zm4.024-.729l2.94 2.941.02-.15c0-1.549-1.252-2.8-2.801-2.8l-.16.01z"/>
</svg>
