<svg xmlns="http://www.w3.org/2000/svg" width="21" height="16" viewBox="0 0 21 16">
  <g fill="#000000" fill-rule="evenodd">
    <path d="M21,2.10181818 C21,1.03709091 20.1352083,0.174545455 19.0677083,0.174545455 L1.93229167,0.174545455 C0.864791667,0.174545455 0,1.03709091 0,2.10181818 L0,14.0733091 C0,15.1371636 0.864791667,15.9994182 1.93229167,15.9994182 L19.0677083,15.9994182 C20.1352083,15.9994182 21,15.1371636 21,14.0733091 L21,2.10181818 Z M2.048375,1.10516364 L19.1849583,1.10516364 C19.7353333,1.10516364 20.0669583,1.64043636 20.0669583,2.19054545 L20.0669583,3.89847273 L0.933041667,3.89847273 L0.933041667,2.19054545 C0.933041667,1.64043636 1.49829167,1.10516364 2.048375,1.10516364 Z M19.1849583,15.0688 L2.048375,15.0688 C1.49829167,15.0688 0.933041667,14.7109818 0.933041667,14.1620364 L0.933041667,4.82909091 L20.0669583,4.82909091 L20.0669583,14.1620364 C20.0669583,14.7109818 19.7353333,15.0688 19.1849583,15.0688 Z"/>
    <path d="M3.247125 2.66763636C3.247125 3.11418182 2.884875 3.47578182 2.43804167 3.47578182 1.99033333 3.47578182 1.62808333 3.11418182 1.62808333 2.66763636 1.62808333 2.22225455 1.99033333 1.86094545 2.43804167 1.86094545 2.884875 1.86094545 3.247125 2.22225455 3.247125 2.66763636zM5.43345833 2.66763636C5.43345833 3.11418182 5.07120833 3.47578182 4.624375 3.47578182 4.17666667 3.47578182 3.81441667 3.11418182 3.81441667 2.66763636 3.81441667 2.22225455 4.17666667 1.86094545 4.624375 1.86094545 5.07120833 1.86094545 5.43345833 2.22225455 5.43345833 2.66763636zM7.61979167 2.66763636C7.61979167 3.11418182 7.25754167 3.47578182 6.80983333 3.47578182 6.363 3.47578182 6.00075 3.11418182 6.00075 2.66763636 6.00075 2.22225455 6.363 1.86094545 6.80983333 1.86094545 7.25754167 1.86094545 7.61979167 2.22225455 7.61979167 2.66763636z"/>
  </g>
</svg>
