<svg xmlns="http://www.w3.org/2000/svg" width="23" height="17" viewBox="0 0 23 17" xmlns:xlink="http://www.w3.org/1999/xlink">
  <defs>
    <polygon id="a" points=".003 16.997 23 16.997 23 .001 .003 .001"/>
  </defs>
  <g fill="none" fill-rule="evenodd">
    <mask id="b" fill="white">
      <use xlink:href="#a"/>
    </mask>
    <path fill="#0A0A08" d="M5.74708008,16.1005924 L22.0612227,16.1005924 L22.0612227,7.53108608 L5.74708008,7.53108608 L5.74708008,16.1005924 Z M0.938777344,11.1107696 L0.938777344,2.54113418 L17.2524258,2.54113418 L17.2524258,4.9912 L5.27769141,4.9912 C5.01844727,4.9912 4.80830273,5.19253165 4.80830273,5.4409038 L4.80830273,11.1107696 L0.938777344,11.1107696 Z M0.938777344,1.64172658 L17.2524258,1.64172658 L17.2524258,0.900655696 L0.938777344,0.900655696 L0.938777344,1.64172658 Z M5.74708008,6.63163544 L22.0612227,6.63163544 L22.0612227,5.89056456 L5.74708008,5.89056456 L5.74708008,6.63163544 Z M22.5306113,4.99115696 L18.1912031,4.99115696 L18.1912031,0.450951899 C18.1912031,0.202579747 17.9810586,0.00124810127 17.7218145,0.00124810127 L0.469388672,0.00124810127 C0.210144531,0.00124810127 0,0.202579747 0,0.450951899 L0,11.5604734 C0,11.8088456 0.210144531,12.0101772 0.469388672,12.0101772 L4.80830273,12.0101772 L4.80830273,16.5502962 C4.80830273,16.7986684 5.01844727,17 5.27769141,17 L22.5306113,17 C22.7898555,17 23,16.7986684 23,16.5502962 L23,5.44086076 C23,5.19253165 22.7898555,4.99115696 22.5306113,4.99115696 L22.5306113,4.99115696 Z" mask="url(#b)"/>
    <path fill="#0A0A08" d="M7.35339648 14.760519L17.4691289 14.760519C17.728373 14.760519 17.9385176 14.5591873 17.9385176 14.3108152 17.9385176 14.062443 17.728373 13.8611114 17.4691289 13.8611114L7.35339648 13.8611114C7.09415234 13.8611114 6.88400781 14.062443 6.88400781 14.3108152 6.88400781 14.5591873 7.09415234 14.760519 7.35339648 14.760519M18.8837188 14.760519L19.9489961 14.760519C20.2082402 14.760519 20.4183848 14.5591873 20.4183848 14.3108152 20.4183848 14.062443 20.2082402 13.8611114 19.9489961 13.8611114L18.8837188 13.8611114C18.6244746 13.8611114 18.4143301 14.062443 18.4143301 14.3108152 18.4143301 14.5591873 18.6244746 14.760519 18.8837188 14.760519"/>
  </g>
</svg>
