<svg xmlns="http://www.w3.org/2000/svg" width="24" height="18" viewBox="0 0 24 18" xmlns:xlink="http://www.w3.org/1999/xlink">
  <defs>
    <polygon id="a" points="11.981 .062 .004 .062 .004 18 23.958 18 23.958 .062 11.981 .062"/>
  </defs>
  <g fill="none" fill-rule="evenodd">
    <mask id="b" fill="white">
      <use xlink:href="#a"/>
    </mask>
    <path fill="#000000" d="M22.6287681,0.0617957746 L1.32956526,0.0617957746 C0.596391369,0.0617957746 0,0.680260563 0,1.44057042 L0,16.621162 C0,17.3814718 0.596391369,17.9999366 1.32956526,17.9999366 L22.6287681,17.9999366 C23.361942,17.9999366 23.9583333,17.3814718 23.9583333,16.621162 L23.9583333,1.44057042 C23.9583333,0.680260563 23.361942,0.0617957746 22.6287681,0.0617957746 Z M1.32956526,1.07588028 L22.6287681,1.07588028 C22.822635,1.07588028 22.9804422,1.23952817 22.9804422,1.44057042 L22.9804422,3.00232394 L0.977891156,3.00232394 L0.977891156,1.44057042 C0.977891156,1.23952817 1.13569834,1.07588028 1.32956526,1.07588028 Z M22.6287681,16.9861056 L1.32956526,16.9861056 C1.13569834,16.9861056 0.977891156,16.8224577 0.977891156,16.621162 L0.977891156,4.01640845 L22.9804422,4.01640845 L22.9804422,16.621162 C22.9804422,16.8224577 22.822635,16.9861056 22.6287681,16.9861056 Z" mask="url(#b)"/>
    <path fill="#000000" d="M9.19755527 7.27802113C9.00656091 7.08021127 8.69718059 7.08021127 8.50618622 7.27827465L6.29853582 9.5676338C6.20685852 9.66270423 6.15527477 9.7916831 6.15527477 9.92611268 6.15527477 10.0605423 6.20685852 10.1895211 6.29853582 10.2845915L8.50618622 12.5739507C8.60165285 12.6730141 8.7267618 12.7225141 8.85187075 12.7225141 8.9769797 12.7225141 9.10208865 12.6730141 9.19755527 12.5739507 9.38854964 12.3758873 9.38854964 12.0548028 9.19755527 11.8567394L7.33558939 9.92611268 9.19755527 7.99497887C9.38854964 7.79716901 9.38854964 7.47608451 9.19755527 7.27802113zM15.104079 7.27827465C14.9130846 7.08021127 14.6036432 7.08021127 14.4126488 7.27802113 14.2216544 7.47608451 14.2216544 7.79716901 14.4126488 7.99523239L16.2746147 9.92611268 14.4126488 11.856993C14.2216544 12.0550563 14.2216544 12.3758873 14.4126488 12.5739507 14.5081766 12.6730141 14.6332855 12.7225141 14.7583945 12.7225141 14.8835034 12.7225141 15.0085512 12.6730141 15.104079 12.5739507L17.3117294 10.2845915C17.4034067 10.1895211 17.4549904 10.0605423 17.4549904 9.92611268 17.4549904 9.7916831 17.4034067 9.66270423 17.3117294 9.5676338L15.104079 7.27827465zM13.1814838 7.18415493C12.9403726 7.05764789 12.6464551 7.15816901 12.5247077 7.4079507L10.2127285 12.1535493C10.09092 12.4033944 10.1876701 12.7083803 10.4287814 12.8346972 10.499434 12.8717746 10.5746705 12.8893944 10.6486235 12.8893944 10.8274554 12.8893944 10.9993808 12.7873521 11.0855575 12.610838L13.3975367 7.86523944C13.5192841 7.61545775 13.4225951 7.31040845 13.1814838 7.18415493z"/>
  </g>
</svg>
