<svg xmlns="http://www.w3.org/2000/svg" width="22" height="14" viewBox="0 0 22 14" xmlns:xlink="http://www.w3.org/1999/xlink">
  <defs>
    <polygon id="a" points=".003 13.997 22 13.997 22 .038 .003 .038"/>
  </defs>
  <g fill="none" fill-rule="evenodd">
    <mask id="b" fill="white">
      <use xlink:href="#a"/>
    </mask>
    <path fill="#0A0A08" d="M19.3621484 2.65293617L21.1020391 2.65293617 21.1020391.927659574 19.3621484.927659574 19.3621484 2.65293617zM10.1139414 13.1107234L11.8860586 13.1107234 11.8860586 11.3532766 10.1139414 11.3532766 10.1139414 13.1107234zM.897960938 2.65293617L2.63785156 2.65293617 2.63785156.927659574.897960938.927659574.897960938 2.65293617zM21.5510195.0383829787L18.913168.0383829787C18.6651953.0383829787 18.4641875.237446809 18.4641875.483021277L18.4641875 3.09757447C18.4641875 3.34314894 18.6651953 3.54221277 18.913168 3.54221277L19.7604688 3.54221277C19.5557656 7.46876596 16.6572656 10.8136596 12.7840195 11.6070638L12.7840195 10.9085957C12.7840195 10.6630638 12.5830117 10.4639574 12.3350391 10.4639574L9.66496094 10.4639574C9.41698828 10.4639574 9.21598047 10.6630638 9.21598047 10.9085957L9.21598047 11.6048511C5.34887891 10.8073617 2.45510547 7.46361702 2.25040234 3.54221277L3.08678906 3.54221277C3.33476172 3.54221277 3.53576953 3.34314894 3.53576953 3.09757447L3.53576953.483021277C3.53576953.237446809 3.33476172.0383829787 3.08678906.0383829787L.448980469.0383829787C.201007812.0383829787 0 .237446809 0 .483021277L0 3.09757447C0 3.34314894.201007812 3.54221277.448980469 3.54221277L1.35102344 3.54221277C1.45187109 5.69731915 2.28335937 7.75902128 3.71834375 9.38987234 4.61772266 10.4120426 5.71729297 11.2255319 6.93704688 11.7873617L4.99962891 11.7873617C4.75165625 11.7873617 4.55064844 11.9864681 4.55064844 12.232 4.55064844 12.4775319 4.75165625 12.6766383 4.99962891 12.6766383L9.21602344 12.6766383 9.21602344 13.5553617C9.21602344 13.8008936 9.41703125 14 9.66500391 14L12.335082 14C12.5830547 14 12.7840625 13.8008936 12.7840625 13.5553617L12.7840625 12.6766383 17.0166992 12.6766383C17.2646719 12.6766383 17.4656797 12.4775319 17.4656797 12.232 17.4656797 11.9864681 17.2646719 11.7873617 17.0166992 11.7873617L15.0737383 11.7873617C16.2918594 11.2263404 17.3901836 10.4143404 18.2890469 9.39395745 19.7262656 7.76238298 20.5590859 5.6992766 20.6599766 3.54221277L21.5510195 3.54221277C21.7989922 3.54221277 22 3.34314894 22 3.09757447L22 .483021277C22 .237446809 21.7989922.0383829787 21.5510195.0383829787L21.5510195.0383829787zM19.9328594 12.8117447L21.1020391 12.8117447 21.1020391 11.6521702 19.9328594 11.6521702 19.9328594 12.8117447zM21.2068828 10.7628936L19.8281016 10.7628936C19.3907227 10.7628936 19.0348984 11.1154468 19.0348984 11.5488085L19.0348984 11.7873617 18.1077187 11.7873617C17.8597461 11.7873617 17.6587383 11.9864681 17.6587383 12.232 17.6587383 12.4775319 17.8597461 12.6766383 18.1077187 12.6766383L19.0348984 12.6766383 19.0348984 12.9151489C19.0348984 13.3484681 19.3907227 13.7010213 19.8281016 13.7010213L21.2068828 13.7010213C21.6442187 13.7010213 22 13.3484681 22 12.9151489L22 11.5488085C22 11.1154468 21.6442187 10.7628936 21.2068828 10.7628936L21.2068828 10.7628936zM.897960938 12.8117447L2.06714063 12.8117447 2.06714063 11.6521702.897960938 11.6521702.897960938 12.8117447zM3.90856641 11.7873617L2.96510156 11.7873617 2.96510156 11.5487234C2.96510156 11.1154043 2.60936328 10.7628936 2.17211328 10.7628936L.793203125 10.7628936C.355824219 10.7628936 0 11.1154043 0 11.5487234L0 12.9151915C0 13.3484681.355824219 13.7010213.793203125 13.7010213L2.17189844 13.7010213C2.60927734 13.7010213 2.96510156 13.3484681 2.96510156 12.9151915L2.96510156 12.6766383 3.90856641 12.6766383C4.15653906 12.6766383 4.35754688 12.4775319 4.35754688 12.232 4.35754688 11.9864681 4.15653906 11.7873617 3.90856641 11.7873617L3.90856641 11.7873617z" mask="url(#b)"/>
  </g>
</svg>
