<svg xmlns="http://www.w3.org/2000/svg" width="20" height="20" viewBox="0 0 20 20">
  <path fill="#000000" fill-rule="evenodd" d="M780.917046,1583.34657 L778.162742,1579.22354 C778.093839,1579.12733 777.990506,1579.07238 777.873459,1579.07238 L764.101223,1579.07238 C763.984219,1579.07238 763.881012,1579.12733 763.812109,1579.22354 L761.057637,1583.34657 C760.981983,1583.45642 760.981983,1583.60758 761.050717,1583.72451 L770.691265,1598.84194 C770.753206,1598.93819 770.863502,1599 770.980506,1599 C771.09751,1599 771.207805,1598.93819 771.269788,1598.84194 L780.910295,1583.72451 C780.992869,1583.60758 780.992869,1583.46333 780.917046,1583.34657 Z M771.159493,1583.71069 L776.15194,1583.71069 L771.159493,1597.66695 L771.159493,1583.71069 Z M771.159493,1583.36712 L771.159493,1579.75954 L777.570548,1579.75954 L776.275864,1583.36712 L771.159493,1583.36712 Z M770.815189,1583.36712 L765.698818,1583.36712 L764.404345,1579.75954 L770.815189,1579.75954 L770.815189,1583.36712 Z M770.815189,1583.71069 L770.815189,1597.66695 L765.822784,1583.71069 L770.815189,1583.71069 Z M770.050928,1596.54691 L761.863291,1583.71069 L765.450928,1583.71069 L770.050928,1596.54691 Z M776.516835,1583.71069 L780.104472,1583.71069 L771.923924,1596.54691 L776.516835,1583.71069 Z M780.097721,1583.36712 L776.640801,1583.36712 L777.845949,1580 L780.097721,1583.36712 Z M764.128902,1580 L765.333924,1583.36712 L761.87713,1583.36712 L764.128902,1580 Z" transform="translate(-761 -1579)"/>
</svg>
