<svg xmlns="http://www.w3.org/2000/svg" width="19" height="19" viewBox="0 0 19 19" xmlns:xlink="http://www.w3.org/1999/xlink">
  <defs>
    <polygon id="a" points=".002 5.016 .002 .009 3.699 .009 3.699 5.016 .002 5.016"/>
  </defs>
  <g fill="none" fill-rule="evenodd">
    <path fill="#0A0A08" d="M17.3690059 18.063916L8.23330859 8.92844141 8.92829297 8.2337168 18.0638789 17.3691172 17.3690059 18.063916zM5.62325781 6.11491992C5.62325781 5.98370117 5.67435742 5.86038672 5.76746484 5.76735352 5.86016406 5.67450586 5.98329297 5.62340625 6.11451172 5.62340625 6.24573047 5.62340625 6.36915625 5.67461719 6.46207813 5.76753906L8.37992773 7.68535156 7.68494336 8.38007617 5.76720508 6.46241211C5.67435742 6.36956445 5.62325781 6.24613867 5.62325781 6.11491992zM18.8864082 17.094916L7.01044336 5.21913672C6.77101367 4.97974414 6.45283789 4.84785742 6.11421484 4.84785742 5.77592578 4.84785742 5.45793555 4.97978125 5.21895117 5.2190625 4.9795957 5.45830664 4.84774609 5.77648242 4.84774609 6.1148457 4.84770898 6.45324609 4.97952148 6.77145898 5.21883984 7.01074023L17.0948047 18.8864082C17.1705449 18.9621484 17.2697754 19 17.3689688 19 17.4681992 19 17.5674297 18.9621113 17.6431699 18.8864082L18.8864082 17.6432441C18.9591426 17.5705469 19 17.4719102 19 17.369043 19 17.2662129 18.9591426 17.1676504 18.8864082 17.094916L18.8864082 17.094916zM3.58509961 3.03714258C3.43365625 2.88569922 3.18821484 2.88569922 3.03669727 3.03714258 2.88529102 3.18854883 2.88529102 3.43406445 3.03669727 3.58550781L3.93363086 4.48236719C4.00933398 4.55810742 4.10856445 4.59595898 4.20779492 4.59595898 4.30702539 4.59595898 4.40625586 4.55807031 4.48199609 4.48236719 4.63340234 4.33096094 4.63340234 4.0854082 4.48199609 3.93400195L3.58509961 3.03714258"/>
    <g transform="translate(0 1.744)">
      <mask id="b" fill="white">
        <use xlink:href="#a"/>
      </mask>
      <path fill="#0A0A08" d="M2.32653516 1.13120508C2.40227539 1.20694531 2.50150586 1.24479687 2.60069922 1.24479687 2.69992969 1.24479687 2.79916016 1.2069082 2.87490039 1.13120508 3.02630664.979798828 3.02630664.734283203 2.87490039.582839844L2.4145957.122535156C2.26315234-.0288710938 2.01767383-.0288710938 1.86619336.122535156 1.71478711.273978516 1.71478711.519494141 1.86619336.670900391L2.32653516 1.13120508M3.69913672 4.62787305C3.69913672 4.41371484 3.52553906 4.24011719 3.31138086 4.24011719L.387755859 4.24008008C.173634766 4.24008008 0 4.41371484 0 4.62783594 0 4.84199414.173597656 5.0155918.387755859 5.0155918L3.31138086 5.01562891C3.52553906 5.01562891 3.69913672 4.84199414 3.69913672 4.62787305" mask="url(#b)"/>
    </g>
    <path fill="#0A0A08" d="M2.22329687 9.97195703L1.86608203 10.3291719C1.71463867 10.4805781 1.71463867 10.7261309 1.86608203 10.8775371 1.94178516 10.9532773 2.04101562 10.9910918 2.14024609 10.9910918 2.23947656 10.9910918 2.33870703 10.9532402 2.41444727 10.8775371L2.77166211 10.5203223C2.92310547 10.368916 2.92310547 10.1234004 2.77166211 9.97195703 2.62025586 9.82055078 2.37481445 9.82055078 2.22329687 9.97195703M3.93329688 8.26195703L2.91319727 9.28209375C2.76179102 9.4335 2.76179102 9.67901562 2.91319727 9.83049609 2.9889375 9.90619922 3.08816797 9.94405078 3.18739844 9.94405078 3.28662891 9.94405078 3.38582227 9.90619922 3.4615625 9.83049609L4.48169922 8.81032227C4.63314258 8.65891602 4.63314258 8.41340039 4.48169922 8.26191992 4.33025586 8.11055078 4.08481445 8.11055078 3.93329688 8.26195703M6.37205078 9.04463086C6.15792969 9.04463086 5.98429492 9.21822852 5.98429492 9.43238672L5.98429492 12.356123C5.98429492 12.5702813 6.15792969 12.7438789 6.37205078 12.7438789 6.58617187 12.7438789 6.75980664 12.5702813 6.75980664 12.356123L6.75980664 9.43238672C6.75980664 9.21822852 6.58617187 9.04463086 6.37205078 9.04463086M9.04481641 6.37201367C9.04481641 6.58617187 9.21845117 6.75976953 9.43257227 6.75976953L12.3563828 6.75976953C12.5705039 6.75976953 12.7441387 6.58617187 12.7441387 6.37201367 12.7441387 6.15785547 12.5705039 5.98425781 12.3563828 5.98425781L9.43257227 5.98425781C9.21841406 5.98425781 9.04481641 6.15785547 9.04481641 6.37201367M8.53589844 4.59595898C8.63512891 4.59595898 8.73432227 4.55807031 8.8100625 4.48236719L9.70673633 3.58573047C9.85817969 3.43428711 9.85817969 3.18877148 9.70673633 3.03736523 9.55533008 2.88595898 9.30988867 2.88595898 9.15833398 3.03736523L8.26166016 3.93400195C8.11025391 4.0854082 8.11025391 4.33096094 8.26166016 4.48236719 8.3374375 4.55810742 8.43663086 4.59595898 8.53589844 4.59595898M10.142957 2.9889375C10.2421875 2.9889375 10.341418 2.95104883 10.4171582 2.8753457L10.8774629 2.41504102C11.0288691 2.26363477 11.0288691 2.01811914 10.8774629 1.86667578 10.7260566 1.71526953 10.4805781 1.71526953 10.3290605 1.86667578L9.86879297 2.32694336C9.71738672 2.47838672 9.71738672 2.72390234 9.86879297 2.87530859 9.9445332 2.95104883 10.0437266 2.9889375 10.142957 2.9889375M6.37208789 3.69909961C6.58624609 3.69909961 6.75984375 3.52546484 6.75984375 3.31134375L6.75980664.387792969C6.75980664.173634766 6.58617187.0000371093749 6.37205078.0000371093749 6.15789258.0000371093749 5.98429492.173671875 5.98429492.387792969L5.98433203 3.31134375C5.98433203 3.52550195 6.1579668 3.69909961 6.37208789 3.69909961"/>
  </g>
</svg>
