<svg xmlns="http://www.w3.org/2000/svg" width="19" height="18" viewBox="0 0 19 18" xmlns:xlink="http://www.w3.org/1999/xlink">
  <defs>
    <polygon id="a" points=".024 3.289 9.228 3.289 9.228 .034 .024 .034 .024 3.289"/>
    <polygon id="c" points=".002 13.151 .002 .008 19 .008 19 13.151 .002 13.151"/>
  </defs>
  <g fill="none" fill-rule="evenodd">
    <g transform="translate(6.271 13.852)">
      <mask id="b" fill="white">
        <use xlink:href="#a"/>
      </mask>
      <path fill="#0A0A08" d="M1.6953418 2.38184448C1.28840039 2.38184448.957347656 2.05916817.957347656 1.66256781.957347656 1.26600362 1.28840039.943327306 1.6953418.943327306 2.10224609.943327306 2.43333594 1.26600362 2.43333594 1.66256781 2.43333594 2.05920434 2.10224609 2.38184448 1.6953418 2.38184448zM1.6953418.0341048825C.773953125.0341048825.02434375.764665461.02434375 1.66264014.02434375 2.56057866.773953125 3.29113924 1.6953418 3.29113924 2.61669336 3.29113924 3.36630273 2.56057866 3.36630273 1.66264014 3.36630273.764665461 2.61669336.0341048825 1.6953418.0341048825L1.6953418.0341048825zM7.55658203 2.38184448C7.14964063 2.38184448 6.81858789 2.05916817 6.81858789 1.66256781 6.81858789 1.26600362 7.14964063.943327306 7.55658203.943327306 7.96348633.943327306 8.29457617 1.26600362 8.29457617 1.66256781 8.29457617 2.05920434 7.96348633 2.38184448 7.55658203 2.38184448zM7.55658203.0341048825C6.63519336.0341048825 5.88558398.764665461 5.88558398 1.66264014 5.88558398 2.56057866 6.63519336 3.29113924 7.55658203 3.29113924 8.47793359 3.29113924 9.22754297 2.56057866 9.22754297 1.66264014 9.22754297.764665461 8.47793359.0341048825 7.55658203.0341048825L7.55658203.0341048825z" mask="url(#b)"/>
    </g>
    <path fill="#0A0A08" d="M7.55424414,6.22101266 L14.2394609,6.22101266 C14.4971113,6.22101266 14.7059629,6.01746835 14.7059629,5.76636528 C14.7059629,5.51529837 14.4971113,5.31175407 14.2394609,5.31175407 L7.55424414,5.31175407 C7.29659375,5.31175407 7.08774219,5.51529837 7.08774219,5.76636528 C7.08774219,6.01746835 7.29663086,6.22101266 7.55424414,6.22101266"/>
    <mask id="d" fill="white">
      <use xlink:href="#c"/>
    </mask>
    <path fill="#0A0A08" d="M13.8756035,7.67269439 L7.91813867,7.67269439 C7.66052539,7.67269439 7.45167383,7.8762387 7.45167383,8.12734177 C7.45167383,8.37844485 7.66052539,8.58198915 7.91813867,8.58198915 L13.8756035,8.58198915 C14.1332168,8.58198915 14.3420684,8.37844485 14.3420684,8.12734177 C14.3420684,7.87627486 14.1332168,7.67269439 13.8756035,7.67269439" mask="url(#d)"/>
    <path fill="#0A0A08" d="M16.7619336,10.0331284 L5.03273633,10.0331284 L3.72793359,3.86047016 L18.0667734,3.8605425 L16.7619336,10.0331284 Z M18.789998,3.28603978 C18.6120586,3.07323689 18.3484336,2.95121157 18.0667734,2.95121157 L3.53570703,2.95121157 L3.24224609,1.56282098 C3.18097852,1.27320072 2.97828711,1.03001808 2.69992969,0.912224231 L0.652345703,0.046039783 C0.415958984,-0.0540325497 0.141238281,0.051681736 0.0387050781,0.28198915 C-0.0639023438,0.512368897 0.04453125,0.780144665 0.28084375,0.880072333 L2.32842773,1.74629295 L4.58564258,12.4248463 C4.67455664,12.8453888 5.05886133,13.1506329 5.49946094,13.1506329 L16.675543,13.1506329 C16.9331934,13.1506329 17.1420449,12.9470886 17.1420449,12.6959855 C17.1420449,12.4448825 16.9331934,12.2413382 16.675543,12.2413382 L5.49949805,12.2413382 L5.22492578,10.942387 L16.7619336,10.942387 C17.2024961,10.942387 17.5868379,10.6371429 17.6757148,10.2166004 L18.9805918,4.0438698 C19.0374062,3.77508137 18.9679375,3.49880651 18.789998,3.28603978 L18.789998,3.28603978 Z" mask="url(#d)"/>
  </g>
</svg>
