<svg xmlns="http://www.w3.org/2000/svg" width="15" height="24" viewBox="0 0 15 24" xmlns:xlink="http://www.w3.org/1999/xlink">
  <defs>
    <polygon id="a" points=".003 24 14.992 24 14.992 0 .003 0"/>
  </defs>
  <g fill="none" fill-rule="evenodd">
    <mask id="b" fill="white">
      <use xlink:href="#a"/>
    </mask>
    <path fill="#0A0A08" d="M14.0185248,21.4378125 C14.0185248,22.3104844 13.3131988,23.0204063 12.4461801,23.0204063 L2.54580745,23.0204063 C1.6788354,23.0204063 0.973509317,22.3104844 0.973509317,21.4378125 L0.973509317,20.9057813 L14.0185248,20.9057813 L14.0185248,21.4378125 Z M0.973509317,2.5621875 C0.973509317,1.6895625 1.6788354,0.97959375 2.54580745,0.97959375 L12.4461801,0.97959375 C13.3131988,0.97959375 14.0185248,1.6895625 14.0185248,2.5621875 L14.0185248,2.970375 L0.973509317,2.970375 L0.973509317,2.5621875 Z M0.973509317,19.9261875 L14.0185248,19.9261875 L14.0185248,3.94996875 L0.973509317,3.94996875 L0.973509317,19.9261875 Z M12.4461801,0 L2.54580745,0 C1.14204969,0 0,1.14942188 0,2.5621875 L0,21.4378125 C0,22.8505781 1.14204969,24 2.54580745,24 L12.4461801,24 C13.8499379,24 14.9920342,22.8505781 14.9920342,21.4378125 L14.9920342,2.5621875 C14.9920342,1.14942188 13.8499379,0 12.4461801,0 L12.4461801,0 Z" mask="url(#b)"/>
    <path fill="#0A0A08" d="M7.5188559 21.9430313C7.5425559 21.9430313 7.5618559 21.9623313 7.5618559 21.9857313 7.5618559 22.0091313 7.5424559 22.0283313 7.5188559 22.0283313 7.4952559 22.0283313 7.4760559 22.0091313 7.4760559 21.9857313 7.4760559 21.9623313 7.4951559 21.9430313 7.5188559 21.9430313zM7.49599379 22.922625C8.02178571 22.922625 8.44956522 22.4921719 8.44956522 21.9630469 8.44956522 21.4339219 8.02178571 21.0034219 7.49599379 21.0034219 6.97020186 21.0034219 6.54251553 21.4339219 6.54251553 21.9630469 6.54251553 22.4921719 6.97020186 22.922625 7.49599379 22.922625L7.49599379 22.922625zM8.25847826 7.16723438C7.99448758 7.11515625 7.7388354 7.288125 7.68712733 7.55357813L6.18167702 15.2737969C6.12992236 15.53925 6.30181677 15.7966406 6.56557453 15.8487188 6.59720497 15.855 6.62874224 15.8579531 6.65986025 15.8579531 6.88784161 15.8579531 7.09141304 15.6959531 7.13697205 15.4624219L8.64242236 7.74210938C8.69408385 7.47670313 8.52223602 7.2193125 8.25847826 7.16723438M12.0655435 11.5193437C12.0651708 11.5113281 12.0651708 11.5033125 12.0643789 11.49525 12.0636335 11.4877031 12.062236 11.48025 12.0611646 11.4727031 12.0600466 11.4646406 12.0592081 11.456625 12.0577174 11.4487031 12.0562267 11.4409687 12.0540373 11.433375 12.0521273 11.4256406 12.050264 11.418 12.0487733 11.4103125 12.0465839 11.4028125 12.0443478 11.3952187 12.0413665 11.3878125 12.0387578 11.3803594 12.0361957 11.3728594 12.0339596 11.3653125 12.0309783 11.3579062 12.0282764 11.3511562 12.0248758 11.3446875 12.0218478 11.3380312 12.0182609 11.3301562 12.015 11.3221406 12.0109472 11.3144062 12.0080124 11.3087812 12.004472 11.3034375 12.0013043 11.2979531 11.996413 11.2895156 11.9918012 11.2808906 11.9863975 11.2726406 11.9833696 11.2680469 11.9797826 11.2637344 11.9766149 11.2592344 11.9703727 11.2504219 11.9643168 11.2415156 11.9574224 11.2330312 11.9546739 11.2296094 11.951413 11.2264687 11.9485248 11.2230937 11.9406988 11.2139062 11.9329193 11.2047656 11.9243012 11.1960937L9.66712733 8.922375C9.47715839 8.73098437 9.16891304 8.73079687 8.97871118 8.92204687 8.78850932 9.11320312 8.78836957 9.42332812 8.97833851 9.61467187L10.8918634 11.5422187 9.01220497 13.4356406C8.82228261 13.6269844 8.82242236 13.9371562 9.01257764 14.1283594 9.1076087 14.2238906 9.23212733 14.2716094 9.3565528 14.2716094 9.48121118 14.2716094 9.60586957 14.2237031 9.7009472 14.1279844L11.9242547 11.8883906C11.9328727 11.8797187 11.9406522 11.8704844 11.9484783 11.8613906 11.9513665 11.8580156 11.9546273 11.854875 11.9573758 11.8514531 11.9642702 11.8429687 11.9703261 11.8340625 11.9765683 11.82525 11.979736 11.82075 11.983323 11.8164375 11.9863509 11.8117969 11.9917547 11.8035937 11.9963665 11.7949687 12.0012578 11.7864844 12.0044255 11.781 12.0079658 11.7756562 12.0109006 11.7700781 12.0149534 11.7623437 12.0181677 11.754375 12.0218012 11.7464531 12.0248292 11.7397969 12.0282298 11.7332812 12.0309317 11.7265312 12.033913 11.7192187 12.0361491 11.711625 12.0387112 11.704125 12.0413199 11.696625 12.0443012 11.6892187 12.0465373 11.6816719 12.0487733 11.674125 12.0502174 11.6663906 12.0520807 11.6587969 12.0538975 11.6511094 12.0561801 11.6435156 12.0576708 11.6357812 12.0591615 11.6278594 12.06 11.61975 12.061118 11.6117812 12.0621894 11.6042344 12.063587 11.5967812 12.0643323 11.5891875 12.0651242 11.5812187 12.0651242 11.5731562 12.0654969 11.5650937 12.065823 11.5574531 12.0665683 11.5498594 12.0665683 11.5422187 12.0665683 11.5345781 12.0659161 11.5269844 12.0655435 11.5193437M3.91131988 11.5080937L5.79093168 9.61467187C5.98090062 9.42328125 5.98071429 9.11320312 5.79051242 8.92204687 5.60031056 8.73079687 5.29215839 8.73098437 5.10209627 8.922375L2.8788354 11.1619687C2.87054348 11.1703125 2.86304348 11.1792656 2.85545031 11.1880781 2.85228261 11.1917344 2.84878882 11.1951562 2.84571429 11.1989062 2.83937888 11.2067344 2.8338354 11.2149375 2.82805901 11.2230937 2.8243323 11.2282969 2.82018634 11.2332656 2.81673913 11.2385625 2.81198758 11.245875 2.80793478 11.2534687 2.80360248 11.2609687 2.79982919 11.2673906 2.79568323 11.2737187 2.79223602 11.2803281 2.78874224 11.2869375 2.78604037 11.2937812 2.78291925 11.3004844 2.7793323 11.3082656 2.77537267 11.3159062 2.77215839 11.3238281 2.76964286 11.3300625 2.76782609 11.3364844 2.76559006 11.3427656 2.76251553 11.3513437 2.75916149 11.3599219 2.75659938 11.3686875 2.75459627 11.3753437 2.75333851 11.3821875 2.75166149 11.3889375 2.74951863 11.3975156 2.74709627 11.4059531 2.74541925 11.4145781 2.74397516 11.4220781 2.7432764 11.429625 2.74215839 11.4371719 2.74099379 11.4451875 2.73950311 11.4531562 2.73871118 11.4611719 2.73801242 11.4690469 2.73796584 11.4769687 2.73759317 11.4848906 2.73726708 11.492625 2.73652174 11.5003594 2.73652174 11.5081406 2.73652174 11.5159219 2.73726708 11.5236562 2.73759317 11.5313906 2.73801242 11.5393125 2.73801242 11.5472344 2.73871118 11.5551094 2.73945652 11.5629844 2.7409472 11.5708594 2.74206522 11.5787344 2.74318323 11.5864219 2.74392857 11.5941094 2.74537267 11.6017031 2.74695652 11.6098594 2.74928571 11.6179219 2.75128882 11.6260312 2.75301242 11.63325 2.75445652 11.6404687 2.7565528 11.6475937 2.75888199 11.6556094 2.76200311 11.6633906 2.76475155 11.6713594 2.76726708 11.6783906 2.76931677 11.6855625 2.7721118 11.6924531 2.775 11.6995312 2.77854037 11.706375 2.78175466 11.7133125 2.78520186 11.7208594 2.78832298 11.7285469 2.79223602 11.7359531 2.79526398 11.7417656 2.79899068 11.7472969 2.80225155 11.7530625 2.80695652 11.7613125 2.81142857 11.7696562 2.81673913 11.7776719 2.81976708 11.7822656 2.82335404 11.7865781 2.82652174 11.791125 2.83276398 11.7999375 2.83886646 11.8088437 2.84571429 11.8173281 2.84846273 11.82075 2.8517236 11.8238906 2.8546118 11.8272656 2.86243789 11.8364062 2.87026398 11.8455469 2.8788354 11.8542187L5.13600932 14.1279844C5.23108696 14.2237031 5.35574534 14.2716094 5.48040373 14.2716094 5.60492236 14.2716094 5.72939441 14.2238906 5.82437888 14.1283594 6.01458075 13.9372031 6.0147205 13.6270781 5.82479814 13.4356406L3.91131988 11.5080937"/>
  </g>
</svg>
