<svg xmlns="http://www.w3.org/2000/svg" width="20" height="24" viewBox="0 0 20 24">
  <g fill="#0A0A08" fill-rule="evenodd">
    <path d="M19.0157044,22.954386 C19.0157044,22.9918129 18.9872055,23.022269 18.9522864,23.022269 L15.283649,23.022269 L15.283649,21.8532398 L19.0157044,21.8532398 L19.0157044,22.954386 Z M10.5868822,22.9539649 L10.5868822,21.8532398 L14.3183372,21.8532398 L14.3183372,23.022269 L10.650254,23.022269 C10.6152887,23.022269 10.5868822,22.9916257 10.5868822,22.9539649 Z M10.588545,20.7404912 C11.8139954,20.7404912 12.8109931,19.7250058 12.8109931,18.4766316 L12.8109931,10.511345 L19.0157044,10.511345 L19.0157044,20.8755556 L10.5869284,20.8755556 L10.5869284,20.7404912 L10.588545,20.7404912 Z M0.965265589,18.4766784 L0.965265589,18.0905731 L11.8456813,18.0905731 L11.8456813,18.4766784 C11.8456813,19.1858713 11.281709,19.7628538 10.5884988,19.7628538 L2.22258661,19.7628538 C1.52933025,19.762807 0.965265589,19.1858713 0.965265589,18.4766784 Z M0.965265589,2.31064327 C0.965265589,1.60140351 1.52933025,1.02442105 2.22258661,1.02442105 L10.588545,1.02442105 C11.2817552,1.02442105 11.8457275,1.60140351 11.8457275,2.31064327 L11.8457275,2.59069006 L0.965265589,2.59069006 L0.965265589,2.31064327 Z M0.965265589,17.1129357 L11.8456813,17.1129357 L11.8456813,3.56832749 L0.965265589,3.56832749 L0.965265589,17.1129357 Z M18.9516397,8.36495906 C18.9869284,8.36495906 19.0157044,8.39569591 19.0157044,8.43354386 L19.0157044,9.53366082 L12.8109469,9.53366082 L12.8109469,8.36495906 L18.9516397,8.36495906 Z M18.9516397,7.38727485 L12.8109469,7.38727485 L12.8109469,2.31064327 C12.8109469,1.06231579 11.8139492,0.0467368421 10.588545,0.0467368421 L2.22258661,0.0467368421 C0.996997691,0.0467368421 0,1.06231579 0,2.31064327 L0,18.4766784 C0,19.7250058 0.996997691,20.740538 2.22258661,20.740538 L9.62166282,20.740538 L9.62166282,22.9540117 C9.62166282,23.530807 10.0830947,24 10.6503002,24 L18.9523326,24 C19.5195381,24 19.9810162,23.5309474 19.9810162,22.9544327 L19.9810162,8.43354386 C19.98097,7.85665497 19.5192148,7.38727485 18.9516397,7.38727485 L18.9516397,7.38727485 Z"/>
    <path d="M6.40545035 19.086269C6.31722864 19.086269 6.24545035 19.0145965 6.24545035 18.9265497 6.24545035 18.8384094 6.31722864 18.7666901 6.40545035 18.7666901 6.49371824 18.7666901 6.56549654 18.8384094 6.56549654 18.9265497 6.56549654 19.0146433 6.49371824 19.086269 6.40545035 19.086269zM6.40545035 18.1085848C5.96147806 18.1085848 5.60023095 18.4755556 5.60023095 18.9265497 5.60023095 19.3775906 5.96143187 19.7443743 6.40545035 19.7443743 6.84946882 19.7443743 7.21071594 19.3774971 7.21071594 18.9265497 7.21066975 18.4755556 6.84946882 18.1085848 6.40545035 18.1085848L6.40545035 18.1085848zM3.08882217 7.92004678C2.82235566 7.92004678 2.60618938 8.13890058 2.60618938 8.40888889L2.60618938 15.3963509C2.60618938 15.6662924 2.82235566 15.885193 3.08882217 15.885193 3.35533487 15.885193 3.57145497 15.6662924 3.57145497 15.3963509L3.57145497 8.40888889C3.57145497 8.13890058 3.35533487 7.92004678 3.08882217 7.92004678M3.08882217 5.33740351C2.82235566 5.33740351 2.60618938 5.55625731 2.60618938 5.82624561L2.60618938 6.93567251C2.60618938 7.20566082 2.82235566 7.42451462 3.08882217 7.42451462 3.35533487 7.42451462 3.57145497 7.20566082 3.57145497 6.93567251L3.57145497 5.82624561C3.57145497 5.55625731 3.35533487 5.33740351 3.08882217 5.33740351"/>
  </g>
</svg>
