<svg xmlns="http://www.w3.org/2000/svg" width="30" height="19" viewBox="0 0 30 19" xmlns:xlink="http://www.w3.org/1999/xlink">
  <defs>
    <polygon id="a" points=".003 18.997 29.063 18.997 29.063 .014 .003 .014"/>
  </defs>
  <g fill="none" fill-rule="evenodd" opacity=".4">
    <mask id="b" fill="white">
      <use xlink:href="#a"/>
    </mask>
    <path fill="#0A0A08" d="M8.4781897 7.99016413L15.1411084 9.73377508 11.3550934 15.9020182 8.4781897 7.99016413zM27.5288287 9.81520365L20.7078259 7.63828875 24.650733 1.90225228 27.5288287 9.81520365zM18.2012988 10.5345471C18.2552802 10.548465 18.3098859 10.5557416 18.363186 10.5557416 18.5725269 10.5557416 18.7727856 10.452541 18.8963013 10.2732827L19.9255792 8.77499696 26.58776 10.9012644 12.76383 16.1044924 16.4619763 10.0793556 18.2012988 10.5345471zM18.0888519 9.13894225L9.61259216 6.92102432 23.1053687 1.84248024 18.0888519 9.13894225zM28.9816699 10.0001793L25.6649689.879024316C25.5445184.547592705 25.3043555.283787234 24.9888116.136176292 24.6732111-.0114924012 24.3201471-.0252948328 23.994386.0973100304L7.82167236 6.18464438C7.49591125 6.30724924 7.23661926 6.55159271 7.09147705 6.87257143 6.94633484 7.19366565 6.93282532 7.55293313 7.05333252 7.88430699L10.3700336 17.0055198C10.490484 17.3369514 10.730647 17.6006991 11.0461908 17.7484255 11.219317 17.8294498 11.403739 17.8701064 11.5887854 17.8701064 11.7410229 17.8701064 11.8936011 17.842617 12.0406732 17.787234L28.2133868 11.6999574 28.2134436 11.6999574C28.885741 11.4467204 29.2304041 10.6842948 28.9816699 10.0001793L28.9816699 10.0001793zM6.739151 16.7958267L4.28921631 17.7179909C3.95244324 17.8448116 3.78050903 18.2252158 3.90504639 18.5678511 4.0021106 18.8348328 4.25050415 19 4.51484802 19 4.58977478 19 4.66600708 18.9866596 4.74036621 18.9587082L7.1903009 18.0365441C7.52701721 17.9097812 7.69900818 17.5292614 7.57441406 17.1866839 7.44987671 16.8440486 7.07575378 16.6691793 6.739151 16.7958267M2.13654785 12.5064468C2.21141785 12.5064468 2.28770691 12.4931064 2.36206604 12.465155L3.87433777 11.8959058C4.21111084 11.7692006 4.38310181 11.3886809 4.25850769 11.0460456 4.13391357 10.7034103 3.75984741 10.5285988 3.42318787 10.6551884L1.91085938 11.2244377C1.57414307 11.3512584 1.4021521 11.7316626 1.52674622 12.0742979 1.62381042 12.3412796 1.87226074 12.5064468 2.13654785 12.5064468M1.54842957 15.6657599L.424698486 16.0887264C.087925415 16.2155471-.0840087891 16.5960091.0405853271 16.9386444.137649536 17.2055684.386043091 17.3707356.650386963 17.3707356.725256958 17.3707356.801546021 17.3574529.875905151 17.3294438L1.99963623 16.9064772C2.33635254 16.7796565 2.50834351 16.3991945 2.38374939 16.056617 2.25915527 15.7139818 1.88514587 15.5390547 1.54842957 15.6657599" mask="url(#b)"/>
  </g>
</svg>
