<svg xmlns="http://www.w3.org/2000/svg" width="26" height="20" viewBox="0 0 26 20">
  <g fill="#000000" fill-rule="evenodd" opacity=".4">
    <path d="M2.0089291 2.400125C2.10898778 2.400125 2.20758435 2.3600625 2.27833741 2.29 2.34959902 2.2204375 2.39034719 2.1235 2.39034719 2.025125 2.39034719 1.9264375 2.34959902 1.8295625 2.27833741 1.7599375 2.20758435 1.689875 2.10898778 1.650125 2.0089291 1.650125 1.90855257 1.650125 1.81001956 1.689875 1.73920293 1.7599375 1.66794132 1.8295625 1.627511 1.9264375 1.627511 2.025125 1.627511 2.1235 1.66794132 2.2204375 1.73920293 2.29 1.81001956 2.3600625 1.90810758 2.400125 2.0089291 2.400125zM3.22940342 2.400125C3.3294621 2.400125 3.42831296 2.3600625 3.49881174 2.29 3.57007335 2.2204375 3.61082152 2.1235 3.61082152 2.025125 3.61082152 1.9264375 3.57007335 1.8295625 3.49881174 1.7599375 3.42831296 1.689875 3.3294621 1.650125 3.22940342 1.650125 3.12909046 1.650125 3.03049389 1.689875 2.95974083 1.7599375 2.88866993 1.8295625 2.84798533 1.9264375 2.84798533 2.025125 2.84798533 2.1235 2.88866993 2.2204375 2.95974083 2.29 3.03049389 2.3600625 3.12909046 2.400125 3.22940342 2.400125zM4.44987775 2.400125C4.54993643 2.400125 4.64878729 2.3600625 4.71928606 2.29 4.79054768 2.2204375 4.83129584 2.1235 4.83129584 2.025125 4.83129584 1.9264375 4.79054768 1.8295625 4.71928606 1.7599375 4.64878729 1.689875 4.54993643 1.650125 4.44987775 1.650125 4.34981907 1.650125 4.25096822 1.689875 4.18046944 1.7599375 4.10920782 1.8295625 4.06845966 1.9264375 4.06845966 2.025125 4.06845966 2.1235 4.10920782 2.2204375 4.18046944 2.29 4.25096822 2.3600625 4.34981907 2.400125 4.44987775 2.400125zM6.07738875 2.400125L21.5374719 2.400125C21.7480147 2.400125 21.91889 2.232125 21.91889 2.025125 21.91889 1.8178125 21.7480147 1.650125 21.5374719 1.650125L6.07738875 1.650125C5.86652812 1.650125 5.69597066 1.8178125 5.69597066 2.025125 5.69597066 2.232125 5.86652812 2.400125 6.07738875 2.400125zM23.164665 2.400125L23.9784205 2.400125C24.1890269 2.400125 24.3598386 2.232125 24.3598386 2.025125 24.3598386 1.8178125 24.1890269 1.650125 23.9784205 1.650125L23.164665 1.650125C22.9541222 1.650125 22.7832469 1.8178125 22.7832469 2.025125 22.7832469 2.232125 22.9541222 2.400125 23.164665 2.400125zM2.41564792 5.9999375L5.26363325 5.9999375C5.47417604 5.9999375 5.64505134 5.832 5.64505134 5.6249375 5.64505134 5.4179375 5.47417604 5.2499375 5.26363325 5.2499375L2.41564792 5.2499375C2.20510513 5.2499375 2.03422983 5.4179375 2.03422983 5.6249375 2.03422983 5.832 2.20510513 5.9999375 2.41564792 5.9999375zM5.26363325 7.2499375L2.41564792 7.2499375C2.20510513 7.2499375 2.03422983 7.4179375 2.03422983 7.6249375 2.03422983 7.832 2.20510513 7.9999375 2.41564792 7.9999375L5.26363325 7.9999375C5.47417604 7.9999375 5.64505134 7.832 5.64505134 7.6249375 5.64505134 7.4179375 5.47417604 7.2499375 5.26363325 7.2499375zM5.26363325 9.2499375L2.41564792 9.2499375C2.20510513 9.2499375 2.03422983 9.4179375 2.03422983 9.6249375 2.03422983 9.832 2.20510513 9.9999375 2.41564792 9.9999375L5.26363325 9.9999375C5.47417604 9.9999375 5.64505134 9.832 5.64505134 9.6249375 5.64505134 9.4179375 5.47417604 9.2499375 5.26363325 9.2499375zM5.26363325 11.2499375L2.41564792 11.2499375C2.20510513 11.2499375 2.03422983 11.4179375 2.03422983 11.6249375 2.03422983 11.832 2.20510513 11.9999375 2.41564792 11.9999375L5.26363325 11.9999375C5.47417604 11.9999375 5.64505134 11.832 5.64505134 11.6249375 5.64505134 11.4179375 5.47417604 11.2499375 5.26363325 11.2499375zM11.7730416 5.9999375L14.6210269 5.9999375C14.8315697 5.9999375 15.002445 5.832 15.002445 5.6249375 15.002445 5.4179375 14.8315697 5.2499375 14.6210269 5.2499375L11.7730416 5.2499375C11.5624988 5.2499375 11.3916235 5.4179375 11.3916235 5.6249375 11.3916235 5.832 11.5624988 5.9999375 11.7730416 5.9999375zM11.7730416 7.9999375L17.8757311 7.9999375C18.0863374 7.9999375 18.2571491 7.832 18.2571491 7.6249375 18.2571491 7.4179375 18.0863374 7.2499375 17.8757311 7.2499375L11.7730416 7.2499375C11.5624988 7.2499375 11.3916235 7.4179375 11.3916235 7.6249375 11.3916235 7.832 11.5624988 7.9999375 11.7730416 7.9999375zM11.7730416 9.9999375L16.2485379 9.9999375C16.4590807 9.9999375 16.629956 9.832 16.629956 9.6249375 16.629956 9.4179375 16.4590807 9.2499375 16.2485379 9.2499375L11.7730416 9.2499375C11.5624988 9.2499375 11.3916235 9.4179375 11.3916235 9.6249375 11.3916235 9.832 11.5624988 9.9999375 11.7730416 9.9999375zM21.5374719 11.2499375L11.7730416 11.2499375C11.5624988 11.2499375 11.3916235 11.4179375 11.3916235 11.6249375 11.3916235 11.832 11.5624988 11.9999375 11.7730416 11.9999375L21.5374719 11.9999375C21.7480147 11.9999375 21.91889 11.832 21.91889 11.6249375 21.91889 11.4179375 21.7480147 11.2499375 21.5374719 11.2499375zM10.1458484 15.2499375L9.33209291 15.2499375C9.12148655 15.2499375 8.95067482 15.4179375 8.95067482 15.6249375 8.95067482 15.832 9.12148655 15.9999375 9.33209291 15.9999375L10.1458484 15.9999375C10.3563912 15.9999375 10.5272665 15.832 10.5272665 15.6249375 10.5272665 15.4179375 10.3563912 15.2499375 10.1458484 15.2499375zM10.1458484 17.2499375L9.33209291 17.2499375C9.12148655 17.2499375 8.95067482 17.4179375 8.95067482 17.6249375 8.95067482 17.832 9.12148655 17.9999375 9.33209291 17.9999375L10.1458484 17.9999375C10.3563912 17.9999375 10.5272665 17.832 10.5272665 17.6249375 10.5272665 17.4179375 10.3563912 17.2499375 10.1458484 17.2499375zM11.7730416 15.9999375L12.5867971 15.9999375C12.7973399 15.9999375 12.9682152 15.832 12.9682152 15.6249375 12.9682152 15.4179375 12.7973399 15.2499375 12.5867971 15.2499375L11.7730416 15.2499375C11.5624988 15.2499375 11.3916235 15.4179375 11.3916235 15.6249375 11.3916235 15.832 11.5624988 15.9999375 11.7730416 15.9999375zM13.4005526 17.2499375L11.7730416 17.2499375C11.5624988 17.2499375 11.3916235 17.4179375 11.3916235 17.6249375 11.3916235 17.832 11.5624988 17.9999375 11.7730416 17.9999375L13.4005526 17.9999375C13.6110954 17.9999375 13.7819707 17.832 13.7819707 17.6249375 13.7819707 17.4179375 13.6110954 17.2499375 13.4005526 17.2499375zM20.3169976 15.2499375L14.2143081 15.2499375C14.0034474 15.2499375 13.83289 15.4179375 13.83289 15.6249375 13.83289 15.832 14.0034474 15.9999375 14.2143081 15.9999375L20.3169976 15.9999375C20.5275403 15.9999375 20.6984156 15.832 20.6984156 15.6249375 20.6984156 15.4179375 20.5275403 15.2499375 20.3169976 15.2499375zM17.4690122 17.2499375L15.0277457 17.2499375C14.8172029 17.2499375 14.6463276 17.4179375 14.6463276 17.6249375 14.6463276 17.832 14.8172029 17.9999375 15.0277457 17.9999375L17.4690122 17.9999375C17.679555 17.9999375 17.8504303 17.832 17.8504303 17.6249375 17.8504303 17.4179375 17.679555 17.2499375 17.4690122 17.2499375zM10.1458484 5.2499375L9.33209291 5.2499375C9.12148655 5.2499375 8.95067482 5.4179375 8.95067482 5.6249375 8.95067482 5.832 9.12148655 5.9999375 9.33209291 5.9999375L10.1458484 5.9999375C10.3563912 5.9999375 10.5272665 5.832 10.5272665 5.6249375 10.5272665 5.4179375 10.3563912 5.2499375 10.1458484 5.2499375zM10.1458484 7.2499375L9.33209291 7.2499375C9.12148655 7.2499375 8.95067482 7.4179375 8.95067482 7.6249375 8.95067482 7.832 9.12148655 7.9999375 9.33209291 7.9999375L10.1458484 7.9999375C10.3563912 7.9999375 10.5272665 7.832 10.5272665 7.6249375 10.5272665 7.4179375 10.3563912 7.2499375 10.1458484 7.2499375zM10.1458484 9.2499375L9.33209291 9.2499375C9.12148655 9.2499375 8.95067482 9.4179375 8.95067482 9.6249375 8.95067482 9.832 9.12148655 9.9999375 9.33209291 9.9999375L10.1458484 9.9999375C10.3563912 9.9999375 10.5272665 9.832 10.5272665 9.6249375 10.5272665 9.4179375 10.3563912 9.2499375 10.1458484 9.2499375zM10.1458484 11.2499375L9.33209291 11.2499375C9.12148655 11.2499375 8.95067482 11.4179375 8.95067482 11.6249375 8.95067482 11.832 9.12148655 11.9999375 9.33209291 11.9999375L10.1458484 11.9999375C10.3563912 11.9999375 10.5272665 11.832 10.5272665 11.6249375 10.5272665 11.4179375 10.3563912 11.2499375 10.1458484 11.2499375zM5.26363325 13.2499375L2.41564792 13.2499375C2.20510513 13.2499375 2.03422983 13.4179375 2.03422983 13.6249375 2.03422983 13.832 2.20510513 13.9999375 2.41564792 13.9999375L5.26363325 13.9999375C5.47417604 13.9999375 5.64505134 13.832 5.64505134 13.6249375 5.64505134 13.4179375 5.47417604 13.2499375 5.26363325 13.2499375zM5.26363325 15.2499375L2.41564792 15.2499375C2.20510513 15.2499375 2.03422983 15.4179375 2.03422983 15.6249375 2.03422983 15.832 2.20510513 15.9999375 2.41564792 15.9999375L5.26363325 15.9999375C5.47417604 15.9999375 5.64505134 15.832 5.64505134 15.6249375 5.64505134 15.4179375 5.47417604 15.2499375 5.26363325 15.2499375zM5.26363325 17.2499375L2.41564792 17.2499375C2.20510513 17.2499375 2.03422983 17.4179375 2.03422983 17.6249375 2.03422983 17.832 2.20510513 17.9999375 2.41564792 17.9999375L5.26363325 17.9999375C5.47417604 17.9999375 5.64505134 17.832 5.64505134 17.6249375 5.64505134 17.4179375 5.47417604 17.2499375 5.26363325 17.2499375z"/>
    <path d="M23.9784205,0.05 L2.0089291,0.05 C0.901163814,0.05 0,0.936 0,2.025125 L0,18.025125 C0,19.1139375 0.901163814,19.9999375 2.0089291,19.9999375 L23.9784205,19.9999375 C25.0861858,19.9999375 25.9873496,19.1139375 25.9873496,18.025125 L25.9873496,2.025125 C25.9873496,0.936 25.0861858,0.05 23.9784205,0.05 Z M7.67928117,13.2499375 L25.2245134,13.2499375 L25.2245134,3.9999375 L7.67928117,3.9999375 L7.67928117,13.2499375 Z M2.0089291,0.8 L23.9784205,0.8 C24.6655452,0.8 25.2245134,1.3495625 25.2245134,2.025125 L25.2245134,3.2499375 L0.762836186,3.2499375 L0.762836186,2.025125 C0.762836186,1.3495625 1.3218044,0.8 2.0089291,0.8 Z M0.762836186,18.025125 L0.762836186,3.9999375 L6.91644499,3.9999375 L6.91644499,19.2499375 L2.0089291,19.2499375 C1.3218044,19.2499375 0.762836186,18.700375 0.762836186,18.025125 Z M23.9784205,19.2499375 L7.67928117,19.2499375 L7.67928117,13.9999375 L25.2245134,13.9999375 L25.2245134,18.025125 C25.2245134,18.700375 24.6655452,19.2499375 23.9784205,19.2499375 Z"/>
  </g>
</svg>
