<svg xmlns="http://www.w3.org/2000/svg" width="22" height="22" viewBox="0 0 22 22" xmlns:xlink="http://www.w3.org/1999/xlink">
  <defs>
    <polygon id="a" points=".003 22 22 22 22 .004 .003 .004"/>
  </defs>
  <g fill="none" fill-rule="evenodd" opacity=".4">
    <mask id="b" fill="white">
      <use xlink:href="#a"/>
    </mask>
    <path fill="#0A0A08" d="M18.8621211,12.823207 C16.1918281,15.493543 11.8470859,15.493543 9.17679297,12.823207 C7.88326172,11.5296758 7.17092578,9.80989453 7.17092578,7.98054297 C7.17092578,6.15114844 7.88326172,4.43136719 9.17679297,3.13792187 C10.5119609,1.80279687 12.2656875,1.13519141 14.0195,1.13519141 C15.7732266,1.13519141 17.5270391,1.80271094 18.8621641,3.13792187 C20.1556953,4.43136719 20.8680742,6.15123437 20.8680742,7.98054297 C20.8680742,9.80985156 20.1556523,11.5296758 18.8621211,12.823207 Z M6.80324219,17.1339609 L4.86603906,15.1967578 L5.67101563,14.3918242 L7.60821875,16.3290703 L6.80324219,17.1339609 Z M3.47037109,20.4667891 C3.21165625,20.7255039 2.86769141,20.8679453 2.50176953,20.8679453 C2.13589062,20.8679453 1.79188281,20.7254609 1.53316797,20.4667461 C1.27449609,20.2080742 1.13201172,19.8640664 1.13201172,19.4981875 C1.13201172,19.1323516 1.27449609,18.7883008 1.53325391,18.5295859 L4.06557422,15.9972656 L6.00273437,17.9344687 L3.47037109,20.4667891 Z M19.6625859,2.33741406 C16.550918,-0.774210938 11.4879961,-0.774210938 8.37637109,2.33741406 C6.86902734,3.84471484 6.03891406,5.84886328 6.03891406,7.98054297 C6.03891406,9.92242969 6.72808984,11.7582266 7.99025391,13.2093242 L7.03982813,14.15975 L6.07122656,13.1911484 C5.96509375,13.0850586 5.82110547,13.025375 5.67101562,13.025375 C5.52092578,13.025375 5.3769375,13.0850586 5.27080469,13.1911484 L0.732875,17.7291641 C0.260261719,18.2016484 0,18.8299375 0,19.4981875 C0,20.1664805 0.260261719,20.7947266 0.732746094,21.2672109 C1.20527344,21.7397812 1.8335625,22 2.50176953,22 C3.16997656,22 3.79830859,21.7397812 4.27079297,21.2672539 L8.80880859,16.7293242 C8.91494141,16.6231914 8.97458203,16.4792031 8.97458203,16.3291133 C8.97458203,16.1790234 8.91494141,16.0350352 8.80880859,15.9289023 L7.84020703,14.9603008 L8.79089062,14.0095742 C10.2859453,15.307875 12.1525508,15.9574336 14.0194141,15.9574336 C16.0630938,15.9574336 18.1067305,15.1795273 19.662543,13.6237578 C21.1698438,12.1163711 22,10.1123086 22,7.98062891 C22,5.84882031 21.1698867,3.84471484 19.6625859,2.33741406 L19.6625859,2.33741406 Z" mask="url(#b)"/>
    <path fill="#0A0A08" d="M17.1275586,11.0886445 C15.413707,12.8024961 12.6251641,12.8024961 10.9113125,11.0886875 C9.19746094,9.37487891 9.19746094,6.58625 10.9112695,4.87239844 C11.7682812,4.01538672 12.8936758,3.58703125 14.0194141,3.58703125 C15.1449375,3.58703125 16.2707617,4.01560156 17.1275586,4.87239844 C18.8414102,6.58620703 18.8414102,9.37479297 17.1275586,11.0886445 Z M17.9280234,4.07193359 C15.7728398,1.91675 12.2660742,1.91670703 10.1108906,4.07193359 C7.95570703,6.22711719 7.95570703,9.73388281 10.1109336,11.8890664 C11.1885469,12.9666367 12.6039805,13.5054648 14.0195,13.5054648 C15.4349766,13.5054648 16.8504961,12.9666367 17.9281094,11.8890664 L17.9281094,11.8890234 C20.083207,9.73388281 20.083207,6.22711719 17.9280234,4.07193359 L17.9280234,4.07193359 Z"/>
    <path fill="#0A0A08" d="M11.9118828,5.87292578 C11.6908516,6.09395703 11.6908516,6.45231641 11.9118828,6.67343359 C12.1329141,6.89442187 12.4912734,6.89442187 12.7123906,6.67343359 C13.4330625,5.95267578 14.6058945,5.95267578 15.3266523,6.67343359 C15.4372109,6.78394922 15.5820156,6.83920703 15.7268633,6.83920703 C15.8717109,6.83920703 16.0166016,6.78394922 16.1270742,6.67343359 C16.3481055,6.45240234 16.3481055,6.094 16.1270742,5.87292578 C14.9648555,4.71083594 13.0740586,4.71083594 11.9118828,5.87292578"/>
  </g>
</svg>
