<?xml version="1.0" standalone="no"?>
<!DOCTYPE svg PUBLIC "-//W3C//DTD SVG 1.1//EN" "http://www.w3.org/Graphics/SVG/1.1/DTD/svg11.dtd" >
<svg>
<metadata>
Created by FontForge 20090622 at Fri Nov 11 17:25:43 2016
 By deploy user
&#194;&#169; 2000 Adobe Systems Incorporated. All Rights Reserved.
</metadata>
<defs>
<font id="ACaslonPro-Italic" horiz-adv-x="500" >
  <font-face 
    font-family="Adobe Caslon Pro"
    font-weight="400"
    font-style="italic"
    font-stretch="normal"
    units-per-em="1000"
    panose-1="2 5 5 2 5 5 11 9 10 3"
    ascent="735"
    descent="-265"
    x-height="416"
    cap-height="673"
    bbox="-225 -700 1501.31 1002"
    underline-thickness="50"
    underline-position="-50"
    slope="-22"
    unicode-range="U+0020-U+FB06"
  />
<missing-glyph 
d="M50 95l170 255l-170 255v-510zM420 50l-170 255l-170 -255h340zM450 95v510l-170 -255zM420 650h-340l170 -255zM0 700h500v-700h-500v700z" />
    <glyph glyph-name="fi" unicode="fi" horiz-adv-x="505" 
d="M80 352q-7 0 -6 7l6 20q2 7 3.5 8.5t5.5 1.5h84l29 68t32 65.5t37 59.5t45 50q29 26 62.5 39.5t83.5 13.5q31 0 51 -8.5t32 -20t17 -22.5t5 -17q0 -20 -11 -32.5t-26 -12.5q-26 0 -35 14.5t-9 27.5v15t-6 13q-5 5 -13 9t-28 4t-38 -7t-37 -24q-17 -15 -34 -41t-33 -58.5
t-29.5 -67.5t-24.5 -68h179q24 0 39 5.5t23 5.5q10 0 -1 -29l-109 -273q-11 -28 -9 -36.5t12 -8.5q6 0 19.5 11.5t28.5 26.5t28 29.5t17 20.5q2 5 9 -1l13 -11q3 -4 1 -6q-4 -6 -23.5 -27.5t-46 -45t-56 -42t-53.5 -18.5q-16 0 -23.5 6t-7.5 15q0 5 4 17t9.5 27l12 31.5
l11.5 29.5l79 204q8 20 -2 26t-30 6h-135q-19 -45 -41 -110.5t-52 -146.5l-46 -127.5t-56 -127.5t-76.5 -98t-106.5 -39q-37 0 -57 20t-20 43q0 16 11.5 27.5t28.5 13.5q17 -1 27 -13t12 -24q1 -11 9 -20t25 -9q29 0 52.5 31.5t44 80t39 108l37.5 115.5l57.5 165.5
t40.5 110.5h-81z" />
    <glyph glyph-name="fl" unicode="fl" horiz-adv-x="507" 
d="M429 390l69 170q7 16 8.5 26.5t1.5 18.5q0 5 -3 13t-11.5 15.5t-23.5 12.5t-39 5q-46 0 -79 -27q-13 -11 -24.5 -26.5t-24.5 -42.5t-29 -67t-37 -98h192zM227 353l-75 -232l-30 -93.5t-36 -96t-44.5 -90t-56.5 -75.5q-62 -63 -129 -63q-20 0 -34 6t-23 14.5t-13.5 18
t-4.5 15.5q0 18 11.5 31.5t28.5 13.5t26.5 -10.5t13.5 -21.5q11 -27 28 -27q13 0 29 8.5t26 19.5q24 28 44 72t37.5 94t32.5 101.5t29 93.5l70 221h-84q-9 0 -6 8l8 21q2 3 3.5 5.5t6.5 2.5h85q13 37 25.5 68.5t27.5 59t33.5 53.5t44.5 52q29 30 65 46t86 16q44 0 83 -7
t53 -13q5 -2 8.5 -5.5t3.5 -8.5q0 -8 -14 -36t-36 -82l-169 -417q-10 -23 -10 -36q0 -11 11 -11q6 0 19.5 11t27.5 24.5l25 25t12 13.5q3 5 10 0l10 -8q5 -4 2 -11q-1 -2 -11 -13t-26 -26t-36 -31.5t-40.5 -30.5t-40.5 -23.5t-35 -9.5q-11 0 -15.5 5t-4.5 12t6 26.5t17 44.5
l112 275h-187z" />
    <glyph glyph-name="ff" unicode="ff" horiz-adv-x="531" 
d="M421 389q18 54 32 88t25 55.5t18.5 32.5l12.5 18q-15 2 -24.5 9.5t-18.5 18.5q-11 13 -22 20.5t-35 7.5t-42.5 -5.5t-38.5 -25.5q-16 -15 -30.5 -42.5t-26.5 -59.5t-22 -63.5t-16 -53.5h188zM223 352q-2 -6 -8.5 -29l-16 -57l-22.5 -77t-29 -91t-34 -96t-35.5 -88
t-33 -69t-25.5 -41l2 -2q11 -2 23 -9t22 -26q8 -15 19.5 -23.5t31.5 -8.5q26 0 44.5 7.5t32.5 21.5q42 40 72.5 116.5t64.5 197.5l19.5 67l19.5 66l20 68l21 73h-188zM167 389l24.5 70.5t24.5 58.5t29 50t37 44q28 28 66 45.5t95 17.5q49 0 74 -15.5t33 -27.5q25 24 59 39
q34 14 74 14q22 0 38.5 -6t28 -14.5t17.5 -19t6 -19.5q0 -23 -12.5 -34.5t-27.5 -11.5q-24 0 -33 11.5t-11 28.5q-1 8 -9.5 18.5t-31.5 10.5q-35 0 -59.5 -25t-43 -63t-32.5 -84l-26 -88h94q9 0 6 -12l-5 -18q-1 -7 -11 -7h-94q-10 -30 -23 -75.5l-28.5 -97.5l-33 -106.5
t-36.5 -102.5q-23 -59 -48 -108t-54 -84t-64.5 -55t-78.5 -20q-30 0 -51.5 5t-36.5 12.5t-25 16.5t-18 17q-3 -4 -13.5 -12.5t-26 -17t-35 -15t-41.5 -6.5q-29 0 -50 17.5t-21 41.5q0 17 11.5 30t31.5 13q22 0 33.5 -16t13.5 -29q3 -17 18 -17q35 0 75 65t81 204l100 340
h-89q-7 0 -5 9l4 18q2 5 4 7.5t8 2.5h88z" />
    <glyph glyph-name="ffi" unicode="ffi" horiz-adv-x="751" 
d="M420 389q18 54 32 88t24.5 55t17.5 31t10 15q-24 3 -37 33q-13 28 -68 28q-17 0 -34 -5.5t-37 -25.5q-16 -15 -30.5 -42.5t-26.5 -59.5t-22 -63.5t-16 -53.5h187zM223 352q-2 -8 -9 -30.5l-17 -56.5l-23.5 -77l-28.5 -91t-32.5 -95.5t-35 -87.5t-33 -69t-25.5 -41l2 -2
q27 -5 41 -35q7 -15 22.5 -23.5t27.5 -8.5q18 0 38.5 6.5t37.5 22.5q45 40 76.5 116.5t64.5 197.5q9 34 19 67l20 66l20.5 68l21.5 73h-187zM167 389l24.5 70.5t24.5 58.5t29 50t37 44q28 28 66.5 45.5t98.5 17.5q38 0 64.5 -15.5t34.5 -27.5q12 12 29 21.5t34 17.5
q17 7 36.5 10.5t47.5 3.5q24 0 41.5 -6t29.5 -14.5t18 -19t6 -19.5q0 -23 -12.5 -34.5t-27.5 -11.5q-24 0 -33 11.5t-11 28.5q-1 8 -11 18.5t-40 10.5q-35 0 -60.5 -25t-45 -63t-34 -84t-25.5 -88h180q24 0 39 5.5t23 5.5q10 0 -1 -29l-109 -273q-11 -28 -9 -36.5t12 -8.5
q6 0 19.5 11.5t28.5 26.5t28 29.5t17 20.5q2 5 9 -1l13 -11q3 -4 1 -6q-4 -6 -23.5 -27.5t-46 -45t-56 -42t-53.5 -18.5q-14 0 -21.5 6t-7.5 15q0 5 4 17t9.5 27l12 31.5l11.5 29.5l79 204q8 20 -2 26t-32 6h-137q-10 -30 -23 -75.5l-29 -97.5l-33.5 -106.5t-36.5 -102.5
q-23 -59 -47.5 -108t-55 -84t-68 -55t-84.5 -20q-31 0 -51 5t-32.5 12.5t-20.5 16.5l-15 17q-3 -4 -13.5 -12.5t-26 -17t-35 -15t-41.5 -6.5q-29 0 -50 17.5t-21 41.5q0 17 11.5 30t31.5 13q22 0 33.5 -16t13.5 -29q3 -17 17 -17q36 0 75.5 65t80.5 204l101 340h-87
q-9 0 -7 9l4 18q2 5 4 7.5t8 2.5h88z" />
    <glyph glyph-name="ffl" unicode="ffl" horiz-adv-x="758" 
d="M682 389l69 172q7 16 8.5 26.5t1.5 18.5q0 7 -3.5 15t-12 15t-23.5 11.5t-38 4.5q-31 0 -51.5 -7t-38.5 -24q-12 -11 -24.5 -27t-25 -42.5t-27 -66t-30.5 -96.5h195zM420 389q15 48 28 81t24 54.5t19.5 33.5t14.5 18q-23 4 -39 36q-8 15 -26 21t-42 6q-17 0 -34 -5.5
t-37 -25.5q-16 -15 -30.5 -42.5t-26.5 -59.5t-22 -63.5t-16 -53.5h187zM223 352q-2 -6 -8.5 -29l-16 -57t-23 -77l-28.5 -91q-16 -48 -34 -96t-35.5 -88t-33 -69t-25.5 -41l2 -2q11 -2 23 -11.5t18 -23.5q7 -15 20 -23.5t25 -8.5q18 0 38.5 7t37.5 22q45 40 79.5 115
t68.5 195l37.5 135t41.5 143h-187zM67 379q2 5 4 7.5t8 2.5h88l24.5 70.5t24.5 58.5t29 50t37 44q28 28 66 45.5t94 17.5q41 0 67.5 -16.5t36.5 -33.5q30 28 67 44t92 16q21 0 41.5 -2t38.5 -5t31.5 -6t21.5 -6q13 -4 13 -15q0 -5 -13.5 -34t-36.5 -85l-169 -417
q-10 -23 -10 -36q0 -11 11 -11q6 0 19.5 11t27.5 24.5l25 25t12 13.5q3 5 10 0l10 -8q5 -4 2 -11q-2 -3 -22.5 -24.5t-49.5 -46t-60 -44t-53 -19.5q-11 0 -16.5 5t-5.5 12t6 26.5t17 44.5l112 275h-190l-22 -75.5l-29 -98l-34 -107t-37 -102.5q-23 -59 -48.5 -108t-56.5 -84
t-70 -54.5t-88 -19.5q-28 0 -47 5t-31.5 12.5t-20 16.5t-13.5 17q-3 -4 -13.5 -12.5t-26 -17t-35 -15t-41.5 -6.5q-29 0 -50 17.5t-21 41.5q0 17 11.5 30t31.5 13q22 0 33.5 -16t13.5 -29q3 -17 17 -17q36 0 75.5 65t80.5 204l101 340h-89q-8 0 -5 10z" />
    <glyph glyph-name="f_j" unicode="fj" horiz-adv-x="505" 
d="M366 353h-135q-19 -45 -41 -110.5t-52 -146.5l-39 -109.5t-46 -112.5h2q22 0 31.5 -14.5t11.5 -25.5q1 -8 6.5 -13t12 -9t13.5 -5.5t12 -1.5q27 0 53 28t50 71t45 95t37 100l65 194q4 12 6.5 16t2.5 12q-1 11 -8 21.5t-27 10.5zM20 -189l-1 1q-31 -48 -71 -78.5
t-94 -30.5q-37 0 -57 20t-20 43q0 16 11.5 27.5t28.5 13.5q17 -1 27 -13t12 -24q1 -11 9 -20t25 -9q29 0 52.5 31.5t44 80t39 108l37.5 115.5l57.5 165.5t40.5 110.5h-81q-7 0 -6 7l6 20q2 7 3.5 8.5t5.5 1.5h84l29 68t32 65.5t37 59.5t45 50q29 26 62.5 39.5t83.5 13.5
q31 0 51 -8.5t32 -20t17 -22.5t5 -17q0 -20 -11 -32.5t-26 -12.5q-26 0 -35 14.5t-9 27.5v15t-6 13q-5 5 -13 9t-28 4t-38 -7t-37 -24q-17 -15 -34 -41t-33 -58.5t-29.5 -67.5t-24.5 -68h179q24 0 36 5t20 5q3 0 6.5 -1.5t3.5 -7.5q0 -7 -1.5 -13.5t-4.5 -17.5l-16 -56
t-21 -65l-77 -204q-1 -2 -9.5 -22.5t-24 -50t-37 -63t-48 -62t-58 -47.5t-66.5 -19q-41 0 -67.5 13.5t-37.5 27.5z" />
    <glyph glyph-name="f_f_j" unicode="ffj" horiz-adv-x="731" 
d="M307 -135h6q22 0 31.5 -14.5t11.5 -25.5q2 -15 12.5 -18t19.5 -3q27 0 53 28t50 71t44.5 95t36.5 100l65 194q4 12 6.5 16t2.5 12q-1 11 -8 21.5t-27 10.5h-134q-10 -30 -23.5 -75.5l-29 -98t-33.5 -107t-37 -102.5q-11 -29 -22.5 -55t-24.5 -49zM410 352h-187
q-2 -8 -9 -30.5l-17 -56.5l-23.5 -77l-28.5 -91t-32.5 -95.5t-35 -87.5t-33 -69t-25.5 -41l2 -2q27 -5 41 -35q7 -15 22.5 -23.5t27.5 -8.5q18 0 38.5 6.5t37.5 22.5q45 40 76.5 116.5t64.5 197.5q9 34 19 67l20 66l20.5 68zM504 578q-24 3 -37 33q-13 28 -68 28
q-17 0 -34 -5.5t-37 -25.5q-16 -15 -30.5 -43t-26.5 -59.5t-22 -63t-16 -53.5h187q18 54 32 88t24.5 55t17.5 31t10 15zM689 238l-77 -204q-1 -2 -9.5 -22.5t-23.5 -50t-36.5 -63t-48.5 -62t-58.5 -47.5t-66.5 -19q-43 0 -66 12t-29 26q-34 -49 -76 -77t-99 -28q-31 0 -51 5
t-32.5 12.5t-20.5 16.5l-15 17q-3 -4 -13.5 -12.5t-26 -17t-35 -15t-41.5 -6.5q-29 0 -50 17.5t-21 41.5q0 17 11.5 30t31.5 13q22 0 33.5 -16t13.5 -29q3 -17 17 -17q36 0 75.5 65t80.5 204l101 340h-87q-9 0 -7 9l4 18q2 5 4 7.5t8 2.5h88l24.5 70.5t24.5 58.5t29 50
t37 44q28 28 66.5 45.5t98.5 17.5q38 0 64.5 -15.5t34.5 -27.5q12 12 29 21.5t34 17.5q17 7 36.5 10.5t47.5 3.5q24 0 41.5 -6t29.5 -14.5t18 -19t6 -19.5q0 -23 -12.5 -34.5t-27.5 -11.5q-24 0 -33 11.5t-11 28.5q-1 8 -11 18.5t-40 10.5q-35 0 -60.5 -25t-45 -63t-34 -84
t-25.5 -88h178l36 7.5t20 2.5q3 0 6.5 -1.5t3.5 -7.5q0 -7 -2 -13.5t-5 -17.5q-2 -10 -6 -25t-9 -31.5l-10.5 -33.5t-10.5 -31z" />
    <glyph glyph-name="T_h" unicode="Th" horiz-adv-x="960" 
d="M567 0h-43q-10 0 -7 5l229 567q8 19 5.5 28.5t-7.5 12.5q-9 6 -36.5 11t-58.5 8t-60 4.5t-41 1.5h-21l-165 -518q-15 -48 -7 -67t50 -19h39q9 0 7 -10l-4 -19q-1 -4 -3 -6t-10 -2q-11 0 -44.5 1.5t-105.5 1.5q-54 0 -91 -1.5t-45 -1.5q-6 0 -7.5 2.5t-0.5 7.5l3 19
q1 4 3 6t8 2h27q22 0 37.5 5.5t27 17.5t20 31.5t17.5 48.5l160 501h-26q-73 0 -115.5 -6.5t-64.5 -13.5q-15 -13 -30.5 -29.5t-29.5 -33t-25 -31t-17 -24.5q-4 -6 -13 -3l-13 6q-6 3 -2 10q4 9 16.5 35l25.5 54.5l23 51.5t11 25q3 10 8 10t12.5 -3t24.5 -6q18 -4 48 -7
t78 -3h357q43 0 98 13q11 2 15.5 4t12.5 2q6 0 9 -9.5t3 -16.5q0 -8 -9 -30l-157 -368l5 -4q19 27 40.5 54.5t46.5 50t52.5 36.5t58.5 14q35 0 52 -24.5t17 -59.5q0 -61 -21.5 -122t-47.5 -110q-15 -28 -32.5 -52t-36.5 -42t-39.5 -28t-41.5 -10q-22 0 -36.5 13t-14.5 30
t10 33t26 16q15 0 24 -9.5t11 -20.5q1 -7 5 -13.5t12 -6.5t18 11t20 28t19.5 37.5t16.5 39.5q8 21 15.5 45.5t13 48.5t8.5 46.5t3 40.5q0 9 -1 19t-4 18.5t-9 13.5t-16 5q-20 0 -45 -17t-49 -39.5t-44 -45.5t-30 -36q-37 -46 -66 -116l-42 -102q-2 -7 -14 -7z" />
    <glyph glyph-name="T_h.swash" unicode="&#xe04f;h" horiz-adv-x="955" 
d="M271 135l157 485q-15 4 -38 6t-46.5 3t-43 1.5t-27.5 0.5q-43 0 -76.5 -10.5t-56 -29t-34 -43t-11.5 -52.5q0 -14 1.5 -24.5t8.5 -21.5q7 -9 13 -3q8 8 17.5 11t16.5 3q15 0 29.5 -13.5t14.5 -36.5q0 -14 -13 -29t-39 -15q-11 0 -25.5 5t-27 18t-21.5 36t-9 59q0 15 4 34
t14 40t27 42t44 38q34 22 84.5 34t123.5 12q44 0 96 -5t101 -12q24 -3 54.5 -6t58.5 -5.5t50 -4t30 -1.5q20 0 37.5 5t17.5 24q0 5 -2 11.5t-7 12.5q-9 11 -9 26q0 10 7.5 21t27.5 11q19 0 26.5 -16t7.5 -35q0 -12 -1 -21t-3.5 -17.5t-6 -17.5l-8.5 -22l-157 -368l5 -4
q19 27 40.5 54.5t46.5 50t52.5 36.5t58.5 14q35 0 52 -24.5t17 -59.5q0 -61 -21.5 -122t-47.5 -110q-15 -28 -32.5 -52t-36.5 -42t-39.5 -28t-41.5 -10q-22 0 -36.5 13t-14.5 30t10 33t26 16q15 0 24 -9.5t11 -20.5q1 -7 5 -13.5t12 -6.5t18 11t20 28t19.5 37.5t16.5 39.5
q8 21 15.5 45.5t13 48.5t8.5 46.5t3 40.5q0 9 -1 19t-4 18.5t-9 13.5t-16 5q-20 0 -45 -17t-49 -39.5t-44 -45.5t-30 -36q-37 -46 -66 -116l-42 -102q-2 -7 -14 -7h-43q-10 0 -7 5l229 567l7.5 18t6.5 16q-26 -8 -55 -8q-12 0 -39.5 1.5t-58 3.5t-57.5 5t-39 5l-156 -493
q-15 -48 -7 -67t50 -19h39q9 0 7 -10l-4 -19q-1 -4 -3 -6t-10 -2q-11 0 -44.5 1.5t-105.5 1.5q-54 0 -91 -1.5t-45 -1.5q-6 0 -7.5 2.5t-0.5 7.5l3 19q1 4 3 6t8 2h27q22 0 37.5 5.5t27 17.5t20 31t17.5 47z" />
    <glyph glyph-name="T_h.caron" unicode="&#x164;h" horiz-adv-x="960" 
d="M638 874q5 2 7 -2l7 -11q2 -2 -2 -6l-139 -120q-8 -6 -13 2l-71 120q-3 5 2 8l10 9q4 3 11 -2l69 -60zM567 0h-43q-10 0 -7 5l229 567q8 19 5.5 28.5t-7.5 12.5q-9 6 -36.5 11t-58.5 8t-60 4.5t-41 1.5h-21l-165 -518q-15 -48 -7 -67t50 -19h39q9 0 7 -10l-4 -19
q-1 -4 -3 -6t-10 -2q-11 0 -44.5 1.5t-105.5 1.5q-54 0 -91 -1.5t-45 -1.5q-6 0 -7.5 2.5t-0.5 7.5l3 19q1 4 3 6t8 2h27q22 0 37.5 5.5t27 17.5t20 31.5t17.5 48.5l160 501h-26q-73 0 -115.5 -6.5t-64.5 -13.5q-15 -13 -30.5 -29.5t-29.5 -33t-25 -31t-17 -24.5
q-4 -6 -13 -3l-13 6q-6 3 -2 10q4 9 16.5 35l25.5 54.5l23 51.5t11 25q3 10 8 10t12.5 -3t24.5 -6q18 -4 48 -7t78 -3h357q43 0 98 13q11 2 15.5 4t12.5 2q6 0 9 -9.5t3 -16.5q0 -8 -9 -30l-157 -368l5 -4q19 27 40.5 54.5t46.5 50t52.5 36.5t58.5 14q35 0 52 -24.5
t17 -59.5q0 -61 -21.5 -122t-47.5 -110q-15 -28 -32.5 -52t-36.5 -42t-39.5 -28t-41.5 -10q-22 0 -36.5 13t-14.5 30t10 33t26 16q15 0 24 -9.5t11 -20.5q1 -7 5 -13.5t12 -6.5t18 11t20 28t19.5 37.5t16.5 39.5q8 21 15.5 45.5t13 48.5t8.5 46.5t3 40.5q0 9 -1 19t-4 18.5
t-9 13.5t-16 5q-20 0 -45 -17t-49 -39.5t-44 -45.5t-30 -36q-37 -46 -66 -116l-42 -102q-2 -7 -14 -7z" />
    <glyph glyph-name="T_h.caronswash" unicode="&#xe056;h" horiz-adv-x="955" 
d="M626 874q5 2 7 -2l7 -11q2 -2 -2 -6l-139 -120q-8 -6 -13 2l-71 120q-3 5 2 8l10 9q4 3 11 -2l69 -60zM271 135l157 485q-15 4 -38 6t-46.5 3t-43 1.5t-27.5 0.5q-43 0 -76.5 -10.5t-56 -29t-34 -43t-11.5 -52.5q0 -14 1.5 -24.5t8.5 -21.5q7 -9 13 -3q8 8 17.5 11
t16.5 3q15 0 29.5 -13.5t14.5 -36.5q0 -14 -13 -29t-39 -15q-11 0 -25.5 5t-27 18t-21.5 36t-9 59q0 15 4 34t14 40t27 42t44 38q34 22 84.5 34t123.5 12q44 0 96 -5t101 -12q24 -3 54.5 -6t58.5 -5.5t50 -4t30 -1.5q20 0 37.5 5t17.5 24q0 5 -2 11.5t-7 12.5q-9 11 -9 26
q0 10 7.5 21t27.5 11q19 0 26.5 -16t7.5 -35q0 -12 -1 -21t-3.5 -17.5t-6 -17.5l-8.5 -22l-157 -368l5 -4q19 27 40.5 54.5t46.5 50t52.5 36.5t58.5 14q35 0 52 -24.5t17 -59.5q0 -61 -21.5 -122t-47.5 -110q-15 -28 -32.5 -52t-36.5 -42t-39.5 -28t-41.5 -10
q-22 0 -36.5 13t-14.5 30t10 33t26 16q15 0 24 -9.5t11 -20.5q1 -7 5 -13.5t12 -6.5t18 11t20 28t19.5 37.5t16.5 39.5q8 21 15.5 45.5t13 48.5t8.5 46.5t3 40.5q0 9 -1 19t-4 18.5t-9 13.5t-16 5q-20 0 -45 -17t-49 -39.5t-44 -45.5t-30 -36q-37 -46 -66 -116l-42 -102
q-2 -7 -14 -7h-43q-10 0 -7 5l229 567l7.5 18t6.5 16q-26 -8 -55 -8q-12 0 -39.5 1.5t-58 3.5t-57.5 5t-39 5l-156 -493q-15 -48 -7 -67t50 -19h39q9 0 7 -10l-4 -19q-1 -4 -3 -6t-10 -2q-11 0 -44.5 1.5t-105.5 1.5q-54 0 -91 -1.5t-45 -1.5q-6 0 -7.5 2.5t-0.5 7.5l3 19
q1 4 3 6t8 2h27q22 0 37.5 5.5t27 17.5t20 31t17.5 47z" />
    <glyph glyph-name="T_h.commaaccentswash" unicode="&#xe057;h" horiz-adv-x="955" 
d="M184 -255h-5.5t-3.5 7q-1 8 9 12q7 2 18 7.5t20.5 14t16 19.5t6.5 25t-4.5 21.5t-13.5 17.5l-12.5 12t-9.5 23t9 25t25 11q13 0 23.5 -8t18 -19.5t11.5 -24.5t4 -23q0 -35 -15.5 -58t-35 -36.5t-37.5 -19.5t-24 -6zM271 135l157 485q-15 4 -38 6t-46.5 3t-43 1.5
t-27.5 0.5q-43 0 -76.5 -10.5t-56 -29t-34 -43t-11.5 -52.5q0 -14 1.5 -24.5t8.5 -21.5q7 -9 13 -3q8 8 17.5 11t16.5 3q15 0 29.5 -13.5t14.5 -36.5q0 -14 -13 -29t-39 -15q-11 0 -25.5 5t-27 18t-21.5 36t-9 59q0 15 4 34t14 40t27 42t44 38q34 22 84.5 34t123.5 12
q44 0 96 -5t101 -12q24 -3 54.5 -6t58.5 -5.5t50 -4t30 -1.5q20 0 37.5 5t17.5 24q0 5 -2 11.5t-7 12.5q-9 11 -9 26q0 10 7.5 21t27.5 11q19 0 26.5 -16t7.5 -35q0 -12 -1 -21t-3.5 -17.5t-6 -17.5l-8.5 -22l-157 -368l5 -4q19 27 40.5 54.5t46.5 50t52.5 36.5t58.5 14
q35 0 52 -24.5t17 -59.5q0 -61 -21.5 -122t-47.5 -110q-15 -28 -32.5 -52t-36.5 -42t-39.5 -28t-41.5 -10q-22 0 -36.5 13t-14.5 30t10 33t26 16q15 0 24 -9.5t11 -20.5q1 -7 5 -13.5t12 -6.5t18 11t20 28t19.5 37.5t16.5 39.5q8 21 15.5 45.5t13 48.5t8.5 46.5t3 40.5
q0 9 -1 19t-4 18.5t-9 13.5t-16 5q-20 0 -45 -17t-49 -39.5t-44 -45.5t-30 -36q-37 -46 -66 -116l-42 -102q-2 -7 -14 -7h-43q-10 0 -7 5l229 567l7.5 18t6.5 16q-26 -8 -55 -8q-12 0 -39.5 1.5t-58 3.5t-57.5 5t-39 5l-156 -493q-15 -48 -7 -67t50 -19h39q9 0 7 -10l-4 -19
q-1 -4 -3 -6t-10 -2q-11 0 -44.5 1.5t-105.5 1.5q-54 0 -91 -1.5t-45 -1.5q-6 0 -7.5 2.5t-0.5 7.5l3 19q1 4 3 6t8 2h27q22 0 37.5 5.5t27 17.5t20 31t17.5 47z" />
    <glyph glyph-name="T_h.commaaccent" unicode="&#x162;h" horiz-adv-x="960" 
d="M206 -255h-5.5t-3.5 7q-1 8 9 12q7 2 18 7.5t20.5 14t16 19.5t6.5 25t-4.5 21.5t-13.5 17.5l-12.5 12t-9.5 23t9 25t25 11q13 0 23.5 -8t18 -19.5t11.5 -24.5t4 -23q0 -35 -15.5 -58t-35 -36.5t-37.5 -19.5t-24 -6zM567 0h-43q-10 0 -7 5l229 567q8 19 5.5 28.5
t-7.5 12.5q-9 6 -36.5 11t-58.5 8t-60 4.5t-41 1.5h-21l-165 -518q-15 -48 -7 -67t50 -19h39q9 0 7 -10l-4 -19q-1 -4 -3 -6t-10 -2q-11 0 -44.5 1.5t-105.5 1.5q-54 0 -91 -1.5t-45 -1.5q-6 0 -7.5 2.5t-0.5 7.5l3 19q1 4 3 6t8 2h27q22 0 37.5 5.5t27 17.5t20 31.5
t17.5 48.5l160 501h-26q-73 0 -115.5 -6.5t-64.5 -13.5q-15 -13 -30.5 -29.5t-29.5 -33t-25 -31t-17 -24.5q-4 -6 -13 -3l-13 6q-6 3 -2 10q4 9 16.5 35l25.5 54.5l23 51.5t11 25q3 10 8 10t12.5 -3t24.5 -6q18 -4 48 -7t78 -3h357q43 0 98 13q11 2 15.5 4t12.5 2
q6 0 9 -9.5t3 -16.5q0 -8 -9 -30l-157 -368l5 -4q19 27 40.5 54.5t46.5 50t52.5 36.5t58.5 14q35 0 52 -24.5t17 -59.5q0 -61 -21.5 -122t-47.5 -110q-15 -28 -32.5 -52t-36.5 -42t-39.5 -28t-41.5 -10q-22 0 -36.5 13t-14.5 30t10 33t26 16q15 0 24 -9.5t11 -20.5
q1 -7 5 -13.5t12 -6.5t18 11t20 28t19.5 37.5t16.5 39.5q8 21 15.5 45.5t13 48.5t8.5 46.5t3 40.5q0 9 -1 19t-4 18.5t-9 13.5t-16 5q-20 0 -45 -17t-49 -39.5t-44 -45.5t-30 -36q-37 -46 -66 -116l-42 -102q-2 -7 -14 -7z" />
    <glyph glyph-name=".notdef" 
d="M50 95l170 255l-170 255v-510zM420 50l-170 255l-170 -255h340zM450 95v510l-170 -255zM420 650h-340l170 -255zM0 700h500v-700h-500v700z" />
    <glyph glyph-name=".null" horiz-adv-x="0" 
 />
    <glyph glyph-name="nonmarkingreturn" horiz-adv-x="230" 
 />
    <glyph glyph-name="space" unicode=" " horiz-adv-x="230" 
 />
    <glyph glyph-name="numbersign" unicode="#" 
d="M194 198l-68 -198q-5 -15 -10 -15h-41q-7 0 -3 13l69 200h-94q-8 0 -5 8l12 35q2 5 4 6t7 1h91l50 146h-95q-14 0 -13 7l12 37q1 6 11 6h97l66 192q3 9 10 9h40q5 0 4.5 -4.5t-2.5 -9.5l-64 -187h97l64 188q5 13 12 13h38q7 0 3 -13l-64 -188h93q9 0 8 -6l-12 -37
q-2 -5 -4 -6t-10 -1h-89l-50 -146h102q12 0 9 -8l-12 -38q-1 -4 -13 -4h-100l-69 -202q-3 -11 -10 -11h-41q-5 0 -2 10l70 203h-98zM356 394h-98l-50 -146h98z" />
    <glyph glyph-name="dollar" unicode="$" 
d="M289 62q33 8 54 34.5t21 61.5q0 26 -9 46t-23 35zM307 579q-34 -7 -52.5 -33.5t-18.5 -57.5q0 -29 7.5 -48t21.5 -36zM381 569q-18 11 -44 12l-49 -201l21 -19t19 -16zM210 67q11 -5 25 -7.5t22 -2.5l51 208q-4 3 -10 9.5t-12.5 12.5l-11.5 10.5t-6 5.5zM121 246q3 9 8 7
l11 -3q7 -3 4 -12q-14 -57 -0.5 -95t39.5 -58l61 243q-32 32 -51 63t-19 73q0 21 9 45.5t26.5 45.5t43.5 36.5t61 18.5l20 78q1 4 2 6t6 1l18 -3q5 -3 2 -12l-18 -70q14 -1 25.5 -4t19.5 -6l20 83q2 7 9 6l16 -3q6 -1 3 -12l-21 -87q10 -5 20 -11.5t16 -6.5q5 0 9.5 5.5
t8.5 21.5q1 5 6 5h9q5 0 3 -9l-25 -155q-2 -6 -5 -6h-14q-5 0 -5 9q1 22 -5.5 52t-26.5 56l-54 -224q27 -26 48 -58t21 -77q0 -37 -12 -65.5t-31.5 -48.5t-45 -31.5t-52.5 -14.5l-23 -95q-3 -12 -10 -9l-16 5q-6 1 -3 14l21 84q-29 2 -48 7l-26 -104q-2 -6 -8 -5l-17 4
q-6 1 -3 12l26 105q-14 6 -24 14t-17.5 15.5l-13.5 13t-11 5.5q-8 0 -15 -7t-18 -29q-3 -5 -7 -4l-8 4q-5 2 -2 9z" />
    <glyph glyph-name="percent" unicode="%" horiz-adv-x="700" 
d="M500 20q32 0 59.5 30t48 73t32 90.5t11.5 83.5q0 29 -15 44.5t-35 15.5q-29 0 -55.5 -28.5t-47 -69.5t-32.5 -86t-12 -79q0 -37 15.5 -55.5t30.5 -18.5zM504 -7q-53 0 -79 33t-26 88q0 44 16 92.5t43.5 88.5t65 66t81.5 26q51 0 76 -30.5t25 -78.5q0 -49 -16 -99.5
t-43.5 -92t-64 -67.5t-78.5 -26zM167 1q-3 1 -3 5q0 5 4 12l408 623q3 4 6 4t7 -2l22 -14q4 -1 4 -5q0 -3 -3 -7l-410 -625q-4 -7 -8 -7t-8 3zM181 251q-53 0 -79 33t-26 88q0 44 16 92.5t43.5 88.5t65 66t81.5 26q51 0 76 -30.5t25 -78.5q0 -49 -16 -99.5t-43.5 -92
t-64 -67.5t-78.5 -26zM177 278q32 0 59.5 30t48 73t32 90.5t11.5 83.5q0 29 -15 44.5t-35 15.5q-29 0 -55.5 -28.5t-47 -69.5t-32.5 -86t-12 -79q0 -37 15.5 -55.5t30.5 -18.5z" />
    <glyph glyph-name="ampersand" unicode="&#x26;" horiz-adv-x="852" 
d="M448 -22q-105 0 -172.5 26t-106.5 65t-54 84t-15 83q0 45 12.5 80t30.5 60.5t38 41.5t35 23q-20 26 -28.5 55.5t-8.5 63.5q0 28 10.5 54t30 46t47 32t62.5 12q42 0 69.5 -21t27.5 -58q0 -16 -5.5 -28.5t-13.5 -20.5t-16 -12.5t-12 -4.5q-6 0 -3 18q3 16 -1 28.5t-13 21.5
t-21 13.5t-25 4.5q-41 0 -68.5 -32t-27.5 -83q0 -21 6.5 -41.5t18.5 -37.5q15 5 35 5q7 0 15.5 -1.5t16.5 -4.5t13.5 -7.5t5.5 -10.5q0 -18 -8.5 -32.5t-20.5 -14.5q-6 0 -14.5 2t-16.5 5t-15 6.5t-10 6.5q-10 8 -15 9.5t-15 -4.5q-26 -17 -42 -53t-16 -82t20 -86.5
t57.5 -70.5t92 -47.5t123.5 -17.5t121 20t87.5 51.5t53.5 69t18 73.5q0 30 -11 58t-30.5 49.5t-47 35t-60.5 13.5q-30 0 -48 -11.5t-28.5 -27t-14 -31t-3.5 -22.5q0 -35 12.5 -53.5t19.5 -18.5q9 0 9 15q0 9 10 24.5t33 15.5q22 0 34.5 -14t12.5 -37q0 -6 -3 -14.5
t-10.5 -16t-19 -13t-28.5 -5.5q-15 0 -33 7.5t-34.5 22.5t-27.5 38t-11 55q0 25 9 50.5t28 45.5t48 33t68 13q29 0 61 -3.5t46 -3.5q81 0 120.5 23t39.5 65q0 13 -5 26t-13.5 22.5t-18.5 15.5t-20 6t-11.5 -7.5t0.5 -14.5q1 -5 -1 -12t-6.5 -14t-13 -11.5t-20.5 -4.5
q-25 0 -34 13t-9 23q0 32 24 47t52 15q25 0 46.5 -9t36.5 -23.5t23.5 -33.5t8.5 -39q0 -70 -43.5 -106t-119.5 -46q-17 -2 -19.5 -8t5.5 -19q10 -15 23 -46t13 -84q0 -64 -26 -114.5t-70.5 -85.5t-103 -53.5t-122.5 -18.5z" />
    <glyph glyph-name="quoteright" unicode="&#x2019;" horiz-adv-x="180" 
d="M113 458h-6.5t-4.5 8q-1 7 2 9t8 4q8 2 20.5 8.5t24 17t19.5 23.5t8 29t-5 25t-16 21q-4 3 -15 13.5t-11 26.5q0 17 10.5 29.5t29.5 12.5q16 0 28 -9.5t20 -23t12.5 -28.5t4.5 -27q0 -40 -18 -66.5t-40.5 -42.5t-43.5 -23t-27 -7z" />
    <glyph glyph-name="parenleft" unicode="(" horiz-adv-x="344" 
d="M86 69q0 96 24 187.5t68.5 174.5t107.5 155t141 131q6 5 10 3t9 -10t4 -12t-9 -11q-64 -53 -118.5 -123t-94 -153.5t-61.5 -176.5t-22 -190q0 -57 2.5 -96t5.5 -65.5t6.5 -43t6.5 -28.5q2 -6 -1 -8.5t-12 -5.5q-10 -4 -13.5 -3t-5.5 6q-8 16 -16 45.5t-15.5 66.5
t-12 77.5t-4.5 79.5z" />
    <glyph glyph-name="parenright" unicode=")" horiz-adv-x="344" 
d="M315 445q0 -96 -24 -187.5t-68.5 -174.5t-107.5 -155.5t-141 -130.5q-6 -5 -10 -3t-9 10t-4 12t9 11q64 52 118.5 122.5t94 154t61.5 176t22 190.5q0 57 -2.5 96t-5.5 65.5t-6.5 43t-6.5 28.5q-2 6 1 8.5t12 5.5q10 4 13.5 3t5.5 -6q7 -16 15.5 -45.5t16 -66.5t12 -77.5
t4.5 -79.5z" />
    <glyph glyph-name="asterisk" unicode="*" horiz-adv-x="300" 
d="M260 685q26 0 26 -19q0 -8 -5.5 -25t-13.5 -36.5l-16 -37.5t-13 -28l1 -2q8 5 24 19l34 28.5t34 26t25 11.5q14 0 20.5 -10t6.5 -20q0 -6 -6 -15.5t-34 -17.5l-22 -5.5l-29.5 -7.5t-29.5 -7l-23 -5v-3q2 0 18.5 -5l36 -10.5t36.5 -11l20 -6.5q5 -2 11 -6.5t6 -11.5
q0 -10 -12 -24t-28 -14q-19 0 -40.5 25l-48.5 59l-2 -2q0 -2 1.5 -18t3 -35.5t2.5 -37.5t0 -23q-2 -11 -9 -22t-27 -11q-15 0 -20 7t-5 15t5.5 24t13 34.5l15.5 36.5t14 30l-2 2q-13 -11 -29.5 -26.5t-33 -29t-31.5 -23t-24 -9.5q-7 0 -16.5 5.5t-9.5 19.5q0 13 7.5 21
t17.5 13q4 2 22.5 7.5l39.5 11.5l38 10.5t19 4.5v2q-2 0 -16.5 4l-32 8.5t-32.5 9t-18 5.5q-8 3 -17 8t-9 17q0 13 10 24.5t24 11.5q9 0 19.5 -7t22.5 -19t25 -27l27 -31l1 2q0 1 -1.5 17t-3 35.5l-3 38t-0.5 24.5q2 11 10.5 21t25.5 10z" />
    <glyph glyph-name="plus" unicode="+" 
d="M237 40v173h-165v54h165v173h59v-173h164v-54h-164v-173h-59z" />
    <glyph glyph-name="comma" unicode="," horiz-adv-x="250" 
d="M11 -127q-4 0 -7 0.5t-5 8.5q-1 8 2 10t9 4q9 3 23 10t26.5 18.5t21.5 26t9 31.5q0 18 -6 28t-18 23l-16 15.5t-12 29.5t11.5 32t32.5 14q17 0 30.5 -10t22.5 -25t14 -32t5 -30q0 -44 -19.5 -73.5t-44.5 -47.5t-48.5 -25.5t-30.5 -7.5z" />
    <glyph glyph-name="hyphen" unicode="-" horiz-adv-x="418" 
d="M63 261q0 10 8 10h323q9 0 9 -8v-34q0 -8 -2.5 -10t-6.5 -2h-323q-8 0 -8 7v37z" />
    <glyph glyph-name="period" unicode="." horiz-adv-x="250" 
d="M94 -10q-23 0 -38 15.5t-15 38.5q0 15 12.5 33.5t39.5 18.5q17 0 28 -6.5t17.5 -15t9 -17.5t2.5 -13q0 -20 -15.5 -37t-40.5 -17z" />
    <glyph glyph-name="slash" unicode="/" horiz-adv-x="330" 
d="M430 677q6 9 14 6l29 -13q7 -3 0 -14l-481 -662q-8 -12 -15 -8l-30 17q-5 3 3 13z" />
    <glyph glyph-name="zero" unicode="0" 
d="M205 25q36 0 69.5 23.5t61.5 62.5t51 88.5t39.5 102t25 103t8.5 91.5q0 54 -23.5 81t-62.5 27q-33 0 -64.5 -22.5t-59 -60t-50.5 -85t-39.5 -97.5t-26 -98.5t-9.5 -86.5q0 -66 24 -97.5t56 -31.5zM209 -15q-75 0 -115.5 55t-40.5 147q0 49 12 102t33.5 104t52 96.5
t66.5 80t77.5 55t85.5 20.5q73 0 111 -51.5t38 -132.5q0 -55 -12 -111.5t-33.5 -109.5t-51.5 -99.5t-65.5 -81t-75.5 -54.5t-82 -20z" />
    <glyph glyph-name="one" unicode="1" 
d="M49 27q1 7 12 7h53q26 0 44 8t35 43q4 9 17.5 48.5t30.5 94.5l57 185q14 45 22 68t8 31q0 19 -16 19q-8 0 -23 -6l-39 -16l-54 -23q-9 -5 -14 3l-8 16q-3 7 7 12l225 118l18 7.5t12 2.5q4 0 7.5 -2.5t3.5 -7.5q0 -8 -8 -27q-1 -3 -9 -25.5l-19.5 -55.5l-25 -73l-25.5 -78
l-55 -175l-22.5 -71.5l-14.5 -47.5q-10 -27 -1.5 -37.5t44.5 -10.5h54q8 0 6 -10l-4 -21q-1 -6 -9 -6q-3 0 -27 0.5t-52.5 1t-53.5 1t-29 0.5q-6 0 -28.5 -0.5t-48 -1t-47 -1t-24.5 -0.5q-7 0 -5 7z" />
    <glyph glyph-name="two" unicode="2" 
d="M292 66q23 0 40.5 6.5t31.5 17t25 24.5l21 28q5 9 10 7l15 -7q2 -4 -3 -12q-9 -14 -21 -36t-22.5 -44t-17.5 -39t-8 -20q-5 -10 -12 -10q-11 0 -19 12q-5 5 -19.5 6t-27.5 1h-227q-8 0 -16.5 -0.5t-16.5 -0.5q-8 -1 -13.5 -1.5t-10.5 -0.5q-8 0 -8 10q0 3 3 8t11 12
l75.5 58l86.5 68.5t86.5 75.5t76 79t54 80.5t21.5 78.5q0 13 -3 33.5t-13.5 39t-30 32t-52.5 13.5q-30 0 -53.5 -13.5t-40.5 -31.5t-28.5 -37l-18.5 -30q-8 -13 -12 -11l-16 8q-4 3 0 14q8 21 26 48.5t44.5 52.5t61 42.5t76.5 17.5q66 0 104.5 -42t38.5 -109q0 -44 -20 -87
t-52 -83.5t-73 -77.5t-83 -69.5l-81 -60l-68 -48.5v-2h179z" />
    <glyph glyph-name="three" unicode="3" 
d="M161 -15q-38 0 -66.5 10t-47.5 26t-29 35.5t-10 39.5q0 11 8.5 25.5t25.5 14.5q13 0 21.5 -6t12.5 -15t4.5 -19t-0.5 -17q-1 -10 4.5 -21t16.5 -20.5t27 -15.5t36 -6q38 0 71.5 15.5t58.5 42.5t39.5 63t14.5 78t-21 76.5t-55 46.5q-11 4 -14.5 7t-3.5 10q0 6 3.5 8
t14.5 4q16 3 40 14t46 30t38 44.5t16 57.5q0 7 -3 20t-12 26t-26 22.5t-44 9.5q-24 0 -45.5 -10.5t-38 -25t-28.5 -29t-16 -22.5q-6 -11 -14 -6l-12 8q-3 4 -1.5 8.5t4.5 9.5q9 15 25 35.5t40 39.5t55.5 32.5t71.5 13.5q30 0 52.5 -9.5t37 -24t21.5 -31.5t7 -32
q0 -32 -11 -58t-29.5 -47.5t-42 -39t-47.5 -32.5q37 -22 55.5 -59t18.5 -85q0 -52 -25 -96.5t-64 -76.5t-87 -50.5t-93 -18.5z" />
    <glyph glyph-name="four" unicode="4" 
d="M315 239l105 263q5 14 1.5 17.5t-12.5 -4.5l-290 -258q-8 -6 -7 -12t9 -6h194zM231 0q-10 0 -1 24l64 162h-265q-7 0 -11.5 4.5t-4.5 10.5q0 9 23 29l456 402q6 5 13 9t15 4q19 0 6 -35l-141 -371h104q6 0 7 -3.5t0 -7.5l-15 -30q-6 -12 -16 -12h-101l-64 -166
q-5 -13 -9 -16.5t-15 -3.5h-45z" />
    <glyph glyph-name="five" unicode="5" 
d="M207 418l3 -2q4 0 18 -1.5t31.5 -5t37 -9t36.5 -13.5q27 -14 45.5 -32t29 -38t15 -41.5t4.5 -41.5q0 -37 -18.5 -80.5t-54.5 -81t-90 -62.5t-124 -25q-17 0 -36.5 2.5t-36 8t-27.5 14.5t-11 21q0 11 6.5 20t18.5 9q14 0 26 -6t25 -16q7 -5 21.5 -9t33.5 -4q43 0 78.5 16
t60.5 41t38.5 55.5t13.5 60.5q0 48 -21.5 80.5t-58.5 52.5q-7 4 -18.5 8t-24.5 7t-25.5 4.5t-22.5 1.5q-25 0 -29 5q-7 5 -2 18l94 246q2 6 6 7.5t9 1.5h182q28 0 40 11.5t25 28.5q5 6 15 -2q12 -8 7 -15l-57 -86q-4 -5 -11.5 -6.5t-19.5 -1.5h-177z" />
    <glyph glyph-name="six" unicode="6" 
d="M230 19q39 0 68 25t48.5 60t29 74t9.5 68q0 19 -6 37.5t-17 32.5t-28.5 22.5t-39.5 8.5q-26 0 -55.5 -13t-46.5 -36q-14 -19 -23.5 -40t-14.5 -42.5t-7.5 -41.5t-3.5 -38q0 -17 3 -37.5t12 -38t26.5 -29.5t45.5 -12zM225 -15q-39 0 -67 13.5t-47 36t-28 53t-9 65.5
q0 57 17 111t46 103t67 92t79.5 78t84 61t80.5 40l13.5 4.5t12.5 2.5q12 0 12 -13q0 -5 -3.5 -8t-6.5 -5q-50 -25 -89 -54t-70.5 -62t-57.5 -71t-50 -81l2 -2q30 20 57 28.5t64 8.5q31 0 55.5 -11t42 -29.5t26.5 -44t9 -53.5q0 -51 -20 -98.5t-53 -84t-76.5 -58.5t-90.5 -22
z" />
    <glyph glyph-name="seven" unicode="7" 
d="M530 630q9 0 9 -8q0 -5 -1 -6t-4 -6q-2 -2 -15.5 -25.5l-30.5 -52l-32 -54l-19 -32.5q-3 -5 -17 -31.5l-34.5 -65.5l-44.5 -84.5l-46 -87l-39 -75l-24 -47.5q-11 -24 -25.5 -47t-34.5 -23q-10 0 -21 6t-11 26q0 12 8 26t13 22l20 29.5l42.5 63.5l50.5 78.5l45 74.5
l31.5 55.5l44.5 78l42.5 74.5t26.5 44h-193q-29 0 -47 -6.5t-31 -17.5t-23.5 -26l-23.5 -32q-6 -9 -18 0q-9 6 -5 14l80 159q5 8 7 10t10 -1q6 -2 7 -5t0 -9q-2 -12 7.5 -15.5t34.5 -3.5h261z" />
    <glyph glyph-name="eight" unicode="8" 
d="M319 343q29 15 54 31.5t44 37t29.5 46t10.5 57.5q0 12 -5 29t-16.5 32t-30.5 25.5t-46 10.5q-23 0 -44.5 -7.5t-39 -22t-28 -36.5t-10.5 -50q0 -40 22 -76.5t60 -76.5zM215 12q34 0 58 13.5t39.5 33.5t22.5 41.5t7 38.5q0 27 -8 49.5t-20 41t-25 33.5l-23 27l-43 -24
t-45 -33t-35.5 -48.5t-14.5 -70.5q0 -24 8.5 -43t21 -32t28 -20t29.5 -7zM212 -15q-48 0 -78 15.5t-46.5 37t-22 44.5t-5.5 37q0 41 20 72t48.5 53.5t60 39l55.5 29.5l-23.5 29.5t-26 36t-21.5 40.5t-9 44q0 30 14.5 62t42.5 58.5t67.5 44t90.5 17.5q34 0 60.5 -10t45 -26.5
t28 -38t9.5 -43.5q0 -41 -20.5 -75t-49 -60t-58.5 -44.5t-50 -28.5l25 -31t24 -34t18 -37.5t7 -41.5q0 -37 -15 -71.5t-42.5 -60.5t-65.5 -42t-83 -16z" />
    <glyph glyph-name="nine" unicode="9" 
d="M347 611q-41 0 -70 -26t-47.5 -63t-27.5 -77.5t-9 -69.5q0 -17 4 -35.5t14 -33.5t26 -24.5t39 -9.5q26 0 55.5 14.5t48.5 39.5q15 20 25 43t16 46.5t9 46t3 41.5q0 16 -3 34.5t-12 35t-26 27.5t-45 11zM352 645q77 0 113.5 -46t36.5 -124q0 -86 -36.5 -165t-94 -144
t-127.5 -111t-137 -65q-5 -2 -10 -3.5t-9 -1.5q-6 0 -10 4t-4 9q0 9 7 13q59 27 102.5 57t76 62.5t57 67t45.5 71.5l-2 2q-23 -20 -46 -28t-62 -8q-42 0 -68.5 17.5t-41.5 42t-20.5 49.5t-5.5 40q0 44 17 90.5t47.5 84.5t74 62t97.5 24z" />
    <glyph glyph-name="colon" unicode=":" horiz-adv-x="250" 
d="M192 310q-23 0 -38 15.5t-15 38.5q0 15 12.5 33.5t39.5 18.5q17 0 28 -6.5t17.5 -15t9 -17.5t2.5 -13q0 -20 -15.5 -37t-40.5 -17zM81 -10q-23 0 -38 15.5t-15 38.5q0 15 12.5 33.5t39.5 18.5q17 0 28 -6.5t17.5 -15t9 -17.5t2.5 -13q0 -20 -15.5 -37t-40.5 -17z" />
    <glyph glyph-name="semicolon" unicode=";" horiz-adv-x="250" 
d="M175 310q-23 0 -38 15.5t-15 38.5q0 15 12.5 33.5t39.5 18.5q17 0 28 -6.5t17.5 -15t9 -17.5t2.5 -13q0 -20 -15.5 -37t-40.5 -17zM14 -127q-4 0 -7 0.5t-5 8.5q-1 8 2 10t9 4q9 3 23 10t26.5 18.5t21.5 26t9 31.5q0 18 -6 28t-18 23l-16 15.5t-12 29.5t11.5 32t32.5 14
q17 0 30.5 -10t22.5 -25t14 -32t5 -30q0 -44 -19.5 -73.5t-44.5 -47.5t-48.5 -25.5t-30.5 -7.5z" />
    <glyph glyph-name="less" unicode="&#x3c;" 
d="M84 225v32l311 183v-66l-221 -128v-5l221 -133v-68z" />
    <glyph glyph-name="equal" unicode="=" 
d="M460 195v-54h-388v54h388zM460 346v-54h-388v54h388z" />
    <glyph glyph-name="greater" unicode="&#x3e;" 
d="M436 255v-32l-311 -183v66l221 128v5l-221 133v68z" />
    <glyph glyph-name="question" unicode="?" horiz-adv-x="429" 
d="M181 -10q-17 0 -34.5 12.5t-17.5 36.5q0 17 12 34.5t38 17.5q23 0 37 -15.5t14 -36.5q0 -7 -3.5 -15.5t-10 -16t-15.5 -12.5t-20 -5zM317 685q47 0 76 -15.5t44.5 -36.5t21 -43.5t5.5 -35.5q0 -47 -18 -81.5t-45.5 -60t-60.5 -43.5l-62 -33q-55 -28 -86 -49t-31 -54
q0 -23 20.5 -36.5t49.5 -13.5q28 0 50 14t30 23q4 4 9 -2l7 -8q4 -4 2 -8l-16.5 -16t-24.5 -19t-31 -15.5t-35 -6.5t-36 6t-31.5 19t-22 32.5t-8.5 46.5q0 31 17.5 56t42.5 45t52.5 35.5t46.5 27.5q27 16 50 31.5t40.5 33t27.5 39.5t10 51q0 12 -5.5 26t-17.5 26.5t-31 21
t-46 8.5q-24 0 -45 -7t-37 -19t-25.5 -29t-9.5 -36q0 -24 11 -34.5t19 -10.5q12 0 16 9q-2 5 -1.5 8t0.5 7q0 6 2.5 13.5t8.5 15t15.5 12.5t23.5 5q20 0 28.5 -12t8.5 -22q0 -16 -7.5 -29t-19 -22t-25.5 -14t-28 -5t-28.5 3.5t-26.5 12.5t-19.5 24t-7.5 37q0 21 10 43.5
t29.5 41.5t48 31t65.5 12z" />
    <glyph glyph-name="at" unicode="@" horiz-adv-x="700" 
d="M559 37q-11 -10 -32.5 -19t-49.5 -16.5t-60 -12t-65 -4.5q-69 0 -124 19.5t-93 55t-58 84t-20 106.5q0 56 17 110t46.5 102.5t70 89.5t87.5 70.5t99.5 46t105.5 16.5q62 0 109 -18t79 -51t48 -79.5t16 -104.5q0 -47 -18.5 -94t-53 -85.5t-84.5 -62.5t-113 -24
q-14 0 -24.5 9.5t-10.5 21.5q0 11 6.5 38t26.5 75l-4 2q-14 -20 -36.5 -45t-49.5 -47.5t-56 -38t-56 -15.5q-18 0 -33 13.5t-15 41.5q0 47 26.5 101.5t66.5 101t87.5 77t88.5 30.5q28 0 40.5 -11.5t17.5 -21.5l12 18q5 7 9 7h36q6 0 6.5 -3.5t-1.5 -6.5q-5 -9 -15.5 -33
l-21.5 -50.5l-20.5 -49l-11.5 -27.5q-5 -11 -11.5 -28.5l-13 -36.5t-11 -37t-4.5 -29q0 -19 28 -19q19 0 45.5 14.5t51 44t41.5 74.5t17 106q0 105 -54 156.5t-151 51.5q-72 0 -135 -34.5t-109.5 -89.5t-73.5 -124t-27 -138q0 -58 18.5 -103t50.5 -76t75.5 -47t94.5 -16
q46 0 92.5 6.5t87.5 32.5zM280 239q0 -30 23 -30q14 0 32.5 10.5t37.5 26.5t37.5 36t33.5 39t26 34.5t15 23.5q25 50 25 74q0 20 -10.5 35.5t-28.5 15.5q-20 0 -41.5 -14t-43 -36.5t-40.5 -51t-34 -58t-23.5 -57.5t-8.5 -48z" />
    <glyph glyph-name="A" unicode="A" horiz-adv-x="619" 
d="M483 336l77 264q3 11 -6.5 12.5t-15.5 -5.5l-218 -271h163zM294 301l-140 -176q-16 -20 -28.5 -38t-12.5 -29q0 -24 35 -24h36q9 0 7 -10l-4 -19q-2 -8 -10 -8t-40 1.5t-91 1.5q-50 0 -77 -1.5t-35 -1.5q-10 0 -9 7l5 22q1 8 7 8h15q32 0 63 20.5t58 52.5l463 553
q4 5 9 7t19 3q11 1 25 3t22 4t17.5 5t15.5 3q13 0 10 -10l-147 -555l-6.5 -29.5t-3.5 -28.5t11 -20t26 -8h27q9 0 8 -10l-3 -18q-1 -5 -3 -7t-9 -2q-9 0 -39 1.5t-81 1.5q-53 0 -79 -1.5t-38 -1.5t-10 10l4 19q2 8 8 8h19q14 0 26 2.5t22.5 10.5t19 24.5t16.5 44.5l50 185
h-178z" />
    <glyph glyph-name="B" unicode="B" horiz-adv-x="619" 
d="M282 362q13 -2 31.5 -3t28.5 -1q40 0 76 9.5t63 29.5t43.5 51t16.5 74q0 24 -11 45.5t-31 38t-49 26t-65 9.5q-9 0 -16 -0.5t-13 -1.5zM212 98q-7 -26 -5 -37t16 -20q4 -2 12 -4.5t17.5 -4t18 -2.5t14.5 -1q50 0 86 14t59 36.5t34 51.5t11 60q0 40 -19 66.5t-47 42
t-61 22t-61 6.5h-14zM255 570q6 22 6 36q0 27 -55 27h-26q-10 0 -8 9l4 21q1 7 13 7h27.5t53.5 1q45 1 80 1.5t61 0.5q5 0 22 -0.5t39.5 -3.5t47.5 -10t46 -19q26 -16 44.5 -42t18.5 -61q0 -47 -19 -81t-48 -57t-64 -36t-68 -19q-5 -1 -5 -2.5t3 -3.5q60 -19 98 -59t38 -103
q0 -4 -1.5 -16.5t-7 -29t-17 -36.5t-32.5 -39q-28 -26 -77.5 -42t-133.5 -16q-34 0 -67.5 1.5t-67.5 1.5q-35 0 -69.5 -1.5t-69.5 -1.5q-10 0 -9 8l4 21q2 8 9 8h39q29 0 42.5 16t21.5 45z" />
    <glyph glyph-name="C" unicode="C" horiz-adv-x="666" 
d="M567 -17q-3 -7 -9 -5l-18 5q-5 2 -3 8l2 8t1 9q0 19 -16 19q-7 0 -18.5 -4t-25.5 -10q-8 -4 -24 -9t-35.5 -9t-40 -7t-38.5 -3q-50 0 -93.5 16.5t-76 47.5t-51.5 75t-19 99q0 43 9.5 88.5t28.5 90.5t45.5 87.5t61.5 80.5q49 54 112.5 84.5t128.5 30.5q36 0 66 -9t66 -34
q10 -7 23 -17.5t27 -10.5q9 0 15 7t11 24q3 9 9 6l13 -3q9 -1 6 -10l-53 -207q-3 -8 -11 -6l-14 2q-7 1 -6 10q8 37 2.5 74.5t-24 68t-49.5 50t-74 19.5q-61 0 -105 -30t-87 -92q-28 -41 -47 -84t-30.5 -84t-16.5 -78.5t-5 -67.5q0 -54 15.5 -89.5t39 -57.5t50 -31t48.5 -9
q31 0 65.5 7t67.5 26t63 53.5t53 90.5q3 7 4.5 8.5t5.5 -0.5l17 -5q5 -2 5.5 -3.5t-0.5 -5.5z" />
    <glyph glyph-name="D" unicode="D" horiz-adv-x="777" 
d="M217 106l-5 -24t-2 -18q0 -16 19.5 -23t51.5 -7q40 0 79.5 4t76 14t69.5 25.5t61 39.5q23 19 45 48.5t39 66.5t27.5 78.5t10.5 84.5q0 49 -18 93t-46 73q-25 26 -55 41.5t-59 23.5q-41 11 -69.5 12t-39.5 1q-12 0 -30 -0.5t-26 -2.5zM249 583q8 29 -8.5 39.5t-42.5 10.5
h-45q-13 0 -10 8l6 22q2 5 4.5 6t11.5 1t31.5 0.5t51.5 2.5l62.5 2t45.5 1q48 0 97 -3.5t95 -14t86.5 -29.5t72.5 -50q46 -47 60.5 -91t14.5 -90q0 -74 -20.5 -129.5t-49.5 -96t-60.5 -66t-54.5 -38.5q-47 -27 -95 -41t-91 -21t-79.5 -8t-61.5 -1q-10 0 -30 0.5t-42.5 1
l-43 1t-30.5 0.5q-57 0 -81.5 -1.5t-30.5 -1.5q-10 0 -8 8l6 22q2 7 10 7h30q13 0 26 3t23.5 11.5t19.5 24t15 40.5z" />
    <glyph glyph-name="E" unicode="E" horiz-adv-x="669" 
d="M269 565q7 21 4 34.5t-12 22t-21.5 11.5t-25.5 3h-32q-9 0 -6 11l5 19q2 7 12 7q5 0 13.5 -0.5t24.5 -0.5q16 -1 40 -1.5t60 -0.5h64q57 0 100 0.5t74 1.5q31 0 50 0.5t27 0.5q11 0 14.5 -3.5t6.5 -15.5l32 -137q1 -5 -6 -9l-11 -4q-4 -2 -5.5 -1.5t-4.5 4.5l-94 121
q-5 8 -16 8h-182l-86 -263h96q22 0 39 1.5t31.5 9.5t26 25t22.5 48q2 6 7 5l15 -3q7 -2 6 -8l-54 -199q-1 -7 -7 -6l-16 2q-5 1 -4 8q3 31 -3.5 48t-20.5 25.5t-36 10t-52 1.5h-60l-97 -307h259q27 0 46 11t34 31l80 101q5 7 12 2l10 -6q3 -2 4 -4.5t-1 -9.5l-51 -145
q-4 -11 -8.5 -14t-13.5 -3q-6 0 -36 0.5t-75 1.5q-45 0 -97.5 0.5t-104.5 0.5h-116q-35 0 -57.5 -0.5t-36.5 -0.5q-14 -1 -20.5 -1.5t-9.5 -0.5q-11 0 -8 8l3 21q3 8 8 8h37q31 0 47.5 15t24.5 41z" />
    <glyph glyph-name="F" unicode="F" horiz-adv-x="620" 
d="M278 598q12 38 -28 38h-34q-10 0 -7 9l6 20q2 8 12 8q11 0 40 -1.5t70 -1.5q57 0 99.5 0.5t74 1t54 1t39.5 0.5q37 2 58 6t29 4q10 0 10 -16q0 -10 3 -34t6.5 -49.5l6.5 -47t4 -25.5q1 -7 -5 -9l-15 -6q-6 -3 -8 5q-2 6 -10 22t-18.5 34.5l-20 34.5t-13.5 21q-5 7 -8 10
t-6 4.5t-8 2l-15 1.5q-5 0 -21.5 1t-39 1.5t-48 1t-48 1t-39.5 0.5h-22l-84 -268l149 2q25 0 40 7t25 20.5t16.5 32.5t13.5 43q2 5 5 5.5t7 -0.5l16 -3q6 -2 4 -9l-59 -251q-3 -8 -10 -5l-17 2q-7 1 -6 9q4 27 5.5 47t-2.5 33.5t-15.5 20t-32.5 7.5l-150 6l-68 -227
q-7 -23 -8.5 -37.5t2.5 -22.5t12.5 -11t21.5 -3h28q11 0 9 -8l-7 -23q-1 -6 -12 -6q-9 0 -35.5 1.5t-86.5 1.5q-32 0 -53 -0.5t-35 -1t-21.5 -1t-11.5 -0.5q-8 0 -7 8l4 21q2 8 10 8h29q50 0 69 61z" />
    <glyph glyph-name="G" unicode="G" horiz-adv-x="709" 
d="M601 52q-3 -10 -6.5 -14t-11.5 -8q-11 -5 -31.5 -12.5t-47 -14.5t-56.5 -12.5t-59 -5.5q-66 0 -119 22t-90.5 59.5t-57.5 88.5t-20 110q0 89 34 165.5t90.5 133t130.5 89t154 32.5q32 0 58.5 -5.5t47 -13.5t34.5 -16.5t22 -14.5q10 -8 16.5 -10t10.5 -2q11 0 16 7.5
t10 24.5q2 6 10 4l12 -3q7 -2 6 -8l-57 -201q-2 -7 -12 -6l-13 2q-9 2 -6 10q8 32 2.5 67t-25 64t-52.5 48t-80 19q-68 0 -125 -32.5t-98.5 -88t-65 -129t-23.5 -155.5q0 -59 16 -101.5t42 -70t59 -40.5t68 -13q24 0 44 4.5t35.5 11t27 13.5t18.5 13t11 15t7 19l20 97
q7 30 -4 39t-36 9h-37q-10 0 -7 10l4 19q1 8 11 8q11 0 38.5 -1.5t77.5 -1.5q25 0 43 0.5t30 1t20 1t13 0.5q10 0 9 -10l-3 -19q-1 -8 -9 -8h-16q-18 0 -29 -7.5t-16 -28.5z" />
    <glyph glyph-name="H" unicode="H" horiz-adv-x="784" 
d="M263 324l-72 -224q-14 -42 -5.5 -54t35.5 -12h35q10 0 8 -8l-4 -20q-2 -9 -11 -9q-8 0 -38.5 1.5t-88.5 1.5q-52 0 -79 -1.5t-34 -1.5q-10 0 -7 12l4 17q2 5 3 6.5t6 1.5h24q24 0 39.5 18t28.5 58l156 479q8 23 -3.5 35t-31.5 12h-36q-9 0 -6 10l5 19q3 8 10 8
q6 0 42 -1.5t84 -1.5q45 0 78.5 1.5t41.5 1.5q12 0 9 -8l-7 -22q-1 -7 -9 -7h-26q-32 0 -44 -11.5t-22 -41.5l-72 -223h363l74 233q7 23 -3.5 33t-28.5 10h-24q-9 0 -7 10l5 21q1 6 10 6q7 0 40 -1.5t73 -1.5q42 0 71 1.5t37 1.5q12 0 10 -7l-6 -22q-3 -8 -9 -8h-29
q-20 0 -32 -11t-22 -42l-155 -479q-10 -29 -5 -49.5t29 -20.5h36q11 0 8 -10l-5 -20q-1 -7 -12 -7q-8 0 -35 1.5t-87 1.5q-55 0 -85 -1.5t-38 -1.5q-10 0 -8 12l2 15q2 10 9 10h28q15 0 27 4t21.5 13.5t17.5 26.5t16 43l66 203h-365z" />
    <glyph glyph-name="I" unicode="I" horiz-adv-x="359" 
d="M255 570q10 37 0 51.5t-36 14.5h-46q-10 0 -9 8l5 23q1 6 13 6q9 0 45.5 -1.5t89.5 -1.5q62 0 95 1.5t44 1.5q14 0 11 -10l-5 -19q-1 -4 -3 -6t-8 -2h-19q-23 0 -38 -2.5t-25 -10t-17 -21.5t-13 -37l-125 -463q-10 -36 2 -52t51 -16h35q8 0 6 -10l-3 -19q-1 -5 -2.5 -6.5
t-9.5 -1.5t-43.5 1.5t-101.5 1.5q-61 0 -100.5 -1.5t-47.5 -1.5q-10 0 -8 8l4 19q2 10 9 10h43q22 0 35.5 4t22 13t13.5 23t11 34z" />
    <glyph glyph-name="J" unicode="J" horiz-adv-x="345" 
d="M218 102l-18 -56.5t-22.5 -60t-26.5 -56t-28 -45.5q-65 -84 -157 -84q-29 0 -47.5 7.5t-29 18t-15 22t-4.5 19.5q0 22 12.5 37.5t32.5 15.5q22 0 33 -14.5t11 -27.5q0 -6 -1.5 -13t-4.5 -12q-4 -6 0 -12q2 -2 9 -4.5t25 -2.5q21 0 38.5 16t32 41t26 56.5t20.5 62.5
l163 564q4 12 5.5 23.5t-2 20t-13 13.5t-27.5 5h-33q-10 0 -9 8l5 21q1 8 10 8q6 0 39 -1.5t88 -1.5t85.5 1.5t37.5 1.5q10 0 9 -10l-4 -20q-1 -7 -10 -7h-26q-12 0 -22.5 -3t-19.5 -12t-17.5 -25t-15.5 -42z" />
    <glyph glyph-name="K" unicode="K" horiz-adv-x="684" 
d="M205 100q-11 -33 -0.5 -49.5t34.5 -16.5h25q8 0 7 -10l-4 -19q-2 -8 -13 -8q-8 0 -40 1.5t-83 1.5q-57 0 -82 -1.5t-30 -1.5q-10 0 -8 11l4 18q1 4 3 6t8 2h28q20 0 37 14.5t27 45.5l154 478q11 33 3.5 48.5t-36.5 15.5h-25q-12 0 -9 10l7 21q2 6 12 6q7 0 34 -1.5
t78 -1.5q60 0 86.5 1.5t35.5 1.5q8 0 6 -10l-3 -19q-1 -8 -12 -8h-24q-26 0 -41 -12.5t-24 -40.5l-75 -236q16 0 27 1t20 4t17.5 8.5t18.5 14.5l70 62l70.5 63l61 58t42.5 45q11 14 7 24t-24 10h-12q-10 0 -8 10l4 18q3 8 11 8t37 -1.5t73 -1.5q45 0 67.5 1.5t29.5 1.5
q13 0 11 -9l-4 -18q-2 -5 -3.5 -7.5t-6.5 -2.5h-31q-23 0 -42.5 -9.5t-36.5 -23.5q-10 -8 -35.5 -30l-57.5 -50.5l-67.5 -59.5l-65.5 -58.5l-50.5 -46.5t-24.5 -23q2 -4 14 -22l30 -44l39 -56.5l40 -57.5l34 -48t21 -28q14 -16 34.5 -30.5t37.5 -14.5h29q11 0 9 -10l-4 -17
q-2 -6 -4 -8t-9 -2q-9 0 -31.5 1.5t-70.5 1.5q-22 0 -43 -0.5t-38 -1t-29 -1t-16 -0.5q-10 0 -9 11l2 16q1 10 9 10h15q17 0 27 8.5t3 19.5l-13 20l-27.5 41.5l-35 53.5l-36 55l-31 46t-19.5 27q-7 8 -13.5 11t-21.5 3z" />
    <glyph glyph-name="L" unicode="L" horiz-adv-x="625" 
d="M265 574q11 33 2.5 47.5t-45.5 14.5h-37q-10 0 -8 8l7 23q1 6 12 6q8 0 41.5 -1.5t96.5 -1.5q64 0 99 1.5t43 1.5q10 0 8 -8l-5 -21q-3 -8 -12 -8h-45q-14 0 -24.5 -2.5t-19 -10t-15 -21t-13.5 -35.5l-156 -504q-5 -17 1.5 -23t23.5 -6h40h57t64 0.5t55 1.5t31 2
q14 2 21.5 6.5t13.5 9.5q7 7 20 24.5l26 36.5t22.5 35t11.5 19q2 6 10 2l10 -4q8 -3 6 -9q-2 -4 -8 -25.5l-13 -47.5l-13.5 -50t-7.5 -34q-3 -16 -12 -16q-5 0 -11.5 2t-14.5 4t-17.5 4t-19.5 2q-8 0 -33.5 0.5t-59.5 1t-71.5 1t-69.5 0.5q-42 0 -84.5 -0.5t-77 -1t-58 -1
t-27.5 -0.5q-9 0 -8 10l4 19q2 8 9 8h25q16 0 28.5 2.5t21.5 10.5t16.5 22.5t15.5 38.5z" />
    <glyph glyph-name="M" unicode="M" horiz-adv-x="938" 
d="M270 575q7 19 7 33t-15 21t-37 7h-36q-14 0 -12 10l4 17q3 10 11 10q4 0 14.5 -0.5t33 -1t58.5 -1t90 -0.5q12 0 15 -5t5 -18l48 -483q4 -37 25 -8l353 498q5 8 10.5 12t15.5 4q42 0 69.5 0.5t45 1t27 1t14.5 0.5q11 0 9 -8l-4 -21q-1 -8 -10 -8h-30q-18 0 -29 -18.5
t-22 -55.5l-129 -466q-8 -32 1 -47t29 -15h31q9 0 7 -8l-4 -21q-1 -5 -2.5 -6.5t-9.5 -1.5q-9 0 -35.5 1.5t-80.5 1.5q-61 0 -91.5 -1.5t-38.5 -1.5q-7 0 -8.5 2.5t-0.5 7.5l2 17q1 5 3 7.5t8 2.5h26q38 0 56 19.5t27 51.5l134 483q3 12 -4 13t-12 -7l-410 -579
q-11 -17 -24.5 -16t-15.5 23l-57 563q-2 14 -7 15t-9 -10l-164 -485q-8 -22 -8.5 -35.5t3.5 -21.5t11.5 -11t15.5 -3h35q8 0 7 -10l-3 -19q-2 -8 -12 -8q-8 0 -32.5 1.5t-70.5 1.5q-42 0 -65.5 -1.5t-31.5 -1.5t-6 8l4 21q1 8 7 8h20q20 0 33.5 5t22 14.5t14.5 22t11 27.5z
" />
    <glyph glyph-name="N" unicode="N" horiz-adv-x="746" 
d="M256 577q4 12 4.5 22.5t-5.5 18.5t-19.5 13t-37.5 5h-38q-11 0 -8 12l4 15q2 5 3.5 7.5t7.5 2.5q5 0 15.5 -0.5t30.5 -1t50.5 -1t75.5 -0.5q11 0 14 -9t7 -17l215 -480q6 -13 10 -10t15 33l131 391q10 29 1 43.5t-33 14.5h-35q-12 0 -11 11l3 18q2 8 10 8q9 0 34.5 -1.5
t79.5 -1.5q39 0 57 1.5t29 1.5q12 0 9 -13l-3 -16q-1 -8 -9 -8h-25q-19 0 -30.5 -9.5t-24.5 -45.5l-194 -555q-8 -25 -20 -25.5t-21 19.5l-238 531q-5 10 -10 10t-8 -11l-128 -423q-14 -45 -7 -69t41 -24h39q11 0 9 -10l-3 -19q-2 -5 -3.5 -6.5t-8.5 -1.5q-8 0 -39.5 1.5
t-86.5 1.5q-52 0 -78 -1.5t-34 -1.5q-10 0 -8 11l3 18q2 8 9 8h27q37 0 56.5 23.5t37.5 79.5z" />
    <glyph glyph-name="O" unicode="O" horiz-adv-x="709" 
d="M337 24q41 0 79 17.5t71.5 47.5t61 71.5t47 88.5t30.5 98.5t11 102.5q0 40 -10.5 75t-31 60.5t-51.5 40.5t-73 15q-46 0 -80.5 -20t-66.5 -52q-33 -33 -60 -77t-46 -91t-29.5 -93t-10.5 -85q0 -53 14.5 -91t37.5 -62t51 -35t56 -11zM360 -15q-7 0 -25.5 0.5t-43 6.5
t-52.5 20t-53 41q-45 45 -64.5 103.5t-19.5 131.5q0 77 28.5 148.5t77 127t112 88.5t132.5 33q57 0 105 -21.5t83 -61t55 -95t20 -122.5q0 -70 -23.5 -141t-69 -128.5t-111.5 -94t-151 -36.5z" />
    <glyph glyph-name="P" unicode="P" horiz-adv-x="590" 
d="M272 326q23 -16 85 -16q56 0 96 17.5t65 45t36.5 60.5t11.5 65q0 45 -17 72.5t-42.5 43.5t-55.5 21.5t-55 5.5h-21t-18 -2zM252 566q3 12 5 24t-0.5 21.5t-11 15.5t-25.5 6h-47q-7 0 -5 10l5 19q2 5 4 6.5t10 1.5q4 0 34 0.5t66.5 1t68.5 1t40 0.5q71 0 116.5 -8.5
t81.5 -38.5q16 -14 27.5 -27.5t19 -29t10.5 -35t3 -44.5q0 -38 -16.5 -76t-51.5 -68t-89.5 -49t-130.5 -19q-33 0 -61.5 4t-39.5 8l-49 -183q-4 -14 -5 -27.5t2 -23.5t11.5 -16t23.5 -6h38q10 0 8 -10l-3 -19q-1 -8 -12 -8q-9 0 -41 1.5t-92 1.5q-51 0 -79 -1.5t-39 -1.5
q-9 0 -8 10l2 17q2 10 11 10h21q20 0 33.5 6.5t22 17.5t14 25.5t9.5 30.5z" />
    <glyph glyph-name="Q" unicode="Q" horiz-adv-x="740" 
d="M362 25q58 0 112 38t95.5 100t66.5 140.5t25 159.5q0 41 -11.5 75.5t-32.5 59t-51.5 38t-67.5 13.5q-48 0 -89.5 -21.5t-75.5 -56.5t-60 -79.5t-44 -90.5t-27 -90t-9 -78q0 -75 20.5 -117t48.5 -62t56.5 -24.5t43.5 -4.5zM489 685q53 0 99.5 -17.5t81.5 -52t55.5 -87.5
t20.5 -123q0 -36 -8 -75.5t-23 -79t-37 -77.5t-50 -71q-21 -24 -45 -42.5t-48.5 -32t-47 -22t-39.5 -12.5q-32 -8 -67.5 -18l-68.5 -20t-59.5 -20t-40.5 -17l2 -5q17 2 40 4t52 2q43 0 74.5 -8.5t55 -21.5t40.5 -30t29 -33q15 -21 28.5 -31.5t30.5 -10.5q20 0 29 11t9 22
q0 5 -1.5 8.5l-4.5 10.5q-4 7 -6 13.5t-2 19.5q0 15 11.5 27t29.5 12q11 0 18 -4.5t11.5 -11t6 -13t1.5 -10.5q0 -29 -13 -51t-33 -37t-44 -23t-46 -8q-27 0 -52 10.5t-48 35.5q-17 18 -35 33t-42.5 26t-57 17.5t-77.5 6.5q-23 0 -34.5 -2.5t-18.5 -9.5q-8 -8 -18.5 -15
t-20.5 -7q-12 0 -18 10t-6 24q0 15 24.5 32t59 33t71 29t59.5 19v4q-44 8 -81.5 30.5t-65 58.5t-43 85.5t-15.5 112.5q0 52 14.5 100.5t35.5 88.5t45 70.5t43 46.5q22 19 44.5 36.5t50 30.5t62.5 21t83 8z" />
    <glyph glyph-name="R" unicode="R" horiz-adv-x="694" 
d="M282 357q19 0 40 -0.5t44 1.5t48 7.5t52 16.5q45 18 75 56.5t30 91.5q0 16 -7.5 35t-26 36t-49 28.5t-76.5 11.5h-23t-18 -1zM269 583q8 24 3 37t-32 13h-39q-10 0 -8 8l5 21q1 5 3 6.5t10 1.5q39 0 77 0.5t68.5 1t51.5 1t27 0.5q27 0 65.5 -3t74.5 -17.5t61 -43
t25 -79.5q0 -38 -18.5 -71t-50 -58.5t-72 -42.5t-84.5 -22v-2q18 -6 30 -25t20 -35l14 -28.5l27 -55l29.5 -59t21.5 -39.5q19 -31 37.5 -44.5t50.5 -13.5h25q9 0 7 -10l-3 -19q-2 -8 -10 -8t-23 1.5t-51 1.5q-33 0 -49.5 -1.5t-24.5 -1.5q-6 0 -11 7t-16 25q-4 6 -13 25
l-20.5 44l-24.5 53.5l-25 53.5l-20.5 44t-11.5 25q-11 21 -26 31.5t-32 15t-34 4.5h-31l-71 -219q-14 -43 -4.5 -57.5t41.5 -14.5h41q9 0 7 -8l-3 -23q-1 -6 -12 -6q-8 0 -42.5 1.5t-97.5 1.5q-45 0 -73 -1.5t-37 -1.5q-8 0 -6 8l4 21q1 8 10 8h19q27 0 41 14.5t21 35.5z
" />
    <glyph glyph-name="S" unicode="S" horiz-adv-x="504" 
d="M131 251q2 5 11 4l10 -3q4 -2 6.5 -4t0.5 -7q-14 -56 -6 -97t27 -67.5t45 -39.5t49 -13q24 0 45 9t37 25t25 37.5t9 46.5t-8.5 45.5t-21.5 38.5t-30 35t-33 35l-43.5 48.5t-35.5 48t-23.5 53t-8.5 63.5q0 27 10.5 58t32 57t53.5 43.5t74 17.5q21 0 39.5 -5.5t34 -13
t27 -15l17.5 -11.5q4 -2 6.5 -3.5t7.5 -1.5q6 0 9.5 9.5t6.5 25.5q1 4 10 3l13 -1q8 -1 7 -7l-36 -190q-2 -6 -8 -6l-14 1q-10 2 -9 9q2 15 -0.5 43t-14 55.5t-34.5 48t-62 20.5q-23 0 -41.5 -9.5t-31.5 -25t-19.5 -35t-6.5 -39.5q0 -28 7.5 -48.5t20 -38t29 -32.5t33.5 -33
l36.5 -37t35.5 -44.5t26.5 -55.5t10.5 -70q0 -50 -16 -86t-41.5 -60t-58 -35.5t-65.5 -11.5q-48 0 -82.5 23t-64.5 53q-13 13 -23 -2q-5 -6 -10.5 -16.5t-10.5 -21.5q-3 -6 -10 -3l-13 5q-6 2 -4 10z" />
    <glyph glyph-name="T" unicode="T" horiz-adv-x="664" 
d="M653 670q37 0 59.5 3t36.5 7q13 3 18.5 6t7.5 3q7 0 6 -10q-1 -5 -3 -31t-3.5 -58t-2.5 -63t0 -46q0 -7 -8 -8l-13 -1q-7 -1 -9 2t-4 11q-2 12 -6 30.5t-9 37t-11 36t-11 28.5q-11 4 -31.5 8t-43.5 7t-44.5 4.5t-33.5 1.5h-21l-165 -518q-15 -48 -7 -67t50 -19h39
q9 0 7 -10l-4 -19q-1 -4 -3 -6t-10 -2q-11 0 -44.5 1.5t-105.5 1.5q-54 0 -91 -1.5t-45 -1.5q-6 0 -7.5 2.5t-0.5 7.5l3 19q1 4 3 6t8 2h27q22 0 37.5 5.5t27 17.5t20 31.5t17.5 48.5l160 501h-26q-73 0 -115.5 -6.5t-64.5 -13.5q-15 -13 -30.5 -29.5t-29.5 -33t-25 -31
t-17 -24.5q-4 -6 -13 -3l-13 6q-6 3 -2 10q4 9 16.5 35l25.5 54.5l23 51.5t11 25q3 10 8 10q4 0 12 -3t25.5 -6.5t47.5 -6.5t78 -3h299z" />
    <glyph glyph-name="U" unicode="U" horiz-adv-x="731" 
d="M663 279q-21 -69 -49 -124t-65 -92.5t-83.5 -57.5t-105.5 -20q-50 0 -93 11t-74 34t-48.5 57t-17.5 81q0 16 2.5 34.5t6 36t7 32l5.5 22.5l85 281q11 34 3.5 48t-31.5 14h-36q-8 0 -7 8l5 21q1 5 3 6.5t10 1.5q9 0 37 -1.5t82 -1.5q61 0 89 1.5t36 1.5q10 0 9 -10l-4 -19
q-2 -8 -10 -8h-32q-9 0 -18 -1.5t-17 -7t-15.5 -17t-13.5 -31.5l-82 -267q-2 -8 -7 -25t-10 -37t-8.5 -41t-3.5 -38q0 -47 20 -75t46 -42.5t52.5 -19t39.5 -4.5q33 0 69.5 14t60.5 36q17 15 32 34t28.5 43.5t26 56t25.5 73.5l88 288q11 36 -1.5 48.5t-35.5 12.5h-38
q-11 0 -9 8l3 19q2 5 4 7.5t9 2.5q9 0 38.5 -1.5t83.5 -1.5q44 0 63.5 1.5t27.5 1.5q7 0 8.5 -2.5t0.5 -7.5l-3 -19q-1 -4 -3 -6t-8 -2h-21q-24 0 -37 -13t-21 -33z" />
    <glyph glyph-name="V" unicode="V" horiz-adv-x="612" 
d="M255 168q-3 -19 4.5 -19.5t19.5 15.5l306 407q20 26 19.5 45.5t-21.5 19.5h-31q-13 0 -10 12l4 17q1 8 13 8q10 0 36 -1.5t72 -1.5q43 0 64.5 1.5t31.5 1.5q13 0 11 -10l-4 -17q-3 -10 -9 -10h-30q-27 0 -52.5 -23.5t-51.5 -55.5l-434 -560q-5 -6 -12.5 -11.5t-16.5 -5.5
q-20 0 -15 35l82 566q4 23 -5 39t-39 16h-31q-13 0 -12 7l6 20l3 7.5t8 2.5q10 0 42 -1.5t86 -1.5q55 0 86 1.5t40 1.5q13 0 11 -8l-4 -21q-1 -8 -11 -8h-32q-27 0 -40.5 -10t-17.5 -34z" />
    <glyph glyph-name="W" unicode="W" horiz-adv-x="874" 
d="M245 148q-2 -8 2.5 -9t12.5 7q4 4 25 32.5l51 69.5l64 88l63 87.5l49 68.5l23 32q19 27 26 48.5t7 34.5q0 11 -8 20t-23 9h-17q-10 0 -8 6l5 23q1 8 12 8q8 0 28 -1.5t58 -1.5q42 0 63.5 1.5t30.5 1.5q12 0 9 -10l-5 -19q-3 -8 -11 -8h-22q-16 0 -23.5 -10.5t-11.5 -39.5
l-53 -440q-2 -10 1.5 -12t8.5 3q6 5 18.5 22.5t28 41.5l32.5 51l32 51.5l26 42.5t14 24l36 61l35.5 63t28.5 54t16 34q8 21 4.5 37.5t-24.5 16.5h-16q-7 0 -6 8l4 19q1 10 11 10t29.5 -1.5t54.5 -1.5q41 0 62.5 1.5t32.5 1.5t9 -10l-4 -19q-1 -8 -8 -8h-17q-17 0 -31 -6
t-27 -23q-3 -4 -16 -25.5l-31.5 -52l-40 -66l-41 -67.5l-35 -57l-21.5 -35q-7 -12 -22 -35l-34.5 -52l-41.5 -60.5l-42.5 -61l-38 -53.5t-28.5 -36l-15.5 -17t-17.5 -9q-10 0 -14 8t-2 22l48 448q2 11 -2.5 12.5t-9.5 -5.5q-3 -3 -26.5 -36l-59 -81l-77 -104l-79 -106.5
l-66 -87.5t-37.5 -47q-8 -9 -16 -16t-19 -7q-15 0 -8 44l89 559q5 26 -1 39.5t-31 13.5h-24q-11 0 -10 10l4 19q1 4 3 6t9 2q8 0 35.5 -1.5t66.5 -1.5q47 0 75 1.5t37 1.5q11 0 10 -10l-4 -19q-2 -8 -10 -8h-22q-26 0 -36.5 -12t-16.5 -44z" />
    <glyph glyph-name="X" unicode="X" horiz-adv-x="691" 
d="M444 396q8 7 24.5 23l36.5 36l41.5 42l40.5 41.5t32 34.5t17 21q8 14 2.5 28t-26.5 14h-15q-9 0 -8 8l3 19q1 10 12 10q10 0 36.5 -1.5t65.5 -1.5q40 0 62.5 1.5t30.5 1.5q12 0 10 -8l-3 -21q-1 -8 -9 -8h-17q-18 0 -38.5 -12t-40.5 -26q-3 -2 -20 -18.5l-42 -40.5
l-54 -52l-55 -53.5l-46.5 -45l-27.5 -26.5l99 -276q8 -23 27 -37.5t42 -14.5h23q8 0 8 -10l-1 -17q-1 -6 -2.5 -8t-8.5 -2q-8 0 -32 1.5t-72 1.5t-76.5 -1.5t-39.5 -1.5q-14 0 -11 12l3 17q1 3 2.5 5.5t6.5 2.5h18q23 0 28 13t0 27l-7 20.5l-14.5 42.5l-18 53l-18 53
l-15 43.5t-8.5 23.5q-3 -4 -17.5 -18.5l-35.5 -35.5l-45.5 -46l-48 -49l-43.5 -45.5t-31 -35.5q-12 -15 -9.5 -30.5t23.5 -15.5h19q7 0 5 -10l-2 -17q-1 -5 -2.5 -7.5t-9.5 -2.5q-9 0 -36.5 1.5t-75.5 1.5q-37 0 -65.5 -1.5t-37.5 -1.5q-11 0 -9 8l4 19q2 5 3.5 7.5t6.5 2.5
h22q18 0 32.5 5.5t26.5 14t23.5 19t23.5 19.5q4 3 24 21.5l47.5 44l58.5 55l59.5 56l49.5 47l27 26.5l-81 232q-10 28 -22 45t-41 17h-26q-9 0 -8 10l3 17q1 5 3 7.5t10 2.5q9 0 39 -1.5t66 -1.5q47 0 72 1.5t35 1.5q11 0 9 -10l-3 -19q-1 -4 -2.5 -6t-6.5 -2h-19
q-24 0 -27.5 -16.5t3.5 -35.5z" />
    <glyph glyph-name="Y" unicode="Y" horiz-adv-x="540" 
d="M250 235q2 11 -0.5 29t-4.5 25l-108 309q-6 17 -20.5 27.5t-40.5 10.5h-23q-8 0 -7 8l4 21q1 8 10 8q10 0 32.5 -1.5t72.5 -1.5q57 0 85 1.5t38 1.5t9 -8l-2 -21q-1 -8 -9 -8h-26q-14 0 -22 -4.5t-11 -11t-2.5 -15t3.5 -17.5l93 -278q5 -17 15 -4l20.5 28.5l35 49.5
l41 59.5l40 59.5t31.5 49.5t16 29.5q10 29 1.5 41.5t-38.5 12.5h-20q-9 0 -7 10l2 19q1 8 12 8t39 -1.5t71 -1.5q42 0 65 1.5t33 1.5q12 0 10 -8l-3 -19q-1 -10 -8 -10h-19q-26 0 -42 -12t-36 -37q-4 -5 -20 -27l-38 -53l-47.5 -66.5l-47.5 -67l-38 -54t-20 -27.5l-14.5 -21
t-11 -18.5t-8.5 -21t-8 -28.5l-25 -113q-8 -38 3 -47t36 -9h30q9 0 7 -8l-3 -21q-1 -4 -3 -6t-8 -2q-11 0 -38 1.5t-83 1.5q-62 0 -89.5 -1.5t-35.5 -1.5q-9 0 -8 8l4 21q0 8 9 8h29q35 0 47.5 15t17.5 38z" />
    <glyph glyph-name="Z" unicode="Z" horiz-adv-x="677" 
d="M73 0q-7 0 -9.5 2.5t-3 6t1 7.5t3.5 6l527 612q-54 0 -103.5 -0.5t-89.5 -1.5t-69.5 -2.5t-42.5 -2.5q-36 -4 -60.5 -28t-34.5 -46q-4 -7 -9 -5l-14 5q-5 2 -4 8l38 114q1 3 3.5 6.5t6.5 3.5q6 0 17 -6q3 -2 21.5 -3.5t42.5 -2.5l46.5 -2t33.5 -1h324q13 0 13 -8.5
t-5 -13.5l-523 -611q69 0 120 0.5t89.5 2t68 4t55.5 7.5q40 7 63.5 28t46.5 60q4 6 10 3l14 -7q6 -2 3 -10l-47 -131q-2 -6 -9 -6q-9 0 -19 4q-7 2 -33 3.5t-57 2.5t-59.5 1.5t-39.5 0.5h-316z" />
    <glyph glyph-name="bracketleft" unicode="[" horiz-adv-x="324" 
d="M20 -197q-10 0 -5 14l244 896q2 10 16 10h195q10 0 8 -7l-7 -25q-1 -5 -14 -5h-128q-5 0 -8.5 -3t-5.5 -12l-225 -821q-2 -10 6 -10h141q8 0 7 -7l-6 -23q-1 -7 -15 -7h-203z" />
    <glyph glyph-name="backslash" unicode="\" horiz-adv-x="320" 
d="M258 -12q-5 -2 -6 1t-3 11l-135 662q-2 10 6 12l34 9q7 1 9 -5l134 -668q3 -10 -5 -12z" />
    <glyph glyph-name="bracketright" unicode="]" horiz-adv-x="324" 
d="M371 723q10 0 5 -14l-244 -896q-3 -10 -16 -10h-195q-10 0 -8 7l7 25q1 5 10 5h132q5 0 8.5 3t5.5 12l225 821q2 10 -6 10h-141q-8 0 -7 7l6 23q1 7 15 7h203z" />
    <glyph glyph-name="asciicircum" unicode="^" 
d="M259 685h32l212 -425h-65l-164 328h-5l-159 -328h-62z" />
    <glyph glyph-name="underscore" unicode="_" 
d="M0 -75h500v-50h-500v50z" />
    <glyph glyph-name="quoteleft" unicode="&#x2018;" horiz-adv-x="180" 
d="M273 685h6.5t4.5 -8q1 -7 -2 -9t-8 -4q-8 -2 -20.5 -8.5t-24 -17t-19.5 -23.5t-8 -29t5 -25t16 -21q4 -3 15 -13.5t11 -26.5q0 -17 -10.5 -29.5t-29.5 -12.5q-16 0 -28 9t-20.5 22.5t-12.5 29t-4 27.5q0 40 18 66.5t40.5 42.5t43.5 23t27 7z" />
    <glyph glyph-name="a" unicode="a" horiz-adv-x="455" 
d="M134 43q12 0 30.5 12t38.5 31t40.5 42.5l38 45.5t30.5 40.5t17 27.5q11 22 17.5 41.5t6.5 41.5q0 10 -2 20.5t-7.5 19t-14.5 14t-23 5.5q-35 0 -70 -34.5t-64 -83t-47 -100.5t-18 -88q0 -35 27 -35zM455 416q3 0 4 -3t-1 -6q-7 -15 -19 -45.5l-24 -61.5t-21 -56.5
l-11 -31.5l-10 -29l-16.5 -49l-15 -47.5t-6.5 -24.5q0 -12 11 -12q4 0 15 8.5t22 19t20.5 20.5l12.5 13q6 6 8 2l9 -10q4 -4 2 -8q-4 -8 -21 -25t-39.5 -35t-48 -31.5t-46.5 -13.5q-9 0 -15 3.5t-6 13.5q0 6 2 15.5t7.5 26.5t15 43.5l23.5 66.5l-5 2q-16 -24 -41.5 -53.5
t-55 -56t-60 -44t-57.5 -17.5q-9 0 -18.5 3.5t-17.5 11.5t-13 20t-5 29q0 36 12.5 77.5t34.5 81.5t50.5 77t60 65t65 44.5t63.5 16.5q32 0 47.5 -11t23.5 -23l19 27q5 7 10 7h35z" />
    <glyph glyph-name="b" unicode="b" horiz-adv-x="446" 
d="M107 67q0 -30 13 -36.5t30 -6.5q30 0 68.5 28.5t73 72.5t58 97t23.5 102q0 23 -10 33t-24 10t-34 -11t-42.5 -29.5t-45 -42.5t-41.5 -51q-15 -21 -27.5 -45.5t-21.5 -47.5t-14.5 -42.5t-5.5 -30.5zM207 641q-12 0 -9 10l6 16q3 8 10 8h127q7 0 8.5 -5.5t-1.5 -12.5
l-161 -363l6 -2q18 23 41 45.5t47 40t48 28t45 10.5q38 0 54.5 -21.5t16.5 -54.5q0 -21 -6.5 -49.5t-22 -61.5t-40.5 -69t-62 -73q-20 -20 -42 -37.5t-48 -30.5t-56 -21t-66 -8q-31 0 -49 19t-18 47q0 12 4.5 28t10.5 30l107.5 250l99.5 235q7 17 7 27q0 15 -28 15h-29z" />
    <glyph glyph-name="c" unicode="c" horiz-adv-x="302" 
d="M118 -10q-13 0 -26.5 5t-24 16t-17.5 28.5t-7 42.5q0 51 19 109.5t51 108.5t72.5 83t84.5 33q18 0 29 -6t17 -15t8.5 -18.5t2.5 -16.5q0 -18 -13.5 -30t-27.5 -12q-20 0 -26 22q-2 8 -10.5 17t-20.5 9q-39 0 -73 -69q-10 -22 -18 -47.5t-13.5 -50t-8.5 -45t-3 -32.5
q0 -27 3.5 -43.5t9.5 -25.5t13 -11.5t14 -2.5q15 0 29 6.5t25.5 15.5t20.5 18t13 14q5 7 9 4l11 -10q6 -4 1 -11q-5 -8 -19.5 -22.5t-34 -28.5t-43 -24.5t-47.5 -10.5z" />
    <glyph glyph-name="d" unicode="d" horiz-adv-x="471" 
d="M139 41q16 0 37 13.5t43 34t43 44.5t36 45q10 14 21.5 32.5t21.5 37.5t16 37t6 33q0 35 -14.5 50.5t-38.5 15.5t-47.5 -16.5t-46 -43.5t-42 -61t-33.5 -68.5t-22.5 -66.5t-8.5 -55q0 -16 9 -24t20 -8zM416 641q-10 0 -8 7l6 21q1 6 12 6h123q11 0 13 -6t-1 -12
q-4 -9 -19.5 -50l-37 -98.5l-46 -124l-46.5 -126l-38 -104.5t-20 -60q-7 -23 -7 -34.5t11 -11.5q6 0 17 7.5t22.5 16.5t20 17.5l10.5 10.5q7 5 11 -1l10 -10q5 -3 0 -10q-3 -3 -18.5 -17.5t-37.5 -30.5t-46 -28.5t-44 -12.5q-12 0 -19.5 4.5t-7.5 18.5q0 7 4 23t10 36
t14 42.5l16 43.5l-8 2q-18 -29 -44 -59.5t-54.5 -55t-58 -40t-54.5 -15.5q-26 0 -45 17t-19 49q0 30 10 65.5t28 73t43.5 74t56.5 66.5q12 12 28.5 26t37 26t43.5 20.5t48 8.5q20 0 35 -9t28 -24l77 219q5 14 0 26.5t-25 12.5h-31z" />
    <glyph glyph-name="e" unicode="e" horiz-adv-x="349" 
d="M267 372q-24 0 -47 -18.5t-41 -43.5t-30.5 -50.5t-15.5 -38.5q13 -1 40.5 6t55.5 21.5t49 36t21 49.5q0 15 -7.5 26.5t-24.5 11.5zM137 -10q-49 0 -71 24t-22 74q0 31 9.5 66t27 69t41 66.5t50.5 59.5q12 12 27.5 24t33.5 21.5t36.5 15.5t36.5 6q29 0 43 -17.5t14 -35.5
q0 -37 -25.5 -72.5t-67.5 -57.5q-41 -20 -79 -29.5t-66 -11.5q-4 -9 -8.5 -33t-4.5 -59q0 -17 5.5 -29t13.5 -19.5t17 -11t16 -3.5q18 0 35.5 6.5t32 16.5t26.5 22.5t20 25.5q4 6 9 1l11 -9q7 -4 1 -9q-9 -13 -25 -30.5t-36.5 -33t-46 -26.5t-54.5 -11z" />
    <glyph glyph-name="f" unicode="f" horiz-adv-x="279" 
d="M68 352q-8 0 -5 10l4 17q2 5 4 7.5t8 2.5h87q23 65 50 124t67 104q21 24 60 46t88 22q22 0 38.5 -6t28 -14.5t17.5 -19t6 -19.5q0 -23 -12.5 -34.5t-27.5 -11.5q-24 0 -33 11.5t-11 28.5q-1 8 -9.5 18.5t-31.5 10.5q-35 0 -60 -25t-43.5 -63t-32.5 -84l-26 -88h97
q9 0 6 -12l-5 -18q-1 -7 -11 -7h-95q-10 -30 -23 -75.5l-29 -97.5l-33.5 -106.5t-36.5 -102.5q-23 -59 -48 -108t-54 -84t-63 -55t-74 -20q-30 0 -51 17.5t-21 41.5q0 17 11.5 30t31.5 13q22 0 33.5 -16t13.5 -29q3 -17 17 -17q36 0 75.5 65t80.5 204l101 340h-89z" />
    <glyph glyph-name="g" unicode="g" horiz-adv-x="432" 
d="M17 -159q0 -26 15 -46t38 -33.5t50.5 -20.5t52.5 -7t48 4.5t40 14.5t27 25t10 36q0 16 -7 29.5t-17 24.5t-22 19.5l-21 14.5l-15.5 10l-26.5 17.5l-27.5 18l-18.5 11.5q-62 -25 -94 -54t-32 -64zM197 131q27 0 47.5 20t34 49.5t20.5 63t7 60.5q0 35 -12.5 51t-32.5 16
q-23 0 -43 -19.5t-35 -48.5t-24 -62.5t-9 -61.5q0 -68 47 -68zM153 -297q-39 0 -76 10.5t-65.5 28t-46 41.5t-17.5 51q0 28 19.5 51t46.5 41t56 31l47 21q-22 16 -30 30t-8 28t17.5 29.5t67.5 44.5q-10 3 -23.5 11t-25.5 22t-20.5 34.5t-8.5 47.5q0 28 12 61.5t35 62
t55.5 48t74.5 19.5q19 0 33 -5t24.5 -12.5t17.5 -15.5t10 -14q4 4 12.5 10.5t20 12.5t25 10t27.5 4q12 0 20.5 -4.5t13 -10.5t6.5 -13t2 -11q0 -8 -6.5 -19.5t-25.5 -11.5q-14 0 -21 5t-12 10q-4 4 -9 5.5t-10 1.5q-7 0 -16.5 -4.5t-12.5 -9.5q1 -4 2.5 -11t3 -15t2 -16
t0.5 -14q0 -18 -6 -45.5t-22 -55t-44 -50t-71 -29.5q-26 -4 -30 -7q-7 -3 -16 -8.5t-17 -12t-13.5 -14t-5.5 -13.5q0 -8 6 -15.5t11 -11.5l47 -31l83 -54q44 -29 59 -54.5t15 -53.5q0 -6 -5.5 -27t-27.5 -44t-64.5 -41t-115.5 -18z" />
    <glyph glyph-name="h" unicode="h" horiz-adv-x="467" 
d="M31 0q-10 0 -7 5l229 567q9 23 11 33t2 16q0 9 -9.5 14.5t-23.5 5.5h-31q-5 0 -8 2t-1 7l5 17q2 4 3.5 6t7.5 2h135q12 0 12 -12q0 -8 -9 -30l-157 -368l5 -4q19 27 40.5 54.5t46.5 50t52.5 36.5t58.5 14q35 0 52 -24.5t17 -59.5q0 -61 -21.5 -122t-47.5 -110
q-15 -28 -32.5 -52t-36.5 -42t-39.5 -28t-41.5 -10q-22 0 -36.5 13t-14.5 30t10 33t26 16q15 0 24 -9.5t11 -20.5q1 -7 5 -13.5t12 -6.5t18 11t20 28t19.5 37.5t16.5 39.5q8 21 15.5 45.5t13 48.5t8.5 46.5t3 40.5q0 9 -1 19t-4 18.5t-9 13.5t-16 5q-20 0 -45 -17t-49 -39.5
t-44 -45.5t-30 -36q-37 -46 -66 -116l-42 -102q-2 -7 -14 -7h-43z" />
    <glyph glyph-name="i" unicode="i" horiz-adv-x="287" 
d="M253 550q-17 0 -27 6t-15.5 14t-7.5 16t-2 12q0 20 14.5 35t37.5 15q26 0 39.5 -15.5t13.5 -32.5q0 -6 -2.5 -14.5t-8.5 -16.5t-16.5 -13.5t-25.5 -5.5zM92 -10q-17 2 -17 25q0 9 3.5 22.5t10.5 34.5l18 51.5l27 72.5l29 78q8 20 13 35t5 24q0 13 -14 13q-6 0 -17 -8.5
t-23 -20.5l-23 -23.5l-17 -17.5t-11 -1l-8 9q-6 5 -3 9q1 1 9.5 11t22 24t31 30t36 29t37 21.5t34.5 7.5q9 0 16.5 -6t7.5 -19q0 -14 -10 -44.5t-24 -66.5l-58 -152q-11 -28 -14.5 -44.5t-3.5 -21.5q0 -14 11 -17q8 1 20.5 11t25.5 22t22.5 23t11.5 14q4 5 11 -2l8 -7
q3 -4 3.5 -6t-1.5 -6q-2 -3 -17 -19.5t-38.5 -35.5t-53 -34t-60.5 -15z" />
    <glyph glyph-name="j" unicode="j" horiz-adv-x="271" 
d="M275 550q-24 0 -39 14t-15 31q0 20 14.5 38t42.5 18q14 0 23.5 -5t15.5 -12.5t8.5 -16t2.5 -15.5q0 -23 -16.5 -37.5t-36.5 -14.5zM220 238l-77 -204q-1 -2 -8 -22.5t-20.5 -50t-32.5 -63t-43.5 -62t-55 -47.5t-65.5 -19q-26 0 -43.5 6t-28 14.5t-15 18.5t-4.5 18
q0 17 11.5 31.5t30.5 14.5q22 0 31.5 -14.5t11.5 -25.5q2 -15 9 -22t16 -7q27 0 50 28t43 71t38 95l35 100l67 194q9 24 9 39t-11 15q-6 0 -17 -7t-22.5 -16l-22 -18t-14.5 -13t-8 0l-10 11q-4 4 -1 8q6 7 24.5 24t43.5 35t53 32t53 14q12 0 16.5 -7t4.5 -12q0 -10 -5.5 -31
t-13 -44.5t-16 -46.5z" />
    <glyph glyph-name="k" unicode="k" horiz-adv-x="434" 
d="M25 0q-10 0 -5 11l236 586q8 20 0 32t-36 12h-27q-8 0 -5 10l6 16q2 4 4 6t8 2h133q8 0 9 -6t-1 -11l-144 -347l5 -2q12 15 30.5 33.5t41 35t48 27.5t50.5 11q8 0 17 -2.5t17 -9t13 -18t5 -29.5q0 -30 -22.5 -58.5t-53 -52.5t-61.5 -41.5t-48 -23.5v-4l65 -105
q11 -19 23.5 -30t26.5 -11t26.5 9t20.5 17q5 7 9 1l10 -11q3 -3 -1 -9q-2 -2 -9.5 -10t-19 -16.5t-26 -15t-29.5 -6.5q-19 0 -32 2.5t-23 9.5t-18.5 18.5t-17.5 28.5l-55 105q-5 10 -17 11.5t-33 -0.5l-62 -158q-2 -7 -15 -7h-43zM154 189q36 -4 73 10t68 37t50.5 50.5
t19.5 50.5q0 12 -8 21t-20 9q-19 0 -40.5 -11t-40 -26t-33 -29t-19.5 -20q-6 -7 -14 -17.5t-13 -19.5z" />
    <glyph glyph-name="l" unicode="l" horiz-adv-x="254" 
d="M247 578q11 29 9 46t-24 17h-29q-10 0 -6 9l6 18q2 7 10 7h124q14 0 9 -15l-208 -529q-3 -9 -8.5 -22t-9 -25.5t-3 -21.5t8.5 -9q6 0 16.5 6.5t22 15t21 17t14.5 13.5q3 3 5 2.5t4 -2.5l11 -12q4 -5 -1 -10q-2 -3 -18.5 -18t-40.5 -31.5t-51.5 -30t-51.5 -13.5
q-10 0 -16 6t-6 23q0 6 4 19t10 29l12 32.5t11 27.5z" />
    <glyph glyph-name="m" unicode="m" horiz-adv-x="731" 
d="M63 0q-10 0 -6 10l76 181l20 47.5l18 44t13.5 36t6.5 22.5q0 16 -10 16q-5 0 -17.5 -9.5t-26 -21.5t-25.5 -24t-15 -16q-5 -6 -12 1l-9 9q-5 5 -1 9l26.5 28.5t40.5 37t48 32t49 13.5q11 0 17.5 -8t6.5 -20q0 -9 -9.5 -35t-22 -55.5l-24 -56t-15.5 -36.5l5 -1
q17 27 44 63.5t58.5 69.5t65.5 56t66 23q25 0 34.5 -14.5t9.5 -28.5t-6.5 -37t-15.5 -48.5t-19 -49l-16 -38.5l5 -1l47.5 69t56.5 71t62 55t64 22q23 0 35.5 -15.5t12.5 -32.5q0 -13 -3.5 -28t-11 -35.5t-19 -48.5l-27.5 -66l-29.5 -73t-12.5 -44q0 -13 11 -13q7 0 19 10
t25 23t23 24.5t12 14.5q4 7 12 0l8 -8q5 -5 2 -11q-1 -3 -19 -22.5t-44 -42t-56 -40.5t-54 -18q-8 0 -13 6.5t-5 17.5q0 19 19 67.5l49 122.5l35 87t13 55q0 19 -21 19q-13 0 -36 -18.5t-50.5 -48t-55.5 -65t-51 -68.5q-5 -8 -18 -26.5t-23 -44.5l-34 -88q-2 -6 -14 -6h-40
q-13 0 -9 8l68 166l20.5 51.5l19 48t13.5 40t5 28.5q0 20 -20 20q-13 0 -35.5 -17t-49 -44t-53.5 -59t-48 -62l-25 -37t-25 -48l-36 -89q-3 -5 -6 -5.5t-10 -0.5h-38z" />
    <glyph glyph-name="n" unicode="n" horiz-adv-x="519" 
d="M72 0q-14 0 -11 9l71 185l18 47l16.5 45t12.5 37t5 22q0 17 -15 17q-7 0 -18.5 -8t-24 -18.5t-24 -22t-17.5 -18.5q-5 -5 -10 1l-9 9q-5 5 -2 10q6 7 21.5 23.5t37.5 33.5t48.5 30.5t53.5 13.5q17 0 24.5 -10t7.5 -20q0 -12 -7 -33.5t-15.5 -44t-17 -42.5t-11.5 -29l4 -2
q11 18 35.5 48.5t56 60t67.5 51t69 21.5q23 0 36.5 -10.5t13.5 -30.5q0 -33 -15.5 -74.5t-40.5 -102.5l-35.5 -88t-15.5 -50q0 -5 3 -9t9 -4t16 6t21 14t20.5 17l14.5 14q6 5 11 -2l7 -8q5 -5 1 -11q-5 -6 -21 -20.5t-38.5 -29t-49 -26t-51.5 -11.5q-10 0 -17 4.5t-7 15.5
q0 7 6 24.5t16 42.5l21.5 55l23.5 62q5 15 13.5 36l16.5 42.5t14 39.5t6 26q0 23 -25 23q-15 0 -39 -15.5t-50 -39.5t-51.5 -52.5t-41.5 -55.5l-13.5 -22t-13.5 -25t-15 -33t-18 -45l-25 -67q-2 -3 -4 -4.5t-10 -1.5h-39z" />
    <glyph glyph-name="o" unicode="o" horiz-adv-x="397" 
d="M140 38q26 0 51.5 16t48.5 41t42.5 56t34 62t22.5 57.5t8 43.5q1 23 -12 39.5t-38 16.5q-32 0 -69.5 -29t-75.5 -90q-26 -41 -42 -84t-16 -78q0 -24 14 -37.5t32 -13.5zM155 -10q-21 0 -39.5 9.5t-32.5 26.5t-22.5 40.5t-8.5 52.5q0 47 17 99.5t47 96.5t72 72.5t92 28.5
q51 0 79 -33t28 -84q0 -28 -7 -61.5t-21 -67.5t-34 -66.5t-45.5 -57.5t-57 -40.5t-67.5 -15.5z" />
    <glyph glyph-name="p" unicode="p" horiz-adv-x="461" 
d="M139 30q45 7 89 26.5t78.5 49.5t56 69t21.5 85q0 29 -8 50.5t-20.5 36t-29 21.5t-32.5 7q-11 0 -19 -1t-13 -2zM239 492q4 10 13 14l62 22q2 1 7 1q3 0 3 -4q0 -5 -2 -8l-46 -104q5 1 10 1.5t10 0.5q5 1 10.5 1h9.5q36 0 62 -11.5t43 -30.5t25 -43t8 -48
q0 -53 -26.5 -105.5t-92.5 -102.5q-17 -12 -40 -24t-50 -22t-57 -18t-61 -11l-71 -198q-14 -41 -7 -54.5t39 -13.5h28q4 0 6 -3t1 -5l-7 -20l-4 -4t-8 -2q-8 0 -32.5 1.5t-72.5 1.5q-52 0 -75.5 -1.5t-31.5 -1.5q-9 0 -7 6l6 20q2 8 7 8h23q29 0 44.5 18.5t31.5 62.5
l196 539q-18 -5 -37 -16t-35.5 -24.5t-30 -26.5t-21.5 -23q-2 -3 -4.5 -3t-4.5 2l-11 10q-5 5 -1 9q26 32 63.5 63.5t95.5 53.5z" />
    <glyph glyph-name="q" unicode="q" horiz-adv-x="454" 
d="M159 16q32 0 60 19.5t51 49.5t41 66.5t30.5 70t19 60.5t6.5 38q0 26 -15.5 42t-38.5 16q-39 0 -80 -41q-26 -26 -48 -59.5t-38 -68.5t-25.5 -69t-9.5 -61q0 -29 12 -46t35 -17zM278 43h-4q-24 -23 -54 -38t-71 -15q-11 0 -28 3t-32.5 14t-26.5 34t-11 64q0 7 3.5 33.5
t15.5 63t35.5 78.5t64.5 80q34 32 65.5 44t62.5 12q34 0 54 -12.5t34 -23.5q7 -5 14 0l51 33q9 6 17 6q11 0 4 -18l-229 -616q-11 -29 -5 -40t22 -11h28q9 0 7 -8l-6 -18q-3 -8 -11 -8q-9 0 -33 1.5t-65 1.5q-44 0 -69.5 -1.5t-33.5 -1.5q-10 0 -8 8l4 18q3 8 9 8h25
q27 0 42.5 10t28.5 42z" />
    <glyph glyph-name="r" unicode="r" horiz-adv-x="356" 
d="M67 0q-13 0 -9 9l56 162q7 21 15.5 49l16 54t12.5 46.5t5 25.5q0 7 -5 11t-12 4q-8 0 -19 -7.5t-22.5 -17.5t-22 -20.5t-15.5 -16.5q-2 -2 -4 -2t-4 2l-10 10q-3 3 0 8q8 12 22.5 28.5t34 32.5t43 27t49.5 11q15 0 21.5 -10.5t6.5 -24.5q1 -14 -10 -52.5l-26 -89.5l5 -2
q10 21 29 51.5t41.5 59t47 48.5t45.5 20q22 0 34.5 -12.5t12.5 -32.5t-12.5 -33t-26.5 -13q-7 0 -13 2t-12 8t-11 9t-15 3t-25 -14.5t-31.5 -37t-34 -49t-32.5 -51.5q-9 -14 -18.5 -33.5t-20.5 -53.5l-33 -101q-2 -5 -4.5 -6t-8.5 -1h-40z" />
    <glyph glyph-name="s" unicode="s" horiz-adv-x="294" 
d="M106 -10q-44 0 -69 15.5t-25 40.5q0 11 9 22t25 11q17 0 26.5 -9.5t14.5 -22.5t11 -20.5t25 -7.5q22 0 39 17.5t17 43.5q0 16 -5 31.5t-11.5 30.5t-14 28.5t-12.5 25.5q-5 13 -17.5 38t-11.5 60q0 22 9.5 43.5t26.5 39t40 28.5t50 11q11 0 23.5 -2.5t23 -8.5t17.5 -15.5
t7 -24.5q0 -14 -10 -23t-21 -9q-9 0 -19 5.5t-15 18.5q-4 9 -7.5 18.5t-18.5 9.5t-32 -18t-17 -45q0 -14 5 -28t11 -27t12 -23t8 -15t8.5 -15.5t13 -26t11.5 -34t5 -38.5q0 -29 -11 -52.5t-29 -39.5t-42 -24.5t-50 -8.5z" />
    <glyph glyph-name="t" unicode="t" horiz-adv-x="314" 
d="M179 352h-70q-9 0 -6 8l8 22q3 7 11 7h72l52 116q4 8 7 10.5t9 4.5q8 2 23.5 8t21.5 9q5 2 8.5 4t6.5 2q11 0 1 -20l-66 -134h102q8 0 4 -11l-9 -21q-2 -5 -9 -5h-102l-97 -225l-16 -38.5t-7 -25.5q0 -17 13 -17q11 0 27 9t31.5 20.5t27.5 21.5t14 13q4 5 9 0l11 -12
q4 -4 1 -9q-5 -6 -23.5 -22t-44 -33.5t-56 -30.5t-59.5 -13q-19 0 -25.5 6.5t-6.5 17.5t3 23.5t8 23.5z" />
    <glyph glyph-name="u" unicode="u" horiz-adv-x="484" 
d="M475 406q12 0 9 -9l-77 -208q-22 -59 -32 -92t-10 -38q0 -7 1.5 -8.5t6.5 -3.5q6 0 17.5 8t24 18.5t23 20.5t13.5 15q4 6 9 0l10 -10q4 -4 0 -9q-1 -2 -17.5 -17.5t-40.5 -34t-52.5 -33.5t-54.5 -15q-11 0 -15 7t-4 16q0 4 8 26.5t19 50.5l21.5 54.5l15.5 39.5l-6 3
q-16 -23 -42.5 -56.5t-59.5 -65t-70.5 -53.5t-74.5 -22q-15 0 -25.5 11.5t-11.5 29.5q1 24 21.5 70.5l49.5 116.5l34.5 80t14.5 47t-16 14q-7 0 -18.5 -7t-23.5 -17t-22 -19.5l-14 -13.5q-5 -5 -9 0l-9 9q-5 3 1 9l18 18.5t37.5 33t48.5 31t50 13.5q15 0 22 -12t7 -24
q0 -19 -17 -62.5t-48 -110.5l-19.5 -44.5t-17 -42t-12 -35t-4.5 -23.5q0 -17 17 -17q20 0 47.5 21t55.5 49.5t51 57.5t34 45q14 21 26 41.5t20 43.5l35 96q2 7 14 7h41z" />
    <glyph glyph-name="v" unicode="v" horiz-adv-x="524" 
d="M145 353q-24 0 -39 -14.5t-16 -37.5q1 -14 8 -19.5t14 -9.5q5 -3 13.5 -10.5t8.5 -19.5t-8.5 -22.5t-28.5 -10.5q-14 0 -30 12.5t-16 44.5q0 15 4 29.5t10 27.5t13 23.5t12 16.5q7 8 16 16.5t21.5 15.5t31 11.5t45.5 4.5q38 0 61 1t35.5 1.5t18.5 1.5t10 1
q10 0 15.5 -4.5t-2.5 -14.5t-27.5 -38t-39.5 -65t-35.5 -79t-15.5 -79q0 -26 6 -43.5t16 -28.5t23 -16t26 -5q32 0 63 22.5t55.5 57.5t39.5 76.5t15 79.5q0 12 -1.5 26t-6.5 26q-6 14 -10.5 23t-4.5 18q0 20 11.5 32t33.5 12q21 0 30 -17.5t9 -35.5t-4 -44.5t-12.5 -57
t-21 -62.5t-28.5 -60q-17 -29 -40 -56t-50 -47.5t-57 -33t-61 -12.5q-19 0 -36.5 6t-31.5 18.5t-22.5 32t-8.5 46.5q0 35 14 74t35 77.5t45.5 72.5t46.5 60l-7 3q-8 -7 -21 -12t-26.5 -8.5t-26 -5t-19.5 -1.5h-52z" />
    <glyph glyph-name="w" unicode="w" horiz-adv-x="737" 
d="M135 349q-14 0 -25 -9.5t-11 -23.5q-1 -14 5.5 -19.5t13.5 -10.5q5 -3 13 -9.5t8 -21.5q0 -14 -9 -23.5t-29 -9.5q-6 0 -14.5 3t-15.5 10t-12 18.5t-5 27.5q0 27 13.5 48.5t30.5 41.5q10 11 31.5 23t44.5 12h73l92 6q10 1 13.5 -5t-5.5 -15q-11 -12 -31 -42.5t-39.5 -69
t-33.5 -80.5t-14 -77t17 -54t43 -19q34 0 64.5 18t52.5 52q6 10 12 25.5t11.5 33t9.5 35.5t7 34q5 29 8 62.5t9 60.5q6 19 18.5 25.5t26.5 6.5t19.5 -7.5t5.5 -16.5q0 -13 -16 -55l-36 -99l-16 -49t-7 -42q0 -17 7 -31.5t19 -26t28 -18t34 -6.5q25 0 50 13.5t45 40
t32.5 65.5t12.5 90q0 13 -4.5 33.5t-10.5 27.5l-20 21t-13 33q0 18 13 29t31 11q9 0 18 -4t16 -15t11.5 -31t4.5 -53q0 -27 -4 -57.5t-12.5 -61.5t-21.5 -59.5t-30 -52.5l-24.5 -30t-31 -29.5t-40.5 -23t-51 -9.5q-23 0 -41 9.5t-31 23.5t-20.5 30t-8.5 29
q-7 -9 -22.5 -24.5t-37.5 -30.5t-48.5 -26t-54.5 -11q-16 0 -32.5 6.5t-29.5 19t-21 31.5t-8 45q0 31 15 70t36 76.5t43.5 70t37.5 50.5l-7 7q-5 -2 -13.5 -5t-19 -5.5t-21 -4.5t-19.5 -2h-79z" />
    <glyph glyph-name="x" unicode="x" horiz-adv-x="471" 
d="M185 326q-6 18 -18 18q-15 0 -31 -22t-32 -53q-3 -6 -10 -3l-14 7q-4 1 -2 8q1 4 13 26t29 46t37 43.5t38 19.5q16 0 25.5 -10.5t20.5 -44.5l34 -115l59 77t45 54q12 12 29.5 25.5t39.5 13.5q14 0 21.5 -9t7.5 -22q0 -23 -8 -57.5t-19 -60.5q-3 -7 -10 -4l-12 4
q-8 3 -7 8q26 78 -2 78q-8 0 -22 -12.5t-32 -32.5t-38 -44.5l-40 -49.5l47 -134q10 -27 26 -27q9 0 19.5 9t20.5 21t16.5 23t8.5 15q1 4 9 1l12 -6q6 -3 3 -10q-5 -8 -16 -27.5t-27.5 -39t-36.5 -34.5t-42 -15q-33 0 -46 43l-42 135l-48 -63.5t-46.5 -57t-43 -41.5
t-36.5 -16q-37 0 -37 35q0 9 2 23t5 29.5t7 30t8 23.5q2 6 8 4l15 -4q6 -1 4 -8q-8 -23 -9 -37t1.5 -22t7 -10.5t8.5 -2.5q9 0 25.5 15t37 37t41.5 48l39 49z" />
    <glyph glyph-name="y" unicode="y" horiz-adv-x="409" 
d="M45 272q-4 2 -1 9l12.5 26t27 46t37 43.5t43.5 19.5t33.5 -23.5t16.5 -89.5q4 -43 7 -85.5l5.5 -81t4 -72l2.5 -57.5l4 1l25.5 45.5t30.5 59.5l28 60t18 47q4 13 9.5 34t5.5 53q0 8 -1.5 19.5t-3.5 17.5l-7 16.5t-4 19.5q0 12 8.5 24t32.5 12q20 0 30 -15.5t10 -34.5
q0 -24 -6.5 -51.5t-16 -55.5t-21.5 -54.5l-23 -50.5q-17 -36 -43.5 -85t-58.5 -99.5t-66.5 -97t-67.5 -78.5q-10 -11 -27 -26.5t-37 -29.5t-43 -24.5t-45 -10.5q-29 0 -42.5 15t-13.5 32q0 19 13 29.5t27 11.5q13 1 21 -4t16 -12q5 -5 12 -8.5t13 -3.5q8 0 20 5t27 16
q42 31 70 69.5t40 65.5q6 14 7.5 29.5t0.5 26.5q-1 6 -2.5 30t-4 58.5t-6 74l-7 76.5l-6.5 66t-6 42q-6 28 -17 28q-7 0 -15.5 -9.5t-17 -22.5t-15.5 -27t-10 -22q-3 -5 -9 -3z" />
    <glyph glyph-name="z" unicode="z" horiz-adv-x="477" 
d="M175 106l3 -5q23 0 46 -10.5t58 -33.5l51 -33t39 -12q16 0 26 9.5t10 19.5q0 5 -0.5 12t-5.5 16q-7 12 -9 19.5t-2 12.5q0 17 10.5 26.5t22.5 9.5q20 0 30.5 -13.5t10.5 -35.5q0 -17 -7.5 -35.5t-22.5 -35t-38 -27t-54 -10.5q-33 0 -66 12.5t-60 25.5q-5 2 -14 7.5
t-19.5 11t-21.5 9.5t-21 4q-19 0 -26.5 -8.5t-13.5 -27.5q-4 -11 -15 -20t-28 -9q-9 0 -15 6t-6 16q0 15 9 29.5t22 27t26.5 21.5t22.5 14l209 208l-4 4q-34 -2 -55.5 9.5t-34.5 19.5q-6 4 -15 12t-19.5 15.5t-22 13t-22.5 5.5q-17 0 -23.5 -6.5t-6.5 -11.5q0 -10 14 -18
q5 -4 9 -10.5t4 -18.5q0 -14 -9 -24.5t-24 -10.5t-29.5 12t-14.5 37q0 11 5 25t17 26.5t30.5 21t45.5 8.5q16 0 29.5 -2.5t27 -7t28 -11t32.5 -15.5q16 -8 37 -15.5t38 -7.5q16 0 24 11t13 25t17.5 30t33.5 16q10 0 14.5 -8t4.5 -16q0 -13 -7.5 -25.5t-17.5 -23t-20.5 -18
l-16.5 -11.5z" />
    <glyph glyph-name="braceleft" unicode="{" horiz-adv-x="324" 
d="M92 285q0 14 13 14q18 0 36 7q26 11 42 29.5t18 44.5q2 22 2.5 42t0.5 40t1 41.5t4 46.5q4 37 24 66.5t48 51t60.5 35t63.5 17.5q15 2 27 2.5t19 0.5q17 0 17 -14q0 -18 -12 -18q-6 0 -15 -0.5t-17 -1.5q-56 -8 -97 -40.5t-51 -98.5q-5 -36 -7 -72t-7 -69
q-5 -37 -18.5 -56t-32.5 -35q-18 -14 -33.5 -22.5t-15.5 -18.5q0 -7 11.5 -14.5t18.5 -18.5q8 -12 11.5 -23t3.5 -26q0 -28 -9.5 -56t-20.5 -57l-22 -59t-10 -64q0 -50 27.5 -81t63.5 -39q10 -2 20 -3t15 -1q7 0 7 -17q0 -15 -7 -15q-5 0 -15.5 0.5t-29.5 3.5q-18 2 -43 11
t-48.5 27t-40 46t-16.5 68q0 36 12 67t26 62l25.5 58.5t11.5 53.5q0 23 -5 33.5t-10 17.5q-11 15 -33 18q-13 2 -13 16z" />
    <glyph glyph-name="bar" unicode="|" horiz-adv-x="250" 
d="M149 -260q-6 0 -6 10v1003q0 9 6 9h40q7 0 7 -12v-1000q0 -10 -5 -10h-42z" />
    <glyph glyph-name="braceright" unicode="}" horiz-adv-x="324" 
d="M314 241q0 -14 -13 -14q-18 0 -36 -7q-26 -11 -42 -29.5t-18 -44.5q-2 -23 -2.5 -42.5t-0.5 -39.5t-1 -41.5t-4 -46.5q-5 -37 -24.5 -66.5t-47.5 -51t-60.5 -35t-63.5 -17.5q-15 -2 -27 -2.5t-19 -0.5q-17 0 -17 14q0 18 12 18q6 0 15 0.5t17 1.5q56 8 97 40.5t51 98.5
q5 36 7 72t7 69q5 37 18.5 56t32.5 35q18 14 33.5 22.5t15.5 18.5q0 7 -11.5 14.5t-18.5 18.5q-8 12 -11.5 23t-3.5 26q0 28 9.5 56t20.5 57l22 59t10 64q0 50 -27.5 81t-63.5 39q-10 2 -20 3t-15 1q-7 0 -7 17q0 15 7 15q5 0 15.5 -0.5t29.5 -3.5q18 -2 43 -11.5
t48.5 -27.5t40 -45.5t16.5 -67.5q0 -36 -12 -67t-26 -62l-25.5 -58.5t-11.5 -53.5q0 -23 5 -33.5t10 -17.5q11 -15 33 -18q13 -2 13 -16z" />
    <glyph glyph-name="asciitilde" unicode="~" 
d="M458 309q0 -66 -30 -103t-69 -37q-23 0 -42.5 9.5t-40.5 23.5l-39 27q-19 12 -34 17t-32 5q-7 0 -15 -4t-15 -13.5t-11.5 -25t-4.5 -37.5h-53q0 66 30 103t69 37q22 0 40 -5t40 -19l42 -28q14 -8 30 -19t33 -11q19 0 34 18t15 62h53z" />
    <glyph glyph-name="exclamdown" unicode="&#xa1;" horiz-adv-x="270" 
d="M9 -297q-22 0 -33 14t-11 30q0 7 3.5 19.5t11.5 32.5q1 3 13 33l29 73.5l36.5 93.5l36.5 93.5l29 73t13 31.5q3 6 5 7t7 1q3 0 6 -5t-1 -16t-12 -46l-18.5 -81l-21.5 -97.5l-20 -95.5l-15.5 -74t-7.5 -34q-6 -27 -19.5 -40t-30.5 -13zM188 310q-5 0 -13 3t-15.5 9
t-12.5 16t-5 24q0 22 14.5 38t37.5 16q12 0 21 -5t15 -12.5t9 -16.5t3 -16q0 -23 -14.5 -39.5t-39.5 -16.5z" />
    <glyph glyph-name="cent" unicode="&#xa2;" 
d="M230 110q-51 1 -84.5 27t-33.5 86q0 37 16.5 82t45.5 87t69.5 77t87.5 53l28 116q2 7 9 6l23 -5q7 -1 4 -10l-24 -96q16 3 35 3q21 0 41.5 -10t20.5 -33q0 -20 -13.5 -29t-27.5 -9q-13 0 -23 12q-6 6 -16 10.5t-29 5.5l-81 -327q30 3 53 14t41 23q6 4 9 2.5t6 -4.5l4 -7
q3 -4 3 -8.5t-7 -9.5q-6 -3 -16 -10.5t-25 -16t-35 -16t-44 -10.5l-30 -120q-2 -8 -9 -7l-21 6q-5 2 -4.5 5t1.5 8zM321 480q-40 -10 -71 -51q-14 -19 -26 -43t-21 -50t-14.5 -52t-5.5 -48q0 -35 16.5 -55t42.5 -24z" />
    <glyph glyph-name="sterling" unicode="&#xa3;" 
d="M345 251q10 0 9 -6l-5 -24q-1 -7 -12 -7h-156l-10 -16.5l-15 -24l-16.5 -25t-15.5 -19.5l1 -2q33 4 59 2t48.5 -10.5t43 -24.5t43.5 -41q13 -14 31 -23.5t43 -9.5q17 0 29 11t16 19q5 12 2.5 15.5t-17.5 3.5q-23 0 -36.5 10.5t-13.5 21.5q0 10 9.5 25t35.5 15
q28 0 49.5 -17.5t21.5 -46.5q0 -11 -6.5 -27t-21.5 -30.5t-40.5 -24.5t-63.5 -10q-79 0 -136 68q-26 32 -54.5 41.5t-57.5 7.5l-14 -27.5t-21.5 -34t-27.5 -28.5t-32 -12q-10 0 -15.5 5t-5.5 11q0 13 8.5 28.5t22 30.5t29.5 27.5t30 19.5q4 5 11 17t13.5 26.5l12 27.5
t7.5 21h-72q-11 0 -9 7l4 24q1 6 10 6h79q3 10 12.5 36.5l21.5 59.5l24.5 67l22.5 60q13 35 33.5 66t47 54.5t58.5 37t68 13.5q27 0 47 -7.5t33.5 -18t20.5 -22t7 -20.5q0 -17 -12.5 -27t-26.5 -11q-17 0 -30.5 8.5t-23.5 28.5q-2 3 -3.5 9t-6 12t-13 10.5t-23.5 4.5
q-29 0 -54 -35.5t-53 -122.5q-9 -27 -22.5 -60l-27 -63t-24.5 -52t-15 -28h145z" />
    <glyph glyph-name="fraction" unicode="&#x2044;" horiz-adv-x="100" 
d="M-134 1q-3 1 -3 5q0 5 4 12l408 623q3 4 6 4t7 -2l22 -14q4 -1 4 -5q0 -3 -3 -7l-410 -625q-4 -7 -8 -7t-8 3z" />
    <glyph glyph-name="yen" unicode="&#xa5;" 
d="M272 85q-4 -18 -3 -28.5t5.5 -16.5t12 -7.5t17.5 -1.5h30q9 0 7 -8l-3 -18q-2 -8 -10 -8q-11 0 -34.5 1.5t-67.5 1.5q-55 0 -79.5 -1.5t-32.5 -1.5q-9 0 -8 8l3 18q2 8 9 8h22q34 0 46 15t17 36l17 82h-142q-6 0 -5 5l3 20q0 7 9 7h143l13 63h-145q-9 0 -8 7l2 19
q1 5 3.5 5.5t6.5 0.5h131l-86 272q-5 14 -18 25t-38 11h-22q-8 0 -6 6l4 20q1 8 9 8q9 0 29.5 -1.5t59.5 -1.5q54 0 80 1.5t35 1.5q10 0 9 -8l-2 -20q-2 -6 -9 -6h-24q-14 0 -22 -4t-11 -11t-2 -15t3 -16l72 -245q2 -10 7.5 -10t8.5 5l16.5 24.5l29 43.5l35.5 52.5l35 52.5
l28 44.5t14 26.5q9 27 1.5 39t-35.5 12h-19q-7 1 -7 9l2 18q1 8 11 8q11 0 36.5 -1.5t62.5 -1.5q38 0 60.5 1.5t31.5 1.5q11 0 9 -8l-2 -18q-1 -8 -8 -8h-18q-24 0 -39 -11.5t-30 -34.5q-3 -5 -17.5 -24.5l-34 -47.5l-42.5 -59.5l-42.5 -59l-34 -47.5l-17.5 -24h134
q9 0 8 -6l-4 -20q-1 -6 -13 -6h-146l-15 -63h159q7 0 6 -7l-4 -20q-1 -5 -14 -5h-157z" />
    <glyph glyph-name="florin" unicode="&#x192;" 
d="M298 318l-51 -168q-23 -75 -47.5 -127.5t-53 -86.5t-61 -49.5t-70.5 -15.5q-42 0 -63 17t-21 40q0 12 11.5 25t26.5 13q20 0 30.5 -12.5t17.5 -27.5q4 -8 11.5 -13t21.5 -5q22 0 37 12.5t27.5 39.5t25 69.5l29.5 102.5l54 186h-75q-5 0 -6.5 3t0.5 6l10 22q2 6 10 6h72
q10 31 20.5 60.5t23 56.5t29 52.5t39.5 50.5q29 31 66.5 50.5t86.5 19.5q48 0 70.5 -19.5t22.5 -42.5q0 -12 -13.5 -24.5t-33.5 -12.5t-27.5 13t-12.5 25q-2 7 -11 15.5t-34 8.5q-24 0 -44 -13.5t-38 -44t-34.5 -78.5t-34.5 -117h101q11 0 8 -6l-10 -25q-2 -6 -12 -6h-98z
" />
    <glyph glyph-name="section" unicode="&#xa7;" 
d="M244 487q-42 -22 -64.5 -55t-22.5 -72q0 -26 10.5 -48t25.5 -40q21 -25 43.5 -49t40.5 -49t30 -50.5t13 -53.5q42 28 61.5 62.5t19.5 67.5q0 32 -11 59.5t-41 62.5q-13 15 -30.5 32t-33.5 37.5t-28 44t-13 51.5zM467 243q0 -29 -10 -58t-29 -56.5t-47 -51t-63 -41.5
q-11 -45 -29.5 -76t-58.5 -60q-56 -40 -144 -40q-35 0 -58.5 14t-23.5 31q0 19 10.5 30.5t28.5 11.5q15 0 25.5 -7t18.5 -18q17 -25 47 -25q15 0 36 7.5t40 23t32 39t13 55.5q0 26 -6.5 47t-19.5 41.5t-31.5 41l-42.5 46.5q-25 26 -41.5 57.5t-16.5 73.5q0 22 10 49t29 52.5
t46 48t62 36.5q4 20 18 53t51 66q35 32 73.5 41.5t70.5 9.5q40 0 61 -14.5t21 -30.5q0 -21 -11.5 -32t-30.5 -11q-20 0 -28.5 8.5t-16.5 23.5q-13 23 -41 23q-18 0 -36 -9.5t-32.5 -25.5t-24 -37.5t-9.5 -44.5q0 -19 4 -35t14 -33.5t28 -38t47 -48.5q24 -23 44.5 -57.5
t20.5 -79.5z" />
    <glyph glyph-name="currency" unicode="&#xa4;" 
d="M287 187q49 0 82.5 35t33.5 95q0 57 -32 93t-84 36q-31 0 -53 -11.5t-36 -30t-20.5 -41.5t-6.5 -46q0 -25 7 -48.5t21 -41.5t36 -29t52 -11zM514 527q5 -6 0 -11l-94 -89q17 -17 28.5 -46.5t12.5 -57.5q-3 -67 -40 -113l93 -87q6 -6 2 -11l-21 -24q-5 -5 -9 0l-99 90
q-21 -15 -49.5 -23.5t-55.5 -8.5q-29 0 -57 9.5t-47 26.5l-91 -91q-7 -7 -11 -2l-22 23q-4 6 2 12l92 90q-16 20 -25 44.5t-9 52.5q0 32 11 62.5t30 49.5l-98 93q-5 4 1 10l19 20q5 6 10 1l100 -94q20 18 49 26t59 8q25 0 51.5 -8.5t42.5 -22.5l97 90q4 6 9 1z" />
    <glyph glyph-name="quotesingle" unicode="'" horiz-adv-x="144" 
d="M137 468q3 11 8 38l11 57l11.5 56t9.5 37q7 20 19 24.5t26 4.5q12 0 21 -8.5t9 -22.5q0 -5 -12.5 -32l-28.5 -59.5l-30.5 -62t-18.5 -40.5z" />
    <glyph glyph-name="quotedblleft" unicode="&#x201c;" horiz-adv-x="320" 
d="M413 685h6.5t4.5 -8q1 -7 -2 -9t-8 -4q-8 -2 -20.5 -8.5t-24 -17t-19.5 -23.5t-8 -29t5 -25t16 -21q4 -3 15 -13.5t11 -26.5q0 -17 -10.5 -29.5t-29.5 -12.5q-16 0 -28 9t-20.5 22.5t-12.5 29t-4 27.5q0 40 18 66.5t40.5 42.5t43.5 23t27 7zM273 685h6.5t4.5 -8
q1 -7 -2 -9t-8 -4q-8 -2 -20.5 -8.5t-24 -17t-19.5 -23.5t-8 -29t5 -25t16 -21q4 -3 15 -13.5t11 -26.5q0 -17 -10.5 -29.5t-29.5 -12.5q-16 0 -28 9t-20.5 22.5t-12.5 29t-4 27.5q0 40 18 66.5t40.5 42.5t43.5 23t27 7z" />
    <glyph glyph-name="guillemotleft" unicode="&#xab;" horiz-adv-x="360" 
d="M190 206q-4 4 -4 6t5 7l155 145q4 4 6 4t5 -3l11 -11q4 -4 4 -7q0 -2 -6 -8l-105 -122l76 -123q2 -4 3.5 -5t1.5 -3q0 -3 -4 -7l-12 -11q-2 -2 -4 -2q-4 0 -7 4zM60 206q-4 4 -4 6t5 7l155 145q4 4 6 4t5 -3l11 -11q4 -4 4 -7q0 -2 -6 -8l-105 -122l76 -123q2 -4 3.5 -5
t1.5 -3q0 -3 -4 -7l-12 -11q-2 -2 -4 -2q-4 0 -7 4z" />
    <glyph glyph-name="guilsinglleft" unicode="&#x2039;" horiz-adv-x="230" 
d="M55 206q-4 4 -4 6t5 7l155 145q4 4 6 4t5 -3l11 -11q4 -4 4 -7q0 -2 -6 -8l-105 -122l76 -123q2 -4 3.5 -5t1.5 -3q0 -3 -4 -7l-12 -11q-2 -2 -4 -2q-4 0 -7 4z" />
    <glyph glyph-name="guilsinglright" unicode="&#x203a;" horiz-adv-x="230" 
d="M212 228q4 -4 4 -6t-5 -7l-155 -145q-4 -4 -6 -4t-5 3l-11 11q-4 4 -4 7q0 2 6 8l105 122l-76 123q-2 4 -3.5 5t-1.5 3q0 3 4 7l12 11q2 2 4 2q4 0 7 -4z" />
    <glyph glyph-name="endash" unicode="&#x2013;" 
d="M25 217v54h500v-54h-500z" />
    <glyph glyph-name="dagger" unicode="&#x2020;" 
d="M381 685q23 0 29 -12.5t6 -23.5t-11 -38l-25.5 -61l-29 -70t-22.5 -65q23 0 49.5 3.5t50.5 7.5l43.5 7.5t28.5 3.5q18 0 26 -10t8 -22q0 -15 -11 -29t-31 -14q-10 0 -29 4l-43 9.5t-50 9.5t-49 4q-6 -27 -7.5 -46t0 -32.5t5 -22t6.5 -14.5q-8 -13 -19.5 -41.5l-26 -66
t-29 -80l-28 -83.5l-24.5 -76.5t-16 -57.5q-2 -9 -9 -9h-15q-7 0 -4 12l14 61t15.5 76.5l15 82t12.5 77t7.5 62.5t0.5 38q6 6 14 15t17 23t17.5 33.5t15.5 48.5q-23 0 -50 -4t-52.5 -9.5l-45.5 -9.5t-28 -4q-20 0 -27.5 9t-7.5 22q0 16 14 30.5t37 14.5q10 0 28.5 -3.5
l41.5 -8t48.5 -8t48.5 -3.5q7 29 11.5 61.5t7.5 62.5l5.5 54.5t5.5 37.5q6 25 22.5 39.5t38.5 14.5z" />
    <glyph glyph-name="daggerdbl" unicode="&#x2021;" 
d="M386 685q24 0 30 -10.5t6 -24.5q0 -11 -11 -38l-26 -61l-30 -70.5t-22 -64.5q23 0 51 3.5l53.5 7t45 7t25.5 3.5q22 0 27 -8.5t5 -20.5q0 -17 -15 -31t-35 -14q-9 0 -27 4l-41 9.5t-48 9.5t-47 4q-9 -37 -10 -66.5t5 -54.5q-15 -20 -30 -49t-26 -63q22 0 49 4t52.5 8.5
l46.5 8.5t31 4q16 0 23 -8t7 -20q0 -22 -14 -34t-35 -12q-11 0 -29.5 3.5l-41.5 7.5t-48.5 7.5t-49.5 3.5q-7 -29 -11.5 -61.5t-7.5 -62.5l-5.5 -55t-5.5 -39q-6 -25 -23.5 -38.5t-34.5 -13.5q-19 0 -26.5 10t-7.5 27q0 13 10.5 40.5t25 60.5l28.5 68t22 64q-23 0 -51 -3.5
t-53.5 -7.5t-45 -7.5t-25.5 -3.5q-15 0 -23 9t-8 21q0 17 12.5 30.5t34.5 13.5q9 0 27.5 -4t41.5 -8.5t49 -8.5t49 -4q9 32 10 63t-4 49q39 48 55 121q-23 0 -51 -4t-53.5 -9.5l-45.5 -9.5t-29 -4q-20 0 -26.5 8t-6.5 19q0 22 16 35t41 12q8 0 25.5 -3.5t40 -7t47.5 -7
t48 -3.5q7 28 11 60.5t6.5 62.5l4.5 54.5t5 37.5q6 26 24.5 40t38.5 14z" />
    <glyph glyph-name="periodcentered" unicode="&#xb7;" horiz-adv-x="250" 
d="M169 290q-23 0 -38 15.5t-15 38.5q0 15 12.5 33.5t39.5 18.5q17 0 28 -6.5t17.5 -15t9 -17.5t2.5 -13q0 -20 -15.5 -37t-40.5 -17z" />
    <glyph glyph-name="paragraph" unicode="&#xb6;" 
d="M259 -126q-2 -8 -3.5 -11t-6.5 -3h-27q-5 0 -1 16l86 329q-43 0 -90 10.5t-81.5 37t-49.5 72t6 114.5q17 58 64 99.5t109 69.5t130.5 44t129.5 24q37 5 56.5 7t33.5 2q8 0 7 -7l-4 -17q-2 -7 -10 -8q-5 0 -12.5 -1l-15.5 -2l-15.5 -2t-11.5 -2l-203 -778q-1 -8 -9 -8h-24
q-5 0 -5.5 2t1.5 10l200 770q-10 -2 -29 -5.5t-30 -6.5z" />
    <glyph glyph-name="bullet" unicode="&#x2022;" horiz-adv-x="354" 
d="M108 317q0 24 9 44.5t24 36t35 24t43 8.5q50 0 79.5 -27t29.5 -77q0 -24 -9.5 -44t-25 -34.5t-36.5 -22t-44 -7.5q-20 0 -38.5 6.5t-33.5 19.5t-24 31.5t-9 41.5z" />
    <glyph glyph-name="quotesinglbase" unicode="&#x201a;" horiz-adv-x="180" 
d="M13 -107h-6.5t-4.5 8q-1 7 2 9t8 4q8 2 20.5 8.5t24 17t19.5 23.5t8 29t-5 25t-16 21q-4 3 -15 13.5t-11 26.5q0 17 10.5 29.5t29.5 12.5q16 0 28 -9.5t20 -23t12.5 -28.5t4.5 -27q0 -40 -18 -66.5t-40.5 -42.5t-43.5 -23t-27 -7z" />
    <glyph glyph-name="quotedblbase" unicode="&#x201e;" horiz-adv-x="320" 
d="M153 -107h-6.5t-4.5 8q-1 7 2 9t8 4q8 2 20.5 8.5t24 17t19.5 23.5t8 29t-5 25t-16 21q-4 3 -15 13.5t-11 26.5q0 17 10.5 29.5t29.5 12.5q16 0 28 -9.5t20 -23t12.5 -28.5t4.5 -27q0 -40 -18 -66.5t-40.5 -42.5t-43.5 -23t-27 -7zM13 -107h-6.5t-4.5 8q-1 7 2 9t8 4
q8 2 20.5 8.5t24 17t19.5 23.5t8 29t-5 25t-16 21q-4 3 -15 13.5t-11 26.5q0 17 10.5 29.5t29.5 12.5q16 0 28 -9.5t20 -23t12.5 -28.5t4.5 -27q0 -40 -18 -66.5t-40.5 -42.5t-43.5 -23t-27 -7z" />
    <glyph glyph-name="quotedblright" unicode="&#x201d;" horiz-adv-x="320" 
d="M253 458h-6.5t-4.5 8q-1 7 2 9t8 4q8 2 20.5 8.5t24 17t19.5 23.5t8 29t-5 25t-16 21q-4 3 -15 13.5t-11 26.5q0 17 10.5 29.5t29.5 12.5q16 0 28 -9.5t20 -23t12.5 -28.5t4.5 -27q0 -40 -18 -66.5t-40.5 -42.5t-43.5 -23t-27 -7zM113 458h-6.5t-4.5 8q-1 7 2 9t8 4
q8 2 20.5 8.5t24 17t19.5 23.5t8 29t-5 25t-16 21q-4 3 -15 13.5t-11 26.5q0 17 10.5 29.5t29.5 12.5q16 0 28 -9.5t20 -23t12.5 -28.5t4.5 -27q0 -40 -18 -66.5t-40.5 -42.5t-43.5 -23t-27 -7z" />
    <glyph glyph-name="guillemotright" unicode="&#xbb;" horiz-adv-x="360" 
d="M342 228q4 -4 4 -6t-5 -7l-155 -145q-4 -4 -6 -4t-5 3l-11 11q-4 4 -4 7q0 2 6 8l105 122l-76 123q-2 4 -3.5 5t-1.5 3q0 3 4 7l12 11q2 2 4 2q4 0 7 -4zM212 228q4 -4 4 -6t-5 -7l-155 -145q-4 -4 -6 -4t-5 3l-11 11q-4 4 -4 7q0 2 6 8l105 122l-76 123q-2 4 -3.5 5
t-1.5 3q0 3 4 7l12 11q2 2 4 2q4 0 7 -4z" />
    <glyph glyph-name="ellipsis" unicode="&#x2026;" horiz-adv-x="1000" 
d="M464 -10q-23 0 -38 15.5t-15 38.5q0 15 12.5 33.5t39.5 18.5q17 0 28 -6.5t17.5 -15t9 -17.5t2.5 -13q0 -20 -15.5 -37t-40.5 -17zM798 -10q-23 0 -38 15.5t-15 38.5q0 15 12.5 33.5t39.5 18.5q17 0 28 -6.5t17.5 -15t9 -17.5t2.5 -13q0 -20 -15.5 -37t-40.5 -17z
M130 -10q-23 0 -38 15.5t-15 38.5q0 15 12.5 33.5t39.5 18.5q17 0 28 -6.5t17.5 -15t9 -17.5t2.5 -13q0 -20 -15.5 -37t-40.5 -17z" />
    <glyph glyph-name="perthousand" unicode="&#x2030;" horiz-adv-x="1030" 
d="M828 20q32 0 59.5 30t48 73t32 90.5t11.5 83.5q0 29 -15 44.5t-35 15.5q-29 0 -55.5 -28.5t-47 -69.5t-32.5 -86t-12 -79q0 -37 15.5 -55.5t30.5 -18.5zM832 -7q-53 0 -79 33t-26 88q0 44 16 92.5t43.5 88.5t65 66t81.5 26q51 0 76 -30.5t25 -78.5q0 -49 -16 -99.5
t-43.5 -92t-64 -67.5t-78.5 -26zM500 20q32 0 59.5 30t48 73t32 90.5t11.5 83.5q0 29 -15 44.5t-35 15.5q-29 0 -55.5 -28.5t-47 -69.5t-32.5 -86t-12 -79q0 -37 15.5 -55.5t30.5 -18.5zM504 -7q-53 0 -79 33t-26 88q0 44 16 92.5t43.5 88.5t65 66t81.5 26q51 0 76 -30.5
t25 -78.5q0 -49 -16 -99.5t-43.5 -92t-64 -67.5t-78.5 -26zM167 1q-3 1 -3 5q0 5 4 12l408 623q3 4 6 4t7 -2l22 -14q4 -1 4 -5q0 -3 -3 -7l-410 -625q-4 -7 -8 -7t-8 3zM181 251q-53 0 -79 33t-26 88q0 44 16 92.5t43.5 88.5t65 66t81.5 26q51 0 76 -30.5t25 -78.5
q0 -49 -16 -99.5t-43.5 -92t-64 -67.5t-78.5 -26zM177 278q32 0 59.5 30t48 73t32 90.5t11.5 83.5q0 29 -15 44.5t-35 15.5q-29 0 -55.5 -28.5t-47 -69.5t-32.5 -86t-12 -79q0 -37 15.5 -55.5t30.5 -18.5z" />
    <glyph glyph-name="questiondown" unicode="&#xbf;" horiz-adv-x="429" 
d="M301 315q-17 0 -34.5 12.5t-17.5 36.5q0 17 12 34.5t38 17.5q23 0 37 -15.5t14 -36.5q0 -7 -3.5 -15.5t-10 -16t-15.5 -12.5t-20 -5zM262 248q18 0 36 -6t31.5 -19t22 -33t8.5 -48q0 -32 -17.5 -58t-42.5 -46t-52.5 -35.5t-46.5 -27.5l-50 -32t-40.5 -32.5t-27.5 -39.5
t-10 -51q0 -12 5.5 -26t17.5 -26.5t31 -21t46 -8.5q24 0 45 7t37 19t25.5 28.5t9.5 36.5q0 24 -11 34.5t-19 10.5q-12 0 -16 -9q2 -5 1.5 -8t-0.5 -7q0 -6 -3 -13.5t-9 -15t-15.5 -12.5t-22.5 -5q-20 0 -28.5 12t-8.5 22q0 16 7.5 29t19 22t25.5 14t28 5q13 0 27.5 -3.5
t26.5 -12.5t20 -24t8 -37q0 -21 -10 -43.5t-29.5 -41.5t-48 -31t-65.5 -12q-47 0 -76 15.5t-45 36.5t-21 43t-5 36q0 47 18 81.5t45.5 60t60.5 43.5l62 33q55 28 86 49t31 53q0 28 -20.5 42t-49.5 14q-28 0 -50 -14t-30 -23q-4 -4 -9 2l-7 8q-4 4 -2 8l16.5 16t24.5 19
t31 15.5t35 6.5z" />
    <glyph glyph-name="grave" unicode="`" horiz-adv-x="235" 
d="M268 467q-4 -5 -9 0l-120 91q-10 8 -12.5 18.5t0.5 19.5t11 15.5t18 6.5q13 0 20 -6.5t15 -17.5l84 -111q4 -4 0 -8z" />
    <glyph glyph-name="acute" unicode="&#xb4;" horiz-adv-x="225" 
d="M97 477q-2 2 4 8l126 103q16 15 35 15q10 0 17.5 -7.5t9 -18t-4 -22t-21.5 -18.5l-151 -71q-6 -3 -8 1z" />
    <glyph glyph-name="circumflex" unicode="&#x2c6;" horiz-adv-x="255" 
d="M222 538l-100 -65q-5 -2 -7 1l-6 9q-2 2 3 7l125 128q7 5 10 -4l45 -130q3 -5 -1 -8l-8 -4q-5 -3 -8 0z" />
    <glyph glyph-name="tilde" unicode="&#x2dc;" horiz-adv-x="285" 
d="M102 485q-3 3 1 10q11 28 34 50t49 22q13 0 24.5 -2.5t25.5 -7.5q8 -2 18.5 -4t27.5 -2q16 0 27.5 10.5t17.5 21.5q3 7 8 4l15 -8q3 -2 2 -5.5t-6 -11.5q-13 -23 -34.5 -41.5t-41.5 -18.5q-16 0 -29.5 3t-27.5 7q-11 3 -19.5 4.5t-19.5 1.5q-13 0 -28.5 -12t-23.5 -26
q-4 -5 -7 -3z" />
    <glyph glyph-name="macron" unicode="&#xaf;" horiz-adv-x="255" 
d="M109 546q0 6 10 6h180q10 0 10 -7v-29q0 -7 -9 -7h-183q-8 0 -8 7v30z" />
    <glyph glyph-name="breve" unicode="&#x2d8;" horiz-adv-x="275" 
d="M207 476q-31 0 -57.5 23.5t-30.5 70.5q-1 11 4 12l10 3q4 1 9 -9q13 -23 36 -35t45 -12q35 0 58.5 17t35.5 32q8 10 12 7l11 -5q4 -2 -1 -13q-9 -17 -21.5 -33t-29 -29t-37 -21t-44.5 -8z" />
    <glyph glyph-name="dotaccent" unicode="&#x2d9;" horiz-adv-x="150" 
d="M159 550q-17 0 -27 6t-15.5 14t-7.5 16t-2 12q0 20 14.5 35t37.5 15q26 0 39.5 -15.5t13.5 -32.5q0 -6 -2.5 -14.5t-8.5 -16.5t-16.5 -13.5t-25.5 -5.5z" />
    <glyph glyph-name="dieresis" unicode="&#xa8;" horiz-adv-x="285" 
d="M340 550q-14 0 -30 8.5t-16 34.5q0 5 2 11.5t7 12.5t14 10.5t23 4.5q17 0 29 -11t12 -31q0 -19 -12 -29.5t-29 -10.5zM204 550q-14 0 -30 8.5t-16 34.5q0 5 2 11.5t7 12.5t14 10.5t23 4.5q17 0 29 -11t12 -31q0 -19 -12 -29.5t-29 -10.5z" />
    <glyph glyph-name="ring" unicode="&#x2da;" horiz-adv-x="255" 
d="M217 503q17 0 32 12.5t15 38.5q0 14 -5 23.5t-12.5 15.5t-16 8.5t-15.5 2.5q-17 0 -33 -12.5t-16 -39.5q0 -24 16 -36.5t35 -12.5zM213 480q-41 0 -68 18.5t-27 50.5q0 19 8.5 34t23 25t32.5 15t38 5q39 0 65.5 -18.5t26.5 -56.5q0 -33 -28 -53t-71 -20z" />
    <glyph glyph-name="cedilla" unicode="&#xb8;" horiz-adv-x="215" 
d="M70 0l-47 -67q19 -9 30 -23t11 -35q0 -20 -16 -35.5t-37 -26.5t-42.5 -17t-32.5 -6t-15 5t-4 13q0 16 18 16q28 0 51 14.5t23 32.5q0 12 -10 23.5t-28 18.5l62 87h37z" />
    <glyph glyph-name="hungarumlaut" unicode="&#x2dd;" horiz-adv-x="305" 
d="M94 476q-4 3 3 10l95 110q5 6 13 12.5t18 6.5q12 0 18 -6.5t7.5 -15t-1.5 -17.5t-9 -13l-126 -93q-6 -6 -9 -2zM204 478q-3 3 4 9l106 101q6 6 14.5 12t17.5 6t16.5 -6t10 -15t-1 -19t-15.5 -17l-136 -80q-5 -4 -9 0z" />
    <glyph glyph-name="ogonek" unicode="&#x2db;" horiz-adv-x="215" 
d="M80 -182q0 -7 -13 -17.5t-45 -10.5q-17 0 -34 4t-30.5 12t-22 20t-8.5 27q0 25 15 48.5t35 43.5t40.5 34.5t31.5 20.5h30l-28.5 -25t-29 -30t-22.5 -34t-9 -37q0 -16 6.5 -26.5t15 -16.5t17.5 -8.5t15 -2.5q7 0 15 5t13 5q4 0 6 -3.5t2 -8.5z" />
    <glyph glyph-name="caron" unicode="&#x2c7;" horiz-adv-x="255" 
d="M308 617q5 2 7 -1l6 -9q2 -2 -3 -7l-125 -128q-7 -5 -10 4l-45 130q-3 5 1 8l8 4q5 3 8 0l53 -66z" />
    <glyph glyph-name="emdash" unicode="&#x2014;" horiz-adv-x="1000" 
d="M1025 217h-1000v54h1000v-54z" />
    <glyph glyph-name="AE" unicode="&#xc6;" horiz-adv-x="917" 
d="M445 34h249q14 0 24.5 2t19 6.5t17 12.5t19.5 21l80 101q5 7 12 2l10 -6q3 -2 4 -4.5t-1 -9.5l-51 -145q-4 -11 -8.5 -14t-13.5 -3q-7 0 -40.5 0.5t-82.5 1.5q-49 0 -105 0.5t-109 0.5h-82q-35 0 -57 -0.5t-35 -0.5q-14 -1 -20 -1.5t-10 -0.5q-12 0 -10 11l3 18q1 8 8 8
h37q31 0 47.5 15t24.5 41l71 222h-184l-159 -186q-18 -21 -32 -39t-14 -29t9.5 -17.5t26.5 -6.5h33q7 0 6 -10l-3 -19q-1 -4 -3 -6t-8 -2q-8 0 -40 1.5t-91 1.5q-50 0 -77 -1.5t-35 -1.5q-9 0 -8 10l4 19q1 8 8 8h18q32 0 65.5 20t63.5 53l460 511q5 5 4.5 11.5t-10.5 6.5
h-65q-10 0 -6 8l9 24q2 5 11 5q6 0 18.5 -0.5t28.5 -0.5q16 -1 33.5 -1.5t34.5 -0.5h100q63 0 107.5 0.5t73.5 1.5q29 0 45 0.5t24 0.5q11 0 14.5 -3.5t6.5 -15.5l32 -137q1 -5 -6 -9l-11 -4q-4 -2 -5.5 -1.5t-4.5 4.5l-94 121q-7 8 -17 8h-171l-95 -292h105q22 0 39 1.5
t31.5 9.5t26 25t22.5 47q2 6 7 5l15 -3q7 -2 6 -8l-54 -199q-1 -7 -7 -6l-16 2q-5 1 -4 8q3 31 -3.5 48t-20.5 25.5t-36 10.5t-52 2h-68zM455 344l82 256q4 11 -1 12.5t-12 -5.5l-233 -263h164z" />
    <glyph glyph-name="ordfeminine" unicode="&#xaa;" horiz-adv-x="324" 
d="M293 480q0 15 -7 22.5t-25 7.5q-27 0 -53 -21t-46.5 -49.5t-33.5 -58.5t-13 -49q0 -14 5 -26.5t19 -12.5t34.5 14.5t41 34.5t37 42t22.5 36q19 41 19 60zM373 533q7 0 3 -8l-10 -23.5l-15 -35.5l-15.5 -38t-12.5 -30t-10.5 -26.5l-10.5 -30t-8.5 -26t-3.5 -12.5
q0 -9 7 -9q4 0 11 5t14.5 11t14 12.5l9.5 9.5q3 4 7 1l10 -10q4 -4 0 -8q-3 -5 -15 -15.5t-28 -21.5t-34.5 -19t-34.5 -8q-22 0 -22 14q0 9 5.5 26.5t23.5 62.5l-4 2q-8 -13 -24.5 -31t-36.5 -34.5t-42.5 -28t-42.5 -11.5q-53 0 -53 63q0 34 20 73.5t51 73t69 56t75 22.5
q26 0 36.5 -9.5t13.5 -17.5l9 15q4 6 12 6h32z" />
    <glyph glyph-name="Oslash" unicode="&#xd8;" horiz-adv-x="709" 
d="M142 -8q-6 -8 -11 -3l-21 19q-4 4 -1 9l53 65q-32 41 -46 92t-14 114q0 77 28.5 148.5t77 127t112 88.5t132.5 33q92 0 157 -53l39 48q4 6 10 3l23 -17q7 -4 -4 -16l-38 -47q36 -39 56 -94.5t20 -123.5q0 -70 -23.5 -141t-69 -128.5t-111.5 -94t-151 -36.5q-7 0 -25 0.5
t-42 6.5t-51.5 19t-52.5 39zM582 599q-40 42 -111 42q-46 0 -80.5 -20t-66.5 -52q-33 -33 -60 -77t-46 -91t-29.5 -93t-10.5 -85q0 -30 5 -54.5t13 -44.5zM218 86q23 -32 55 -47t64 -15q41 0 79 17.5t71.5 47.5t61 71.5t47 88.5t30.5 98.5t11 102.5q0 33 -7 62.5t-22 52.5z
" />
    <glyph glyph-name="OE" unicode="&#x152;" horiz-adv-x="1064" 
d="M332 24q31 0 63.5 5t61 18.5t51 36t33.5 58.5l136 434q5 17 -2.5 30t-25 22t-43 13.5t-55.5 4.5q-74 0 -129.5 -29.5t-103.5 -73.5q-33 -31 -58.5 -70.5t-43.5 -82t-27 -85.5t-9 -82q0 -53 13.5 -90.5t35.5 -61.5t49 -35.5t54 -11.5zM592 34h249q28 0 43.5 8t36.5 34
l80 101q5 7 12 2l10 -6q3 -2 4 -4.5t-1 -9.5l-51 -145q-4 -11 -8.5 -14t-13.5 -3q-6 0 -32.5 0.5t-66.5 1.5q-40 0 -89 0.5t-100 0.5h-153q-22 0 -42.5 -2.5t-40.5 -4.5q-21 -3 -41.5 -5.5t-42.5 -2.5q-43 0 -88.5 15.5t-76.5 44.5q-42 39 -65 91t-23 120q0 56 13.5 104
t34.5 87t46 69.5t49 52.5t55 43t68.5 37t81 26t91.5 10q31 0 56.5 -2.5t49.5 -4.5q23 -3 45 -5.5t45 -2.5h87q51 0 89.5 0.5t66.5 1.5q28 0 45.5 0.5t25.5 0.5q11 0 14.5 -3.5t6.5 -15.5l32 -137q1 -5 -6 -9l-11 -4q-4 -2 -5.5 -1.5t-4.5 4.5l-94 121q-5 8 -16 8h-172
l-86 -263h96q22 0 39 1.5t31.5 9.5t26 25t22.5 48q2 6 7 5l15 -3q7 -2 6 -8l-54 -199q-1 -7 -7 -6l-16 2q-5 1 -4 8q3 31 -3.5 48t-20.5 25.5t-36 10t-52 1.5h-60z" />
    <glyph glyph-name="ordmasculine" unicode="&#xba;" horiz-adv-x="324" 
d="M172 282q17 0 39 20t41.5 48.5t32.5 60t12 54.5q1 19 -9.5 30t-33.5 11t-45 -18.5t-39 -46t-27.5 -59.5t-10.5 -60q0 -16 9.5 -28t30.5 -12zM167 251q-15 0 -30.5 4t-28 14.5t-21 28t-8.5 44.5q0 29 10.5 63.5t32.5 64t55 49.5t77 20q41 0 65.5 -24.5t24.5 -58.5
q0 -26 -9.5 -61t-31 -67t-55 -54.5t-81.5 -22.5z" />
    <glyph glyph-name="ae" unicode="&#xe6;" horiz-adv-x="540" 
d="M346 358q-15 0 -39.5 -13.5t-52.5 -36.5t-57.5 -52.5t-53 -61t-39 -63t-15.5 -57.5q0 -17 7.5 -25t18.5 -8q12 0 26 6t30 15t31.5 20.5l30.5 22.5q10 50 25 88t31.5 66t32.5 47t28 32q11 11 8.5 15.5t-12.5 4.5zM455 372q-22 0 -45.5 -17.5t-44.5 -47.5t-36.5 -70.5
t-22.5 -86.5l46.5 29.5t60.5 44.5t52.5 53.5t22.5 56.5q0 16 -8.5 27t-24.5 11zM488 100q4 -3 3.5 -4.5t-2.5 -4.5q-9 -13 -25 -30.5t-36.5 -33t-46 -26.5t-54.5 -11q-51 0 -71 24t-22 61q-17 -14 -37 -28.5t-42.5 -27.5t-46 -21t-46.5 -8q-22 0 -34 16t-12 34q0 34 19 75
t52 83t77.5 81t95.5 69.5t105.5 49t107.5 18.5q45 0 63 -18.5t18 -43.5q0 -36 -25.5 -67.5t-63.5 -60.5q-45 -34 -85.5 -59l-76.5 -48q-1 -37 13 -59.5t39 -22.5q18 0 35 6.5t32 16.5t26.5 22.5t19.5 25.5q3 5 9 1z" />
    <glyph glyph-name="dotlessi" unicode="&#x131;" horiz-adv-x="287" 
d="M92 -10q-17 2 -17 25q0 9 3.5 22.5t10.5 34.5t18.5 51.5l26.5 72.5l29 78q8 20 13 35t5 24q0 13 -14 13q-6 0 -17 -8.5t-23 -20.5l-23 -23.5l-17 -17.5t-11 -1l-8 9q-6 5 -3 9q1 1 9.5 11t22 24t31 30t36 29t37 21.5t34.5 7.5q9 0 16.5 -6t7.5 -19q0 -14 -10 -44.5
t-24 -66.5l-58 -152q-10 -28 -14 -44.5t-4 -21.5q0 -14 11 -17q8 1 20.5 11t25.5 22t22.5 23t11.5 14q4 5 11 -2l8 -7q3 -4 3.5 -6t-1.5 -6q-2 -3 -17 -19.5t-38.5 -35.5t-53 -34t-60.5 -15z" />
    <glyph glyph-name="oslash" unicode="&#xf8;" horiz-adv-x="397" 
d="M336 353q-5 7 -14 12t-23 5q-31 0 -68.5 -27t-79.5 -93q-31 -49 -45 -96t-12 -70zM108 52q11 -14 34 -14q25 0 49.5 15t47 39.5t42 55t34 61.5t23 59.5t9.5 49.5l-2 2zM157 -10q-25 0 -42.5 9.5t-30.5 25.5l-41 -43q-4 -4 -7 0l-18 19q-2 4 2 8l45 45q-5 14 -9 30.5
t-4 34.5q0 48 17 100.5t47.5 96t73 72t92.5 28.5q27 0 47 -10t32 -26l36 42q5 5 9 2l20 -16q5 -3 0 -8l-47 -52l5 -21.5t3 -27.5q0 -28 -7 -61.5t-20.5 -67.5t-33.5 -66.5t-45.5 -57.5t-56.5 -40.5t-67 -15.5z" />
    <glyph glyph-name="oe" unicode="&#x153;" horiz-adv-x="585" 
d="M94 92q0 -27 13 -40.5t33 -13.5q44 0 81 31.5t63.5 75.5t41 92t14.5 81q0 24 -13 37.5t-33 13.5q-26 0 -64 -27t-78 -90q-9 -14 -19 -32t-19 -39t-14.5 -44t-5.5 -45zM368 221q13 -1 41 6t56 21.5t49 36t21 49.5q0 15 -7.5 26.5t-24.5 11.5q-24 0 -47 -18.5t-41.5 -43.5
t-31 -50.5t-15.5 -38.5zM534 100q7 -4 1 -9q-9 -13 -25 -30.5t-36.5 -33t-46 -26.5t-54.5 -11q-32 0 -55.5 19t-33.5 56q-12 -18 -28.5 -32t-34 -23.5t-34.5 -14.5t-29 -5q-6 0 -23.5 3.5t-36 17t-32.5 40t-14 73.5q0 48 17.5 99.5t47.5 94.5t70.5 70.5t86.5 27.5
q40 0 69 -25t31 -76h2q15 21 35 39.5t42 32t45 21.5t44 8q29 0 43 -17.5t14 -35.5q0 -38 -25.5 -73t-67.5 -57q-41 -20 -79 -29.5t-67 -11.5q-4 -9 -8.5 -33t-4.5 -59q0 -17 5.5 -29t13.5 -19.5t17 -11t17 -3.5q18 0 35.5 6.5t32 16.5t26.5 22.5t20 25.5q4 6 9 1z" />
    <glyph glyph-name="germandbls" unicode="&#xdf;" horiz-adv-x="458" 
d="M413 685q43 0 71.5 -22.5t28.5 -58.5q0 -50 -25.5 -88.5t-65.5 -76.5q-8 -8 -19.5 -18.5t-22.5 -24t-18.5 -30t-7.5 -36.5q0 -17 5 -33t11 -29.5t12 -23.5t8 -15t8.5 -15.5t13 -26t11.5 -34t5 -38.5q0 -29 -11 -52.5t-29 -39.5t-42 -24.5t-50 -8.5q-44 0 -69 15.5
t-25 40.5q0 11 9 22t25 11q17 0 26.5 -9.5t14.5 -22.5t11 -20.5t25 -7.5q22 0 39 17.5t17 43.5q0 16 -5 31.5t-11.5 30.5t-14 28.5t-12.5 25.5q-5 13 -17.5 38t-12.5 61q0 26 10.5 48.5t24.5 41t29.5 33l25.5 24.5q31 31 43.5 63.5t12.5 74.5q0 29 -17.5 49t-46.5 20
q-35 0 -59 -22.5t-42 -60.5t-33 -88.5l-32 -106.5q-12 -38 -26 -87l-30.5 -103l-34 -109t-35.5 -103q-22 -60 -48 -109t-56 -84t-65.5 -54t-77.5 -19q-12 0 -23.5 4.5t-20.5 13t-14.5 19t-5.5 22.5q0 17 11.5 30t30.5 13q17 0 28.5 -13.5t13.5 -25.5q5 -23 23 -23
q33 0 65 46.5t57 120.5q42 128 73 247.5t70 231.5q23 67 50.5 126.5t69.5 102.5q10 11 25 23t34 21.5t41 16t46 6.5z" />
    <glyph glyph-name="logicalnot" unicode="&#xac;" 
d="M72 346h388v-224h-58v170h-330v54z" />
    <glyph glyph-name="mu" unicode="&#xb5;" 
d="M61 -68q-16 -44 -25 -66.5t-16 -42.5q-6 -17 -27.5 -29t-44.5 -12q-14 0 -17.5 10.5t13.5 27.5t31.5 43t27 56t23.5 60t22 54l11.5 28.5l19 48l29 72.5l41.5 102q18 44 19.5 73t1.5 37q0 22 43 22q17 0 25.5 -11.5t8.5 -24.5q0 -19 -20.5 -62t-47.5 -110l-18 -45.5
t-16 -42t-11.5 -35t-4.5 -23.5q0 -17 17 -17q20 0 47.5 21t55.5 49.5t51 57.5t34 45q14 21 26 41.5t21 41.5q17 41 20.5 63t3.5 30q0 22 41 22q17 0 23 -8t6 -22q0 -17 -21.5 -66.5t-51.5 -130.5q-11 -29 -18 -49.5l-11.5 -34.5t-6 -23t-1.5 -16q0 -9 6.5 -14t11.5 -5
q6 0 15.5 8t19 18.5t17.5 20.5t11 15q4 6 9 0l10 -10q4 -4 0 -9q-1 -2 -13.5 -17.5t-32 -34t-45 -33.5t-52.5 -15q-31 0 -31 32q0 9 6.5 30.5t15.5 46.5l18 48.5l14 36.5l-6 3q-15 -22 -41.5 -56.5t-60.5 -66t-73 -53.5t-81 -19z" />
    <glyph glyph-name="mu" unicode="&#x3bc;" 
d="M61 -68q-16 -44 -25 -66.5t-16 -42.5q-6 -17 -27.5 -29t-44.5 -12q-14 0 -17.5 10.5t13.5 27.5t31.5 43t27 56t23.5 60t22 54l11.5 28.5l19 48l29 72.5l41.5 102q18 44 19.5 73t1.5 37q0 22 43 22q17 0 25.5 -11.5t8.5 -24.5q0 -19 -20.5 -62t-47.5 -110l-18 -45.5
t-16 -42t-11.5 -35t-4.5 -23.5q0 -17 17 -17q20 0 47.5 21t55.5 49.5t51 57.5t34 45q14 21 26 41.5t21 41.5q17 41 20.5 63t3.5 30q0 22 41 22q17 0 23 -8t6 -22q0 -17 -21.5 -66.5t-51.5 -130.5q-11 -29 -18 -49.5l-11.5 -34.5t-6 -23t-1.5 -16q0 -9 6.5 -14t11.5 -5
q6 0 15.5 8t19 18.5t17.5 20.5t11 15q4 6 9 0l10 -10q4 -4 0 -9q-1 -2 -13.5 -17.5t-32 -34t-45 -33.5t-52.5 -15q-31 0 -31 32q0 9 6.5 30.5t15.5 46.5l18 48.5l14 36.5l-6 3q-15 -22 -41.5 -56.5t-60.5 -66t-73 -53.5t-81 -19z" />
    <glyph glyph-name="trademark" unicode="&#x2122;" horiz-adv-x="835" 
d="M636 425l160 241q5 8 19 8h46.5t29 0.5t15.5 0.5h7q4 0 2 -5l-3 -17q-3 -7 -6 -7h-10q-14 0 -19 -5.5t-7 -13.5q-3 -9 -6.5 -24.5t-8 -33.5t-8.5 -36.5t-8 -34.5q-8 -30 -14 -61.5t-13 -57.5q-2 -11 0.5 -18.5t10.5 -7.5h23q3 0 3 -1t-1 -4l-3 -17q-2 -5 -7 -5h-10
t-18.5 0.5t-21.5 0.5h-18h-18t-22 -0.5t-20 -0.5h-11q-5 0 -3 5l3 16q1 6 7 6h19q11 0 17 5t9 12q4 9 8 24t7.5 32t6.5 34t6 31l36 148h-4l-197 -294q-4 -4 -7.5 -8t-7.5 -4q-8 0 -8 9l-49 299h-5l-30 -134l-15 -57.5t-13 -61.5q-2 -20 3.5 -27.5t19.5 -7.5h13q3 0 2 -6
l-4 -16q-2 -5 -6 -5h-9t-16 0.5t-18.5 0.5h-16.5q-6 0 -16 -0.5t-20 -0.5t-18 -0.5t-9 -0.5q-3 2 -3.5 1.5t-0.5 4.5l4 16q2 6 5 6h12q12 0 22.5 8t15.5 21t11 33l12 42t11 44.5t10 40.5l18 78q3 15 -3 20.5t-18 5.5h-14q-5 0 -3 6l4 17q1 6 6 6q1 0 8.5 -0.5t17 -0.5
t19 -0.5t15.5 -0.5q14 0 26.5 0.5t23.5 1.5q8 1 11.5 -0.5t4.5 -9.5zM258 466q-9 -36 -14 -60.5t-7 -33.5q-1 -9 1 -14t11 -5h25q5 0 4 -5l-5 -18q0 -5 -6 -5q-2 0 -10 0.5t-18.5 0.5t-21.5 0.5t-18 0.5q-8 0 -19.5 -0.5t-23 -0.5t-20.5 -0.5t-11 -0.5q-7 0 -5 5l4 18
q1 5 6 5h27q16 0 19 12q3 10 8.5 33l13.5 55l45 191h-11t-21 -0.5t-24.5 -1.5t-21.5 -4q-17 -6 -31.5 -21t-23.5 -26q-1 -7 -8 -4l-9 4q-3 0 0 3l9 20.5l12 27.5t11 24.5l6 12.5q4 9 7 9t5 -2l6 -5q7 -4 11.5 -5.5t14.5 -2.5l47.5 -2t53.5 -1q28 0 58 1t53 2q9 1 14.5 2
t13.5 4l11 7q2 1 2.5 1.5t2.5 0.5q3 0 3 -9q0 -2 -1.5 -12.5t-3 -24.5l-3 -28t-1.5 -22q0 -4 -4 -6l-8 -1q-6 -1 -7 5q-2 7 -7.5 23t-16.5 23q-6 3 -18.5 5t-25.5 2.5t-23.5 0.5h-13.5z" />
    <glyph glyph-name="plusminus" unicode="&#xb1;" 
d="M460 65v-54h-388v54h388zM237 147v143h-165v54h165v138h59v-138h164v-54h-164v-143h-59z" />
    <glyph glyph-name="divide" unicode="&#xf7;" 
d="M267 32q-24 0 -40 14.5t-16 36.5t16 37.5t40 15.5q23 0 39 -15.5t16 -37.5t-16 -36.5t-39 -14.5zM267 344q-24 0 -40 15t-16 37q0 23 16 37.5t40 14.5q23 0 39 -14.5t16 -37.5q0 -22 -16 -37t-39 -15zM460 267v-54h-388v54h388z" />
    <glyph glyph-name="degree" unicode="&#xb0;" horiz-adv-x="250" 
d="M215 653q-25 0 -41 -17t-16 -40q0 -29 17 -46.5t40 -17.5q24 0 41 17.5t17 46.5q0 23 -16.5 40t-41.5 17zM215 685q48 0 75 -26.5t27 -64.5q0 -18 -7.5 -35t-21 -29.5t-32.5 -20.5t-41 -8q-48 0 -74.5 26t-26.5 67q0 18 7.5 34t21 29t32 20.5t40.5 7.5z" />
    <glyph glyph-name="registered" unicode="&#xae;" horiz-adv-x="540" 
d="M338 654q-38 0 -72 -12.5t-59 -36.5t-39.5 -58t-14.5 -77q0 -53 18 -89t45.5 -58.5t60 -32.5t61.5 -10q51 0 86 17.5t57 44.5t32 60t10 65q0 52 -18.5 88t-46 58t-60 31.5t-60.5 9.5zM338 685q51 0 92.5 -16t71 -44.5t46 -69t16.5 -88.5q0 -46 -15.5 -85.5t-44.5 -69
t-71 -46.5t-95 -17q-54 0 -96 17t-71 46.5t-44 69t-15 85.5t17 86t47 69.5t71.5 46t90.5 16.5zM301 473q3 -1 9 -1h11q22 0 35 7t20 16.5t9.5 19t2.5 14.5q0 11 -5.5 21t-14.5 16q-21 14 -47 14q-4 0 -9.5 -0.5t-10.5 -1.5v-105zM258 507v34t-1 22q0 17 -20 17h-7q-2 0 -2 3
v12q0 3 2 3q1 0 8 -0.5t15 -0.5t15 -0.5t10 -0.5q2 0 11.5 0.5t20 0.5t20 0.5t12.5 0.5q26 0 44.5 -6t29.5 -15t15 -20.5t4 -21.5q0 -17 -6.5 -30t-16 -21.5t-21.5 -13.5t-22 -6v-2q6 -2 9.5 -5.5l5.5 -5.5q1 -2 6 -9l10.5 -14.5t10 -14.5t5.5 -8t5 -6.5l9 -12t10 -12
t8 -7.5q7 -5 13.5 -5.5t14.5 -0.5q4 0 4 -5v-9q0 -2 -3 -2q-2 0 -12 0.5t-18 0.5t-18 -0.5t-21 -0.5q-3 2 -8.5 8.5t-7.5 10.5q-2 2 -5.5 7.5l-7.5 11.5l-8 12.5t-6 9.5q-3 6 -10.5 18.5t-10.5 15.5q-8 8 -15 12.5t-18 4.5h-5t-5 -1v-17v-37t1 -26q0 -5 2.5 -9.5t9.5 -4.5
h16q2 0 2 -3v-10q0 -3 -2 -3h-8.5t-14 0.5t-15.5 0.5h-14q-11 0 -28 -0.5t-20 -0.5t-3 3v11q0 2 2 2h9q9 0 14 3t5 17v91z" />
    <glyph glyph-name="copyright" unicode="&#xa9;" horiz-adv-x="780" 
d="M433 19q81 0 137.5 30t92 76.5t51.5 102.5t16 107q0 84 -29.5 143.5t-74 98t-96.5 56.5t-97 18q-62 0 -116 -23t-94 -65t-63.5 -100t-23.5 -128q0 -86 29 -146.5t73.5 -98t96.5 -54.5t98 -17zM433 685q75 0 139 -25.5t110 -71.5t72 -110.5t26 -142.5q0 -74 -24.5 -137.5
t-70 -111t-109.5 -74.5t-143 -27q-80 0 -144 27.5t-109 74.5t-69.5 111t-24.5 137q0 75 27 139t74 111t110.5 73.5t135.5 26.5zM440 126q-46 0 -85.5 13.5t-65.5 39.5q-32 31 -48 69.5t-16 89.5q0 40 14.5 79t46.5 72q23 23 61.5 40t87.5 17q20 0 38 -4t32.5 -9.5t25 -10.5
l14.5 -7q9 -5 12 0l4 16q1 3 14 3q9 0 10 -9l14 -108q1 -6 -2 -7l-11 -3q-5 -2 -8 2q-6 13 -16 30.5t-27 34.5q-20 19 -46.5 31t-55.5 12q-36 0 -62.5 -15.5t-44 -39.5t-25.5 -53.5t-8 -56.5q0 -13 2.5 -29.5t8.5 -35t16 -37t26 -34.5q26 -28 53.5 -39.5t56.5 -11.5
q52 0 88.5 23.5t57.5 51.5q2 2 8 -3l7 -5q4 -4 -1 -10q-14 -19 -31.5 -36t-39 -30.5t-48 -21.5t-57.5 -8z" />
    <glyph glyph-name="Aacute" unicode="&#xc1;" horiz-adv-x="619" 
d="M565 739q-2 5 3 10l143 111q16 12 34 12q12 0 20.5 -9t10.5 -21.5t-3.5 -24.5t-19.5 -18l-174 -71q-6 -3 -8 1zM483 336l77 264q3 11 -6.5 12.5t-15.5 -5.5l-218 -271h163zM294 301l-140 -176q-16 -20 -28.5 -38t-12.5 -29q0 -24 35 -24h36q9 0 7 -10l-4 -19
q-2 -8 -10 -8t-40 1.5t-91 1.5q-50 0 -77 -1.5t-35 -1.5q-10 0 -9 7l5 22q1 8 7 8h15q32 0 63 20.5t58 52.5l463 553q4 5 9 7t19 3q11 1 25 3t22 4t17.5 5t15.5 3q13 0 10 -10l-147 -555l-6.5 -29.5t-3.5 -28.5t11 -20t26 -8h27q9 0 8 -10l-3 -18q-1 -5 -3 -7t-9 -2
q-9 0 -39 1.5t-81 1.5q-53 0 -79 -1.5t-38 -1.5t-10 10l4 19q2 8 8 8h19q14 0 26 2.5t22.5 10.5t19 24.5t16.5 44.5l50 185h-178z" />
    <glyph glyph-name="Acircumflex" unicode="&#xc2;" horiz-adv-x="619" 
d="M493 730q-5 -2 -7 2l-7 11q-2 2 2 6l139 120q8 6 13 -2l71 -120q3 -5 -2 -8l-10 -9q-4 -3 -11 2l-69 60zM483 336l77 264q3 11 -6.5 12.5t-15.5 -5.5l-218 -271h163zM294 301l-140 -176q-16 -20 -28.5 -38t-12.5 -29q0 -24 35 -24h36q9 0 7 -10l-4 -19q-2 -8 -10 -8
t-40 1.5t-91 1.5q-50 0 -77 -1.5t-35 -1.5q-10 0 -9 7l5 22q1 8 7 8h15q32 0 63 20.5t58 52.5l463 553q4 5 9 7t19 3q11 1 25 3t22 4t17.5 5t15.5 3q13 0 10 -10l-147 -555l-6.5 -29.5t-3.5 -28.5t11 -20t26 -8h27q9 0 8 -10l-3 -18q-1 -5 -3 -7t-9 -2q-9 0 -39 1.5t-81 1.5
q-53 0 -79 -1.5t-38 -1.5t-10 10l4 19q2 8 8 8h19q14 0 26 2.5t22.5 10.5t19 24.5t16.5 44.5l50 185h-178z" />
    <glyph glyph-name="Adieresis" unicode="&#xc4;" horiz-adv-x="619" 
d="M693 748q-8 0 -16.5 2t-16 7t-12.5 14t-5 24q0 5 2 12.5t7.5 14t15.5 11t25 4.5q18 0 31.5 -11.5t13.5 -33.5q0 -20 -13 -32t-32 -12zM515 748q-8 0 -16.5 2t-16 7t-12.5 14t-5 24q0 5 2 12.5t7.5 14t15.5 11t25 4.5q18 0 31.5 -11.5t13.5 -33.5q0 -20 -13 -32t-32 -12z
M483 336l77 264q3 11 -6.5 12.5t-15.5 -5.5l-218 -271h163zM294 301l-140 -176q-16 -20 -28.5 -38t-12.5 -29q0 -24 35 -24h36q9 0 7 -10l-4 -19q-2 -8 -10 -8t-40 1.5t-91 1.5q-50 0 -77 -1.5t-35 -1.5q-10 0 -9 7l5 22q1 8 7 8h15q32 0 63 20.5t58 52.5l463 553q4 5 9 7
t19 3q11 1 25 3t22 4t17.5 5t15.5 3q13 0 10 -10l-147 -555l-6.5 -29.5t-3.5 -28.5t11 -20t26 -8h27q9 0 8 -10l-3 -18q-1 -5 -3 -7t-9 -2q-9 0 -39 1.5t-81 1.5q-53 0 -79 -1.5t-38 -1.5t-10 10l4 19q2 8 8 8h19q14 0 26 2.5t22.5 10.5t19 24.5t16.5 44.5l50 185h-178z" />
    <glyph glyph-name="Agrave" unicode="&#xc0;" horiz-adv-x="619" 
d="M631 727q-2 -2 -7 0l-156 81q-16 8 -20 20t0 23t13 19t20 8q9 0 19.5 -7t18.5 -15l117 -111q5 -3 2 -8zM483 336l77 264q3 11 -6.5 12.5t-15.5 -5.5l-218 -271h163zM294 301l-140 -176q-16 -20 -28.5 -38t-12.5 -29q0 -24 35 -24h36q9 0 7 -10l-4 -19q-2 -8 -10 -8
t-40 1.5t-91 1.5q-50 0 -77 -1.5t-35 -1.5q-10 0 -9 7l5 22q1 8 7 8h15q32 0 63 20.5t58 52.5l463 553q4 5 9 7t19 3q11 1 25 3t22 4t17.5 5t15.5 3q13 0 10 -10l-147 -555l-6.5 -29.5t-3.5 -28.5t11 -20t26 -8h27q9 0 8 -10l-3 -18q-1 -5 -3 -7t-9 -2q-9 0 -39 1.5t-81 1.5
q-53 0 -79 -1.5t-38 -1.5t-10 10l4 19q2 8 8 8h19q14 0 26 2.5t22.5 10.5t19 24.5t16.5 44.5l50 185h-178z" />
    <glyph glyph-name="Aring" unicode="&#xc5;" horiz-adv-x="619" 
d="M609 753q17 0 33.5 12t16.5 40q0 15 -5.5 24.5t-13.5 15.5t-17 8.5t-16 2.5q-17 0 -33 -13.5t-16 -38.5q0 -27 16 -39t35 -12zM605 728q-41 0 -70.5 18.5t-29.5 50.5q0 21 9.5 36.5t24.5 26t34 16t39 5.5q39 0 69.5 -19t30.5 -61q0 -17 -8.5 -30t-23.5 -23t-34.5 -15
t-40.5 -5zM483 336l77 264q3 11 -6.5 12.5t-15.5 -5.5l-218 -271h163zM294 301l-140 -176q-16 -20 -28.5 -38t-12.5 -29q0 -24 35 -24h36q9 0 7 -10l-4 -19q-2 -8 -10 -8t-40 1.5t-91 1.5q-50 0 -77 -1.5t-35 -1.5q-10 0 -9 7l5 22q1 8 7 8h15q32 0 63 20.5t58 52.5l463 553
q4 5 8 7t13 2q16 0 31 1.5t23 3.5q15 2 21 4t12 2q13 0 9 -15l-146 -545l-6.5 -29.5t-3.5 -28.5t11 -20t26 -8h27q9 0 8 -10l-3 -18q-1 -5 -3 -7t-9 -2q-9 0 -39 1.5t-81 1.5q-53 0 -79 -1.5t-38 -1.5t-10 10l4 19q2 8 8 8h19q14 0 26 2.5t22.5 10.5t19 24.5t16.5 44.5
l50 185h-178z" />
    <glyph glyph-name="Atilde" unicode="&#xc3;" horiz-adv-x="619" 
d="M469 755q-3 2 0 10q13 32 37 54.5t46 22.5t38.5 -3.5t36.5 -8.5q16 -3 30.5 -3.5t25.5 -0.5q20 0 32.5 10.5t18.5 21.5q3 7 8 4l15 -8q5 -2 -3 -17q-14 -26 -35 -46t-47 -20q-29 0 -66 8q-21 5 -37.5 6.5t-27.5 1.5q-13 0 -28 -11.5t-23 -25.5q-4 -6 -8 -3zM483 336
l77 264q3 11 -6.5 12.5t-15.5 -5.5l-218 -271h163zM294 301l-140 -176q-16 -20 -28.5 -38t-12.5 -29q0 -24 35 -24h36q9 0 7 -10l-4 -19q-2 -8 -10 -8t-40 1.5t-91 1.5q-50 0 -77 -1.5t-35 -1.5q-10 0 -9 7l5 22q1 8 7 8h15q32 0 63 20.5t58 52.5l463 553q4 5 9 7t19 3
q11 1 25 3t22 4t17.5 5t15.5 3q13 0 10 -10l-147 -555l-6.5 -29.5t-3.5 -28.5t11 -20t26 -8h27q9 0 8 -10l-3 -18q-1 -5 -3 -7t-9 -2q-9 0 -39 1.5t-81 1.5q-53 0 -79 -1.5t-38 -1.5t-10 10l4 19q2 8 8 8h19q14 0 26 2.5t22.5 10.5t19 24.5t16.5 44.5l50 185h-178z" />
    <glyph glyph-name="Ccedilla" unicode="&#xc7;" horiz-adv-x="652" 
d="M545 -17q-3 -7 -9 -5l-18 5q-5 2 -4 6q2 5 3 9.5t1 12.5q0 6 -4.5 11t-11.5 5t-18.5 -4t-25.5 -10q-8 -4 -24 -9t-35.5 -9t-40 -7t-38.5 -3t-34 3l-33 -51q49 -18 49 -62q0 -19 -13.5 -36.5t-33.5 -31t-44.5 -21.5t-46.5 -8q-19 0 -19 15q0 16 12 16q7 0 21.5 3t28 9.5
t24 17.5t10.5 29q0 14 -15.5 25.5t-32.5 16.5l59 85q-38 9 -69.5 29t-54 49.5t-35.5 67t-13 82.5q0 43 9.5 88.5t28.5 90.5t45.5 87.5t61.5 80.5q49 54 112.5 84.5t128.5 30.5q36 0 66 -9t66 -34q10 -7 23 -17.5t27 -10.5q9 0 15 7t11 24q3 9 9 6l13 -3q9 -1 6 -10l-53 -207
q-3 -8 -11 -6l-14 2q-7 1 -6 10q8 37 2.5 74.5t-24 68t-49.5 50t-74 19.5q-61 0 -105 -30t-87 -92q-28 -41 -47 -84t-30.5 -84t-16.5 -78.5t-5 -67.5q0 -54 15.5 -89.5t39 -57.5t50 -31t48.5 -9q31 0 65.5 7t67.5 26t63 53.5t53 90.5q3 7 4.5 8.5t5.5 -0.5l17 -5
q5 -2 5.5 -3.5t-0.5 -5.5z" />
    <glyph glyph-name="Eacute" unicode="&#xc9;" horiz-adv-x="669" 
d="M450 739q-2 5 3 10l143 111q16 12 34 12q12 0 20.5 -9t10.5 -21.5t-3.5 -24.5t-19.5 -18l-174 -71q-6 -3 -8 1zM269 565q7 21 4 34.5t-12 22t-21.5 11.5t-25.5 3h-32q-9 0 -6 11l5 19q2 7 12 7q5 0 13.5 -0.5t24.5 -0.5q16 -1 40 -1.5t60 -0.5h64q57 0 100 0.5t74 1.5
q31 0 50 0.5t27 0.5q11 0 14.5 -3.5t6.5 -15.5l32 -137q1 -5 -6 -9l-11 -4q-4 -2 -5.5 -1.5t-4.5 4.5l-94 121q-5 8 -16 8h-182l-86 -263h96q22 0 39 1.5t31.5 9.5t26 25t22.5 48q2 6 7 5l15 -3q7 -2 6 -8l-54 -199q-1 -7 -7 -6l-16 2q-5 1 -4 8q3 31 -3.5 48t-20.5 25.5
t-36 10t-52 1.5h-60l-97 -307h259q27 0 46 11t34 31l80 101q5 7 12 2l10 -6q3 -2 4 -4.5t-1 -9.5l-51 -145q-4 -11 -8.5 -14t-13.5 -3q-6 0 -36 0.5t-75 1.5q-45 0 -97.5 0.5t-104.5 0.5h-116q-35 0 -57.5 -0.5t-36.5 -0.5q-14 -1 -20.5 -1.5t-9.5 -0.5q-11 0 -8 8l3 21
q3 8 8 8h37q31 0 47.5 15t24.5 41z" />
    <glyph glyph-name="Ecircumflex" unicode="&#xca;" horiz-adv-x="669" 
d="M368 730q-5 -2 -7 2l-7 11q-2 2 2 6l139 120q8 6 13 -2l71 -120q3 -5 -2 -8l-10 -9q-4 -3 -11 2l-69 60zM269 565q7 21 4 34.5t-12 22t-21.5 11.5t-25.5 3h-32q-9 0 -6 11l5 19q2 7 12 7q5 0 13.5 -0.5t24.5 -0.5q16 -1 40 -1.5t60 -0.5h64q57 0 100 0.5t74 1.5
q31 0 50 0.5t27 0.5q11 0 14.5 -3.5t6.5 -15.5l32 -137q1 -5 -6 -9l-11 -4q-4 -2 -5.5 -1.5t-4.5 4.5l-94 121q-5 8 -16 8h-182l-86 -263h96q22 0 39 1.5t31.5 9.5t26 25t22.5 48q2 6 7 5l15 -3q7 -2 6 -8l-54 -199q-1 -7 -7 -6l-16 2q-5 1 -4 8q3 31 -3.5 48t-20.5 25.5
t-36 10t-52 1.5h-60l-97 -307h259q27 0 46 11t34 31l80 101q5 7 12 2l10 -6q3 -2 4 -4.5t-1 -9.5l-51 -145q-4 -11 -8.5 -14t-13.5 -3q-6 0 -36 0.5t-75 1.5q-45 0 -97.5 0.5t-104.5 0.5h-116q-35 0 -57.5 -0.5t-36.5 -0.5q-14 -1 -20.5 -1.5t-9.5 -0.5q-11 0 -8 8l3 21
q3 8 8 8h37q31 0 47.5 15t24.5 41z" />
    <glyph glyph-name="Edieresis" unicode="&#xcb;" horiz-adv-x="669" 
d="M568 748q-8 0 -16.5 2t-16 7t-12.5 14t-5 24q0 5 2 12.5t7.5 14t15.5 11t25 4.5q18 0 31.5 -11.5t13.5 -33.5q0 -20 -13 -32t-32 -12zM390 748q-8 0 -16.5 2t-16 7t-12.5 14t-5 24q0 5 2 12.5t7.5 14t15.5 11t25 4.5q18 0 31.5 -11.5t13.5 -33.5q0 -20 -13 -32t-32 -12z
M269 565q7 21 4 34.5t-12 22t-21.5 11.5t-25.5 3h-32q-9 0 -6 11l5 19q2 7 12 7q5 0 13.5 -0.5t24.5 -0.5q16 -1 40 -1.5t60 -0.5h64q57 0 100 0.5t74 1.5q31 0 50 0.5t27 0.5q11 0 14.5 -3.5t6.5 -15.5l32 -137q1 -5 -6 -9l-11 -4q-4 -2 -5.5 -1.5t-4.5 4.5l-94 121
q-5 8 -16 8h-182l-86 -263h96q22 0 39 1.5t31.5 9.5t26 25t22.5 48q2 6 7 5l15 -3q7 -2 6 -8l-54 -199q-1 -7 -7 -6l-16 2q-5 1 -4 8q3 31 -3.5 48t-20.5 25.5t-36 10t-52 1.5h-60l-97 -307h259q27 0 46 11t34 31l80 101q5 7 12 2l10 -6q3 -2 4 -4.5t-1 -9.5l-51 -145
q-4 -11 -8.5 -14t-13.5 -3q-6 0 -36 0.5t-75 1.5q-45 0 -97.5 0.5t-104.5 0.5h-116q-35 0 -57.5 -0.5t-36.5 -0.5q-14 -1 -20.5 -1.5t-9.5 -0.5q-11 0 -8 8l3 21q3 8 8 8h37q31 0 47.5 15t24.5 41z" />
    <glyph glyph-name="Egrave" unicode="&#xc8;" horiz-adv-x="669" 
d="M526 727q-2 -2 -7 0l-156 81q-16 8 -20 20t0 23t13 19t20 8q9 0 19.5 -7t18.5 -15l117 -111q5 -3 2 -8zM269 565q7 21 4 34.5t-12 22t-21.5 11.5t-25.5 3h-32q-9 0 -6 11l5 19q2 7 12 7q5 0 13.5 -0.5t24.5 -0.5q16 -1 40 -1.5t60 -0.5h64q57 0 100 0.5t74 1.5
q31 0 50 0.5t27 0.5q11 0 14.5 -3.5t6.5 -15.5l32 -137q1 -5 -6 -9l-11 -4q-4 -2 -5.5 -1.5t-4.5 4.5l-94 121q-5 8 -16 8h-182l-86 -263h96q22 0 39 1.5t31.5 9.5t26 25t22.5 48q2 6 7 5l15 -3q7 -2 6 -8l-54 -199q-1 -7 -7 -6l-16 2q-5 1 -4 8q3 31 -3.5 48t-20.5 25.5
t-36 10t-52 1.5h-60l-97 -307h259q27 0 46 11t34 31l80 101q5 7 12 2l10 -6q3 -2 4 -4.5t-1 -9.5l-51 -145q-4 -11 -8.5 -14t-13.5 -3q-6 0 -36 0.5t-75 1.5q-45 0 -97.5 0.5t-104.5 0.5h-116q-35 0 -57.5 -0.5t-36.5 -0.5q-14 -1 -20.5 -1.5t-9.5 -0.5q-11 0 -8 8l3 21
q3 8 8 8h37q31 0 47.5 15t24.5 41z" />
    <glyph glyph-name="Iacute" unicode="&#xcd;" horiz-adv-x="359" 
d="M315 739q-2 5 3 10l143 111q16 12 34 12q12 0 20.5 -9t10.5 -21.5t-3.5 -24.5t-19.5 -18l-174 -71q-6 -3 -8 1zM255 570q10 37 0 51.5t-36 14.5h-46q-10 0 -9 8l5 23q1 6 13 6q9 0 45.5 -1.5t89.5 -1.5q62 0 95 1.5t44 1.5q14 0 11 -10l-5 -19q-1 -4 -3 -6t-8 -2h-19
q-23 0 -38 -2.5t-25 -10t-17 -21.5t-13 -37l-125 -463q-10 -36 2 -52t51 -16h35q8 0 6 -10l-3 -19q-1 -5 -2.5 -6.5t-9.5 -1.5t-43.5 1.5t-101.5 1.5q-61 0 -100.5 -1.5t-47.5 -1.5q-10 0 -8 8l4 19q2 10 9 10h43q22 0 35.5 4t22 13t13.5 23t11 34z" />
    <glyph glyph-name="Icircumflex" unicode="&#xce;" horiz-adv-x="359" 
d="M233 730q-5 -2 -7 2l-7 11q-2 2 2 6l139 120q8 6 13 -2l71 -120q3 -5 -2 -8l-10 -9q-4 -3 -11 2l-69 60zM255 570q10 37 0 51.5t-36 14.5h-46q-10 0 -9 8l5 23q1 6 13 6q9 0 45.5 -1.5t89.5 -1.5q62 0 95 1.5t44 1.5q14 0 11 -10l-5 -19q-1 -4 -3 -6t-8 -2h-19
q-23 0 -38 -2.5t-25 -10t-17 -21.5t-13 -37l-125 -463q-10 -36 2 -52t51 -16h35q8 0 6 -10l-3 -19q-1 -5 -2.5 -6.5t-9.5 -1.5t-43.5 1.5t-101.5 1.5q-61 0 -100.5 -1.5t-47.5 -1.5q-10 0 -8 8l4 19q2 10 9 10h43q22 0 35.5 4t22 13t13.5 23t11 34z" />
    <glyph glyph-name="Idieresis" unicode="&#xcf;" horiz-adv-x="359" 
d="M433 748q-8 0 -16.5 2t-16 7t-12.5 14t-5 24q0 5 2 12.5t7.5 14t15.5 11t25 4.5q18 0 31.5 -11.5t13.5 -33.5q0 -20 -13 -32t-32 -12zM255 748q-8 0 -16.5 2t-16 7t-12.5 14t-5 24q0 5 2 12.5t7.5 14t15.5 11t25 4.5q18 0 31.5 -11.5t13.5 -33.5q0 -20 -13 -32t-32 -12z
M255 570q10 37 0 51.5t-36 14.5h-46q-10 0 -9 8l5 23q1 6 13 6q9 0 45.5 -1.5t89.5 -1.5q62 0 95 1.5t44 1.5q14 0 11 -10l-5 -19q-1 -4 -3 -6t-8 -2h-19q-23 0 -38 -2.5t-25 -10t-17 -21.5t-13 -37l-125 -463q-10 -36 2 -52t51 -16h35q8 0 6 -10l-3 -19q-1 -5 -2.5 -6.5
t-9.5 -1.5t-43.5 1.5t-101.5 1.5q-61 0 -100.5 -1.5t-47.5 -1.5q-10 0 -8 8l4 19q2 10 9 10h43q22 0 35.5 4t22 13t13.5 23t11 34z" />
    <glyph glyph-name="Igrave" unicode="&#xcc;" horiz-adv-x="359" 
d="M371 727q-2 -2 -7 0l-156 81q-16 8 -20 20t0 23t13 19t20 8q9 0 19.5 -7t18.5 -15l117 -111q5 -3 2 -8zM255 570q10 37 0 51.5t-36 14.5h-46q-10 0 -9 8l5 23q1 6 13 6q9 0 45.5 -1.5t89.5 -1.5q62 0 95 1.5t44 1.5q14 0 11 -10l-5 -19q-1 -4 -3 -6t-8 -2h-19
q-23 0 -38 -2.5t-25 -10t-17 -21.5t-13 -37l-125 -463q-10 -36 2 -52t51 -16h35q8 0 6 -10l-3 -19q-1 -5 -2.5 -6.5t-9.5 -1.5t-43.5 1.5t-101.5 1.5q-61 0 -100.5 -1.5t-47.5 -1.5q-10 0 -8 8l4 19q2 10 9 10h43q22 0 35.5 4t22 13t13.5 23t11 34z" />
    <glyph glyph-name="Ntilde" unicode="&#xd1;" horiz-adv-x="746" 
d="M408 755q-3 2 0 10q13 32 37 54.5t46 22.5t38.5 -3.5t36.5 -8.5q16 -3 30.5 -3.5t25.5 -0.5q20 0 32.5 10.5t18.5 21.5q3 7 8 4l15 -8q5 -2 -3 -17q-14 -26 -35 -46t-47 -20q-29 0 -66 8q-21 5 -37.5 6.5t-27.5 1.5q-13 0 -28 -11.5t-23 -25.5q-4 -6 -8 -3zM256 577
q4 12 4.5 22.5t-5.5 18.5t-19.5 13t-37.5 5h-38q-11 0 -8 12l4 15q2 5 3.5 7.5t7.5 2.5q5 0 15.5 -0.5t30.5 -1t50.5 -1t75.5 -0.5q11 0 14 -9t7 -17l215 -480q6 -13 10 -10t15 33l131 391q10 29 1 43.5t-33 14.5h-35q-12 0 -11 11l3 18q2 8 10 8q9 0 34.5 -1.5t79.5 -1.5
q39 0 57 1.5t29 1.5q12 0 9 -13l-3 -16q-1 -8 -9 -8h-25q-19 0 -30.5 -9.5t-24.5 -45.5l-194 -555q-8 -25 -20 -25.5t-21 19.5l-238 531q-5 10 -10 10t-8 -11l-128 -423q-14 -45 -7 -69t41 -24h39q11 0 9 -10l-3 -19q-2 -5 -3.5 -6.5t-8.5 -1.5q-8 0 -39.5 1.5t-86.5 1.5
q-52 0 -78 -1.5t-34 -1.5q-10 0 -8 11l3 18q2 8 9 8h27q37 0 56.5 23.5t37.5 79.5z" />
    <glyph glyph-name="Oacute" unicode="&#xd3;" horiz-adv-x="709" 
d="M460 739q-2 5 3 10l143 111q16 12 34 12q12 0 20.5 -9t10.5 -21.5t-3.5 -24.5t-19.5 -18l-174 -71q-6 -3 -8 1zM337 24q41 0 79 17.5t71.5 47.5t61 71.5t47 88.5t30.5 98.5t11 102.5q0 40 -10.5 75t-31 60.5t-51.5 40.5t-73 15q-46 0 -80.5 -20t-66.5 -52
q-33 -33 -60 -77t-46 -91t-29.5 -93t-10.5 -85q0 -53 14.5 -91t37.5 -62t51 -35t56 -11zM360 -15q-7 0 -25.5 0.5t-43 6.5t-52.5 20t-53 41q-45 45 -64.5 103.5t-19.5 131.5q0 77 28.5 148.5t77 127t112 88.5t132.5 33q57 0 105 -21.5t83 -61t55 -95t20 -122.5
q0 -70 -23.5 -141t-69 -128.5t-111.5 -94t-151 -36.5z" />
    <glyph glyph-name="Ocircumflex" unicode="&#xd4;" horiz-adv-x="709" 
d="M358 730q-5 -2 -7 2l-7 11q-2 2 2 6l139 120q8 6 13 -2l71 -120q3 -5 -2 -8l-10 -9q-4 -3 -11 2l-69 60zM337 24q41 0 79 17.5t71.5 47.5t61 71.5t47 88.5t30.5 98.5t11 102.5q0 40 -10.5 75t-31 60.5t-51.5 40.5t-73 15q-46 0 -80.5 -20t-66.5 -52q-33 -33 -60 -77
t-46 -91t-29.5 -93t-10.5 -85q0 -53 14.5 -91t37.5 -62t51 -35t56 -11zM360 -15q-7 0 -25.5 0.5t-43 6.5t-52.5 20t-53 41q-45 45 -64.5 103.5t-19.5 131.5q0 77 28.5 148.5t77 127t112 88.5t132.5 33q57 0 105 -21.5t83 -61t55 -95t20 -122.5q0 -70 -23.5 -141t-69 -128.5
t-111.5 -94t-151 -36.5z" />
    <glyph glyph-name="Odieresis" unicode="&#xd6;" horiz-adv-x="709" 
d="M568 748q-8 0 -16.5 2t-16 7t-12.5 14t-5 24q0 5 2 12.5t7.5 14t15.5 11t25 4.5q18 0 31.5 -11.5t13.5 -33.5q0 -20 -13 -32t-32 -12zM390 748q-8 0 -16.5 2t-16 7t-12.5 14t-5 24q0 5 2 12.5t7.5 14t15.5 11t25 4.5q18 0 31.5 -11.5t13.5 -33.5q0 -20 -13 -32t-32 -12z
M337 24q41 0 79 17.5t71.5 47.5t61 71.5t47 88.5t30.5 98.5t11 102.5q0 40 -10.5 75t-31 60.5t-51.5 40.5t-73 15q-46 0 -80.5 -20t-66.5 -52q-33 -33 -60 -77t-46 -91t-29.5 -93t-10.5 -85q0 -53 14.5 -91t37.5 -62t51 -35t56 -11zM360 -15q-7 0 -25.5 0.5t-43 6.5
t-52.5 20t-53 41q-45 45 -64.5 103.5t-19.5 131.5q0 77 28.5 148.5t77 127t112 88.5t132.5 33q57 0 105 -21.5t83 -61t55 -95t20 -122.5q0 -70 -23.5 -141t-69 -128.5t-111.5 -94t-151 -36.5z" />
    <glyph glyph-name="Ograve" unicode="&#xd2;" horiz-adv-x="709" 
d="M516 727q-2 -2 -7 0l-156 81q-16 8 -20 20t0 23t13 19t20 8q9 0 19.5 -7t18.5 -15l117 -111q5 -3 2 -8zM337 24q41 0 79 17.5t71.5 47.5t61 71.5t47 88.5t30.5 98.5t11 102.5q0 40 -10.5 75t-31 60.5t-51.5 40.5t-73 15q-46 0 -80.5 -20t-66.5 -52q-33 -33 -60 -77
t-46 -91t-29.5 -93t-10.5 -85q0 -53 14.5 -91t37.5 -62t51 -35t56 -11zM360 -15q-7 0 -25.5 0.5t-43 6.5t-52.5 20t-53 41q-45 45 -64.5 103.5t-19.5 131.5q0 77 28.5 148.5t77 127t112 88.5t132.5 33q57 0 105 -21.5t83 -61t55 -95t20 -122.5q0 -70 -23.5 -141t-69 -128.5
t-111.5 -94t-151 -36.5z" />
    <glyph glyph-name="Otilde" unicode="&#xd5;" horiz-adv-x="709" 
d="M344 755q-3 2 0 10q13 32 37 54.5t46 22.5t38.5 -3.5t36.5 -8.5q16 -3 30.5 -3.5t25.5 -0.5q20 0 32.5 10.5t18.5 21.5q3 7 8 4l15 -8q5 -2 -3 -17q-14 -26 -35 -46t-47 -20q-29 0 -66 8q-21 5 -37.5 6.5t-27.5 1.5q-13 0 -28 -11.5t-23 -25.5q-4 -6 -8 -3zM337 24
q41 0 79 17.5t71.5 47.5t61 71.5t47 88.5t30.5 98.5t11 102.5q0 40 -10.5 75t-31 60.5t-51.5 40.5t-73 15q-46 0 -80.5 -20t-66.5 -52q-33 -33 -60 -77t-46 -91t-29.5 -93t-10.5 -85q0 -53 14.5 -91t37.5 -62t51 -35t56 -11zM360 -15q-7 0 -25.5 0.5t-43 6.5t-52.5 20
t-53 41q-45 45 -64.5 103.5t-19.5 131.5q0 77 28.5 148.5t77 127t112 88.5t132.5 33q57 0 105 -21.5t83 -61t55 -95t20 -122.5q0 -70 -23.5 -141t-69 -128.5t-111.5 -94t-151 -36.5z" />
    <glyph glyph-name="Uacute" unicode="&#xda;" horiz-adv-x="731" 
d="M521 739q-2 5 3 10l143 111q16 12 34 12q12 0 20.5 -9t10.5 -21.5t-3.5 -24.5t-19.5 -18l-174 -71q-6 -3 -8 1zM663 279q-21 -69 -49 -124t-65 -92.5t-83.5 -57.5t-105.5 -20q-50 0 -93 11t-74 34t-48.5 57t-17.5 81q0 16 2.5 34.5t6 36t7 32l5.5 22.5l85 281
q11 34 3.5 48t-31.5 14h-36q-8 0 -7 8l5 21q1 5 3 6.5t10 1.5q9 0 37 -1.5t82 -1.5q61 0 89 1.5t36 1.5q10 0 9 -10l-4 -19q-2 -8 -10 -8h-32q-9 0 -18 -1.5t-17 -7t-15.5 -17t-13.5 -31.5l-82 -267q-2 -8 -7 -25t-10 -37t-8.5 -41t-3.5 -38q0 -47 20 -75t46 -42.5t52.5 -19
t39.5 -4.5q33 0 69.5 14t60.5 36q17 15 32 34t28.5 43.5t26 56t25.5 73.5l88 288q11 36 -1.5 48.5t-35.5 12.5h-38q-11 0 -9 8l3 19q2 5 4 7.5t9 2.5q9 0 38.5 -1.5t83.5 -1.5q44 0 63.5 1.5t27.5 1.5q7 0 8.5 -2.5t0.5 -7.5l-3 -19q-1 -4 -3 -6t-8 -2h-21q-24 0 -37 -13
t-21 -33z" />
    <glyph glyph-name="Ucircumflex" unicode="&#xdb;" horiz-adv-x="731" 
d="M459 730q-5 -2 -7 2l-7 11q-2 2 2 6l139 120q8 6 13 -2l71 -120q3 -5 -2 -8l-10 -9q-4 -3 -11 2l-69 60zM663 279q-21 -69 -49 -124t-65 -92.5t-83.5 -57.5t-105.5 -20q-50 0 -93 11t-74 34t-48.5 57t-17.5 81q0 16 2.5 34.5t6 36t7 32l5.5 22.5l85 281q11 34 3.5 48
t-31.5 14h-36q-8 0 -7 8l5 21q1 5 3 6.5t10 1.5q9 0 37 -1.5t82 -1.5q61 0 89 1.5t36 1.5q10 0 9 -10l-4 -19q-2 -8 -10 -8h-32q-9 0 -18 -1.5t-17 -7t-15.5 -17t-13.5 -31.5l-82 -267q-2 -8 -7 -25t-10 -37t-8.5 -41t-3.5 -38q0 -47 20 -75t46 -42.5t52.5 -19t39.5 -4.5
q33 0 69.5 14t60.5 36q17 15 32 34t28.5 43.5t26 56t25.5 73.5l88 288q11 36 -1.5 48.5t-35.5 12.5h-38q-11 0 -9 8l3 19q2 5 4 7.5t9 2.5q9 0 38.5 -1.5t83.5 -1.5q44 0 63.5 1.5t27.5 1.5q7 0 8.5 -2.5t0.5 -7.5l-3 -19q-1 -4 -3 -6t-8 -2h-21q-24 0 -37 -13t-21 -33z" />
    <glyph glyph-name="Udieresis" unicode="&#xdc;" horiz-adv-x="731" 
d="M659 748q-8 0 -16.5 2t-16 7t-12.5 14t-5 24q0 5 2 12.5t7.5 14t15.5 11t25 4.5q18 0 31.5 -11.5t13.5 -33.5q0 -20 -13 -32t-32 -12zM481 748q-8 0 -16.5 2t-16 7t-12.5 14t-5 24q0 5 2 12.5t7.5 14t15.5 11t25 4.5q18 0 31.5 -11.5t13.5 -33.5q0 -20 -13 -32t-32 -12z
M663 279q-21 -69 -49 -124t-65 -92.5t-83.5 -57.5t-105.5 -20q-50 0 -93 11t-74 34t-48.5 57t-17.5 81q0 16 2.5 34.5t6 36t7 32l5.5 22.5l85 281q11 34 3.5 48t-31.5 14h-36q-8 0 -7 8l5 21q1 5 3 6.5t10 1.5q9 0 37 -1.5t82 -1.5q61 0 89 1.5t36 1.5q10 0 9 -10l-4 -19
q-2 -8 -10 -8h-32q-9 0 -18 -1.5t-17 -7t-15.5 -17t-13.5 -31.5l-82 -267q-2 -8 -7 -25t-10 -37t-8.5 -41t-3.5 -38q0 -47 20 -75t46 -42.5t52.5 -19t39.5 -4.5q33 0 69.5 14t60.5 36q17 15 32 34t28.5 43.5t26 56t25.5 73.5l88 288q11 36 -1.5 48.5t-35.5 12.5h-38
q-11 0 -9 8l3 19q2 5 4 7.5t9 2.5q9 0 38.5 -1.5t83.5 -1.5q44 0 63.5 1.5t27.5 1.5q7 0 8.5 -2.5t0.5 -7.5l-3 -19q-1 -4 -3 -6t-8 -2h-21q-24 0 -37 -13t-21 -33z" />
    <glyph glyph-name="Ugrave" unicode="&#xd9;" horiz-adv-x="731" 
d="M557 727q-2 -2 -7 0l-156 81q-16 8 -20 20t0 23t13 19t20 8q9 0 19.5 -7t18.5 -15l117 -111q5 -3 2 -8zM663 279q-21 -69 -49 -124t-65 -92.5t-83.5 -57.5t-105.5 -20q-50 0 -93 11t-74 34t-48.5 57t-17.5 81q0 16 2.5 34.5t6 36t7 32l5.5 22.5l85 281q11 34 3.5 48
t-31.5 14h-36q-8 0 -7 8l5 21q1 5 3 6.5t10 1.5q9 0 37 -1.5t82 -1.5q61 0 89 1.5t36 1.5q10 0 9 -10l-4 -19q-2 -8 -10 -8h-32q-9 0 -18 -1.5t-17 -7t-15.5 -17t-13.5 -31.5l-82 -267q-2 -8 -7 -25t-10 -37t-8.5 -41t-3.5 -38q0 -47 20 -75t46 -42.5t52.5 -19t39.5 -4.5
q33 0 69.5 14t60.5 36q17 15 32 34t28.5 43.5t26 56t25.5 73.5l88 288q11 36 -1.5 48.5t-35.5 12.5h-38q-11 0 -9 8l3 19q2 5 4 7.5t9 2.5q9 0 38.5 -1.5t83.5 -1.5q44 0 63.5 1.5t27.5 1.5q7 0 8.5 -2.5t0.5 -7.5l-3 -19q-1 -4 -3 -6t-8 -2h-21q-24 0 -37 -13t-21 -33z" />
    <glyph glyph-name="Ydieresis" unicode="&#x178;" horiz-adv-x="540" 
d="M504 748q-8 0 -16.5 2t-16 7t-12.5 14t-5 24q0 5 2 12.5t7.5 14t15.5 11t25 4.5q18 0 31.5 -11.5t13.5 -33.5q0 -20 -13 -32t-32 -12zM326 748q-8 0 -16.5 2t-16 7t-12.5 14t-5 24q0 5 2 12.5t7.5 14t15.5 11t25 4.5q18 0 31.5 -11.5t13.5 -33.5q0 -20 -13 -32t-32 -12z
M250 235q2 11 -0.5 29t-4.5 25l-108 309q-6 17 -20.5 27.5t-40.5 10.5h-23q-8 0 -7 8l4 21q1 8 10 8q10 0 32.5 -1.5t72.5 -1.5q57 0 85 1.5t38 1.5t9 -8l-2 -21q-1 -8 -9 -8h-26q-14 0 -22 -4.5t-11 -11t-2.5 -15t3.5 -17.5l93 -278q5 -17 15 -4l20.5 28.5l35 49.5l41 59.5
l40 59.5t31.5 49.5t16 29.5q10 29 1.5 41.5t-38.5 12.5h-20q-9 0 -7 10l2 19q1 8 12 8t39 -1.5t71 -1.5q42 0 65 1.5t33 1.5q12 0 10 -8l-3 -19q-1 -10 -8 -10h-19q-26 0 -42 -12t-36 -37q-4 -5 -20 -27l-38 -53l-47.5 -66.5l-47.5 -67l-38 -54t-20 -27.5l-14.5 -21
t-11 -18.5t-8.5 -21t-8 -28.5l-25 -113q-8 -38 3 -47t36 -9h30q9 0 7 -8l-3 -21q-1 -4 -3 -6t-8 -2q-11 0 -38 1.5t-83 1.5q-62 0 -89.5 -1.5t-35.5 -1.5q-9 0 -8 8l4 21q0 8 9 8h29q35 0 47.5 15t17.5 38z" />
    <glyph glyph-name="aacute" unicode="&#xe1;" horiz-adv-x="455" 
d="M312 477q-2 2 4 8l126 103q16 15 35 15q10 0 17.5 -7.5t9 -18t-4 -22t-21.5 -18.5l-151 -71q-6 -3 -8 1zM134 43q12 0 30.5 12t38.5 31t40.5 42.5l38 45.5t30.5 40.5t17 27.5q11 22 17.5 41.5t6.5 41.5q0 10 -2 20.5t-7.5 19t-14.5 14t-23 5.5q-35 0 -70 -34.5t-64 -83
t-47 -100.5t-18 -88q0 -35 27 -35zM455 416q3 0 4 -3t-1 -6q-7 -15 -19 -45.5l-24 -61.5t-21 -56.5l-11 -31.5l-10 -29l-16.5 -49l-15 -47.5t-6.5 -24.5q0 -12 11 -12q4 0 15 8.5t22 19t20.5 20.5l12.5 13q6 6 8 2l9 -10q4 -4 2 -8q-4 -8 -21 -25t-39.5 -35t-48 -31.5
t-46.5 -13.5q-9 0 -15 3.5t-6 13.5q0 6 2 15.5t7.5 26.5t15 43.5l23.5 66.5l-5 2q-16 -24 -41.5 -53.5t-55 -56t-60 -44t-57.5 -17.5q-9 0 -18.5 3.5t-17.5 11.5t-13 20t-5 29q0 36 12.5 77.5t34.5 81.5t50.5 77t60 65t65 44.5t63.5 16.5q32 0 47.5 -11t23.5 -23l19 27
q5 7 10 7h35z" />
    <glyph glyph-name="acircumflex" unicode="&#xe2;" horiz-adv-x="455" 
d="M352 538l-100 -65q-5 -2 -7 1l-6 9q-2 2 3 7l125 128q7 5 10 -4l45 -130q3 -5 -1 -8l-8 -4q-5 -3 -8 0zM134 43q12 0 30.5 12t38.5 31t40.5 42.5l38 45.5t30.5 40.5t17 27.5q11 22 17.5 41.5t6.5 41.5q0 10 -2 20.5t-7.5 19t-14.5 14t-23 5.5q-35 0 -70 -34.5t-64 -83
t-47 -100.5t-18 -88q0 -35 27 -35zM455 416q3 0 4 -3t-1 -6q-7 -15 -19 -45.5l-24 -61.5t-21 -56.5l-11 -31.5l-10 -29l-16.5 -49l-15 -47.5t-6.5 -24.5q0 -12 11 -12q4 0 15 8.5t22 19t20.5 20.5l12.5 13q6 6 8 2l9 -10q4 -4 2 -8q-4 -8 -21 -25t-39.5 -35t-48 -31.5
t-46.5 -13.5q-9 0 -15 3.5t-6 13.5q0 6 2 15.5t7.5 26.5t15 43.5l23.5 66.5l-5 2q-16 -24 -41.5 -53.5t-55 -56t-60 -44t-57.5 -17.5q-9 0 -18.5 3.5t-17.5 11.5t-13 20t-5 29q0 36 12.5 77.5t34.5 81.5t50.5 77t60 65t65 44.5t63.5 16.5q32 0 47.5 -11t23.5 -23l19 27
q5 7 10 7h35z" />
    <glyph glyph-name="adieresis" unicode="&#xe4;" horiz-adv-x="455" 
d="M422 550q-14 0 -30 8.5t-16 34.5q0 5 2 11.5t7 12.5t14 10.5t23 4.5q17 0 29 -11t12 -31q0 -19 -12 -29.5t-29 -10.5zM286 550q-14 0 -30 8.5t-16 34.5q0 5 2 11.5t7 12.5t14 10.5t23 4.5q17 0 29 -11t12 -31q0 -19 -12 -29.5t-29 -10.5zM134 43q12 0 30.5 12t38.5 31
t40.5 42.5l38 45.5t30.5 40.5t17 27.5q11 22 17.5 41.5t6.5 41.5q0 10 -2 20.5t-7.5 19t-14.5 14t-23 5.5q-35 0 -70 -34.5t-64 -83t-47 -100.5t-18 -88q0 -35 27 -35zM420 416h35q3 0 4 -3t-1 -6q-7 -15 -19 -45.5l-24 -61.5t-21 -56.5l-11 -31.5l-10 -29l-16.5 -49
l-15 -47.5t-6.5 -24.5q0 -12 11 -12q4 0 15 8.5t22 19t20.5 20.5l12.5 13q6 6 8 2l9 -10q4 -4 2 -8q-4 -8 -21 -25t-39.5 -35t-48 -31.5t-46.5 -13.5q-9 0 -15 3.5t-6 13.5q0 6 2 15.5t7.5 26.5t15 43.5l23.5 66.5l-5 2q-16 -24 -41.5 -53.5t-55 -56t-60 -44t-57.5 -17.5
q-9 0 -18.5 3.5t-17.5 11.5t-13 20t-5 29q0 36 12.5 77.5t34.5 81.5t50.5 77t60 65t65 44.5t63.5 16.5q32 0 47.5 -11t23.5 -23l19 27q5 7 10 7z" />
    <glyph glyph-name="agrave" unicode="&#xe0;" horiz-adv-x="455" 
d="M358 467q-4 -5 -9 0l-120 91q-10 8 -12.5 18.5t0.5 19.5t11 15.5t18 6.5q13 0 20 -6.5t15 -17.5l84 -111q4 -4 0 -8zM134 43q12 0 30.5 12t38.5 31t40.5 42.5l38 45.5t30.5 40.5t17 27.5q11 22 17.5 41.5t6.5 41.5q0 10 -2 20.5t-7.5 19t-14.5 14t-23 5.5
q-35 0 -70 -34.5t-64 -83t-47 -100.5t-18 -88q0 -35 27 -35zM455 416q3 0 4 -3t-1 -6q-7 -15 -19 -45.5l-24 -61.5t-21 -56.5l-11 -31.5l-10 -29l-16.5 -49l-15 -47.5t-6.5 -24.5q0 -12 11 -12q4 0 15 8.5t22 19t20.5 20.5l12.5 13q6 6 8 2l9 -10q4 -4 2 -8q-4 -8 -21 -25
t-39.5 -35t-48 -31.5t-46.5 -13.5q-9 0 -15 3.5t-6 13.5q0 6 2 15.5t7.5 26.5t15 43.5l23.5 66.5l-5 2q-16 -24 -41.5 -53.5t-55 -56t-60 -44t-57.5 -17.5q-9 0 -18.5 3.5t-17.5 11.5t-13 20t-5 29q0 36 12.5 77.5t34.5 81.5t50.5 77t60 65t65 44.5t63.5 16.5q32 0 47.5 -11
t23.5 -23l19 27q5 7 10 7h35z" />
    <glyph glyph-name="aring" unicode="&#xe5;" horiz-adv-x="455" 
d="M347 503q17 0 32 12.5t15 38.5q0 14 -5 23.5t-12.5 15.5t-16 8.5t-15.5 2.5q-17 0 -33 -12.5t-16 -39.5q0 -24 16 -36.5t35 -12.5zM343 480q-41 0 -68 18.5t-27 50.5q0 19 8.5 34t23 25t32.5 15t38 5q39 0 65.5 -18.5t26.5 -56.5q0 -33 -28 -53t-71 -20zM134 43
q12 0 30.5 12t38.5 31t40.5 42.5l38 45.5t30.5 40.5t17 27.5q11 22 17.5 41.5t6.5 41.5q0 10 -2 20.5t-7.5 19t-14.5 14t-23 5.5q-35 0 -70 -34.5t-64 -83t-47 -100.5t-18 -88q0 -35 27 -35zM455 416q3 0 4 -3t-1 -6q-7 -15 -19 -45.5l-24 -61.5t-21 -56.5l-11 -31.5
l-10 -29l-16.5 -49l-15 -47.5t-6.5 -24.5q0 -12 11 -12q4 0 15 8.5t22 19t20.5 20.5l12.5 13q6 6 8 2l9 -10q4 -4 2 -8q-4 -8 -21 -25t-39.5 -35t-48 -31.5t-46.5 -13.5q-9 0 -15 3.5t-6 13.5q0 6 2 15.5t7.5 26.5t15 43.5l23.5 66.5l-5 2q-16 -24 -41.5 -53.5t-55 -56
t-60 -44t-57.5 -17.5q-9 0 -18.5 3.5t-17.5 11.5t-13 20t-5 29q0 36 12.5 77.5t34.5 81.5t50.5 77t60 65t65 44.5t63.5 16.5q32 0 47.5 -11t23.5 -23l19 27q5 7 10 7h35z" />
    <glyph glyph-name="atilde" unicode="&#xe3;" horiz-adv-x="455" 
d="M217 485q-3 3 1 10q11 28 34 50t49 22q13 0 24.5 -2.5t25.5 -7.5q8 -2 18.5 -4t27.5 -2q16 0 27.5 10.5t17.5 21.5q3 7 8 4l15 -8q3 -2 2 -5.5t-6 -11.5q-13 -23 -34.5 -41.5t-41.5 -18.5q-16 0 -29.5 3t-27.5 7q-11 3 -19.5 4.5t-19.5 1.5q-13 0 -28.5 -12t-23.5 -26
q-4 -5 -7 -3zM134 43q12 0 30.5 12t38.5 31t40.5 42.5l38 45.5t30.5 40.5t17 27.5q11 22 17.5 41.5t6.5 41.5q0 10 -2 20.5t-7.5 19t-14.5 14t-23 5.5q-35 0 -70 -34.5t-64 -83t-47 -100.5t-18 -88q0 -35 27 -35zM455 416q3 0 4 -3t-1 -6q-7 -15 -19 -45.5l-24 -61.5
t-21 -56.5l-11 -31.5l-10 -29l-16.5 -49l-15 -47.5t-6.5 -24.5q0 -12 11 -12q4 0 15 8.5t22 19t20.5 20.5l12.5 13q6 6 8 2l9 -10q4 -4 2 -8q-4 -8 -21 -25t-39.5 -35t-48 -31.5t-46.5 -13.5q-9 0 -15 3.5t-6 13.5q0 6 2 15.5t7.5 26.5t15 43.5l23.5 66.5l-5 2
q-16 -24 -41.5 -53.5t-55 -56t-60 -44t-57.5 -17.5q-9 0 -18.5 3.5t-17.5 11.5t-13 20t-5 29q0 36 12.5 77.5t34.5 81.5t50.5 77t60 65t65 44.5t63.5 16.5q32 0 47.5 -11t23.5 -23l19 27q5 7 10 7h35z" />
    <glyph glyph-name="ccedilla" unicode="&#xe7;" horiz-adv-x="302" 
d="M100 -7q-22 5 -39.5 26t-17.5 63q0 51 19 109.5t51 108.5t72.5 83t84.5 33q18 0 29 -6t17 -15t8.5 -18.5t2.5 -16.5q0 -18 -13.5 -30t-27.5 -12q-20 0 -26 22q-2 8 -10.5 17t-20.5 9q-39 0 -73 -69q-10 -22 -18 -47.5t-13.5 -50t-8.5 -45t-3 -32.5q0 -27 3.5 -43.5
t9.5 -25.5t13 -11.5t14 -2.5q15 0 29 6.5t25.5 15.5t20.5 18t13 14q5 7 9 4l11 -10q6 -4 1 -11t-17 -19.5t-29 -25.5t-37.5 -24t-41.5 -15l-42 -59q19 -9 30 -23t11 -35q0 -20 -16 -35.5t-37 -26.5t-42.5 -17t-32.5 -6t-15 5t-4 13q0 16 18 16q28 0 51 14.5t23 32.5
q0 12 -10 23.5t-28 18.5z" />
    <glyph glyph-name="eacute" unicode="&#xe9;" horiz-adv-x="349" 
d="M259 477q-2 2 4 8l126 103q16 15 35 15q10 0 17.5 -7.5t9 -18t-4 -22t-21.5 -18.5l-151 -71q-6 -3 -8 1zM267 372q-24 0 -47 -18.5t-41 -43.5t-30.5 -50.5t-15.5 -38.5q13 -1 40.5 6t55.5 21.5t49 36t21 49.5q0 15 -7.5 26.5t-24.5 11.5zM137 -10q-49 0 -71 24t-22 74
q0 31 9.5 66t27 69t41 66.5t50.5 59.5q12 12 27.5 24t33.5 21.5t36.5 15.5t36.5 6q29 0 43 -17.5t14 -35.5q0 -37 -25.5 -72.5t-67.5 -57.5q-41 -20 -79 -29.5t-66 -11.5q-4 -9 -8.5 -33t-4.5 -59q0 -17 5.5 -29t13.5 -19.5t17 -11t16 -3.5q18 0 35.5 6.5t32 16.5t26.5 22.5
t20 25.5q4 6 9 1l11 -9q7 -4 1 -9q-9 -13 -25 -30.5t-36.5 -33t-46 -26.5t-54.5 -11z" />
    <glyph glyph-name="ecircumflex" unicode="&#xea;" horiz-adv-x="349" 
d="M319 538l-100 -65q-5 -2 -7 1l-6 9q-2 2 3 7l125 128q7 5 10 -4l45 -130q3 -5 -1 -8l-8 -4q-5 -3 -8 0zM267 372q-24 0 -47 -18.5t-41 -43.5t-30.5 -50.5t-15.5 -38.5q13 -1 40.5 6t55.5 21.5t49 36t21 49.5q0 15 -7.5 26.5t-24.5 11.5zM137 -10q-49 0 -71 24t-22 74
q0 31 9.5 66t27 69t41 66.5t50.5 59.5q12 12 27.5 24t33.5 21.5t36.5 15.5t36.5 6q29 0 43 -17.5t14 -35.5q0 -37 -25.5 -72.5t-67.5 -57.5q-41 -20 -79 -29.5t-66 -11.5q-4 -9 -8.5 -33t-4.5 -59q0 -17 5.5 -29t13.5 -19.5t17 -11t16 -3.5q18 0 35.5 6.5t32 16.5t26.5 22.5
t20 25.5q4 6 9 1l11 -9q7 -4 1 -9q-9 -13 -25 -30.5t-36.5 -33t-46 -26.5t-54.5 -11z" />
    <glyph glyph-name="edieresis" unicode="&#xeb;" horiz-adv-x="349" 
d="M389 550q-14 0 -30 8.5t-16 34.5q0 5 2 11.5t7 12.5t14 10.5t23 4.5q17 0 29 -11t12 -31q0 -19 -12 -29.5t-29 -10.5zM253 550q-14 0 -30 8.5t-16 34.5q0 5 2 11.5t7 12.5t14 10.5t23 4.5q17 0 29 -11t12 -31q0 -19 -12 -29.5t-29 -10.5zM267 372q-24 0 -47 -18.5
t-41 -43.5t-30.5 -50.5t-15.5 -38.5q13 -1 40.5 6t55.5 21.5t49 36t21 49.5q0 15 -7.5 26.5t-24.5 11.5zM137 -10q-49 0 -71 24t-22 74q0 31 9.5 66t27 69t41 66.5t50.5 59.5q12 12 27.5 24t33.5 21.5t36.5 15.5t36.5 6q29 0 43 -17.5t14 -35.5q0 -37 -25.5 -72.5
t-67.5 -57.5q-41 -20 -79 -29.5t-66 -11.5q-4 -9 -8.5 -33t-4.5 -59q0 -17 5.5 -29t13.5 -19.5t17 -11t16 -3.5q18 0 35.5 6.5t32 16.5t26.5 22.5t20 25.5q4 6 9 1l11 -9q7 -4 1 -9q-9 -13 -25 -30.5t-36.5 -33t-46 -26.5t-54.5 -11z" />
    <glyph glyph-name="egrave" unicode="&#xe8;" horiz-adv-x="349" 
d="M325 467q-4 -5 -9 0l-120 91q-10 8 -12.5 18.5t0.5 19.5t11 15.5t18 6.5q13 0 20 -6.5t15 -17.5l84 -111q4 -4 0 -8zM267 372q-24 0 -47 -18.5t-41 -43.5t-30.5 -50.5t-15.5 -38.5q13 -1 40.5 6t55.5 21.5t49 36t21 49.5q0 15 -7.5 26.5t-24.5 11.5zM137 -10
q-49 0 -71 24t-22 74q0 31 9.5 66t27 69t41 66.5t50.5 59.5q12 12 27.5 24t33.5 21.5t36.5 15.5t36.5 6q29 0 43 -17.5t14 -35.5q0 -37 -25.5 -72.5t-67.5 -57.5q-41 -20 -79 -29.5t-66 -11.5q-4 -9 -8.5 -33t-4.5 -59q0 -17 5.5 -29t13.5 -19.5t17 -11t16 -3.5
q18 0 35.5 6.5t32 16.5t26.5 22.5t20 25.5q4 6 9 1l11 -9q7 -4 1 -9q-9 -13 -25 -30.5t-36.5 -33t-46 -26.5t-54.5 -11z" />
    <glyph glyph-name="iacute" unicode="&#xed;" horiz-adv-x="287" 
d="M208 477q-2 2 4 8l126 103q16 15 35 15q10 0 17.5 -7.5t9 -18t-4 -22t-21.5 -18.5l-151 -71q-6 -3 -8 1zM92 -10q-17 2 -17 25q0 9 3.5 22.5t10.5 34.5t18.5 51.5l26.5 72.5l29 78q8 20 13 35t5 24q0 13 -14 13q-6 0 -17 -8.5t-23 -20.5l-23 -23.5l-17 -17.5t-11 -1l-8 9
q-6 5 -3 9q1 1 9.5 11t22 24t31 30t36 29t37 21.5t34.5 7.5q9 0 16.5 -6t7.5 -19q0 -14 -10 -44.5t-24 -66.5l-58 -152q-10 -28 -14 -44.5t-4 -21.5q0 -14 11 -17q8 1 20.5 11t25.5 22t22.5 23t11.5 14q4 5 11 -2l8 -7q3 -4 3.5 -6t-1.5 -6q-2 -3 -17 -19.5t-38.5 -35.5
t-53 -34t-60.5 -15z" />
    <glyph glyph-name="icircumflex" unicode="&#xee;" horiz-adv-x="287" 
d="M258 538l-100 -65q-5 -2 -7 1l-6 9q-2 2 3 7l125 128q7 5 10 -4l45 -130q3 -5 -1 -8l-8 -4q-5 -3 -8 0zM92 -10q-17 2 -17 25q0 9 3.5 22.5t10.5 34.5t18.5 51.5l26.5 72.5l29 78q8 20 13 35t5 24q0 13 -14 13q-6 0 -17 -8.5t-23 -20.5l-23 -23.5l-17 -17.5t-11 -1l-8 9
q-6 5 -3 9q1 1 9.5 11t22 24t31 30t36 29t37 21.5t34.5 7.5q9 0 16.5 -6t7.5 -19q0 -14 -10 -44.5t-24 -66.5l-58 -152q-10 -28 -14 -44.5t-4 -21.5q0 -14 11 -17q8 1 20.5 11t25.5 22t22.5 23t11.5 14q4 5 11 -2l8 -7q3 -4 3.5 -6t-1.5 -6q-2 -3 -17 -19.5t-38.5 -35.5
t-53 -34t-60.5 -15z" />
    <glyph glyph-name="idieresis" unicode="&#xef;" horiz-adv-x="287" 
d="M328 550q-14 0 -30 8.5t-16 34.5q0 5 2 11.5t7 12.5t14 10.5t23 4.5q17 0 29 -11t12 -31q0 -19 -12 -29.5t-29 -10.5zM192 550q-14 0 -30 8.5t-16 34.5q0 5 2 11.5t7 12.5t14 10.5t23 4.5q17 0 29 -11t12 -31q0 -19 -12 -29.5t-29 -10.5zM92 -10q-17 2 -17 25
q0 9 3.5 22.5t10.5 34.5l18 51.5l27 72.5l29 78q8 20 13 35t5 24q0 13 -14 13q-6 0 -17 -8.5t-23 -20.5l-23 -23.5l-17 -17.5t-11 -1l-8 9q-6 5 -3 9q1 1 9.5 11t22 24t31 30t36 29t37 21.5t34.5 7.5q9 0 16.5 -6t7.5 -19q0 -14 -10 -44.5t-24 -66.5l-58 -152
q-11 -28 -14.5 -44.5t-3.5 -21.5q0 -14 11 -17q8 1 20.5 11t25.5 22t22.5 23t11.5 14q4 5 11 -2l8 -7q3 -4 3.5 -6t-1.5 -6q-2 -3 -17 -19.5t-38.5 -35.5t-53 -34t-60.5 -15z" />
    <glyph glyph-name="igrave" unicode="&#xec;" horiz-adv-x="287" 
d="M254 467q-4 -5 -9 0l-120 91q-10 8 -12.5 18.5t0.5 19.5t11 15.5t18 6.5q13 0 20 -6.5t15 -17.5l84 -111q4 -4 0 -8zM92 -10q-17 2 -17 25q0 9 3.5 22.5t10.5 34.5t18.5 51.5l26.5 72.5l29 78q8 20 13 35t5 24q0 13 -14 13q-6 0 -17 -8.5t-23 -20.5l-23 -23.5l-17 -17.5
t-11 -1l-8 9q-6 5 -3 9q1 1 9.5 11t22 24t31 30t36 29t37 21.5t34.5 7.5q9 0 16.5 -6t7.5 -19q0 -14 -10 -44.5t-24 -66.5l-58 -152q-10 -28 -14 -44.5t-4 -21.5q0 -14 11 -17q8 1 20.5 11t25.5 22t22.5 23t11.5 14q4 5 11 -2l8 -7q3 -4 3.5 -6t-1.5 -6q-2 -3 -17 -19.5
t-38.5 -35.5t-53 -34t-60.5 -15z" />
    <glyph glyph-name="ntilde" unicode="&#xf1;" horiz-adv-x="519" 
d="M259 485q-3 3 1 10q11 28 34 50t49 22q13 0 24.5 -2.5t25.5 -7.5q8 -2 18.5 -4t27.5 -2q16 0 27.5 10.5t17.5 21.5q3 7 8 4l15 -8q3 -2 2 -5.5t-6 -11.5q-13 -23 -34.5 -41.5t-41.5 -18.5q-16 0 -29.5 3t-27.5 7q-11 3 -19.5 4.5t-19.5 1.5q-13 0 -28.5 -12t-23.5 -26
q-4 -5 -7 -3zM72 0q-14 0 -11 9l71 185l18 47l16.5 45t12.5 37t5 22q0 17 -15 17q-7 0 -18.5 -8t-24 -18.5t-24 -22t-17.5 -18.5q-5 -5 -10 1l-9 9q-5 5 -2 10q6 7 21.5 23.5t37.5 33.5t48.5 30.5t53.5 13.5q17 0 24.5 -10t7.5 -20q0 -12 -7 -33.5t-15.5 -44t-17 -42.5
t-11.5 -29l4 -2q11 18 35.5 48.5t56 60t67.5 51t69 21.5q23 0 36.5 -10.5t13.5 -30.5q0 -33 -15.5 -74.5t-40.5 -102.5l-35.5 -88t-15.5 -50q0 -5 3 -9t9 -4t16 6t21 14t20.5 17l14.5 14q6 5 11 -2l7 -8q5 -5 1 -11q-5 -6 -21 -20.5t-38.5 -29t-49 -26t-51.5 -11.5
q-10 0 -17 4.5t-7 15.5q0 7 6 24.5t16 42.5l21.5 55l23.5 62q5 15 13.5 36l16.5 42.5t14 39.5t6 26q0 23 -25 23q-15 0 -39 -15.5t-50 -39.5t-51.5 -52.5t-41.5 -55.5l-13.5 -22t-13.5 -25t-15 -33t-18 -45l-25 -67q-2 -3 -4 -4.5t-10 -1.5h-39z" />
    <glyph glyph-name="oacute" unicode="&#xf3;" horiz-adv-x="397" 
d="M263 477q-2 2 4 8l126 103q16 15 35 15q10 0 17.5 -7.5t9 -18t-4 -22t-21.5 -18.5l-151 -71q-6 -3 -8 1zM140 38q26 0 51.5 16t48.5 41t42.5 56t34 62t22.5 57.5t8 43.5q1 23 -12 39.5t-38 16.5q-32 0 -69.5 -29t-75.5 -90q-26 -41 -42 -84t-16 -78q0 -24 14 -37.5
t32 -13.5zM155 -10q-21 0 -39.5 9.5t-32.5 26.5t-22.5 40.5t-8.5 52.5q0 47 17 99.5t47 96.5t72 72.5t92 28.5q51 0 79 -33t28 -84q0 -28 -7 -61.5t-21 -67.5t-34 -66.5t-45.5 -57.5t-57 -40.5t-67.5 -15.5z" />
    <glyph glyph-name="ocircumflex" unicode="&#xf4;" horiz-adv-x="397" 
d="M313 538l-100 -65q-5 -2 -7 1l-6 9q-2 2 3 7l125 128q7 5 10 -4l45 -130q3 -5 -1 -8l-8 -4q-5 -3 -8 0zM140 38q26 0 51.5 16t48.5 41t42.5 56t34 62t22.5 57.5t8 43.5q1 23 -12 39.5t-38 16.5q-32 0 -69.5 -29t-75.5 -90q-26 -41 -42 -84t-16 -78q0 -24 14 -37.5
t32 -13.5zM155 -10q-21 0 -39.5 9.5t-32.5 26.5t-22.5 40.5t-8.5 52.5q0 47 17 99.5t47 96.5t72 72.5t92 28.5q51 0 79 -33t28 -84q0 -28 -7 -61.5t-21 -67.5t-34 -66.5t-45.5 -57.5t-57 -40.5t-67.5 -15.5z" />
    <glyph glyph-name="odieresis" unicode="&#xf6;" horiz-adv-x="397" 
d="M393 550q-14 0 -30 8.5t-16 34.5q0 5 2 11.5t7 12.5t14 10.5t23 4.5q17 0 29 -11t12 -31q0 -19 -12 -29.5t-29 -10.5zM257 550q-14 0 -30 8.5t-16 34.5q0 5 2 11.5t7 12.5t14 10.5t23 4.5q17 0 29 -11t12 -31q0 -19 -12 -29.5t-29 -10.5zM140 38q26 0 51.5 16t48.5 41
t42.5 56t33.5 62t22.5 57.5t8.5 43.5q0 23 -12.5 39.5t-37.5 16.5q-32 0 -69.5 -29t-75.5 -90q-26 -41 -42 -84t-16 -78q0 -24 14 -37.5t32 -13.5zM155 -10q-21 0 -39.5 9.5t-32.5 26.5t-22.5 40.5t-8.5 52.5q0 47 17 99.5t47 96.5t72 72.5t92 28.5q51 0 79 -33t28 -84
q0 -28 -7 -61.5t-21 -67.5t-34 -66.5t-45.5 -57.5t-57 -40.5t-67.5 -15.5z" />
    <glyph glyph-name="ograve" unicode="&#xf2;" horiz-adv-x="397" 
d="M319 467q-4 -5 -9 0l-120 91q-10 8 -12.5 18.5t0.5 19.5t11 15.5t18 6.5q13 0 20 -6.5t15 -17.5l84 -111q4 -4 0 -8zM140 38q26 0 51.5 16t48.5 41t42.5 56t34 62t22.5 57.5t8 43.5q1 23 -12 39.5t-38 16.5q-32 0 -69.5 -29t-75.5 -90q-26 -41 -42 -84t-16 -78
q0 -24 14 -37.5t32 -13.5zM155 -10q-21 0 -39.5 9.5t-32.5 26.5t-22.5 40.5t-8.5 52.5q0 47 17 99.5t47 96.5t72 72.5t92 28.5q51 0 79 -33t28 -84q0 -28 -7 -61.5t-21 -67.5t-34 -66.5t-45.5 -57.5t-57 -40.5t-67.5 -15.5z" />
    <glyph glyph-name="otilde" unicode="&#xf5;" horiz-adv-x="397" 
d="M168 485q-3 3 1 10q11 28 34 50t49 22q13 0 24.5 -2.5t25.5 -7.5q8 -2 18.5 -4t27.5 -2q16 0 27.5 10.5t17.5 21.5q3 7 8 4l15 -8q3 -2 2 -5.5t-6 -11.5q-13 -23 -34.5 -41.5t-41.5 -18.5q-16 0 -29.5 3t-27.5 7q-11 3 -19.5 4.5t-19.5 1.5q-13 0 -28.5 -12t-23.5 -26
q-4 -5 -7 -3zM140 38q26 0 51.5 16t48.5 41t42.5 56t34 62t22.5 57.5t8 43.5q1 23 -12 39.5t-38 16.5q-32 0 -69.5 -29t-75.5 -90q-26 -41 -42 -84t-16 -78q0 -24 14 -37.5t32 -13.5zM155 -10q-21 0 -39.5 9.5t-32.5 26.5t-22.5 40.5t-8.5 52.5q0 47 17 99.5t47 96.5
t72 72.5t92 28.5q51 0 79 -33t28 -84q0 -28 -7 -61.5t-21 -67.5t-34 -66.5t-45.5 -57.5t-57 -40.5t-67.5 -15.5z" />
    <glyph glyph-name="uacute" unicode="&#xfa;" horiz-adv-x="484" 
d="M327 477q-2 2 4 8l126 103q16 15 35 15q10 0 17.5 -7.5t9 -18t-4 -22t-21.5 -18.5l-151 -71q-6 -3 -8 1zM475 406q12 0 9 -9l-77 -208q-22 -59 -32 -92t-10 -38q0 -7 1.5 -8.5t6.5 -3.5q6 0 17.5 8t24 18.5t23 20.5t13.5 15q4 6 9 0l10 -10q4 -4 0 -9q-1 -2 -17.5 -17.5
t-40.5 -34t-52.5 -33.5t-54.5 -15q-11 0 -15 7t-4 16q0 4 8 26.5t19 50.5l21.5 54.5l15.5 39.5l-6 3q-16 -23 -42.5 -56.5t-59.5 -65t-70.5 -53.5t-74.5 -22q-15 0 -25.5 11.5t-11.5 29.5q1 24 21.5 70.5l49.5 116.5l34.5 80t14.5 47t-16 14q-7 0 -18.5 -7t-23.5 -17
t-22 -19.5l-14 -13.5q-5 -5 -9 0l-9 9q-5 3 1 9l18 18.5t37.5 33t48.5 31t50 13.5q15 0 22 -12t7 -24q0 -19 -17 -62.5t-48 -110.5l-19.5 -44.5t-17 -42t-12 -35t-4.5 -23.5q0 -17 17 -17q20 0 47.5 21t55.5 49.5t51 57.5t34 45q14 21 26 41.5t20 43.5l35 96q2 7 14 7h41z
" />
    <glyph glyph-name="ucircumflex" unicode="&#xfb;" horiz-adv-x="484" 
d="M367 538l-100 -65q-5 -2 -7 1l-6 9q-2 2 3 7l125 128q7 5 10 -4l45 -130q3 -5 -1 -8l-8 -4q-5 -3 -8 0zM475 406q12 0 9 -9l-77 -208q-22 -59 -32 -92t-10 -38q0 -7 1.5 -8.5t6.5 -3.5q6 0 17.5 8t24 18.5t23 20.5t13.5 15q4 6 9 0l10 -10q4 -4 0 -9q-1 -2 -17.5 -17.5
t-40.5 -34t-52.5 -33.5t-54.5 -15q-11 0 -15 7t-4 16q0 4 8 26.5t19 50.5l21.5 54.5l15.5 39.5l-6 3q-16 -23 -42.5 -56.5t-59.5 -65t-70.5 -53.5t-74.5 -22q-15 0 -25.5 11.5t-11.5 29.5q1 24 21.5 70.5l49.5 116.5l34.5 80t14.5 47t-16 14q-7 0 -18.5 -7t-23.5 -17
t-22 -19.5l-14 -13.5q-5 -5 -9 0l-9 9q-5 3 1 9l18 18.5t37.5 33t48.5 31t50 13.5q15 0 22 -12t7 -24q0 -19 -17 -62.5t-48 -110.5l-19.5 -44.5t-17 -42t-12 -35t-4.5 -23.5q0 -17 17 -17q20 0 47.5 21t55.5 49.5t51 57.5t34 45q14 21 26 41.5t20 43.5l35 96q2 7 14 7h41z
" />
    <glyph glyph-name="udieresis" unicode="&#xfc;" horiz-adv-x="484" 
d="M437 550q-14 0 -30 8.5t-16 34.5q0 5 2 11.5t7 12.5t14 10.5t23 4.5q17 0 29 -11t12 -31q0 -19 -12 -29.5t-29 -10.5zM301 550q-14 0 -30 8.5t-16 34.5q0 5 2 11.5t7 12.5t14 10.5t23 4.5q17 0 29 -11t12 -31q0 -19 -12 -29.5t-29 -10.5zM434 406h41q12 0 9 -9l-77 -208
q-22 -59 -32 -92t-10 -38q0 -7 1.5 -8.5t6.5 -3.5q6 0 17.5 8t24 18.5t23 20.5t13.5 15q4 6 9 0l10 -10q4 -4 0 -9q-1 -2 -17.5 -17.5t-40.5 -34t-52.5 -33.5t-54.5 -15q-11 0 -15 7t-4 16q0 4 8 26.5t19 50.5l21.5 54.5l15.5 39.5l-6 3q-16 -23 -42.5 -56.5t-59.5 -65
t-70.5 -53.5t-74.5 -22q-15 0 -26 11.5t-11 29.5q0 24 21 70.5l50 116.5l34.5 80t14.5 47t-16 14q-7 0 -18.5 -7t-23.5 -17t-22 -19.5l-14 -13.5q-5 -5 -9 0l-9 9q-5 3 1 9l18 18.5t37.5 33t48.5 31t50 13.5q15 0 22 -12t7 -24q0 -19 -17 -62.5t-48 -110.5l-19.5 -44.5
t-17 -42t-12 -35t-4.5 -23.5q0 -17 17 -17q20 0 47.5 21t55.5 49.5t51 57.5t34 45q14 21 26 41.5t20 43.5l35 96q2 7 14 7z" />
    <glyph glyph-name="ugrave" unicode="&#xf9;" horiz-adv-x="484" 
d="M363 467q-4 -5 -9 0l-120 91q-10 8 -12.5 18.5t0.5 19.5t11 15.5t18 6.5q13 0 20 -6.5t15 -17.5l84 -111q4 -4 0 -8zM475 406q12 0 9 -9l-77 -208q-22 -59 -32 -92t-10 -38q0 -7 1.5 -8.5t6.5 -3.5q6 0 17.5 8t24 18.5t23 20.5t13.5 15q4 6 9 0l10 -10q4 -4 0 -9
q-1 -2 -17.5 -17.5t-40.5 -34t-52.5 -33.5t-54.5 -15q-11 0 -15 7t-4 16q0 4 8 26.5t19 50.5l21.5 54.5l15.5 39.5l-6 3q-16 -23 -42.5 -56.5t-59.5 -65t-70.5 -53.5t-74.5 -22q-15 0 -25.5 11.5t-11.5 29.5q1 24 21.5 70.5l49.5 116.5l34.5 80t14.5 47t-16 14
q-7 0 -18.5 -7t-23.5 -17t-22 -19.5l-14 -13.5q-5 -5 -9 0l-9 9q-5 3 1 9l18 18.5t37.5 33t48.5 31t50 13.5q15 0 22 -12t7 -24q0 -19 -17 -62.5t-48 -110.5l-19.5 -44.5t-17 -42t-12 -35t-4.5 -23.5q0 -17 17 -17q20 0 47.5 21t55.5 49.5t51 57.5t34 45q14 21 26 41.5
t20 43.5l35 96q2 7 14 7h41z" />
    <glyph glyph-name="ydieresis" unicode="&#xff;" horiz-adv-x="409" 
d="M369 550q-14 0 -30 8.5t-16 34.5q0 5 2 11.5t7 12.5t14 10.5t23 4.5q17 0 29 -11t12 -31q0 -19 -12 -29.5t-29 -10.5zM233 550q-14 0 -30 8.5t-16 34.5q0 5 2 11.5t7 12.5t14 10.5t23 4.5q17 0 29 -11t12 -31q0 -19 -12 -29.5t-29 -10.5zM59 266l-14 6q-4 2 -1 9l12.5 26
t27 46t37 43.5t43.5 19.5t33.5 -23.5t16.5 -89.5q4 -43 7 -85.5l5.5 -81t4 -72l2.5 -57.5l4 1l25.5 45.5t30.5 59.5l28 60t18 47q4 13 9.5 34t5.5 53q0 8 -1.5 19.5t-3.5 17.5l-7 16.5t-4 19.5q0 12 8.5 24t32.5 12q20 0 30 -15.5t10 -34.5q0 -24 -6.5 -51.5t-16 -55.5
t-21.5 -54.5l-23 -50.5q-17 -36 -43.5 -84.5t-58.5 -99t-67 -97.5t-67 -79l-27.5 -25.5t-37 -30t-43 -25t-44.5 -10.5q-29 0 -42.5 15t-13.5 32q0 19 13 29.5t27 11.5q13 1 21 -4t16 -12q5 -5 12 -8.5t13 -3.5q8 0 20 5t27 16q42 31 70 69.5t40 65.5q6 14 7.5 29.5t0.5 26.5
q-1 6 -2.5 30t-4 58.5t-6 74l-7 76.5l-6.5 66t-6 42q-6 28 -17 28q-7 0 -15.5 -9.5t-17 -22.5t-15.5 -27t-10 -22q-3 -5 -9 -3z" />
    <glyph glyph-name="Delta" unicode="&#x394;" horiz-adv-x="619" 
d="M490 45l-95 509l-292 -509h387zM36 24l384 633l28 9l130 -642l-6 -24h-543z" />
    <glyph glyph-name="Delta" unicode="&#x2206;" horiz-adv-x="619" 
d="M490 45l-95 509l-292 -509h387zM36 24l384 633l28 9l130 -642l-6 -24h-543z" />
    <glyph glyph-name="Omega" unicode="&#x3a9;" horiz-adv-x="752" 
d="M65 0l-4 134l25 1q4 -22 9.5 -35t13 -20.5t17 -10t21.5 -2.5h102l-34.5 47.5t-36.5 61.5t-29 73t-12 82q0 70 26 131.5t72 106.5t108 71t134 26q59 0 107.5 -19t83.5 -54t54 -85.5t19 -114.5q0 -59 -23.5 -108.5t-56.5 -90.5t-69.5 -72.5l-62.5 -54.5h92q16 0 27 2
t20 8.5t18.5 20t23.5 37.5l25 -1l-43 -134h-254l-6 15l61 61t72 85t60 107.5t25 128.5q0 51 -11.5 94t-34.5 74.5t-57.5 49.5t-79.5 18q-60 0 -104.5 -27.5t-74 -72.5t-44.5 -102.5t-15 -116.5q0 -52 8.5 -97t20.5 -82.5t26 -68t26 -52.5l-8 -14h-237z" />
    <glyph glyph-name="Omega" unicode="&#x2126;" horiz-adv-x="752" 
d="M65 0l-4 134l25 1q4 -22 9.5 -35t13 -20.5t17 -10t21.5 -2.5h102l-34.5 47.5t-36.5 61.5t-29 73t-12 82q0 70 26 131.5t72 106.5t108 71t134 26q59 0 107.5 -19t83.5 -54t54 -85.5t19 -114.5q0 -59 -23.5 -108.5t-56.5 -90.5t-69.5 -72.5l-62.5 -54.5h92q16 0 27 2
t20 8.5t18.5 20t23.5 37.5l25 -1l-43 -134h-254l-6 15l61 61t72 85t60 107.5t25 128.5q0 51 -11.5 94t-34.5 74.5t-57.5 49.5t-79.5 18q-60 0 -104.5 -27.5t-74 -72.5t-44.5 -102.5t-15 -116.5q0 -52 8.5 -97t20.5 -82.5t26 -68t26 -52.5l-8 -14h-237z" />
    <glyph glyph-name="pi" unicode="&#x3c0;" horiz-adv-x="550" 
d="M63 305l-15 18l24 30t35 31t50.5 24t71.5 10q28 0 58 -0.5t62 -1.5q31 -1 61 -1.5t59 -0.5q20 0 30 4.5t24 24.5l23 -9q-19 -55 -37 -76q-10 -4 -32.5 -4h-36.5l-24.5 -106.5t-24.5 -119.5q-8 -43 -4.5 -59t13.5 -16q11 0 31 12t37 26l12 -22q-29 -35 -63 -58t-66 -23
q-25 0 -36 25t3 90l31 138t29 116q-44 1 -77 1.5t-65 0.5q-8 -42 -20.5 -92t-27 -98.5t-31.5 -90.5t-34 -68q-18 -11 -38.5 -16.5t-33.5 -5.5l-6 16q22 19 45.5 61t43.5 93t36 105t23 97q-42 1 -72 -12.5t-58 -42.5z" />
    <glyph glyph-name="partialdiff" unicode="&#x2202;" horiz-adv-x="495" 
d="M309 360q-34 -1 -58.5 -17t-45.5 -44q-29 -38 -40.5 -79.5t-12.5 -80.5q0 -20 4.5 -41t15 -38.5t27 -29t40.5 -11.5q41 0 70.5 28.5t46.5 65.5q20 43 34.5 88.5t22.5 98.5l-16.5 18.5t-22 20t-29 15.5t-36.5 6zM286 399q42 0 75.5 -14.5t59.5 -48.5q5 20 8 43.5t4 50.5
q1 32 -1.5 68.5t-16.5 75.5q-14 38 -46.5 64t-83.5 26q-38 0 -65.5 -9t-50.5 -23q-6 1 -13 6.5t-13 13t-9.5 15.5t-1.5 14q22 12 57 20t73 8q70 0 121.5 -36.5t83.5 -96.5q28 -52 34.5 -104.5t4.5 -92.5q-1 -25 -5 -56t-12 -64t-19.5 -66.5t-26.5 -61.5
q-35 -62 -84.5 -102.5t-117.5 -40.5q-40 0 -72 13.5t-54 38.5t-34 59.5t-12 75.5q0 50 19.5 91.5t45.5 67.5q26 25 64.5 45t86.5 20h1z" />
    <glyph glyph-name="product" unicode="&#x220f;" horiz-adv-x="750" 
d="M124 651h619l-6 -23q-29 -3 -46 -7.5t-27 -15t-16 -29t-12 -49.5l-93 -482q-6 -31 -7 -50t7 -29.5t26 -15t50 -6.5l-4 -23h-255l4 23q29 2 47 6.5t28.5 15t16.5 29.5t12 50l105 543q4 20 -2 24.5t-25 4.5h-223q-23 0 -29.5 -5t-11.5 -27l-104 -540q-6 -31 -7 -50t7 -29.5
t26 -15t50 -6.5l-4 -23h-255l5 23q29 2 46.5 6.5t28 15t16.5 29.5t12 50l94 482q6 31 7 49.5t-7 29t-26.5 15t-51.5 7.5z" />
    <glyph glyph-name="summation" unicode="&#x2211;" horiz-adv-x="563" 
d="M578 651q-1 -7 -3 -22.5t-4 -36t-4 -43.5t-3 -45l-24 -3q-5 34 -9.5 55.5t-14.5 35.5t-33 19.5t-77 5.5h-164l155 -307l-281 -322h262q25 0 43.5 4.5t35 16.5t31.5 32.5t32 52.5l23 -8l-66 -165h-458l5 26l297 339l-172 340l4 25h425z" />
    <glyph glyph-name="radical" unicode="&#x221a;" horiz-adv-x="606" 
d="M122 455l165 78l101 -403h3l293 787l40 -9l-358 -946l-130 508l-101 -47z" />
    <glyph glyph-name="infinity" unicode="&#x221e;" horiz-adv-x="793" 
d="M469 266l42 -41t37 -30.5t36 -20t40 -10.5q43 0 70.5 29t29.5 68q2 51 -27 76.5t-72 25.5q-23 0 -45.5 -11t-43 -26.5t-38 -32zM407 260l-35 36.5t-38 33t-43 24t-49 9.5q-21 0 -38.5 -8.5t-29.5 -22.5t-18.5 -32.5t-6.5 -38.5q1 -42 30 -69.5t73 -27.5q23 0 44.5 9.5
t41.5 24t37.5 31.5zM438 300l43.5 41t45 35t50 24.5t58.5 9.5t58.5 -11t46 -31t30 -47t10.5 -58q0 -33 -12.5 -60t-33.5 -46t-49.5 -29t-60.5 -10q-45 0 -88 26.5t-100 82.5l-40.5 -38.5t-44.5 -35t-51 -25.5t-60 -10q-30 0 -57 11.5t-46.5 31.5t-31 46t-11.5 56
q0 31 11.5 58t31.5 46.5t48.5 31t62.5 11.5q29 0 54.5 -9t48.5 -24.5t44.5 -35.5z" />
    <glyph glyph-name="integral" unicode="&#x222b;" horiz-adv-x="368" 
d="M262 268q-20 -119 -46.5 -203.5t-57.5 -138t-66.5 -78.5t-72.5 -25q-25 0 -41 13t-16 33q0 17 13 29t32 12q12 0 20.5 -5.5t15.5 -12l13.5 -12t13.5 -5.5q8 0 16 5.5t16.5 22.5t17.5 48.5t18 83.5l60 350q23 133 54.5 213t65 123.5t65 57.5t54.5 14q26 0 38 -11.5
t12 -26.5q0 -16 -11.5 -27t-30.5 -11q-12 0 -19.5 4.5t-12.5 9.5t-10 9.5t-13 4.5t-18 -6.5t-20 -27t-20.5 -57t-20.5 -96.5z" />
    <glyph glyph-name="approxequal" unicode="&#x2248;" horiz-adv-x="628" 
d="M607 362q-20 -32 -55 -53.5t-77 -21.5q-34 0 -65 9t-73 28q-26 11 -51.5 18.5t-54.5 7.5q-39 0 -63.5 -21t-39.5 -44l-32 33q24 38 60 60t78 22q39 2 72 -8.5t56 -21.5q28 -12 56 -21.5t62 -9.5q35 0 59 19t39 40zM606 209q-20 -32 -54.5 -53.5t-76.5 -21.5
q-34 0 -63.5 8.5t-70.5 26.5q-29 13 -56.5 20t-59.5 7q-35 -1 -59 -20t-39 -39l-31 32q24 35 59 56t79 21q39 2 72 -8.5t56 -20.5q28 -12 56 -21.5t62 -9.5q35 0 59 18t39 41z" />
    <glyph glyph-name="notequal" unicode="&#x2260;" 
d="M99 52l63 89h-90v54h128l68 97h-196v54h234l84 118l44 -31l-61 -87h87v-54h-126l-68 -97h194v-54h-232l-85 -120l-44 31v0z" />
    <glyph glyph-name="lessequal" unicode="&#x2264;" 
d="M460 11h-388v54h388v-54v0zM460 129l-391 176v34l391 176v-58l-313 -135l313 -135v-58v0z" />
    <glyph glyph-name="greaterequal" unicode="&#x2265;" 
d="M460 11h-388v54h388v-54v0zM463 305l-391 -176v58l313 135l-313 135v58l391 -176v-34v0z" />
    <glyph glyph-name="lozenge" unicode="&#x25ca;" horiz-adv-x="519" 
d="M371 677l-232 -347l111 -332h2l229 346l-108 333h-2zM406 729l134 -391l-268 -391h-56l-134 390l269 392h55z" />
    <glyph glyph-name="uni00A0" unicode="&#xa0;" horiz-adv-x="230" 
 />
    <glyph glyph-name="quotedbl" unicode="&#x22;" horiz-adv-x="234" 
d="M252 468q3 11 8 38l11 57l11.5 56t9.5 37q7 20 19 24.5t26 4.5q12 0 21 -8.5t9 -22.5q0 -5 -12.5 -32l-28.5 -59.5l-30.5 -62t-18.5 -40.5zM132 468q3 11 8 38l11 57l11.5 56t9.5 37q7 20 19 24.5t26 4.5q12 0 21 -8.5t9 -22.5q0 -5 -12.5 -32l-28.5 -59.5l-30.5 -62
t-18.5 -40.5z" />
    <glyph glyph-name="exclam" unicode="!" horiz-adv-x="270" 
d="M129 183q-3 0 -6 5t1 16t12 46l18.5 81l21.5 97.5l20 95.5l15.5 74t7.5 34q6 27 19.5 40t30.5 13q22 0 33 -14t11 -30q0 -7 -3.5 -19.5t-11.5 -32.5q-1 -3 -13 -33l-29 -73.5l-36.5 -93.5l-36.5 -93.5l-29 -73t-13 -31.5q-3 -6 -5 -7t-7 -1zM80 -10q-5 0 -13 3t-15.5 9
t-12.5 16t-5 24q0 22 14.5 38t37.5 16q12 0 21 -5t15 -12.5t9 -16.5t3 -16q0 -23 -14.5 -39.5t-39.5 -16.5z" />
    <glyph glyph-name="Lslash" unicode="&#x141;" horiz-adv-x="625" 
d="M607 158q-2 -4 -8 -25.5l-13 -47.5l-13.5 -50t-7.5 -34q-3 -16 -12 -16q-5 0 -11.5 2t-14.5 4t-17.5 4t-19.5 2q-8 0 -33.5 0.5t-59.5 1t-71.5 1t-69.5 0.5q-42 0 -84.5 -0.5t-77 -1t-58 -1t-27.5 -0.5q-11 0 -8 10l4 19q2 8 9 8h25q16 0 28.5 2.5t21.5 10.5t16.5 22.5
t15.5 38.5l63 202l-93 -26q-7 -2 -9 4l-8 25q-1 5 5 7l118 34l68 220q11 33 2.5 47.5t-45.5 14.5h-37q-10 0 -8 8l7 23q1 6 12 6q8 0 41.5 -1.5t96.5 -1.5q64 0 99 1.5t43 1.5q10 0 8 -8l-5 -21q-3 -8 -12 -8h-45q-14 0 -24.5 -2.5t-19 -10t-15 -21t-13.5 -35.5l-58 -186
l163 46q8 2 10 -4l7 -21q2 -8 -5 -11l-189 -54l-84 -274q-5 -17 1.5 -23t23.5 -6h40h57t64 0.5t55 1.5t31 2q14 2 21.5 6.5t13.5 9.5q7 7 20 24.5l26 36.5t22.5 35t11.5 19q2 5 10 2l10 -4q8 -3 6 -9z" />
    <glyph glyph-name="lslash" unicode="&#x142;" horiz-adv-x="264" 
d="M346 660l-107 -269l76 18q7 2 8 -4l4 -24q1 -6 -8 -8l-96 -22l-85 -220q-3 -9 -8.5 -22t-9 -25.5t-3 -21.5t8.5 -9q6 0 16.5 6.5t22 15t21 17t14.5 13.5q3 3 5 2.5t4 -2.5l11 -12q4 -5 -1 -10q-2 -3 -18.5 -18t-40.5 -31.5t-51.5 -30t-51.5 -13.5q-10 0 -16 6t-6 23
q0 6 4 19t10 29l12 32.5t11 27.5l82 207l-77 -18q-9 -2 -10 6l-4 21q-1 5 5 7l102 24l77 204q11 29 9 46t-24 17h-29q-10 0 -6 9l6 18q2 7 10 7h124q16 0 9 -15z" />
    <glyph glyph-name="onesuperior" unicode="&#xb9;" horiz-adv-x="325" 
d="M80 410h32q16 0 27.5 4t21.5 24q2 5 7 19.5l15 44.5l42 132l13.5 40.5t4.5 17.5q0 8 -8 8q-9 0 -41 -13l-32 -13q-4 -2 -7 4l-6 12q-1 2 -0.5 3.5t4.5 3.5l142 70q15 7 22 7q9 0 9 -7q0 -2 -0.5 -6t-2.5 -10q-5 -12 -11.5 -30l-14 -39l-15 -42.5t-13.5 -40.5l-28 -89
l-14 -46t-6 -23q-5 -18 -0.5 -24.5t19.5 -6.5h27q7 0 5 -5l-3 -16q-2 -5 -7 -5q-2 0 -15 0.5t-29 1l-31 1t-20 0.5q-6 0 -20.5 -0.5t-30.5 -1t-28.5 -1t-14.5 -0.5q-6 0 -3 5l3 16q2 5 7 5z" />
    <glyph glyph-name="Eth" unicode="&#xd0;" horiz-adv-x="777" 
d="M186 328h-108q-14 0 -11 9l8 22q1 6 13 6h108l53 218q8 29 -8.5 39.5t-42.5 10.5h-45q-13 0 -10 8l6 22q2 5 4.5 6t11.5 1t31.5 0.5t51.5 2.5l62.5 2t45.5 1q48 0 97 -3.5t95 -14t86.5 -29.5t72.5 -50q46 -47 60.5 -91t14.5 -90q0 -74 -20.5 -129.5t-49.5 -96t-60.5 -66
t-54.5 -38.5q-47 -27 -95 -41t-91 -21t-79.5 -8t-61.5 -1q-10 0 -30 0.5t-42.5 1l-43 1t-30.5 0.5q-57 0 -81.5 -1.5t-30.5 -1.5q-10 0 -8 8l6 22q2 7 10 7h30q13 0 26 3t23.5 11.5t19.5 24t15 40.5zM217 106l-5 -24t-2 -18q0 -16 19.5 -23t51.5 -7q40 0 79.5 4t76 14
t69.5 25.5t61 39.5q23 19 45 48.5t39 66.5t27.5 78.5t10.5 84.5q0 49 -18 93t-46 73q-25 26 -55 41.5t-59 23.5q-41 11 -69.5 12t-39.5 1q-12 0 -30 -0.5t-26 -2.5l-65 -271h143q15 0 10 -11l-7 -18q-2 -5 -5 -6.5t-13 -1.5h-138z" />
    <glyph glyph-name="onehalf" unicode="&#xbd;" horiz-adv-x="700" 
d="M82 281q16 0 27.5 4t21.5 24q2 5 7 19.5l15 44.5l42 132l13.5 40.5t4.5 17.5q0 8 -8 8q-9 0 -41 -13l-32 -13q-4 -2 -7 4l-6 12q-1 2 -0.5 3.5t4.5 3.5l142 70q15 7 22 7q9 0 9 -7q0 -2 -0.5 -6t-2.5 -10q-5 -12 -11.5 -30l-14 -39l-15 -42.5t-13.5 -40.5l-28 -89
q-10 -29 -14.5 -46t-5.5 -23q-5 -18 -0.5 -24.5t19.5 -6.5h27q7 0 5 -5l-3 -16q-2 -5 -7 -5q-2 0 -15 0.5t-29 1l-31 1t-20 0.5q-6 0 -20.5 -0.5t-30.5 -1t-28.5 -1t-14.5 -0.5q-6 0 -3 5l3 16q2 5 7 5h32zM585 44q25 0 39.5 12t25.5 30q5 6 10 4l8 -5q6 -2 1 -7
q-6 -8 -13 -21.5t-13 -26.5l-10.5 -23.5t-4.5 -11.5q-2 -6 -9 -6q-5 0 -10 7q-2 3 -12.5 3.5t-25.5 0.5h-163q-8 0 -10 2t-2 6q0 7 8 13q28 23 68.5 53t77.5 64.5t63 70.5t26 71q0 10 -3 21.5t-9.5 21.5t-17 16t-25.5 6t-27.5 -7t-22 -16.5t-16.5 -20.5t-11 -18
q-6 -10 -11 -8l-11 6q-5 3 -3 9q4 11 14 27.5t26 32t38 26.5t51 11q46 0 69.5 -25t23.5 -66q0 -39 -24.5 -76t-60 -69.5t-75 -59l-69.5 -45.5l-2 -1v-1h112zM156 1q-3 1 -3 5q0 5 4 12l408 623q3 4 6 4t7 -2l22 -14q4 -1 4 -5q0 -3 -3 -7l-410 -625q-4 -7 -8 -7t-8 3z" />
    <glyph glyph-name="Thorn" unicode="&#xde;" horiz-adv-x="614" 
d="M234 189q14 -5 41 -7t47 -2q56 0 96 17.5t65 45t36.5 60.5t11.5 65q0 45 -17 72.5t-42.5 43.5t-55.5 21.5t-55 5.5h-21t-20 -2zM252 566q3 12 5 24.5t-0.5 22.5t-11 16.5t-25.5 6.5h-46q-8 0 -6 10l6 20q2 7 11 7q11 0 39.5 -1.5t87.5 -1.5q51 0 79 1.5t39 1.5
q10 0 12.5 -2t1.5 -8l-3 -17q-1 -10 -11 -10h-30q-24 0 -39.5 -16.5t-23.5 -45.5l-9 -30q6 -1 13 -1h20q71 0 116.5 -8.5t81.5 -38.5q16 -14 27.5 -27.5t19 -29t10.5 -35t3 -44.5q0 -38 -16.5 -76t-51.5 -68t-89.5 -49t-130.5 -19q-34 0 -59.5 1.5t-45.5 5.5l-12 -48
q-7 -29 -1.5 -51t35.5 -22h38q10 0 8 -10l-3 -19q-2 -5 -3.5 -6.5t-8.5 -1.5q-9 0 -41 1.5t-92 1.5q-51 0 -79 -1.5t-37 -1.5q-11 0 -10 10l2 17q1 10 11 10h21q20 0 33.5 6.5t22 17.5t14 25.5t9.5 30.5z" />
    <glyph glyph-name="onequarter" unicode="&#xbc;" horiz-adv-x="700" 
d="M82 281q16 0 27.5 4t21.5 24q2 5 7 19.5l15 44.5l42 132l13.5 40.5t4.5 17.5q0 8 -8 8q-9 0 -41 -13l-32 -13q-4 -2 -7 4l-6 12q-1 2 -0.5 3.5t4.5 3.5l142 70q15 7 22 7q9 0 9 -7q0 -2 -0.5 -6t-2.5 -10q-5 -12 -11.5 -30l-14 -39l-15 -42.5t-13.5 -40.5l-28 -89
q-10 -29 -14.5 -46t-5.5 -23q-5 -18 -0.5 -24.5t19.5 -6.5h27q7 0 5 -5l-3 -16q-2 -5 -7 -5q-2 0 -15 0.5t-29 1l-31 1t-20 0.5q-6 0 -20.5 -0.5t-30.5 -1t-28.5 -1t-14.5 -0.5q-6 0 -3 5l3 16q2 5 7 5h32zM156 1q-3 1 -3 5q0 5 4 12l408 623q3 4 6 4t7 -2l22 -14q4 -1 4 -5
q0 -3 -3 -7l-410 -625q-4 -7 -8 -7t-8 3zM555 143l58 138q5 11 2 13t-13 -7l-150 -129q-16 -15 -6 -15h109zM506 0q-7 0 -1 14l38 90h-153q-15 0 -15 15q0 5 3 8.5t11 10.5l277 241q8 8 22 8q8 0 12 -7t1 -14l-88 -223h63q7 0 2 -9l-9 -21q-2 -3 -4.5 -6t-5.5 -3h-59
l-37 -92q-4 -9 -7 -10.5t-8 -1.5h-42z" />
    <glyph glyph-name="brokenbar" unicode="&#xa6;" horiz-adv-x="250" 
d="M149 325q-6 0 -6 10v331q0 9 6 9h40q7 0 7 -12v-328q0 -10 -9 -10h-38zM190 175q6 0 6 -10v-330q0 -10 -9 -10h-38q-6 0 -6 10v330q0 10 9 10h38z" />
    <glyph glyph-name="thorn" unicode="&#xfe;" horiz-adv-x="461" 
d="M130 30q44 4 88.5 23t80.5 51t58.5 74.5t22.5 93.5q0 27 -7 46.5t-19 32t-27.5 18.5t-31.5 6q-10 0 -17.5 -1t-12.5 -2zM311 648q4 10 14 14l57 22q2 1 7 1q3 0 3 -4q0 -2 -2 -8l-110 -260q5 1 10.5 1.5t12.5 0.5q8 1 14.5 1h11.5q29 0 52 -10t38.5 -27t24 -40t8.5 -49
q0 -51 -25 -101t-72 -90q-53 -45 -114 -70t-124 -29l-78 -198q-15 -39 -8.5 -53.5t38.5 -14.5h28q8 0 6 -8l-7 -20l-4 -4t-8 -2q-8 0 -32.5 1.5t-72.5 1.5q-52 0 -75.5 -1.5t-31.5 -1.5q-9 0 -7 6l5 18q3 10 9 10h23q29 0 45 18.5t33 62.5l214 539q-18 -5 -37 -16t-36 -24.5
t-31 -26.5t-22 -23q-2 -3 -4.5 -3t-4.5 2l-10 10q-5 5 -1 9q27 32 65.5 63.5t97.5 53.5z" />
    <glyph glyph-name="threequarters" unicode="&#xbe;" horiz-adv-x="700" 
d="M135 251q-45 0 -68.5 21.5t-23.5 45.5q0 9 6.5 18t19.5 9q18 0 22.5 -13.5t2.5 -24.5q-2 -8 11.5 -18.5t31.5 -10.5q21 0 40.5 8.5t33.5 23.5t22.5 35t8.5 43q0 24 -12.5 42.5t-33.5 26.5q-7 3 -8.5 5t-1.5 6q0 2 1.5 5t8.5 5q10 2 24.5 8.5t27.5 17.5t22.5 26t9.5 34
q0 6 -2 13t-7.5 13.5t-14.5 11t-24 4.5q-22 0 -38.5 -14.5t-26.5 -28.5q-9 -14 -15 -9l-10 8q-2 3 1 10q5 9 15 21.5t24 24t33.5 19.5t43.5 8q22 0 37.5 -6t25 -14.5t14 -18.5t4.5 -19q0 -35 -25.5 -61t-61.5 -45q29 -15 41 -37t12 -49q0 -31 -15 -57t-39.5 -45.5t-55 -30.5
t-61.5 -11zM166 1q-3 1 -3 5q0 5 4 12l408 623q3 4 6 4t7 -2l22 -14q4 -1 4 -5q0 -3 -3 -7l-410 -625q-4 -7 -8 -7t-8 3zM560 143l58 138q5 11 2 13t-13 -7l-150 -129q-16 -15 -6 -15h109zM511 0q-7 0 -1 14l38 90h-153q-15 0 -15 15q0 5 3 8.5t11 10.5l277 241q8 8 22 8
q8 0 12 -7t1 -14l-88 -223h63q6 0 2 -9l-9 -21q-2 -3 -4.5 -6t-5.5 -3h-59l-37 -92q-4 -9 -7 -10.5t-8 -1.5h-42z" />
    <glyph glyph-name="twosuperior" unicode="&#xb2;" horiz-adv-x="325" 
d="M128 431h112q25 0 39.5 12t25.5 30q5 6 10 4l8 -5q6 -2 1 -7q-6 -8 -13 -21.5t-13 -26.5l-10.5 -23.5t-4.5 -11.5q-2 -6 -9 -6q-5 0 -10 7q-2 3 -12.5 3.5t-25.5 0.5h-163q-8 0 -10 2t-2 6q0 7 8 13q28 23 68.5 53t77.5 64.5t63 70.5t26 71q0 10 -3 21.5t-9.5 21.5
t-17 16t-25.5 6t-27.5 -7t-22 -16.5t-16.5 -20.5t-11 -18q-6 -10 -11 -8l-11 6q-5 3 -3 9q4 11 14 27.5t26 32t38 26.5t51 11q46 0 69.5 -25t23.5 -66q0 -39 -24.5 -76t-60 -69.5t-75 -59l-69.5 -45.5l-2 -1v-1z" />
    <glyph glyph-name="minus" unicode="&#x2212;" 
d="M460 267v-54h-388v54h388z" />
    <glyph glyph-name="eth" unicode="&#xf0;" horiz-adv-x="414" 
d="M251 683q4 2 9 -1q6 -4 16 -13.5t21 -22.5l22 -27t17 -27l74 25q7 3 9 -3l7 -19q4 -7 -4 -9l-71 -24q28 -56 38 -113.5t10 -108.5q0 -33 -7 -72t-20 -78t-32.5 -75t-45.5 -64t-57.5 -44.5t-68.5 -16.5q-12 0 -31 3.5t-37 17t-31 40t-13 73.5q0 43 14 94t41.5 95t68 73.5
t94.5 29.5q36 0 57 -18q-2 23 -8 62t-23 84l-107 -36q-7 -3 -9 4l-6 22q-1 5 5 7l107 35q-11 22 -26 45.5t-28 36.5q-4 3 -4 5.5t2 4.5zM161 20q22 0 43.5 17t40.5 43.5t35 60t27.5 67t18 64.5t6.5 53q0 31 -15 45.5t-37 14.5q-13 0 -29.5 -9t-35 -28.5t-37.5 -51t-36 -76.5
q-16 -42 -23 -76t-7 -63q0 -7 2.5 -17t8.5 -19.5t15 -16.5t23 -8z" />
    <glyph glyph-name="multiply" unicode="&#xd7;" 
d="M407 44l-145 146l-145 -146l-35 42l143 141l-142 140l40 41l143 -144l143 144l38 -37l-144 -142l145 -143z" />
    <glyph glyph-name="threesuperior" unicode="&#xb3;" horiz-adv-x="325" 
d="M165 380q-45 0 -68.5 21.5t-23.5 45.5q0 9 6.5 18t19.5 9q18 0 22.5 -13.5t2.5 -24.5q-2 -8 11.5 -18.5t31.5 -10.5q21 0 40.5 8.5t33.5 23.5t22.5 35t8.5 43q0 24 -12.5 42.5t-33.5 26.5q-7 3 -8.5 5t-1.5 6q0 2 1.5 5t8.5 5q10 2 24.5 8.5t27.5 17.5t22.5 26t9.5 34
q0 6 -2 13t-7.5 13.5t-14.5 11t-24 4.5q-22 0 -38.5 -14.5t-26.5 -28.5q-9 -14 -15 -9l-10 8q-2 3 1 10q5 9 15 21.5t24 24t33.5 19.5t43.5 8q22 0 37.5 -6t25 -14.5t14 -18.5t4.5 -19q0 -35 -25.5 -61t-61.5 -45q29 -15 41 -37t12 -49q0 -31 -15 -57t-39.5 -45.5t-55 -30.5
t-61.5 -11z" />
    <glyph glyph-name="Scaron" unicode="&#x160;" horiz-adv-x="504" 
d="M523 874q5 2 7 -2l7 -11q2 -2 -2 -6l-139 -120q-8 -6 -13 2l-71 120q-3 5 2 8l10 9q4 3 11 -2l69 -60zM131 251q2 5 11 4l10 -3q4 -2 6.5 -4t0.5 -7q-14 -56 -6 -97t27 -67.5t45 -39.5t49 -13q24 0 45 9t37 25t25 37.5t9 46.5t-8.5 45.5t-21.5 38.5t-30 35t-33 35
l-43.5 48.5t-35.5 48t-23.5 53t-8.5 63.5q0 27 10.5 58t32 57t53.5 43.5t74 17.5q21 0 39.5 -5.5t34 -13t27 -15l17.5 -11.5q4 -2 6.5 -3.5t7.5 -1.5q6 0 9.5 9.5t6.5 25.5q1 4 10 3l13 -1q8 -1 7 -7l-36 -190q-2 -6 -8 -6l-14 1q-10 2 -9 9q2 15 -0.5 43t-14 55.5t-34.5 48
t-62 20.5q-23 0 -41.5 -9.5t-31.5 -25t-19.5 -35t-6.5 -39.5q0 -28 7.5 -48.5t20 -38t29 -32.5t33.5 -33l36.5 -37t35.5 -44.5t26.5 -55.5t10.5 -70q0 -50 -16 -86t-41.5 -60t-58 -35.5t-65.5 -11.5q-48 0 -82.5 23t-64.5 53q-13 13 -23 -2q-5 -6 -10.5 -16.5t-10.5 -21.5
q-3 -6 -10 -3l-13 5q-6 2 -4 10z" />
    <glyph glyph-name="Yacute" unicode="&#xdd;" horiz-adv-x="540" 
d="M386 739q-2 5 3 10l143 111q16 12 34 12q12 0 20.5 -9t10.5 -21.5t-3.5 -24.5t-19.5 -18l-174 -71q-6 -3 -8 1zM250 235q2 11 -0.5 29t-4.5 25l-108 309q-6 17 -20.5 27.5t-40.5 10.5h-23q-8 0 -7 8l4 21q1 8 10 8q10 0 32.5 -1.5t72.5 -1.5q57 0 85 1.5t38 1.5t9 -8
l-2 -21q-1 -8 -9 -8h-26q-14 0 -22 -4.5t-11 -11t-2.5 -15t3.5 -17.5l93 -278q5 -17 15 -4l20.5 28.5l35 49.5l41 59.5l40 59.5t31.5 49.5t16 29.5q10 29 1.5 41.5t-38.5 12.5h-20q-9 0 -7 10l2 19q1 8 12 8t39 -1.5t71 -1.5q42 0 65 1.5t33 1.5q12 0 10 -8l-3 -19
q-1 -10 -8 -10h-19q-26 0 -42 -12t-36 -37q-4 -5 -20 -27l-38 -53l-47.5 -66.5l-47.5 -67l-38 -54t-20 -27.5l-14.5 -21t-11 -18.5t-8.5 -21t-8 -28.5l-25 -113q-8 -38 3 -47t36 -9h30q9 0 7 -8l-3 -21q-1 -4 -3 -6t-8 -2q-11 0 -38 1.5t-83 1.5q-62 0 -89.5 -1.5
t-35.5 -1.5q-9 0 -8 8l4 21q0 8 9 8h29q35 0 47.5 15t17.5 38z" />
    <glyph glyph-name="Zcaron" unicode="&#x17d;" horiz-adv-x="677" 
d="M599 874q5 2 7 -2l7 -11q2 -2 -2 -6l-139 -120q-8 -6 -13 2l-71 120q-3 5 2 8l10 9q4 3 11 -2l69 -60zM73 0q-7 0 -9.5 2.5t-3 6t1 7.5t3.5 6l527 612q-54 0 -103.5 -0.5t-89.5 -1.5t-69.5 -2.5t-42.5 -2.5q-36 -4 -60.5 -28t-34.5 -46q-4 -7 -9 -5l-14 5q-5 2 -4 8
l38 114q1 3 3.5 6.5t6.5 3.5q6 0 17 -6q3 -2 21.5 -3.5t42.5 -2.5l46.5 -2t33.5 -1h324q13 0 13 -8.5t-5 -13.5l-523 -611q69 0 120 0.5t89.5 2t68 4t55.5 7.5q40 7 63.5 28t46.5 60q4 6 10 3l14 -7q6 -2 3 -10l-47 -131q-2 -6 -9 -6q-9 0 -19 4q-7 2 -33 3.5t-57 2.5
t-59.5 1.5t-39.5 0.5h-316z" />
    <glyph glyph-name="scaron" unicode="&#x161;" horiz-adv-x="294" 
d="M348 617q5 2 7 -1l6 -9q2 -2 -3 -7l-125 -128q-7 -5 -10 4l-45 130q-3 5 1 8l8 4q5 3 8 0l53 -66zM106 -10q-44 0 -69 15.5t-25 40.5q0 11 9 22t25 11q17 0 26.5 -9.5t14.5 -22.5t11 -20.5t25 -7.5q22 0 39 17.5t17 43.5q0 16 -5 31.5t-11.5 30.5t-14 28.5t-12.5 25.5
q-5 13 -17.5 38t-11.5 60q0 22 9.5 43.5t26.5 39t40 28.5t50 11q11 0 23.5 -2.5t23 -8.5t17.5 -15.5t7 -24.5q0 -14 -10 -23t-21 -9q-9 0 -19 5.5t-15 18.5q-4 9 -7.5 18.5t-18.5 9.5t-32 -18t-17 -45q0 -14 5 -28t11 -27t12 -23t8 -15t8.5 -15.5t13 -26t11.5 -34t5 -38.5
q0 -29 -11 -52.5t-29 -39.5t-42 -24.5t-50 -8.5z" />
    <glyph glyph-name="yacute" unicode="&#xfd;" horiz-adv-x="409" 
d="M279 477q-2 2 4 8l126 103q16 15 35 15q10 0 17.5 -7.5t9 -18t-4 -22t-21.5 -18.5l-151 -71q-6 -3 -8 1zM45 272q-4 2 -1 9l12.5 26t27 46t37 43.5t43.5 19.5t33.5 -23.5t16.5 -89.5q4 -43 7 -85.5l5.5 -81t4 -72l2.5 -57.5l4 1l25.5 45.5t30.5 59.5l28 60t18 47
q4 13 9.5 34t5.5 53q0 8 -1.5 19.5t-3.5 17.5l-7 16.5t-4 19.5q0 12 8.5 24t32.5 12q20 0 30 -15.5t10 -34.5q0 -24 -6.5 -51.5t-16 -55.5t-21.5 -54.5l-23 -50.5q-17 -36 -43.5 -85t-58.5 -99.5t-66.5 -97t-67.5 -78.5q-10 -11 -27 -26.5t-37 -29.5t-43 -24.5t-45 -10.5
q-29 0 -42.5 15t-13.5 32q0 19 13 29.5t27 11.5q13 1 21 -4t16 -12q5 -5 12 -8.5t13 -3.5q8 0 20 5t27 16q42 31 70 69.5t40 65.5q6 14 7.5 29.5t0.5 26.5q-1 6 -2.5 30t-4 58.5t-6 74l-7 76.5l-6.5 66t-6 42q-6 28 -17 28q-7 0 -15.5 -9.5t-17 -22.5t-15.5 -27t-10 -22
q-3 -5 -9 -3z" />
    <glyph glyph-name="zcaron" unicode="&#x17e;" horiz-adv-x="477" 
d="M409 617q5 2 7 -1l6 -9q2 -2 -3 -7l-125 -128q-7 -5 -10 4l-45 130q-3 5 1 8l8 4q5 3 8 0l53 -66zM175 106l3 -5q23 0 46 -10.5t58 -33.5l51 -33t39 -12q16 0 26 9.5t10 19.5q0 5 -0.5 12t-5.5 16q-7 12 -9 19.5t-2 12.5q0 17 10.5 26.5t22.5 9.5q20 0 30.5 -13.5
t10.5 -35.5q0 -17 -7.5 -35.5t-22.5 -35t-38 -27t-54 -10.5q-33 0 -66 12.5t-60 25.5q-5 2 -14 7.5t-19.5 11t-21.5 9.5t-21 4q-19 0 -26.5 -8.5t-13.5 -27.5q-4 -11 -15 -20t-28 -9q-9 0 -15 6t-6 16q0 15 9 29.5t22 27t26.5 21.5t22.5 14l209 208l-4 4q-34 -2 -55.5 9.5
t-34.5 19.5q-6 4 -15 12t-19.5 15.5t-22 13t-22.5 5.5q-17 0 -23.5 -6.5t-6.5 -11.5q0 -10 14 -18q5 -4 9 -10.5t4 -18.5q0 -14 -9 -24.5t-24 -10.5t-29.5 12t-14.5 37q0 11 5 25t17 26.5t30.5 21t45.5 8.5q16 0 29.5 -2.5t27 -7t28 -11t32.5 -15.5q16 -8 37 -15.5t38 -7.5
q16 0 24 11t13 25t17.5 30t33.5 16q10 0 14.5 -8t4.5 -16q0 -13 -7.5 -25.5t-17.5 -23t-20.5 -18l-16.5 -11.5z" />
    <glyph glyph-name="dollaroldstyle" unicode="&#xf724;" horiz-adv-x="370" 
d="M182 29q26 -3 45 2t31.5 15.5t18.5 24t6 28.5q0 13 -12.5 30.5t-53.5 36.5zM239 376q-26 3 -43.5 -1.5t-28.5 -13.5t-15.5 -21t-4.5 -23q0 -17 12 -33.5t47 -32.5zM62 152q1 4 8 4l14 -2q7 -1 5 -8q-10 -40 7 -70t53 -41l39 149q-51 30 -75 58t-24 63q0 17 8.5 36.5
t27 34.5t48.5 23.5t73 3.5l14 53q2 5 8 3l22 -5q4 -1 3 -7l-14 -50q17 -5 33.5 -14t21.5 -9q11 0 15 17q2 5 5 5h13q6 0 4 -6l-15 -106q-2 -5 -7 -5h-14q-6 0 -6 6q0 7 -2 19t-8.5 25t-18 24t-29.5 16l-36 -136q51 -26 76 -54t25 -66q0 -32 -12.5 -54t-34 -36t-51 -19.5
t-62.5 -2.5l-17 -68q-2 -5 -9 -4l-20 5q-5 1 -4 10l16 61q-17 4 -30 10.5t-23 12.5l-17 10.5t-10 4.5q-7 0 -12.5 -4.5t-13.5 -18.5q-2 -4 -7 -2l-10 4q-5 2 -3 7z" />
    <glyph glyph-name="dollarsuperior" unicode="&#xf6e4;" horiz-adv-x="325" 
d="M236 542l-30 -119q19 -2 34 2.5t25 13.5t15.5 21t5.5 24q2 13 -9 27t-41 31zM223 620l27 108q-40 2 -56 -14.5t-16 -36.5q0 -14 9.5 -28.5t35.5 -28.5zM65 422l39 109q1 3 6 3l12 -1q5 -1 5 -8q-8 -35 5.5 -61t42.5 -36l33 130q-42 26 -62 51t-20 55q0 15 8 32.5t24.5 31
t40.5 21.5t57 4l11 47q1 4 6 4l22 -5q5 -2 3 -8l-11 -43q14 -4 26.5 -12t17.5 -8t8 3t5 12q0 4 4 4h11q5 0 3 -5l-12 -94q-2 -5 -6 -5h-12q-5 0 -5 6t-2 16.5t-7.5 21.5t-14 20.5t-22.5 14.5l-30 -118q41 -23 61.5 -47.5t20.5 -57.5q0 -27 -11 -47.5t-29 -33t-42 -18.5
t-51 -4l-15 -59q-2 -5 -7 -4l-17 5q-8 2 -6 8l14 55q-26 6 -43 19.5t-22 13.5q-6 0 -10.5 -3.5t-11.5 -16.5q-2 -3 -5 -2l-9 4q-4 2 -3 6z" />
    <glyph glyph-name="parenleftsuperior" unicode="&#x207d;" horiz-adv-x="200" 
d="M115 513q0 42 16 85.5t46.5 85.5t74.5 80t100 68q7 4 15 -5q9 -10 -3 -16q-46 -27 -82.5 -63t-61.5 -76.5t-38.5 -84t-13.5 -84.5q0 -44 3.5 -72.5t8.5 -46.5t10 -27l8 -14q4 -7 -7 -10q-6 -2 -9 -1.5t-6 3.5q-9 11 -19.5 27.5t-20 38.5t-15.5 50t-6 62z" />
    <glyph glyph-name="parenrightsuperior" unicode="&#x207e;" horiz-adv-x="200" 
d="M173 661q0 44 -4 72.5t-9.5 46.5t-11 27.5l-8.5 14.5q-4 7 7 10q6 2 9 1.5t6 -3.5q9 -11 20.5 -28t21 -39.5t16 -50.5t6.5 -61q0 -43 -15.5 -87t-45 -85t-72.5 -78.5t-98 -67.5q-7 -4 -15 5q-8 10 2 16q46 27 81.5 62.5t60 76t37 83.5t12.5 85z" />
    <glyph glyph-name="twodotenleader" unicode="&#x2025;" 
d="M362 -10q-23 0 -38 15.5t-15 38.5q0 15 12.5 33.5t39.5 18.5q17 0 28 -6.5t17.5 -15t9 -17.5t2.5 -13q0 -20 -15.5 -37t-40.5 -17zM112 -10q-23 0 -38 15.5t-15 38.5q0 15 12.5 33.5t39.5 18.5q17 0 28 -6.5t17.5 -15t9 -17.5t2.5 -13q0 -20 -15.5 -37t-40.5 -17z" />
    <glyph glyph-name="onedotenleader" unicode="&#x2024;" 
d="M232 -10q-23 0 -38 15.5t-15 38.5q0 15 12.5 33.5t39.5 18.5q17 0 28 -6.5t17.5 -15t9 -17.5t2.5 -13q0 -20 -15.5 -37t-40.5 -17z" />
    <glyph glyph-name="zerooldstyle" unicode="&#xf730;" horiz-adv-x="510" 
d="M256 31q46 0 77 19.5t49.5 50t26 67.5t7.5 72q0 32 -11 57t-28 42.5t-38 26.5t-41 9q-26 0 -47 -4.5t-46 -23.5q-19 -15 -33 -35t-23 -43.5t-13 -48.5t-4 -49q0 -36 11.5 -62.5t29.5 -43.5t40 -25.5t43 -8.5zM282 416q48 0 85.5 -14t64 -39t40.5 -60t14 -77
q0 -47 -17.5 -89.5t-46.5 -75t-67.5 -52t-81.5 -19.5q-52 0 -89.5 14.5t-66.5 43.5q-26 26 -39.5 59.5t-13.5 81.5q0 36 14.5 76t42 73.5t68 55.5t93.5 22z" />
    <glyph glyph-name="oneoldstyle" unicode="&#xf731;" horiz-adv-x="350" 
d="M205 330q8 20 2 32t-37 12h-27q-8 0 -6 9l5 18q3 8 10 8q8 0 35.5 -1.5t77.5 -1.5q48 0 73.5 1.5t34.5 1.5q10 0 8 -8l-4 -17q-3 -10 -11 -10h-30q-26 0 -39 -11t-25 -41l-94 -240q-7 -18 -7 -28.5t5.5 -15t16 -5.5t24.5 -1h20q7 0 5 -8l-5 -19q-3 -8 -10 -8
q-10 0 -36 1.5t-77 1.5q-50 0 -77 -1.5t-32 -1.5q-7 0 -5 8l5 21q1 6 9 6h22q17 0 27.5 1.5t18.5 7t14 16t14 28.5z" />
    <glyph glyph-name="twooldstyle" unicode="&#xf732;" horiz-adv-x="412" 
d="M2 0q-11 0 -11 9t11 14q14 6 42.5 21t62.5 36t70 47t65.5 54t48.5 56.5t19 54.5q0 30 -21.5 52.5t-60.5 22.5q-33 0 -60 -14t-44 -34q-9 -11 -15 -11q-5 0 -10.5 4t-5.5 8q0 3 2 6.5t4 7.5q7 10 20.5 24t34 27t48 22t63.5 9q20 0 41.5 -6t39 -18.5t29 -33t11.5 -49.5
q0 -36 -21 -68t-55.5 -61t-78 -56t-89.5 -52q-11 -6 -10.5 -11t8.5 -5l138 3q30 0 52 31q4 5 6.5 6t8.5 -3q9 -6 6 -11l-43 -77q-5 -8 -8 -10.5t-8 -2.5q-1 0 -7 4q-2 2 -5.5 3t-10.5 1h-267z" />
    <glyph glyph-name="threeoldstyle" unicode="&#xf733;" horiz-adv-x="380" 
d="M48 -240q-34 0 -62 9t-48.5 24t-32 34.5t-11.5 39.5q0 4 2 10.5t6.5 12.5t11 10.5t15.5 4.5q22 0 33.5 -17.5t8.5 -36.5q-2 -15 -1 -20.5t8 -12.5q5 -6 23 -16t50 -10q35 0 65 16t51.5 42t34 59.5t12.5 68.5q0 33 -7.5 58t-20 43t-28 29.5t-30.5 18.5q-11 5 -11 12
q0 5 2 7.5t10 4.5q29 8 58 23t52 35t37.5 43t14.5 47q0 26 -18 46.5t-57 20.5q-36 0 -60 -13.5t-40 -30.5q-12 -14 -18 -14q-2 0 -8.5 6t-6.5 9q0 4 10 17q26 32 69.5 54t88.5 22q31 0 52.5 -9t35 -23t19.5 -30.5t6 -31.5q0 -29 -16 -55.5t-40 -49t-51.5 -40t-50.5 -27.5
q15 -8 30 -22.5t26.5 -34t19 -43.5t7.5 -51q0 -41 -18 -83.5t-50 -77t-76.5 -56.5t-96.5 -22z" />
    <glyph glyph-name="fouroldstyle" unicode="&#xf734;" horiz-adv-x="490" 
d="M267 50l104 244q5 11 -2 14t-17 -6l-250 -231q-10 -9 -8 -15t14 -6h159zM311 0l-70 -181q-5 -15 -16 -15h-49q-11 0 -5 16l76 180h-228q-16 0 -18 9.5t10 20.5l440 397q10 8 14 10.5t9 2.5q8 0 11 -6t1 -10l-154 -374h102q5 0 7 -3t-1 -10l-12 -30q-2 -5 -7 -6t-13 -1
h-97z" />
    <glyph glyph-name="fiveoldstyle" unicode="&#xf735;" horiz-adv-x="340" 
d="M323 406q23 1 32 4.5t17 14.5q6 8 8.5 10.5t5.5 2.5h11q6 0 1 -10l-36 -79q-4 -8 -13.5 -10t-26.5 -2h-161l-35 -112q26 -14 55.5 -35.5t50.5 -46.5q26 -31 36.5 -67.5t10.5 -65.5q0 -54 -18 -100t-48.5 -79.5t-70.5 -52.5t-84 -19q-27 0 -51 6.5t-42 18t-29 27.5t-11 34
q0 14 8 26t24 12q17 0 25.5 -15t16.5 -34q7 -17 27 -30t49 -13q26 0 50.5 13.5t44 37t31 55.5t11.5 70q0 43 -8.5 70.5t-26.5 53.5q-15 22 -42 43t-53 34q-13 6 -7 22l70 207q2 7 6 8t13 1h159z" />
    <glyph glyph-name="sixoldstyle" unicode="&#xf736;" horiz-adv-x="450" 
d="M205 17q37 0 66.5 30t49.5 70.5t30.5 83t10.5 66.5q0 48 -25 72.5t-56 24.5q-41 0 -70 -24.5t-47.5 -60.5t-27 -77t-7.5 -74q0 -29 7 -50t18 -34.5t24.5 -20t26.5 -6.5zM204 -10q-26 0 -51.5 8.5t-46 27.5t-33 48.5t-12.5 71.5q0 95 44.5 184t122.5 168q48 48 101.5 83.5
t102.5 58.5q8 4 15 6.5t12 2.5q6 0 9 -6.5t3 -11.5q0 -8 -19 -16q-31 -12 -67 -38t-70.5 -58.5t-63.5 -69t-44 -70.5q-3 -6 0.5 -7t8.5 1q20 11 39.5 17t45.5 6q33 0 57.5 -11.5t41 -31t24.5 -46t8 -57.5q0 -38 -16 -83t-46 -84.5t-72 -66t-94 -26.5z" />
    <glyph glyph-name="sevenoldstyle" unicode="&#xf737;" horiz-adv-x="400" 
d="M424 406q17 0 17 -10q0 -9 -8 -18q-2 -3 -15 -25.5l-28.5 -50l-30 -52.5l-18.5 -32q-50 -80 -91 -152.5l-73.5 -131.5l-55.5 -101.5t-36 -63.5q-8 -14 -18.5 -25t-29.5 -11q-11 0 -18.5 6.5t-7.5 20.5q0 11 4.5 21t12.5 21q4 5 24.5 36l50.5 76.5l66 100.5l71 109.5
l65 102l49 78.5q10 17 7 28t-26 11h-163q-21 0 -36.5 -8.5t-27 -20.5t-19.5 -25t-15 -23q-4 -7 -16 -4q-10 2 -4 14l76 156q4 9 13 9q5 0 6 -4.5t1 -7.5q2 -18 15.5 -21.5t22.5 -3.5z" />
    <glyph glyph-name="eightoldstyle" unicode="&#xf738;" horiz-adv-x="440" 
d="M339 612q-36 0 -58 -15.5t-33.5 -35t-15.5 -38.5t-4 -26q0 -25 3.5 -41.5t12 -32t22.5 -32.5l36 -44q24 14 48 29.5t42.5 36t30 46t11.5 59.5q0 16 -7.5 33t-20 30.5t-30 22t-37.5 8.5zM210 20q24 0 46 8t39 24t27 40.5t10 57.5q0 23 -7 43t-18 37.5t-23.5 33.5t-22.5 31
q-26 -12 -52.5 -28t-47.5 -37.5t-34.5 -49t-13.5 -60.5q0 -25 9 -44t23.5 -31.5t31.5 -18.5t33 -6zM204 -10q-39 0 -68 12t-48.5 30.5t-29 40.5t-9.5 41q0 37 14 66.5t39.5 54.5t60.5 45.5t77 39.5l-39.5 52.5t-24 38.5t-11.5 33t-3 37q0 25 11 54t32.5 53.5t54 40.5
t75.5 16q46 0 77.5 -12.5t50 -31t26.5 -39.5t8 -38q0 -41 -15 -72.5t-40 -55t-56 -41.5t-63 -32q25 -32 41 -55.5t24.5 -42t11 -33.5t2.5 -29q0 -23 -9.5 -53t-32.5 -56.5t-61 -45t-95 -18.5z" />
    <glyph glyph-name="nineoldstyle" unicode="&#xf739;" horiz-adv-x="457" 
d="M286 385q-38 0 -66.5 -28t-47.5 -66.5t-29 -79.5t-10 -67q0 -18 4 -36t12.5 -32.5t22.5 -24t35 -9.5q37 0 66.5 19.5t50.5 53t32.5 77.5t11.5 93q0 43 -23 71.5t-59 28.5zM284 416q43 0 71.5 -16t43.5 -35q12 -16 19 -33t10.5 -32.5t4.5 -28.5t1 -20q0 -73 -34.5 -149
t-91.5 -144t-129 -122.5t-147 -83.5q-8 -3 -13 -3q-4 0 -6.5 5.5t-2.5 10.5t4 7t9 4q32 14 72.5 46.5t79 71t69 77t41.5 65.5l-6 4q-14 -10 -36.5 -18.5t-46.5 -8.5q-40 0 -66 15.5t-41 38t-21 48t-6 45.5q0 41 16.5 86.5t46 83t70.5 62t89 24.5z" />
    <glyph glyph-name="commasuperior" unicode="&#xf6e2;" horiz-adv-x="150" 
d="M49 278h-6t-4 8q-1 6 1.5 8t7.5 4q8 2 20 8.5t23 16t18.5 22t7.5 27.5q0 16 -5 24.5t-16 19.5l-13.5 13t-10.5 25q0 16 10 28t28 12q15 0 26.5 -9t19.5 -21.5t12 -27t4 -25.5q0 -38 -17 -63.5t-38.5 -41t-41.5 -22t-26 -6.5z" />
    <glyph glyph-name="threequartersemdash" unicode="&#xf6de;" horiz-adv-x="750" 
d="M773 217h-750v54h750v-54z" />
    <glyph glyph-name="periodsuperior" unicode="&#xf6e8;" horiz-adv-x="150" 
d="M125 389q-20 0 -33 13t-13 33q0 14 11 29.5t34 15.5q15 0 24.5 -5.5t15 -13t7.5 -15t2 -11.5q0 -17 -13.5 -31.5t-34.5 -14.5z" />
    <glyph glyph-name="asuperior" unicode="&#xf6e9;" horiz-adv-x="324" 
d="M293 480q0 15 -7 22.5t-25 7.5q-27 0 -53 -21t-46.5 -49.5t-33.5 -58.5t-13 -49q0 -14 5 -26.5t19 -12.5t34.5 14.5t41 34.5t37 42t22.5 36q19 41 19 60zM373 533q7 0 3 -8l-10 -23.5l-15 -35.5l-15.5 -38t-12.5 -30t-10.5 -26.5l-10.5 -30t-8.5 -26t-3.5 -12.5
q0 -9 7 -9q4 0 11 5t14.5 11t14 12.5l9.5 9.5q3 4 7 1l10 -10q4 -4 0 -8q-3 -5 -15 -15.5t-28 -21.5t-34.5 -19t-34.5 -8q-22 0 -22 14q0 9 5.5 26.5t23.5 62.5l-4 2q-8 -13 -24.5 -31t-36.5 -34.5t-42.5 -28t-42.5 -11.5q-53 0 -53 63q0 34 20 73.5t51 73t69 56t75 22.5
q26 0 36.5 -9.5t13.5 -17.5l9 15q4 6 12 6h32z" />
    <glyph glyph-name="bsuperior" unicode="&#xf6ea;" horiz-adv-x="330" 
d="M119 305q0 -17 8 -20.5t22 -3.5q21 0 48 17.5t51 45.5t40.5 62t16.5 66q0 9 -7.5 16t-21.5 7q-10 0 -23.5 -7t-28.5 -18.5t-30 -26.5t-27 -31q-10 -13 -18.5 -28.5t-15 -31t-10.5 -28t-4 -19.5zM174 456l4 -1q12 16 27 31t31.5 27t34.5 19t35 7q32 0 46 -14.5t14 -36.5
q0 -15 -4.5 -34t-15 -41.5t-27.5 -47t-42 -48.5q-28 -27 -65.5 -46.5t-91.5 -19.5q-32 0 -46 13t-14 32q0 8 2.5 19t7.5 20l72.5 168.5l68.5 158.5q2 5 2.5 8.5t0.5 7.5q0 10 -17 10h-20q-8 0 -6 7l5 16q2 5 8 5h96q5 0 6 -3.5t-1 -8.5z" />
    <glyph glyph-name="centsuperior" unicode="&#xf6e0;" horiz-adv-x="325" 
d="M195 331l-18 3q-5 1 -3 8l18 72q-38 0 -64.5 20t-26.5 66q0 28 12.5 62.5t35.5 67.5t54 59.5t69 40.5l18 76q1 6 7 6l20 -5q5 -2 3 -7l-15 -61q5 1 11.5 1.5t13.5 0.5q16 0 31.5 -8t15.5 -25q0 -19 -9.5 -26t-17.5 -7q-15 0 -22 8q-4 5 -12 9.5t-22 4.5l-63 -244
q23 2 41 9.5t32 15.5q5 2 7 1t5 -3l2 -6q7 -7 -2 -14q-9 -6 -32.5 -20.5t-61.5 -18.5l-20 -83q-2 -5 -7 -3zM202 453l60 240q-11 -3 -23.5 -12.5t-24.5 -25.5q-10 -13 -19.5 -31t-16.5 -37.5t-11.5 -39.5t-4.5 -37q0 -24 12 -38.5t28 -18.5z" />
    <glyph glyph-name="dsuperior" unicode="&#xf6eb;" horiz-adv-x="330" 
d="M292 473q0 17 -10 26.5t-29 9.5q-27 0 -52 -22t-43.5 -52.5t-30 -62.5t-11.5 -51q0 -10 6 -18t22 -8q8 0 21 8.5t28 21t29.5 27.5t24.5 28l15 22t15 24.5t11 24.5t4 22zM433 716q7 0 8.5 -4.5t-0.5 -9.5q-3 -6 -13.5 -33.5l-25.5 -66.5l-32 -84l-31.5 -85.5l-25.5 -71
t-14 -40.5q-8 -28 3 -28q3 0 10 4t14.5 10l14 11.5t9.5 8.5t8 0l9 -9q2 -5 0 -7l-12 -12t-25.5 -20.5t-34.5 -19t-40 -8.5q-22 0 -22 17q0 10 10 38.5t21 56.5l-5 1q-13 -19 -30.5 -39t-38 -36.5t-42.5 -27t-43 -10.5q-22 0 -35.5 13.5t-13.5 37.5q0 19 6.5 42t19 47
t29.5 48t38 45l20.5 17.5t26.5 18t33 14t38 5.5q17 0 28 -6.5t22 -17.5l53 152q2 8 -1 14.5t-18 6.5h-22q-8 0 -6 5l5 19q1 4 9 4h96z" />
    <glyph glyph-name="esuperior" unicode="&#xf6ec;" horiz-adv-x="275" 
d="M140 407q8 -1 29 4t42.5 14.5t38 23t16.5 31.5q0 10 -5.5 17t-19.5 7q-18 0 -35 -12t-30.5 -27.5t-23 -32t-12.5 -25.5zM64 317q0 43 27 92t70 85q19 16 48.5 30.5t62.5 14.5q26 0 37 -12.5t11 -28.5q0 -30 -20.5 -51.5t-55.5 -36.5q-33 -14 -63 -21t-50 -9
q-3 -8 -4.5 -18t-1.5 -29q0 -25 12 -35.5t29 -10.5q26 0 46.5 13.5t41.5 32.5q5 4 8 1l8 -8q4 -4 2 -7q-8 -9 -20 -20.5t-29 -22t-38 -18t-45 -7.5q-42 0 -59 16.5t-17 49.5z" />
    <glyph glyph-name="isuperior" unicode="&#xf6ed;" horiz-adv-x="200" 
d="M213 656q-13 0 -20.5 4t-12 9.5t-6 11.5t-1.5 9q0 14 10.5 24t30.5 10q22 0 31.5 -10.5t9.5 -21.5q0 -10 -8.5 -23t-33.5 -13zM104 251q-19 1 -19 17q0 11 10 38.5l30 83.5l20 53l8.5 24t3.5 16q0 7 -9 7q-5 0 -12 -5.5t-15.5 -13.5t-16 -16l-12.5 -13q-3 -3 -8 0l-8 7
q-2 1 -2 3t2 4q4 6 15.5 20t28 28.5t37 25t41.5 9.5q23 0 23 -17q0 -9 -7 -30t-16 -45l-39 -103q-13 -36 -13 -44q0 -3 1.5 -6t6.5 -3q4 0 12.5 6t17 13.5t15.5 14.5t9 10q3 5 7 1l8 -7q4 -3 2 -8q-1 -2 -10.5 -13.5t-26 -24t-38 -22.5t-46.5 -10z" />
    <glyph glyph-name="lsuperior" unicode="&#xf6ee;" horiz-adv-x="200" 
d="M92 251q-19 0 -19 20q0 4 3 13l6.5 19.5t8 21.5t7.5 19l120 306q7 17 5.5 27.5t-15.5 10.5h-20q-8 0 -6 6l6 17q2 5 10 5h92q8 0 4 -12l-145 -372q-6 -15 -6.5 -24t5.5 -9q3 0 10 3.5t14 8t14 10t10 8.5q4 4 8 0l7 -8q2 -4 0 -8q-1 -2 -11.5 -12t-27.5 -21t-38 -20
t-42 -9z" />
    <glyph glyph-name="msuperior" unicode="&#xf6ef;" horiz-adv-x="528" 
d="M72 258q-6 0 -4 7l53 126l12.5 29t11.5 28l8.5 22.5t3.5 11.5q0 9 -6 9q-3 0 -11.5 -5t-17.5 -12l-17.5 -14t-11.5 -11q-4 -5 -9 -1l-7 9q-3 3 0 8q6 6 17.5 18.5t28 25t36 21.5t41.5 9q21 0 21 -20q0 -5 -7 -21l-15.5 -35l-16.5 -35.5t-10 -21.5l3 -1q12 17 31 40
t41.5 44t47.5 35.5t49 14.5q20 0 27.5 -10.5t7.5 -19.5q0 -7 -4.5 -21.5t-11 -30.5t-13.5 -31l-11 -24h4q14 20 32.5 44t40 44.5t45.5 34.5t48 14q19 0 28 -11t9 -23t-10 -37l-32 -78l-20.5 -50t-8.5 -29q0 -9 7 -9q4 0 13 6.5t17.5 15t15.5 16.5t9 10q3 5 9 1l8 -7
q4 -3 0 -11q-2 -3 -13.5 -16t-29.5 -27.5t-39.5 -26.5t-41.5 -12t-20 17q0 14 13 47.5l34 84.5l22.5 56.5t7.5 26.5q0 13 -13 13q-9 0 -24.5 -10.5t-34.5 -28t-38.5 -39.5t-35.5 -45l-12 -18.5t-16 -31.5l-24 -61q-1 -4 -10 -4h-38q-8 0 -6 6l48 115l25.5 65t11.5 38
q0 12 -13 12q-9 0 -24.5 -9.5t-33.5 -25t-36.5 -35.5t-33.5 -41q-8 -11 -17 -25.5t-17 -33.5l-25 -62q-3 -4 -12 -4h-36z" />
    <glyph glyph-name="nsuperior" unicode="&#x207f;" horiz-adv-x="360" 
d="M122 262q-2 -2 -3.5 -3t-6.5 -1h-37q-6 0 -7.5 1t-0.5 5l49 128q6 16 12.5 31t11 28l7.5 21.5t3 11.5q0 11 -10 11q-5 0 -12.5 -3.5t-15.5 -8.5t-15.5 -11t-11.5 -10q-6 -6 -10 -1l-6 8q-3 3 1 9q3 4 13 14t25.5 20.5t35 18.5t40.5 8q15 0 21 -6.5t6 -15.5
q0 -8 -4.5 -20.5t-10.5 -26.5l-11.5 -26t-7.5 -18l3 -1q8 12 25 31.5t39.5 38t48 31.5t51.5 13q40 0 40 -34q0 -17 -9 -42.5t-26 -67.5l-25 -61t-11 -32q0 -9 10 -9q4 0 11 3.5t14.5 9l14.5 11t10 9.5q3 3 6 0l7 -8q4 -5 -1 -10q-3 -4 -14 -13.5t-27 -19t-35.5 -17
t-39.5 -7.5q-8 0 -14 4.5t-6 12.5q0 4 4 15.5t10.5 28l14.5 37l17 42.5l9 23t9 25l7 21.5t3 13.5q0 8 -4 13.5t-13 5.5q-12 0 -28.5 -8.5t-34 -22.5t-34 -31.5t-28.5 -35.5q-10 -15 -19 -32.5t-23 -54.5z" />
    <glyph glyph-name="osuperior" unicode="&#xf6f0;" horiz-adv-x="324" 
d="M172 282q17 0 39 20t41.5 48.5t32.5 60t12 54.5q1 19 -9.5 30t-33.5 11t-45 -18.5t-39 -46t-27.5 -59.5t-10.5 -60q0 -16 9.5 -28t30.5 -12zM167 251q-15 0 -30.5 4t-28 14.5t-21 28t-8.5 44.5q0 29 10.5 63.5t32.5 64t55 49.5t77 20q41 0 65.5 -24.5t24.5 -58.5
q0 -26 -9.5 -61t-31 -67t-55 -54.5t-81.5 -22.5z" />
    <glyph glyph-name="rsuperior" unicode="&#xf6f1;" horiz-adv-x="260" 
d="M114 374q5 14 10.5 32l10.5 35t8 30t3 16q0 10 -10 10q-5 0 -12.5 -4t-15.5 -10t-14.5 -12.5l-10.5 -10.5q-3 -3 -8 0l-7 7q-3 3 1 8l14.5 17t23 21.5t31 18t37.5 7.5q15 0 20 -7t5 -17q1 -9 -6 -34.5t-18 -55.5l3 -2l19 32t27.5 38.5t33 32t36.5 13.5q14 0 23.5 -8.5
t9.5 -25.5q0 -18 -9 -27.5t-20 -9.5q-6 0 -10.5 1t-9.5 6q-8 7 -18 7q-7 0 -17.5 -8t-21.5 -21.5t-23 -30t-22 -32.5q-6 -10 -12 -23t-14 -36l-22 -68q-2 -5 -9 -5h-38q-8 0 -6 6z" />
    <glyph glyph-name="ssuperior" unicode="&#xf6f2;" horiz-adv-x="235" 
d="M125 251q-39 0 -60 11.5t-21 31.5q0 7 7.5 15.5t19.5 8.5q14 0 21.5 -6.5t10.5 -14.5q4 -8 9.5 -13.5t21.5 -5.5q20 0 33.5 11t13.5 25q0 9 -4 18.5t-10 19l-12.5 19t-10.5 17.5l-15 25t-9 43q0 15 8 30t22 26.5t33 19t42 7.5q10 0 20.5 -2t19 -6.5t14 -12t5.5 -19.5
q0 -9 -8 -16t-16 -7t-15.5 3.5t-10.5 10.5q-5 9 -8 15t-20 6q-11 0 -24 -11t-13 -25q0 -9 3.5 -19t8.5 -18t10 -15l7 -10q3 -3 8.5 -10.5t11 -18t9.5 -23.5t4 -26q0 -39 -31.5 -61.5t-74.5 -22.5z" />
    <glyph glyph-name="tsuperior" unicode="&#xf6f3;" horiz-adv-x="230" 
d="M113 488q-8 0 -5 7l8 21q2 5 7 5h49l35 78q3 7 11 10q5 2 16.5 4t24.5 8q8 4 11 4q7 0 0 -14l-44 -90h74q5 0 2 -8l-8 -18q-2 -7 -7 -7h-74l-62 -144q-8 -17 -12 -26.5t-4 -14.5q0 -9 13 -9q5 0 14.5 4.5t19.5 11t19 13t14 10.5q6 4 8 0l9 -9q4 -4 -1 -9q-3 -3 -15 -13.5
t-30.5 -21.5t-42.5 -20t-50 -9q-14 0 -19 4.5t-5 11.5q0 8 2.5 16t5.5 16l82 189h-46z" />
    <glyph glyph-name="parenleftinferior" unicode="&#x208d;" horiz-adv-x="200" 
d="M51 8q0 42 16 85.5t46.5 85.5t74.5 80t100 68q7 4 15 -5q9 -10 -3 -16q-46 -27 -82.5 -63t-61.5 -76.5t-38.5 -84t-13.5 -84.5q0 -44 3.5 -72.5t8.5 -46.5t10 -27l8 -14q4 -7 -7 -10q-6 -2 -9 -1.5t-6 3.5q-9 11 -19.5 27.5t-20 38.5t-15.5 50t-6 62z" />
    <glyph glyph-name="parenrightinferior" unicode="&#x208e;" horiz-adv-x="200" 
d="M115 155q0 44 -4 72.5t-9.5 46.5t-11 27.5l-8.5 14.5q-4 7 7 10q6 2 9 1.5t6 -3.5q9 -11 20.5 -28t21 -39.5t16 -50.5t6.5 -61q0 -43 -15.5 -87t-45 -85t-72.5 -78.5t-98 -67.5q-7 -4 -15 5q-8 10 2 16q46 27 81.5 62.5t60 76t37 83.5t12.5 85z" />
    <glyph glyph-name="hyphensuperior" unicode="&#xf6e6;" horiz-adv-x="210" 
d="M88 554v25q0 4 1.5 6t7.5 2h152q10 0 9 -7v-24q0 -7 -8 -7h-154q-8 0 -8 5z" />
    <glyph glyph-name="colonmonetary" unicode="&#x20a1;" 
d="M404 33q-3 -5 -7 -4l-16 4q-3 2 -2 7q2 8 2 15q0 16 -13 16q-5 0 -12 -3.5t-19 -8.5q-11 -5 -31 -11.5t-42 -9.5l-25 -72q-3 -9 -8 -7l-17 7q-6 1 -3 10l22 60q-8 -1 -26 0.5t-26 4.5l-23 -68q-3 -5 -8 -4l-17 6q-5 2 -2 10l23 66q-43 21 -63.5 66.5t-20.5 105.5
q0 30 8.5 65.5t24 72.5t38 73t50.5 68q30 35 69 60.5t80 35.5l28 78q1 3 3.5 5.5t5.5 0.5l16 -7q5 -1 1 -14l-20 -59q3 1 11 1q22 0 40 -6l24 73q2 5 8 3l17 -7q6 -2 2 -9l-26 -72q11 -7 21 -17q7 -6 15 -15t13 -10q6 0 9.5 5.5t7.5 19.5q3 8 9 6l11 -3q7 -2 5 -9l-46 -178
q-2 -4 -3.5 -5.5t-6.5 0.5l-12 2q-3 1 -4.5 2t0.5 6q15 54 7.5 97.5t-36.5 66.5l-165 -480q18 2 39.5 9t44 23.5t43 45t37.5 72.5q2 5 3.5 6.5t4.5 0.5l15 -5q5 -2 4 -8zM327 560q-27 -11 -51 -34.5t-49 -58.5q-24 -35 -40.5 -71.5t-26.5 -70t-14 -62t-4 -46.5
q0 -35 9 -60.5t24 -42.5zM415 568q-14 4 -27.5 4t-24.5 -2l-164 -477q13 -9 25.5 -13.5t20.5 -4.5z" />
    <glyph glyph-name="rupiah" unicode="&#xf6dd;" horiz-adv-x="1027" 
d="M707 35q45 6 89 24.5t78.5 48t56 68t21.5 84.5q0 29 -8 50.5t-20.5 36t-29 21.5t-32.5 7q-11 0 -19 -1t-13 -2zM189 106q-14 -43 -4.5 -57.5t41.5 -14.5h41q9 0 7 -8l-3 -23q-1 -6 -12 -6q-8 0 -41 1.5t-89 1.5q-45 0 -73 -1.5t-37 -1.5q-8 0 -6 8l4 21q1 8 10 8h19
q27 0 41 14.5t21 35.5l145 459q15 50 -15 50h-39q-10 0 -8 8l5 21q1 5 3 6.5t10 1.5q51 0 94.5 1.5t84.5 1.5q36 0 78.5 -3t78.5 -16t60 -40t24 -74q0 -35 -18.5 -66t-49 -56t-69 -42.5t-78.5 -24.5v-2q18 -5 27 -18.5t15 -26.5q3 -7 15 -30.5l26.5 -51l28.5 -53.5t21 -37
q18 -31 37.5 -45t57.5 -13l116 320q-17 -6 -35 -17t-34.5 -24t-30 -26t-21.5 -23q-4 -6 -9 -1l-11 10q-5 5 -1 9q26 32 63 63.5t93 53.5l32 93q2 7 6.5 9.5t9.5 4.5l62 22q2 1 7 1q3 0 3 -4q0 -5 -2 -8l-46 -104q5 1 10 1.5t10 0.5q5 1 10.5 1h9.5q36 0 62 -11.5t43 -30.5
t25 -43t8 -48q0 -53 -26.5 -105.5t-92.5 -102.5q-17 -12 -40 -24t-50 -22t-57 -18t-61 -11l-71 -198q-14 -41 -7 -55.5t39 -14.5h28q6 0 6 -8l-6 -18l-4 -4t-8 -2q-8 0 -32.5 1.5t-72.5 1.5q-52 0 -75.5 -1.5t-31.5 -1.5q-9 0 -7 6l5 18q2 8 8 8h23q27 0 42 20t31 63l67 183
q5 1 -6.5 1.5t-33.5 0.5q-17 0 -29 -0.5t-20 -0.5q-9 -1 -14.5 -1.5t-10.5 -0.5q-6 0 -11 7t-16 25q-4 6 -13 24.5l-21 43.5l-26 52.5l-25.5 51.5t-20.5 41l-11 21q-10 16 -25 23.5t-31 10.5t-32.5 3h-29.5zM262 332q37 0 82.5 1.5t103.5 24.5q21 9 39 23t32 32t22 38.5
t8 43.5q0 14 -7.5 32.5t-26 35t-49 28t-76.5 11.5q-14 0 -24.5 -0.5t-19.5 -2.5z" />
    <glyph glyph-name="centoldstyle" unicode="&#xf7a2;" horiz-adv-x="300" 
d="M110 -74q-5 1 -3 9l20 80q-43 0 -73 22.5t-30 73.5q0 32 14.5 70.5t40.5 75t61.5 66.5t77.5 45l21 85q1 6 7 6l24 -5q5 -2 3 -8l-17 -68q5 1 12.5 1.5t15.5 0.5q19 0 36.5 -8.5t17.5 -28.5t-11 -28.5t-20 -8.5q-16 0 -25 10q-5 5 -13.5 10t-25.5 5l-71 -272q26 2 46 10
t36 17q6 3 8.5 1.5t5.5 -3.5l3 -6q8 -9 -3 -16l-37 -23t-70 -21l-23 -92q-1 -6 -8 -4zM208 327q-13 -3 -27.5 -14.5t-26.5 -26.5q-12 -16 -23.5 -36.5t-19.5 -42.5t-13 -44t-5 -41q0 -26 14 -42.5t31 -20.5z" />
    <glyph glyph-name="figuredash" unicode="&#x2012;" 
d="M23 217v54h500v-54h-500z" />
    <glyph glyph-name="hypheninferior" unicode="&#xf6e5;" horiz-adv-x="210" 
d="M33 79v25q0 4 1.5 6t7.5 2h152q10 0 9 -7v-24q0 -7 -8 -7h-154q-8 0 -8 5z" />
    <glyph glyph-name="oneeighth" unicode="&#x215b;" horiz-adv-x="700" 
d="M82 281q16 0 27.5 4t21.5 24q2 5 7 19.5l15 44.5l42 132l13.5 40.5t4.5 17.5q0 8 -8 8q-9 0 -41 -13l-32 -13q-4 -2 -7 4l-6 12q-1 2 -0.5 3.5t4.5 3.5l142 70q15 7 22 7q9 0 9 -7q0 -2 -0.5 -6t-2.5 -10q-5 -12 -11.5 -30l-14 -39l-15 -42.5t-13.5 -40.5l-28 -89
q-10 -29 -14.5 -46t-5.5 -23q-5 -18 -0.5 -24.5t19.5 -6.5h27q7 0 5 -5l-3 -16q-2 -5 -7 -5q-2 0 -15 0.5t-29 1l-31 1t-20 0.5q-6 0 -20.5 -0.5t-30.5 -1t-28.5 -1t-14.5 -0.5q-6 0 -3 5l3 16q2 5 7 5h32zM156 1q-3 1 -3 5q0 5 4 12l408 623q3 4 6 4t7 -2l22 -14q4 -1 4 -5
q0 -3 -3 -7l-410 -625q-4 -7 -8 -7t-8 3zM588 211q33 18 56.5 42t23.5 56q0 5 -2.5 13.5t-9 17t-17.5 14.5t-27 6q-27 0 -50 -17t-23 -45q0 -22 13 -42.5t36 -44.5zM519 21q20 0 34.5 6.5t23.5 16t13.5 20.5t4.5 20q-1 16 -6 29.5t-12 24t-14.5 17.5t-11.5 12
q-11 -5 -25 -12.5t-26 -19t-20.5 -26.5t-8.5 -34q0 -23 16 -38.5t32 -15.5zM624 387q45 0 69.5 -21.5t24.5 -50.5q0 -25 -13.5 -46t-31.5 -36.5t-36.5 -26.5l-28.5 -17l29 -35.5t14 -47.5q0 -22 -9.5 -42.5t-27 -36t-42 -25t-53.5 -9.5q-31 0 -50.5 9t-30 22t-14.5 26.5
t-4 21.5q0 25 13 43.5t31 32.5t37.5 24t31.5 18l-14 14.5t-15.5 19.5t-12.5 24.5t-5 28.5q0 18 9.5 37.5t27 35.5t43 26.5t58.5 10.5z" />
    <glyph glyph-name="threeeighths" unicode="&#x215c;" horiz-adv-x="700" 
d="M135 251q-45 0 -68.5 21.5t-23.5 45.5q0 9 6.5 18t19.5 9q18 0 22.5 -13.5t2.5 -24.5q-2 -8 11.5 -18.5t31.5 -10.5q21 0 40.5 8.5t33.5 23.5t22.5 35t8.5 43q0 24 -12.5 42.5t-33.5 26.5q-7 3 -8.5 5t-1.5 6q0 2 1.5 5t8.5 5q10 2 24.5 8.5t27.5 17.5t22.5 26t9.5 34
q0 6 -2 13t-7.5 13.5t-14.5 11t-24 4.5q-22 0 -38.5 -14.5t-26.5 -28.5q-9 -14 -15 -9l-10 8q-2 3 1 10q5 9 15 21.5t24 24t33.5 19.5t43.5 8q22 0 37.5 -6t25 -14.5t14 -18.5t4.5 -19q0 -35 -25.5 -61t-61.5 -45q29 -15 41 -37t12 -49q0 -31 -15 -57t-39.5 -45.5t-55 -30.5
t-61.5 -11zM166 1q-3 1 -3 5q0 5 4 12l408 623q3 4 6 4t7 -2l22 -14q4 -1 4 -5q0 -3 -3 -7l-410 -625q-4 -7 -8 -7t-8 3zM588 211q33 18 56.5 42t23.5 56q0 5 -2.5 13.5t-9 17t-17.5 14.5t-27 6q-27 0 -50 -17t-23 -45q0 -23 13 -43t36 -44zM519 21q20 0 34.5 6.5t23.5 16
t13.5 20.5t4.5 20q-1 16 -6 29t-12 23.5t-14.5 18.5t-11.5 13l-25 -13.5t-26 -19t-20.5 -26.5t-8.5 -34q0 -23 16 -38.5t32 -15.5zM624 387q45 0 69.5 -21.5t24.5 -50.5q0 -25 -13.5 -46t-31.5 -36.5t-37 -26.5l-29 -17q16 -18 30 -36t14 -47q0 -22 -9.5 -42.5t-27 -36
t-42 -25t-53.5 -9.5q-31 0 -50.5 9t-30 22t-14.5 26.5t-4 21.5q0 25 13 43.5t31 32.5t37.5 24t31.5 18q-6 6 -14 15t-15.5 20t-12.5 24t-5 28q0 18 9.5 37.5t27 35.5t43 26.5t58.5 10.5z" />
    <glyph glyph-name="fiveeighths" unicode="&#x215d;" horiz-adv-x="700" 
d="M175 516l1 -2q7 0 27.5 -3.5t41.5 -13.5q35 -16 47 -42t12 -54q0 -23 -11.5 -49.5t-34 -49t-56.5 -37t-78 -14.5q-11 0 -23 1.5t-22.5 5.5t-17.5 10t-7 14q0 11 7 16.5t13 5.5q7 0 12.5 -3t10.5 -7q15 -12 40 -12q27 0 47 9.5t33.5 23.5t20.5 30t7 29q0 29 -9 48t-30 31
q-10 5 -27.5 9.5t-29.5 4.5q-16 0 -19 2q-3 5 -1 10l60 154q2 5 9 5h110q18 0 25.5 6.5t15.5 16.5q4 5 11 0q9 -5 7 -9l-36 -60q-3 -5 -19 -5h-107zM166 1q-3 1 -3 5q0 5 4 12l408 623q3 4 6 4t7 -2l22 -14q4 -1 4 -5q0 -3 -3 -7l-410 -625q-4 -7 -8 -7t-8 3zM588 211
q33 17 56.5 41.5t23.5 56.5q0 5 -2.5 13.5t-9 17t-17.5 14.5t-27 6q-27 0 -50 -17t-23 -45q0 -23 13 -43t36 -44zM519 21q20 0 34.5 6.5t23.5 16t13.5 20.5t4.5 20q-1 16 -6 29.5t-12 24t-14.5 18t-11.5 12.5l-25 -13.5t-26 -19t-20.5 -26.5t-8.5 -34q0 -23 16 -38.5
t32 -15.5zM624 387q45 0 69.5 -21.5t24.5 -50.5q0 -25 -13.5 -46t-31.5 -36.5t-36.5 -26.5l-28.5 -17l29 -36t14 -47q0 -22 -9.5 -42.5t-27 -36t-42 -25t-53.5 -9.5q-31 0 -50.5 9t-30 22t-14.5 26.5t-4 21.5q0 25 13 43.5t31 32.5t37.5 24t31.5 18q-6 7 -14 15.5
t-15.5 19.5t-12.5 24t-5 28q0 18 9.5 37.5t27 35.5t43 26.5t58.5 10.5z" />
    <glyph glyph-name="seveneighths" unicode="&#x215e;" horiz-adv-x="700" 
d="M354 638q7 0 7 -6q0 -2 -1.5 -5.5t-3.5 -5.5q-1 -2 -9.5 -15l-18.5 -29l-19 -30.5t-11 -18.5q-2 -3 -10.5 -19l-21 -39l-27.5 -50.5l-28.5 -52.5l-24 -45l-15.5 -29q-9 -19 -17 -30.5t-25 -11.5q-12 0 -16 7t-4 15t5.5 16.5l10.5 16.5l17 24.5l26 38.5l27.5 42l22.5 36
l18 29.5l25 41l25 41t17 28.5h-103q-17 0 -28 -2t-19.5 -6.5t-15 -12t-13.5 -17.5q-5 -7 -15 -1q-7 4 -4 12l48 92q2 4 4 6t7 0q7 -2 8 -4t0 -7q-1 -9 22 -9h160zM126 1q-3 1 -3 5q0 5 4 12l408 623q3 4 6 4t7 -2l22 -14q4 -1 4 -5q0 -3 -3 -7l-410 -625q-4 -7 -8 -7t-8 3z
M568 211q33 17 56.5 41.5t23.5 56.5q0 5 -2.5 13.5t-9 17t-17.5 14.5t-27 6q-27 0 -50 -17t-23 -45q0 -23 13 -43t36 -44zM499 21q20 0 34.5 6.5t23.5 16t13.5 20.5t4.5 20q-1 16 -6 29.5t-12 24t-14.5 18t-11.5 12.5l-25 -13.5t-26 -19t-20.5 -26.5t-8.5 -34
q0 -23 16 -38.5t32 -15.5zM604 387q45 0 69.5 -21.5t24.5 -50.5q0 -25 -13.5 -45.5t-31.5 -36.5t-36.5 -27l-28.5 -17l29 -36t14 -47q0 -22 -9.5 -42.5t-27 -36t-42 -25t-53.5 -9.5q-31 0 -50.5 9t-30 22t-14.5 26.5t-4 21.5q0 25 13 43.5t31 32.5t37.5 24t31.5 18
q-6 7 -14 15.5t-15.5 19.5t-12.5 24t-5 28q0 18 9.5 37.5t27 35.5t43 26.5t58.5 10.5z" />
    <glyph glyph-name="onethird" unicode="&#x2153;" horiz-adv-x="700" 
d="M82 281q16 0 27.5 4t21.5 24q2 5 7 19.5l15 44.5l42 132l13.5 40.5t4.5 17.5q0 8 -8 8q-9 0 -41 -13l-32 -13q-4 -2 -7 4l-6 12q-1 2 -0.5 3.5t4.5 3.5l142 70q15 7 22 7q9 0 9 -7q0 -2 -0.5 -6t-2.5 -10q-5 -12 -11.5 -30l-14 -39l-15 -42.5t-13.5 -40.5l-28 -89
q-10 -29 -14.5 -46t-5.5 -23q-5 -18 -0.5 -24.5t19.5 -6.5h27q7 0 5 -5l-3 -16q-2 -5 -7 -5q-2 0 -15 0.5t-29 1l-31 1t-20 0.5q-6 0 -20.5 -0.5t-30.5 -1t-28.5 -1t-14.5 -0.5q-6 0 -3 5l3 16q2 5 7 5h32zM495 -7q-45 0 -68.5 21.5t-23.5 45.5q0 9 6.5 18t19.5 9
q18 0 22.5 -13.5t2.5 -24.5q-2 -8 11.5 -18.5t31.5 -10.5q21 0 40.5 8.5t33.5 23.5t22.5 35t8.5 43q0 24 -12.5 42.5t-33.5 26.5q-7 3 -8.5 5t-1.5 6q0 2 1.5 5t8.5 5q10 2 24.5 8.5t27.5 17.5t22.5 26t9.5 34q0 6 -2 13t-7.5 13.5t-14.5 11t-24 4.5q-22 0 -38.5 -14.5
t-26.5 -28.5q-9 -14 -15 -9l-10 8q-2 3 1 10q5 9 15 21.5t24 24t33.5 19.5t43.5 8q22 0 37.5 -6t25 -14.5t14 -18.5t4.5 -19q0 -35 -25.5 -61t-61.5 -45q29 -15 41 -37t12 -49q0 -31 -15 -57t-39.5 -45.5t-55 -30.5t-61.5 -11zM156 1q-3 1 -3 5q0 5 4 12l408 623q3 4 6 4
t7 -2l22 -14q4 -1 4 -5q0 -3 -3 -7l-410 -625q-4 -7 -8 -7t-8 3z" />
    <glyph glyph-name="twothirds" unicode="&#x2154;" horiz-adv-x="700" 
d="M205 302q25 0 39.5 12t25.5 30q5 6 10 4l8 -5q6 -2 1 -7q-6 -8 -13 -21.5t-13 -26.5l-10.5 -23.5t-4.5 -11.5q-2 -6 -9 -6q-5 0 -10 7q-2 3 -12.5 3.5t-25.5 0.5h-163q-8 0 -10 2t-2 6q0 7 8 13q28 23 68.5 53t77.5 64.5t63 70.5t26 71q0 10 -3 21.5t-9.5 21.5t-17 16
t-25.5 6t-27.5 -7t-22 -16.5t-16.5 -20.5t-11 -18q-6 -10 -11 -8l-11 6q-5 3 -3 9q4 11 14 27.5t26 32t38 26.5t51 11q46 0 69.5 -25t23.5 -66q0 -39 -24.5 -76t-60 -69.5t-75 -59l-69.5 -45.5l-2 -1v-1h112zM495 -7q-45 0 -68.5 21.5t-23.5 45.5q0 9 6.5 18t19.5 9
q18 0 22.5 -13.5t2.5 -24.5q-2 -8 11.5 -18.5t31.5 -10.5q21 0 40.5 8.5t33.5 23.5t22.5 35t8.5 43q0 24 -12.5 42.5t-33.5 26.5q-7 3 -8.5 5t-1.5 6q0 2 1.5 5t8.5 5q10 2 24.5 8.5t27.5 17.5t22.5 26t9.5 34q0 6 -2 13t-7.5 13.5t-14.5 11t-24 4.5q-22 0 -38.5 -14.5
t-26.5 -28.5q-9 -14 -15 -9l-10 8q-2 3 1 10q5 9 15 21.5t24 24t33.5 19.5t43.5 8q22 0 37.5 -6t25 -14.5t14 -18.5t4.5 -19q0 -35 -25.5 -61t-61.5 -45q29 -15 41 -37t12 -49q0 -31 -15 -57t-39.5 -45.5t-55 -30.5t-61.5 -11zM181 1q-3 1 -3 5q0 5 4 12l408 623q3 4 6 4
t7 -2l22 -14q4 -1 4 -5q0 -3 -3 -7l-410 -625q-4 -7 -8 -7t-8 3z" />
    <glyph glyph-name="zerosuperior" unicode="&#x2070;" horiz-adv-x="325" 
d="M282 746q-29 0 -55.5 -29t-47 -70t-32.5 -86.5t-12 -79.5q0 -37 15.5 -55.5t30.5 -18.5q32 0 59.5 30t48 73t32 91t11.5 84q0 29 -15 45t-35 16zM286 774q51 0 75 -30.5t24 -77.5q0 -50 -16 -100.5t-43.5 -92t-64 -67.5t-78.5 -26q-53 0 -78 32.5t-25 86.5q0 44 16 92.5
t43.5 89t65 67t81.5 26.5z" />
    <glyph glyph-name="foursuperior" unicode="&#x2074;" horiz-adv-x="325" 
d="M126 530h109l11 28.5l19.5 50.5l19 49t8.5 25q-8 -6 -11 -9l-150 -129l-6 -6t-4 -7q0 -2 4 -2zM228 387h-42q-7 0 -1 14l38 90h-153q-15 0 -15 15q0 5 3 8.5t11 10.5l277 241q8 8 22 8q8 0 12 -7t1 -14l-88 -223h63q7 0 2 -9l-9 -21q-2 -3 -4.5 -6t-5.5 -3h-59l-37 -92
q-4 -9 -7 -10.5t-8 -1.5z" />
    <glyph glyph-name="fivesuperior" unicode="&#x2075;" horiz-adv-x="325" 
d="M225 716l-30 -71l1 -2q7 0 27.5 -3.5t41.5 -13.5q35 -16 47 -42t12 -54q0 -23 -11.5 -49.5t-34 -49t-56.5 -37t-78 -14.5q-11 0 -23 1.5t-22.5 5.5t-17.5 10t-7 14q0 11 7 16.5t13 5.5q7 0 12.5 -3t10.5 -7q15 -12 40 -12q27 0 47 9.5t33.5 23.5t20.5 30t7 29q0 29 -9 48
t-30 31q-10 5 -27.5 9.5t-29.5 4.5q-16 0 -19 2q-3 5 -1 10l60 154q2 5 9 5h110q18 0 25.5 6.5t15.5 16.5q4 5 11 0q9 -5 7 -9l-36 -60q-3 -5 -19 -5h-107z" />
    <glyph glyph-name="sixsuperior" unicode="&#x2076;" horiz-adv-x="325" 
d="M193 407q22 0 39 12.5t29 32t18 42.5t6 43q0 23 -12.5 41t-34.5 18q-17 0 -35.5 -7t-29.5 -20q-19 -22 -24.5 -44t-7.5 -48q-1 -9 1 -21.5t7.5 -23t16 -18t27.5 -7.5zM190 380q-28 0 -47 9.5t-30.5 24.5t-16.5 32.5t-5 32.5q0 53 25 100.5t61 85.5t76.5 64.5t71.5 38.5
q12 5 17.5 5.5t9.5 0.5q10 0 10 -10t-17 -18q-57 -29 -95.5 -63.5t-64.5 -78.5l1 -2q19 13 36 18.5t40 5.5q41 0 61 -23.5t20 -58.5q0 -33 -12.5 -63t-33.5 -52.5t-49 -35.5t-58 -13z" />
    <glyph glyph-name="sevensuperior" unicode="&#x2077;" horiz-adv-x="325" 
d="M229 767h160q7 0 7 -6q0 -2 -1.5 -5.5t-3.5 -5.5q-1 -2 -9.5 -15l-18.5 -29l-19 -30.5t-11 -18.5q-2 -3 -10.5 -19l-21 -39l-27.5 -50.5l-28.5 -52.5l-24.5 -45t-15 -29q-9 -19 -17 -30.5t-25 -11.5q-12 0 -16 7t-4 15t5.5 16.5l10.5 16.5l17 24.5l26 38.5l27.5 42
l22.5 36l18 29.5l25 41l25 41t17 28.5h-103q-17 0 -28 -2t-19.5 -6.5t-15 -12t-13.5 -17.5q-5 -7 -15 -1q-7 4 -4 12l48 92q2 4 4 6t7 0q7 -2 8 -4t0 -7q-1 -9 22 -9z" />
    <glyph glyph-name="eightsuperior" unicode="&#x2078;" horiz-adv-x="325" 
d="M277 747q-29 0 -53 -17t-24 -45q0 -21 13 -42t39 -47q34 20 58.5 44t24.5 56q0 5 -2.5 13.5t-9.5 17t-18 14.5t-28 6zM180 408q21 0 36 6.5t25 16t14.5 20.5t4.5 20q0 15 -5.5 28.5t-13 24t-15 18l-12.5 12.5q-12 -5 -26.5 -12.5t-27.5 -19t-21.5 -26.5t-8.5 -34
q0 -23 16.5 -38.5t33.5 -15.5zM289 774q46 0 72 -21.5t26 -50.5q0 -25 -14 -46t-33 -36.5t-38.5 -26.5l-30.5 -17q16 -17 30.5 -36.5t14.5 -46.5q0 -22 -10 -42.5t-28 -36t-43 -25t-55 -9.5q-33 0 -53 9t-31 22t-15 26.5t-4 21.5q0 25 13.5 43.5t32.5 32.5t39 24t33 18
q-6 6 -14 15t-16 20.5t-13.5 24.5t-5.5 27q0 18 9.5 37.5t28 35.5t45 26.5t60.5 10.5z" />
    <glyph glyph-name="ninesuperior" unicode="&#x2079;" horiz-adv-x="325" 
d="M274 749q-26 0 -43.5 -15t-29 -36t-16.5 -43t-5 -37q0 -9 2.5 -19.5t8.5 -19.5t15 -15t22 -6q17 0 36 7.5t29 21.5q17 21 24 50.5t7 52.5q0 7 -2 17.5t-7 19.5t-15 15.5t-26 6.5zM277 774q50 0 73.5 -27.5t23.5 -73.5q0 -51 -23.5 -98.5t-60.5 -86t-82 -66.5t-88 -40
q-10 -2 -15 -2q-8 0 -8 11q0 4 2 7.5t12 8.5q66 30 105 64.5t67 79.5l-3 1q-14 -11 -29.5 -17t-38.5 -6q-27 0 -44 10.5t-26.5 25.5t-13 30t-3.5 24q0 26 11 53.5t30.5 50t47.5 37t63 14.5z" />
    <glyph glyph-name="zeroinferior" unicode="&#x2080;" horiz-adv-x="325" 
d="M124 -86q32 0 59.5 30t48 73t32 90.5t11.5 83.5q0 29 -15 44.5t-35 15.5q-29 0 -55.5 -28.5t-47 -69.5t-32.5 -86t-12 -79q0 -37 15.5 -55.5t30.5 -18.5zM126 -113q-53 0 -79 33t-26 88q0 44 16 92.5t43.5 88.5t65 66t81.5 26q51 0 76 -30.5t25 -78.5q0 -49 -16 -99.5
t-43.5 -92t-64 -67.5t-78.5 -26z" />
    <glyph glyph-name="oneinferior" unicode="&#x2081;" horiz-adv-x="325" 
d="M25 -83h32q16 0 27.5 4t21.5 24q2 5 7 19.5l15 44.5l42 132l13.5 40.5t4.5 17.5q0 8 -8 8q-9 0 -41 -13l-32 -13q-4 -2 -7 4l-6 12q-1 2 -0.5 3.5t4.5 3.5l142 70q15 7 22 7q9 0 9 -7q0 -2 -0.5 -6t-2.5 -10q-5 -12 -11.5 -30l-14 -39l-15 -42.5t-13.5 -40.5l-28 -89
l-14 -46t-6 -23q-5 -18 -0.5 -24.5t19.5 -6.5h27q7 0 5 -5l-3 -16q-2 -5 -7 -5q-2 0 -15 0.5t-29 1l-31 1t-20 0.5q-6 0 -20.5 -0.5t-30.5 -1t-28.5 -1t-14.5 -0.5q-6 0 -3 5l3 16q2 5 7 5z" />
    <glyph glyph-name="twoinferior" unicode="&#x2082;" horiz-adv-x="325" 
d="M68 -62h112q25 0 39.5 12t25.5 30q5 6 10 4l8 -5q6 -2 1 -7q-6 -8 -13 -21.5t-13 -26.5l-10.5 -23.5t-4.5 -11.5q-2 -6 -9 -6q-5 0 -10 7q-2 3 -12.5 3.5t-25.5 0.5h-163q-8 0 -10 2t-2 6q0 7 8 13q28 23 68.5 53t77.5 64.5t63 70.5t26 71q0 10 -3 21.5t-9.5 21.5t-17 16
t-25.5 6t-27.5 -7t-22 -16.5t-16.5 -20.5t-11 -18q-6 -10 -11 -8l-11 6q-5 3 -3 9q4 11 14 27.5t26 32t38 26.5t51 11q46 0 69.5 -25t23.5 -66q0 -39 -24.5 -76t-60 -69.5t-75 -59l-69.5 -45.5l-2 -1v-1z" />
    <glyph glyph-name="threeinferior" unicode="&#x2083;" horiz-adv-x="325" 
d="M105 -113q-45 0 -68.5 21.5t-23.5 45.5q0 9 6.5 18t19.5 9q18 0 22.5 -13.5t2.5 -24.5q-2 -8 11.5 -18.5t31.5 -10.5q21 0 40.5 8.5t33.5 23.5t22.5 35t8.5 43q0 24 -12.5 42.5t-33.5 26.5q-7 3 -8.5 5t-1.5 6q0 2 1.5 5t8.5 5q10 2 24.5 8.5t27.5 17.5t22.5 26t9.5 34
q0 6 -2 13t-7.5 13.5t-14.5 11t-24 4.5q-22 0 -38.5 -14.5t-26.5 -28.5q-9 -14 -15 -9l-10 8q-2 3 1 10q5 9 15 21.5t24 24t33.5 19.5t43.5 8q22 0 37.5 -6t25 -14.5t14 -18.5t4.5 -19q0 -35 -25.5 -61t-61.5 -45q29 -15 41 -37t12 -49q0 -31 -15 -57t-39.5 -45.5t-55 -30.5
t-61.5 -11z" />
    <glyph glyph-name="fourinferior" unicode="&#x2084;" horiz-adv-x="325" 
d="M76 37h109l11 28.5l19.5 50.5l19 49t8.5 25q-8 -6 -11 -9l-150 -129l-6 -6t-4 -7q0 -2 4 -2zM178 -106h-42q-7 0 -1 14l38 90h-153q-15 0 -15 15q0 5 3 8.5t11 10.5l277 241q8 8 22 8q8 0 12 -7t1 -14l-88 -223h63q7 0 2 -9l-9 -21q-2 -3 -4.5 -6t-5.5 -3h-59l-37 -92
q-4 -9 -7 -10.5t-8 -1.5z" />
    <glyph glyph-name="fiveinferior" unicode="&#x2085;" horiz-adv-x="325" 
d="M168 223l-30 -71l1 -2q7 0 27.5 -3.5t41.5 -13.5q35 -16 47 -42t12 -54q0 -23 -11.5 -49.5t-34 -49t-56.5 -37t-78 -14.5q-11 0 -23 1.5t-22.5 5.5t-17.5 10t-7 14q0 11 7 16.5t13 5.5q7 0 12.5 -3t10.5 -7q15 -12 40 -12q27 0 47 9.5t33.5 23.5t20.5 30t7 29q0 29 -9 48
t-30 31q-10 5 -27.5 9.5t-29.5 4.5q-16 0 -19 2q-3 5 -1 10l60 154q2 5 9 5h110q18 0 25.5 6.5t15.5 16.5q4 5 11 0q9 -5 7 -9l-36 -60q-3 -5 -19 -5h-107z" />
    <glyph glyph-name="sixinferior" unicode="&#x2086;" horiz-adv-x="325" 
d="M141 -86q22 0 39 12.5t29 32t18 42.5t6 43q0 23 -12.5 41t-34.5 18q-17 0 -35.5 -7t-29.5 -20q-19 -22 -24.5 -44t-7.5 -48q-1 -9 1 -21.5t7.5 -23t16 -18t27.5 -7.5zM138 -113q-28 0 -47 9.5t-30.5 24.5t-16.5 32.5t-5 32.5q0 53 25 100.5t61 85.5t76.5 64.5t71.5 38.5
q12 5 17.5 5.5t9.5 0.5q10 0 10 -10t-17 -18q-57 -29 -95.5 -63.5t-64.5 -78.5l1 -2q19 13 36 18.5t40 5.5q41 0 61 -23.5t20 -58.5q0 -33 -12.5 -63t-33.5 -52.5t-49 -35.5t-58 -13z" />
    <glyph glyph-name="seveninferior" unicode="&#x2087;" horiz-adv-x="325" 
d="M169 274h160q7 0 7 -6q0 -2 -1.5 -5.5t-3.5 -5.5q-1 -2 -9.5 -15l-18.5 -29l-19 -30.5t-11 -18.5q-2 -3 -10.5 -19l-21 -39l-27.5 -50.5l-28.5 -52.5l-24.5 -45t-15 -29q-9 -19 -17 -30.5t-25 -11.5q-12 0 -16 7t-4 15t5.5 16.5l10.5 16.5l17 24.5l26 38.5l27.5 42
l22.5 36l18 29.5l25 41l25 41t17 28.5h-103q-17 0 -28 -2t-19.5 -6.5t-15 -12t-13.5 -17.5q-5 -7 -15 -1q-7 4 -4 12l48 92q2 4 4 6t7 0q7 -2 8 -4t0 -7q-1 -9 22 -9z" />
    <glyph glyph-name="eightinferior" unicode="&#x2088;" horiz-adv-x="325" 
d="M220 254q-29 0 -53 -17t-24 -45q0 -21 13 -42t39 -47q34 20 58.5 44t24.5 56q0 5 -2.5 13.5t-9.5 17t-18 14.5t-28 6zM123 -85q21 0 36 6.5t25 16t14.5 20.5t4.5 20q0 15 -5.5 28.5t-13 24t-15 18l-12.5 12.5q-12 -5 -26.5 -12.5t-27.5 -19t-21.5 -26.5t-8.5 -34
q0 -23 16.5 -38.5t33.5 -15.5zM232 281q46 0 72 -21.5t26 -50.5q0 -25 -14 -46t-33 -36.5t-38.5 -26.5l-30.5 -17q16 -17 30.5 -36.5t14.5 -46.5q0 -22 -10 -42.5t-28 -36t-43 -25t-55 -9.5q-33 0 -53 9t-31 22t-15 26.5t-4 21.5q0 25 13.5 43.5t32.5 32.5t39 24t33 18
q-6 6 -14 15t-16 20.5t-13.5 24.5t-5.5 27q0 18 9.5 37.5t28 35.5t45 26.5t60.5 10.5z" />
    <glyph glyph-name="nineinferior" unicode="&#x2089;" horiz-adv-x="325" 
d="M214 256q-26 0 -43.5 -15t-29 -36t-16.5 -43t-5 -37q0 -9 2.5 -19.5t8.5 -19.5t15 -15t22 -6q17 0 36 7.5t29 21.5q17 21 24 50.5t7 52.5q0 7 -2 17.5t-7 19.5t-15 15.5t-26 6.5zM217 281q50 0 73.5 -27.5t23.5 -73.5q0 -51 -23.5 -98.5t-60.5 -86t-82 -66.5t-88 -40
q-10 -2 -15 -2q-8 0 -8 11q0 4 2 7.5t12 8.5q66 30 105 64.5t67 79.5l-3 1q-14 -11 -29.5 -17t-38.5 -6q-27 0 -44 10.5t-26.5 25.5t-13 30t-3.5 24q0 26 11 53.5t30.5 50t47.5 37t63 14.5z" />
    <glyph glyph-name="centinferior" unicode="&#xf6df;" horiz-adv-x="325" 
d="M140 -162l-18 3q-5 1 -3 8l18 72q-38 0 -64.5 20t-26.5 66q0 28 12.5 62.5t35.5 67.5t54 59.5t69 40.5l18 76q1 6 7 6l20 -5q5 -2 3 -7l-15 -61q5 1 11.5 1.5t13.5 0.5q16 0 31.5 -8t15.5 -25q0 -19 -9.5 -26t-17.5 -7q-15 0 -22 8q-4 5 -12 9.5t-22 4.5l-63 -244
q23 2 41 9.5t32 15.5q5 2 7 1t5 -3l2 -6q7 -7 -2 -14q-9 -6 -32.5 -20.5t-61.5 -18.5l-20 -83q-2 -5 -7 -3zM147 -40l60 240q-11 -3 -23.5 -12.5t-24.5 -25.5q-10 -13 -19.5 -31t-16.5 -37.5t-11.5 -39.5t-4.5 -37q0 -24 12 -38.5t28 -18.5z" />
    <glyph glyph-name="dollarinferior" unicode="&#xf6e3;" horiz-adv-x="325" 
d="M181 52l-30 -119q19 -2 34 2.5t25 13.5t15.5 21t5.5 24q2 13 -9 27t-41 31zM168 130l27 108q-40 2 -56 -14.5t-16 -36.5q0 -14 9.5 -28.5t35.5 -28.5zM10 -68l39 109q1 3 6 3l12 -1q5 -1 5 -8q-8 -35 5.5 -61t42.5 -36l33 130q-42 26 -62 51t-20 55q0 15 8 32.5t24.5 31
t40.5 21.5t57 4l11 47q1 4 6 4l22 -5q5 -2 3 -8l-11 -43q14 -4 26.5 -12t17.5 -8t8 3t5 12q0 4 4 4h11q5 0 3 -5l-12 -94q-2 -5 -6 -5h-12q-5 0 -5 6t-2 16.5t-7.5 21.5t-14 20.5t-22.5 14.5l-30 -118q41 -23 61.5 -47.5t20.5 -57.5q0 -27 -11 -47.5t-29 -33t-42 -18.5
t-51 -4l-15 -59q-2 -5 -7 -4l-17 5q-8 2 -6 8l14 55q-26 6 -43 19.5t-22 13.5q-6 0 -10.5 -3.5t-11.5 -16.5q-2 -3 -5 -2l-9 4q-4 2 -3 6z" />
    <glyph glyph-name="periodinferior" unicode="&#xf6e7;" horiz-adv-x="150" 
d="M60 -106q-20 0 -33 13t-13 33q0 14 11 29.5t34 15.5q15 0 24.5 -5.5t15 -13t7.5 -15t2 -11.5q0 -17 -13.5 -31.5t-34.5 -14.5z" />
    <glyph glyph-name="commainferior" unicode="&#xf6e1;" horiz-adv-x="150" 
d="M-16 -217h-6t-4 8q-1 6 1.5 8t7.5 4q8 2 20 8.5t23 16t18.5 22t7.5 27.5q0 16 -5 24.5t-16 19.5l-13.5 13t-10.5 25q0 16 10 28t28 12q15 0 26.5 -9t19.5 -21.5t12 -27t4 -25.5q0 -38 -17 -63.5t-38.5 -41t-41.5 -22t-26 -6.5z" />
    <glyph glyph-name="commaaccent" unicode="&#xf6c3;" horiz-adv-x="150" 
d="M-31 -255h-5.5t-3.5 7q-1 8 9 12q7 2 18 7.5t20.5 14t16 19.5t6.5 25t-4.5 21.5t-13.5 17.5l-12.5 12t-9.5 23t9 25t25 11q13 0 23.5 -8t18 -19.5t11.5 -24.5t4 -23q0 -35 -15.5 -58t-35 -36.5t-37.5 -19.5t-24 -6z" />
    <glyph glyph-name="Abreve" unicode="&#x102;" horiz-adv-x="619" 
d="M599 744q-38 0 -65 21t-33 63q-1 11 4 12l10 3q3 1 5 -1.5l5 -6.5q14 -19 37.5 -27.5t52.5 -8.5q21 0 37 3.5t28 8.5t21 12t17 14q5 5 7.5 6.5t5.5 -0.5l11 -5q4 -2 -1 -13q-19 -33 -53.5 -57t-88.5 -24zM483 336l77 264q3 11 -6.5 12.5t-15.5 -5.5l-218 -271h163z
M294 301l-140 -176q-16 -20 -28.5 -38t-12.5 -29q0 -24 35 -24h36q9 0 7 -10l-4 -19q-2 -8 -10 -8t-40 1.5t-91 1.5q-50 0 -77 -1.5t-35 -1.5q-10 0 -9 7l5 22q1 8 7 8h15q32 0 63 20.5t58 52.5l463 553q4 5 9 7t19 3q11 1 25 3t22 4t17.5 5t15.5 3q13 0 10 -10l-147 -555
l-6.5 -29.5t-3.5 -28.5t11 -20t26 -8h27q9 0 8 -10l-3 -18q-1 -5 -3 -7t-9 -2q-9 0 -39 1.5t-81 1.5q-53 0 -79 -1.5t-38 -1.5t-10 10l4 19q2 8 8 8h19q14 0 26 2.5t22.5 10.5t19 24.5t16.5 44.5l50 185h-178z" />
    <glyph glyph-name="Amacron" unicode="&#x100;" horiz-adv-x="619" 
d="M490 806q0 6 10 6h200q10 0 10 -7v-33q0 -7 -9 -7h-203q-8 0 -8 7v34zM483 336l77 264q3 11 -6.5 12.5t-15.5 -5.5l-218 -271h163zM294 301l-140 -176q-16 -20 -28.5 -38t-12.5 -29q0 -24 35 -24h36q9 0 7 -10l-4 -19q-2 -8 -10 -8t-40 1.5t-91 1.5q-50 0 -77 -1.5
t-35 -1.5q-10 0 -9 7l5 22q1 8 7 8h15q32 0 63 20.5t58 52.5l463 553q4 5 9 7t19 3q11 1 25 3t22 4t17.5 5t15.5 3q13 0 10 -10l-147 -555l-6.5 -29.5t-3.5 -28.5t11 -20t26 -8h27q9 0 8 -10l-3 -18q-1 -5 -3 -7t-9 -2q-9 0 -39 1.5t-81 1.5q-53 0 -79 -1.5t-38 -1.5t-10 10
l4 19q2 8 8 8h19q14 0 26 2.5t22.5 10.5t19 24.5t16.5 44.5l50 185h-178z" />
    <glyph glyph-name="Aogonek" unicode="&#x104;" horiz-adv-x="619" 
d="M411 -231q0 -7 -22 -20t-54 -13q-17 0 -36 3t-35 12t-26.5 24.5t-10.5 40.5q0 27 14 54t35.5 53t47 49t49.5 41q19 14 28 41.5l21 61.5l50 185h-178l-140 -176q-16 -20 -28.5 -38t-12.5 -29q0 -24 35 -24h36q9 0 7 -10l-4 -19q-2 -8 -10 -8t-40 1.5t-91 1.5
q-50 0 -77 -1.5t-35 -1.5q-10 0 -9 7l5 22q1 8 7 8h15q32 0 63 20.5t58 52.5l463 553q5 5 9.5 7t18.5 3q11 1 25 3t22 4t17.5 5t15.5 3q13 0 10 -10l-147 -555l-6.5 -29.5t-3.5 -28.5t11 -20t26 -8h27q9 0 8 -10l-3 -18q-1 -5 -3 -7t-9 -2q-5 0 -14.5 1t-24.5 1t-35 0.5
t-46 0.5q-23 0 -48.5 -15.5t-46.5 -39.5t-35 -53t-14 -55q0 -24 8.5 -38.5t19.5 -21.5t22 -9t17 -2q3 0 10 2.5l14 5l13.5 5t8.5 2.5q4 0 6 -3.5t2 -8.5zM320 336h163l79 263q3 11 -7.5 13t-16.5 -5z" />
    <glyph glyph-name="Cacute" unicode="&#x106;" horiz-adv-x="666" 
d="M449 739q-2 5 3 10l143 111q16 12 34 12q12 0 20.5 -9t10.5 -21.5t-3.5 -24.5t-19.5 -18l-174 -71q-6 -3 -8 1zM567 -17q-3 -7 -9 -5l-18 5q-5 2 -3 8l2 8t1 9q0 19 -16 19q-7 0 -18.5 -4t-25.5 -10q-8 -4 -24 -9t-35.5 -9t-40 -7t-38.5 -3q-50 0 -93.5 16.5t-76 47.5
t-51.5 75t-19 99q0 43 9.5 88.5t28.5 90.5t45.5 87.5t61.5 80.5q49 54 112.5 84.5t128.5 30.5q36 0 66 -9t66 -34q10 -7 23 -17.5t27 -10.5q9 0 15 7t11 24q3 9 9 6l13 -3q9 -1 6 -10l-53 -207q-3 -8 -11 -6l-14 2q-7 1 -6 10q8 37 2.5 74.5t-24 68t-49.5 50t-74 19.5
q-61 0 -105 -30t-87 -92q-28 -41 -47 -84t-30.5 -84t-16.5 -78.5t-5 -67.5q0 -54 15.5 -89.5t39 -57.5t50 -31t48.5 -9q31 0 65.5 7t67.5 26t63 53.5t53 90.5q3 7 4.5 8.5t5.5 -0.5l17 -5q5 -2 5.5 -3.5t-0.5 -5.5z" />
    <glyph glyph-name="Ccaron" unicode="&#x10c;" horiz-adv-x="666" 
d="M634 874q5 2 7 -2l7 -11q2 -2 -2 -6l-139 -120q-8 -6 -13 2l-71 120q-3 5 2 8l10 9q4 3 11 -2l69 -60zM567 -17q-3 -7 -9 -5l-18 5q-5 2 -3 8l2 8t1 9q0 19 -16 19q-7 0 -18.5 -4t-25.5 -10q-8 -4 -24 -9t-35.5 -9t-40 -7t-38.5 -3q-50 0 -93.5 16.5t-76 47.5t-51.5 75
t-19 99q0 43 9.5 88.5t28.5 90.5t45.5 87.5t61.5 80.5q49 54 112.5 84.5t128.5 30.5q36 0 66 -9t66 -34q10 -7 23 -17.5t27 -10.5q9 0 15 7t11 24q3 9 9 6l13 -3q9 -1 6 -10l-53 -207q-3 -8 -11 -6l-14 2q-7 1 -6 10q8 37 2.5 74.5t-24 68t-49.5 50t-74 19.5q-61 0 -105 -30
t-87 -92q-28 -41 -47 -84t-30.5 -84t-16.5 -78.5t-5 -67.5q0 -54 15.5 -89.5t39 -57.5t50 -31t48.5 -9q31 0 65.5 7t67.5 26t63 53.5t53 90.5q3 7 4.5 8.5t5.5 -0.5l17 -5q5 -2 5.5 -3.5t-0.5 -5.5z" />
    </font>
</defs>
</svg>
