<?xml version="1.0" standalone="no"?>
<!DOCTYPE svg PUBLIC "-//W3C//DTD SVG 1.1//EN" "http://www.w3.org/Graphics/SVG/1.1/DTD/svg11.dtd" >
<svg xmlns="http://www.w3.org/2000/svg" xmlns:xlink="http://www.w3.org/1999/xlink" version="1.1">
<metadata>
Created by FontForge 20170731 at Wed Apr 27 15:49:38 2011
 By Aleksey,,,
Copyright (c) 2009 by Fontsmith Ltd. All rights reserved.
</metadata>
<defs>
<font id="PostNL-Medium" horiz-adv-x="543" >
  <font-face 
    font-family="PostNL Medium"
    font-weight="500"
    font-stretch="normal"
    units-per-em="1000"
    panose-1="2 0 6 6 0 0 0 2 0 4"
    ascent="750"
    descent="-250"
    x-height="485"
    cap-height="674"
    bbox="-146 -326 1086 1153"
    underline-thickness="50"
    underline-position="-200"
    unicode-range="U+0020-FB04"
  />
<missing-glyph horiz-adv-x="527" 
d="M23 672h481v-672h-481v672zM100 625l164 -246l163 246h-327zM456 581l-164 -244l164 -246v490zM264 293l-164 -245h327zM72 581v-490l163 246z" />
    <glyph glyph-name="f_f" unicode="ff" horiz-adv-x="616" 
d="M20 485h71v36q0 89 45.5 137t134.5 48q32 0 66 -8l-9 -89q-20 5 -43 5q-47 0 -65.5 -22.5t-18.5 -77.5v-29h186v36q0 89 45.5 137t134.5 48q32 0 66 -8l-9 -89q-20 5 -43 5q-47 0 -65.5 -22.5t-18.5 -77.5v-29h105l-6 -85h-98v-400h-111v400h-186v-400h-110v400h-71v85z
" />
    <glyph glyph-name="fi" unicode="fi" horiz-adv-x="556" 
d="M20 485h71v40q0 181 213 181q69 0 143 -13l-8 -90q-59 11 -120 11q-64 0 -91 -21.5t-27 -76.5v-31h291v-485h-110v400h-181v-400h-110v400h-71v85z" />
    <glyph glyph-name="fl" unicode="fl" horiz-adv-x="558" 
d="M20 485h71v40q0 90 52 135.5t168 45.5q93 0 186 -22v-684h-110v608q-38 7 -83 7q-57 0 -80 -23t-23 -78v-29h103l-6 -85h-97v-400h-110v400h-71v85z" />
    <glyph glyph-name="f_f_i" unicode="ffi" horiz-adv-x="852" 
d="M20 485h71v36q0 89 45.5 137t134.5 48q32 0 66 -8l-9 -89q-20 5 -43 5q-47 0 -65.5 -22.5t-18.5 -77.5v-29h186v40q0 181 213 181q69 0 143 -13l-8 -90q-59 11 -120 11q-64 0 -91 -21.5t-27 -76.5v-31h291v-485h-110v400h-181v-400h-110v400h-186v-400h-110v400h-71v85z
" />
    <glyph glyph-name="f_f_l" unicode="ffl" horiz-adv-x="854" 
d="M20 485h71v36q0 89 45.5 137t134.5 48q32 0 66 -8l-9 -89q-20 5 -43 5q-47 0 -65.5 -22.5t-18.5 -77.5v-29h186v40q0 90 52 135.5t168 45.5q93 0 186 -22v-684h-110v608q-38 7 -83 7q-57 0 -80 -23t-23 -78v-29h103l-6 -85h-97v-400h-110v400h-186v-400h-110v400h-71v85z
" />
    <glyph glyph-name="f_j" unicode="fj" horiz-adv-x="558" 
d="M20 485h71v40q0 181 213 181q69 0 143 -13l-8 -90q-59 11 -120 11q-64 0 -91 -21.5t-27 -76.5v-31h294v-473q0 -110 -36.5 -168.5t-132.5 -58.5q-27 0 -49 5l9 89q13 -3 29 -3q36 0 52.5 25t16.5 85v414h-183v-400h-110v400h-71v85z" />
    <glyph glyph-name="f_f_j" unicode="ffj" horiz-adv-x="854" 
d="M20 485h71v36q0 89 45.5 137t134.5 48q32 0 66 -8l-9 -89q-20 5 -43 5q-47 0 -65.5 -22.5t-18.5 -77.5v-29h186v40q0 181 213 181q69 0 143 -13l-8 -90q-59 11 -120 11q-64 0 -91 -21.5t-27 -76.5v-31h294v-473q0 -110 -36.5 -168.5t-132.5 -58.5q-27 0 -49 5l9 89
q14 -3 29 -3q36 0 52.5 25t16.5 85v414h-183v-400h-110v400h-186v-400h-110v400h-71v85z" />
    <glyph glyph-name=".notdef" horiz-adv-x="527" 
d="M23 672h481v-672h-481v672zM100 625l164 -246l163 246h-327zM456 581l-164 -244l164 -246v490zM264 293l-164 -245h327zM72 581v-490l163 246z" />
    <glyph glyph-name=".null" horiz-adv-x="0" 
 />
    <glyph glyph-name="nonmarkingreturn" horiz-adv-x="333" 
 />
    <glyph glyph-name="space" unicode=" " horiz-adv-x="186" 
 />
    <glyph glyph-name="exclam" unicode="!" horiz-adv-x="266" 
d="M76 674h113v-252l-12 -218h-89l-12 218v252zM70 50v9q0 66 63 66q62 0 62 -66v-9q0 -33 -14 -49.5t-48 -16.5q-63 0 -63 66z" />
    <glyph glyph-name="quotedbl" unicode="&#x22;" horiz-adv-x="410" 
d="M247 728h119l-22 -231h-97v231zM53 728h119l-22 -231h-97v231z" />
    <glyph glyph-name="numbersign" unicode="#" 
d="M163 659h101l-25 -174h111l26 174h101l-26 -174h67v-100h-80l-20 -130h100v-100h-114l-22 -155h-101l23 155h-112l-23 -155h-101l23 155h-66v100h79l21 130h-100v100h112zM225 385l-20 -130h112l20 130h-112z" />
    <glyph glyph-name="dollar" unicode="$" 
d="M249 781h70v-97q69 -5 136 -29l-10 -112q-65 29 -126 33v-190l17 -5q81 -30 120.5 -72.5t39.5 -115.5q0 -89 -53 -139.5t-146 -61.5v-93h-70v90q-86 5 -168 33l8 113q81 -36 160 -38v195l-15 6q-79 27 -121.5 73.5t-42.5 125.5q0 76 53.5 125.5t147.5 59.5v99zM249 412
v161q-14 -3 -26 -8q-43 -21 -43 -68q0 -54 69 -85zM297 267v-164q66 15 66 79q0 33 -16 51.5t-50 33.5z" />
    <glyph glyph-name="percent" unicode="%" horiz-adv-x="832" 
d="M569 704l80 -44l-378 -670l-80 47zM635 302q-46 0 -46 -121q0 -122 46 -122q24 0 35 28t11 94q0 121 -46 121zM635 377q69 0 101.5 -48t32.5 -148t-32.5 -148.5t-101.5 -48.5t-101.5 48.5t-32.5 148.5t32.5 148t101.5 48zM197 615q-46 0 -46 -121q0 -122 46 -122
q24 0 35 28t11 94q0 121 -46 121zM197 690q69 0 101.5 -48t32.5 -148t-32.5 -148.5t-101.5 -48.5t-101.5 48.5t-32.5 148.5t32.5 148t101.5 48z" />
    <glyph glyph-name="ampersand" unicode="&#x26;" horiz-adv-x="609" 
d="M79 504v9q0 69 43 123t132 54q74 0 119 -45.5t45 -122.5q0 -117 -121 -213q64 -71 103 -109q31 65 34 169h90q-3 -127 -55 -233q50 -46 103 -56v-95q-87 7 -166 74q-73 -75 -186 -75q-82 0 -134 43t-52 116v6q0 104 120 174q-75 91 -75 181zM344 120q-64 61 -131 135
q-63 -42 -63 -101q0 -36 23.5 -58t63.5 -22q64 0 107 46zM183 513v-7q0 -64 56 -134q75 66 75 140q0 38 -15.5 61.5t-46.5 23.5q-36 0 -52.5 -24t-16.5 -60z" />
    <glyph glyph-name="quotesingle" unicode="'" horiz-adv-x="216" 
d="M53 728h119l-22 -231h-97v231z" />
    <glyph glyph-name="parenleft" unicode="(" horiz-adv-x="385" 
d="M281 731l62 -49q-149 -168 -149 -392q0 -222 148 -392l-60 -48q-205 195 -205 441q0 247 204 440z" />
    <glyph glyph-name="parenright" unicode=")" horiz-adv-x="385" 
d="M43 682l61 49q205 -194 205 -440t-205 -441l-61 48q148 170 148 392q0 223 -148 392z" />
    <glyph glyph-name="asterisk" unicode="*" horiz-adv-x="364" 
d="M53 620l98 -54l-13 112h86l-14 -114l100 56l32 -79l-113 -31l82 -85l-69 -51l-60 102l-61 -101l-69 52l82 83l-113 30z" />
    <glyph glyph-name="plus" unicode="+" 
d="M218 466h106v-153h149v-98h-149v-152h-106v152h-148v98h148v153z" />
    <glyph glyph-name="comma" unicode="," horiz-adv-x="235" 
d="M47 53v10q0 69 70 69q38 0 54.5 -20t16.5 -64q0 -82 -83 -223l-67 25q42 74 59 129q-50 11 -50 74z" />
    <glyph glyph-name="hyphen" unicode="-" horiz-adv-x="290" 
d="M40 296h210v-99h-210v99z" />
    <glyph glyph-name="period" unicode="." horiz-adv-x="235" 
d="M47 54v9q0 69 71 69q70 0 70 -69v-9q0 -70 -70 -70q-71 0 -71 70z" />
    <glyph glyph-name="slash" unicode="/" horiz-adv-x="406" 
d="M269 690h117l-249 -706h-118z" />
    <glyph glyph-name="zero" unicode="0" 
d="M271 585q-54 0 -77 -56.5t-23 -191.5t23 -191.5t77 -56.5t77 56.5t23 191.5t-23 191.5t-77 56.5zM271 690q119 0 173 -84t54 -269q0 -183 -54.5 -268t-172.5 -85t-172.5 85t-54.5 268q0 187 54 270t173 83z" />
    <glyph glyph-name="one" unicode="1" 
d="M59 557l196 117h95v-579h134v-95h-403v95h149v451l-139 -83z" />
    <glyph glyph-name="two" unicode="2" 
d="M89 545l-13 102q91 43 190 43q93 0 151 -47.5t58 -135.5q0 -85 -42 -157t-152 -175l-86 -80h266v-95h-392l-12 95l97 92q109 106 152 168.5t43 136.5q0 95 -105 95q-72 0 -155 -42z" />
    <glyph glyph-name="three" unicode="3" 
d="M85 557l-15 99q90 34 176 34q92 0 149.5 -43t57.5 -129q0 -55 -26 -95.5t-76 -58.5v-3q58 -14 91 -56t33 -105q0 -104 -65.5 -160t-181.5 -56q-96 0 -175 36l13 103q79 -34 154 -34q63 0 96 28.5t33 82.5q0 63 -53 90q-34 18 -93 18h-30v91h30q58 0 91 27.5t33 77.5
q0 83 -104 83q-66 0 -138 -30z" />
    <glyph glyph-name="four" unicode="4" 
d="M428 674v-413h87v-95h-87v-166h-120v166h-284v86q140 240 258 422h146zM140 261h168v281q-19 -30 -168 -281z" />
    <glyph glyph-name="five" unicode="5" 
d="M90 674h350l-6 -94h-232l-4 -177q39 12 88 12q91 0 143 -52t52 -150q0 -112 -63 -170.5t-177 -58.5q-97 0 -185 31l14 100q79 -29 161 -29q73 0 101 38q23 32 23 83q0 56 -28 82t-89 26q-48 0 -117 -20l-35 15z" />
    <glyph glyph-name="six" unicode="6" 
d="M434 679l-14 -96q-25 7 -68 7q-72 0 -116 -44q-43 -44 -59 -141q51 30 121 30q97 0 150 -56t53 -154q0 -103 -59.5 -172t-163.5 -69q-237 0 -237 307q0 81 17 150.5t52 126.5t94.5 89.5t138.5 32.5q56 0 91 -11zM168 305q-4 -40 2 -85q9 -68 32.5 -101t73.5 -33
q48 0 73.5 34t25.5 95q0 119 -102 119q-54 0 -105 -29z" />
    <glyph glyph-name="seven" unicode="7" 
d="M53 674h428v-99l-266 -575h-127l270 579h-305v95z" />
    <glyph glyph-name="eight" unicode="8" 
d="M166 361q-100 62 -100 155q0 78 58.5 126t150.5 48q90 0 147 -45t57 -125q0 -46 -29 -88.5t-80 -70.5q129 -65 129 -176q0 -93 -65 -147t-164 -54q-97 0 -162 51t-65 146q0 57 32.5 104.5t90.5 75.5zM276 407q35 17 57.5 46t22.5 64q0 38 -22.5 59t-59.5 21
q-38 0 -61.5 -21.5t-23.5 -59.5q0 -63 87 -109zM263 309q-43 -18 -68.5 -49t-25.5 -72q0 -47 28.5 -75t74.5 -28t73.5 27.5t27.5 73.5q0 38 -26 66.5t-84 56.5z" />
    <glyph glyph-name="nine" unicode="9" 
d="M107 -5l13 97q25 -8 69 -8q145 0 176 184q-52 -30 -119 -30q-97 0 -152.5 59t-55.5 161t63.5 167t166.5 65q233 0 233 -304q0 -80 -16.5 -149.5t-51 -127.5t-95 -91.5t-140.5 -33.5q-58 0 -91 11zM374 368q2 24 2 44q3 177 -108 177q-47 0 -75 -35t-28 -95
q0 -58 27 -89.5t76 -31.5q56 0 106 30z" />
    <glyph glyph-name="colon" unicode=":" horiz-adv-x="235" 
d="M43 423v9q0 69 71 69q70 0 70 -69v-9q0 -70 -70 -70q-71 0 -71 70zM43 54v9q0 69 71 69q70 0 70 -69v-9q0 -70 -70 -70q-71 0 -71 70z" />
    <glyph glyph-name="semicolon" unicode=";" horiz-adv-x="235" 
d="M47 423v9q0 69 71 69q70 0 70 -69v-9q0 -70 -70 -70q-71 0 -71 70zM47 53v10q0 69 70 69q38 0 54.5 -20t16.5 -64q0 -82 -83 -223l-67 25q42 74 59 129q-50 11 -50 74z" />
    <glyph glyph-name="less" unicode="&#x3c;" 
d="M100 297l298 188l46 -81l-223 -140v-4l226 -138l-48 -80l-299 187v68z" />
    <glyph glyph-name="equal" unicode="=" 
d="M70 422h403v-98h-403v98zM70 206h403v-99h-403v99z" />
    <glyph glyph-name="greater" unicode="&#x3e;" 
d="M145 485l298 -188v-68l-299 -187l-48 80l226 137v4l-223 141z" />
    <glyph glyph-name="question" unicode="?" horiz-adv-x="450" 
d="M40 557l-8 100q85 33 174 33q94 0 149 -44.5t55 -141.5q0 -178 -178 -195l-10 -114h-95l-12 188l27 2q78 7 112.5 32.5t34.5 80.5q0 48 -25.5 69.5t-79.5 21.5q-73 0 -144 -32zM111 53v8q0 67 66 67t66 -67v-8q0 -69 -66 -69t-66 69z" />
    <glyph glyph-name="at" unicode="@" horiz-adv-x="789" 
d="M57 336v3q0 155 93 254t255 99q156 0 241.5 -86.5t85.5 -230.5q0 -101 -41 -154t-117 -53q-70 0 -102 48q-35 -43 -101 -43q-48 0 -77 25t-29 70q0 53 40.5 82.5t120.5 29.5h24v11q0 26 -13 37t-47 11q-45 0 -97 -21l-9 64q58 23 117 23q127 0 127 -115v-84q0 -70 47 -70
q60 0 60 133q0 111 -57.5 172t-172.5 61q-117 0 -180 -70t-63 -193q0 -131 66.5 -201.5t192.5 -70.5q75 0 134 13l5 -82q-57 -16 -144 -16q-175 0 -267 93t-92 261zM450 325h-24q-81 -2 -81 -51q0 -41 46 -41q34 0 61 29q-2 10 -2 29v34z" />
    <glyph glyph-name="A" unicode="A" horiz-adv-x="599" 
d="M239 674h121q113 -299 219 -674h-124q0 1 -35 137h-241q-18 -66 -36 -137h-123q100 360 219 674zM301 530h-4q-44 -133 -89 -283h182q-54 181 -89 283z" />
    <glyph glyph-name="B" unicode="B" horiz-adv-x="588" 
d="M76 674h178q49 0 82.5 -3t67.5 -13.5t54 -28.5t32.5 -49t12.5 -75q0 -48 -24 -87.5t-69 -53.5v-2q64 -11 101.5 -54.5t37.5 -109.5q0 -51 -15.5 -88.5t-39 -58t-61 -32.5t-72 -15.5t-81.5 -3.5h-204v674zM196 568v-166h76q57 0 82.5 19.5t25.5 67.5q0 42 -23 60.5
t-83 18.5h-78zM196 296v-190h82q38 0 59.5 2.5t43.5 11.5t32 29t10 53q0 94 -127 94h-100z" />
    <glyph glyph-name="C" unicode="C" horiz-adv-x="551" 
d="M47 333v7q0 173 79.5 261.5t226.5 88.5q88 0 158 -35l-13 -111q-64 32 -135 32q-190 0 -190 -240v-5q0 -236 184 -236q76 0 145 30l9 -106q-73 -35 -164 -35q-300 0 -300 349z" />
    <glyph glyph-name="D" unicode="D" horiz-adv-x="637" 
d="M76 674h169q182 0 263.5 -72.5t81.5 -260.5v-7q0 -197 -103 -278q-71 -56 -252 -56h-159v674zM196 565v-456h43q18 0 50 2q97 6 136 58t39 170v3q0 59 -7.5 97.5t-29 68.5t-61.5 43.5t-102 13.5h-68z" />
    <glyph glyph-name="E" unicode="E" horiz-adv-x="528" 
d="M76 674h407l-7 -109h-280v-167h246v-109h-246v-180h281v-109h-401v674z" />
    <glyph glyph-name="F" unicode="F" horiz-adv-x="513" 
d="M76 674h407l-7 -109h-280v-167h246v-109h-246v-289h-120v674z" />
    <glyph glyph-name="G" unicode="G" horiz-adv-x="620" 
d="M47 327v7q0 172 82.5 264t231.5 92q93 0 186 -39l-13 -110q-82 37 -159 37q-98 0 -150 -62t-52 -180v-3q0 -241 183 -241q43 0 79 13v156h-106v102h225v-339q-94 -40 -195 -40q-312 0 -312 343z" />
    <glyph glyph-name="H" unicode="H" horiz-adv-x="657" 
d="M76 674h120v-276h265v276h120v-674h-120v289h-265v-289h-120v674z" />
    <glyph glyph-name="I" unicode="I" horiz-adv-x="278" 
d="M79 674h120v-674h-120v674z" />
    <glyph glyph-name="J" unicode="J" horiz-adv-x="425" 
d="M228 674h120v-428q0 -146 -59 -204t-166 -58q-53 0 -98 17l5 98q45 -12 78 -12q70 0 98 41q22 31 22 121v425z" />
    <glyph glyph-name="K" unicode="K" horiz-adv-x="574" 
d="M76 674h120v-300q127 114 220 300h125q-91 -177 -209 -311l222 -363h-140l-169 285q-26 -24 -49 -39v-246h-120v674z" />
    <glyph glyph-name="L" unicode="L" horiz-adv-x="489" 
d="M76 674h120v-565h265v-109h-385v674z" />
    <glyph glyph-name="M" unicode="M" horiz-adv-x="797" 
d="M98 674h102q88 -192 199 -442q85 190 201 442h99q28 -367 36 -674h-116q-3 189 -18 443q-29 -69 -92 -210.5t-74 -166.5h-75q-27 63 -81.5 188t-82.5 189q-13 -253 -18 -443h-116q13 352 36 674z" />
    <glyph glyph-name="N" unicode="N" horiz-adv-x="681" 
d="M76 674h102l316 -453v453h111v-674h-96l-322 461v-461h-111v674z" />
    <glyph glyph-name="O" unicode="O" horiz-adv-x="638" 
d="M47 334v6q0 350 272 350t272 -350v-6q0 -350 -272 -350t-272 350zM319 579q-78 0 -111.5 -60t-33.5 -182t33.5 -182t111.5 -60t111.5 59.5t33.5 182.5q0 122 -33.5 182t-111.5 60z" />
    <glyph glyph-name="P" unicode="P" horiz-adv-x="558" 
d="M76 674h166q139 0 208.5 -47t69.5 -170v-5q0 -110 -65.5 -164t-185.5 -54h-73v-234h-120v674zM196 565v-222h39q35 0 54 1.5t42.5 7t35 17.5t19.5 34t8 54v3q0 59 -36 84q-29 21 -122 21h-40z" />
    <glyph glyph-name="Q" unicode="Q" horiz-adv-x="638" 
d="M47 334v6q0 350 272 350t272 -350v-6q0 -247 -137 -320l101 -122l-103 -56l-102 150q-20 -2 -31 -2q-272 0 -272 350zM319 579q-78 0 -111.5 -60t-33.5 -182t33.5 -182t111.5 -60t111.5 59.5t33.5 182.5q0 122 -33.5 182t-111.5 60z" />
    <glyph glyph-name="R" unicode="R" horiz-adv-x="566" 
d="M76 674h170q61 0 105.5 -8.5t84 -30.5t60 -65t20.5 -107v-5q0 -151 -118 -198l133 -260h-125l-113 239q-12 -1 -37 -1h-60v-238h-120v674zM196 566v-221h52q80 0 110.5 20.5t30.5 90.5v2q0 58 -32 83t-101 25h-60z" />
    <glyph glyph-name="S" unicode="S" horiz-adv-x="510" 
d="M434 659l-10 -113q-71 34 -139 34q-48 0 -73 -15q-40 -19 -40 -66q0 -38 26 -60t76 -41l46 -17q77 -30 115 -73t38 -117q0 -103 -64.5 -155t-175.5 -52q-87 0 -177 33l8 115q85 -39 159 -39q65 0 94.5 20t29.5 67q0 41 -22.5 60t-77.5 40l-45 17q-75 28 -115.5 75
t-40.5 127q0 86 62.5 138.5t168.5 52.5q83 0 157 -31z" />
    <glyph glyph-name="T" unicode="T" horiz-adv-x="531" 
d="M28 674h477l-9 -109h-172v-565h-120v565h-176v109z" />
    <glyph glyph-name="U" unicode="U" horiz-adv-x="642" 
d="M73 674h120v-415q0 -88 28.5 -126t99.5 -38t99.5 38t28.5 126v415h120v-423q0 -140 -58 -203.5t-190 -63.5t-190 63.5t-58 203.5v423z" />
    <glyph glyph-name="V" unicode="V" horiz-adv-x="600" 
d="M20 674h128q34 -136 151 -517h2q117 381 151 517h128q-87 -330 -214 -674h-132q-127 344 -214 674z" />
    <glyph glyph-name="W" unicode="W" horiz-adv-x="897" 
d="M21 674h127q52 -258 126 -520h2q41 168 74 325q24 122 33 195h135q12 -74 37 -195q40 -185 76 -325h2q57 202 119 520h124q-80 -363 -176 -674h-137q-60 224 -110 498h-2q-47 -250 -112 -498h-137q-108 357 -181 674z" />
    <glyph glyph-name="X" unicode="X" horiz-adv-x="591" 
d="M32 674h137q62 -124 126 -236q56 92 129 236h137q-91 -166 -192 -333l202 -341h-147l-128 238h-1l-130 -238h-143l199 340q-81 137 -189 334z" />
    <glyph glyph-name="Y" unicode="Y" horiz-adv-x="548" 
d="M20 674h125q63 -197 127 -330h4q62 125 127 330h125q-74 -223 -195 -450v-224h-119v224q-121 222 -194 450z" />
    <glyph glyph-name="Z" unicode="Z" horiz-adv-x="542" 
d="M60 674h433v-91l-299 -474h304v-109h-447l-9 93l300 472h-282v109z" />
    <glyph glyph-name="bracketleft" unicode="[" horiz-adv-x="353" 
d="M78 690h205v-86h-100v-613h100v-85h-205v784z" />
    <glyph glyph-name="backslash" unicode="\" horiz-adv-x="406" 
d="M19 690h118l250 -706h-118z" />
    <glyph glyph-name="bracketright" unicode="]" horiz-adv-x="353" 
d="M70 690h205v-784h-205v85h99v613h-99v86z" />
    <glyph glyph-name="asciicircum" unicode="^" 
d="M224 651h94l187 -324l-87 -48l-147 255h-1l-147 -255l-86 48z" />
    <glyph glyph-name="underscore" unicode="_" horiz-adv-x="493" 
d="M4 -64h485v-77h-485v77z" />
    <glyph glyph-name="grave" unicode="`" horiz-adv-x="366" 
d="M104 741l213 -128l-38 -69l-229 111z" />
    <glyph glyph-name="a" unicode="a" horiz-adv-x="502" 
d="M82 375l-15 90q90 36 182 36q93 0 141.5 -41t48.5 -135v-235q0 -21 6.5 -28.5t27.5 -7.5v-62q-26 -8 -60 -8q-65 0 -79 56q-54 -56 -148 -56q-65 0 -108.5 38.5t-43.5 108.5q0 87 68 133t204 46h22v22q0 42 -24.5 59.5t-76.5 17.5q-74 0 -145 -34zM328 233h-20
q-158 0 -158 -91q0 -31 18.5 -49.5t54.5 -18.5q65 0 105 42v117z" />
    <glyph glyph-name="b" unicode="b" horiz-adv-x="540" 
d="M59 690h111v-238q60 49 139 49q95 0 143 -66t48 -188v-5q0 -258 -196 -258q-87 0 -150 60l-5 -44h-92q2 49 2 160v530zM170 358v-226q19 -20 47 -33.5t54 -13.5q61 0 87 38.5t26 120.5q0 80 -24 117.5t-84 37.5t-106 -41z" />
    <glyph glyph-name="c" unicode="c" horiz-adv-x="453" 
d="M40 237v5q0 130 65.5 194.5t174.5 64.5q79 0 138 -31l-9 -98q-49 31 -115 31q-138 0 -138 -161v-3q0 -159 136 -159q60 0 119 24l8 -93q-62 -27 -142 -27q-125 0 -181 69q-56 67 -56 184z" />
    <glyph glyph-name="d" unicode="d" horiz-adv-x="540" 
d="M370 690h111v-494q0 -70 2 -196h-94l-7 43h-1q-57 -59 -149 -59q-88 0 -140.5 67t-52.5 186v6q0 117 55.5 187.5t158.5 70.5q71 0 117 -36v225zM370 130v236q-38 35 -97 35q-118 0 -118 -159q0 -158 112 -158q59 0 103 46z" />
    <glyph glyph-name="e" unicode="e" horiz-adv-x="509" 
d="M40 241v2q0 117 57 187.5t167 70.5q105 0 155 -61.5t50 -189.5q0 -14 -2 -54h-311q10 -118 131 -118q83 0 148 25l7 -89q-69 -30 -158 -30q-244 0 -244 257zM155 276h201q0 136 -95 136q-102 0 -106 -136z" />
    <glyph glyph-name="f" unicode="f" horiz-adv-x="320" 
d="M20 485h71v36q0 89 45.5 137t134.5 48q32 0 66 -8l-9 -89q-20 5 -43 5q-47 0 -65 -22.5t-18 -77.5v-29h104l-6 -85h-98v-400h-111v400h-71v85z" />
    <glyph glyph-name="g" unicode="g" horiz-adv-x="512" 
d="M250 421q-47 0 -68 -23t-21 -72t21 -71t68 -22q46 0 66.5 22t20.5 71t-20.5 72t-66.5 23zM45 324v5q0 85 56 128.5t148 43.5q82 0 137 -35q35 55 112 61v-96q-43 -4 -67 -15q22 -38 22 -87v-5q0 -88 -57 -129.5t-147 -41.5q-36 0 -61 4q-17 -40 -25 -67l103 -4
q34 -1 58.5 -4.5t52.5 -12t45.5 -22.5t29.5 -39t12 -59q0 -81 -63 -122.5t-154 -41.5q-94 0 -143.5 31.5t-49.5 88.5q0 59 42 95q-46 10 -46 53q0 23 14 49.5t54 80.5q-73 45 -73 141zM248 -10l-73 3q-26 -33 -26 -65q0 -62 105 -62q110 0 110 67q0 30 -23.5 41.5
t-92.5 15.5z" />
    <glyph glyph-name="h" unicode="h" horiz-adv-x="540" 
d="M57 690h111v-250q64 61 154 61q80 0 120 -42q42 -43 42 -143v-316h-111v298q0 55 -19 78q-20 23 -64 23q-32 0 -65.5 -15t-56.5 -39v-345h-111v690z" />
    <glyph glyph-name="i" unicode="i" horiz-adv-x="239" 
d="M64 485h111v-485h-111v485zM57 620v8q0 68 63 68t63 -68v-8q0 -68 -63 -68t-63 68z" />
    <glyph glyph-name="j" unicode="j" horiz-adv-x="237" 
d="M63 485h111v-473q0 -111 -36 -169t-132 -58q-27 0 -49 5l9 89q14 -3 33 -3q33 0 48.5 25t15.5 85v499zM56 620v8q0 68 63 68t63 -68v-8q0 -66 -63 -66t-63 66z" />
    <glyph glyph-name="k" unicode="k" horiz-adv-x="471" 
d="M57 690h111v-398q99 84 160 193h117q-63 -122 -150 -208l163 -277h-124l-121 206q-13 -11 -45 -31v-175h-111v690z" />
    <glyph glyph-name="l" unicode="l" horiz-adv-x="233" 
d="M61 690h111v-690h-111v690z" />
    <glyph glyph-name="m" unicode="m" horiz-adv-x="815" 
d="M57 485h98l6 -50h1q26 29 66 47.5t82 18.5q91 0 130 -68q71 68 163 68q157 0 157 -181v-320h-111v297q0 54 -18 76q-19 25 -62 25q-60 0 -106 -55v-57v-286h-111v294q0 53 -16 78.5t-59 25.5q-63 0 -109 -58v-340h-111v485z" />
    <glyph glyph-name="n" unicode="n" horiz-adv-x="539" 
d="M57 485h97l6 -53h1q67 69 161 69q84 0 123 -46t39 -139v-316h-111v298q0 55 -19 78t-64 23q-69 0 -122 -58v-341h-111v485z" />
    <glyph glyph-name="o" unicode="o" horiz-adv-x="539" 
d="M40 240v5q0 124 57.5 190t172.5 66q114 0 171.5 -66t57.5 -190v-5q0 -124 -57.5 -190t-171.5 -66q-115 0 -172.5 66t-57.5 190zM270 408q-59 0 -86.5 -40.5t-27.5 -125.5t27.5 -125t86.5 -40q58 0 85.5 40t27.5 125q0 86 -27.5 126t-85.5 40z" />
    <glyph glyph-name="p" unicode="p" horiz-adv-x="541" 
d="M57 485h94l6 -49h2q57 65 150 65t142.5 -65.5t49.5 -185.5v-5q0 -119 -52.5 -190t-154.5 -71q-72 0 -126 41v-224h-111v684zM168 346v-227q43 -34 96 -34q121 0 121 159q0 70 -22 112t-84 42q-65 0 -111 -52z" />
    <glyph glyph-name="q" unicode="q" horiz-adv-x="540" 
d="M40 237v5q0 49 12 93.5t36 82.5t66.5 60.5t98.5 22.5q84 0 131 -56l6 40h93v-684h-111v229q-51 -46 -135 -46q-96 0 -146.5 67.5t-50.5 185.5zM372 126v227q-19 21 -46.5 34t-52.5 13q-117 0 -117 -163q0 -154 110 -154q61 0 106 43z" />
    <glyph glyph-name="r" unicode="r" horiz-adv-x="336" 
d="M57 485h96l8 -67h1q58 78 155 78q0 -5 -1.5 -54t-1.5 -53q-92 -3 -146 -57v-332h-111v485z" />
    <glyph glyph-name="s" unicode="s" horiz-adv-x="416" 
d="M356 478l-11 -93q-50 25 -111 25q-86 0 -86 -54q0 -23 17.5 -36t56.5 -24l35 -10q69 -20 100 -53.5t31 -96.5q0 -76 -51 -114t-145 -38q-83 0 -151 27l10 93q65 -30 131 -30q48 0 71 12.5t23 42.5q0 26 -15 38t-62 26l-35 10q-129 37 -129 151q0 68 52 107.5t136 39.5
q69 0 133 -23z" />
    <glyph glyph-name="t" unicode="t" horiz-adv-x="346" 
d="M88 614l111 16v-145h113l-4 -85h-109v-231q0 -60 16 -77.5t54 -17.5q22 0 44 6l5 -88q-32 -8 -69 -8q-91 0 -126 42.5t-35 131.5v242h-72v85h72v129z" />
    <glyph glyph-name="u" unicode="u" horiz-adv-x="524" 
d="M55 485h111v-262q0 -88 17 -117t79 -29t79 29t17 117v262h111v-252q0 -139 -40.5 -194t-166.5 -55q-125 0 -166 55t-41 194v252z" />
    <glyph glyph-name="v" unicode="v" horiz-adv-x="455" 
d="M14 485h117q27 -132 96 -361h2q72 253 96 361h116q-27 -103 -76.5 -255.5t-81.5 -229.5h-114q-31 76 -80 228.5t-75 256.5z" />
    <glyph glyph-name="w" unicode="w" horiz-adv-x="721" 
d="M14 485h116q42 -186 87 -351h4q44 159 86 351h107q44 -194 86 -351h2q52 184 89 351h116q-79 -274 -152 -485h-107q-27 96 -86 323h-3q-5 -20 -38 -142t-49 -181h-106q-92 266 -152 485z" />
    <glyph glyph-name="x" unicode="x" horiz-adv-x="471" 
d="M20 485h126q43 -86 85 -157h3q38 58 89 157h117q-58 -103 -146 -242l163 -243h-133l-92 156h-2l-90 -156h-126l156 242q-92 141 -150 243z" />
    <glyph glyph-name="y" unicode="y" horiz-adv-x="521" 
d="M55 485h111v-284q0 -52 18 -79.5t64 -27.5q57 0 106 35v356h111v-362q0 -71 -2 -104q-6 -116 -62 -175t-184 -59q-46 0 -81 8l7 86q31 -7 66 -7q72 0 108.5 29t36.5 106v30q-59 -45 -139 -45q-79 0 -119.5 49.5t-40.5 144.5v299z" />
    <glyph glyph-name="z" unicode="z" horiz-adv-x="429" 
d="M39 485h348v-68q-33 -51 -112 -161.5t-117 -170.5h236v-85h-355l-8 67q36 58 111 168t110 165h-213v85z" />
    <glyph glyph-name="braceleft" unicode="{" horiz-adv-x="369" 
d="M264 707h63v-85h-40q-33 0 -45 -13.5t-12 -52.5l-1 -125q-1 -62 -19 -93.5t-64 -44.5v-2q45 -12 63.5 -44t19.5 -93l1 -124q0 -39 12 -53t45 -14h40v-84h-63q-68 0 -102.5 37.5t-35.5 105.5l-2 158q-1 66 -69 78v69q68 12 69 79l2 158q0 67 35 105t103 38z" />
    <glyph glyph-name="bar" unicode="|" horiz-adv-x="269" 
d="M82 706h105v-722h-105v722z" />
    <glyph glyph-name="braceright" unicode="}" horiz-adv-x="370" 
d="M35 707h63q68 0 103 -38t35 -105l2 -158q1 -67 69 -79v-69q-68 -12 -69 -78l-2 -158q-1 -68 -35.5 -105.5t-102.5 -37.5h-63v84h40q33 0 45 14t12 53l1 124q1 61 19.5 93t63.5 44v2q-46 13 -64 44.5t-19 93.5l-1 125q0 39 -12 52.5t-45 13.5h-40v85z" />
    <glyph glyph-name="asciitilde" unicode="~" 
d="M94 206l-74 57q60 118 155 118q46 0 100 -36l27 -18q37 -24 63 -24q45 0 83 71l71 -55q-59 -115 -149 -115q-52 0 -100 31l-26 17q-36 24 -63 24q-47 0 -87 -70z" />
    <glyph glyph-name="nbspace" unicode="&#xa0;" horiz-adv-x="186" 
 />
    <glyph glyph-name="exclamdown" unicode="&#xa1;" horiz-adv-x="266" 
d="M189 -189h-113v252l12 218h89l12 -218v-252zM70 426v9q0 66 63 66q34 0 48 -16.5t14 -49.5v-9q0 -66 -62 -66q-63 0 -63 66z" />
    <glyph glyph-name="cent" unicode="&#xa2;" 
d="M276 690h70v-100q62 -6 106 -29l-9 -98q-42 25 -97 30v-322q54 5 99 24l8 -93q-42 -19 -107 -26v-92h-70v92q-99 9 -146 68q-56 67 -56 184v5q0 118 54.5 182t147.5 74v101zM190 333v-3q0 -128 86 -153v310q-86 -27 -86 -154z" />
    <glyph glyph-name="sterling" unicode="&#xa3;" 
d="M55 397h76v65q0 228 217 228q60 0 129 -22l-16 -107q-47 18 -97 18q-61 0 -88 -30.5t-27 -98.5v-53h148v-94h-148v-64q0 -105 -54 -140v-2h268v-97h-400l-4 96q72 32 72 125v82h-76v94z" />
    <glyph glyph-name="currency" unicode="&#xa4;" horiz-adv-x="534" 
d="M22 465l64 61l76 -77q47 30 105 30t105 -30l76 77l64 -61l-78 -79q28 -47 28 -102q0 -59 -29 -103l79 -79l-64 -62l-78 78q-46 -29 -102 -29q-59 0 -105 29l-77 -78l-64 62l79 79q-29 46 -29 104q0 54 28 101zM164 285q0 -46 30 -75t74 -29q42 0 72 29t30 74
q0 46 -29.5 74.5t-73.5 28.5q-43 0 -73 -28.5t-30 -73.5z" />
    <glyph glyph-name="yen" unicode="&#xa5;" 
d="M21 674h125q77 -244 124 -340h4q47 96 124 340h125q-63 -190 -149 -366h77l-5 -84h-115v-1v-52h115v-84h-115v-87h-119v87h-116v84h116v53h-116l-6 84h78q-89 182 -147 366z" />
    <glyph glyph-name="brokenbar" unicode="&#xa6;" horiz-adv-x="267" 
d="M82 265h103v-281h-103v281zM82 706h103v-281h-103v281z" />
    <glyph glyph-name="section" unicode="&#xa7;" horiz-adv-x="459" 
d="M359 667l-4 -83q-62 23 -108 23q-83 0 -83 -47q0 -21 17.5 -35.5t63.5 -32.5l56 -22q106 -42 106 -129q0 -65 -62 -112q50 -32 50 -95q0 -74 -48.5 -112t-136.5 -38q-77 0 -148 29l3 86q87 -30 139 -30q93 0 93 55q0 21 -16.5 35.5t-57.5 31.5l-65 28q-106 45 -106 127
q0 68 66 107q-58 38 -58 107q0 59 47.5 94.5t130.5 35.5q63 0 121 -23zM246 397l-64 25q-35 -20 -35 -57q0 -25 14 -39t49 -30l73 -33q31 29 31 62q0 45 -68 72z" />
    <glyph glyph-name="dieresis" unicode="&#xa8;" horiz-adv-x="366" 
d="M211 640v7q0 63 62 63t62 -63v-7q0 -62 -62 -62t-62 62zM31 640v7q0 63 62 63q61 0 61 -63v-7q0 -62 -61 -62q-62 0 -62 62z" />
    <glyph glyph-name="copyright" unicode="&#xa9;" horiz-adv-x="796" 
d="M493 500l-7 -73q-36 17 -70 17q-82 0 -82 -109q0 -57 19.5 -83t61.5 -26q39 0 74 15l5 -72q-42 -17 -86 -17q-162 0 -162 183q0 87 42 135t121 48q44 0 84 -18zM652 335q0 113 -67 188.5t-187 75.5t-187 -75.5t-67 -188.5t67 -188.5t187 -75.5t187 75.5t67 188.5z
M398 690q156 0 254 -101.5t98 -253.5t-98 -253.5t-254 -101.5q-158 0 -255 97.5t-97 257.5t97 257.5t255 97.5z" />
    <glyph glyph-name="ordfeminine" unicode="&#xaa;" horiz-adv-x="349" 
d="M58 546l-11 71q61 26 124 26q64 0 96 -27.5t32 -92.5v-145q0 -20 24 -20v-55q-18 -6 -42 -6q-46 0 -60 33h-2q-33 -33 -90 -33q-48 0 -77.5 27t-29.5 76q0 61 49 90t130 29h12v9q0 23 -12 33t-41 10q-50 0 -102 -25zM213 388v71q-102 0 -102 -55q0 -18 11.5 -29t31.5 -11
q35 0 59 24z" />
    <glyph glyph-name="guillemotleft" unicode="&#xab;" horiz-adv-x="578" 
d="M213 486l82 -51l-137 -192l137 -191l-82 -52l-173 243zM452 486l82 -51l-138 -192l137 -191l-81 -52l-173 243z" />
    <glyph glyph-name="logicalnot" unicode="&#xac;" 
d="M70 313h403v-241h-101v143h-302v98z" />
    <glyph glyph-name="uni00AD" unicode="&#xad;" horiz-adv-x="290" 
d="M40 296h210v-99h-210v99z" />
    <glyph glyph-name="registered" unicode="&#xae;" horiz-adv-x="796" 
d="M283 515h90q90 0 123.5 -28t33.5 -87q0 -81 -60 -107l67 -135h-82l-54 122q-7 -1 -23 -1h-16v-121h-79v357zM362 446v-98h28q32 0 44.5 10.5t12.5 40.5q0 26 -12.5 36.5t-44.5 10.5h-28zM398 599q-120 0 -187 -75.5t-67 -188.5t67 -188.5t187 -75.5t187 75.5t67 188.5
t-67 188.5t-187 75.5zM398 690q156 0 254 -101.5t98 -253.5t-98 -253.5t-254 -101.5q-158 0 -255 97.5t-97 257.5t97 257.5t255 97.5z" />
    <glyph glyph-name="macron" unicode="&#xaf;" horiz-adv-x="366" 
d="M37 670h291v-76h-291v76z" />
    <glyph glyph-name="degree" unicode="&#xb0;" horiz-adv-x="322" 
d="M161 721q63 0 100 -40.5t37 -98.5q0 -61 -37.5 -99t-99.5 -38t-100 38.5t-38 98.5q0 58 37 98.5t101 40.5zM161 644q-25 0 -39 -17t-14 -45t14 -44t39 -16q53 0 53 60q0 28 -13.5 45t-39.5 17z" />
    <glyph glyph-name="plusminus" unicode="&#xb1;" 
d="M70 410h148v147h106v-147h148v-98h-148v-147h-106v147h-148v98zM70 95h402v-95h-402v95z" />
    <glyph glyph-name="twosuperior" unicode="&#xb2;" horiz-adv-x="333" 
d="M53 683l-10 74q62 29 121 29q58 0 91.5 -28.5t33.5 -78.5q0 -45 -24 -83t-82 -91l-32 -29h140v-73h-245l-6 64l51 47q64 58 82 84q25 36 25 68q0 42 -50 42q-42 0 -95 -25z" />
    <glyph glyph-name="threesuperior" unicode="&#xb3;" horiz-adv-x="333" 
d="M63 695l-8 70q53 21 104 21q62 0 95 -25.5t33 -72.5q0 -60 -51 -86q59 -21 59 -89q0 -58 -39 -89t-109 -31q-55 0 -110 20l9 72q44 -17 90 -17q69 0 69 48q0 47 -69 47h-32v64h28q67 0 67 47q0 37 -54 37q-39 0 -82 -16z" />
    <glyph glyph-name="acute" unicode="&#xb4;" horiz-adv-x="366" 
d="M49 613l213 128l55 -86l-230 -111z" />
    <glyph glyph-name="mu" unicode="&#xb5;" horiz-adv-x="527" 
d="M59 485h111v-277q0 -70 17 -96q23 -35 78 -35q53 0 79 35q18 24 18 96v277h110v-268q0 -128 -55 -183q-50 -50 -142 -50q-75 0 -119 36l14 -219h-111v684z" />
    <glyph glyph-name="paragraph" unicode="&#xb6;" horiz-adv-x="529" 
d="M208 690h260v-788h-91v713h-93v-713h-91v444q-76 9 -121.5 55t-45.5 116q0 77 51 125t131 48z" />
    <glyph glyph-name="periodcentered" unicode="&#xb7;" horiz-adv-x="235" 
d="M47 256v9q0 69 71 69q70 0 70 -69v-9q0 -70 -70 -70q-71 0 -71 70z" />
    <glyph glyph-name="cedilla" unicode="&#xb8;" horiz-adv-x="366" 
d="M133 5l68 -8l-12 -57q105 -2 105 -90q0 -51 -33 -78.5t-91 -27.5q-54 0 -99 21l17 59q42 -15 74 -15q53 0 53 36q0 37 -59 37q-14 0 -44 -4l-8 9z" />
    <glyph glyph-name="onesuperior" unicode="&#xb9;" horiz-adv-x="333" 
d="M33 708l122 68h69v-302h72v-71h-243v71h85v203l-80 -45z" />
    <glyph glyph-name="ordmasculine" unicode="&#xba;" horiz-adv-x="370" 
d="M28 467v5q0 82 39.5 126.5t117.5 44.5t117.5 -44.5t39.5 -126.5v-5q0 -82 -39.5 -126t-117.5 -44t-117.5 44t-39.5 126zM185 569q-35 0 -51.5 -23.5t-16.5 -76.5t16.5 -76t51.5 -23t51.5 23t16.5 76t-16.5 76.5t-51.5 23.5z" />
    <glyph glyph-name="guillemotright" unicode="&#xbb;" horiz-adv-x="577" 
d="M283 435l81 51l173 -243l-173 -243l-81 52l137 191zM44 435l82 51l172 -243l-172 -243l-82 52l137 191z" />
    <glyph glyph-name="onequarter" unicode="&#xbc;" horiz-adv-x="832" 
d="M42 612l122 68h69v-302h72v-71h-243v71h85v203l-80 -45zM633 367h99v-218h50v-70h-50v-85h-86v85h-169v58q97 149 156 230zM562 149h84v126q-16 -22 -84 -126zM580 704l80 -44l-378 -670l-80 47z" />
    <glyph glyph-name="onehalf" unicode="&#xbd;" horiz-adv-x="832" 
d="M42 612l122 68h69v-302h72v-71h-243v71h85v203l-80 -45zM553 274l-10 74q62 29 121 29q58 0 91.5 -28.5t33.5 -78.5q0 -45 -24 -83t-82 -91l-32 -29h140v-73h-245l-6 64l51 47q64 58 82 84q25 35 25 68q0 42 -50 42q-42 0 -95 -25zM580 704l80 -44l-378 -670l-80 47z" />
    <glyph glyph-name="threequarters" unicode="&#xbe;" horiz-adv-x="832" 
d="M633 367h99v-218h50v-70h-50v-85h-86v85h-169v58q97 149 156 230zM562 149h84v126q-16 -22 -84 -126zM580 704l80 -44l-378 -670l-80 47zM86 599l-8 70q53 21 104 21q62 0 95 -25.5t33 -72.5q0 -60 -51 -86q59 -21 59 -89q0 -58 -39 -89t-109 -31q-55 0 -110 20l9 72
q44 -17 90 -17q69 0 69 48q0 47 -69 47h-32v64h28q67 0 67 47q0 37 -54 37q-39 0 -82 -16z" />
    <glyph glyph-name="questiondown" unicode="&#xbf;" horiz-adv-x="450" 
d="M402 -72l8 -100q-85 -33 -174 -33q-94 0 -149 44.5t-55 141.5q0 178 178 195l10 114h95l12 -188l-27 -2q-78 -7 -112.5 -32.5t-34.5 -80.5q0 -48 25.5 -69.5t79.5 -21.5q73 0 144 32zM331 432v-8q0 -67 -66 -67t-66 67v8q0 69 66 69t66 -69z" />
    <glyph glyph-name="Agrave" unicode="&#xc0;" horiz-adv-x="599" 
d="M239 674h121q113 -299 219 -674h-124q0 1 -35 137h-241q-18 -66 -36 -137h-123q100 360 219 674zM301 530h-4q-44 -133 -89 -283h182q-54 181 -89 283zM203 919l213 -129l-38 -68l-229 110z" />
    <glyph glyph-name="Aacute" unicode="&#xc1;" horiz-adv-x="599" 
d="M239 674h121q113 -299 219 -674h-124q0 1 -35 137h-241q-18 -66 -36 -137h-123q100 360 219 674zM301 530h-4q-44 -133 -89 -283h182q-54 181 -89 283zM192 790l212 129l55 -87l-229 -110z" />
    <glyph glyph-name="Acircumflex" unicode="&#xc2;" horiz-adv-x="599" 
d="M239 674h121q113 -299 219 -674h-124q0 1 -35 137h-241q-18 -66 -36 -137h-123q100 360 219 674zM301 530h-4q-44 -133 -89 -283h182q-54 181 -89 283zM265 919h69l128 -135l-55 -49l-104 98h-8l-105 -98l-54 49z" />
    <glyph glyph-name="Atilde" unicode="&#xc3;" horiz-adv-x="599" 
d="M239 674h121q113 -299 219 -674h-124q0 1 -35 137h-241q-18 -66 -36 -137h-123q100 360 219 674zM301 530h-4q-44 -133 -89 -283h182q-54 181 -89 283zM177 752l-50 53q47 86 113 86q29 0 67 -26t59 -26q33 0 55 45l52 -54q-37 -75 -108 -75q-32 0 -70 24t-54 24
q-33 0 -64 -51z" />
    <glyph glyph-name="Adieresis" unicode="&#xc4;" horiz-adv-x="599" 
d="M239 674h121q113 -299 219 -674h-124q0 1 -35 137h-241q-18 -66 -36 -137h-123q100 360 219 674zM301 530h-4q-44 -133 -89 -283h182q-54 181 -89 283zM327 818v6q0 63 62 63t62 -63v-6q0 -63 -62 -63t-62 63zM147 818v6q0 63 62 63q61 0 61 -63v-6q0 -63 -61 -63
q-62 0 -62 63z" />
    <glyph glyph-name="Aring" unicode="&#xc5;" horiz-adv-x="599" 
d="M239 674h121q113 -299 219 -674h-124q0 1 -35 137h-241q-18 -66 -36 -137h-123q100 360 219 674zM301 530h-4q-44 -133 -89 -283h182q-54 181 -89 283zM300 936q43 0 72.5 -30t29.5 -74q0 -43 -30.5 -73.5t-73.5 -30.5q-42 0 -72 30.5t-30 73.5t30.5 73.5t73.5 30.5z
M299 869q-16 0 -26 -10.5t-10 -26.5t10 -26.5t25 -10.5q16 0 26.5 10.5t10.5 26.5t-10 26.5t-26 10.5z" />
    <glyph glyph-name="AE" unicode="&#xc6;" horiz-adv-x="862" 
d="M418 567h-6q-39 -76 -150 -320h156v320zM352 674h465l-8 -109h-271v-167h238v-109h-238v-180h273v-109h-393v137h-205q-39 -86 -59 -137h-132q60 136 168 356.5t162 317.5z" />
    <glyph glyph-name="Ccedilla" unicode="&#xc7;" horiz-adv-x="551" 
d="M47 333v7q0 173 79.5 261.5t226.5 88.5q88 0 158 -35l-13 -111q-64 32 -135 32q-190 0 -190 -240v-5q0 -236 184 -236q76 0 145 30l9 -106q-73 -35 -164 -35h-2l-9 -44q105 -2 105 -90q0 -51 -33 -78.5t-91 -27.5q-54 0 -99 21l17 59q42 -15 74 -15q53 0 53 36
q0 37 -59 37q-14 0 -44 -4l-8 9l25 103q-229 37 -229 343z" />
    <glyph glyph-name="Egrave" unicode="&#xc8;" horiz-adv-x="528" 
d="M76 674h407l-7 -109h-280v-167h246v-109h-246v-180h281v-109h-401v674zM190 919l213 -129l-38 -68l-229 110z" />
    <glyph glyph-name="Eacute" unicode="&#xc9;" horiz-adv-x="528" 
d="M76 674h407l-7 -109h-280v-167h246v-109h-246v-180h281v-109h-401v674zM188 790l212 129l55 -87l-229 -110z" />
    <glyph glyph-name="Ecircumflex" unicode="&#xca;" horiz-adv-x="528" 
d="M76 674h407l-7 -109h-280v-167h246v-109h-246v-180h281v-109h-401v674zM255 919h69l128 -135l-55 -49l-104 98h-8l-105 -98l-54 49z" />
    <glyph glyph-name="Edieresis" unicode="&#xcb;" horiz-adv-x="528" 
d="M76 674h407l-7 -109h-280v-167h246v-109h-246v-180h281v-109h-401v674zM314 818v6q0 63 62 63t62 -63v-6q0 -63 -62 -63t-62 63zM134 818v6q0 63 62 63q61 0 61 -63v-6q0 -63 -61 -63q-62 0 -62 63z" />
    <glyph glyph-name="Igrave" unicode="&#xcc;" horiz-adv-x="278" 
d="M79 674h120v-674h-120v674zM40 919l213 -129l-38 -68l-229 110z" />
    <glyph glyph-name="Iacute" unicode="&#xcd;" horiz-adv-x="278" 
d="M79 674h120v-674h-120v674zM29 790l212 129l55 -87l-229 -110z" />
    <glyph glyph-name="Icircumflex" unicode="&#xce;" horiz-adv-x="278" 
d="M79 674h120v-674h-120v674zM105 919h69l128 -135l-55 -49l-104 98h-8l-105 -98l-54 49z" />
    <glyph glyph-name="Idieresis" unicode="&#xcf;" horiz-adv-x="278" 
d="M79 674h120v-674h-120v674zM167 818v6q0 63 62 63t62 -63v-6q0 -63 -62 -63t-62 63zM-13 818v6q0 63 62 63q61 0 61 -63v-6q0 -63 -61 -63q-62 0 -62 63z" />
    <glyph glyph-name="Eth" unicode="&#xd0;" horiz-adv-x="637" 
d="M76 674h169q182 0 263.5 -72.5t81.5 -260.5q0 -204 -103 -285q-71 -56 -252 -56h-159v289h-69v100h69v285zM196 565v-176h113v-100h-113v-180h43q133 0 179 48.5t46 184.5q0 59 -7.5 97.5t-29 68.5t-61.5 43.5t-102 13.5h-68z" />
    <glyph glyph-name="Ntilde" unicode="&#xd1;" horiz-adv-x="681" 
d="M76 674h102l316 -453v453h111v-674h-96l-322 461v-461h-111v674zM221 752l-50 53q47 86 113 86q29 0 67 -26t59 -26q33 0 55 45l52 -54q-37 -75 -108 -75q-32 0 -70 24t-54 24q-33 0 -64 -51z" />
    <glyph glyph-name="Ograve" unicode="&#xd2;" horiz-adv-x="638" 
d="M47 334v6q0 350 272 350t272 -350v-6q0 -350 -272 -350t-272 350zM319 579q-78 0 -111.5 -60t-33.5 -182t33.5 -182t111.5 -60t111.5 59.5t33.5 182.5q0 122 -33.5 182t-111.5 60zM232 919l213 -129l-38 -68l-229 110z" />
    <glyph glyph-name="Oacute" unicode="&#xd3;" horiz-adv-x="638" 
d="M47 334v6q0 350 272 350t272 -350v-6q0 -350 -272 -350t-272 350zM319 579q-78 0 -111.5 -60t-33.5 -182t33.5 -182t111.5 -60t111.5 59.5t33.5 182.5q0 122 -33.5 182t-111.5 60zM207 790l212 129l55 -87l-229 -110z" />
    <glyph glyph-name="Ocircumflex" unicode="&#xd4;" horiz-adv-x="638" 
d="M47 334v6q0 350 272 350t272 -350v-6q0 -350 -272 -350t-272 350zM319 579q-78 0 -111.5 -60t-33.5 -182t33.5 -182t111.5 -60t111.5 59.5t33.5 182.5q0 122 -33.5 182t-111.5 60zM287 919h69l128 -135l-55 -49l-104 98h-8l-105 -98l-54 49z" />
    <glyph glyph-name="Otilde" unicode="&#xd5;" horiz-adv-x="638" 
d="M47 334v6q0 350 272 350t272 -350v-6q0 -350 -272 -350t-272 350zM319 579q-78 0 -111.5 -60t-33.5 -182t33.5 -182t111.5 -60t111.5 59.5t33.5 182.5q0 122 -33.5 182t-111.5 60zM200 752l-50 53q47 86 113 86q29 0 67 -26t59 -26q33 0 55 45l52 -54q-38 -75 -108 -75
q-32 0 -70 24t-54 24q-33 0 -64 -51z" />
    <glyph glyph-name="Odieresis" unicode="&#xd6;" horiz-adv-x="638" 
d="M47 334v6q0 350 272 350t272 -350v-6q0 -350 -272 -350t-272 350zM319 579q-78 0 -111.5 -60t-33.5 -182t33.5 -182t111.5 -60t111.5 59.5t33.5 182.5q0 122 -33.5 182t-111.5 60zM349 818v6q0 63 62 63t62 -63v-6q0 -63 -62 -63t-62 63zM169 818v6q0 63 62 63
q61 0 61 -63v-6q0 -63 -61 -63q-62 0 -62 63z" />
    <glyph glyph-name="multiply" unicode="&#xd7;" 
d="M142 460l130 -131l130 131l69 -68l-131 -131l120 -120l-69 -69l-120 120l-120 -120l-68 69l120 120l-131 129z" />
    <glyph glyph-name="Oslash" unicode="&#xd8;" horiz-adv-x="638" 
d="M47 334v6q0 350 272 350q75 0 133 -29l47 92l61 -29l-54 -104q85 -86 85 -280v-6q0 -350 -272 -350q-74 0 -128 26l-48 -94l-58 33l51 99q-89 88 -89 286zM199 170l199 386q-32 23 -79 23q-78 0 -111.5 -60t-33.5 -182q0 -110 25 -167zM442 495l-197 -381q29 -19 74 -19
q78 0 111.5 59.5t33.5 182.5q0 99 -22 158z" />
    <glyph glyph-name="Ugrave" unicode="&#xd9;" horiz-adv-x="642" 
d="M73 674h120v-415q0 -88 28.5 -126t99.5 -38t99.5 38t28.5 126v415h120v-423q0 -140 -58 -203.5t-190 -63.5t-190 63.5t-58 203.5v423zM231 919l213 -129l-38 -68l-229 110z" />
    <glyph glyph-name="Uacute" unicode="&#xda;" horiz-adv-x="642" 
d="M73 674h120v-415q0 -88 28.5 -126t99.5 -38t99.5 38t28.5 126v415h120v-423q0 -140 -58 -203.5t-190 -63.5t-190 63.5t-58 203.5v423zM212 790l212 129l55 -87l-229 -110z" />
    <glyph glyph-name="Ucircumflex" unicode="&#xdb;" horiz-adv-x="642" 
d="M73 674h120v-415q0 -88 28.5 -126t99.5 -38t99.5 38t28.5 126v415h120v-423q0 -140 -58 -203.5t-190 -63.5t-190 63.5t-58 203.5v423zM289 919h69l128 -135l-55 -49l-104 98h-8l-105 -98l-54 49z" />
    <glyph glyph-name="Udieresis" unicode="&#xdc;" horiz-adv-x="642" 
d="M73 674h120v-415q0 -88 28.5 -126t99.5 -38t99.5 38t28.5 126v415h120v-423q0 -140 -58 -203.5t-190 -63.5t-190 63.5t-58 203.5v423zM350 818v6q0 63 62 63t62 -63v-6q0 -63 -62 -63t-62 63zM170 818v6q0 63 62 63q61 0 61 -63v-6q0 -63 -61 -63q-62 0 -62 63z" />
    <glyph glyph-name="Yacute" unicode="&#xdd;" horiz-adv-x="548" 
d="M20 674h125q63 -197 127 -330h4q62 125 127 330h125q-74 -223 -195 -450v-224h-119v224q-121 222 -194 450zM175 790l212 129l55 -87l-229 -110z" />
    <glyph glyph-name="Thorn" unicode="&#xde;" horiz-adv-x="550" 
d="M76 674h120v-107h40q65 0 111.5 -9t86 -32t59 -67t19.5 -110q0 -222 -244 -222h-72v-127h-120v674zM196 458v-222h37q43 0 65 2.5t45.5 13t33 34t9.5 63.5q0 59 -31.5 84t-101.5 25h-57z" />
    <glyph glyph-name="germandbls" unicode="&#xdf;" horiz-adv-x="558" 
d="M170 593v-739h-111v819q97 33 201 33q99 0 162 -45.5t63 -133.5q0 -50 -23.5 -94.5t-65.5 -60.5v-4q60 -15 93.5 -62.5t33.5 -105.5q0 -105 -67 -160.5t-176 -55.5q-30 0 -54 4l5 98q22 -3 43 -3q61 0 97 30t36 86q0 113 -154 113v92q59 2 87.5 27.5t28.5 81.5
q0 47 -29 70.5t-81 23.5q-47 0 -89 -14z" />
    <glyph glyph-name="agrave" unicode="&#xe0;" horiz-adv-x="502" 
d="M82 375l-15 90q90 36 182 36q93 0 141.5 -41t48.5 -135v-235q0 -21 6.5 -28.5t27.5 -7.5v-62q-26 -8 -60 -8q-65 0 -79 56q-54 -56 -148 -56q-65 0 -108.5 38.5t-43.5 108.5q0 87 68 133t204 46h22v22q0 42 -24.5 59.5t-76.5 17.5q-74 0 -145 -34zM328 233h-20
q-158 0 -158 -91q0 -31 18.5 -49.5t54.5 -18.5q65 0 105 42v117zM166 741l213 -128l-38 -69l-229 111z" />
    <glyph glyph-name="aacute" unicode="&#xe1;" horiz-adv-x="502" 
d="M82 375l-15 90q90 36 182 36q93 0 141.5 -41t48.5 -135v-235q0 -21 6.5 -28.5t27.5 -7.5v-62q-26 -8 -60 -8q-65 0 -79 56q-54 -56 -148 -56q-65 0 -108.5 38.5t-43.5 108.5q0 87 68 133t204 46h22v22q0 42 -24.5 59.5t-76.5 17.5q-74 0 -145 -34zM328 233h-20
q-158 0 -158 -91q0 -31 18.5 -49.5t54.5 -18.5q65 0 105 42v117zM146 613l213 128l55 -86l-230 -111z" />
    <glyph glyph-name="acircumflex" unicode="&#xe2;" horiz-adv-x="502" 
d="M82 375l-15 90q90 36 182 36q93 0 141.5 -41t48.5 -135v-235q0 -21 6.5 -28.5t27.5 -7.5v-62q-26 -8 -60 -8q-65 0 -79 56q-54 -56 -148 -56q-65 0 -108.5 38.5t-43.5 108.5q0 87 68 133t204 46h22v22q0 42 -24.5 59.5t-76.5 17.5q-74 0 -145 -34zM328 233h-20
q-158 0 -158 -91q0 -31 18.5 -49.5t54.5 -18.5q65 0 105 42v117zM220 742h69l128 -136l-55 -49l-104 98h-8l-105 -98l-54 49z" />
    <glyph glyph-name="atilde" unicode="&#xe3;" horiz-adv-x="502" 
d="M82 375l-15 90q90 36 182 36q93 0 141.5 -41t48.5 -135v-235q0 -21 6.5 -28.5t27.5 -7.5v-62q-26 -8 -60 -8q-65 0 -79 56q-54 -56 -148 -56q-65 0 -108.5 38.5t-43.5 108.5q0 87 68 133t204 46h22v22q0 42 -24.5 59.5t-76.5 17.5q-74 0 -145 -34zM328 233h-20
q-158 0 -158 -91q0 -31 18.5 -49.5t54.5 -18.5q65 0 105 42v117zM254 694l23 -15q27 -18 46 -18q34 0 55 45l52 -53q-38 -77 -108 -77q-32 0 -59 18l-21 14q-25 16 -44 16q-35 0 -64 -50l-50 53q47 86 113 86q28 0 57 -19z" />
    <glyph glyph-name="adieresis" unicode="&#xe4;" horiz-adv-x="502" 
d="M82 375l-15 90q90 36 182 36q93 0 141.5 -41t48.5 -135v-235q0 -21 6.5 -28.5t27.5 -7.5v-62q-26 -8 -60 -8q-65 0 -79 56q-54 -56 -148 -56q-65 0 -108.5 38.5t-43.5 108.5q0 87 68 133t204 46h22v22q0 42 -24.5 59.5t-76.5 17.5q-74 0 -145 -34zM328 233h-20
q-158 0 -158 -91q0 -31 18.5 -49.5t54.5 -18.5q65 0 105 42v117zM283 640v7q0 63 62 63t62 -63v-7q0 -62 -62 -62t-62 62zM103 640v7q0 63 62 63q61 0 61 -63v-7q0 -62 -61 -62q-62 0 -62 62z" />
    <glyph glyph-name="aring" unicode="&#xe5;" horiz-adv-x="502" 
d="M82 375l-15 90q90 36 182 36q93 0 141.5 -41t48.5 -135v-235q0 -21 6.5 -28.5t27.5 -7.5v-62q-26 -8 -60 -8q-65 0 -79 56q-54 -56 -148 -56q-65 0 -108.5 38.5t-43.5 108.5q0 87 68 133t204 46h22v22q0 42 -24.5 59.5t-76.5 17.5q-74 0 -145 -34zM328 233h-20
q-158 0 -158 -91q0 -31 18.5 -49.5t54.5 -18.5q65 0 105 42v117zM256 768q43 0 72.5 -30.5t29.5 -73.5q0 -44 -30 -74t-74 -30q-42 0 -72 30.5t-30 73.5t30.5 73.5t73.5 30.5zM255 701q-16 0 -26 -10.5t-10 -26.5t10 -27t25 -11q16 0 26.5 11t10.5 27t-10 26.5t-26 10.5z
" />
    <glyph glyph-name="ae" unicode="&#xe6;" horiz-adv-x="800" 
d="M84 374l-16 89q93 38 181 38q105 0 147 -69q53 69 159 69q105 0 155 -61.5t50 -189.5q0 -14 -2 -54h-311q10 -118 131 -118q83 0 148 25l7 -89q-69 -30 -158 -30q-131 0 -192 73q-76 -73 -184 -73q-73 0 -119 39t-46 111q0 176 273 176h22v22q0 78 -93 78q-72 0 -152 -36
zM330 232h-8q-36 0 -62.5 -3t-53 -12t-41 -27.5t-14.5 -46.5q0 -31 18.5 -50t54.5 -19q34 0 67 15.5t53 41.5q-14 43 -14 101zM446 276h201q0 136 -95 136q-102 0 -106 -136z" />
    <glyph glyph-name="ccedilla" unicode="&#xe7;" horiz-adv-x="453" 
d="M40 237v5q0 130 65.5 194.5t174.5 64.5q79 0 138 -31l-9 -98q-49 31 -115 31q-138 0 -138 -161v-3q0 -159 136 -159q60 0 119 24l8 -93q-60 -25 -132 -27l-9 -44q105 -2 105 -90q0 -51 -33 -78.5t-91 -27.5q-54 0 -99 21l17 59q42 -15 74 -15q53 0 53 36q0 37 -59 37
q-14 0 -44 -4l-8 9l25 101q-81 13 -122 65q-56 67 -56 184z" />
    <glyph glyph-name="egrave" unicode="&#xe8;" horiz-adv-x="509" 
d="M40 241v2q0 117 57 187.5t167 70.5q105 0 155 -61.5t50 -189.5q0 -14 -2 -54h-311q10 -118 131 -118q83 0 148 25l7 -89q-69 -30 -158 -30q-244 0 -244 257zM155 276h201q0 136 -95 136q-102 0 -106 -136zM171 741l213 -128l-38 -69l-229 111z" />
    <glyph glyph-name="eacute" unicode="&#xe9;" horiz-adv-x="509" 
d="M40 241v2q0 117 57 187.5t167 70.5q105 0 155 -61.5t50 -189.5q0 -14 -2 -54h-311q10 -118 131 -118q83 0 148 25l7 -89q-69 -30 -158 -30q-244 0 -244 257zM155 276h201q0 136 -95 136q-102 0 -106 -136zM149 613l213 128l55 -86l-230 -111z" />
    <glyph glyph-name="ecircumflex" unicode="&#xea;" horiz-adv-x="509" 
d="M40 241v2q0 117 57 187.5t167 70.5q105 0 155 -61.5t50 -189.5q0 -14 -2 -54h-311q10 -118 131 -118q83 0 148 25l7 -89q-69 -30 -158 -30q-244 0 -244 257zM155 276h201q0 136 -95 136q-102 0 -106 -136zM229 740h69l128 -136l-55 -49l-104 98h-8l-105 -98l-54 49z" />
    <glyph glyph-name="edieresis" unicode="&#xeb;" horiz-adv-x="509" 
d="M40 241v2q0 117 57 187.5t167 70.5q105 0 155 -61.5t50 -189.5q0 -14 -2 -54h-311q10 -118 131 -118q83 0 148 25l7 -89q-69 -30 -158 -30q-244 0 -244 257zM155 276h201q0 136 -95 136q-102 0 -106 -136zM293 640v7q0 63 62 63t62 -63v-7q0 -62 -62 -62t-62 62zM113 640
v7q0 63 62 63q61 0 61 -63v-7q0 -62 -61 -62q-62 0 -62 62z" />
    <glyph glyph-name="igrave" unicode="&#xec;" horiz-adv-x="239" 
d="M20 741l213 -128l-38 -69l-229 111zM64 485h111v-485h-111v485z" />
    <glyph glyph-name="iacute" unicode="&#xed;" horiz-adv-x="239" 
d="M12 613l213 128l55 -86l-230 -111zM64 485h111v-485h-111v485z" />
    <glyph glyph-name="icircumflex" unicode="&#xee;" horiz-adv-x="239" 
d="M64 485h111v-485h-111v485zM85 740h69l128 -136l-55 -49l-104 98h-8l-105 -98l-54 49z" />
    <glyph glyph-name="idieresis" unicode="&#xef;" horiz-adv-x="239" 
d="M148 640v7q0 63 62 63t62 -63v-7q0 -62 -62 -62t-62 62zM-32 640v7q0 63 62 63q61 0 61 -63v-7q0 -62 -61 -62q-62 0 -62 62zM64 485h111v-485h-111v485z" />
    <glyph glyph-name="eth" unicode="&#xf0;" horiz-adv-x="535" 
d="M113 641l75 49q37 -10 75 -27l64 50l38 -43l-46 -36q174 -114 174 -361q0 -141 -59.5 -215t-172.5 -74q-100 0 -160.5 67t-60.5 195q0 120 57 182.5t141 62.5q53 0 100 -26q-24 69 -90 116l-71 -53l-36 42l54 42q-33 16 -82 29zM360 363q-43 26 -91 26q-106 0 -106 -141
q0 -81 28 -122.5t75 -41.5q104 0 104 179q0 57 -10 100z" />
    <glyph glyph-name="ntilde" unicode="&#xf1;" horiz-adv-x="539" 
d="M57 485h97l6 -53h1q67 69 161 69q84 0 123 -46t39 -139v-316h-111v298q0 55 -19 78t-64 23q-69 0 -122 -58v-341h-111v485zM278 692l23 -15q27 -18 46 -18q34 0 55 45l52 -53q-38 -77 -108 -77q-32 0 -59 18l-21 14q-25 16 -44 16q-35 0 -64 -50l-50 53q47 86 113 86
q28 0 57 -19z" />
    <glyph glyph-name="ograve" unicode="&#xf2;" horiz-adv-x="539" 
d="M40 240v5q0 124 57.5 190t172.5 66q114 0 171.5 -66t57.5 -190v-5q0 -124 -57.5 -190t-171.5 -66q-115 0 -172.5 66t-57.5 190zM270 408q-59 0 -86.5 -40.5t-27.5 -125.5t27.5 -125t86.5 -40q58 0 85.5 40t27.5 125q0 86 -27.5 126t-85.5 40zM182 741l213 -128l-38 -69
l-229 111z" />
    <glyph glyph-name="oacute" unicode="&#xf3;" horiz-adv-x="539" 
d="M40 240v5q0 124 57.5 190t172.5 66q114 0 171.5 -66t57.5 -190v-5q0 -124 -57.5 -190t-171.5 -66q-115 0 -172.5 66t-57.5 190zM270 408q-59 0 -86.5 -40.5t-27.5 -125.5t27.5 -125t86.5 -40q58 0 85.5 40t27.5 125q0 86 -27.5 126t-85.5 40zM157 613l213 128l55 -86
l-230 -111z" />
    <glyph glyph-name="ocircumflex" unicode="&#xf4;" horiz-adv-x="539" 
d="M40 240v5q0 124 57.5 190t172.5 66q114 0 171.5 -66t57.5 -190v-5q0 -124 -57.5 -190t-171.5 -66q-115 0 -172.5 66t-57.5 190zM270 408q-59 0 -86.5 -40.5t-27.5 -125.5t27.5 -125t86.5 -40q58 0 85.5 40t27.5 125q0 86 -27.5 126t-85.5 40zM236 740h69l128 -136
l-55 -49l-104 98h-8l-105 -98l-54 49z" />
    <glyph glyph-name="otilde" unicode="&#xf5;" horiz-adv-x="539" 
d="M40 240v5q0 124 57.5 190t172.5 66q114 0 171.5 -66t57.5 -190v-5q0 -124 -57.5 -190t-171.5 -66q-115 0 -172.5 66t-57.5 190zM270 408q-59 0 -86.5 -40.5t-27.5 -125.5t27.5 -125t86.5 -40q58 0 85.5 40t27.5 125q0 86 -27.5 126t-85.5 40zM269 692l23 -15
q27 -18 46 -18q34 0 55 45l52 -53q-38 -77 -108 -77q-32 0 -59 18l-21 14q-25 16 -44 16q-35 0 -64 -50l-50 53q47 86 113 86q28 0 57 -19z" />
    <glyph glyph-name="odieresis" unicode="&#xf6;" horiz-adv-x="539" 
d="M40 240v5q0 124 57.5 190t172.5 66q114 0 171.5 -66t57.5 -190v-5q0 -124 -57.5 -190t-171.5 -66q-115 0 -172.5 66t-57.5 190zM270 408q-59 0 -86.5 -40.5t-27.5 -125.5t27.5 -125t86.5 -40q58 0 85.5 40t27.5 125q0 86 -27.5 126t-85.5 40zM299 640v7q0 63 62 63
t62 -63v-7q0 -62 -62 -62t-62 62zM119 640v7q0 63 62 63q61 0 61 -63v-7q0 -62 -61 -62q-62 0 -62 62z" />
    <glyph glyph-name="divide" unicode="&#xf7;" 
d="M211 85v10q0 64 60 64q62 0 62 -64v-10q0 -65 -62 -65q-60 0 -60 65zM211 434v9q0 65 60 65q62 0 62 -65v-9q0 -65 -62 -65q-60 0 -60 65zM70 313h403v-98h-403v98z" />
    <glyph glyph-name="oslash" unicode="&#xf8;" horiz-adv-x="539" 
d="M40 240v5q0 124 57.5 190t172.5 66q63 0 108 -21l49 81l57 -31l-52 -86q67 -64 67 -199v-5q0 -124 -57.5 -190t-171.5 -66q-61 0 -106 18l-45 -75l-53 33l45 76q-71 64 -71 204zM172 137l155 257q-25 14 -57 14q-59 0 -86.5 -40.5t-27.5 -125.5q0 -67 16 -105zM369 341
l-153 -253q24 -11 54 -11q58 0 85.5 40t27.5 125q0 63 -14 99z" />
    <glyph glyph-name="ugrave" unicode="&#xf9;" horiz-adv-x="524" 
d="M55 485h111v-262q0 -88 17 -117t79 -29t79 29t17 117v262h111v-252q0 -139 -40.5 -194t-166.5 -55q-125 0 -166 55t-41 194v252zM173 741l213 -128l-38 -69l-229 111z" />
    <glyph glyph-name="uacute" unicode="&#xfa;" horiz-adv-x="524" 
d="M55 485h111v-262q0 -88 17 -117t79 -29t79 29t17 117v262h111v-252q0 -139 -40.5 -194t-166.5 -55q-125 0 -166 55t-41 194v252zM157 613l213 128l55 -86l-230 -111z" />
    <glyph glyph-name="ucircumflex" unicode="&#xfb;" horiz-adv-x="524" 
d="M55 485h111v-262q0 -88 17 -117t79 -29t79 29t17 117v262h111v-252q0 -139 -40.5 -194t-166.5 -55q-125 0 -166 55t-41 194v252zM231 740h69l128 -136l-55 -49l-104 98h-8l-105 -98l-54 49z" />
    <glyph glyph-name="udieresis" unicode="&#xfc;" horiz-adv-x="524" 
d="M55 485h111v-262q0 -88 17 -117t79 -29t79 29t17 117v262h111v-252q0 -139 -40.5 -194t-166.5 -55q-125 0 -166 55t-41 194v252zM290 640v7q0 63 62 63t62 -63v-7q0 -62 -62 -62t-62 62zM110 640v7q0 63 62 63q61 0 61 -63v-7q0 -62 -61 -62q-62 0 -62 62z" />
    <glyph glyph-name="yacute" unicode="&#xfd;" horiz-adv-x="521" 
d="M55 485h111v-284q0 -52 18 -79.5t64 -27.5q57 0 106 35v356h111v-362q0 -71 -2 -104q-6 -116 -62 -175t-184 -59q-46 0 -81 8l7 86q31 -7 66 -7q72 0 108.5 29t36.5 106v30q-59 -45 -139 -45q-79 0 -119.5 49.5t-40.5 144.5v299zM152 613l213 128l55 -86l-230 -111z" />
    <glyph glyph-name="thorn" unicode="&#xfe;" horiz-adv-x="541" 
d="M57 690h111v-244q57 55 141 55q93 0 142.5 -65.5t49.5 -185.5v-5q0 -119 -52.5 -190t-154.5 -71q-72 0 -126 41v-224h-111v889zM168 346v-227q43 -34 96 -34q121 0 121 159q0 70 -22 112t-84 42q-65 0 -111 -52z" />
    <glyph glyph-name="ydieresis" unicode="&#xff;" horiz-adv-x="521" 
d="M55 485h111v-284q0 -52 18 -79.5t64 -27.5q57 0 106 35v356h111v-362q0 -71 -2 -104q-6 -116 -62 -175t-184 -59q-46 0 -81 8l7 86q31 -7 66 -7q72 0 108.5 29t36.5 106v30q-59 -45 -139 -45q-79 0 -119.5 49.5t-40.5 144.5v299zM287 640v7q0 63 62 63t62 -63v-7
q0 -62 -62 -62t-62 62zM107 640v7q0 63 62 63q61 0 61 -63v-7q0 -62 -61 -62q-62 0 -62 62z" />
    <glyph glyph-name="Amacron" unicode="&#x100;" horiz-adv-x="599" 
d="M239 674h121q113 -299 219 -674h-124q0 1 -35 137h-241q-18 -66 -36 -137h-123q100 360 219 674zM301 530h-4q-44 -133 -89 -283h182q-54 181 -89 283zM153 853h291v-77h-291v77z" />
    <glyph glyph-name="amacron" unicode="&#x101;" horiz-adv-x="502" 
d="M82 375l-15 90q90 36 182 36q93 0 141.5 -41t48.5 -135v-235q0 -21 6.5 -28.5t27.5 -7.5v-62q-26 -8 -60 -8q-65 0 -79 56q-54 -56 -148 -56q-65 0 -108.5 38.5t-43.5 108.5q0 87 68 133t204 46h22v22q0 42 -24.5 59.5t-76.5 17.5q-74 0 -145 -34zM328 233h-20
q-158 0 -158 -91q0 -31 18.5 -49.5t54.5 -18.5q65 0 105 42v117zM106 670h291v-76h-291v76z" />
    <glyph glyph-name="Abreve" unicode="&#x102;" horiz-adv-x="599" 
d="M239 674h121q113 -299 219 -674h-124q0 1 -35 137h-241q-18 -66 -36 -137h-123q100 360 219 674zM301 530h-4q-44 -133 -89 -283h182q-54 181 -89 283zM142 857l68 34q34 -69 89 -69q58 0 90 69l66 -34q-18 -51 -59 -81.5t-97 -30.5q-112 0 -157 112z" />
    <glyph glyph-name="abreve" unicode="&#x103;" horiz-adv-x="502" 
d="M82 375l-15 90q90 36 182 36q93 0 141.5 -41t48.5 -135v-235q0 -21 6.5 -28.5t27.5 -7.5v-62q-26 -8 -60 -8q-65 0 -79 56q-54 -56 -148 -56q-65 0 -108.5 38.5t-43.5 108.5q0 87 68 133t204 46h22v22q0 42 -24.5 59.5t-76.5 17.5q-74 0 -145 -34zM328 233h-20
q-158 0 -158 -91q0 -31 18.5 -49.5t54.5 -18.5q65 0 105 42v117zM96 680l68 34q34 -70 89 -70q57 0 90 70l66 -34q-18 -52 -59 -82.5t-97 -30.5q-111 0 -157 113z" />
    <glyph glyph-name="Aogonek" unicode="&#x104;" horiz-adv-x="599" 
d="M239 674h121q113 -299 219 -674q-66 -23 -104.5 -59t-38.5 -72q0 -41 42 -41q25 0 50 11l11 -60q-38 -19 -84 -19q-112 0 -112 94q0 42 32.5 83.5t79.5 63.5l-35 136h-241q-8 -27 -20.5 -75.5t-15.5 -61.5h-123q91 336 219 674zM301 530h-4q-44 -133 -89 -283h182
q-54 181 -89 283z" />
    <glyph glyph-name="aogonek" unicode="&#x105;" horiz-adv-x="502" 
d="M82 374l-15 89q90 38 182 38q93 0 141.5 -41t48.5 -135v-235q0 -21 6.5 -28.5t27.5 -7.5v-62q-57 -21 -87.5 -53t-30.5 -67q0 -44 42 -44q24 0 49 11l11 -60q-28 -15 -65 -18q-29 0 -34 1q-46 3 -71 26.5t-25 63.5q0 42 28.5 81.5t73.5 62.5q-23 13 -30 44
q-54 -56 -148 -56q-65 0 -108.5 38.5t-43.5 108.5q0 87 68 133t204 46h22v22q0 42 -24.5 60t-76.5 18q-68 0 -145 -36zM328 233h-20q-158 0 -158 -91q0 -31 18.5 -49.5t54.5 -18.5q65 0 105 42v117z" />
    <glyph glyph-name="Cacute" unicode="&#x106;" horiz-adv-x="551" 
d="M47 333v7q0 173 79.5 261.5t226.5 88.5q88 0 158 -35l-13 -111q-64 32 -135 32q-190 0 -190 -240v-5q0 -236 184 -236q76 0 145 30l9 -106q-73 -35 -164 -35q-300 0 -300 349zM210 790l212 129l55 -87l-229 -110z" />
    <glyph glyph-name="cacute" unicode="&#x107;" horiz-adv-x="453" 
d="M40 237v5q0 130 65.5 194.5t174.5 64.5q79 0 138 -31l-9 -98q-49 31 -115 31q-138 0 -138 -161v-3q0 -159 136 -159q60 0 119 24l8 -93q-62 -27 -142 -27q-125 0 -181 69q-56 67 -56 184zM146 613l213 128l55 -86l-230 -111z" />
    <glyph glyph-name="Ccircumflex" unicode="&#x108;" horiz-adv-x="551" 
d="M47 333v7q0 173 79.5 261.5t226.5 88.5q88 0 158 -35l-13 -111q-64 32 -135 32q-190 0 -190 -240v-5q0 -236 184 -236q76 0 145 30l9 -106q-73 -35 -164 -35q-300 0 -300 349zM301 919h69l128 -135l-55 -49l-104 98h-8l-105 -98l-54 49z" />
    <glyph glyph-name="ccircumflex" unicode="&#x109;" horiz-adv-x="453" 
d="M40 237v5q0 130 65.5 194.5t174.5 64.5q79 0 138 -31l-9 -98q-49 31 -115 31q-138 0 -138 -161v-3q0 -159 136 -159q60 0 119 24l8 -93q-62 -27 -142 -27q-125 0 -181 69q-56 67 -56 184zM229 734h69l128 -136l-55 -49l-104 98h-8l-105 -98l-54 49z" />
    <glyph glyph-name="Cdotaccent" unicode="&#x10a;" horiz-adv-x="551" 
d="M47 333v7q0 173 79.5 261.5t226.5 88.5q88 0 158 -35l-13 -111q-64 32 -135 32q-190 0 -190 -240v-5q0 -236 184 -236q76 0 145 30l9 -106q-73 -35 -164 -35q-300 0 -300 349zM263 826q0 33 19 51.5t52 18.5q67 0 67 -70q0 -34 -18 -52.5t-50 -18.5q-33 0 -51.5 18.5
t-18.5 52.5z" />
    <glyph glyph-name="cdotaccent" unicode="&#x10b;" horiz-adv-x="453" 
d="M40 237v5q0 130 65.5 194.5t174.5 64.5q79 0 138 -31l-9 -98q-49 31 -115 31q-138 0 -138 -161v-3q0 -159 136 -159q60 0 119 24l8 -93q-62 -27 -142 -27q-125 0 -181 69q-56 67 -56 184zM193 648q0 33 19 51.5t52 18.5q67 0 67 -70q0 -34 -18 -52t-50 -18
q-33 0 -51.5 18t-18.5 52z" />
    <glyph glyph-name="Ccaron" unicode="&#x10c;" horiz-adv-x="551" 
d="M47 333v7q0 173 79.5 261.5t226.5 88.5q88 0 158 -35l-13 -111q-64 32 -135 32q-190 0 -190 -240v-5q0 -236 184 -236q76 0 145 30l9 -106q-73 -35 -164 -35q-300 0 -300 349zM167 879l55 48l104 -97h8l105 97l54 -48l-128 -136h-69z" />
    <glyph glyph-name="ccaron" unicode="&#x10d;" horiz-adv-x="453" 
d="M40 237v5q0 130 65.5 194.5t174.5 64.5q79 0 138 -31l-9 -98q-49 31 -115 31q-138 0 -138 -161v-3q0 -159 136 -159q60 0 119 24l8 -93q-62 -27 -142 -27q-125 0 -181 69q-56 67 -56 184zM103 699l55 49l104 -98h8l105 98l54 -49l-128 -136h-69z" />
    <glyph glyph-name="Dcaron" unicode="&#x10e;" horiz-adv-x="637" 
d="M76 674h169q182 0 263.5 -72.5t81.5 -260.5v-7q0 -197 -103 -278q-71 -56 -252 -56h-159v674zM196 565v-456h43q18 0 50 2q97 6 136 58t39 170v3q0 59 -7.5 97.5t-29 68.5t-61.5 43.5t-102 13.5h-68zM146 877l55 48l104 -97h8l105 97l54 -48l-128 -136h-69z" />
    <glyph glyph-name="dcaron" unicode="&#x10f;" horiz-adv-x="540" 
d="M370 690h111v-494q0 -70 2 -196h-94l-7 43h-1q-57 -59 -149 -59q-88 0 -140.5 67t-52.5 186v6q0 117 55.5 187.5t158.5 70.5q71 0 117 -36v225zM370 130v236q-38 35 -97 35q-118 0 -118 -159q0 -158 112 -158q59 0 103 46zM528 697v6q0 60 60 60q59 0 59 -65
q0 -75 -57 -189l-55 21q30 58 38 105q-45 11 -45 62z" />
    <glyph glyph-name="Dcroat" unicode="&#x110;" horiz-adv-x="637" 
d="M76 674h169q182 0 263.5 -72.5t81.5 -260.5q0 -204 -103 -285q-71 -56 -252 -56h-159v289h-69v100h69v285zM196 565v-176h113v-100h-113v-180h43q16 0 44 2q101 4 141 56.5t40 174.5q0 59 -7.5 97.5t-29 68.5t-61.5 43.5t-102 13.5h-68z" />
    <glyph glyph-name="dcroat" unicode="&#x111;" horiz-adv-x="540" 
d="M235 614h135v76h111v-76h60v-64h-60v-354q0 -70 2 -196h-94l-7 43h-1q-57 -59 -149 -59q-88 0 -140.5 67t-52.5 186v6q0 117 55.5 187.5t158.5 70.5q71 0 117 -36v85h-135v64zM370 130v236q-38 35 -97 35q-118 0 -118 -159q0 -158 112 -158q59 0 103 46z" />
    <glyph glyph-name="Emacron" unicode="&#x112;" horiz-adv-x="528" 
d="M76 674h407l-7 -109h-280v-167h246v-109h-246v-180h281v-109h-401v674zM137 853h291v-77h-291v77z" />
    <glyph glyph-name="emacron" unicode="&#x113;" horiz-adv-x="509" 
d="M40 241v2q0 117 57 187.5t167 70.5q105 0 155 -61.5t50 -189.5q0 -14 -2 -54h-311q10 -118 131 -118q83 0 148 25l7 -89q-69 -30 -158 -30q-244 0 -244 257zM155 276h201q0 136 -95 136q-102 0 -106 -136zM118 670h291v-76h-291v76z" />
    <glyph glyph-name="Ebreve" unicode="&#x114;" horiz-adv-x="528" 
d="M76 674h407l-7 -109h-280v-167h246v-109h-246v-180h281v-109h-401v674zM126 857l68 34q34 -69 89 -69q58 0 90 69l66 -34q-18 -51 -59 -81.5t-97 -30.5q-112 0 -157 112z" />
    <glyph glyph-name="ebreve" unicode="&#x115;" horiz-adv-x="509" 
d="M40 241v2q0 117 57 187.5t167 70.5q105 0 155 -61.5t50 -189.5q0 -14 -2 -54h-311q10 -118 131 -118q83 0 148 25l7 -89q-69 -30 -158 -30q-244 0 -244 257zM155 276h201q0 136 -95 136q-102 0 -106 -136zM108 680l68 34q34 -70 89 -70q57 0 90 70l66 -34
q-18 -52 -59 -82.5t-97 -30.5q-111 0 -157 113z" />
    <glyph glyph-name="Edotaccent" unicode="&#x116;" horiz-adv-x="528" 
d="M76 674h407l-7 -109h-280v-167h246v-109h-246v-180h281v-109h-401v674zM214 826q0 33 19 51.5t52 18.5q67 0 67 -70q0 -34 -18 -52.5t-50 -18.5q-33 0 -51.5 18.5t-18.5 52.5z" />
    <glyph glyph-name="edotaccent" unicode="&#x117;" horiz-adv-x="509" 
d="M40 241v2q0 117 57 187.5t167 70.5q105 0 155 -61.5t50 -189.5q0 -14 -2 -54h-311q10 -118 131 -118q83 0 148 25l7 -89q-69 -30 -158 -30q-244 0 -244 257zM155 276h201q0 136 -95 136q-102 0 -106 -136zM187 648q0 33 19 51.5t52 18.5q67 0 67 -70q0 -34 -18 -52
t-50 -18q-33 0 -51.5 18t-18.5 52z" />
    <glyph glyph-name="Eogonek" unicode="&#x118;" horiz-adv-x="528" 
d="M76 674h407l-7 -109h-280v-167h246v-109h-246v-180h281v-109q-48 -25 -77 -60.5t-29 -69.5q0 -42 42 -42q27 0 49 11l11 -60q-38 -19 -84 -19q-52 0 -81.5 24t-29.5 67t31 85t79 64h-312v674z" />
    <glyph glyph-name="eogonek" unicode="&#x119;" horiz-adv-x="509" 
d="M40 241v2q0 117 57 187.5t167 70.5q105 0 155 -61.5t50 -189.5q0 -14 -2 -54h-311q10 -118 131 -118q83 0 148 25l7 -89q-5 -2 -17.5 -6.5t-18.5 -6.5q-55 -22 -84.5 -59t-29.5 -74q0 -40 42 -40q27 0 49 11l11 -60q-37 -19 -83 -19q-52 0 -82 24t-30 66q0 37 22.5 73
t60.5 61q-121 1 -181.5 63.5t-60.5 193.5zM155 276h201q0 136 -95 136q-102 0 -106 -136z" />
    <glyph glyph-name="Ecaron" unicode="&#x11a;" horiz-adv-x="528" 
d="M76 674h407l-7 -109h-280v-167h246v-109h-246v-180h281v-109h-401v674zM127 877l55 48l104 -97h8l105 97l54 -48l-128 -136h-69z" />
    <glyph glyph-name="ecaron" unicode="&#x11b;" horiz-adv-x="509" 
d="M40 241v2q0 117 57 187.5t167 70.5q105 0 155 -61.5t50 -189.5q0 -14 -2 -54h-311q10 -118 131 -118q83 0 148 25l7 -89q-69 -30 -158 -30q-244 0 -244 257zM155 276h201q0 136 -95 136q-102 0 -106 -136zM96 699l55 49l104 -98h8l105 98l54 -49l-128 -136h-69z" />
    <glyph glyph-name="Gcircumflex" unicode="&#x11c;" horiz-adv-x="620" 
d="M47 327v7q0 172 82.5 264t231.5 92q93 0 186 -39l-13 -110q-82 37 -159 37q-98 0 -150 -62t-52 -180v-3q0 -241 183 -241q43 0 79 13v156h-106v102h225v-339q-94 -40 -195 -40q-312 0 -312 343zM311 919h69l128 -135l-55 -49l-104 98h-8l-105 -98l-54 49z" />
    <glyph glyph-name="gcircumflex" unicode="&#x11d;" horiz-adv-x="512" 
d="M250 421q-47 0 -68 -23t-21 -72t21 -71t68 -22q46 0 66.5 22t20.5 71t-20.5 72t-66.5 23zM45 324v5q0 85 56 128.5t148 43.5q82 0 137 -35q35 55 112 61v-96q-43 -4 -67 -15q22 -38 22 -87v-5q0 -88 -57 -129.5t-147 -41.5q-36 0 -61 4q-17 -40 -25 -67l103 -4
q34 -1 58.5 -4.5t52.5 -12t45.5 -22.5t29.5 -39t12 -59q0 -81 -63 -122.5t-154 -41.5q-94 0 -143.5 31.5t-49.5 88.5q0 59 42 95q-46 10 -46 53q0 23 14 49.5t54 80.5q-73 45 -73 141zM248 -10l-73 3q-26 -33 -26 -65q0 -62 105 -62q110 0 110 67q0 30 -23.5 41.5
t-92.5 15.5zM220 740h69l128 -136l-55 -49l-104 98h-8l-105 -98l-54 49z" />
    <glyph glyph-name="Gbreve" unicode="&#x11e;" horiz-adv-x="620" 
d="M47 327v7q0 172 82.5 264t231.5 92q93 0 186 -39l-13 -110q-82 37 -159 37q-98 0 -150 -62t-52 -180v-3q0 -241 183 -241q43 0 79 13v156h-106v102h225v-339q-94 -40 -195 -40q-312 0 -312 343zM189 857l68 34q34 -69 89 -69q58 0 90 69l66 -34q-18 -51 -59 -81.5
t-97 -30.5q-112 0 -157 112z" />
    <glyph glyph-name="gbreve" unicode="&#x11f;" horiz-adv-x="512" 
d="M250 421q-47 0 -68 -23t-21 -72t21 -71t68 -22q46 0 66.5 22t20.5 71t-20.5 72t-66.5 23zM45 324v5q0 85 56 128.5t148 43.5q82 0 137 -35q35 55 112 61v-96q-43 -4 -67 -15q22 -38 22 -87v-5q0 -88 -57 -129.5t-147 -41.5q-36 0 -61 4q-17 -40 -25 -67l103 -4
q34 -1 58.5 -4.5t52.5 -12t45.5 -22.5t29.5 -39t12 -59q0 -81 -63 -122.5t-154 -41.5q-94 0 -143.5 31.5t-49.5 88.5q0 59 42 95q-46 10 -46 53q0 23 14 49.5t54 80.5q-73 45 -73 141zM248 -10l-73 3q-26 -33 -26 -65q0 -62 105 -62q110 0 110 67q0 30 -23.5 41.5
t-92.5 15.5zM98 680l68 34q34 -70 89 -70q57 0 90 70l66 -34q-18 -52 -59 -82.5t-97 -30.5q-111 0 -157 113z" />
    <glyph glyph-name="Gdotaccent" unicode="&#x120;" horiz-adv-x="620" 
d="M47 327v7q0 172 82.5 264t231.5 92q93 0 186 -39l-13 -110q-82 37 -159 37q-98 0 -150 -62t-52 -180v-3q0 -241 183 -241q43 0 79 13v156h-106v102h225v-339q-94 -40 -195 -40q-312 0 -312 343zM282 826q0 33 19 51.5t52 18.5q67 0 67 -70q0 -34 -18 -52.5t-50 -18.5
q-33 0 -51.5 18.5t-18.5 52.5z" />
    <glyph glyph-name="gdotaccent" unicode="&#x121;" horiz-adv-x="512" 
d="M250 421q-47 0 -68 -23t-21 -72t21 -71t68 -22q46 0 66.5 22t20.5 71t-20.5 72t-66.5 23zM45 324v5q0 85 56 128.5t148 43.5q82 0 137 -35q35 55 112 61v-96q-43 -4 -67 -15q22 -38 22 -87v-5q0 -88 -57 -129.5t-147 -41.5q-36 0 -61 4q-17 -40 -25 -67l103 -4
q34 -1 58.5 -4.5t52.5 -12t45.5 -22.5t29.5 -39t12 -59q0 -81 -63 -122.5t-154 -41.5q-94 0 -143.5 31.5t-49.5 88.5q0 59 42 95q-46 10 -46 53q0 23 14 49.5t54 80.5q-73 45 -73 141zM248 -10l-73 3q-26 -33 -26 -65q0 -62 105 -62q110 0 110 67q0 30 -23.5 41.5
t-92.5 15.5zM181 648q0 33 19 51.5t52 18.5q67 0 67 -70q0 -34 -18 -52t-50 -18q-33 0 -51.5 18t-18.5 52z" />
    <glyph glyph-name="Gcommaaccent" unicode="&#x122;" horiz-adv-x="620" 
d="M47 327v7q0 172 82.5 264t231.5 92q93 0 186 -39l-13 -110q-82 37 -159 37q-98 0 -150 -62t-52 -180v-3q0 -241 183 -241q43 0 79 13v156h-106v102h225v-339q-94 -40 -195 -40q-312 0 -312 343zM286 -138v6q0 60 60 60q59 0 59 -65q0 -75 -57 -189l-55 21q30 58 38 105
q-45 11 -45 62z" />
    <glyph glyph-name="gcommaaccent" unicode="&#x123;" horiz-adv-x="512" 
d="M250 421q-47 0 -68 -23t-21 -72t21 -71t68 -22q46 0 66.5 22t20.5 71t-20.5 72t-66.5 23zM45 324v5q0 85 56 128.5t148 43.5q82 0 137 -35q35 55 112 61v-96q-43 -4 -67 -15q22 -38 22 -87v-5q0 -88 -57 -129.5t-147 -41.5q-36 0 -61 4q-17 -40 -25 -67l103 -4
q34 -1 58.5 -4.5t52.5 -12t45.5 -22.5t29.5 -39t12 -59q0 -81 -63 -122.5t-154 -41.5q-94 0 -143.5 31.5t-49.5 88.5q0 59 42 95q-46 10 -46 53q0 23 14 49.5t54 80.5q-73 45 -73 141zM248 -10l-73 3q-26 -33 -26 -65q0 -62 105 -62q110 0 110 67q0 30 -23.5 41.5
t-92.5 15.5zM302 627v-6q0 -60 -60 -60q-59 0 -59 65q0 75 57 189l55 -21q-30 -58 -38 -105q45 -11 45 -62z" />
    <glyph glyph-name="Hcircumflex" unicode="&#x124;" horiz-adv-x="657" 
d="M76 674h120v-276h265v276h120v-674h-120v289h-265v-289h-120v674zM295 919h69l128 -135l-55 -49l-104 98h-8l-105 -98l-54 49z" />
    <glyph glyph-name="hcircumflex" unicode="&#x125;" horiz-adv-x="540" 
d="M57 690h111v-250q64 61 154 61q80 0 120 -42q42 -43 42 -143v-316h-111v298q0 55 -19 78q-20 23 -64 23q-32 0 -65.5 -15t-56.5 -39v-345h-111v690zM77 892h69l128 -136l-55 -49l-104 98h-8l-105 -98l-54 49z" />
    <glyph glyph-name="Hbar" unicode="&#x126;" horiz-adv-x="657" 
d="M76 674h120v-99h265v99h120v-99h48v-79h-48v-496h-120v289h-265v-289h-120v496h-49v79h49v99zM196 496v-98h265v98h-265z" />
    <glyph glyph-name="hbar" unicode="&#x127;" horiz-adv-x="540" 
d="M57 690h111v-76h135v-64h-135v-110q64 61 154 61q80 0 120 -42q42 -43 42 -143v-316h-111v298q0 55 -19 78q-20 23 -64 23q-32 0 -65.5 -15t-56.5 -39v-345h-111v550h-56v64h56v76z" />
    <glyph glyph-name="Itilde" unicode="&#x128;" horiz-adv-x="278" 
d="M79 674h120v-674h-120v674zM16 752l-50 53q47 86 113 86q29 0 67 -26t59 -26q33 0 55 45l52 -54q-38 -75 -108 -75q-32 0 -70 24t-54 24q-33 0 -64 -51z" />
    <glyph glyph-name="itilde" unicode="&#x129;" horiz-adv-x="239" 
d="M117 692l23 -15q27 -18 46 -18q34 0 55 45l52 -53q-38 -77 -108 -77q-32 0 -59 18l-21 14q-25 16 -44 16q-35 0 -64 -50l-50 53q47 86 113 86q28 0 57 -19zM64 485h111v-485h-111v485z" />
    <glyph glyph-name="Imacron" unicode="&#x12a;" horiz-adv-x="278" 
d="M79 674h120v-674h-120v674zM-7 853h291v-77h-291v77z" />
    <glyph glyph-name="imacron" unicode="&#x12b;" horiz-adv-x="239" 
d="M-26 670h291v-76h-291v76zM64 485h111v-485h-111v485z" />
    <glyph glyph-name="Ibreve" unicode="&#x12c;" horiz-adv-x="278" 
d="M79 674h120v-674h-120v674zM-18 857l68 34q34 -69 89 -69q58 0 90 69l66 -34q-18 -51 -59 -81.5t-97 -30.5q-112 0 -157 112z" />
    <glyph glyph-name="ibreve" unicode="&#x12d;" horiz-adv-x="239" 
d="M-37 680l68 34q34 -70 89 -70q57 0 90 70l66 -34q-18 -52 -59 -82.5t-97 -30.5q-111 0 -157 113zM64 485h111v-485h-111v485z" />
    <glyph glyph-name="Iogonek" unicode="&#x12e;" horiz-adv-x="278" 
d="M79 674h120v-674q-138 -55 -138 -131q0 -41 41 -41q29 0 49 11l12 -60q-40 -19 -84 -19q-52 0 -82 24.5t-30 67.5q0 44 30.5 85t81.5 66v671z" />
    <glyph glyph-name="iogonek" unicode="&#x12f;" horiz-adv-x="239" 
d="M64 485h111v-485q-132 -60 -132 -129q0 -43 44 -43q25 0 47 11l12 -60q-37 -19 -84 -19q-53 0 -82 24t-29 68t31 86t82 66v481zM57 622v8q0 68 63 68t63 -68v-8q0 -66 -63 -66t-63 66z" />
    <glyph glyph-name="Idotaccent" unicode="&#x130;" horiz-adv-x="278" 
d="M79 674h120v-674h-120v674zM70 826q0 33 19 51.5t52 18.5q67 0 67 -70q0 -34 -18 -52.5t-50 -18.5q-33 0 -51.5 18.5t-18.5 52.5z" />
    <glyph glyph-name="dotlessi" unicode="&#x131;" horiz-adv-x="239" 
d="M64 485h111v-485h-111v485z" />
    <glyph glyph-name="IJ" unicode="&#x132;" horiz-adv-x="695" 
d="M79 674h120v-674h-120v674zM498 674h120v-428q0 -146 -59 -204t-166 -58q-53 0 -98 17l5 98q45 -12 78 -12q70 0 98 41q22 31 22 121v425z" />
    <glyph glyph-name="ij" unicode="&#x133;" horiz-adv-x="468" 
d="M64 485h111v-485h-111v485zM57 620v8q0 68 63 68t63 -68v-8q0 -68 -63 -68t-63 68zM294 485h111v-473q0 -111 -36 -169t-132 -58q-27 0 -49 5l9 89q13 -3 33 -3q33 0 48.5 25t15.5 85v499zM287 620v8q0 68 63 68t63 -68v-8q0 -66 -63 -66t-63 66z" />
    <glyph glyph-name="Jcircumflex" unicode="&#x134;" horiz-adv-x="425" 
d="M228 674h120v-428q0 -146 -59 -204t-166 -58q-53 0 -98 17l5 98q45 -12 78 -12q70 0 98 41q22 31 22 121v425zM253 919h69l128 -135l-55 -49l-104 98h-8l-105 -98l-54 49z" />
    <glyph glyph-name="jcircumflex" unicode="&#x135;" horiz-adv-x="237" 
d="M84 740h69l128 -136l-54 -49l-105 98h-7l-105 -98l-54 49zM63 485h111v-473q0 -111 -36 -169t-132 -58q-27 0 -49 5l9 89q14 -3 33 -3q33 0 48.5 25t15.5 85v499z" />
    <glyph glyph-name="Kcommaaccent" unicode="&#x136;" horiz-adv-x="574" 
d="M76 674h120v-300q127 114 220 300h125q-91 -177 -209 -311l222 -363h-140l-169 285q-26 -24 -49 -39v-246h-120v674zM243 -138v6q0 60 60 60q59 0 59 -65q0 -75 -57 -189l-55 21q30 58 38 105q-45 11 -45 62z" />
    <glyph glyph-name="kcommaaccent" unicode="&#x137;" horiz-adv-x="471" 
d="M57 690h111v-398q99 84 160 193h117q-63 -122 -150 -208l163 -277h-124l-121 206q-13 -11 -45 -31v-175h-111v690zM183 -138v6q0 60 60 60q59 0 59 -65q0 -75 -57 -189l-55 21q30 58 38 105q-45 11 -45 62z" />
    <glyph glyph-name="kgreenlandic" unicode="&#x138;" horiz-adv-x="471" 
d="M57 485h111v-193q99 84 160 193h117q-63 -122 -150 -208l163 -277h-124l-121 206q-13 -11 -45 -31v-175h-111v485z" />
    <glyph glyph-name="Lacute" unicode="&#x139;" horiz-adv-x="489" 
d="M76 674h120v-565h265v-109h-385v674zM32 790l212 129l55 -87l-229 -110z" />
    <glyph glyph-name="lacute" unicode="&#x13a;" horiz-adv-x="233" 
d="M61 690h111v-690h-111v690zM8 794l213 128l55 -86l-230 -111z" />
    <glyph glyph-name="Lcommaaccent" unicode="&#x13b;" horiz-adv-x="489" 
d="M76 674h120v-565h265v-109h-385v674zM209 -138v6q0 60 60 60q59 0 59 -65q0 -75 -57 -189l-55 21q30 58 38 105q-45 11 -45 62z" />
    <glyph glyph-name="lcommaaccent" unicode="&#x13c;" horiz-adv-x="233" 
d="M61 690h111v-690h-111v690zM57 -138v6q0 60 60 60q59 0 59 -65q0 -75 -57 -189l-55 21q30 58 38 105q-45 11 -45 62z" />
    <glyph glyph-name="Lcaron" unicode="&#x13d;" horiz-adv-x="489" 
d="M76 674h120v-565h265v-109h-385v674zM305 632v6q0 60 60 60q59 0 59 -65q0 -75 -57 -189l-55 21q30 58 38 105q-45 11 -45 62z" />
    <glyph glyph-name="lcaron" unicode="&#x13e;" horiz-adv-x="233" 
d="M61 690h111v-690h-111v690zM215 697v6q0 60 60 60q59 0 59 -65q0 -75 -57 -189l-55 21q30 58 38 105q-45 11 -45 62z" />
    <glyph glyph-name="Ldot" unicode="&#x13f;" horiz-adv-x="499" 
d="M76 674h120v-565h265v-109h-385v674zM311 387q0 33 19 51.5t52 18.5q67 0 67 -70q0 -34 -18 -52t-50 -18q-33 0 -51.5 18t-18.5 52z" />
    <glyph glyph-name="ldot" unicode="&#x140;" horiz-adv-x="352" 
d="M61 690h111v-690h-111v690zM222 333q0 33 19 51.5t52 18.5q67 0 67 -70q0 -34 -18 -52t-50 -18q-33 0 -51.5 18t-18.5 52z" />
    <glyph glyph-name="Lslash" unicode="&#x141;" horiz-adv-x="489" 
d="M76 674h120v-238l121 117v-109l-121 -117v-218h265v-109h-385v214l-73 -71v110l73 70v351z" />
    <glyph glyph-name="lslash" unicode="&#x142;" horiz-adv-x="233" 
d="M61 690h111v-274l79 70v-100l-79 -70v-316h-111v233l-66 -58v100l66 58v357z" />
    <glyph glyph-name="Nacute" unicode="&#x143;" horiz-adv-x="681" 
d="M76 674h102l316 -453v453h111v-674h-96l-322 461v-461h-111v674zM246 790l212 129l55 -87l-229 -110z" />
    <glyph glyph-name="nacute" unicode="&#x144;" horiz-adv-x="539" 
d="M57 485h97l6 -53h1q67 69 161 69q84 0 123 -46t39 -139v-316h-111v298q0 55 -19 78t-64 23q-69 0 -122 -58v-341h-111v485zM164 613l213 128l55 -86l-230 -111z" />
    <glyph glyph-name="Ncommaaccent" unicode="&#x145;" horiz-adv-x="681" 
d="M76 674h102l316 -453v453h111v-674h-96l-322 461v-461h-111v674zM299 -138v6q0 60 60 60q59 0 59 -65q0 -75 -57 -189l-55 21q30 58 38 105q-45 11 -45 62z" />
    <glyph glyph-name="ncommaaccent" unicode="&#x146;" horiz-adv-x="539" 
d="M57 485h97l6 -53h1q67 69 161 69q84 0 123 -46t39 -139v-316h-111v298q0 55 -19 78t-64 23q-69 0 -122 -58v-341h-111v485zM212 -138v6q0 60 60 60q59 0 59 -65q0 -75 -57 -189l-55 21q30 58 38 105q-45 11 -45 62z" />
    <glyph glyph-name="Ncaron" unicode="&#x147;" horiz-adv-x="681" 
d="M76 674h102l316 -453v453h111v-674h-96l-322 461v-461h-111v674zM181 877l55 48l104 -97h8l105 97l54 -48l-128 -136h-69z" />
    <glyph glyph-name="ncaron" unicode="&#x148;" horiz-adv-x="539" 
d="M57 485h97l6 -53h1q67 69 161 69q84 0 123 -46t39 -139v-316h-111v298q0 55 -19 78t-64 23q-69 0 -122 -58v-341h-111v485zM113 699l55 49l104 -98h8l105 98l54 -49l-128 -136h-69z" />
    <glyph glyph-name="napostrophe" unicode="&#x149;" horiz-adv-x="539" 
d="M57 485h97l6 -53h1q67 69 161 69q84 0 123 -46t39 -139v-316h-111v298q0 55 -19 78t-64 23q-69 0 -122 -58v-341h-111v485zM-55 697v6q0 60 60 60q59 0 59 -65q0 -75 -57 -189l-55 21q30 58 38 105q-45 11 -45 62z" />
    <glyph glyph-name="Eng" unicode="&#x14a;" horiz-adv-x="681" 
d="M76 674h102l316 -453v453h111v-631q0 -121 -46.5 -184t-151.5 -63q-57 0 -101 16l5 92q36 -11 75 -11q57 0 83 29.5t26 92.5v5l-308 441v-461h-111v674z" />
    <glyph glyph-name="eng" unicode="&#x14b;" horiz-adv-x="539" 
d="M57 485h97l6 -53h1q67 69 161 69q84 0 123 -46t39 -139v-283q0 -137 -44 -192.5t-145 -55.5q-32 0 -52 4l5 84q14 -3 32 -3q48 0 70.5 25t22.5 84v319q0 55 -19 78t-64 23q-69 0 -122 -58v-341h-111v485z" />
    <glyph glyph-name="Omacron" unicode="&#x14c;" horiz-adv-x="638" 
d="M47 334v6q0 350 272 350t272 -350v-6q0 -350 -272 -350t-272 350zM319 579q-78 0 -111.5 -60t-33.5 -182t33.5 -182t111.5 -60t111.5 59.5t33.5 182.5q0 122 -33.5 182t-111.5 60zM175 853h291v-77h-291v77z" />
    <glyph glyph-name="omacron" unicode="&#x14d;" horiz-adv-x="539" 
d="M40 240v5q0 124 57.5 190t172.5 66q114 0 171.5 -66t57.5 -190v-5q0 -124 -57.5 -190t-171.5 -66q-115 0 -172.5 66t-57.5 190zM270 408q-59 0 -86.5 -40.5t-27.5 -125.5t27.5 -125t86.5 -40q58 0 85.5 40t27.5 125q0 86 -27.5 126t-85.5 40zM124 670h291v-76h-291v76z
" />
    <glyph glyph-name="Obreve" unicode="&#x14e;" horiz-adv-x="638" 
d="M47 334v6q0 350 272 350t272 -350v-6q0 -350 -272 -350t-272 350zM319 579q-78 0 -111.5 -60t-33.5 -182t33.5 -182t111.5 -60t111.5 59.5t33.5 182.5q0 122 -33.5 182t-111.5 60zM165 857l68 34q34 -69 89 -69q58 0 90 69l66 -34q-18 -51 -59 -81.5t-97 -30.5
q-112 0 -157 112z" />
    <glyph glyph-name="obreve" unicode="&#x14f;" horiz-adv-x="539" 
d="M40 240v5q0 124 57.5 190t172.5 66q114 0 171.5 -66t57.5 -190v-5q0 -124 -57.5 -190t-171.5 -66q-115 0 -172.5 66t-57.5 190zM270 408q-59 0 -86.5 -40.5t-27.5 -125.5t27.5 -125t86.5 -40q58 0 85.5 40t27.5 125q0 86 -27.5 126t-85.5 40zM113 680l68 34
q34 -70 89 -70q57 0 90 70l66 -34q-18 -52 -59 -82.5t-97 -30.5q-111 0 -157 113z" />
    <glyph glyph-name="Ohungarumlaut" unicode="&#x150;" horiz-adv-x="638" 
d="M47 334v6q0 350 272 350t272 -350v-6q0 -350 -272 -350t-272 350zM319 579q-78 0 -111.5 -60t-33.5 -182t33.5 -182t111.5 -60t111.5 59.5t33.5 182.5q0 122 -33.5 182t-111.5 60zM317 943l77 -56l-163 -168l-60 49zM501 943l77 -56l-163 -168l-59 49z" />
    <glyph glyph-name="ohungarumlaut" unicode="&#x151;" horiz-adv-x="539" 
d="M40 240v5q0 124 57.5 190t172.5 66q114 0 171.5 -66t57.5 -190v-5q0 -124 -57.5 -190t-171.5 -66q-115 0 -172.5 66t-57.5 190zM270 408q-59 0 -86.5 -40.5t-27.5 -125.5t27.5 -125t86.5 -40q58 0 85.5 40t27.5 125q0 86 -27.5 126t-85.5 40zM262 761l77 -55l-163 -169
l-60 49zM446 761l77 -55l-163 -169l-59 49z" />
    <glyph glyph-name="OE" unicode="&#x152;" horiz-adv-x="865" 
d="M47 334v6q0 350 239 350q86 0 139 -53v37h395l-9 -109h-275v-167h242v-109h-242v-180h277v-109h-387v43q-19 -27 -55 -43t-78 -16q-125 0 -185.5 93t-60.5 257zM416 139v402q-39 39 -104 39q-74 0 -106 -60.5t-32 -182.5t33 -181.5t108 -59.5q66 0 101 43z" />
    <glyph glyph-name="oe" unicode="&#x153;" horiz-adv-x="855" 
d="M813 196h-311q10 -118 131 -118q83 0 148 25l7 -89q-69 -30 -158 -30q-134 0 -189 77q-52 -77 -170 -77q-114 0 -172.5 66t-58.5 190q0 127 57.5 194t173.5 67q117 0 172 -81q51 81 167 81q105 0 155 -61.5t50 -189.5q0 -14 -2 -54zM271 410q-60 0 -88 -41t-28 -127
q0 -85 28 -126t88 -41q59 0 87 40t28 123q0 89 -27 130.5t-88 41.5zM501 276h201q0 136 -95 136q-102 0 -106 -136z" />
    <glyph glyph-name="Racute" unicode="&#x154;" horiz-adv-x="566" 
d="M76 674h170q61 0 105.5 -8.5t84 -30.5t60 -65t20.5 -107v-5q0 -151 -118 -198l133 -260h-125l-113 239q-12 -1 -37 -1h-60v-238h-120v674zM196 566v-221h52q80 0 110.5 20.5t30.5 90.5v2q0 58 -32 83t-101 25h-60zM153 790l212 129l55 -87l-229 -110z" />
    <glyph glyph-name="racute" unicode="&#x155;" horiz-adv-x="336" 
d="M57 485h96l8 -67h1q58 78 155 78q0 -5 -1.5 -54t-1.5 -53q-92 -3 -146 -57v-332h-111v485zM94 613l213 128l55 -86l-230 -111z" />
    <glyph glyph-name="Rcommaaccent" unicode="&#x156;" horiz-adv-x="566" 
d="M76 674h170q61 0 105.5 -8.5t84 -30.5t60 -65t20.5 -107v-5q0 -151 -118 -198l133 -260h-125l-113 239q-12 -1 -37 -1h-60v-238h-120v674zM196 566v-221h52q80 0 110.5 20.5t30.5 90.5v2q0 58 -32 83t-101 25h-60zM242 -138v6q0 60 60 60q59 0 59 -65q0 -75 -57 -189
l-55 21q30 58 38 105q-45 11 -45 62z" />
    <glyph glyph-name="rcommaaccent" unicode="&#x157;" horiz-adv-x="336" 
d="M57 485h96l8 -67h1q58 78 155 78q0 -5 -1.5 -54t-1.5 -53q-92 -3 -146 -57v-332h-111v485zM52 -138v6q0 60 60 60q59 0 59 -65q0 -75 -57 -189l-55 21q30 58 38 105q-45 11 -45 62z" />
    <glyph glyph-name="Rcaron" unicode="&#x158;" horiz-adv-x="566" 
d="M76 674h170q61 0 105.5 -8.5t84 -30.5t60 -65t20.5 -107v-5q0 -151 -118 -198l133 -260h-125l-113 239q-12 -1 -37 -1h-60v-238h-120v674zM196 566v-221h52q80 0 110.5 20.5t30.5 90.5v2q0 58 -32 83t-101 25h-60zM118 877l55 48l104 -97h8l105 97l54 -48l-128 -136h-69z
" />
    <glyph glyph-name="rcaron" unicode="&#x159;" horiz-adv-x="336" 
d="M57 485h96l8 -67h1q58 78 155 78q0 -5 -1.5 -54t-1.5 -53q-92 -3 -146 -57v-332h-111v485zM26 699l55 49l104 -98h8l105 98l54 -49l-128 -136h-69z" />
    <glyph glyph-name="Sacute" unicode="&#x15a;" horiz-adv-x="510" 
d="M434 659l-10 -113q-71 34 -139 34q-48 0 -73 -15q-40 -19 -40 -66q0 -38 26 -60t76 -41l46 -17q77 -30 115 -73t38 -117q0 -103 -64.5 -155t-175.5 -52q-87 0 -177 33l8 115q85 -39 159 -39q65 0 94.5 20t29.5 67q0 41 -22.5 60t-77.5 40l-45 17q-75 28 -115.5 75
t-40.5 127q0 86 62.5 138.5t168.5 52.5q83 0 157 -31zM145 790l212 129l55 -87l-229 -110z" />
    <glyph glyph-name="sacute" unicode="&#x15b;" horiz-adv-x="416" 
d="M356 478l-11 -93q-50 25 -111 25q-86 0 -86 -54q0 -23 17.5 -36t56.5 -24l35 -10q69 -20 100 -53.5t31 -96.5q0 -76 -51 -114t-145 -38q-83 0 -151 27l10 93q65 -30 131 -30q48 0 71 12.5t23 42.5q0 26 -15 38t-62 26l-35 10q-129 37 -129 151q0 68 52 107.5t136 39.5
q69 0 133 -23zM104 613l213 128l55 -86l-230 -111z" />
    <glyph glyph-name="Scircumflex" unicode="&#x15c;" horiz-adv-x="510" 
d="M434 659l-10 -113q-71 34 -139 34q-48 0 -73 -15q-40 -19 -40 -66q0 -38 26 -60t76 -41l46 -17q77 -30 115 -73t38 -117q0 -103 -64.5 -155t-175.5 -52q-87 0 -177 33l8 115q85 -39 159 -39q65 0 94.5 20t29.5 67q0 41 -22.5 60t-77.5 40l-45 17q-75 28 -115.5 75
t-40.5 127q0 86 62.5 138.5t168.5 52.5q83 0 157 -31zM222 919h69l128 -135l-55 -49l-104 98h-8l-105 -98l-54 49z" />
    <glyph glyph-name="scircumflex" unicode="&#x15d;" horiz-adv-x="416" 
d="M356 478l-11 -93q-50 25 -111 25q-86 0 -86 -54q0 -23 17.5 -36t56.5 -24l35 -10q69 -20 100 -53.5t31 -96.5q0 -76 -51 -114t-145 -38q-83 0 -151 27l10 93q65 -30 131 -30q48 0 71 12.5t23 42.5q0 26 -15 38t-62 26l-35 10q-129 37 -129 151q0 68 52 107.5t136 39.5
q69 0 133 -23zM178 740h69l128 -136l-55 -49l-104 98h-8l-105 -98l-54 49z" />
    <glyph glyph-name="Scedilla" unicode="&#x15e;" horiz-adv-x="510" 
d="M434 659l-10 -113q-71 34 -139 34q-48 0 -73 -15q-40 -19 -40 -66q0 -38 26 -60t76 -41l46 -17q79 -30 116 -71t37 -118q0 -91 -50.5 -142t-141.5 -62l-10 -48q105 -2 105 -90q0 -51 -33 -78.5t-91 -27.5q-53 0 -100 21l18 59q42 -15 74 -15q52 0 52 36q0 37 -58 37
q-16 0 -44 -4l-8 9l24 99q-78 5 -154 32l8 115q79 -38 159 -38q62 0 92.5 19.5t30.5 66.5q0 41 -22.5 60t-76.5 39l-45 17q-156 56 -156 198q0 88 62.5 141.5t168.5 53.5q83 0 157 -31z" />
    <glyph glyph-name="scedilla" unicode="&#x15f;" horiz-adv-x="416" 
d="M356 478l-11 -93q-50 25 -111 25q-86 0 -86 -54q0 -23 17.5 -35.5t56.5 -24.5l35 -10q67 -21 99 -54t32 -95q0 -135 -162 -150l-10 -47q106 -2 106 -90q0 -51 -33.5 -78.5t-91.5 -27.5q-54 0 -99 21l17 59q42 -15 74 -15q53 0 53 36q0 37 -59 37q-17 0 -43 -4l-9 9
l25 100q-69 7 -115 26l10 92q65 -30 131 -30q47 0 70.5 12t23.5 43q0 26 -15 38t-62 25l-35 10q-129 39 -129 150q0 70 51.5 109t136.5 39q69 0 133 -23z" />
    <glyph glyph-name="Scaron" unicode="&#x160;" horiz-adv-x="510" 
d="M434 659l-10 -113q-71 34 -139 34q-48 0 -73 -15q-40 -19 -40 -66q0 -38 26 -60t76 -41l46 -17q77 -30 115 -73t38 -117q0 -103 -64.5 -155t-175.5 -52q-87 0 -177 33l8 115q85 -39 159 -39q65 0 94.5 20t29.5 67q0 41 -22.5 60t-77.5 40l-45 17q-75 28 -115.5 75
t-40.5 127q0 86 62.5 138.5t168.5 52.5q83 0 157 -31zM101 877l55 48l104 -97h8l105 97l54 -48l-128 -136h-69z" />
    <glyph glyph-name="scaron" unicode="&#x161;" horiz-adv-x="416" 
d="M356 478l-11 -93q-50 25 -111 25q-86 0 -86 -54q0 -23 17.5 -36t56.5 -24l35 -10q69 -20 100 -53.5t31 -96.5q0 -76 -51 -114t-145 -38q-83 0 -151 27l10 93q65 -30 131 -30q48 0 71 12.5t23 42.5q0 26 -15 38t-62 26l-35 10q-129 37 -129 151q0 68 52 107.5t136 39.5
q69 0 133 -23zM51 699l55 49l104 -98h8l105 98l54 -49l-128 -136h-69z" />
    <glyph glyph-name="Tcommaaccent" unicode="&#x162;" horiz-adv-x="531" 
d="M28 674h477l-9 -109h-172v-565h-120v565h-176v109zM204 -138v6q0 60 60 60q59 0 59 -65q0 -75 -57 -189l-55 21q30 58 38 105q-45 11 -45 62z" />
    <glyph glyph-name="tcommaaccent" unicode="&#x163;" horiz-adv-x="346" 
d="M88 614l111 16v-145h113l-4 -85h-109v-231q0 -60 16 -77.5t54 -17.5q22 0 44 6l5 -88q-32 -8 -69 -8q-91 0 -126 42.5t-35 131.5v242h-72v85h72v129zM144 -138v6q0 60 60 60q59 0 59 -65q0 -75 -57 -189l-55 21q30 58 38 105q-45 11 -45 62z" />
    <glyph glyph-name="Tcaron" unicode="&#x164;" horiz-adv-x="531" 
d="M28 674h477l-9 -109h-172v-565h-120v565h-176v109zM102 877l55 48l104 -97h8l105 97l54 -48l-128 -136h-69z" />
    <glyph glyph-name="tcaron" unicode="&#x165;" horiz-adv-x="346" 
d="M88 614l111 16v-145h113l-4 -85h-109v-231q0 -60 16 -77.5t54 -17.5q22 0 44 6l5 -88q-32 -8 -69 -8q-91 0 -126 42.5t-35 131.5v242h-72v85h72v129zM248 696v6q0 60 60 60q59 0 59 -65q0 -75 -57 -189l-55 21q30 58 38 105q-45 11 -45 62z" />
    <glyph glyph-name="Tbar" unicode="&#x166;" horiz-adv-x="531" 
d="M28 674h477l-9 -109h-172v-191h105v-80h-105v-294h-120v294h-105v80h105v191h-176v109z" />
    <glyph glyph-name="tbar" unicode="&#x167;" horiz-adv-x="346" 
d="M88 614l110 16v-145h114l-4 -85h-110v-110h101l-5 -86h-96v-25q0 -66 17.5 -85.5t59.5 -19.5q14 0 38 6l5 -88q-30 -8 -69 -8q-91 0 -126 42.5t-35 131.5v46h-72v86h72v110h-72v85h72v129z" />
    <glyph glyph-name="Utilde" unicode="&#x168;" horiz-adv-x="642" 
d="M73 674h120v-415q0 -88 28.5 -126t99.5 -38t99.5 38t28.5 126v415h120v-423q0 -140 -58 -203.5t-190 -63.5t-190 63.5t-58 203.5v423zM198 752l-50 53q47 86 113 86q29 0 67 -26t59 -26q33 0 55 45l52 -54q-38 -75 -108 -75q-32 0 -70 24t-54 24q-33 0 -64 -51z" />
    <glyph glyph-name="utilde" unicode="&#x169;" horiz-adv-x="524" 
d="M55 485h111v-262q0 -88 17 -117t79 -29t79 29t17 117v262h111v-252q0 -139 -40.5 -194t-166.5 -55q-125 0 -166 55t-41 194v252zM259 692l23 -15q27 -18 46 -18q34 0 55 45l52 -53q-38 -77 -108 -77q-32 0 -59 18l-21 14q-25 16 -44 16q-35 0 -64 -50l-50 53
q47 86 113 86q28 0 57 -19z" />
    <glyph glyph-name="Umacron" unicode="&#x16a;" horiz-adv-x="642" 
d="M73 674h120v-415q0 -88 28.5 -126t99.5 -38t99.5 38t28.5 126v415h120v-423q0 -140 -58 -203.5t-190 -63.5t-190 63.5t-58 203.5v423zM175 853h291v-77h-291v77z" />
    <glyph glyph-name="umacron" unicode="&#x16b;" horiz-adv-x="524" 
d="M55 485h111v-262q0 -88 17 -117t79 -29t79 29t17 117v262h111v-252q0 -139 -40.5 -194t-166.5 -55q-125 0 -166 55t-41 194v252zM116 670h291v-76h-291v76z" />
    <glyph glyph-name="Ubreve" unicode="&#x16c;" horiz-adv-x="642" 
d="M73 674h120v-415q0 -88 28.5 -126t99.5 -38t99.5 38t28.5 126v415h120v-423q0 -140 -58 -203.5t-190 -63.5t-190 63.5t-58 203.5v423zM164 857l68 34q34 -69 89 -69q58 0 90 69l66 -34q-18 -51 -59 -81.5t-97 -30.5q-112 0 -157 112z" />
    <glyph glyph-name="ubreve" unicode="&#x16d;" horiz-adv-x="524" 
d="M55 485h111v-262q0 -88 17 -117t79 -29t79 29t17 117v262h111v-252q0 -139 -40.5 -194t-166.5 -55q-125 0 -166 55t-41 194v252zM105 680l68 34q34 -70 89 -70q57 0 90 70l66 -34q-18 -52 -59 -82.5t-97 -30.5q-111 0 -157 113z" />
    <glyph glyph-name="Uring" unicode="&#x16e;" horiz-adv-x="642" 
d="M73 674h120v-415q0 -88 28.5 -126t99.5 -38t99.5 38t28.5 126v415h120v-423q0 -140 -58 -203.5t-190 -63.5t-190 63.5t-58 203.5v423zM322 936q43 0 72.5 -30t29.5 -74q0 -43 -30.5 -73.5t-73.5 -30.5q-42 0 -72 30.5t-30 73.5t30.5 73.5t73.5 30.5zM321 869
q-16 0 -26 -10.5t-10 -26.5t10 -26.5t25 -10.5q16 0 26.5 10.5t10.5 26.5t-10 26.5t-26 10.5z" />
    <glyph glyph-name="uring" unicode="&#x16f;" horiz-adv-x="524" 
d="M55 485h111v-262q0 -88 17 -117t79 -29t79 29t17 117v262h111v-252q0 -139 -40.5 -194t-166.5 -55q-125 0 -166 55t-41 194v252zM263 768q43 0 72.5 -30.5t29.5 -73.5q0 -44 -30.5 -74t-73.5 -30q-42 0 -72 30.5t-30 73.5t30.5 73.5t73.5 30.5zM262 701q-16 0 -26 -10.5
t-10 -26.5t10 -27t25 -11q16 0 26.5 11t10.5 27t-10 26.5t-26 10.5z" />
    <glyph glyph-name="Uhungarumlaut" unicode="&#x170;" horiz-adv-x="642" 
d="M73 674h120v-415q0 -88 28.5 -126t99.5 -38t99.5 38t28.5 126v415h120v-423q0 -140 -58 -203.5t-190 -63.5t-190 63.5t-58 203.5v423zM310 943l77 -56l-163 -168l-60 49zM494 943l77 -56l-163 -168l-59 49z" />
    <glyph glyph-name="uhungarumlaut" unicode="&#x171;" horiz-adv-x="524" 
d="M55 485h111v-262q0 -88 17 -117t79 -29t79 29t17 117v262h111v-252q0 -139 -40.5 -194t-166.5 -55q-125 0 -166 55t-41 194v252zM260 761l77 -55l-163 -169l-60 49zM444 761l77 -55l-163 -169l-59 49z" />
    <glyph glyph-name="Uogonek" unicode="&#x172;" horiz-adv-x="642" 
d="M73 674h120v-415q0 -88 28.5 -126t99.5 -38t99.5 38t28.5 126v415h120v-423q0 -105 -31 -163.5t-102 -86.5q-56 -22 -84 -58.5t-28 -74.5q0 -40 42 -40q27 0 49 11l11 -60q-37 -19 -83 -19q-52 0 -82 24t-30 66q0 37 22.5 73t60.5 61q-129 1 -185 64.5t-56 202.5v423z
" />
    <glyph glyph-name="uogonek" unicode="&#x173;" horiz-adv-x="524" 
d="M55 485h111v-262q0 -88 17 -117t79 -29t79 29t17 117v262h111v-252q0 -104 -18.5 -155.5t-76.5 -77.5q-52 -23 -82 -59.5t-30 -72.5q0 -40 42 -40q27 0 49 11l11 -60q-37 -19 -83 -19q-52 0 -82 24t-30 66q0 37 22.5 73t60.5 61q-119 2 -158 57t-39 192v252z" />
    <glyph glyph-name="Wcircumflex" unicode="&#x174;" horiz-adv-x="897" 
d="M21 674h127q52 -258 126 -520h2q41 168 74 325q24 122 33 195h135q12 -74 37 -195q40 -185 76 -325h2q57 202 119 520h124q-80 -363 -176 -674h-137q-60 224 -110 498h-2q-47 -250 -112 -498h-137q-108 357 -181 674zM418 919h69l128 -135l-55 -49l-104 98h-8l-105 -98
l-54 49z" />
    <glyph glyph-name="wcircumflex" unicode="&#x175;" horiz-adv-x="721" 
d="M14 485h116q42 -186 87 -351h4q44 159 86 351h107q44 -194 86 -351h2q52 184 89 351h116q-79 -274 -152 -485h-107q-27 96 -86 323h-3q-5 -20 -38 -142t-49 -181h-106q-92 266 -152 485zM325 740h69l128 -136l-55 -49l-104 98h-8l-105 -98l-54 49z" />
    <glyph glyph-name="Ycircumflex" unicode="&#x176;" horiz-adv-x="548" 
d="M20 674h125q63 -197 127 -330h4q62 125 127 330h125q-74 -223 -195 -450v-224h-119v224q-121 222 -194 450zM240 919h69l128 -135l-55 -49l-104 98h-8l-105 -98l-54 49z" />
    <glyph glyph-name="ycircumflex" unicode="&#x177;" horiz-adv-x="521" 
d="M55 485h111v-284q0 -52 18 -79.5t64 -27.5q57 0 106 35v356h111v-362q0 -71 -2 -104q-6 -116 -62 -175t-184 -59q-46 0 -81 8l7 86q31 -7 66 -7q72 0 108.5 29t36.5 106v30q-59 -45 -139 -45q-79 0 -119.5 49.5t-40.5 144.5v299zM225 740h69l128 -136l-55 -49l-104 98h-8
l-105 -98l-54 49z" />
    <glyph glyph-name="Ydieresis" unicode="&#x178;" horiz-adv-x="548" 
d="M20 674h125q63 -197 127 -330h4q62 125 127 330h125q-74 -223 -195 -450v-224h-119v224q-121 222 -194 450zM303 818v6q0 63 62 63t62 -63v-6q0 -63 -62 -63t-62 63zM123 818v6q0 63 62 63q61 0 61 -63v-6q0 -63 -61 -63q-62 0 -62 63z" />
    <glyph glyph-name="Zacute" unicode="&#x179;" horiz-adv-x="542" 
d="M60 674h433v-91l-299 -474h304v-109h-447l-9 93l300 472h-282v109zM171 790l212 129l55 -87l-229 -110z" />
    <glyph glyph-name="zacute" unicode="&#x17a;" horiz-adv-x="429" 
d="M39 485h348v-68q-33 -51 -112 -161.5t-117 -170.5h236v-85h-355l-8 67q36 58 111 168t110 165h-213v85zM115 613l213 128l55 -86l-230 -111z" />
    <glyph glyph-name="Zdotaccent" unicode="&#x17b;" horiz-adv-x="542" 
d="M60 674h433v-91l-299 -474h304v-109h-447l-9 93l300 472h-282v109zM207 826q0 33 19 51.5t52 18.5q67 0 67 -70q0 -34 -18 -52.5t-50 -18.5q-33 0 -51.5 18.5t-18.5 52.5z" />
    <glyph glyph-name="zdotaccent" unicode="&#x17c;" horiz-adv-x="429" 
d="M39 485h348v-68q-33 -51 -112 -161.5t-117 -170.5h236v-85h-355l-8 67q36 58 111 168t110 165h-213v85zM155 648q0 33 19 51.5t52 18.5q67 0 67 -70q0 -34 -18 -52t-50 -18q-33 0 -51.5 18t-18.5 52z" />
    <glyph glyph-name="Zcaron" unicode="&#x17d;" horiz-adv-x="542" 
d="M60 674h433v-91l-299 -474h304v-109h-447l-9 93l300 472h-282v109zM114 877l55 48l104 -97h8l105 97l54 -48l-128 -136h-69z" />
    <glyph glyph-name="zcaron" unicode="&#x17e;" horiz-adv-x="429" 
d="M39 485h348v-68q-33 -51 -112 -161.5t-117 -170.5h236v-85h-355l-8 67q36 58 111 168t110 165h-213v85zM61 699l55 49l104 -98h8l105 98l54 -49l-128 -136h-69z" />
    <glyph glyph-name="longs" unicode="&#x17f;" horiz-adv-x="288" 
d="M20 485h71v36q0 89 45.5 137t134.5 48q32 0 66 -8l-9 -89q-20 5 -43 5q-47 0 -65 -22.5t-18 -77.5v-514h-111v400h-71v85z" />
    <glyph glyph-name="florin" unicode="&#x192;" 
d="M137 485h71v36q0 89 45.5 137t134.5 48q32 0 66 -8l-9 -89q-20 5 -43 5q-47 0 -65 -22.5t-18 -77.5v-29h104l-5 -85h-99v-405q0 -112 -39.5 -161t-142.5 -49q-16 0 -46 2l-1 96q18 -2 38 -2q45 0 62.5 25.5t17.5 88.5v405h-71v85z" />
    <glyph glyph-name="Aringacute" unicode="&#x1fa;" horiz-adv-x="599" 
d="M239 674h121q113 -299 219 -674h-124q0 1 -35 137h-241q-18 -66 -36 -137h-123q100 360 219 674zM301 530h-4q-44 -133 -89 -283h182q-54 181 -89 283zM300 931q43 0 72.5 -30.5t29.5 -73.5t-30 -73.5t-74 -30.5q-42 0 -72 30.5t-30 73.5t30.5 73.5t73.5 30.5zM299 864
q-16 0 -26 -10.5t-10 -26.5t10 -27t25 -11q16 0 26.5 11t10.5 27t-10 26.5t-26 10.5zM181 1025l213 128l55 -86l-230 -111z" />
    <glyph glyph-name="aringacute" unicode="&#x1fb;" horiz-adv-x="502" 
d="M82 375l-15 90q90 36 182 36q93 0 141.5 -41t48.5 -135v-235q0 -21 6.5 -28.5t27.5 -7.5v-62q-26 -8 -60 -8q-65 0 -79 56q-54 -56 -148 -56q-65 0 -108.5 38.5t-43.5 108.5q0 87 68 133t204 46h22v22q0 42 -24.5 59.5t-76.5 17.5q-74 0 -145 -34zM328 233h-20
q-158 0 -158 -91q0 -31 18.5 -49.5t54.5 -18.5q65 0 105 42v117zM256 755q43 0 72.5 -30.5t29.5 -73.5t-30 -73.5t-74 -30.5q-42 0 -72 30.5t-30 73.5t30.5 73.5t73.5 30.5zM255 688q-16 0 -26 -10.5t-10 -26.5t10 -27t25 -11q16 0 26.5 11t10.5 27t-10 26.5t-26 10.5z
M142 848l213 128l55 -86l-230 -111z" />
    <glyph glyph-name="AEacute" unicode="&#x1fc;" horiz-adv-x="862" 
d="M418 567h-6q-39 -76 -150 -320h156v320zM352 674h465l-8 -109h-271v-167h238v-109h-238v-180h273v-109h-393v137h-205q-39 -86 -59 -137h-132q60 136 168 356.5t162 317.5zM474 790l212 129l55 -87l-229 -110z" />
    <glyph glyph-name="aeacute" unicode="&#x1fd;" horiz-adv-x="800" 
d="M84 374l-16 89q93 38 181 38q105 0 147 -69q53 69 159 69q105 0 155 -61.5t50 -189.5q0 -14 -2 -54h-311q10 -118 131 -118q83 0 148 25l7 -89q-69 -30 -158 -30q-131 0 -192 73q-76 -73 -184 -73q-73 0 -119 39t-46 111q0 176 273 176h22v22q0 78 -93 78q-72 0 -152 -36
zM330 232h-8q-36 0 -62.5 -3t-53 -12t-41 -27.5t-14.5 -46.5q0 -31 18.5 -50t54.5 -19q34 0 67 15.5t53 41.5q-14 43 -14 101zM446 276h201q0 136 -95 136q-102 0 -106 -136zM315 613l213 128l55 -86l-230 -111z" />
    <glyph glyph-name="Oslashacute" unicode="&#x1fe;" horiz-adv-x="638" 
d="M47 334v6q0 350 272 350q75 0 133 -29l47 92l61 -29l-54 -104q85 -86 85 -280v-6q0 -350 -272 -350q-74 0 -128 26l-48 -94l-58 33l51 99q-89 88 -89 286zM199 170l199 386q-32 23 -79 23q-78 0 -111.5 -60t-33.5 -182q0 -110 25 -167zM442 495l-197 -381q29 -19 74 -19
q78 0 111.5 59.5t33.5 182.5q0 99 -22 158zM211 790l212 129l55 -87l-229 -110z" />
    <glyph glyph-name="oslashacute" unicode="&#x1ff;" horiz-adv-x="539" 
d="M158 613l213 128l55 -86l-230 -111zM40 240v5q0 124 57.5 190t172.5 66q63 0 108 -21l49 81l57 -31l-52 -86q67 -64 67 -199v-5q0 -124 -57.5 -190t-171.5 -66q-61 0 -106 18l-45 -75l-53 33l45 76q-71 64 -71 204zM172 137l155 257q-25 14 -57 14q-59 0 -86.5 -40.5
t-27.5 -125.5q0 -67 16 -105zM369 341l-153 -253q24 -11 54 -11q58 0 85.5 40t27.5 125q0 63 -14 99z" />
    <glyph glyph-name="Scommaaccent" unicode="&#x218;" horiz-adv-x="510" 
d="M434 659l-10 -113q-71 34 -139 34q-48 0 -73 -15q-40 -19 -40 -66q0 -38 26 -60t76 -41l46 -17q77 -30 115 -73t38 -117q0 -103 -64.5 -155t-175.5 -52q-87 0 -177 33l8 115q85 -39 159 -39q65 0 94.5 20t29.5 67q0 41 -22.5 60t-77.5 40l-45 17q-75 28 -115.5 75
t-40.5 127q0 86 62.5 138.5t168.5 52.5q83 0 157 -31zM206 -138v6q0 60 60 60q59 0 59 -65q0 -75 -57 -189l-55 21q30 58 38 105q-45 11 -45 62z" />
    <glyph glyph-name="scommaaccent" unicode="&#x219;" horiz-adv-x="416" 
d="M356 478l-11 -93q-50 25 -111 25q-86 0 -86 -54q0 -23 17.5 -36t56.5 -24l35 -10q69 -20 100 -53.5t31 -96.5q0 -76 -51 -114t-145 -38q-83 0 -151 27l10 93q65 -30 131 -30q48 0 71 12.5t23 42.5q0 26 -15 38t-62 26l-35 10q-129 37 -129 151q0 68 52 107.5t136 39.5
q69 0 133 -23zM153 -138v6q0 60 60 60q59 0 59 -65q0 -75 -57 -189l-55 21q30 58 38 105q-45 11 -45 62z" />
    <glyph glyph-name="uni021A" unicode="&#x21a;" horiz-adv-x="531" 
d="M28 674h477l-9 -109h-172v-565h-120v565h-176v109zM204 -138v6q0 60 60 60q59 0 59 -65q0 -75 -57 -189l-55 21q30 58 38 105q-45 11 -45 62z" />
    <glyph glyph-name="uni021B" unicode="&#x21b;" horiz-adv-x="346" 
d="M88 614l111 16v-145h113l-4 -85h-109v-231q0 -60 16 -77.5t54 -17.5q22 0 44 6l5 -88q-32 -8 -69 -8q-91 0 -126 42.5t-35 131.5v242h-72v85h72v129zM144 -138v6q0 60 60 60q59 0 59 -65q0 -75 -57 -189l-55 21q30 58 38 105q-45 11 -45 62z" />
    <glyph glyph-name="circumflex" unicode="&#x2c6;" horiz-adv-x="366" 
d="M149 740h69l128 -136l-55 -49l-104 98h-8l-105 -98l-54 49z" />
    <glyph glyph-name="caron" unicode="&#x2c7;" horiz-adv-x="366" 
d="M20 699l55 49l104 -98h8l105 98l54 -49l-128 -136h-69z" />
    <glyph glyph-name="breve" unicode="&#x2d8;" horiz-adv-x="366" 
d="M26 680l68 34q34 -70 89 -70q57 0 90 70l66 -34q-18 -52 -59 -82.5t-97 -30.5q-111 0 -157 113z" />
    <glyph glyph-name="dotaccent" unicode="&#x2d9;" horiz-adv-x="366" 
d="M114 648q0 33 19 51.5t52 18.5q67 0 67 -70q0 -34 -18 -52t-50 -18q-33 0 -51.5 18t-18.5 52z" />
    <glyph glyph-name="ring" unicode="&#x2da;" horiz-adv-x="366" 
d="M184 768q43 0 72.5 -30.5t29.5 -73.5q0 -44 -30 -74t-74 -30q-42 0 -72 30.5t-30 73.5t30.5 73.5t73.5 30.5zM183 701q-16 0 -26 -10.5t-10 -26.5t10 -27t25 -11q16 0 26.5 11t10.5 27t-10 26.5t-26 10.5z" />
    <glyph glyph-name="ogonek" unicode="&#x2db;" horiz-adv-x="366" 
d="M209 6h78v-6q-111 -56 -111 -132q0 -40 42 -40q27 0 49 11l11 -60q-37 -19 -83 -19q-52 0 -82 24t-30 66q0 47 35.5 91t90.5 65z" />
    <glyph glyph-name="tilde" unicode="&#x2dc;" horiz-adv-x="366" 
d="M181 692l23 -15q27 -18 46 -18q34 0 55 45l52 -53q-38 -77 -108 -77q-32 0 -59 18l-21 14q-25 16 -44 16q-35 0 -64 -50l-50 53q47 86 113 86q28 0 57 -19z" />
    <glyph glyph-name="hungarumlaut" unicode="&#x2dd;" horiz-adv-x="366" 
d="M125 761l77 -55l-163 -169l-60 49zM309 761l77 -55l-163 -169l-59 49z" />
    <glyph glyph-name="pi" unicode="&#x3c0;" horiz-adv-x="659" 
d="M164 485h464l-8 -91h-104v-256q0 -37 10.5 -50.5t32.5 -13.5q21 0 38 6l7 -84q-32 -12 -75 -12q-72 0 -97.5 39.5t-25.5 134.5v236h-121v-394h-110v394h-19q-46 0 -86 -40l-46 76q55 55 140 55z" />
    <glyph glyph-name="Wgrave" unicode="&#x1e80;" horiz-adv-x="897" 
d="M21 674h127q52 -258 126 -520h2q41 168 74 325q24 122 33 195h135q12 -74 37 -195q40 -185 76 -325h2q57 202 119 520h124q-80 -363 -176 -674h-137q-60 224 -110 498h-2q-47 -250 -112 -498h-137q-108 357 -181 674zM364 919l213 -129l-38 -68l-229 110z" />
    <glyph glyph-name="wgrave" unicode="&#x1e81;" horiz-adv-x="721" 
d="M14 485h116q42 -186 87 -351h4q44 159 86 351h107q44 -194 86 -351h2q52 184 89 351h116q-79 -274 -152 -485h-107q-27 96 -86 323h-3q-5 -20 -38 -142t-49 -181h-106q-92 266 -152 485zM257 741l213 -128l-38 -69l-229 111z" />
    <glyph glyph-name="Wacute" unicode="&#x1e82;" horiz-adv-x="897" 
d="M21 674h127q52 -258 126 -520h2q41 168 74 325q24 122 33 195h135q12 -74 37 -195q40 -185 76 -325h2q57 202 119 520h124q-80 -363 -176 -674h-137q-60 224 -110 498h-2q-47 -250 -112 -498h-137q-108 357 -181 674zM332 790l212 129l55 -87l-229 -110z" />
    <glyph glyph-name="wacute" unicode="&#x1e83;" horiz-adv-x="721" 
d="M14 485h116q42 -186 87 -351h4q44 159 86 351h107q44 -194 86 -351h2q52 184 89 351h116q-79 -274 -152 -485h-107q-27 96 -86 323h-3q-5 -20 -38 -142t-49 -181h-106q-92 266 -152 485zM257 613l213 128l55 -86l-230 -111z" />
    <glyph glyph-name="Wdieresis" unicode="&#x1e84;" horiz-adv-x="897" 
d="M21 674h127q52 -258 126 -520h2q41 168 74 325q24 122 33 195h135q12 -74 37 -195q40 -185 76 -325h2q57 202 119 520h124q-80 -363 -176 -674h-137q-60 224 -110 498h-2q-47 -250 -112 -498h-137q-108 357 -181 674zM480 818v6q0 63 62 63t62 -63v-6q0 -63 -62 -63
t-62 63zM300 818v6q0 63 62 63q61 0 61 -63v-6q0 -63 -61 -63q-62 0 -62 63z" />
    <glyph glyph-name="wdieresis" unicode="&#x1e85;" horiz-adv-x="721" 
d="M14 485h116q42 -186 87 -351h4q44 159 86 351h107q44 -194 86 -351h2q52 184 89 351h116q-79 -274 -152 -485h-107q-27 96 -86 323h-3q-5 -20 -38 -142t-49 -181h-106q-92 266 -152 485zM387 640v7q0 63 62 63t62 -63v-7q0 -62 -62 -62t-62 62zM207 640v7q0 63 62 63
q61 0 61 -63v-7q0 -62 -61 -62q-62 0 -62 62z" />
    <glyph glyph-name="Ygrave" unicode="&#x1ef2;" horiz-adv-x="548" 
d="M20 674h125q63 -197 127 -330h4q62 125 127 330h125q-74 -223 -195 -450v-224h-119v224q-121 222 -194 450zM183 919l213 -129l-38 -68l-229 110z" />
    <glyph glyph-name="ygrave" unicode="&#x1ef3;" horiz-adv-x="521" 
d="M55 485h111v-284q0 -52 18 -79.5t64 -27.5q57 0 106 35v356h111v-362q0 -71 -2 -104q-6 -116 -62 -175t-184 -59q-46 0 -81 8l7 86q31 -7 66 -7q72 0 108.5 29t36.5 106v30q-59 -45 -139 -45q-79 0 -119.5 49.5t-40.5 144.5v299zM147 741l213 -128l-38 -69l-229 111z" />
    <glyph glyph-name="endash" unicode="&#x2013;" horiz-adv-x="500" 
d="M0 294h500v-95h-500v95z" />
    <glyph glyph-name="emdash" unicode="&#x2014;" horiz-adv-x="1000" 
d="M0 294h1000v-95h-1000v95z" />
    <glyph glyph-name="quoteleft" unicode="&#x2018;" horiz-adv-x="238" 
d="M191 527v-10q0 -69 -70 -69q-38 0 -54.5 20t-16.5 64q0 82 83 223l67 -25q-42 -74 -59 -129q50 -11 50 -74z" />
    <glyph glyph-name="quoteright" unicode="&#x2019;" horiz-adv-x="238" 
d="M47 676v10q0 69 70 69q38 0 54.5 -20t16.5 -64q0 -82 -83 -223l-67 25q42 74 59 129q-50 11 -50 74z" />
    <glyph glyph-name="quotesinglbase" unicode="&#x201a;" horiz-adv-x="238" 
d="M47 53v10q0 69 70 69q38 0 54.5 -20t16.5 -64q0 -82 -83 -223l-67 25q42 74 59 129q-50 11 -50 74z" />
    <glyph glyph-name="quotedblleft" unicode="&#x201c;" horiz-adv-x="448" 
d="M191 527v-10q0 -69 -70 -69q-38 0 -54.5 20t-16.5 64q0 82 83 223l67 -25q-42 -74 -59 -129q50 -11 50 -74zM401 527v-10q0 -69 -70 -69q-38 0 -54.5 20t-16.5 64q0 82 83 223l67 -25q-42 -74 -59 -129q50 -11 50 -74z" />
    <glyph glyph-name="quotedblright" unicode="&#x201d;" horiz-adv-x="448" 
d="M47 676v10q0 69 70 69q38 0 54.5 -20t16.5 -64q0 -82 -83 -223l-67 25q42 74 59 129q-50 11 -50 74zM257 676v10q0 69 70 69q38 0 54.5 -20t16.5 -64q0 -82 -83 -223l-67 25q42 74 59 129q-50 11 -50 74z" />
    <glyph glyph-name="quotedblbase" unicode="&#x201e;" horiz-adv-x="448" 
d="M47 53v10q0 69 70 69q38 0 54.5 -20t16.5 -64q0 -82 -83 -223l-67 25q42 74 59 129q-50 11 -50 74zM257 53v10q0 69 70 69q38 0 54.5 -20t16.5 -64q0 -82 -83 -223l-67 25q42 74 59 129q-50 11 -50 74z" />
    <glyph glyph-name="dagger" unicode="&#x2020;" horiz-adv-x="431" 
d="M155 674h117l-3 -189h132l-9 -86h-125l-5 -415h-97l-5 415h-130v86h128z" />
    <glyph glyph-name="daggerdbl" unicode="&#x2021;" horiz-adv-x="431" 
d="M155 674h117l-3 -189h132l-9 -86h-125q0 -19 -0.5 -57.5t-0.5 -58.5h121l-8 -86h-115l-2 -213h-97l-3 213h-120v86h118v116h-130v86h128z" />
    <glyph glyph-name="bullet" unicode="&#x2022;" horiz-adv-x="369" 
d="M54 240v14q0 66 29.5 100t101.5 34q71 0 100.5 -34t29.5 -100v-14q0 -66 -29.5 -100t-100.5 -34q-72 0 -101.5 34t-29.5 100z" />
    <glyph glyph-name="ellipsis" unicode="&#x2026;" horiz-adv-x="705" 
d="M47 54v9q0 69 71 69q70 0 70 -69v-9q0 -70 -70 -70q-71 0 -71 70zM282 54v9q0 69 71 69q70 0 70 -69v-9q0 -70 -70 -70q-71 0 -71 70zM517 54v9q0 69 71 69q70 0 70 -69v-9q0 -70 -70 -70q-71 0 -71 70z" />
    <glyph glyph-name="perthousand" unicode="&#x2030;" horiz-adv-x="1149" 
d="M569 704l80 -44l-378 -670l-80 47zM635 302q-46 0 -46 -121q0 -122 46 -122q24 0 35 28t11 94q0 121 -46 121zM635 377q69 0 101.5 -48t32.5 -148t-32.5 -148.5t-101.5 -48.5t-101.5 48.5t-32.5 148.5t32.5 148t101.5 48zM197 615q-46 0 -46 -121q0 -122 46 -122
q24 0 35 28t11 94q0 121 -46 121zM197 690q69 0 101.5 -48t32.5 -148t-32.5 -148.5t-101.5 -48.5t-101.5 48.5t-32.5 148.5t32.5 148t101.5 48zM952 302q-46 0 -46 -121q0 -122 46 -122q24 0 35 28t11 94q0 121 -46 121zM952 377q69 0 101.5 -48t32.5 -148t-32.5 -148.5
t-101.5 -48.5t-101.5 48.5t-32.5 148.5t32.5 148t101.5 48z" />
    <glyph glyph-name="guilsinglleft" unicode="&#x2039;" horiz-adv-x="339" 
d="M213 486l82 -51l-137 -192l137 -191q-72 -45 -82 -52l-173 243z" />
    <glyph glyph-name="guilsinglright" unicode="&#x203a;" horiz-adv-x="339" 
d="M44 435l82 51l173 -243l-173 -243l-82 52l137 191z" />
    <glyph glyph-name="fraction" unicode="&#x2044;" horiz-adv-x="166" 
d="M232 704l80 -44l-378 -670l-80 47z" />
    <glyph glyph-name="Euro" unicode="&#x20ac;" 
d="M34 442h69q20 121 89 184.5t181 63.5q82 0 146 -33l-14 -114q-57 30 -123 30q-63 0 -99.5 -32t-49.5 -99h193l-10 -86h-196q-1 -7 -1 -27q0 -12 2 -32h193l-10 -86h-170q13 -59 48 -86t97 -27q68 0 130 30l10 -110q-68 -34 -150 -34q-231 0 -267 227h-85l10 86h67
q-1 11 -1 31q0 19 1 28h-69z" />
    <glyph glyph-name="litre" unicode="&#x2113;" horiz-adv-x="513" 
d="M130 270v223q0 105 39.5 151t125.5 46q167 0 167 -213v-5q0 -112 -59.5 -183t-162.5 -97v-26q0 -49 14.5 -65t55.5 -16q62 0 120 39l15 -94q-65 -46 -161 -46q-154 0 -154 162v27q-33 -7 -74 -11l-16 95q46 4 90 13zM240 494v-197q110 38 110 169v5q0 65 -13.5 93.5
t-41.5 28.5q-29 0 -42 -22.5t-13 -76.5z" />
    <glyph glyph-name="numero" unicode="&#x2116;" horiz-adv-x="1046" 
d="M689 86h297v-86h-297v86zM674 318v5q0 176 161 176q160 0 160 -176v-5q0 -176 -160 -176q-161 0 -161 176zM835 423q-37 0 -54 -24t-17 -79t17.5 -79.5t53.5 -24.5t53.5 24.5t17.5 79.5t-17 79t-54 24zM76 674h102l316 -453v453h111v-674h-96l-322 461v-461h-111v674z
" />
    <glyph glyph-name="trademark" unicode="&#x2122;" horiz-adv-x="687" 
d="M29 711h247l-4 -70h-79v-247h-83v247h-81v70zM316 711h90q11 -30 35.5 -95t34.5 -91q30 87 66 186h90q13 -202 16 -317h-76q-4 132 -7 198q-13 -37 -62 -166h-57q-33 81 -62 164q-4 -64 -8 -196h-76q4 158 16 317z" />
    <glyph glyph-name="Omega" unicode="&#x2126;" horiz-adv-x="691" 
d="M54 92h128q-60 53 -93.5 127.5t-33.5 155.5q0 142 81.5 228.5t208.5 86.5q128 0 209 -86.5t81 -228.5q0 -81 -34.5 -158.5t-91.5 -124.5h127v-92h-251v82q126 113 126 279q0 109 -46 165t-120 56t-120 -56t-46 -165q0 -169 126 -279v-82h-251v92z" />
    <glyph glyph-name="estimated" unicode="&#x212e;" horiz-adv-x="833" 
d="M169 323v-192q0 -15 10 -22q45 -48 108 -76t132 -28q74 0 140 31t110 85h59q-57 -63 -138 -100t-172 -37q-162 0 -278 103.5t-116 249.5q0 147 116 250t278 103t276.5 -103t114.5 -250v-9h-636q-4 0 -4 -5zM169 535v-182q0 -5 4 -5h487q5 0 5 5v190q0 17 -11 27
q-44 46 -105.5 72.5t-129.5 26.5q-66 0 -129 -26.5t-107 -73.5q-14 -13 -14 -34z" />
    <glyph glyph-name="onethird" unicode="&#x2153;" horiz-adv-x="832" 
d="M42 612l122 68h69v-302h72v-71h-243v71h85v203l-80 -45zM580 704l80 -44l-378 -670l-80 47zM560 286l-8 70q53 21 104 21q62 0 95 -25.5t33 -72.5q0 -61 -51 -86q59 -21 59 -89q0 -58 -39 -89t-109 -31q-55 0 -110 20l9 72q44 -17 90 -17q69 0 69 48q0 47 -69 47h-32v64
h28q67 0 67 47q0 37 -54 37q-39 0 -82 -16z" />
    <glyph glyph-name="twothirds" unicode="&#x2154;" horiz-adv-x="832" 
d="M63 587l-10 74q62 29 121 29q58 0 91.5 -28.5t33.5 -78.5q0 -45 -24 -83t-82 -91l-32 -29h140v-73h-245l-6 64l51 47q64 58 82 84q25 36 25 68q0 42 -50 42q-42 0 -95 -25zM580 704l80 -44l-378 -670l-80 47zM560 286l-8 70q53 21 104 21q62 0 95 -25.5t33 -72.5
q0 -61 -51 -86q59 -21 59 -89q0 -58 -39 -89t-109 -31q-55 0 -110 20l9 72q44 -17 90 -17q69 0 69 48q0 47 -69 47h-32v64h28q67 0 67 47q0 37 -54 37q-39 0 -82 -16z" />
    <glyph glyph-name="uni2155" unicode="&#x2155;" horiz-adv-x="832" 
d="M42 612l122 68h69v-302h72v-71h-243v71h85v203l-80 -45zM552 367h220l-4 -72h-141l-1 -71q22 8 51 8q55 0 85.5 -31t30.5 -87q0 -63 -38.5 -96.5t-105.5 -33.5q-60 0 -113 20l11 75q55 -20 92 -20q36 0 51 15q13 13 13 36q0 49 -57 49q-34 0 -73 -17l-24 11zM580 704
l80 -44l-378 -670l-80 47z" />
    <glyph glyph-name="uni2156" unicode="&#x2156;" horiz-adv-x="832" 
d="M63 587l-10 74q62 29 121 29q58 0 91.5 -28.5t33.5 -78.5q0 -45 -24 -83t-82 -91l-32 -29h140v-73h-245l-6 64l51 47q64 58 82 84q25 36 25 68q0 42 -50 42q-42 0 -95 -25zM552 367h220l-4 -72h-141l-1 -71q22 8 51 8q55 0 85.5 -31t30.5 -87q0 -63 -38.5 -96.5
t-105.5 -33.5q-60 0 -113 20l11 75q55 -20 92 -20q36 0 51 15q13 13 13 36q0 49 -57 49q-34 0 -73 -17l-24 11zM580 704l80 -44l-378 -670l-80 47z" />
    <glyph glyph-name="uni2157" unicode="&#x2157;" horiz-adv-x="832" 
d="M552 367h220l-4 -72h-141l-1 -71q22 8 51 8q55 0 85.5 -31t30.5 -87q0 -63 -38.5 -96.5t-105.5 -33.5q-60 0 -113 20l11 75q55 -20 92 -20q36 0 51 15q13 13 13 36q0 49 -57 49q-34 0 -73 -17l-24 11zM580 704l80 -44l-378 -670l-80 47zM86 599l-8 70q53 21 104 21
q62 0 95 -25.5t33 -72.5q0 -60 -51 -86q59 -21 59 -89q0 -58 -39 -89t-109 -31q-55 0 -110 20l9 72q44 -17 90 -17q69 0 69 48q0 47 -69 47h-32v64h28q67 0 67 47q0 37 -54 37q-39 0 -82 -16z" />
    <glyph glyph-name="uni2158" unicode="&#x2158;" horiz-adv-x="832" 
d="M552 367h220l-4 -72h-141l-1 -71q22 8 51 8q55 0 85.5 -31t30.5 -87q0 -63 -38.5 -96.5t-105.5 -33.5q-60 0 -113 20l11 75q55 -20 92 -20q36 0 51 15q13 13 13 36q0 49 -57 49q-34 0 -73 -17l-24 11zM184 680h99v-218h50v-70h-50v-85h-86v85h-169v58q97 149 156 230z
M113 462h84v126q-16 -22 -84 -126zM580 704l80 -44l-378 -670l-80 47z" />
    <glyph glyph-name="uni2159" unicode="&#x2159;" horiz-adv-x="832" 
d="M42 612l122 68h69v-302h72v-71h-243v71h85v203l-80 -45zM752 368l-10 -71q-22 7 -50 7q-72 0 -82 -72q24 11 59 11q53 0 85 -33.5t32 -88.5q0 -61 -38 -99t-97 -38q-73 0 -106.5 48t-33.5 128q0 105 45 161t129 56q36 0 67 -9zM601 159q-2 -27 1 -43q8 -59 49 -59
q21 0 34 16.5t13 43.5q0 25 -12.5 39.5t-35.5 14.5q-32 0 -49 -12zM582 704l80 -44l-378 -670l-80 47z" />
    <glyph glyph-name="uni215A" unicode="&#x215a;" horiz-adv-x="832" 
d="M736 368l-10 -71q-22 7 -50 7q-72 0 -82 -72q24 11 59 11q53 0 85 -33.5t32 -88.5q0 -61 -38 -99t-97 -38q-73 0 -106.5 48t-33.5 128q0 105 45 161t129 56q36 0 67 -9zM585 159q-2 -27 1 -43q8 -59 49 -59q21 0 34 16.5t13 43.5q0 25 -12.5 39.5t-35.5 14.5
q-32 0 -49 -12zM81 680h220l-4 -72h-141l-1 -71q22 8 51 8q55 0 85.5 -31t30.5 -87q0 -63 -38.5 -96.5t-105.5 -33.5q-60 0 -113 20l11 75q55 -20 92 -20q36 0 51 15q13 13 13 36q0 49 -57 49q-34 0 -73 -17l-24 11zM569 704l80 -44l-378 -670l-80 47z" />
    <glyph glyph-name="oneeighth" unicode="&#x215b;" horiz-adv-x="832" 
d="M42 612l122 68h69v-302h72v-71h-243v71h85v203l-80 -45zM580 704l80 -44l-378 -670l-80 47zM579 191q-49 31 -49 85q0 44 34 72.5t93 28.5q58 0 93 -27.5t35 -71.5q0 -55 -54 -84q65 -31 65 -93q0 -54 -39.5 -85.5t-101.5 -31.5t-101 30t-39 84q0 30 18 55.5t46 37.5z
M659 222q41 16 41 52q0 17 -11.5 27.5t-31.5 10.5q-19 0 -30.5 -11t-11.5 -28q0 -31 44 -51zM651 157q-47 -17 -47 -58q0 -22 14 -36t38 -14t37.5 13.5t13.5 35.5q0 36 -56 59z" />
    <glyph glyph-name="threeeighths" unicode="&#x215c;" horiz-adv-x="832" 
d="M580 704l80 -44l-378 -670l-80 47zM579 191q-49 31 -49 85q0 44 34 72.5t93 28.5q58 0 93 -27.5t35 -71.5q0 -55 -54 -84q65 -31 65 -93q0 -54 -39.5 -85.5t-101.5 -31.5t-101 30t-39 84q0 30 18 55.5t46 37.5zM659 222q41 16 41 52q0 17 -11.5 27.5t-31.5 10.5
q-19 0 -30.5 -11t-11.5 -28q0 -31 44 -51zM651 157q-47 -17 -47 -58q0 -22 14 -36t38 -14t37.5 13.5t13.5 35.5q0 36 -56 59zM86 599l-8 70q53 21 104 21q62 0 95 -25.5t33 -72.5q0 -60 -51 -86q59 -21 59 -89q0 -58 -39 -89t-109 -31q-55 0 -110 20l9 72q44 -17 90 -17
q69 0 69 48q0 47 -69 47h-32v64h28q67 0 67 47q0 37 -54 37q-39 0 -82 -16z" />
    <glyph glyph-name="fiveeighths" unicode="&#x215d;" horiz-adv-x="832" 
d="M81 680h220l-4 -72h-141l-1 -71q22 8 51 8q55 0 85.5 -31t30.5 -87q0 -63 -38.5 -96.5t-105.5 -33.5q-60 0 -113 20l11 75q55 -20 92 -20q36 0 51 15q13 13 13 36q0 49 -57 49q-34 0 -73 -17l-24 11zM569 704l80 -44l-378 -670l-80 47zM568 191q-49 31 -49 85
q0 44 34 72.5t93 28.5q58 0 93 -27.5t35 -71.5q0 -55 -54 -84q65 -31 65 -93q0 -54 -39.5 -85.5t-101.5 -31.5t-101 30t-39 84q0 30 18 55.5t46 37.5zM648 222q41 16 41 52q0 17 -11.5 27.5t-31.5 10.5q-19 0 -30.5 -11t-11.5 -28q0 -31 44 -51zM640 157q-47 -17 -47 -58
q0 -22 14 -36t38 -14t37.5 13.5t13.5 35.5q0 36 -56 59z" />
    <glyph glyph-name="seveneighths" unicode="&#x215e;" horiz-adv-x="832" 
d="M569 704l80 -44l-378 -670l-80 47zM568 191q-49 31 -49 85q0 44 34 72.5t93 28.5q58 0 93 -27.5t35 -71.5q0 -55 -54 -84q65 -31 65 -93q0 -54 -39.5 -85.5t-101.5 -31.5t-101 30t-39 84q0 30 18 55.5t46 37.5zM648 222q41 16 41 52q0 17 -11.5 27.5t-31.5 10.5
q-19 0 -30.5 -11t-11.5 -28q0 -31 44 -51zM640 157q-47 -17 -47 -58q0 -22 14 -36t38 -14t37.5 13.5t13.5 35.5q0 36 -56 59zM96 680h259v-69l-152 -304h-101l154 301h-160v72z" />
    <glyph glyph-name="partialdiff" unicode="&#x2202;" horiz-adv-x="517" 
d="M113 571l-19 97q52 22 120 22q134 0 198 -103.5t64 -291.5q0 -311 -223 -311q-102 0 -157 66t-55 173q0 95 51.5 153.5t145.5 58.5q64 0 111 -30q-10 94 -45 139t-100 45q-46 0 -91 -18zM356 305q-45 29 -95 29q-101 0 -101 -119q0 -60 26 -95t72 -35q58 0 79 49.5
t21 136.5q0 8 -2 34z" />
    <glyph glyph-name="Delta" unicode="&#x2206;" horiz-adv-x="612" 
d="M250 674h115l201 -584v-90h-520v90zM303 533l-145 -433h296l-143 433h-8z" />
    <glyph glyph-name="product" unicode="&#x220f;" horiz-adv-x="651" 
d="M28 674h595l-8 -92h-92v-582h-110v582h-174v-582h-110v582h-101v92z" />
    <glyph glyph-name="summation" unicode="&#x2211;" horiz-adv-x="499" 
d="M37 674h425l-9 -96h-279l168 -242l-169 -240h288v-96h-424v83l175 253l-175 250v88z" />
    <glyph glyph-name="minus" unicode="&#x2212;" 
d="M70 313h403v-98h-403v98z" />
    <glyph glyph-name="radical" unicode="&#x221a;" horiz-adv-x="580" 
d="M27 350h158l80 -219l185 558l102 -31l-225 -658h-118l-99 258h-77z" />
    <glyph glyph-name="infinity" unicode="&#x221e;" horiz-adv-x="717" 
d="M362 351q59 99 162 99q74 0 120.5 -44t46.5 -122t-47.5 -123.5t-120.5 -45.5q-103 0 -167 97q-56 -97 -163 -97q-73 0 -119.5 46t-46.5 123q0 79 47 122.5t118 43.5q110 0 170 -99zM407 284q19 -38 47.5 -60t60.5 -22q35 0 56.5 22.5t21.5 59.5q0 39 -21.5 59.5
t-58.5 20.5q-64 0 -106 -80zM311 284q-44 80 -109 80q-36 0 -56.5 -21t-20.5 -59t22 -60t60 -22q60 0 104 82z" />
    <glyph glyph-name="integral" unicode="&#x222b;" horiz-adv-x="383" 
d="M344 681l4 -96q-61 -6 -82 -35t-21 -99v-426q0 -105 -51 -154.5t-161 -52.5l-5 96q60 7 83 37t23 98v426q0 105 50 154.5t160 51.5z" />
    <glyph glyph-name="approxequal" unicode="&#x2248;" 
d="M103 295l-61 57q56 96 143 96q44 0 90 -30l26 -17q31 -20 55 -20q43 0 80 60l65 -52q-56 -100 -141 -100q-48 0 -92 30l-26 17q-27 17 -55 17q-45 0 -84 -58zM103 94l-61 57q56 96 143 96q44 0 90 -30l26 -17q31 -20 55 -20q43 0 80 60l65 -52q-56 -100 -141 -100
q-48 0 -92 30l-26 17q-27 17 -55 17q-45 0 -84 -58z" />
    <glyph glyph-name="notequal" unicode="&#x2260;" 
d="M70 422h224l42 114h76l-43 -114h104v-98h-141l-44 -118h185v-99h-222l-42 -114h-75l42 114h-106v99h143l44 118h-187v98z" />
    <glyph glyph-name="lessequal" unicode="&#x2264;" 
d="M68 95h403v-95h-403v95zM95 391l312 177l43 -80l-224 -127v-4l224 -126l-43 -78l-312 173v65z" />
    <glyph glyph-name="greaterequal" unicode="&#x2265;" 
d="M71 95h403v-95h-403v95zM135 568l312 -177v-65l-312 -173l-43 78l225 126v4l-225 127z" />
    <glyph glyph-name="lozenge" unicode="&#x25ca;" 
d="M271 532l-128 -192l128 -193l128 193zM262 699h18l239 -359q-28 -41 -105 -159t-134 -201h-18l-239 360z" />
    <glyph glyph-name="CR" horiz-adv-x="186" 
 />
    <glyph glyph-name="commaaccent" horiz-adv-x="366" 
d="M124 -138v6q0 60 60 60q59 0 59 -65q0 -75 -57 -189l-55 21q30 58 38 105q-45 11 -45 62z" />
    <glyph glyph-name="grave.sc" horiz-adv-x="366" 
d="M106 784l213 -129l-38 -68l-230 110z" />
    <glyph glyph-name="acute.sc" horiz-adv-x="366" 
d="M52 655l213 129l54 -86l-229 -111z" />
    <glyph glyph-name="dieresis.sc" horiz-adv-x="366" 
d="M211 677v7q0 63 62 63t62 -63v-7q0 -62 -62 -62t-62 62zM31 677v7q0 63 62 63q61 0 61 -63v-7q0 -62 -61 -62q-62 0 -62 62z" />
    <glyph glyph-name="circumflex.sc" horiz-adv-x="366" 
d="M149 777h69l128 -136l-55 -49l-104 99h-8l-105 -99l-54 49z" />
    <glyph glyph-name="tilde.sc" horiz-adv-x="366" 
d="M61 610l-51 52q47 86 113 86q29 0 67 -26t59 -26q35 0 56 45l51 -53q-37 -76 -107 -76q-33 0 -70 24t-54 24q-36 0 -64 -50z" />
    <glyph glyph-name="macron.sc" horiz-adv-x="366" 
d="M37 715h291v-76h-291v76z" />
    <glyph glyph-name="breve.sc" horiz-adv-x="366" 
d="M26 717l68 34q34 -69 89 -69q57 0 90 69l66 -34q-18 -51 -59 -81.5t-97 -30.5q-112 0 -157 112z" />
    <glyph glyph-name="dotaccent.sc" horiz-adv-x="366" 
d="M114 686q0 29 20.5 49.5t50.5 20.5q28 0 47.5 -20.5t19.5 -49.5q0 -30 -20 -50.5t-49 -20.5t-49 20.5t-20 50.5z" />
    <glyph glyph-name="ring.sc" horiz-adv-x="366" 
d="M184 805q43 0 72.5 -30.5t29.5 -73.5t-30 -73.5t-74 -30.5q-42 0 -72 30.5t-30 73.5t30.5 73.5t73.5 30.5zM183 738q-16 0 -26 -10.5t-10 -26.5q0 -15 10 -26t25 -11q16 0 26.5 11t10.5 26q0 16 -10 26.5t-26 10.5z" />
    <glyph glyph-name="hungarumlaut.sc" horiz-adv-x="366" 
d="M125 803l77 -56l-163 -169l-60 49zM309 803l77 -56l-163 -169l-59 49z" />
    <glyph glyph-name="caron.sc" horiz-adv-x="366" 
d="M20 739l54 49l105 -99h8l104 99l55 -49l-128 -136h-69z" />
    <glyph glyph-name="grave.cap" horiz-adv-x="366" 
d="M104 919l213 -129l-38 -68l-229 110z" />
    <glyph glyph-name="acute.cap" horiz-adv-x="366" 
d="M50 790l212 129l55 -87l-229 -110z" />
    <glyph glyph-name="dieresis.cap" horiz-adv-x="366" 
d="M211 818v6q0 63 62 63t62 -63v-6q0 -63 -62 -63t-62 63zM31 818v6q0 63 62 63q61 0 61 -63v-6q0 -63 -61 -63q-62 0 -62 63z" />
    <glyph glyph-name="circumflex.cap" horiz-adv-x="366" 
d="M149 919h69l128 -135l-55 -49l-104 98h-8l-105 -98l-54 49z" />
    <glyph glyph-name="tilde.cap" horiz-adv-x="366" 
d="M61 752l-50 53q47 86 113 86q29 0 67 -26t59 -26q33 0 55 45l52 -54q-37 -75 -108 -75q-32 0 -70 24t-54 24q-33 0 -64 -51z" />
    <glyph glyph-name="macron.cap" horiz-adv-x="366" 
d="M37 853h291v-77h-291v77z" />
    <glyph glyph-name="breve.cap" horiz-adv-x="366" 
d="M26 857l68 34q34 -69 89 -69q58 0 90 69l66 -34q-18 -51 -59 -81.5t-97 -30.5q-112 0 -157 112z" />
    <glyph glyph-name="dotaccent.cap" horiz-adv-x="366" 
d="M114 826q0 33 19 51.5t52 18.5q67 0 67 -70q0 -34 -18 -52.5t-50 -18.5q-33 0 -51.5 18.5t-18.5 52.5z" />
    <glyph glyph-name="ring.cap" horiz-adv-x="366" 
d="M184 936q43 0 72.5 -30t29.5 -74q0 -43 -30.5 -73.5t-73.5 -30.5q-42 0 -72 30.5t-30 73.5t30.5 73.5t73.5 30.5zM183 869q-16 0 -26 -10.5t-10 -26.5t10 -26.5t25 -10.5q16 0 26.5 10.5t10.5 26.5t-10 26.5t-26 10.5z" />
    <glyph glyph-name="hungarumlaut.cap" horiz-adv-x="366" 
d="M125 943l77 -56l-163 -168l-60 49zM309 943l77 -56l-163 -168l-59 49z" />
    <glyph glyph-name="caron.cap" horiz-adv-x="366" 
d="M20 877l55 48l104 -97h8l105 97l54 -48l-128 -136h-69z" />
    <glyph glyph-name="periodcentered.cap" horiz-adv-x="235" 
d="M51 333v10q0 68 67 68q66 0 66 -68v-10q0 -69 -66 -69q-67 0 -67 69z" />
    <glyph glyph-name="bullet.cap" horiz-adv-x="369" 
d="M54 331v14q0 66 29.5 100t101.5 34q71 0 100.5 -34t29.5 -100v-14q0 -66 -29.5 -100t-100.5 -34q-72 0 -101.5 34t-29.5 100z" />
    <glyph glyph-name="parenleft.cap" horiz-adv-x="385" 
d="M281 780l62 -50q-149 -167 -149 -391q0 -221 148 -391l-60 -49q-205 195 -205 441q0 247 204 440z" />
    <glyph glyph-name="parenright.cap" horiz-adv-x="385" 
d="M43 730l61 50q205 -194 205 -440t-205 -441l-61 49q148 170 148 391q0 224 -148 391z" />
    <glyph glyph-name="bracketleft.cap" horiz-adv-x="353" 
d="M78 730h205v-85h-100v-612h100v-86h-205v783z" />
    <glyph glyph-name="bracketright.cap" horiz-adv-x="353" 
d="M70 730h205v-783h-205v86h99v612h-99v85z" />
    <glyph glyph-name="braceleft.cap" horiz-adv-x="370" 
d="M264 751h63v-85h-40q-33 0 -44.5 -14t-12.5 -52l-1 -125q-1 -61 -19.5 -92.5t-63.5 -43.5v-2q45 -13 63.5 -46t19.5 -92l1 -125q1 -37 13 -51.5t44 -14.5h40v-84h-63q-68 0 -102.5 37.5t-35.5 104.5l-2 158q-2 68 -69 78v70q67 12 69 78l2 158q0 67 35 105t103 38z" />
    <glyph glyph-name="braceright.cap" horiz-adv-x="370" 
d="M44 751h63q68 0 103 -38t36 -105l1 -158q1 -66 69 -78v-70q-67 -10 -69 -78l-1 -158q-1 -67 -36 -104.5t-103 -37.5h-63v83h40q33 0 44.5 14t11.5 52l1 126q1 61 19.5 93t64.5 45v2q-45 12 -64 44.5t-20 91.5l-1 126q0 38 -11.5 52.5t-44.5 14.5h-40v83z" />
    <glyph glyph-name="questiondown.cap" horiz-adv-x="450" 
d="M400 117l8 -100q-85 -33 -174 -33q-94 0 -149 44.5t-55 141.5q0 178 178 195l10 114h95l12 -188l-27 -2q-78 -7 -112.5 -32.5t-34.5 -80.5q0 -48 25.5 -69.5t79.5 -21.5q73 0 144 32zM329 621v-8q0 -67 -66 -67t-66 67v8q0 69 66 69t66 -69z" />
    <glyph glyph-name="exclamdown.cap" horiz-adv-x="275" 
d="M93 470h89l11 -219v-251h-112v251zM75 614v9q0 67 63 67q34 0 48 -17t14 -50v-9q0 -66 -62 -66q-63 0 -63 66z" />
    <glyph glyph-name="guillemotleft.cap" horiz-adv-x="577" 
d="M213 579l82 -51l-137 -191l137 -192l-82 -52l-173 244zM453 579l82 -51l-138 -191l137 -192l-81 -52l-173 244z" />
    <glyph glyph-name="guillemotright.cap" horiz-adv-x="576" 
d="M282 528l81 51l173 -242l-173 -244l-81 52l137 192zM43 528l82 51l172 -242l-172 -244l-82 52l137 192z" />
    <glyph glyph-name="guilsinglleft.cap" horiz-adv-x="339" 
d="M213 579l82 -51l-137 -191l137 -192q-72 -45 -82 -52l-173 244z" />
    <glyph glyph-name="guilsinglright.cap" horiz-adv-x="339" 
d="M41 528l82 51l173 -242l-173 -244l-82 52l137 192z" />
    <glyph glyph-name="hyphen.cap" horiz-adv-x="290" 
d="M40 384h210v-98h-210v98z" />
    <glyph glyph-name="uni00AD.cap" horiz-adv-x="290" 
d="M40 384h210v-98h-210v98z" />
    <glyph glyph-name="endash.cap" horiz-adv-x="500" 
d="M0 383h500v-95h-500v95z" />
    <glyph glyph-name="emdash.cap" horiz-adv-x="1000" 
d="M0 383h1000v-95h-1000v95z" />
    <glyph glyph-name="A.sc" 
d="M205 540h135q73 -202 177 -540h-119q-13 49 -30 106h-190q-9 -30 -29 -106h-123q92 298 179 540zM273 427h-4q-40 -130 -67 -229h140q-23 86 -69 229z" />
    <glyph glyph-name="B.sc" horiz-adv-x="545" 
d="M78 540h168q111 0 164 -26.5t53 -108.5q0 -41 -19.5 -72t-59.5 -43v-2q55 -7 86 -41t31 -90q0 -83 -58 -120t-173 -37h-192v540zM196 449v-128h65q45 0 64 14.5t19 54.5q0 35 -18.5 47t-67.5 12h-62zM196 236v-145h78q55 0 79.5 15.5t24.5 57.5q0 44 -26 58t-93 14h-63z
" />
    <glyph glyph-name="C.sc" horiz-adv-x="508" 
d="M50 264v8q0 284 266 284q75 0 146 -29l-14 -105q-61 27 -121 27q-154 0 -154 -179q0 -93 36 -136t117 -43q68 0 127 25l8 -104q-66 -28 -146 -28q-265 0 -265 280z" />
    <glyph glyph-name="D.sc" horiz-adv-x="591" 
d="M78 540h156q160 0 233.5 -56.5t73.5 -208.5q0 -148 -69.5 -211.5t-244.5 -63.5h-149v540zM196 438v-336h52q97 0 133.5 37t36.5 135q0 92 -35.5 128t-133.5 36h-53z" />
    <glyph glyph-name="E.sc" horiz-adv-x="482" 
d="M78 540h355l-7 -102h-230v-116h203v-95h-203v-125h231v-102h-349v540z" />
    <glyph glyph-name="F.sc" horiz-adv-x="482" 
d="M78 540h360l-6 -102h-236v-130h209v-99h-209v-209h-118v540z" />
    <glyph glyph-name="G.sc" horiz-adv-x="561" 
d="M50 266v4q0 138 72 212t208 74q82 0 161 -31l-10 -102q-72 31 -147 31q-161 0 -161 -182q0 -95 35 -140t109 -45q44 0 73 7v110h-86v92h196v-280q-86 -32 -185 -32q-132 0 -198.5 72.5t-66.5 209.5z" />
    <glyph glyph-name="H.sc" horiz-adv-x="615" 
d="M78 540h118v-216h223v216h118v-540h-118v225h-223v-225h-118v540z" />
    <glyph glyph-name="I.sc" horiz-adv-x="280" 
d="M81 540h118v-540h-118v540z" />
    <glyph glyph-name="J.sc" horiz-adv-x="390" 
d="M195 540h118v-309q0 -127 -41 -187t-150 -60q-48 0 -95 14l4 99q31 -11 68 -11q60 0 78 29t18 117v308z" />
    <glyph glyph-name="K.sc" horiz-adv-x="532" 
d="M78 540h118v-234q103 106 182 234h125q-83 -143 -183 -251l189 -289h-139l-135 214q-20 -19 -39 -32v-182h-118v540z" />
    <glyph glyph-name="L.sc" horiz-adv-x="463" 
d="M78 540h118v-438h225v-102h-343v540z" />
    <glyph glyph-name="M.sc" horiz-adv-x="721" 
d="M93 540h110q92 -196 156 -352q80 188 159 352h110q24 -288 34 -540h-116q-12 300 -15 349q-12 -26 -131 -296h-83q-52 117 -128 296h-1q-14 -320 -15 -349h-116q8 251 36 540z" />
    <glyph glyph-name="N.sc" horiz-adv-x="622" 
d="M78 540h110l250 -362v362h106v-540h-110l-250 369v-369h-106v540z" />
    <glyph glyph-name="O.sc" horiz-adv-x="592" 
d="M50 268v5q0 134 61.5 208.5t184.5 74.5q124 0 185 -74.5t61 -208.5v-5q0 -136 -61 -210t-185 -74q-123 0 -184.5 74t-61.5 210zM296 456q-64 0 -93.5 -46t-29.5 -140t29.5 -140t93.5 -46q65 0 94 45.5t29 140.5q0 94 -29.5 140t-93.5 46z" />
    <glyph glyph-name="P.sc" horiz-adv-x="522" 
d="M78 540h170q118 0 175.5 -38t57.5 -136q0 -93 -50.5 -140.5t-158.5 -47.5h-76v-178h-118v540zM196 441v-164h68q53 0 73.5 18.5t20.5 64.5q0 50 -22.5 65.5t-83.5 15.5h-56z" />
    <glyph glyph-name="Q.sc" horiz-adv-x="592" 
d="M50 268v5q0 134 61.5 208.5t184.5 74.5q124 0 185 -74.5t61 -208.5v-5q0 -203 -129 -262l90 -100l-92 -49l-93 128q-3 0 -10.5 -0.5t-11.5 -0.5q-123 0 -184.5 74t-61.5 210zM296 456q-64 0 -93.5 -46t-29.5 -140t29.5 -140t93.5 -46q65 0 94 45.5t29 140.5
q0 94 -29.5 140t-93.5 46z" />
    <glyph glyph-name="R.sc" horiz-adv-x="534" 
d="M78 540h169q117 0 175.5 -36t58.5 -136q0 -123 -97 -160l110 -208h-129l-87 189q-14 -1 -46 -1h-36v-188h-118v540zM196 444v-158h73q48 0 68.5 16t20.5 64q0 47 -20 62.5t-80 15.5h-62z" />
    <glyph glyph-name="S.sc" horiz-adv-x="484" 
d="M400 531l-8 -106q-65 27 -125 27q-41 0 -62 -11q-28 -12 -28 -48q0 -27 18.5 -40.5t64.5 -28.5l34 -11q77 -25 110 -60.5t33 -97.5q0 -83 -56 -127t-156 -44q-85 0 -158 27l7 107q76 -30 138 -30q102 0 102 61q0 26 -20.5 41t-65.5 29l-35 11q-71 23 -105 61.5t-34 103.5
q0 74 55 117.5t150 43.5q78 0 141 -25z" />
    <glyph glyph-name="T.sc" horiz-adv-x="465" 
d="M32 540h402l-7 -102h-138v-438h-118v438h-139v102z" />
    <glyph glyph-name="U.sc" horiz-adv-x="588" 
d="M72 540h118v-330q0 -66 23 -94t82 -28t81 27.5t22 94.5v330h118v-337q0 -113 -52.5 -166t-168.5 -53q-117 0 -170 53t-53 166v337z" />
    <glyph glyph-name="V.sc" horiz-adv-x="534" 
d="M19 540h125q59 -228 121 -413h3q78 234 122 413h125q-88 -302 -183 -540h-133q-100 256 -180 540z" />
    <glyph glyph-name="W.sc" horiz-adv-x="788" 
d="M19 540h126q36 -194 98 -412h3q30 123 58 261q7 35 25 151h132q18 -116 25 -151q25 -112 60 -261h3q50 176 94 412h126q-75 -312 -149 -540h-140q-41 162 -84 373h-2q-34 -173 -83 -373h-141q-92 291 -151 540z" />
    <glyph glyph-name="X.sc" horiz-adv-x="526" 
d="M27 540h137q58 -116 98 -183q46 79 101 183h133q-68 -123 -158 -268l169 -272h-145l-100 181h-1l-101 -181h-141l166 272q-102 168 -158 268z" />
    <glyph glyph-name="Y.sc" horiz-adv-x="488" 
d="M19 540h121q52 -158 103 -261h2q60 121 103 261h121q-59 -174 -167 -367v-173h-118v174q-105 184 -165 366z" />
    <glyph glyph-name="Z.sc" horiz-adv-x="488" 
d="M58 540h374v-90l-241 -348h244v-102h-378l-6 87l238 351h-231v102z" />
    <glyph glyph-name="ampersand.sc" horiz-adv-x="551" 
d="M83 403v5q0 61 41.5 104.5t115.5 43.5q66 0 105.5 -38t39.5 -101q0 -101 -101 -171q59 -56 84 -79q27 41 32 120h82q-5 -89 -53 -173q38 -37 87 -40v-90q-83 0 -151 59q-66 -59 -155 -59q-77 0 -119.5 34t-42.5 95v3q0 40 28 78t75 61q-68 73 -68 148zM202 196
q-44 -30 -44 -71q0 -29 18.5 -44.5t49.5 -15.5q45 0 80 32q-55 50 -104 99zM183 410v-3q0 -52 47 -104q55 50 55 106q0 60 -48 60q-26 0 -40 -16.5t-14 -42.5z" />
    <glyph glyph-name="at.sc" horiz-adv-x="651" 
d="M44 269v5q0 127 79.5 205.5t215.5 78.5q126 0 197 -67t71 -182q0 -87 -37.5 -134t-98.5 -47t-86 39q-30 -33 -80 -33q-40 0 -64.5 22t-24.5 59q0 44 32.5 69t96.5 25h21v8q0 33 -44 33q-41 0 -83 -20q-1 10 -4 30t-4 30q52 20 101 20q109 0 109 -93v-71q0 -29 7 -41
t24 -12q43 0 43 110q0 81 -44.5 126t-133.5 45q-93 0 -143.5 -52.5t-50.5 -148.5q0 -107 48.5 -160.5t151.5 -53.5q64 0 112 12l4 -75q-48 -14 -122 -14q-138 0 -215.5 71.5t-77.5 215.5zM366 256h-20q-56 -1 -56 -37q0 -29 34 -29q26 0 44 18q-2 16 -2 27v21z" />
    <glyph glyph-name="exclam.sc" horiz-adv-x="251" 
d="M69 540h112v-218l-11 -164h-89l-12 164v218zM71 43v8q0 29 12 43.5t43 14.5q55 0 55 -58v-8q0 -59 -55 -59t-55 59z" />
    <glyph glyph-name="exclamdown.sc" horiz-adv-x="251" 
d="M181 0h-112v218l12 164h89l11 -164v-218zM71 489v8q0 59 55 59t55 -59v-8q0 -58 -55 -58q-31 0 -43 14.5t-12 43.5z" />
    <glyph glyph-name="question.sc" horiz-adv-x="431" 
d="M45 433l-10 93q75 30 162 30q90 0 143.5 -40.5t53.5 -121.5q0 -79 -48.5 -121.5t-135.5 -48.5l-7 -76h-81l-10 152h22q139 0 139 89q0 73 -97 73q-65 0 -131 -29zM108 43v8q0 59 54 59q31 0 43 -15t12 -44v-8q0 -29 -12 -44t-43 -15q-54 0 -54 59z" />
    <glyph glyph-name="questiondown.sc" horiz-adv-x="431" 
d="M378 107l10 -93q-75 -30 -162 -30q-90 0 -143.5 40.5t-53.5 121.5q0 79 48.5 121.5t135.5 48.5l7 76h81l10 -152h-22q-139 0 -139 -89q0 -73 97 -73q65 0 131 29zM315 497v-8q0 -59 -54 -59q-31 0 -43 15t-12 44v8q0 29 12 44t43 15q54 0 54 -59z" />
    <glyph glyph-name="slash.sc" horiz-adv-x="386" 
d="M223 561h119l-205 -577h-118z" />
    <glyph glyph-name="backslash.sc" horiz-adv-x="386" 
d="M45 561h118l204 -577h-118z" />
    <glyph glyph-name="parenleft.sc" horiz-adv-x="366" 
d="M255 662l61 -47q-135 -145 -135 -344q0 -197 139 -355l-61 -45q-194 179 -194 398q0 224 190 393z" />
    <glyph glyph-name="parenright.sc" horiz-adv-x="365" 
d="M49 615l62 47q189 -170 189 -393q0 -220 -193 -398l-61 45q139 160 139 355q0 198 -136 344z" />
    <glyph glyph-name="bracketleft.sc" horiz-adv-x="353" 
d="M78 639h205v-81h-100v-577h100v-81h-205v739z" />
    <glyph glyph-name="bracketright.sc" horiz-adv-x="353" 
d="M70 639h205v-739h-205v81h99v577h-99v81z" />
    <glyph glyph-name="braceleft.sc" horiz-adv-x="357" 
d="M254 639h63v-84h-40q-33 0 -44.5 -14t-11.5 -52v-76q-1 -61 -19.5 -92.5t-64.5 -44.5v-2q45 -13 64 -46.5t20 -91.5l1 -86q0 -38 11.5 -52.5t44.5 -14.5h40v-83h-62q-68 0 -103 37.5t-36 105.5l-2 118q-1 67 -68 79v69q67 12 68 79l1 108q0 67 35 105t103 38z" />
    <glyph glyph-name="braceright.sc" horiz-adv-x="357" 
d="M32 639h63q68 0 103 -38t35 -105l1 -108q1 -67 68 -79v-69q-67 -12 -68 -79l-2 -118q-1 -68 -36 -105.5t-103 -37.5h-62v83h40q33 0 44.5 14.5t11.5 52.5l1 86q1 58 20 91.5t64 46.5v2q-46 13 -64.5 44.5t-19.5 92.5v76q0 38 -11.5 52t-44.5 14h-40v84z" />
    <glyph glyph-name="FI.sc" horiz-adv-x="762" 
d="M78 540h360l-6 -102h-236v-130h209v-99h-209v-209h-118v540zM563 540h118v-540h-118v540z" />
    <glyph glyph-name="FL.sc" horiz-adv-x="947" 
d="M78 540h360l-6 -102h-236v-130h209v-99h-209v-209h-118v540zM562 540h118v-438h225v-102h-343v540z" />
    <glyph glyph-name="zero.slash" 
d="M271 690q119 0 173 -84t54 -269q0 -183 -54.5 -268t-172.5 -85t-172.5 85t-54.5 268q0 187 54 270t173 83zM186 168l136 399q-21 18 -51 18q-54 0 -77 -56.5t-23 -191.5q0 -111 15 -169zM359 489l-134 -387q19 -13 46 -13q54 0 77 56.5t23 191.5q0 97 -12 152z" />
    <glyph glyph-name="zero.otab" 
d="M271 453q-59 0 -85 -46.5t-26 -136.5t26 -136.5t85 -46.5t85 46.5t26 136.5t-26 136.5t-85 46.5zM271 556q116 0 176.5 -72.5t60.5 -213.5t-60.5 -213.5t-176.5 -72.5t-176.5 72.5t-60.5 213.5t60.5 213.5t176.5 72.5z" />
    <glyph glyph-name="one.otab" 
d="M62 427l195 113h95v-445h132v-95h-396v95h144v317l-138 -80z" />
    <glyph glyph-name="two.otab" 
d="M88 415l-13 101q92 40 196 40q192 0 192 -162q0 -77 -47 -143t-145 -136l-28 -20h227v-95h-389l-10 91l36 25q127 89 179 148t52 114q0 77 -92 77q-83 0 -158 -40z" />
    <glyph glyph-name="three.otab" 
d="M80 423l-15 99q90 34 176 34q92 0 149.5 -43t57.5 -129q0 -55 -26 -95.5t-76 -58.5v-3q58 -14 91 -56.5t33 -105.5q0 -104 -68 -159.5t-179 -55.5q-96 0 -175 36l13 103q79 -34 154 -34q129 0 129 110q0 64 -53 91q-34 18 -93 18h-30v91h30q58 0 91 27.5t33 77.5
q0 83 -104 83q-66 0 -138 -30z" />
    <glyph glyph-name="four.otab" 
d="M281 540h156v-445h77v-95h-77v-134h-120v134h-290v86q60 105 254 454zM149 95h168v309q-17 -32 -77 -141.5t-91 -167.5z" />
    <glyph glyph-name="five.otab" 
d="M90 540h350l-6 -94h-232l-4 -177q39 12 88 12q91 0 143 -52t52 -150q0 -112 -63 -170.5t-177 -58.5q-97 0 -185 31l14 100q79 -29 161 -29q73 0 101 38q23 32 23 83q0 56 -28 82t-89 26q-48 0 -117 -20l-35 15z" />
    <glyph glyph-name="six.otab" 
d="M434 679l-14 -96q-25 7 -68 7q-72 0 -116 -44q-43 -44 -59 -141q51 30 121 30q97 0 150.5 -56t53.5 -154q0 -103 -60 -172t-164 -69q-237 0 -237 307q0 81 17 150.5t52 126.5t94.5 89.5t138.5 32.5q56 0 91 -11zM168 305q-4 -40 2 -85q9 -68 32.5 -101t73.5 -33
q48 0 73.5 34t25.5 95q0 119 -102 119q-54 0 -105 -29z" />
    <glyph glyph-name="seven.otab" 
d="M50 540h429v-99l-270 -575h-127l274 579h-306v95z" />
    <glyph glyph-name="eight.otab" 
d="M370 361q130 -67 130 -176q0 -93 -65.5 -147t-164.5 -54q-97 0 -162.5 51t-65.5 146q0 58 33.5 107t90.5 73q-100 60 -100 155q0 78 58.5 126t150.5 48q90 0 147 -45t57 -125q0 -46 -29 -88.5t-80 -70.5zM276 407q35 17 57.5 46t22.5 64q0 38 -22.5 59t-59.5 21
q-38 0 -61.5 -21.5t-23.5 -59.5q0 -63 87 -109zM263 309q-95 -40 -95 -121q0 -47 29 -75t75 -28t74 27.5t28 73.5q0 38 -26 66t-85 57z" />
    <glyph glyph-name="nine.otab" 
d="M106 -139l13 97q25 -8 69 -8q145 0 176 184q-52 -30 -119 -30q-97 0 -152.5 59t-55.5 161t63.5 167t166.5 65q233 0 233 -304q0 -80 -16.5 -149.5t-51 -127.5t-95 -91.5t-140.5 -33.5q-58 0 -91 11zM373 234q2 24 2 44q3 177 -108 177q-47 0 -75 -35t-28 -95
q0 -58 27 -89.5t76 -31.5q56 0 106 30z" />
    <glyph glyph-name="dollar.otab" 
d="M250 635h70v-81q69 -6 116 -23l-8 -106q-57 20 -108 25v-135q85 -24 121 -60.5t36 -99.5q0 -77 -52 -120t-145 -50v-74h-70v74q-77 5 -141 26l8 107q70 -26 133 -30v139l-2 1q-79 22 -116 61.5t-37 105.5q0 68 52 110.5t143 49.5v80zM280 207v-116q62 11 62 58
q0 21 -15 34t-47 24zM250 335v114q-20 -4 -29 -8q-30 -13 -30 -48q0 -22 13.5 -34.5t45.5 -23.5z" />
    <glyph glyph-name="cent.otab" 
d="M277 626h70v-100q62 -6 106 -29l-9 -98q-42 25 -97 30v-322q54 5 99 24l8 -93q-42 -19 -107 -26v-92h-70v92q-99 9 -146 68q-56 67 -56 184v5q0 118 54.5 182t147.5 74v101zM191 269v-3q0 -128 86 -153v310q-86 -27 -86 -154z" />
    <glyph glyph-name="Euro.otab" 
d="M50 362h65q19 95 79.5 144.5t155.5 49.5q76 0 139 -28l-13 -103q-55 26 -112 26q-99 0 -121 -89h146l-9 -71h-151q-1 -8 -1 -28q0 -19 1 -29h150l-9 -71h-129q25 -74 116 -74q66 0 120 25l10 -102q-66 -28 -145 -28q-188 0 -227 179h-79l8 71h62v27q0 21 1 30h-64z" />
    <glyph glyph-name="florin.otab" 
d="M138 351h70v25q0 87 44.5 133.5t132.5 46.5q37 0 70 -7l-9 -91q-23 5 -43 5q-47 0 -65.5 -20.5t-18.5 -74.5v-17h105l-6 -85h-99v-274q0 -105 -44.5 -156t-141.5 -51q-21 0 -42 3v94q16 -2 31 -2q46 0 66 26.5t20 86.5v273h-70v85z" />
    <glyph glyph-name="sterling.otab" 
d="M59 320h75v37q0 101 50 150t155 49q59 0 133 -21l-21 -98q-50 18 -99 18q-52 0 -75.5 -25.5t-23.5 -81.5v-28h147v-88h-147v-20q0 -82 -47 -113v-2h256v-97h-396l-4 96q72 26 72 107v29h-75v88z" />
    <glyph glyph-name="yen.otab" 
d="M46 540h121q55 -167 103 -264h2q57 116 103 264h121q-50 -147 -128 -295h80l-6 -71h-113v-44h110v-71h-110v-59h-118v59h-110v71h110v44h-113l-7 71h81q-79 154 -126 295z" />
    <glyph glyph-name="numbersign.otab" 
d="M24 420h109l16 120h101l-16 -120h102l15 120h101l-16 -120h82v-95h-92l-14 -114h106v-95h-116l-14 -116h-101l14 116h-102l-14 -116h-100l13 116h-74v95h85l14 114h-99v95zM223 325l-13 -114h101l14 114h-102z" />
    <glyph glyph-name="percent.otab" horiz-adv-x="697" 
d="M168 487q-43 0 -43 -71q0 -69 43 -69t43 69q0 71 -43 71zM38 412v9q0 62 33 98.5t97 36.5t97 -36.5t33 -98.5v-9q0 -62 -33 -98.5t-97 -36.5t-97 36.5t-33 98.5zM477 566l70 -42l-320 -537l-72 42zM529 194q-43 0 -43 -70t43 -70t43 70t-43 70zM399 119v10q0 61 33 98
t97 37t97 -37t33 -98v-10q0 -62 -33 -98.5t-97 -36.5t-97 36.5t-33 98.5z" />
    <glyph glyph-name="perthousand.otab" horiz-adv-x="996" 
d="M168 487q-43 0 -43 -71q0 -69 43 -69t43 69q0 71 -43 71zM38 412v9q0 62 33 98.5t97 36.5t97 -36.5t33 -98.5v-9q0 -62 -33 -98.5t-97 -36.5t-97 36.5t-33 98.5zM477 566l70 -42l-320 -537l-72 42zM529 194q-43 0 -43 -70t43 -70t43 70t-43 70zM399 119v10q0 61 33 98
t97 37t97 -37t33 -98v-10q0 -62 -33 -98.5t-97 -36.5t-97 36.5t-33 98.5zM828 194q-43 0 -43 -70t43 -70t43 70t-43 70zM698 119v10q0 61 33 98t97 37t97 -37t33 -98v-10q0 -62 -33 -98.5t-97 -36.5t-97 36.5t-33 98.5z" />
    <glyph glyph-name="zero.lprop" horiz-adv-x="547" 
d="M273 585q-54 0 -77 -56t-23 -191q0 -137 23 -193t77 -56t77 56t23 193q0 135 -23 191t-77 56zM273 690q116 0 171.5 -83.5t55.5 -263.5q0 -187 -54 -273t-173 -86q-116 0 -171 83.5t-55 263.5q0 188 54 273.5t172 85.5z" />
    <glyph glyph-name="one.lprop" horiz-adv-x="500" 
d="M34 557l196 117h95v-579h135v-95h-403v95h148v451l-139 -84z" />
    <glyph glyph-name="two.lprop" horiz-adv-x="499" 
d="M71 545l-13 102q91 43 190 43q93 0 150 -47.5t57 -135.5q0 -85 -41 -157.5t-151 -174.5l-86 -80h266v-95h-392l-12 95l97 92q109 106 152 168.5t43 136.5q0 95 -105 95q-72 0 -155 -42z" />
    <glyph glyph-name="three.lprop" horiz-adv-x="505" 
d="M71 557l-15 99q90 34 176 34q92 0 149.5 -43t57.5 -129q0 -55 -26 -95.5t-76 -58.5v-3q58 -14 91 -56t33 -105q0 -104 -68 -160t-179 -56q-96 0 -175 36l13 103q79 -34 154 -34q63 0 96 28.5t33 82.5q0 63 -53 90q-34 18 -93 18h-30v91h30q58 0 91 27.5t33 77.5
q0 83 -104 83q-66 0 -138 -30z" />
    <glyph glyph-name="four.lprop" horiz-adv-x="551" 
d="M435 674v-413h87v-95h-87v-166h-119v166h-285v86q131 219 264 422h140zM139 261h177v284q-97 -149 -177 -284z" />
    <glyph glyph-name="five.lprop" horiz-adv-x="495" 
d="M65 674h350l-6 -94h-232l-4 -177q39 12 88 12q91 0 143 -52t52 -150q0 -112 -63 -170.5t-177 -58.5q-97 0 -185 31l14 100q79 -29 161 -29q73 0 101 38q23 32 23 83q0 56 -28 82t-89 26q-48 0 -117 -20l-35 15z" />
    <glyph glyph-name="six.lprop" horiz-adv-x="533" 
d="M434 679l-14 -96q-25 7 -68 7q-72 0 -116 -44q-45 -46 -59 -141q52 30 124 30q95 0 147.5 -56t52.5 -154q0 -103 -60.5 -172t-163.5 -69q-236 0 -236 307q0 82 17 151.5t51.5 126t94.5 89t139 32.5q55 0 91 -11zM168 305q-5 -49 2 -85q14 -135 106 -135q47 0 73 34.5
t26 95.5q0 119 -102 119q-56 0 -105 -29z" />
    <glyph glyph-name="seven.lprop" horiz-adv-x="471" 
d="M23 674h428l-2 -99l-264 -575h-127l269 579h-304v95z" />
    <glyph glyph-name="eight.lprop" horiz-adv-x="529" 
d="M160 361q-101 61 -101 155q0 78 59.5 126t150.5 48q90 0 147 -45t57 -125q0 -46 -29.5 -88.5t-79.5 -70.5q129 -66 129 -176q0 -93 -65.5 -147t-163.5 -54q-97 0 -162.5 51t-65.5 146q0 57 32.5 105t91.5 75zM270 407q35 17 57.5 46t22.5 64q0 38 -22.5 59t-59.5 21
q-38 0 -62 -21.5t-24 -59.5q0 -62 88 -109zM256 309q-43 -18 -68.5 -49.5t-25.5 -71.5q0 -47 29 -75t75 -28t73.5 27.5t27.5 73.5q0 38 -26 66.5t-85 56.5z" />
    <glyph glyph-name="nine.lprop" horiz-adv-x="536" 
d="M100 -5l14 97q24 -8 68 -8q79 0 119.5 49.5t56.5 135.5q-52 -30 -120 -30q-96 0 -151.5 58t-55.5 152q0 108 63.5 174.5t167.5 66.5q232 0 232 -304q0 -80 -16.5 -149.5t-50.5 -127.5t-94.5 -91.5t-141.5 -33.5q-58 0 -91 11zM367 368q2 24 2 44q3 177 -107 177
q-48 0 -76 -34.5t-28 -95.5q0 -58 27 -89.5t77 -31.5q57 0 105 30z" />
    <glyph glyph-name="dollar.lprop" horiz-adv-x="520" 
d="M247 781h70v-97q69 -5 136 -29l-10 -112q-65 29 -126 33v-190l17 -6q81 -28 120.5 -73t39.5 -114q0 -89 -53 -139.5t-146 -61.5v-93h-70v90q-86 5 -168 33l8 113q81 -36 160 -38v195l-15 6q-86 34 -125 77t-39 122q0 76 53.5 125.5t147.5 59.5v99zM247 412v161
q-14 -3 -26 -8q-43 -21 -43 -68q0 -54 69 -85zM295 267v-164q66 15 66 79q0 33 -16 51.5t-50 33.5z" />
    <glyph glyph-name="cent.lprop" horiz-adv-x="452" 
d="M241 690h70v-100q62 -6 106 -29l-9 -98q-42 25 -97 30v-322q54 5 99 24l8 -93q-42 -19 -107 -26v-92h-70v92q-99 9 -146 68q-56 67 -56 184v5q0 118 54.5 182t147.5 74v101zM155 333v-3q0 -128 86 -153v310q-86 -27 -86 -154z" />
    <glyph glyph-name="Euro.lprop" horiz-adv-x="563" 
d="M40 442h69q20 121 89 184.5t181 63.5q82 0 146 -33l-14 -114q-57 30 -123 30q-63 0 -99.5 -32t-49.5 -99h193l-10 -86h-196q-1 -7 -1 -27q0 -12 2 -32h193l-10 -86h-170q13 -59 48 -86t97 -27q68 0 130 30l10 -110q-68 -34 -150 -34q-231 0 -267 227h-85l10 86h67
q-1 11 -1 31q0 19 1 28h-69z" />
    <glyph glyph-name="florin.lprop" horiz-adv-x="405" 
d="M64 485h71v36q0 89 45.5 137t134.5 48q32 0 66 -8l-9 -89q-20 5 -43 5q-47 0 -65 -22.5t-18 -77.5v-29h104l-5 -85h-99v-405q0 -112 -39.5 -161t-142.5 -49q-16 0 -46 2l-1 96q18 -2 38 -2q45 0 62.5 25.5t17.5 88.5v405h-71v85z" />
    <glyph glyph-name="sterling.lprop" horiz-adv-x="496" 
d="M39 397h76v65q0 228 217 228q60 0 129 -22l-16 -107q-47 18 -97 18q-61 0 -88 -30.5t-27 -98.5v-53h148v-94h-148v-64q0 -105 -54 -140v-2h268v-97h-400l-4 96q72 32 72 125v82h-76v94z" />
    <glyph glyph-name="yen.lprop" horiz-adv-x="542" 
d="M20 674h125q77 -244 124 -340h4q47 96 124 340h125q-63 -190 -149 -366h77l-5 -84h-115v-53h115v-84h-115v-87h-119v87h-116v84h116v53h-116l-6 84h78q-89 182 -147 366z" />
    <glyph glyph-name="numbersign.lprop" 
d="M163 659h101l-25 -172h111l26 172h101l-26 -172h67v-100h-80l-20 -132h100v-100h-114l-22 -155h-101l23 155h-112l-23 -155h-101l23 155h-66v100h79l21 132h-100v100h112zM225 387l-20 -132h112l20 132h-112z" />
    <glyph glyph-name="percent.lprop" horiz-adv-x="832" 
d="M569 704l80 -44l-378 -670l-80 47zM635 302q-46 0 -46 -121q0 -122 46 -122q24 0 35 28t11 94q0 121 -46 121zM635 377q69 0 101.5 -48t32.5 -148t-32.5 -148.5t-101.5 -48.5t-101.5 48.5t-32.5 148.5t32.5 148t101.5 48zM197 615q-46 0 -46 -121q0 -122 46 -122
q24 0 35 28t11 94q0 121 -46 121zM197 690q69 0 101.5 -48t32.5 -148t-32.5 -148.5t-101.5 -48.5t-101.5 48.5t-32.5 148.5t32.5 148t101.5 48z" />
    <glyph glyph-name="perthousand.lprop" horiz-adv-x="1149" 
d="M569 704l80 -44l-378 -670l-80 47zM635 302q-46 0 -46 -121q0 -122 46 -122q24 0 35 28t11 94q0 121 -46 121zM635 377q69 0 101.5 -48t32.5 -148t-32.5 -148.5t-101.5 -48.5t-101.5 48.5t-32.5 148.5t32.5 148t101.5 48zM197 615q-46 0 -46 -121q0 -122 46 -122
q24 0 35 28t11 94q0 121 -46 121zM197 690q69 0 101.5 -48t32.5 -148t-32.5 -148.5t-101.5 -48.5t-101.5 48.5t-32.5 148.5t32.5 148t101.5 48zM952 302q-46 0 -46 -121q0 -122 46 -122q24 0 35 28t11 94q0 121 -46 121zM952 377q69 0 101.5 -48t32.5 -148t-32.5 -148.5
t-101.5 -48.5t-101.5 48.5t-32.5 148.5t32.5 148t101.5 48z" />
    <glyph glyph-name="zero.oprop" horiz-adv-x="568" 
d="M284 453q-59 0 -85 -46.5t-26 -136.5t26 -136.5t85 -46.5t85 46.5t26 136.5t-26 136.5t-85 46.5zM284 556q116 0 176.5 -72.5t60.5 -213.5t-60.5 -213.5t-176.5 -72.5t-176.5 72.5t-60.5 213.5t60.5 213.5t176.5 72.5z" />
    <glyph glyph-name="one.oprop" horiz-adv-x="526" 
d="M53 427l195 113h95v-445h132v-95h-396v95h144v317l-138 -80z" />
    <glyph glyph-name="two.oprop" horiz-adv-x="479" 
d="M52 415l-13 101q92 40 196 40q192 0 192 -162q0 -77 -47 -143t-145 -136l-28 -20h227v-95h-389l-10 91l36 25q127 89 179 148t52 114q0 77 -92 77q-83 0 -158 -40z" />
    <glyph glyph-name="three.oprop" horiz-adv-x="500" 
d="M63 423l-15 99q90 34 176 34q93 0 150 -43t57 -129q0 -56 -26 -96t-76 -58v-3q58 -14 91 -57t33 -106q0 -104 -68 -159t-179 -55q-99 0 -175 35l14 103q82 -35 154 -35q128 0 128 111q0 55 -38 82.5t-107 27.5h-31v91h30q58 0 91 27.5t33 77.5q0 84 -103 84
q-65 0 -139 -31z" />
    <glyph glyph-name="four.oprop" horiz-adv-x="550" 
d="M286 540h156v-445h77v-95h-77v-134h-120v134h-290v86q60 105 254 454zM159 95h163v309q-103 -191 -163 -309z" />
    <glyph glyph-name="five.oprop" horiz-adv-x="498" 
d="M72 540h350l-6 -94h-232l-4 -177q39 12 88 12q91 0 143 -52t52 -150q0 -112 -63 -170.5t-177 -58.5q-97 0 -185 31l14 100q79 -29 161 -29q73 0 101 38q23 32 23 83q0 56 -28 82t-89 26q-48 0 -117 -20l-35 15z" />
    <glyph glyph-name="six.oprop" horiz-adv-x="533" 
d="M434 679l-14 -96q-25 7 -68 7q-73 0 -117 -44q-43 -44 -59 -141q52 30 121 30q97 0 150.5 -56t53.5 -154q0 -102 -61 -171.5t-163 -69.5q-237 0 -237 311q0 176 75 285.5t227 109.5q56 0 92 -11zM168 305q-6 -45 1 -85q14 -135 106 -135q48 0 73.5 34.5t25.5 95.5
q0 119 -102 119q-55 0 -104 -29z" />
    <glyph glyph-name="seven.oprop" horiz-adv-x="488" 
d="M29 540h430v-99l-270 -575h-127l273 579h-306v95z" />
    <glyph glyph-name="eight.oprop" horiz-adv-x="536" 
d="M368 361q58 -26 94 -71t36 -105q0 -93 -65.5 -147t-163.5 -54q-97 0 -162.5 51t-65.5 146q0 58 33.5 107t89.5 73q-100 60 -100 155q0 78 59 126t150 48q92 0 148.5 -45t56.5 -125q0 -46 -29.5 -88.5t-80.5 -70.5zM274 407q35 17 58 45.5t23 64.5q0 38 -23 59t-60 21
t-61 -21.5t-24 -59.5q0 -62 87 -109zM261 309q-43 -18 -68.5 -49t-25.5 -72q0 -47 28.5 -75t74.5 -28t74 27.5t28 73.5q0 38 -26 66t-85 57z" />
    <glyph glyph-name="nine.oprop" horiz-adv-x="534" 
d="M102 -139l13 97q25 -8 69 -8q145 0 176 184q-52 -30 -119 -30q-97 0 -152.5 59t-55.5 161t63.5 167t166.5 65q233 0 233 -304q0 -80 -16.5 -149.5t-51 -127.5t-95 -91.5t-140.5 -33.5q-58 0 -91 11zM369 234q2 24 2 44q3 177 -108 177q-47 0 -75 -35t-28 -95
q0 -58 27 -89.5t76 -31.5q56 0 106 30z" />
    <glyph glyph-name="dollar.oprop" horiz-adv-x="503" 
d="M239 635h70v-81q69 -6 116 -23l-8 -106q-57 20 -108 25v-135q85 -24 121 -60.5t36 -99.5q0 -77 -52 -120t-145 -50v-74h-70v74q-77 5 -141 26l8 107q70 -26 133 -30v139l-2 1q-79 22 -116 61.5t-37 105.5q0 68 52 110.5t143 49.5v80zM269 207v-116q62 11 62 58
q0 21 -15 34t-47 24zM239 335v114q-20 -4 -29 -8q-30 -13 -30 -48q0 -22 13.5 -34.5t45.5 -23.5z" />
    <glyph glyph-name="cent.oprop" horiz-adv-x="452" 
d="M241 626h70v-100q62 -6 106 -29l-9 -98q-42 25 -97 30v-322q54 5 99 24l8 -93q-42 -19 -107 -26v-92h-70v92q-99 9 -146 68q-56 67 -56 184v5q0 118 54.5 182t147.5 74v101zM155 269v-3q0 -128 86 -153v310q-86 -27 -86 -154z" />
    <glyph glyph-name="Euro.oprop" horiz-adv-x="513" 
d="M38 362h64q21 95 81.5 144.5t154.5 49.5q75 0 138 -28l-12 -103q-57 26 -112 26q-97 0 -122 -89h146l-8 -71h-152q-2 -16 -2 -28q0 -9 2 -29h151l-9 -71h-130q25 -74 118 -74q65 0 119 25l9 -102q-66 -28 -145 -28q-186 0 -226 179h-80l8 71h63q0 4 -0.5 13t-0.5 14
q0 21 1 30h-64z" />
    <glyph glyph-name="florin.oprop" horiz-adv-x="390" 
d="M55 351h70v25q0 87 44.5 133.5t132.5 46.5q37 0 70 -7l-9 -91q-23 5 -43 5q-47 0 -65.5 -20.5t-18.5 -74.5v-17h105l-6 -85h-99v-274q0 -105 -44.5 -156t-141.5 -51q-21 0 -42 3v94q16 -2 31 -2q46 0 66 26.5t20 86.5v273h-70v85z" />
    <glyph glyph-name="sterling.oprop" horiz-adv-x="493" 
d="M43 320h75v37q0 101 50 150t155 49q59 0 133 -21l-21 -98q-50 18 -99 18q-52 0 -75.5 -25.5t-23.5 -81.5v-28h147v-88h-147v-20q0 -82 -47 -113v-2h256v-97h-396l-4 96q72 26 72 107v29h-75v88z" />
    <glyph glyph-name="yen.oprop" horiz-adv-x="488" 
d="M19 540h121q55 -167 103 -264h2q57 116 103 264h121q-50 -147 -128 -295h80l-6 -71h-113v-44h110v-71h-110v-59h-118v59h-110v71h110v44h-113l-7 71h81q-79 154 -126 295z" />
    <glyph glyph-name="numbersign.oprop" horiz-adv-x="540" 
d="M23 420h109l15 120h101l-15 -120h101l15 120h102l-16 -120h81v-95h-91l-14 -114h105v-95h-116l-14 -116h-101l15 116h-102l-14 -116h-101l14 116h-74v95h85l14 114h-99v95zM223 325l-14 -114h101l14 114h-101z" />
    <glyph glyph-name="percent.oprop" horiz-adv-x="697" 
d="M168 487q-43 0 -43 -71q0 -69 43 -69t43 69q0 71 -43 71zM38 412v9q0 62 33 98.5t97 36.5t97 -36.5t33 -98.5v-9q0 -62 -33 -98.5t-97 -36.5t-97 36.5t-33 98.5zM477 566l70 -42l-320 -537l-72 42zM529 194q-43 0 -43 -70t43 -70t43 70t-43 70zM399 119v10q0 61 33 98
t97 37t97 -37t33 -98v-10q0 -62 -33 -98.5t-97 -36.5t-97 36.5t-33 98.5z" />
    <glyph glyph-name="perthousand.oprop" horiz-adv-x="996" 
d="M168 487q-43 0 -43 -71q0 -69 43 -69t43 69q0 71 -43 71zM38 412v9q0 62 33 98.5t97 36.5t97 -36.5t33 -98.5v-9q0 -62 -33 -98.5t-97 -36.5t-97 36.5t-33 98.5zM477 566l70 -42l-320 -537l-72 42zM529 194q-43 0 -43 -70t43 -70t43 70t-43 70zM399 119v10q0 61 33 98
t97 37t97 -37t33 -98v-10q0 -62 -33 -98.5t-97 -36.5t-97 36.5t-33 98.5zM828 194q-43 0 -43 -70t43 -70t43 70t-43 70zM698 119v10q0 61 33 98t97 37t97 -37t33 -98v-10q0 -62 -33 -98.5t-97 -36.5t-97 36.5t-33 98.5z" />
    <glyph glyph-name="a.sup" horiz-adv-x="349" 
d="M58 546l-11 71q61 26 124 26q64 0 96 -27.5t32 -92.5v-145q0 -20 24 -20v-55q-18 -6 -42 -6q-46 0 -60 33h-2q-33 -33 -90 -33q-48 0 -77.5 27t-29.5 76q0 61 49 90t130 29h12v9q0 23 -12 33t-41 10q-50 0 -102 -25zM213 388v71q-102 0 -102 -55q0 -18 11.5 -29t31.5 -11
q35 0 59 24z" />
    <glyph glyph-name="b.sup" horiz-adv-x="370" 
d="M39 757h86v-142q40 28 91 28q64 0 95 -48.5t31 -122.5v-3q0 -79 -34 -125.5t-96 -46.5q-56 0 -97 36l-5 -26h-72q1 31 1 105v345zM125 542v-142q27 -25 61 -25q36 0 51.5 23t15.5 72v2q0 48 -14 71t-48 23q-38 0 -66 -24z" />
    <glyph glyph-name="c.sup" horiz-adv-x="313" 
d="M28 467v3q0 87 44 130t119 43q53 0 94 -18l-6 -78q-38 20 -80 20q-84 0 -84 -97q0 -98 83 -98q38 0 82 18l5 -73q-42 -20 -97 -20q-82 0 -122 44q-38 41 -38 126z" />
    <glyph glyph-name="d.sup" horiz-adv-x="369" 
d="M243 757h86v-317q0 -49 2 -133h-75l-4 26q-31 -36 -89 -36q-64 0 -99.5 45t-35.5 122v4q0 79 38.5 127t109.5 48q41 0 67 -17v131zM243 397v151q-20 17 -54 17q-72 0 -72 -98q0 -92 67 -92q39 0 59 22z" />
    <glyph glyph-name="e.sup" horiz-adv-x="351" 
d="M26 467v3q0 81 39.5 127t112.5 46q145 0 145 -194v-15h-205q6 -64 82 -64q55 0 99 19l5 -72q-52 -20 -110 -20q-168 0 -168 170zM115 499v-3h120v6q0 72 -57 72q-29 0 -46 -21t-17 -54z" />
    <glyph glyph-name="f.sup" horiz-adv-x="228" 
d="M15 633h46v16q0 118 118 118q31 0 54 -6l-6 -70q-20 4 -36 4q-25 0 -34.5 -11.5t-9.5 -42.5v-8h66l-4 -70h-62v-256h-86v256h-46v70z" />
    <glyph glyph-name="g.sup" horiz-adv-x="355" 
d="M29 521v4q0 57 37.5 87.5t102.5 30.5q54 0 85 -19q30 36 84 39v-76q-25 -2 -43 -7q13 -24 13 -55v-4q0 -58 -38 -88t-101 -30q-21 0 -40 4q-8 -20 -13 -40l69 -3q66 -3 99 -22.5t33 -68.5q0 -53 -40.5 -80t-109.5 -27q-66 0 -99.5 21.5t-33.5 57.5q0 32 29 59
q-31 7 -31 37q0 27 44 84q-47 32 -47 96zM169 580q-53 0 -53 -57q0 -56 53 -56q27 0 39.5 13t12.5 43q0 57 -52 57zM167 295l-48 2q-12 -15 -12 -31q0 -39 67 -39q66 0 66 37q0 17 -16 23t-57 8z" />
    <glyph glyph-name="h.sup" horiz-adv-x="364" 
d="M38 757h86v-146q43 32 92 32q112 0 112 -123v-213h-86v198q0 33 -10.5 46.5t-37.5 13.5q-37 0 -70 -26v-232h-86v450z" />
    <glyph glyph-name="i.sup" horiz-adv-x="166" 
d="M40 633h86v-326h-86v326zM35 726v6q0 50 48 50t48 -50v-6q0 -51 -48 -51t-48 51z" />
    <glyph glyph-name="j.sup" horiz-adv-x="165" 
d="M40 633h86v-313q0 -76 -25 -115t-90 -39q-23 0 -41 5l7 69q16 -2 21 -2q22 0 32 14t10 48v333zM35 726v6q0 50 48 50t48 -50v-6q0 -51 -48 -51t-48 51z" />
    <glyph glyph-name="k.sup" horiz-adv-x="329" 
d="M38 757h86v-242q55 48 94 118h93q-41 -82 -103 -141l111 -185h-98l-77 133q-18 -13 -20 -14v-119h-86v450z" />
    <glyph glyph-name="l.sup" horiz-adv-x="166" 
d="M40 757h86v-450h-86v450z" />
    <glyph glyph-name="m.sup" horiz-adv-x="548" 
d="M38 633h75l3 -26q45 36 98 36q61 0 85 -41q46 41 104 41q109 0 109 -122v-214h-86v196q0 39 -8 48q-11 14 -38 14q-34 0 -62 -23v-36v-199h-86v199q0 35 -9 47t-34 12q-36 0 -65 -24v-234h-86v326z" />
    <glyph glyph-name="n.sup" horiz-adv-x="364" 
d="M38 633h75l3 -27q46 37 101 37q51 0 81 -28q30 -27 30 -95v-213h-86v198q0 36 -11 47q-12 13 -37 13q-38 0 -70 -25v-233h-86v326z" />
    <glyph glyph-name="o.sup" horiz-adv-x="370" 
d="M28 467v5q0 82 39.5 126.5t117.5 44.5t117.5 -44.5t39.5 -126.5v-5q0 -82 -39.5 -126t-117.5 -44t-117.5 44t-39.5 126zM185 569q-35 0 -51.5 -23.5t-16.5 -76.5t16.5 -76t51.5 -23t51.5 23t16.5 76t-16.5 76.5t-51.5 23.5z" />
    <glyph glyph-name="p.sup" horiz-adv-x="372" 
d="M39 633h74l4 -27q37 37 96 37q62 0 96.5 -43.5t34.5 -121.5v-2q0 -79 -35 -129t-105 -50q-45 0 -79 23v-138h-86v451zM125 539v-145q25 -19 60 -19q70 0 70 96v1q0 93 -63 93q-39 0 -67 -26z" />
    <glyph glyph-name="q.sup" horiz-adv-x="374" 
d="M27 467v4q0 73 39 122.5t104 49.5q52 0 85 -33l5 23h72v-451h-86v140q-33 -25 -83 -25q-67 0 -101.5 45.5t-34.5 124.5zM116 469v-2q0 -94 68 -94q39 0 62 23v145q-26 24 -59 24q-38 0 -54.5 -27.5t-16.5 -68.5z" />
    <glyph glyph-name="r.sup" horiz-adv-x="239" 
d="M38 633h75l6 -37q37 44 103 45l-3 -80q-58 0 -95 -29v-225h-86v326z" />
    <glyph glyph-name="s.sup" horiz-adv-x="286" 
d="M243 627l-7 -75q-41 19 -80 19q-49 0 -49 -27q0 -12 10 -19.5t35 -14.5l27 -9q44 -12 65 -35t21 -64q0 -52 -35.5 -78.5t-98.5 -26.5q-46 0 -104 20l6 73q48 -23 91 -23q56 0 56 29q0 13 -10 21t-37 16l-30 9q-81 25 -81 100q0 47 35 74t95 27q47 0 91 -16z" />
    <glyph glyph-name="t.sup" horiz-adv-x="249" 
d="M64 719l86 11v-97h75l-2 -70h-73v-141q0 -30 9 -41.5t33 -11.5q15 0 31 4l4 -70q-26 -6 -52 -6q-63 0 -87 28t-24 87v151h-46v70h46v86z" />
    <glyph glyph-name="u.sup" horiz-adv-x="353" 
d="M35 633h86v-177q0 -50 10 -68t46 -18t45.5 17.5t9.5 68.5v177h86v-195q0 -76 -31 -108.5t-110 -32.5t-110.5 33t-31.5 108v195z" />
    <glyph glyph-name="v.sup" horiz-adv-x="322" 
d="M12 633h91q25 -122 57 -225h3q26 92 57 225h91q-19 -71 -53 -173t-56 -153h-86q-21 52 -53.5 154.5t-50.5 171.5z" />
    <glyph glyph-name="w.sup" horiz-adv-x="498" 
d="M13 633h91q26 -125 51 -218h4q28 97 51 218h77q25 -123 52 -218h4q20 76 50 218h92q-51 -186 -104 -326h-80q-25 79 -53 191q-22 -94 -50 -191h-82q-56 150 -103 326z" />
    <glyph glyph-name="x.sup" horiz-adv-x="332" 
d="M16 633h99q33 -66 53 -97q32 54 52 97h92q-40 -74 -97 -163l109 -163h-103l-57 96l-53 -96h-99l105 162q-59 92 -101 164z" />
    <glyph glyph-name="y.sup" horiz-adv-x="359" 
d="M36 633h86v-174q0 -29 2 -43.5t14 -26.5t36 -12q37 0 61 22v234h86v-231q0 -135 -30.5 -185.5t-132.5 -50.5q-41 0 -68 7l6 67q25 -5 47 -5q47 0 69.5 13.5t22.5 58.5v16q-35 -24 -86 -24q-59 0 -86 32.5t-27 99.5v202z" />
    <glyph glyph-name="z.sup" horiz-adv-x="313" 
d="M31 633h252v-53l-149 -204h154v-69h-261l-3 49l152 207h-145v70z" />
    <glyph glyph-name="zero.sup" horiz-adv-x="333" 
d="M167 711q-46 0 -46 -121q0 -122 46 -122q24 0 35 28t11 94q0 121 -46 121zM167 786q69 0 101.5 -48t32.5 -148t-32.5 -148.5t-101.5 -48.5t-101.5 48.5t-32.5 148.5t32.5 148t101.5 48z" />
    <glyph glyph-name="four.sup" horiz-adv-x="333" 
d="M171 776h99v-218h50v-70h-50v-85h-86v85h-169v58q97 149 156 230zM100 558h84v126q-16 -22 -84 -126z" />
    <glyph glyph-name="five.sup" horiz-adv-x="333" 
d="M59 776h220l-4 -72h-141l-1 -71q22 8 51 8q55 0 85.5 -31t30.5 -87q0 -63 -38.5 -96.5t-105.5 -33.5q-60 0 -113 20l11 75q55 -20 92 -20q36 0 51 15q13 13 13 36q0 49 -57 49q-34 0 -73 -17l-24 11z" />
    <glyph glyph-name="six.sup" horiz-adv-x="333" 
d="M272 777l-10 -71q-22 7 -50 7q-72 0 -82 -72q24 11 59 11q53 0 85 -33.5t32 -88.5q0 -61 -38 -99t-97 -38q-73 0 -106.5 48t-33.5 128q0 105 45 161t129 56q36 0 67 -9zM121 568q-2 -27 1 -43q8 -59 49 -59q21 0 34 16.5t13 43.5q0 25 -12.5 39.5t-35.5 14.5
q-32 0 -49 -12z" />
    <glyph glyph-name="seven.sup" horiz-adv-x="333" 
d="M38 776h259v-69l-152 -304h-101l154 301h-160v72z" />
    <glyph glyph-name="eight.sup" horiz-adv-x="333" 
d="M90 600q-49 31 -49 85q0 44 34 72.5t93 28.5q58 0 93 -27.5t35 -71.5q0 -55 -54 -84q65 -31 65 -93q0 -54 -39.5 -85.5t-101.5 -31.5t-101 30t-39 84q0 30 18 55.5t46 37.5zM170 631q41 16 41 52q0 17 -11.5 27.5t-31.5 10.5q-19 0 -30.5 -11t-11.5 -28q0 -31 44 -51z
M162 566q-47 -17 -47 -58q0 -22 14 -36t38 -14t37.5 13.5t13.5 35.5q0 36 -56 59z" />
    <glyph glyph-name="nine.sup" horiz-adv-x="333" 
d="M63 400l10 73q30 -7 50 -7q71 0 83 70q-22 -11 -54 -11q-57 0 -90 33.5t-33 89.5q0 62 36.5 100t99.5 38q139 0 139 -173q0 -99 -42 -159.5t-132 -60.5q-37 0 -67 7zM215 610q3 21 -1 46q-8 56 -48 56q-22 0 -35 -17t-13 -43q0 -54 47 -54q31 0 50 12z" />
    <glyph glyph-name="plus.sup" horiz-adv-x="333" 
d="M129 724h75v-99h97v-72h-97v-99h-75v99h-97v72h97v99z" />
    <glyph glyph-name="minus.sup" horiz-adv-x="333" 
d="M32 625h269v-72h-269v72z" />
    <glyph glyph-name="equal.sup" horiz-adv-x="333" 
d="M32 696h269v-72h-269v72zM32 556h269v-72h-269v72z" />
    <glyph glyph-name="parenleft.sup" horiz-adv-x="249" 
d="M175 878l47 -37q-94 -106 -94 -243q0 -135 94 -242l-45 -36q-134 124 -134 280q0 154 132 278z" />
    <glyph glyph-name="parenright.sup" horiz-adv-x="249" 
d="M27 841l47 37q133 -124 133 -278q0 -155 -135 -280l-45 36q94 109 94 242q0 135 -94 243z" />
    <glyph glyph-name="period.sup" horiz-adv-x="178" 
d="M42 451v8q0 49 47 49t47 -49v-8q0 -49 -47 -49t-47 49z" />
    <glyph glyph-name="comma.sup" horiz-adv-x="185" 
d="M40 449v9q0 50 52 50q51 0 51 -54q0 -60 -47 -157l-45 16q14 33 25 84q-36 8 -36 52z" />
    <glyph glyph-name="zero.sub" horiz-adv-x="333" 
d="M167 211q-46 0 -46 -121q0 -122 46 -122q24 0 35 28t11 94q0 121 -46 121zM167 286q69 0 101.5 -48t32.5 -148t-32.5 -148.5t-101.5 -48.5t-101.5 48.5t-32.5 148.5t32.5 148t101.5 48z" />
    <glyph glyph-name="one.sub" horiz-adv-x="333" 
d="M33 208l122 68h69v-302h72v-71h-243v71h85v203l-80 -45z" />
    <glyph glyph-name="two.sub" horiz-adv-x="333" 
d="M53 183l-10 74q62 29 121 29q58 0 91.5 -28.5t33.5 -78.5q0 -45 -24 -83t-82 -91l-32 -29h140v-73h-245l-6 64l51 47q64 58 82 84q25 36 25 68q0 42 -50 42q-42 0 -95 -25z" />
    <glyph glyph-name="three.sub" horiz-adv-x="333" 
d="M63 195l-8 70q53 21 104 21q62 0 95 -25.5t33 -72.5q0 -60 -51 -86q59 -21 59 -89q0 -58 -39 -89t-109 -31q-55 0 -110 20l9 72q44 -17 90 -17q69 0 69 48q0 47 -69 47h-32v64h28q67 0 67 47q0 37 -54 37q-39 0 -82 -16z" />
    <glyph glyph-name="four.sub" horiz-adv-x="333" 
d="M171 276h99v-218h50v-70h-50v-85h-86v85h-169v58q97 149 156 230zM100 58h84v126q-16 -22 -84 -126z" />
    <glyph glyph-name="five.sub" horiz-adv-x="333" 
d="M59 276h220l-4 -72h-141l-1 -71q22 8 51 8q55 0 85.5 -31t30.5 -87q0 -63 -38.5 -96.5t-105.5 -33.5q-60 0 -113 20l11 75q55 -20 92 -20q36 0 51 15q13 13 13 36q0 49 -57 49q-34 0 -73 -17l-24 11z" />
    <glyph glyph-name="six.sub" horiz-adv-x="333" 
d="M272 277l-10 -71q-22 7 -50 7q-72 0 -82 -72q24 11 59 11q53 0 85 -33.5t32 -88.5q0 -61 -38 -99t-97 -38q-73 0 -106.5 48t-33.5 128q0 105 45 161t129 56q36 0 67 -9zM121 68q-2 -27 1 -43q8 -59 49 -59q21 0 34 16.5t13 43.5q0 25 -12.5 39.5t-35.5 14.5
q-32 0 -49 -12z" />
    <glyph glyph-name="seven.sub" horiz-adv-x="333" 
d="M38 276h259v-69l-152 -304h-101l154 301h-160v72z" />
    <glyph glyph-name="eight.sub" horiz-adv-x="333" 
d="M90 100q-49 31 -49 85q0 44 34 72.5t93 28.5q58 0 93 -27.5t35 -71.5q0 -55 -54 -84q65 -31 65 -93q0 -54 -39.5 -85.5t-101.5 -31.5t-101 30t-39 84q0 30 18 55.5t46 37.5zM170 131q41 16 41 52q0 17 -11.5 27.5t-31.5 10.5q-19 0 -30.5 -11t-11.5 -28q0 -31 44 -51z
M162 66q-47 -17 -47 -58q0 -22 14 -36t38 -14t37.5 13.5t13.5 35.5q0 36 -56 59z" />
    <glyph glyph-name="nine.sub" horiz-adv-x="333" 
d="M63 -100l10 73q30 -7 50 -7q71 0 83 70q-22 -11 -54 -11q-57 0 -90 33.5t-33 89.5q0 62 36.5 100t99.5 38q139 0 139 -173q0 -99 -42 -159.5t-132 -60.5q-37 0 -67 7zM215 110q3 21 -1 46q-8 56 -48 56q-22 0 -35 -17t-13 -43q0 -54 47 -54q31 0 50 12z" />
    <glyph glyph-name="plus.sub" horiz-adv-x="333" 
d="M129 225h75v-100h97v-71h-97v-99h-75v99h-97v71h97v100z" />
    <glyph glyph-name="minus.sub" horiz-adv-x="333" 
d="M32 125h269v-71h-269v71z" />
    <glyph glyph-name="equal.sub" horiz-adv-x="333" 
d="M32 197h269v-72h-269v72zM32 57h269v-73h-269v73z" />
    <glyph glyph-name="parenleft.sub" horiz-adv-x="249" 
d="M177 379l46 -38q-93 -107 -93 -242q0 -133 93 -243l-45 -35q-134 123 -134 279q0 154 133 279z" />
    <glyph glyph-name="parenright.sub" horiz-adv-x="249" 
d="M26 341l47 38q132 -125 132 -279q0 -155 -134 -279l-45 35q94 109 94 243q0 136 -94 242z" />
    <glyph glyph-name="period.sub" horiz-adv-x="178" 
d="M42 -49v9q0 48 47 48t47 -48v-9q0 -49 -47 -49t-47 49z" />
    <glyph glyph-name="comma.sub" horiz-adv-x="185" 
d="M40 -51v9q0 50 52 50q51 0 51 -54q0 -59 -47 -157l-45 16q14 34 25 85q-36 8 -36 51z" />
    <glyph glyph-name="zero.num" horiz-adv-x="333" 
d="M167 615q-46 0 -46 -121q0 -122 46 -122q24 0 35 28t11 94q0 121 -46 121zM167 690q69 0 101.5 -48t32.5 -148t-32.5 -148.5t-101.5 -48.5t-101.5 48.5t-32.5 148.5t32.5 148t101.5 48z" />
    <glyph glyph-name="one.num" horiz-adv-x="333" 
d="M33 612l122 68h69v-302h72v-71h-243v71h85v203l-80 -45z" />
    <glyph glyph-name="two.num" horiz-adv-x="333" 
d="M53 587l-10 74q62 29 121 29q58 0 91.5 -28.5t33.5 -78.5q0 -45 -24 -83t-82 -91l-32 -29h140v-73h-245l-6 64l51 47q64 58 82 84q25 36 25 68q0 42 -50 42q-42 0 -95 -25z" />
    <glyph glyph-name="three.num" horiz-adv-x="333" 
d="M63 599l-8 70q53 21 104 21q62 0 95 -25.5t33 -72.5q0 -60 -51 -86q59 -21 59 -89q0 -58 -39 -89t-109 -31q-55 0 -110 20l9 72q44 -17 90 -17q69 0 69 48q0 47 -69 47h-32v64h28q67 0 67 47q0 37 -54 37q-39 0 -82 -16z" />
    <glyph glyph-name="four.num" horiz-adv-x="333" 
d="M171 680h99v-218h50v-70h-50v-85h-86v85h-169v58q97 149 156 230zM100 462h84v126q-16 -22 -84 -126z" />
    <glyph glyph-name="five.num" horiz-adv-x="333" 
d="M59 680h220l-4 -72h-141l-1 -71q22 8 51 8q55 0 85.5 -31t30.5 -87q0 -63 -38.5 -96.5t-105.5 -33.5q-60 0 -113 20l11 75q55 -20 92 -20q36 0 51 15q13 13 13 36q0 49 -57 49q-34 0 -73 -17l-24 11z" />
    <glyph glyph-name="six.num" horiz-adv-x="333" 
d="M272 681l-10 -71q-22 7 -50 7q-72 0 -82 -72q24 11 59 11q53 0 85 -33.5t32 -88.5q0 -61 -38 -99t-97 -38q-73 0 -106.5 48t-33.5 128q0 105 45 161t129 56q36 0 67 -9zM121 472q-2 -27 1 -43q8 -59 49 -59q21 0 34 16.5t13 43.5q0 25 -12.5 39.5t-35.5 14.5
q-32 0 -49 -12z" />
    <glyph glyph-name="seven.num" horiz-adv-x="333" 
d="M38 680h259v-69l-152 -304h-101l154 301h-160v72z" />
    <glyph glyph-name="eight.num" horiz-adv-x="333" 
d="M90 504q-49 31 -49 85q0 44 34 72.5t93 28.5q58 0 93 -27.5t35 -71.5q0 -55 -54 -84q65 -31 65 -93q0 -54 -39.5 -85.5t-101.5 -31.5t-101 30t-39 84q0 30 18 55.5t46 37.5zM170 535q41 16 41 52q0 17 -11.5 27.5t-31.5 10.5q-19 0 -30.5 -11t-11.5 -28q0 -31 44 -51z
M162 470q-47 -17 -47 -58q0 -22 14 -36t38 -14t37.5 13.5t13.5 35.5q0 36 -56 59z" />
    <glyph glyph-name="nine.num" horiz-adv-x="333" 
d="M63 304l10 73q30 -7 50 -7q71 0 83 70q-22 -11 -54 -11q-57 0 -90 33.5t-33 89.5q0 62 36.5 100t99.5 38q139 0 139 -173q0 -99 -42 -159.5t-132 -60.5q-37 0 -67 7zM215 514q3 21 -1 46q-8 56 -48 56q-22 0 -35 -17t-13 -43q0 -54 47 -54q31 0 50 12z" />
    <glyph glyph-name="plus.num" horiz-adv-x="333" 
d="M129 628h75v-99h97v-72h-97v-99h-75v99h-97v72h97v99z" />
    <glyph glyph-name="minus.num" horiz-adv-x="333" 
d="M32 529h269v-72h-269v72z" />
    <glyph glyph-name="equal.num" horiz-adv-x="333" 
d="M32 600h269v-72h-269v72zM32 460h269v-72h-269v72z" />
    <glyph glyph-name="parenleft.num" horiz-adv-x="249" 
d="M175 782l47 -37q-94 -106 -94 -243q0 -135 94 -242l-45 -36q-134 124 -134 280q0 154 132 278z" />
    <glyph glyph-name="parenright.num" horiz-adv-x="249" 
d="M27 745l47 37q133 -124 133 -278q0 -155 -135 -280l-45 36q94 109 94 242q0 135 -94 243z" />
    <glyph glyph-name="period.num" horiz-adv-x="178" 
d="M42 355v8q0 49 47 49t47 -49v-8q0 -49 -47 -49t-47 49z" />
    <glyph glyph-name="comma.num" horiz-adv-x="185" 
d="M40 353v9q0 50 52 50q51 0 51 -54q0 -60 -47 -157l-45 16q14 33 25 84q-36 8 -36 52z" />
    <glyph glyph-name="zero.den" horiz-adv-x="333" 
d="M167 302q-46 0 -46 -121q0 -122 46 -122q24 0 35 28t11 94q0 121 -46 121zM167 377q69 0 101.5 -48t32.5 -148t-32.5 -148.5t-101.5 -48.5t-101.5 48.5t-32.5 148.5t32.5 148t101.5 48z" />
    <glyph glyph-name="one.den" horiz-adv-x="333" 
d="M33 299l122 68h69v-302h72v-71h-243v71h85v203l-80 -45z" />
    <glyph glyph-name="two.den" horiz-adv-x="333" 
d="M53 274l-10 74q62 29 121 29q58 0 91.5 -28.5t33.5 -78.5q0 -45 -24 -83t-82 -91l-32 -29h140v-73h-245l-6 64l51 47q64 58 82 84q25 36 25 68q0 42 -50 42q-42 0 -95 -25z" />
    <glyph glyph-name="three.den" horiz-adv-x="333" 
d="M63 286l-8 70q53 21 104 21q62 0 95 -25.5t33 -72.5q0 -61 -51 -86q59 -21 59 -89q0 -58 -39 -89t-109 -31q-55 0 -110 20l9 72q44 -17 90 -17q69 0 69 48q0 47 -69 47h-32v64h28q67 0 67 47q0 37 -54 37q-39 0 -82 -16z" />
    <glyph glyph-name="four.den" horiz-adv-x="333" 
d="M171 367h99v-218h50v-70h-50v-85h-86v85h-169v58q97 149 156 230zM100 149h84v126q-16 -22 -84 -126z" />
    <glyph glyph-name="five.den" horiz-adv-x="333" 
d="M59 367h220l-4 -72h-141l-1 -71q22 8 51 8q55 0 85.5 -31t30.5 -87q0 -63 -38.5 -96.5t-105.5 -33.5q-60 0 -113 20l11 75q55 -20 92 -20q36 0 51 15q13 13 13 36q0 49 -57 49q-34 0 -73 -17l-24 11z" />
    <glyph glyph-name="six.den" horiz-adv-x="333" 
d="M272 368l-10 -71q-22 7 -50 7q-72 0 -82 -72q24 11 59 11q53 0 85 -33.5t32 -88.5q0 -61 -38 -99t-97 -38q-73 0 -106.5 48t-33.5 128q0 105 45 161t129 56q36 0 67 -9zM121 159q-2 -27 1 -43q8 -59 49 -59q21 0 34 16.5t13 43.5q0 25 -12.5 39.5t-35.5 14.5
q-32 0 -49 -12z" />
    <glyph glyph-name="seven.den" horiz-adv-x="333" 
d="M38 367h259v-69l-152 -304h-101l154 301h-160v72z" />
    <glyph glyph-name="eight.den" horiz-adv-x="333" 
d="M88 191q-49 31 -49 85q0 44 34 72.5t93 28.5q58 0 93 -27.5t35 -71.5q0 -55 -54 -84q65 -31 65 -93q0 -54 -39.5 -85.5t-101.5 -31.5t-101 30t-39 84q0 30 18 55.5t46 37.5zM168 222q41 16 41 52q0 17 -11.5 27.5t-31.5 10.5q-19 0 -30.5 -11t-11.5 -28q0 -31 44 -51z
M160 157q-47 -17 -47 -58q0 -22 14 -36t38 -14t37.5 13.5t13.5 35.5q0 36 -56 59z" />
    <glyph glyph-name="nine.den" horiz-adv-x="333" 
d="M61 -9l10 73q30 -7 50 -7q71 0 83 70q-22 -11 -54 -11q-57 0 -90 33.5t-33 89.5q0 62 36.5 100t99.5 38q139 0 139 -173q0 -99 -42 -159.5t-132 -60.5q-37 0 -67 7zM213 201q3 21 -1 46q-8 56 -48 56q-22 0 -35 -17t-13 -43q0 -54 47 -54q31 0 50 12z" />
    <glyph glyph-name="plus.den" horiz-adv-x="333" 
d="M129 316h75v-99h97v-72h-97v-99h-75v99h-97v72h97v99z" />
    <glyph glyph-name="minus.den" horiz-adv-x="333" 
d="M32 217h269v-72h-269v72z" />
    <glyph glyph-name="equal.den" horiz-adv-x="333" 
d="M32 288h269v-72h-269v72zM32 148h269v-72h-269v72z" />
    <glyph glyph-name="parenleft.den" horiz-adv-x="249" 
d="M177 470l46 -38q-93 -106 -93 -242q0 -134 93 -242l-45 -36q-134 123 -134 280q0 153 133 278z" />
    <glyph glyph-name="parenright.den" horiz-adv-x="249" 
d="M26 432l47 38q132 -125 132 -278q0 -156 -134 -280l-45 36q94 107 94 242q0 136 -94 242z" />
    <glyph glyph-name="period.den" horiz-adv-x="178" 
d="M42 43v8q0 48 47 48t47 -48v-8q0 -49 -47 -49t-47 49z" />
    <glyph glyph-name="comma.den" horiz-adv-x="185" 
d="M40 40v9q0 50 52 50q51 0 51 -54q0 -59 -47 -157l-45 16q13 32 25 85q-36 8 -36 51z" />
    <glyph glyph-name="Agrave.sc" 
d="M205 540h135q73 -202 177 -540h-119q-13 49 -30 106h-190q-9 -30 -29 -106h-123q92 298 179 540zM273 427h-4q-40 -130 -67 -229h140q-23 86 -69 229zM179 784l213 -129l-38 -68l-230 110z" />
    <glyph glyph-name="Aacute.sc" 
d="M205 540h135q73 -202 177 -540h-119q-13 49 -30 106h-190q-9 -30 -29 -106h-123q92 298 179 540zM273 427h-4q-40 -130 -67 -229h140q-23 86 -69 229zM155 655l213 129l54 -86l-229 -111z" />
    <glyph glyph-name="Acircumflex.sc" 
d="M205 540h135q73 -202 177 -540h-119q-13 49 -30 106h-190q-9 -30 -29 -106h-123q92 298 179 540zM273 427h-4q-40 -130 -67 -229h140q-23 86 -69 229zM238 777h69l128 -136l-55 -49l-104 99h-8l-105 -99l-54 49z" />
    <glyph glyph-name="Atilde.sc" 
d="M205 540h135q73 -202 177 -540h-119q-13 49 -30 106h-190q-9 -30 -29 -106h-123q92 298 179 540zM273 427h-4q-40 -130 -67 -229h140q-23 86 -69 229zM151 610l-51 52q47 86 113 86q29 0 67 -26t59 -26q35 0 56 45l51 -53q-37 -76 -107 -76q-33 0 -70 24t-54 24
q-36 0 -64 -50z" />
    <glyph glyph-name="Adieresis.sc" 
d="M205 540h135q73 -202 177 -540h-119q-13 49 -30 106h-190q-9 -30 -29 -106h-123q92 298 179 540zM273 427h-4q-40 -130 -67 -229h140q-23 86 -69 229zM301 677v7q0 63 62 63t62 -63v-7q0 -62 -62 -62t-62 62zM121 677v7q0 63 62 63q61 0 61 -63v-7q0 -62 -61 -62
q-62 0 -62 62z" />
    <glyph glyph-name="Amacron.sc" 
d="M205 540h135q73 -202 177 -540h-119q-13 49 -30 106h-190q-9 -30 -29 -106h-123q92 298 179 540zM273 427h-4q-40 -130 -67 -229h140q-23 86 -69 229zM127 715h291v-76h-291v76z" />
    <glyph glyph-name="Abreve.sc" 
d="M205 540h135q73 -202 177 -540h-119q-13 49 -30 106h-190q-9 -30 -29 -106h-123q92 298 179 540zM273 427h-4q-40 -130 -67 -229h140q-23 86 -69 229zM116 717l68 34q34 -69 89 -69q57 0 90 69l66 -34q-18 -51 -59 -81.5t-97 -30.5q-112 0 -157 112z" />
    <glyph glyph-name="Aring.sc" 
d="M205 540h135q73 -202 177 -540h-119q-13 49 -30 106h-190q-9 -30 -29 -106h-123q92 298 179 540zM273 427h-4q-40 -130 -67 -229h140q-23 86 -69 229zM273 805q43 0 72.5 -30.5t29.5 -73.5t-30.5 -73.5t-73.5 -30.5q-42 0 -72 30.5t-30 73.5t30.5 73.5t73.5 30.5z
M272 738q-16 0 -26 -10.5t-10 -26.5q0 -15 10 -26t25 -11q16 0 26.5 11t10.5 26q0 16 -10 26.5t-26 10.5z" />
    <glyph glyph-name="Aringacute.sc" 
d="M205 540h135q73 -202 177 -540h-119l-30 106h-190q-9 -30 -29 -106h-123q92 298 179 540zM273 427h-4q-40 -130 -67 -229h140q-23 86 -69 229zM169 696q0 43 30.5 73t73.5 30t72.5 -30t29.5 -73t-30 -73.5t-73 -30.5t-73 30.5t-30 73.5zM272 733q-15 0 -25.5 -11
t-10.5 -26q0 -16 10 -27t26 -11t26 11t10 27q0 15 -10.5 26t-25.5 11zM157 897l213 130l55 -87l-230 -111z" />
    <glyph glyph-name="Aogonek.sc" 
d="M205 540h135q73 -202 177 -540q-67 -25 -102.5 -59.5t-35.5 -72.5q0 -40 41 -40q25 0 50 11l12 -61q-39 -18 -86 -18q-53 0 -81.5 24t-28.5 67q0 44 31.5 85t80.5 65q-14 50 -30 105h-190q-9 -30 -29 -106h-123q92 298 179 540zM273 427h-4q-40 -130 -67 -229h140
q-23 86 -69 229z" />
    <glyph glyph-name="AE.sc" horiz-adv-x="764" 
d="M307 540h408l-6 -102h-230v-116h203v-95h-203v-125h232v-102h-351v106h-163q-15 -30 -51 -106h-122q176 350 283 540zM360 438h-5q-51 -99 -114 -240h119v240z" />
    <glyph glyph-name="AEacute.sc" horiz-adv-x="764" 
d="M307 540h408l-6 -102h-230v-116h203v-95h-203v-125h232v-102h-351v106h-163q-15 -30 -51 -106h-122q176 350 283 540zM360 438h-5q-51 -99 -114 -240h119v240zM401 655l213 129l54 -86l-229 -111z" />
    <glyph glyph-name="Cacute.sc" horiz-adv-x="508" 
d="M50 264v8q0 284 266 284q75 0 146 -29l-14 -105q-61 27 -121 27q-154 0 -154 -179q0 -93 36 -136t117 -43q68 0 127 25l8 -104q-66 -28 -146 -28q-265 0 -265 280zM191 655l213 129l54 -86l-229 -111z" />
    <glyph glyph-name="Ccircumflex.sc" horiz-adv-x="508" 
d="M50 264v8q0 284 266 284q75 0 146 -29l-14 -105q-61 27 -121 27q-154 0 -154 -179q0 -93 36 -136t117 -43q68 0 127 25l8 -104q-66 -28 -146 -28q-265 0 -265 280zM261 777h69l128 -136l-55 -49l-104 99h-8l-105 -99l-54 49z" />
    <glyph glyph-name="Ccaron.sc" horiz-adv-x="508" 
d="M50 264v8q0 284 266 284q75 0 146 -29l-14 -105q-61 27 -121 27q-154 0 -154 -179q0 -93 36 -136t117 -43q68 0 127 25l8 -104q-66 -28 -146 -28q-265 0 -265 280zM136 739l54 49l105 -99h8l104 99l55 -49l-128 -136h-69z" />
    <glyph glyph-name="Ccedilla.sc" horiz-adv-x="508" 
d="M50 264v8q0 284 266 284q75 0 146 -29l-14 -105q-61 27 -121 27q-154 0 -154 -179q0 -93 36 -136t117 -43q68 0 127 25l8 -104q-66 -28 -146 -28h-6l-9 -44q105 -2 105 -90q0 -51 -33 -78.5t-91 -27.5q-54 0 -99 21l17 59q42 -15 74 -15q53 0 53 36q0 37 -59 37
q-14 0 -44 -4l-8 9l25 104q-190 36 -190 273z" />
    <glyph glyph-name="Cdotaccent.sc" horiz-adv-x="508" 
d="M50 264v8q0 284 266 284q75 0 146 -29l-14 -105q-61 27 -121 27q-154 0 -154 -179q0 -93 36 -136t117 -43q68 0 127 25l8 -104q-66 -28 -146 -28q-265 0 -265 280zM227 686q0 29 20.5 49.5t50.5 20.5q28 0 47.5 -20.5t19.5 -49.5q0 -30 -20 -50.5t-49 -20.5t-49 20.5
t-20 50.5z" />
    <glyph glyph-name="Dcaron.sc" horiz-adv-x="591" 
d="M78 540h156q160 0 233.5 -56.5t73.5 -208.5q0 -148 -69.5 -211.5t-244.5 -63.5h-149v540zM196 438v-336h52q97 0 133.5 37t36.5 135q0 92 -35.5 128t-133.5 36h-53zM124 739l54 49l105 -99h8l104 99l55 -49l-128 -136h-69z" />
    <glyph glyph-name="Dcroat.sc" horiz-adv-x="591" 
d="M78 540h156q160 0 233.5 -56.5t73.5 -208.5q0 -148 -69.5 -211.5t-244.5 -63.5h-149v221h-76v101h76v218zM196 438v-116h112v-101h-112v-119h52q97 0 133.5 37t36.5 135q0 92 -35.5 128t-133.5 36h-53z" />
    <glyph glyph-name="Eth.sc" horiz-adv-x="591" 
d="M78 540h156q160 0 233.5 -56.5t73.5 -208.5q0 -148 -69.5 -211.5t-244.5 -63.5h-149v221h-76v101h76v218zM196 438v-116h112v-101h-112v-119h52q97 0 133.5 37t36.5 135q0 92 -35.5 128t-133.5 36h-53z" />
    <glyph glyph-name="Egrave.sc" horiz-adv-x="482" 
d="M78 540h355l-7 -102h-230v-116h203v-95h-203v-125h231v-102h-349v540zM165 784l213 -129l-38 -68l-230 110z" />
    <glyph glyph-name="Eacute.sc" horiz-adv-x="482" 
d="M78 540h355l-7 -102h-230v-116h203v-95h-203v-125h231v-102h-349v540zM153 655l213 129l54 -86l-229 -111z" />
    <glyph glyph-name="Ecircumflex.sc" horiz-adv-x="482" 
d="M78 540h355l-7 -102h-230v-116h203v-95h-203v-125h231v-102h-349v540zM236 777h69l128 -136l-55 -49l-104 99h-8l-105 -99l-54 49z" />
    <glyph glyph-name="Ecaron.sc" horiz-adv-x="482" 
d="M78 540h355l-7 -102h-230v-116h203v-95h-203v-125h231v-102h-349v540zM105 739l54 49l105 -99h8l104 99l55 -49l-128 -136h-69z" />
    <glyph glyph-name="Edieresis.sc" horiz-adv-x="482" 
d="M78 540h355l-7 -102h-230v-116h203v-95h-203v-125h231v-102h-349v540zM292 677v7q0 63 62 63t62 -63v-7q0 -62 -62 -62t-62 62zM112 677v7q0 63 62 63q61 0 61 -63v-7q0 -62 -61 -62q-62 0 -62 62z" />
    <glyph glyph-name="Emacron.sc" horiz-adv-x="482" 
d="M78 540h355l-7 -102h-230v-116h203v-95h-203v-125h231v-102h-349v540zM112 715h291v-76h-291v76z" />
    <glyph glyph-name="Ebreve.sc" horiz-adv-x="482" 
d="M78 540h355l-7 -102h-230v-116h203v-95h-203v-125h231v-102h-349v540zM105 717l68 34q34 -69 89 -69q57 0 90 69l66 -34q-18 -51 -59 -81.5t-97 -30.5q-112 0 -157 112z" />
    <glyph glyph-name="Edotaccent.sc" horiz-adv-x="482" 
d="M78 540h355l-7 -102h-230v-116h203v-95h-203v-125h231v-102h-349v540zM192 686q0 29 20.5 49.5t50.5 20.5q28 0 47.5 -20.5t19.5 -49.5q0 -30 -20 -50.5t-49 -20.5t-49 20.5t-20 50.5z" />
    <glyph glyph-name="Eogonek.sc" horiz-adv-x="482" 
d="M78 540h355l-7 -102h-230v-116h203v-95h-203v-125h231v-102q-111 -56 -111 -132q0 -40 42 -40q27 0 49 11l11 -60q-37 -19 -83 -19q-112 0 -112 99q0 39 29.5 78.5t81.5 62.5h-256v540z" />
    <glyph glyph-name="Gcircumflex.sc" horiz-adv-x="561" 
d="M50 266v4q0 138 72 212t208 74q82 0 161 -31l-10 -102q-72 31 -147 31q-161 0 -161 -182q0 -95 35 -140t109 -45q44 0 73 7v110h-86v92h196v-280q-86 -32 -185 -32q-132 0 -198.5 72.5t-66.5 209.5zM271 777h69l128 -136l-55 -49l-104 99h-8l-105 -99l-54 49z" />
    <glyph glyph-name="Gbreve.sc" horiz-adv-x="561" 
d="M50 266v4q0 138 72 212t208 74q82 0 161 -31l-10 -102q-72 31 -147 31q-161 0 -161 -182q0 -95 35 -140t109 -45q44 0 73 7v110h-86v92h196v-280q-86 -32 -185 -32q-132 0 -198.5 72.5t-66.5 209.5zM152 717l68 34q34 -69 89 -69q57 0 90 69l66 -34q-18 -51 -59 -81.5
t-97 -30.5q-112 0 -157 112z" />
    <glyph glyph-name="Gdotaccent.sc" horiz-adv-x="561" 
d="M50 266v4q0 138 72 212t208 74q82 0 161 -31l-10 -102q-72 31 -147 31q-161 0 -161 -182q0 -95 35 -140t109 -45q44 0 73 7v110h-86v92h196v-280q-86 -32 -185 -32q-132 0 -198.5 72.5t-66.5 209.5zM237 689q0 29 20.5 49.5t50.5 20.5q28 0 47.5 -20.5t19.5 -49.5
q0 -30 -20 -50.5t-49 -20.5t-49 20.5t-20 50.5z" />
    <glyph glyph-name="Gcommaaccent.sc" horiz-adv-x="561" 
d="M50 266v4q0 138 72 212t208 74q82 0 161 -31l-10 -102q-72 31 -147 31q-161 0 -161 -182q0 -95 35 -140t109 -45q44 0 73 7v110h-86v92h196v-280q-86 -32 -185 -32q-132 0 -198.5 72.5t-66.5 209.5zM254 -138v6q0 60 60 60q59 0 59 -65q0 -75 -57 -189l-55 21
q30 58 38 105q-45 11 -45 62z" />
    <glyph glyph-name="Hcircumflex.sc" horiz-adv-x="615" 
d="M78 540h118v-216h223v216h118v-540h-118v225h-223v-225h-118v540zM273 777h69l128 -136l-55 -49l-104 99h-8l-105 -99l-54 49z" />
    <glyph glyph-name="Hbar.sc" horiz-adv-x="615" 
d="M78 540h118v-71h223v71h118v-71h40v-73h-40v-396h-118v225h-223v-225h-118v396h-41v73h41v71zM196 396v-72h223v72h-223z" />
    <glyph glyph-name="dotlessi.sc" horiz-adv-x="280" 
d="M81 540h118v-540h-118v540z" />
    <glyph glyph-name="Igrave.sc" horiz-adv-x="280" 
d="M81 540h118v-540h-118v540zM47 784l213 -129l-38 -68l-230 110z" />
    <glyph glyph-name="Iacute.sc" horiz-adv-x="280" 
d="M81 540h118v-540h-118v540zM33 655l213 129l54 -86l-229 -111z" />
    <glyph glyph-name="Icircumflex.sc" horiz-adv-x="280" 
d="M81 540h118v-540h-118v540zM105 777h69l128 -136l-55 -49l-104 99h-8l-105 -99l-54 49z" />
    <glyph glyph-name="Itilde.sc" horiz-adv-x="280" 
d="M81 540h118v-540h-118v540zM17 610l-51 52q47 86 113 86q29 0 67 -26t59 -26q35 0 56 45l51 -53q-37 -76 -107 -76q-33 0 -70 24t-54 24q-36 0 -64 -50z" />
    <glyph glyph-name="Idieresis.sc" horiz-adv-x="280" 
d="M81 540h118v-540h-118v540zM167 677v7q0 63 62 63t62 -63v-7q0 -62 -62 -62t-62 62zM-13 677v7q0 63 62 63q61 0 61 -63v-7q0 -62 -61 -62q-62 0 -62 62z" />
    <glyph glyph-name="Imacron.sc" horiz-adv-x="280" 
d="M81 540h118v-540h-118v540zM-7 715h291v-76h-291v76z" />
    <glyph glyph-name="Ibreve.sc" horiz-adv-x="280" 
d="M81 540h118v-540h-118v540zM-18 717l68 34q34 -69 89 -69q57 0 90 69l66 -34q-18 -51 -59 -81.5t-97 -30.5q-112 0 -157 112z" />
    <glyph glyph-name="Idotaccent.sc" horiz-adv-x="280" 
d="M81 540h118v-540h-118v540zM70 686q0 29 20.5 49.5t50.5 20.5q28 0 47.5 -20.5t19.5 -49.5q0 -30 -20 -50.5t-49 -20.5t-49 20.5t-20 50.5z" />
    <glyph glyph-name="Iogonek.sc" horiz-adv-x="280" 
d="M81 540h118v-540q-65 -25 -101 -60.5t-36 -68.5q0 -43 42 -43q26 0 48 11l12 -60q-40 -19 -84 -19q-53 0 -82.5 25t-29.5 70q0 42 31 83.5t82 64.5v537z" />
    <glyph glyph-name="IJ.sc" horiz-adv-x="662" 
d="M81 540h118v-540h-118v540zM467 540h118v-309q0 -127 -41 -187t-150 -60q-48 0 -95 14l4 99q31 -11 68 -11q60 0 78 29t18 117v308z" />
    <glyph glyph-name="Jcircumflex.sc" horiz-adv-x="390" 
d="M195 540h118v-309q0 -127 -41 -187t-150 -60q-48 0 -95 14l4 99q31 -11 68 -11q60 0 78 29t18 117v308zM220 777h69l128 -136l-55 -49l-104 99h-8l-105 -99l-54 49z" />
    <glyph glyph-name="Kcommaaccent.sc" horiz-adv-x="532" 
d="M78 540h118v-234q103 106 182 234h125q-83 -143 -183 -251l189 -289h-139l-135 214q-20 -19 -39 -32v-182h-118v540zM222 -138v6q0 60 60 60q59 0 59 -65q0 -75 -57 -189l-55 21q30 58 38 105q-45 11 -45 62z" />
    <glyph glyph-name="Lacute.sc" horiz-adv-x="463" 
d="M78 540h118v-438h225v-102h-343v540zM38 655l213 129l54 -86l-229 -111z" />
    <glyph glyph-name="Lcaron.sc" horiz-adv-x="463" 
d="M78 540h118v-438h225v-102h-343v540zM293 524v6q0 60 60 60q59 0 59 -65q0 -75 -57 -189l-55 21q30 58 38 105q-45 11 -45 62z" />
    <glyph glyph-name="Lcommaaccent.sc" horiz-adv-x="463" 
d="M78 540h118v-438h225v-102h-343v540zM192 -138v6q0 60 60 60q59 0 59 -65q0 -75 -57 -189l-55 21q30 58 38 105q-45 11 -45 62z" />
    <glyph glyph-name="Lslash.sc" horiz-adv-x="463" 
d="M78 540h118v-182l111 89v-93l-111 -88v-164h225v-102h-343v180l-69 -59v92l69 59v268z" />
    <glyph glyph-name="Ldot.sc" horiz-adv-x="463" 
d="M78 540h118v-438h225v-102h-343v540zM299 314q0 29 20.5 49.5t50.5 20.5q28 0 47.5 -20.5t19.5 -49.5q0 -30 -20 -50.5t-49 -20.5t-49 20.5t-20 50.5z" />
    <glyph glyph-name="Nacute.sc" horiz-adv-x="622" 
d="M78 540h110l250 -362v362h106v-540h-110l-250 369v-369h-106v540zM211 655l213 129l54 -86l-229 -111z" />
    <glyph glyph-name="Ncaron.sc" horiz-adv-x="622" 
d="M78 540h110l250 -362v362h106v-540h-110l-250 369v-369h-106v540zM149 739l54 49l105 -99h8l104 99l55 -49l-128 -136h-69z" />
    <glyph glyph-name="Ntilde.sc" horiz-adv-x="622" 
d="M78 540h110l250 -362v362h106v-540h-110l-250 369v-369h-106v540zM189 610l-51 52q47 86 113 86q29 0 67 -26t59 -26q35 0 56 45l51 -53q-37 -76 -107 -76q-33 0 -70 24t-54 24q-36 0 -64 -50z" />
    <glyph glyph-name="Ncommaaccent.sc" horiz-adv-x="622" 
d="M78 540h110l250 -362v362h106v-540h-110l-250 369v-369h-106v540zM267 -138v6q0 60 60 60q59 0 59 -65q0 -75 -57 -189l-55 21q30 58 38 105q-45 11 -45 62z" />
    <glyph glyph-name="Eng.sc" horiz-adv-x="628" 
d="M78 540h110l250 -362v362h106v-515q0 -115 -39.5 -172t-137.5 -57q-46 0 -90 14l5 84q42 -10 70 -10q48 0 66.5 21.5t18.5 77.5v13l-253 373v-369h-106v540z" />
    <glyph glyph-name="Ograve.sc" horiz-adv-x="592" 
d="M50 268v5q0 134 61.5 208.5t184.5 74.5q124 0 185 -74.5t61 -208.5v-5q0 -136 -61 -210t-185 -74q-123 0 -184.5 74t-61.5 210zM296 456q-64 0 -93.5 -46t-29.5 -140t29.5 -140t93.5 -46q65 0 94 45.5t29 140.5q0 94 -29.5 140t-93.5 46zM206 784l213 -129l-38 -68
l-230 110z" />
    <glyph glyph-name="Oacute.sc" horiz-adv-x="592" 
d="M50 268v5q0 134 61.5 208.5t184.5 74.5q124 0 185 -74.5t61 -208.5v-5q0 -136 -61 -210t-185 -74q-123 0 -184.5 74t-61.5 210zM296 456q-64 0 -93.5 -46t-29.5 -140t29.5 -140t93.5 -46q65 0 94 45.5t29 140.5q0 94 -29.5 140t-93.5 46zM194 655l213 129l54 -86
l-229 -111z" />
    <glyph glyph-name="Ocircumflex.sc" horiz-adv-x="592" 
d="M50 268v5q0 134 61.5 208.5t184.5 74.5q124 0 185 -74.5t61 -208.5v-5q0 -136 -61 -210t-185 -74q-123 0 -184.5 74t-61.5 210zM296 456q-64 0 -93.5 -46t-29.5 -140t29.5 -140t93.5 -46q65 0 94 45.5t29 140.5q0 94 -29.5 140t-93.5 46zM263 777h69l128 -136l-55 -49
l-104 99h-8l-105 -99l-54 49z" />
    <glyph glyph-name="Otilde.sc" horiz-adv-x="592" 
d="M50 268v5q0 134 61.5 208.5t184.5 74.5q124 0 185 -74.5t61 -208.5v-5q0 -136 -61 -210t-185 -74q-123 0 -184.5 74t-61.5 210zM296 456q-64 0 -93.5 -46t-29.5 -140t29.5 -140t93.5 -46q65 0 94 45.5t29 140.5q0 94 -29.5 140t-93.5 46zM175 610l-51 52q47 86 113 86
q29 0 67 -26t59 -26q35 0 56 45l51 -53q-37 -76 -107 -76q-33 0 -70 24t-54 24q-36 0 -64 -50z" />
    <glyph glyph-name="Odieresis.sc" horiz-adv-x="592" 
d="M50 268v5q0 134 61.5 208.5t184.5 74.5q124 0 185 -74.5t61 -208.5v-5q0 -136 -61 -210t-185 -74q-123 0 -184.5 74t-61.5 210zM296 456q-64 0 -93.5 -46t-29.5 -140t29.5 -140t93.5 -46q65 0 94 45.5t29 140.5q0 94 -29.5 140t-93.5 46zM326 677v7q0 63 62 63t62 -63v-7
q0 -62 -62 -62t-62 62zM146 677v7q0 63 62 63q61 0 61 -63v-7q0 -62 -61 -62q-62 0 -62 62z" />
    <glyph glyph-name="Omacron.sc" horiz-adv-x="592" 
d="M50 268v5q0 134 61.5 208.5t184.5 74.5q124 0 185 -74.5t61 -208.5v-5q0 -136 -61 -210t-185 -74q-123 0 -184.5 74t-61.5 210zM296 456q-64 0 -93.5 -46t-29.5 -140t29.5 -140t93.5 -46q65 0 94 45.5t29 140.5q0 94 -29.5 140t-93.5 46zM153 715h291v-76h-291v76z" />
    <glyph glyph-name="Obreve.sc" horiz-adv-x="592" 
d="M50 268v5q0 134 61.5 208.5t184.5 74.5q124 0 185 -74.5t61 -208.5v-5q0 -136 -61 -210t-185 -74q-123 0 -184.5 74t-61.5 210zM296 456q-64 0 -93.5 -46t-29.5 -140t29.5 -140t93.5 -46q65 0 94 45.5t29 140.5q0 94 -29.5 140t-93.5 46zM142 717l68 34q34 -69 89 -69
q57 0 90 69l66 -34q-18 -51 -59 -81.5t-97 -30.5q-112 0 -157 112z" />
    <glyph glyph-name="Ohungarumlaut.sc" horiz-adv-x="592" 
d="M50 268v5q0 134 61.5 208.5t184.5 74.5q124 0 185 -74.5t61 -208.5v-5q0 -136 -61 -210t-185 -74q-123 0 -184.5 74t-61.5 210zM296 456q-64 0 -93.5 -46t-29.5 -140t29.5 -140t93.5 -46q65 0 94 45.5t29 140.5q0 94 -29.5 140t-93.5 46zM297 803l77 -56l-163 -169
l-60 49zM481 803l77 -56l-163 -169l-59 49z" />
    <glyph glyph-name="Oslash.sc" horiz-adv-x="592" 
d="M50 268v5q0 134 61.5 208.5t184.5 74.5q59 0 104 -18l40 79l60 -28l-43 -84q85 -72 85 -232v-5q0 -136 -61 -210t-185 -74q-54 0 -100 16l-43 -83l-57 31l43 83q-89 71 -89 237zM196 142l155 302q-22 12 -55 12q-64 0 -93.5 -46t-29.5 -140q0 -85 23 -128zM399 393
l-155 -299q21 -10 52 -10q65 0 94 45.5t29 140.5q0 80 -20 123z" />
    <glyph glyph-name="Oslashacute.sc" horiz-adv-x="592" 
d="M185 655l213 129l54 -86l-229 -111zM50 268v5q0 134 61.5 208.5t184.5 74.5q59 0 104 -18l40 79l60 -28l-43 -84q85 -72 85 -232v-5q0 -136 -61 -210t-185 -74q-54 0 -100 16l-43 -83l-57 31l43 83q-89 71 -89 237zM196 142l155 302q-22 12 -55 12q-64 0 -93.5 -46
t-29.5 -140q0 -85 23 -128zM399 393l-155 -299q21 -10 52 -10q65 0 94 45.5t29 140.5q0 80 -20 123z" />
    <glyph glyph-name="OE.sc" horiz-adv-x="783" 
d="M50 268v5q0 132 54 207.5t154 75.5q74 0 124 -50v34h351l-7 -102h-229v-116h203v-95h-203v-125h231v-102h-346v38q-49 -54 -127 -54q-98 0 -151.5 75t-53.5 209zM378 130v279q-40 45 -95 45q-58 0 -84.5 -45t-26.5 -139t26.5 -138.5t83.5 -45.5q57 0 96 44z" />
    <glyph glyph-name="Thorn.sc" horiz-adv-x="523" 
d="M78 540h118v-82q47 1 79 -0.5t67.5 -7t58.5 -17t43 -30.5t29 -49t9 -70q0 -188 -209 -188h-77v-96h-118v540zM196 359v-164h69q53 0 73 18.5t20 64.5q0 50 -22 65.5t-83 15.5h-57z" />
    <glyph glyph-name="Racute.sc" horiz-adv-x="534" 
d="M78 540h169q117 0 175.5 -36t58.5 -136q0 -123 -97 -160l110 -208h-129l-87 189q-14 -1 -46 -1h-36v-188h-118v540zM196 444v-158h73q48 0 68.5 16t20.5 64q0 47 -20 62.5t-80 15.5h-62zM157 655l213 129l54 -86l-229 -111z" />
    <glyph glyph-name="Rcaron.sc" horiz-adv-x="534" 
d="M78 540h169q117 0 175.5 -36t58.5 -136q0 -123 -97 -160l110 -208h-129l-87 189q-14 -1 -46 -1h-36v-188h-118v540zM196 444v-158h73q48 0 68.5 16t20.5 64q0 47 -20 62.5t-80 15.5h-62zM105 739l54 49l105 -99h8l104 99l55 -49l-128 -136h-69z" />
    <glyph glyph-name="Rcommaaccent.sc" horiz-adv-x="534" 
d="M78 540h169q117 0 175.5 -36t58.5 -136q0 -123 -97 -160l110 -208h-129l-87 189q-14 -1 -46 -1h-36v-188h-118v540zM196 444v-158h73q48 0 68.5 16t20.5 64q0 47 -20 62.5t-80 15.5h-62zM222 -138v6q0 60 60 60q59 0 59 -65q0 -75 -57 -189l-55 21q30 58 38 105
q-45 11 -45 62z" />
    <glyph glyph-name="Sacute.sc" horiz-adv-x="484" 
d="M400 531l-8 -106q-65 27 -125 27q-41 0 -62 -11q-28 -12 -28 -48q0 -27 18.5 -40.5t64.5 -28.5l34 -11q77 -25 110 -60.5t33 -97.5q0 -83 -56 -127t-156 -44q-85 0 -158 27l7 107q76 -30 138 -30q102 0 102 61q0 26 -20.5 41t-65.5 29l-35 11q-71 23 -105 61.5t-34 103.5
q0 74 55 117.5t150 43.5q78 0 141 -25zM138 655l213 129l54 -86l-229 -111z" />
    <glyph glyph-name="Scircumflex.sc" horiz-adv-x="484" 
d="M400 531l-8 -106q-65 27 -125 27q-41 0 -62 -11q-28 -12 -28 -48q0 -27 18.5 -40.5t64.5 -28.5l34 -11q77 -25 110 -60.5t33 -97.5q0 -83 -56 -127t-156 -44q-85 0 -158 27l7 107q76 -30 138 -30q102 0 102 61q0 26 -20.5 41t-65.5 29l-35 11q-71 23 -105 61.5t-34 103.5
q0 74 55 117.5t150 43.5q78 0 141 -25zM213 777h69l128 -136l-55 -49l-104 99h-8l-105 -99l-54 49z" />
    <glyph glyph-name="Scaron.sc" horiz-adv-x="484" 
d="M400 531l-8 -106q-65 27 -125 27q-41 0 -62 -11q-28 -12 -28 -48q0 -27 18.5 -40.5t64.5 -28.5l34 -11q77 -25 110 -60.5t33 -97.5q0 -83 -56 -127t-156 -44q-85 0 -158 27l7 107q76 -30 138 -30q102 0 102 61q0 26 -20.5 41t-65.5 29l-35 11q-71 23 -105 61.5t-34 103.5
q0 74 55 117.5t150 43.5q78 0 141 -25zM86 739l54 49l105 -99h8l104 99l55 -49l-128 -136h-69z" />
    <glyph glyph-name="Scedilla.sc" horiz-adv-x="484" 
d="M400 531l-8 -106q-65 27 -125 27q-41 0 -62 -11q-28 -12 -28 -48q0 -27 18.5 -40.5t64.5 -28.5l34 -11q77 -25 110 -60.5t33 -97.5q0 -72 -42.5 -115t-120.5 -53l-10 -47q105 -2 105 -90q0 -51 -33 -78.5t-91 -27.5q-54 0 -99 21l17 59q42 -15 74 -15q53 0 53 36
q0 37 -59 37q-14 0 -44 -4l-8 9l24 98q-76 3 -136 26l7 107q76 -30 138 -30q102 0 102 61q0 26 -20.5 41t-65.5 29l-35 11q-71 23 -105 61.5t-34 103.5q0 74 55 117.5t150 43.5q78 0 141 -25z" />
    <glyph glyph-name="Scommaaccent.sc" horiz-adv-x="484" 
d="M400 531l-8 -106q-65 27 -125 27q-41 0 -62 -11q-28 -12 -28 -48q0 -27 18.5 -40.5t64.5 -28.5l34 -11q77 -25 110 -60.5t33 -97.5q0 -83 -56 -127t-156 -44q-85 0 -158 27l7 107q76 -30 138 -30q102 0 102 61q0 26 -20.5 41t-65.5 29l-35 11q-71 23 -105 61.5t-34 103.5
q0 74 55 117.5t150 43.5q78 0 141 -25zM192 -138v6q0 60 60 60q59 0 59 -65q0 -75 -57 -189l-55 21q30 58 38 105q-45 11 -45 62z" />
    <glyph glyph-name="germandoubles.sc" horiz-adv-x="968" 
d="M400 531l-8 -106q-65 27 -125 27q-41 0 -62 -11q-28 -12 -28 -48q0 -27 18.5 -40.5t64.5 -28.5l34 -11q77 -25 110 -60.5t33 -97.5q0 -83 -56 -127t-156 -44q-85 0 -158 27l7 107q76 -30 138 -30q102 0 102 61q0 26 -20.5 41t-65.5 29l-35 11q-71 23 -105 61.5t-34 103.5
q0 74 55 117.5t150 43.5q78 0 141 -25zM884 531l-8 -106q-65 27 -125 27q-41 0 -62 -11q-28 -12 -28 -48q0 -27 18.5 -40.5t64.5 -28.5l34 -11q77 -25 110 -60.5t33 -97.5q0 -83 -56 -127t-156 -44q-85 0 -158 27l7 107q76 -30 138 -30q102 0 102 61q0 26 -20.5 41t-65.5 29
l-35 11q-71 23 -105 61.5t-34 103.5q0 74 55 117.5t150 43.5q78 0 141 -25z" />
    <glyph glyph-name="Tcaron.sc" horiz-adv-x="465" 
d="M32 540h402l-7 -102h-138v-438h-118v438h-139v102zM69 739l54 49l105 -99h8l104 99l55 -49l-128 -136h-69z" />
    <glyph glyph-name="Tcommaaccent.sc" horiz-adv-x="465" 
d="M32 540h402l-7 -102h-138v-438h-118v438h-139v102zM170 -138v6q0 60 60 60q59 0 59 -65q0 -75 -57 -189l-55 21q30 58 38 105q-45 11 -45 62z" />
    <glyph glyph-name="uni021A.sc" horiz-adv-x="465" 
d="M32 540h402l-7 -102h-138v-438h-118v438h-139v102zM170 -138v6q0 60 60 60q59 0 59 -65q0 -75 -57 -189l-55 21q30 58 38 105q-45 11 -45 62z" />
    <glyph glyph-name="Tbar.sc" horiz-adv-x="465" 
d="M32 540h402l-7 -102h-138v-147h105v-80h-105v-211h-118v211h-104v80h104v147h-139v102z" />
    <glyph glyph-name="Ugrave.sc" horiz-adv-x="588" 
d="M72 540h118v-330q0 -66 23 -94t82 -28t81 27.5t22 94.5v330h118v-337q0 -113 -52.5 -166t-168.5 -53q-117 0 -170 53t-53 166v337zM188 784l213 -129l-38 -68l-230 110z" />
    <glyph glyph-name="Uacute.sc" horiz-adv-x="588" 
d="M72 540h118v-330q0 -66 23 -94t82 -28t81 27.5t22 94.5v330h118v-337q0 -113 -52.5 -166t-168.5 -53q-117 0 -170 53t-53 166v337zM189 655l213 129l54 -86l-229 -111z" />
    <glyph glyph-name="Ucircumflex.sc" horiz-adv-x="588" 
d="M72 540h118v-330q0 -66 23 -94t82 -28t81 27.5t22 94.5v330h118v-337q0 -113 -52.5 -166t-168.5 -53q-117 0 -170 53t-53 166v337zM260 777h69l128 -136l-55 -49l-104 99h-8l-105 -99l-54 49z" />
    <glyph glyph-name="Utilde.sc" horiz-adv-x="588" 
d="M72 540h118v-330q0 -66 23 -94t82 -28t81 27.5t22 94.5v330h118v-337q0 -113 -52.5 -166t-168.5 -53q-117 0 -170 53t-53 166v337zM172 610l-51 52q47 86 113 86q29 0 67 -26t59 -26q35 0 56 45l51 -53q-37 -76 -107 -76q-33 0 -70 24t-54 24q-36 0 -64 -50z" />
    <glyph glyph-name="Udieresis.sc" horiz-adv-x="588" 
d="M72 540h118v-330q0 -66 23 -94t82 -28t81 27.5t22 94.5v330h118v-337q0 -113 -52.5 -166t-168.5 -53q-117 0 -170 53t-53 166v337zM322 677v7q0 63 62 63t62 -63v-7q0 -62 -62 -62t-62 62zM142 677v7q0 63 62 63q61 0 61 -63v-7q0 -62 -61 -62q-62 0 -62 62z" />
    <glyph glyph-name="Umacron.sc" horiz-adv-x="588" 
d="M72 540h118v-330q0 -66 23 -94t82 -28t81 27.5t22 94.5v330h118v-337q0 -113 -52.5 -166t-168.5 -53q-117 0 -170 53t-53 166v337zM148 715h291v-76h-291v76z" />
    <glyph glyph-name="Ubreve.sc" horiz-adv-x="588" 
d="M72 540h118v-330q0 -66 23 -94t82 -28t81 27.5t22 94.5v330h118v-337q0 -113 -52.5 -166t-168.5 -53q-117 0 -170 53t-53 166v337zM137 717l68 34q34 -69 89 -69q57 0 90 69l66 -34q-18 -51 -59 -81.5t-97 -30.5q-112 0 -157 112z" />
    <glyph glyph-name="Uring.sc" horiz-adv-x="588" 
d="M72 540h118v-330q0 -66 23 -94t82 -28t81 27.5t22 94.5v330h118v-337q0 -113 -52.5 -166t-168.5 -53q-117 0 -170 53t-53 166v337zM295 805q43 0 72.5 -30.5t29.5 -73.5t-30.5 -73.5t-73.5 -30.5q-42 0 -72 30.5t-30 73.5t30.5 73.5t73.5 30.5zM294 738q-16 0 -26 -10.5
t-10 -26.5q0 -15 10 -26t25 -11q16 0 26.5 11t10.5 26q0 16 -10 26.5t-26 10.5z" />
    <glyph glyph-name="Uhungarumlaut.sc" horiz-adv-x="588" 
d="M72 540h118v-330q0 -66 23 -94t82 -28t81 27.5t22 94.5v330h118v-337q0 -113 -52.5 -166t-168.5 -53q-117 0 -170 53t-53 166v337zM283 803l77 -56l-163 -169l-60 49zM467 803l77 -56l-163 -169l-59 49z" />
    <glyph glyph-name="Uogonek.sc" horiz-adv-x="588" 
d="M72 540h118v-330q0 -66 23 -94t82 -28t81 27.5t22 94.5v330h118v-337q0 -151 -97 -197q-62 -29 -94.5 -65.5t-32.5 -72.5q0 -40 42 -40q27 0 49 11l11 -60q-37 -19 -83 -19q-52 0 -82 24t-30 66q0 37 22.5 73t60.5 61q-110 3 -160 56t-50 163v337z" />
    <glyph glyph-name="Wgrave.sc" horiz-adv-x="788" 
d="M19 540h126q36 -194 98 -412h3q30 123 58 261q7 35 25 151h132q18 -116 25 -151q25 -112 60 -261h3q50 176 94 412h126q-75 -312 -149 -540h-140q-41 162 -84 373h-2q-34 -173 -83 -373h-141q-92 291 -151 540zM298 784l213 -129l-38 -68l-230 110z" />
    <glyph glyph-name="Wacute.sc" horiz-adv-x="788" 
d="M19 540h126q36 -194 98 -412h3q30 123 58 261q7 35 25 151h132q18 -116 25 -151q25 -112 60 -261h3q50 176 94 412h126q-75 -312 -149 -540h-140q-41 162 -84 373h-2q-34 -173 -83 -373h-141q-92 291 -151 540zM279 655l213 129l54 -86l-229 -111z" />
    <glyph glyph-name="Wcircumflex.sc" horiz-adv-x="788" 
d="M19 540h126q36 -194 98 -412h3q30 123 58 261q7 35 25 151h132q18 -116 25 -151q25 -112 60 -261h3q50 176 94 412h126q-75 -312 -149 -540h-140q-41 162 -84 373h-2q-34 -173 -83 -373h-141q-92 291 -151 540zM362 777h69l128 -136l-55 -49l-104 99h-8l-105 -99l-54 49z
" />
    <glyph glyph-name="Wdieresis.sc" horiz-adv-x="788" 
d="M19 540h126q36 -194 98 -412h3q30 123 58 261q7 35 25 151h132q18 -116 25 -151q25 -112 60 -261h3q50 176 94 412h126q-75 -312 -149 -540h-140q-41 162 -84 373h-2q-34 -173 -83 -373h-141q-92 291 -151 540zM423 677v7q0 63 62 63t62 -63v-7q0 -62 -62 -62t-62 62z
M243 677v7q0 63 62 63q61 0 61 -63v-7q0 -62 -61 -62q-62 0 -62 62z" />
    <glyph glyph-name="Ygrave.sc" horiz-adv-x="488" 
d="M19 540h121q52 -158 103 -261h2q60 121 103 261h121q-59 -174 -167 -367v-173h-118v174q-105 184 -165 366zM136 784l213 -129l-38 -68l-230 110z" />
    <glyph glyph-name="Yacute.sc" horiz-adv-x="488" 
d="M19 540h121q52 -158 103 -261h2q60 121 103 261h121q-59 -174 -167 -367v-173h-118v174q-105 184 -165 366zM146 655l213 129l54 -86l-229 -111z" />
    <glyph glyph-name="Ycircumflex.sc" horiz-adv-x="488" 
d="M19 540h121q52 -158 103 -261h2q60 121 103 261h121q-59 -174 -167 -367v-173h-118v174q-105 184 -165 366zM210 777h69l128 -136l-55 -49l-104 99h-8l-105 -99l-54 49z" />
    <glyph glyph-name="Ydieresis.sc" horiz-adv-x="488" 
d="M19 540h121q52 -158 103 -261h2q60 121 103 261h121q-59 -174 -167 -367v-173h-118v174q-105 184 -165 366zM272 677v7q0 63 62 63t62 -63v-7q0 -62 -62 -62t-62 62zM92 677v7q0 63 62 63q61 0 61 -63v-7q0 -62 -61 -62q-62 0 -62 62z" />
    <glyph glyph-name="Zacute.sc" horiz-adv-x="488" 
d="M58 540h374v-90l-241 -348h244v-102h-378l-6 87l238 351h-231v102zM148 655l213 129l54 -86l-229 -111z" />
    <glyph glyph-name="Zcaron.sc" horiz-adv-x="488" 
d="M58 540h374v-90l-241 -348h244v-102h-378l-6 87l238 351h-231v102zM95 739l54 49l105 -99h8l104 99l55 -49l-128 -136h-69z" />
    <glyph glyph-name="Zdotaccent.sc" horiz-adv-x="488" 
d="M58 540h374v-90l-241 -348h244v-102h-378l-6 87l238 351h-231v102zM186 686q0 29 20.5 49.5t50.5 20.5q28 0 47.5 -20.5t19.5 -49.5q0 -30 -20 -50.5t-49 -20.5t-49 20.5t-20 50.5z" />
    <glyph glyph-name="apple" horiz-adv-x="591" 
d="M229 526h261v-64h-195v-64h195v-196h-261v64h196v67h-196v193zM101 656h389v-64h-324v-527h72v-65h-137v656z" />
    </font>
</defs>
</svg>
