<?xml version="1.0" encoding="utf-8"?>
<!-- Generator: Adobe Illustrator 16.0.0, SVG Export Plug-In . SVG Version: 6.00 Build 0)  -->
<!DOCTYPE svg PUBLIC "-//W3C//DTD SVG 1.1//EN" "http://www.w3.org/Graphics/SVG/1.1/DTD/svg11.dtd">
<svg version="1.1" id="Layer_1" xmlns="http://www.w3.org/2000/svg" xmlns:xlink="http://www.w3.org/1999/xlink" x="0px" y="0px"
	 width="24.001px" height="24.214px" viewBox="0 0 24.001 24.214" enable-background="new 0 0 24.001 24.214" xml:space="preserve">
<g opacity="0.56">
	<g>
		<defs>
			<rect id="SVGID_1_" width="24.001" height="24.214"/>
		</defs>
		<clipPath id="SVGID_2_">
			<use xlink:href="#SVGID_1_"  overflow="visible"/>
		</clipPath>
		<path clip-path="url(#SVGID_2_)" fill="#FFFFFF" d="M2.532,19.761c-0.5-0.218-0.86-0.578-1.078-1.078c-0.219-0.499-0.219-1,0-1.5
			l2.438-5.859v9L2.532,19.761z M22.032,16.058c0.219,0.5,0.219,1.008,0,1.523s-0.578,0.884-1.078,1.102l-7.359,3.047
			c-0.25,0.094-0.516,0.141-0.797,0.141c-0.875,0-1.484-0.405-1.828-1.219l-4.969-12C5.907,8.37,5.86,8.105,5.86,7.854
			c0-0.844,0.406-1.437,1.219-1.781l7.406-3.047c0.281-0.094,0.547-0.141,0.797-0.141c0.844,0,1.438,0.406,1.781,1.219
			L22.032,16.058z M5.86,19.854v-6.328l3.469,8.344H7.876c-0.532,0-1-0.203-1.406-0.609C6.063,20.855,5.86,20.387,5.86,19.854z
			 M7.173,8.581C7.36,8.785,7.595,8.886,7.876,8.886s0.516-0.101,0.703-0.305C8.767,8.378,8.86,8.136,8.86,7.854
			S8.767,7.339,8.579,7.151S8.157,6.87,7.876,6.87S7.36,6.964,7.173,7.151S6.892,7.573,6.892,7.854S6.985,8.378,7.173,8.581z"/>
	</g>
</g>
</svg>
