<?xml version="1.0" encoding="utf-8"?>
<!-- Generator: Adobe Illustrator 16.0.0, SVG Export Plug-In . SVG Version: 6.00 Build 0)  -->
<!DOCTYPE svg PUBLIC "-//W3C//DTD SVG 1.1//EN" "http://www.w3.org/Graphics/SVG/1.1/DTD/svg11.dtd">
<svg version="1.1" id="Layer_1" xmlns="http://www.w3.org/2000/svg" xmlns:xlink="http://www.w3.org/1999/xlink" x="0px" y="0px"
	 width="20.906px" height="18.984px" viewBox="0 0 20.906 18.984" enable-background="new 0 0 20.906 18.984" xml:space="preserve">
<path fill="#ACB8FE" d="M1.242,16.875c-0.5-0.219-0.86-0.578-1.078-1.078c-0.219-0.5-0.219-1,0-1.5l2.438-5.859v9L1.242,16.875z
	 M20.742,13.172c0.219,0.5,0.219,1.008,0,1.523s-0.578,0.883-1.078,1.102l-7.359,3.047c-0.25,0.094-0.516,0.141-0.797,0.141
	c-0.875,0-1.484-0.406-1.828-1.219l-4.969-12C4.617,5.484,4.57,5.219,4.57,4.969c0-0.844,0.406-1.438,1.219-1.781l7.406-3.047
	C13.477,0.047,13.742,0,13.992,0c0.844,0,1.438,0.406,1.781,1.219L20.742,13.172z M4.57,16.969v-6.328l3.469,8.344H6.586
	c-0.532,0-1-0.203-1.406-0.609C4.773,17.969,4.57,17.5,4.57,16.969z M5.883,5.695C6.07,5.898,6.305,6,6.586,6
	s0.516-0.102,0.703-0.305S7.57,5.25,7.57,4.969S7.477,4.453,7.289,4.266S6.867,3.984,6.586,3.984S6.07,4.078,5.883,4.266
	S5.602,4.688,5.602,4.969S5.695,5.492,5.883,5.695z"/>
</svg>
