<?xml version="1.0" encoding="utf-8"?>
<!-- Generator: Adobe Illustrator 16.0.0, SVG Export Plug-In . SVG Version: 6.00 Build 0)  -->
<!DOCTYPE svg PUBLIC "-//W3C//DTD SVG 1.1//EN" "http://www.w3.org/Graphics/SVG/1.1/DTD/svg11.dtd">
<svg version="1.1" id="Layer_1" xmlns="http://www.w3.org/2000/svg" xmlns:xlink="http://www.w3.org/1999/xlink" x="0px" y="0px"
	 width="24px" height="24.214px" viewBox="0 0 24 24.214" enable-background="new 0 0 24 24.214" xml:space="preserve">
<g opacity="0.56">
	<g>
		<defs>
			<rect id="SVGID_1_" width="24" height="24.214"/>
		</defs>
		<clipPath id="SVGID_2_">
			<use xlink:href="#SVGID_1_"  overflow="visible"/>
		</clipPath>
		<path clip-path="url(#SVGID_2_)" fill="#FFFFFF" d="M3.984,6.12v14.016H18v1.969H3.984c-0.532,0-0.992-0.194-1.383-0.586
			c-0.391-0.391-0.586-0.851-0.586-1.383V6.12H3.984z M20.015,2.136c0.531,0,0.992,0.195,1.383,0.586
			c0.391,0.391,0.586,0.852,0.586,1.383v12c0,0.532-0.195,1.001-0.586,1.406c-0.391,0.406-0.852,0.609-1.383,0.609h-12
			c-0.532,0-1-0.203-1.406-0.609C6.203,17.105,6,16.637,6,16.104v-12c0-0.531,0.203-0.992,0.609-1.383
			c0.406-0.391,0.875-0.586,1.406-0.586H20.015z M18.984,7.104V5.136H9v1.969H18.984z M18.984,11.136V9.12H9v2.016H18.984z
			 M15,15.12v-2.016H9v2.016H15z"/>
	</g>
</g>
</svg>
