<?xml version="1.0" encoding="utf-8"?>
<!-- Generator: Adobe Illustrator 16.0.0, SVG Export Plug-In . SVG Version: 6.00 Build 0)  -->
<!DOCTYPE svg PUBLIC "-//W3C//DTD SVG 1.1//EN" "http://www.w3.org/Graphics/SVG/1.1/DTD/svg11.dtd">
<svg version="1.1" id="Layer_1" xmlns="http://www.w3.org/2000/svg" xmlns:xlink="http://www.w3.org/1999/xlink" x="0px" y="0px"
	 width="17.453px" height="17.479px" viewBox="0 0 17.453 17.479" enable-background="new 0 0 17.453 17.479" xml:space="preserve">
<g opacity="0.58">
	<g>
		<g>
			<defs>
				<rect id="SVGID_1_" x="-3.007" y="-3.126" width="24" height="24.214"/>
			</defs>
			<clipPath id="SVGID_2_">
				<use xlink:href="#SVGID_1_"  overflow="visible"/>
			</clipPath>
			<path clip-path="url(#SVGID_2_)" fill="rgba(0,0,0,.56)" d="M12.509,11.01l4.97,4.969l-1.5,1.5l-4.97-4.969v-0.797l-0.28-0.281
				c-1.188,1.031-2.594,1.547-4.219,1.547c-1.813,0-3.352-0.625-4.617-1.875C0.627,9.854-0.006,8.323-0.006,6.51
				c0-1.812,0.633-3.352,1.898-4.617C3.157,0.628,4.697-0.006,6.51-0.006c1.812,0,3.344,0.633,4.594,1.897
				c1.249,1.267,1.875,2.806,1.875,4.617c0,1.625-0.517,3.031-1.547,4.219l0.28,0.281L12.509,11.01L12.509,11.01z M3.322,9.698
				C4.197,10.573,5.26,11.01,6.51,11.01s2.313-0.438,3.189-1.313c0.872-0.874,1.311-1.938,1.311-3.188s-0.438-2.313-1.313-3.188
				C8.822,2.448,7.759,2.01,6.51,2.01c-1.25,0-2.313,0.438-3.188,1.313C2.447,4.198,2.01,5.26,2.01,6.51S2.447,8.823,3.322,9.698z"
				/>
		</g>
	</g>
</g>
</svg>
