<?xml version="1.0" encoding="utf-8"?>
<!-- Generator: Adobe Illustrator 16.0.0, SVG Export Plug-In . SVG Version: 6.00 Build 0)  -->
<!DOCTYPE svg PUBLIC "-//W3C//DTD SVG 1.1//EN" "http://www.w3.org/Graphics/SVG/1.1/DTD/svg11.dtd">
<svg version="1.1" id="Layer_1" xmlns="http://www.w3.org/2000/svg" xmlns:xlink="http://www.w3.org/1999/xlink" x="0px" y="0px"
	 width="24px" height="24.214px" viewBox="0 0 24 24.214" enable-background="new 0 0 24 24.214" xml:space="preserve">
<g opacity="0.56">
	<g>
		<defs>
			<rect id="SVGID_1_" width="24" height="24.214"/>
		</defs>
		<clipPath id="SVGID_2_">
			<use xlink:href="#SVGID_1_"  overflow="visible"/>
		</clipPath>
		<path clip-path="url(#SVGID_2_)" fill="#FFFFFF" d="M20.016,19.714l-3.844-3.844c0.563-0.874,0.844-1.797,0.844-2.766
			c0-1.375-0.492-2.547-1.477-3.516C14.555,8.621,13.375,8.136,12,8.136c-1.376,0-2.555,0.485-3.539,1.453
			c-0.984,0.969-1.477,2.141-1.477,3.516c0,1.376,0.492,2.555,1.477,3.539S10.624,18.12,12,18.12c0.968,0,1.891-0.281,2.766-0.844
			l4.406,4.453c-0.345,0.251-0.734,0.375-1.172,0.375H6c-0.532,0-1.001-0.194-1.406-0.586c-0.406-0.391-0.609-0.851-0.609-1.383
			L4.031,4.104c0-0.531,0.194-0.992,0.586-1.383C5.008,2.331,5.468,2.136,6,2.136h8.016l6,6V19.714z M9.891,15.214
			C9.297,14.621,9,13.918,9,13.104c0-0.813,0.297-1.516,0.891-2.109c0.593-0.593,1.296-0.891,2.109-0.891
			c0.813,0,1.516,0.297,2.109,0.891C14.702,11.589,15,12.292,15,13.104c0,0.813-0.298,1.517-0.891,2.109
			c-0.594,0.594-1.297,0.891-2.109,0.891C11.187,16.104,10.483,15.808,9.891,15.214z"/>
	</g>
</g>
</svg>
