<?xml version="1.0" encoding="utf-8"?>
<!-- Generator: Adobe Illustrator 16.0.0, SVG Export Plug-In . SVG Version: 6.00 Build 0)  -->
<!DOCTYPE svg PUBLIC "-//W3C//DTD SVG 1.1//EN" "http://www.w3.org/Graphics/SVG/1.1/DTD/svg11.dtd">
<svg version="1.1" id="Layer_1" xmlns="http://www.w3.org/2000/svg" xmlns:xlink="http://www.w3.org/1999/xlink" x="0px" y="0px"
	 width="19.968px" height="16.031px" viewBox="0 0 19.968 16.031" enable-background="new 0 0 19.968 16.031" xml:space="preserve">
<path fill="#495FAB" d="M18,0c0.563,0,1.031,0.195,1.406,0.586c0.375,0.391,0.563,0.867,0.563,1.43v12
	c0,0.563-0.188,1.039-0.563,1.43c-0.375,0.392-0.844,0.586-1.406,0.586H1.969c-0.563,0-1.031-0.194-1.406-0.586
	C0.188,15.055,0,14.578,0,14.016v-12c0-0.563,0.188-1.039,0.563-1.43C0.938,0.195,1.406,0,1.969,0H18z M6.469,11.016v-6H5.25v3.516
	L2.719,5.016H1.5v6h1.219V7.5l2.578,3.516H6.469z M11.484,6.281V5.016H7.5v6h3.984V9.75H9V8.672h2.484V7.406H9V6.281H11.484z
	 M18.468,10.031V5.016H17.25v4.5h-1.125V6h-1.266v3.516h-1.125v-4.5h-1.266v5.016c0,0.281,0.102,0.516,0.305,0.703
	s0.445,0.281,0.727,0.281h3.984c0.281,0,0.516-0.094,0.703-0.281S18.468,10.313,18.468,10.031z"/>
</svg>
