<?xml version="1.0" encoding="utf-8"?>
<!-- Generator: Adobe Illustrator 16.0.0, SVG Export Plug-In . SVG Version: 6.00 Build 0)  -->
<!DOCTYPE svg PUBLIC "-//W3C//DTD SVG 1.1//EN" "http://www.w3.org/Graphics/SVG/1.1/DTD/svg11.dtd">
<svg version="1.1" id="Layer_1" xmlns="http://www.w3.org/2000/svg" xmlns:xlink="http://www.w3.org/1999/xlink" x="0px" y="0px"
	 width="24px" height="24.214px" viewBox="0 0 24 24.214" enable-background="new 0 0 24 24.214" xml:space="preserve">
<g opacity="0.56">
	<g>
		<defs>
			<rect id="SVGID_1_" width="24" height="24.214"/>
		</defs>
		<clipPath id="SVGID_2_">
			<use xlink:href="#SVGID_1_"  overflow="visible"/>
		</clipPath>
		<path clip-path="url(#SVGID_2_)" fill="#FFFFFF" d="M9,13.104c0.687,0,1.484,0.094,2.391,0.281C9.797,14.261,9,15.418,9,16.854
			v2.25H2.016V16.62c0-0.719,0.429-1.359,1.289-1.922c0.859-0.563,1.805-0.968,2.836-1.219C7.172,13.229,8.125,13.104,9,13.104z
			 M11.11,10.245C10.516,10.839,9.813,11.136,9,11.136c-0.813,0-1.516-0.297-2.109-0.891C6.297,9.652,6,8.949,6,8.136
			C6,7.323,6.297,6.62,6.891,6.026C7.484,5.433,8.188,5.136,9,5.136c0.813,0,1.516,0.297,2.109,0.891C11.703,6.62,12,7.323,12,8.136
			C12,8.949,11.703,9.652,11.11,10.245z M11.016,16.854c0-0.813,0.625-1.469,1.875-1.969c1.25-0.499,2.453-0.75,3.609-0.75
			s2.359,0.251,3.609,0.75c1.25,0.5,1.875,1.156,1.875,1.969v2.25H11.016V16.854L11.016,16.854z M18.258,11.394
			c-0.484,0.485-1.07,0.727-1.758,0.727s-1.273-0.242-1.758-0.727c-0.484-0.484-0.727-1.07-0.727-1.758
			c0-0.687,0.242-1.281,0.727-1.781c0.484-0.5,1.07-0.75,1.758-0.75s1.273,0.25,1.758,0.75c0.484,0.5,0.727,1.094,0.727,1.781
			C18.985,10.323,18.743,10.909,18.258,11.394z"/>
	</g>
</g>
</svg>
