<?xml version="1.0" encoding="utf-8"?>
<!-- Generator: Adobe Illustrator 16.0.0, SVG Export Plug-In . SVG Version: 6.00 Build 0)  -->
<!DOCTYPE svg PUBLIC "-//W3C//DTD SVG 1.1//EN" "http://www.w3.org/Graphics/SVG/1.1/DTD/svg11.dtd">
<svg version="1.1" id="Layer_1" xmlns="http://www.w3.org/2000/svg" xmlns:xlink="http://www.w3.org/1999/xlink" x="0px" y="0px"
	 width="24px" height="24.214px" viewBox="0 0 24 24.214" enable-background="new 0 0 24 24.214" xml:space="preserve">
<g opacity="0.56">
	<g>
		<defs>
			<rect id="SVGID_1_" width="24" height="24.214"/>
		</defs>
		<clipPath id="SVGID_2_">
			<use xlink:href="#SVGID_1_"  overflow="visible"/>
		</clipPath>
		<path clip-path="url(#SVGID_2_)" fill="#FFFFFF" d="M0.984,12.12c0.875-2.25,2.313-4.062,4.313-5.438
			C7.297,5.308,9.531,4.62,12,4.62s4.703,0.688,6.703,2.063c2,1.375,3.438,3.188,4.313,5.438c-0.875,2.25-2.313,4.063-4.313,5.438
			c-2,1.376-4.234,2.063-6.703,2.063s-4.703-0.687-6.703-2.063C3.297,16.183,1.859,14.37,0.984,12.12L0.984,12.12z M8.461,15.659
			c0.984,0.984,2.164,1.477,3.539,1.477s2.555-0.492,3.539-1.477s1.477-2.163,1.477-3.539c0-1.375-0.492-2.555-1.477-3.539
			S13.375,7.104,12,7.104S9.445,7.597,8.461,8.581s-1.477,2.164-1.477,3.539C6.984,13.496,7.477,14.675,8.461,15.659z M9.891,10.011
			C10.484,9.417,11.188,9.12,12,9.12s1.516,0.297,2.109,0.891C14.703,10.604,15,11.308,15,12.12c0,0.813-0.297,1.517-0.891,2.109
			C13.516,14.823,12.813,15.12,12,15.12s-1.516-0.297-2.109-0.891C9.297,13.637,9,12.933,9,12.12
			C9,11.308,9.297,10.604,9.891,10.011z"/>
	</g>
</g>
</svg>
