<?xml version="1.0" encoding="utf-8"?>
<!-- Generator: Adobe Illustrator 16.0.0, SVG Export Plug-In . SVG Version: 6.00 Build 0)  -->
<!DOCTYPE svg PUBLIC "-//W3C//DTD SVG 1.1//EN" "http://www.w3.org/Graphics/SVG/1.1/DTD/svg11.dtd">
<svg version="1.1" id="Layer_1" xmlns="http://www.w3.org/2000/svg" xmlns:xlink="http://www.w3.org/1999/xlink" x="0px" y="0px"
	 width="30px" height="30px" viewBox="0 0 30 30" enable-background="new 0 0 30 30" xml:space="preserve">
<g opacity="0.56">
	<g>
		<defs>
			<rect id="SVGID_1_" x="3" y="3" width="24" height="24.214"/>
		</defs>
		<clipPath id="SVGID_2_">
			<use xlink:href="#SVGID_1_"  overflow="visible"/>
		</clipPath>
		<path clip-path="url(#SVGID_2_)" fill="#FFFFFF" d="M6.984,21.12c0-1.188,0.914-2.148,2.742-2.883
			c1.828-0.733,3.586-1.102,5.273-1.102s3.445,0.368,5.273,1.102c1.828,0.734,2.742,1.695,2.742,2.883v2.016H6.984V21.12
			L6.984,21.12z M17.813,13.948C17.031,14.729,16.094,15.12,15,15.12s-2.031-0.391-2.813-1.172
			c-0.781-0.781-1.172-1.718-1.172-2.813c0-1.094,0.391-2.039,1.172-2.836S13.906,7.104,15,7.104s2.031,0.398,2.813,1.195
			s1.172,1.742,1.172,2.836C18.984,12.23,18.594,13.167,17.813,13.948z"/>
	</g>
</g>
</svg>
