<svg xmlns="http://www.w3.org/2000/svg" width="56" height="32" viewBox="0 0 56 32">
    <path fill="#242528" fill-rule="evenodd" d="M4.786 2l.071 17.015h.08l7.215-9.165 4.545-.02-6.477 7.627 7.45 11.845-4.766.019-5.059-9.077-2.968 3.503.023 5.608-3.786.015L1 2.016 4.786 2zM21.09 9.812l3.787-.016.08 19.476-3.785.015-.082-19.475zm9.1-.037l3.786-.017.01 2.065h.072c1.24-1.544 2.87-2.32 4.892-2.33 1.562-.005 2.992.558 4.294 1.69 1.286 1.147 1.965 2.832 2.035 5.058l.055 12.946-3.788.016-.047-11.611c-.005-1.364-.362-2.403-1.067-3.114-.694-.723-1.587-1.083-2.678-1.078-1.09.005-1.986.372-2.685 1.1-.712.717-1.066 1.759-1.06 3.124l.048 11.61-3.785.016-.082-19.475zm17.947 15.499l3.787-.016.016 3.9-3.786.017-.017-3.901z"/>
</svg>
