<svg xmlns="http://www.w3.org/2000/svg" width="240" height="48" viewBox="0 0 240 48">
    <g fill="#242528" fill-rule="evenodd">
        <path d="M31.19 14.86l3.785-.016.01 2.064h.071c1.24-1.544 2.872-2.32 4.893-2.328 1.561-.007 2.992.556 4.293 1.689 1.287 1.146 1.967 2.83 2.036 5.057l.055 12.947-3.788.015-.047-11.61c-.006-1.365-.362-2.403-1.068-3.114-.693-.724-1.586-1.083-2.677-1.08-1.09.006-1.986.373-2.685 1.103-.713.716-1.066 1.757-1.06 3.122l.048 11.61-3.786.016-.08-19.475zm17.946 15.5l3.786-.017.017 3.901-3.787.015-.016-3.9zM2 7.101l3.787-.016.07 17.016.08-.002 7.215-9.164 4.545-.02-6.476 7.626 7.449 11.846-4.766.019-5.059-9.076-2.968 3.5.025 5.609-3.788.017L2 7.102zm20.09 7.796l3.785-.016.081 19.475-3.785.016-.081-19.475zM74.509 18.07c0 .88-.51 1.32-1.529 1.32-.516 0-.953-.147-1.312-.443a9.231 9.231 0 0 1-.83-.755c-.195-.207-.4-.4-.613-.575-.906-.743-2.01-.824-3.312-.246-1.302.579-2.305 1.812-3.01 3.699a8.85 8.85 0 0 0-.585 3.114c0 2.214.503 4.022 1.51 5.425 1.006 1.403 2.547 2.104 4.623 2.104 1.548 0 2.938-.692 4.17-2.076.378-.415.604-.623.68-.623.075 0 .157.038.245.114.088.075.132.185.132.33 0 .145-.037.255-.113.33-1.925 2.68-4.346 4.02-7.265 4.02-2.114 0-3.847-.787-5.199-2.36-1.352-1.572-2.029-3.37-2.029-5.396.013-3.75.919-6.448 2.718-8.096 1.585-1.447 3.843-2.17 6.774-2.17 1.812 0 3.013.182 3.605.547.591.365 1.006.824 1.245 1.378a.803.803 0 0 1 .095.358zm5.538.367c1.755-1.78 3.86-2.67 6.312-2.67 2.454 0 4.586.865 6.398 2.595 1.811 1.73 2.717 3.865 2.717 6.407 0 2.54-.859 4.683-2.576 6.425s-3.872 2.614-6.463 2.614c-2.592 0-4.743-.88-6.454-2.642-1.71-1.762-2.566-3.878-2.566-6.35 0-2.472.877-4.598 2.632-6.379zm2.066 11.238c1.233 2.076 2.913 3.114 5.039 3.114 1.648 0 2.91-.66 3.784-1.982.874-1.32 1.311-2.944 1.311-4.868 0-1.925-.613-3.9-1.84-5.926-1.226-2.025-2.878-3.038-4.953-3.038-1.523 0-2.72.657-3.595 1.972s-1.312 2.982-1.312 5c0 2.02.522 3.929 1.566 5.728zm44.988-13.36c.139.037.208.125.208.264 0 .138-.019.239-.057.302-.037.062-.314.132-.83.207-.516.076-.884.223-1.104.444-.22.22-.415.468-.585.745-.17.277-.317.563-.443.859a22.09 22.09 0 0 1-.359.802L118.78 33.26c-.15.365-.289.548-.415.548h-1.49c-.126 0-.265-.195-.416-.585L112.27 21.88l-4.397 11.38c-.15.364-.29.547-.415.547h-1.49c-.127 0-.265-.195-.416-.585l-5-13.53c-.466-1.271-1.265-2.089-2.397-2.454a1.858 1.858 0 0 0-.321-.056c-.529-.05-.793-.208-.793-.472s.151-.397.453-.397h8.398c.1 0 .15.098.15.293 0 .195-.069.324-.207.387-.226.088-.616.126-1.17.113-.918-.025-1.377.352-1.377 1.132l.037.453 3.831 10.473c.252.642.503.623.755-.056l1.576-3.963c1.025-2.579 1.682-4.397 1.972-5.454-.466-1.27-1.265-2.088-2.397-2.453a1.858 1.858 0 0 0-.32-.056c-.53-.05-.793-.208-.793-.472s.15-.397.452-.397h8.398c.1 0 .151.098.151.293 0 .195-.07.324-.208.387-.226.088-.616.126-1.17.113-.918-.025-1.377.352-1.377 1.132l.038.453 3.83 10.473c.252.642.504.623.755-.056l.49-1.227c1.548-3.875 2.463-6.268 2.747-7.18.283-.912.424-1.538.424-1.878 0-.34-.182-.695-.547-1.066-.365-.371-.856-.557-1.472-.557-.617 0-.925-.188-.925-.566 0-.214.139-.32.415-.32h7.152zm4.822 2.122c1.755-1.78 3.859-2.67 6.312-2.67 2.453 0 4.586.865 6.397 2.595 1.812 1.73 2.718 3.865 2.718 6.407 0 2.54-.859 4.683-2.576 6.425s-3.872 2.614-6.463 2.614c-2.592 0-4.743-.88-6.454-2.642-1.711-1.762-2.567-3.878-2.567-6.35 0-2.472.878-4.598 2.633-6.379zm2.066 11.238c1.233 2.076 2.913 3.114 5.039 3.114 1.648 0 2.909-.66 3.783-1.982.875-1.32 1.312-2.944 1.312-4.868 0-1.925-.613-3.9-1.84-5.926-1.227-2.025-2.878-3.038-4.954-3.038-1.522 0-2.72.657-3.594 1.972-.875 1.315-1.312 2.982-1.312 5 0 2.02.522 3.929 1.566 5.728zm27.57-9.907c-.15-.025-.37-.107-.66-.246-1.044-.478-1.862-.717-2.453-.717-.591 0-1.211.368-1.859 1.104-.648.736-.972 1.4-.972 1.991v8.53c0 .943.547 1.572 1.642 1.887.478.126.925.217 1.34.274.415.056.682.11.802.16s.18.148.18.292c0 .145-.064.23-.19.255h-9.454c-.126-.025-.189-.113-.189-.264 0-.226.296-.377.887-.453 1.359-.201 2.038-.918 2.038-2.151v-9.983c0-.528-.289-.893-.868-1.094a5.864 5.864 0 0 0-.811-.217 7.826 7.826 0 0 1-.689-.16c-.17-.051-.277-.098-.32-.142-.045-.044-.067-.139-.067-.283 0-.145.095-.268.283-.368l4.812-2.265c.151-.075.246-.113.283-.113.214 0 .321.15.321.453v3.057c0 .15.038.226.113.226.101 0 .359-.295.774-.887 1.195-1.673 2.183-2.51 2.963-2.51.44 0 1.116.177 2.028.529.913.352 1.369.648 1.369.887 0 .29-.145.73-.434 1.32-.29.592-.58.888-.868.888zm8.228 4.491c-.15 0-.226.308-.226.925v5.246c0 1.233.68 1.95 2.038 2.151.591.076.887.214.887.415 0 .202-.063.302-.189.302h-8.416c-.126-.025-.19-.113-.19-.264 0-.226.297-.377.888-.453 1.359-.201 2.038-.918 2.038-2.151V6.898c0-.528-.29-.893-.868-1.095a5.863 5.863 0 0 0-.812-.217 7.826 7.826 0 0 1-.688-.16c-.17-.05-.277-.098-.321-.142-.044-.044-.066-.138-.066-.283 0-.144.094-.267.283-.368l4.812-2.264c.15-.076.245-.113.283-.113.214 0 .32.15.32.453v18.833c.101.364.233.578.397.641.164.063.34.095.528.095.365 0 .966-.287 1.803-.859a14.315 14.315 0 0 0 2.274-1.925c.679-.71 1.019-1.201 1.019-1.472 0-.27-.12-.44-.359-.51a4.667 4.667 0 0 0-.802-.15 4.667 4.667 0 0 1-.802-.151c-.24-.07-.359-.236-.359-.5s.258-.397.774-.397h7.19c.44 0 .66.145.66.434 0 .151-.144.271-.434.359-.289.088-.849.223-1.68.406-.83.182-1.49.468-1.98.858l-5.416 4.227c0 .164.119.365.358.604l7.756 8.171c.503.516 1.019.853 1.547 1.01.529.157.881.261 1.057.311.176.05.264.139.264.264 0 .227-.1.34-.302.34h-8.284c-.126 0-.189-.075-.189-.226 0-.227.158-.371.472-.434.944-.176 1.415-.497 1.415-.963 0-.138-.094-.32-.283-.547a20.221 20.221 0 0 1-.528-.66l-5.831-6.171c0-.013-.006-.025-.019-.038h-.019zm15.078 9.04c-.126-.026-.189-.114-.189-.265 0-.226.296-.377.887-.453 1.359-.201 2.038-.918 2.038-2.151v-9.983c0-.528-.29-.893-.868-1.094a5.864 5.864 0 0 0-.811-.217 7.826 7.826 0 0 1-.689-.16c-.17-.051-.277-.098-.32-.142-.045-.044-.067-.139-.067-.283 0-.145.094-.268.283-.368l4.812-2.265c.151-.075.246-.113.283-.113.214 0 .321.15.321.453V30.43c0 1.233.68 1.95 2.038 2.151.591.076.887.208.887.396 0 .19-.063.296-.189.321h-8.416zm2.557-23.287c-.396-.327-.594-.784-.594-1.369s.188-1.047.566-1.387c.377-.34.827-.509 1.349-.509s.962.201 1.32.604c.36.402.539.836.539 1.302 0 .465-.17.89-.51 1.274a1.65 1.65 0 0 1-1.292.575 2.1 2.1 0 0 1-1.378-.49zm22.164 17.342l-.038-3.982c0-1.623-.138-2.761-.415-3.415-.277-.655-.63-1.148-1.057-1.482-.428-.333-1.003-.5-1.727-.5-.723 0-2.255.566-4.595 1.698-.314.19-.478.365-.49.529v10.152c0 1.271.679 2 2.038 2.19.591.087.887.229.887.424 0 .195-.063.305-.189.33h-8.416c-.126-.025-.19-.113-.19-.264 0-.24.297-.403.888-.49 1.359-.19 2.038-.919 2.038-2.19V19.522c0-.528-.29-.893-.868-1.094a5.864 5.864 0 0 0-.812-.217 7.826 7.826 0 0 1-.688-.16c-.17-.05-.277-.098-.321-.142-.044-.044-.066-.138-.066-.283 0-.145.094-.267.283-.368l4.812-2.265c.15-.075.245-.113.283-.113.214 0 .32.151.32.453v2.944c.038.126.089.189.152.189.075 0 .346-.114.811-.34 1.082-.54 2.17-1.063 3.265-1.566 1.094-.503 2-.755 2.717-.755 2.906 0 4.36 2.648 4.36 7.945l-.17 5.51v1.094c0 .982.49 1.623 1.471 1.925.416.139.815.236 1.199.293.383.056.635.11.755.16.119.05.179.151.179.302 0 .15-.063.239-.189.264h-9.096c-.125-.025-.188-.113-.188-.264 0-.24.295-.403.887-.49 1.346-.19 2.019-.97 2.019-2.34.1-.63.15-1.58.15-2.85zm22.248-9.737l5.058-.227c.29 0 .478.032.566.094.088.063.182.28.283.651.1.372.15.72.15 1.048 0 .327-.03.516-.093.566-.063.05-.19.075-.378.075h-4.19c.076.139.158.283.246.434.088.151.201.403.34.755.138.353.207.897.207 1.633s-.179 1.503-.537 2.302a6.259 6.259 0 0 1-1.576 2.123c-1.535 1.384-3.523 2.076-5.963 2.076-.642 0-1.346-.12-2.114-.359-.189.201-.44.387-.755.557-.314.17-.622.343-.924.519-.755.427-1.133.855-1.133 1.283 0 1.07 1.774 1.616 5.322 1.642 3.548.025 5.878.141 6.992.349 1.113.207 1.978.62 2.594 1.236.97.969 1.453 2.076 1.453 3.321 0 1.07-.459 2.17-1.377 3.302-1.598 2-4.038 3.334-7.322 4.001-1.17.24-2.41.359-3.718.359-2.377 0-4.183-.431-5.415-1.293-1.233-.862-1.85-1.903-1.85-3.123 0-.667.157-1.217.472-1.651a6.278 6.278 0 0 1 1.198-1.227 49.554 49.554 0 0 1 1.595-1.208 8.87 8.87 0 0 0 1.66-1.613c-1.207-.1-2.242-.484-3.104-1.151-.862-.667-1.292-1.321-1.292-1.963 0-.641.17-1.116.51-1.425.339-.308.754-.572 1.245-.792.49-.22 1.006-.425 1.547-.613a5.188 5.188 0 0 0 1.415-.736c-1.409-.554-2.497-1.318-3.264-2.293-.768-.975-1.152-2.041-1.152-3.199 0-2.151.784-3.906 2.35-5.265 1.566-1.358 3.456-2.038 5.67-2.038 2.215 0 3.976.617 5.284 1.85zm-10.982 20.606c-.19.328-.283.74-.283 1.236 0 .497.179 1.02.537 1.567.359.547.846 1.04 1.463 1.481 1.359 1.007 2.994 1.51 4.906 1.51a8.717 8.717 0 0 0 5.2-1.67c1.553-1.114 2.33-2.334 2.33-3.661s-.642-2.218-1.925-2.67c-.604-.202-2.158-.328-4.661-.378-2.504-.05-4.127-.12-4.869-.207-.327.377-.664.71-1.01 1-.345.29-.666.578-.962.868a4.31 4.31 0 0 0-.726.924zm8.746-19.918c-.887-1.113-2.06-1.67-3.52-1.67-1.886 0-3.22.887-4 2.661-.302.68-.453 1.46-.453 2.34 0 1.799.371 3.296 1.114 4.491.905 1.434 2.094 2.152 3.566 2.152s2.61-.497 3.416-1.491c.805-.994 1.208-2.378 1.208-4.152s-.444-3.217-1.33-4.33z"/>
    </g>
</svg>
