<svg xmlns="http://www.w3.org/2000/svg" width="49" height="40" viewBox="0 0 49 40">
    <path fill="#231F20" fill-rule="evenodd" d="M0 35.463A28.356 28.356 0 0 0 15.41 40c18.491 0 28.603-15.387 28.603-28.731 0-.438-.01-.874-.03-1.308A20.46 20.46 0 0 0 49 4.734a20.018 20.018 0 0 1-5.774 1.591 10.122 10.122 0 0 0 4.42-5.587 20.066 20.066 0 0 1-6.384 2.45A10.016 10.016 0 0 0 33.925 0c-5.552 0-10.053 4.522-10.053 10.097 0 .792.089 1.563.26 2.302-8.355-.422-15.762-4.441-20.72-10.551A10.088 10.088 0 0 0 2.05 6.925c0 3.503 1.774 6.594 4.472 8.405a9.983 9.983 0 0 1-4.553-1.263l-.001.127c0 4.893 3.465 8.974 8.064 9.902a10.048 10.048 0 0 1-4.54.172c1.28 4.013 4.992 6.932 9.39 7.013A20.112 20.112 0 0 1 2.4 35.604c-.812 0-1.613-.047-2.399-.14"/>
</svg>
