<?xml version="1.0" encoding="UTF-8"?>
<!-- Generator: Adobe Illustrator 19.0.0, SVG Export Plug-In . SVG Version: 6.00 Build 0)  -->
<svg version="1.1" id="Layer_1" xmlns="http://www.w3.org/2000/svg" xmlns:xlink="http://www.w3.org/1999/xlink" x="0px" y="0px" width="16px" height="16px" viewBox="0 0 16 16" enable-background="new 0 0 16 16" xml:space="preserve">
<g id="XMLID_2_">
	<g id="XMLID_55_">
		<path id="XMLID_56_" fill-rule="evenodd" clip-rule="evenodd" fill="#B6B6B6" d="M8,0C3.6,0,0,3.6,0,8c0,4.4,3.6,8,8,8    c4.4,0,8-3.6,8-8C16,3.6,12.4,0,8,0z M8,14c-3.3,0-6-2.7-6-6c0-3.3,2.7-6,6-6c3.3,0,6,2.7,6,6C14,11.3,11.3,14,8,14z M8,6.3    c0.7,0,1.2-0.5,1.2-1.1C9.2,4.5,8.7,4,8,4C7.3,4,6.8,4.5,6.8,5.1C6.8,5.7,7.3,6.3,8,6.3z M9.8,10.9H8.9V7.2C8.9,7,8.9,7,8.7,7H6.2    C6,7,6,7,6,7.2V8c0,0.1,0,0.2,0.2,0.2h0.9v2.7H6.2C6,10.9,6,10.9,6,11v0.8C6,12,6,12,6.2,12h3.6c0.2,0,0.2,0,0.2-0.2V11    C10,10.9,10,10.9,9.8,10.9z"/>
	</g>
</g>
</svg>