<svg xmlns="http://www.w3.org/2000/svg" width="19" height="21" viewBox="0 0 19 21" xmlns:xlink="http://www.w3.org/1999/xlink">
  <defs>
    <polygon id="a" points="9.491 21 .002 21 .002 .004 9.491 .004 18.979 .004 18.979 21"/>
  </defs>
  <g fill="none" fill-rule="evenodd">
    <mask id="b" fill="white">
      <use xlink:href="#a"/>
    </mask>
    <path fill="#0A0A08" d="M17.8026362,15.5925 C17.1946362,16.6644023 15.7415,17.128125 13.9045638,17.0406387 C14.3055851,16.0869023 14.6160532,14.9931387 14.8230319,13.7987637 C15.663883,13.111875 16.4357277,12.3418887 17.1170191,11.4931523 C18.0915574,13.04625 18.4063511,14.5337637 17.8026362,15.5925 Z M9.48900426,20.1294023 C8.33768511,20.1294023 7.26398298,19.24125 6.43174255,17.7975 C7.40195532,17.6356523 8.43256383,17.3425137 9.48900426,16.9269023 C10.5454447,17.3425137 11.5760532,17.6356523 12.546266,17.7975 C11.7140255,19.24125 10.6403234,20.1294023 9.48900426,20.1294023 Z M1.17537234,15.5925 C0.571657447,14.5337637 0.886451064,13.04625 1.86098936,11.4931523 C2.54228085,12.3418887 3.31412553,13.1162637 4.1549766,13.7987637 C4.35767021,14.9931387 4.6724234,16.0825137 5.07344468,17.0406387 C3.23650851,17.1325137 1.78337234,16.6644023 1.17537234,15.5925 Z M1.17537234,5.85375 C1.74884894,4.84751367 3.07266383,4.33563867 4.90527447,4.39252734 C4.50857872,5.46438867 4.23259362,6.58001367 4.07735957,7.7175 C3.26670638,8.386875 2.52073404,9.135 1.86098936,9.95752734 C0.886451064,8.4 0.571657447,6.91252734 1.17537234,5.85375 Z M9.48900426,0.879375 C10.7438128,0.879375 11.9080681,1.93376367 12.7661809,3.6225 C11.6450191,3.79751367 10.5411596,4.095 9.48467872,4.51938867 C8.4282383,4.09938867 7.32866383,3.80190234 6.20754255,3.63127734 C7.06561489,1.93815234 8.22987021,0.879375 9.48900426,0.879375 Z M15.0386213,9.016875 C15.5992021,9.541875 16.1166489,10.1106387 16.5866362,10.723125 C16.1079979,11.3487773 15.5733298,11.930625 14.9954872,12.4644023 C15.055883,11.8300137 15.090366,11.1737637 15.090366,10.5043887 C15.0946915,10.00125 15.0774298,9.5025 15.0386213,9.016875 Z M10.6748064,5.03565234 C11.4811745,4.76876367 12.3134149,4.580625 13.154266,4.47127734 C13.4690191,5.263125 13.7105213,6.08565234 13.8786915,6.92126367 C13.3698553,6.55376367 12.8265362,6.19938867 12.2573447,5.86252734 C11.7312872,5.55626367 11.2051894,5.28502734 10.6748064,5.03565234 Z M5.83239362,4.45815234 C6.67752979,4.5675 7.50977021,4.76002734 8.3204234,5.026875 C7.79004043,5.27625 7.25965745,5.551875 6.72498936,5.86252734 C6.15147234,6.19938867 5.61247872,6.55376367 5.10364255,6.92126367 C5.26748723,6.08126367 5.51327447,5.25438867 5.83239362,4.45815234 Z M3.97819574,12.4644023 C3.40039362,11.930625 2.87001064,11.3487773 2.39137234,10.723125 C2.86135957,10.1150273 3.37880638,9.541875 3.93938723,9.02126367 C3.90490426,9.50688867 3.88331702,10.00125 3.88331702,10.5043887 C3.88331702,11.1781523 3.91784043,11.8300137 3.97819574,12.4644023 Z M8.30320213,16.4106387 C7.55290426,16.655625 6.78101915,16.839375 6.00056383,16.9531523 C5.6642234,16.19625 5.40117447,15.4131387 5.21145745,14.608125 C5.69009574,14.9450273 6.19028085,15.2731523 6.72066383,15.5837637 C7.25104681,15.894375 7.77710426,16.1612637 8.30320213,16.4106387 Z M13.762266,14.608125 C13.5725085,15.4131387 13.3095,16.2006387 12.9731596,16.9531523 C12.1926638,16.839375 11.4208191,16.655625 10.6705213,16.4106387 C11.1965787,16.1612637 11.7226362,15.8900273 12.2530596,15.5837637 C12.7834021,15.2775 13.2836277,14.9450273 13.762266,14.608125 Z M11.8218404,14.8269023 C11.0715426,15.264375 10.2910468,15.6493887 9.48900426,15.9775137 C8.6869617,15.6493887 7.90646596,15.264375 7.15616809,14.8269023 C6.38864894,14.3762637 5.65557234,13.873125 4.96134468,13.3175273 C4.69829574,11.6200137 4.67674894,9.89190234 4.8923383,8.18565234 C5.60815319,7.60815234 6.3627766,7.0875 7.15616809,6.61938867 C7.91079149,6.17752734 8.69128723,5.79251367 9.49761489,5.46438867 C10.2996574,5.79251367 11.0758277,6.181875 11.8261255,6.61938867 C12.6152319,7.08315234 13.3741809,7.60815234 14.0856702,8.18565234 C14.184834,8.95563867 14.2322532,9.73001367 14.2322532,10.5043887 C14.2322532,11.445 14.1589617,12.3856523 14.0166638,13.3175273 C13.3224362,13.873125 12.5893596,14.3762637 11.8218404,14.8269023 Z M17.8026362,5.85375 C18.4063511,6.91252734 18.0915574,8.4 17.1170191,9.95313867 C16.4529894,9.13065234 15.7113021,8.38252734 14.9006489,7.71315234 C14.7454149,6.58001367 14.4694298,5.473125 14.0770191,4.40126367 C15.8320532,4.344375 17.2118979,4.816875 17.8026362,5.85375 Z M17.6819255,10.723125 C18.9798277,8.78501367 19.3679128,6.85563867 18.5486489,5.41627734 C17.7422809,4.003125 15.9527638,3.38190234 13.7061957,3.52188867 C12.6885638,1.351875 11.1879681,0.00438867187 9.48900426,0.00438867187 C7.79004043,0.00438867187 6.28944468,1.35626367 5.26748723,3.52627734 C5.23732979,3.52627734 5.20280638,3.5175 5.17264894,3.5175 C2.88294681,3.39063867 1.19691915,4.06875 0.429359574,5.41188867 C-0.389904255,6.85563867 -0.00181914894,8.780625 1.29608298,10.7187773 C-0.00181914894,12.6568887 -0.389904255,14.5862637 0.429359574,16.025625 C1.16243617,17.311875 2.70184043,17.9462637 4.66381277,17.9462637 C4.93114681,17.9462637 5.20713191,17.9331387 5.48740213,17.9112773 C6.4964234,19.8275273 7.90646596,21 9.49332979,21 C11.0801532,21 12.4901957,19.8275273 13.499217,17.9112773 C13.7794872,17.9331387 14.0554723,17.9462637 14.3185213,17.9462637 C16.2761681,17.9462637 17.8198979,17.311875 18.552934,16.025625 C19.3679128,14.5906523 18.9798277,12.6612773 17.6819255,10.723125 L17.6819255,10.723125 Z" mask="url(#b)"/>
    <path fill="#0A0A08" d="M9.48900426,9.19188867 C8.53605319,9.19188867 7.76416809,9.975 7.76416809,10.9419023 C7.76416809,11.9087637 8.53605319,12.691875 9.48900426,12.691875 C10.4419553,12.691875 11.2138404,11.9087637 11.2138404,10.9419023 C11.2138404,9.975 10.4419553,9.19188867 9.48900426,9.19188867"/>
  </g>
</svg>
