<svg xmlns="http://www.w3.org/2000/svg" width="21" height="20" viewBox="0 0 21 20" xmlns:xlink="http://www.w3.org/1999/xlink">
  <defs>
    <polygon id="a" points="21 19.998 .002 19.998 .002 .006 21 .006"/>
  </defs>
  <g fill="none" fill-rule="evenodd" opacity=".4">
    <mask id="b" fill="white">
      <use xlink:href="#a"/>
    </mask>
    <path fill="#0A0A08" d="M18.6686309,3.77174538 C17.5642031,5.36989733 15.9352266,7.27211499 14.0817715,9.12788501 C13.303582,9.90706366 12.5491406,10.6158522 11.8323105,11.2508419 L9.77094727,9.18689938 C10.4247363,8.4463655 11.1376289,7.68632444 11.8898555,6.93318275 C13.7432695,5.07737166 15.6430723,3.4463655 17.2392363,2.34045175 C19.2045,0.978809035 19.8826523,0.976673511 20.012918,0.99449692 C20.0308418,1.12476386 20.0284629,1.80402464 18.6686309,3.77174538 Z M6.09463477,14.4147433 C6.33330469,13.7758111 6.84710742,12.9123203 7.56324023,11.9207392 L9.09948047,13.4589322 C8.01875977,14.2378645 7.13319141,14.7455852 6.53038477,14.9584394 C6.52033594,14.9416016 6.3716543,14.6393429 6.09463477,14.4147433 Z M5.30709375,17.823039 C5.28076172,17.8511294 5.04069727,18.1043943 4.72754297,18.3282546 C3.59009766,19.1413963 2.19753516,19.2354415 1.18604883,18.6093634 C1.6597793,17.9590965 2.01177539,17.226078 2.21402344,16.4634086 L2.21402344,16.4633676 C2.2162793,16.4548255 2.21833008,16.4462012 2.22013477,16.4374949 C2.22181641,16.4297331 2.3921543,15.6519918 3.12735937,15.1263244 C3.60031055,14.7881725 4.16411133,14.652115 4.67409961,14.7530595 C5.09471484,14.8362628 5.44831055,15.0766735 5.66975391,15.4298563 C6.10431445,16.1229158 5.95153125,17.1296509 5.30709375,17.823039 Z M9.89288672,12.8648871 L8.15788477,11.1276797 C8.45770898,10.741232 8.78210156,10.3409446 9.12782227,9.93149897 L11.0886152,11.8947844 C10.6736191,12.2457084 10.2739629,12.5695688 9.89288672,12.8648871 Z M20.713916,0.292607803 C20.1114785,-0.310513347 18.9032812,0.0335934292 16.9114805,1.37581109 C15.2194219,2.51609856 13.1898047,4.24316222 11.1964863,6.23897331 C8.24143359,9.19774127 5.99476172,12.1027515 5.24675977,13.896386 C5.12363086,13.8517043 4.9959082,13.8159754 4.86416602,13.7898973 C4.09011914,13.6365914 3.24946289,13.8326078 2.55757031,14.3273101 C1.56470508,15.0372074 1.30175391,16.0509651 1.26356836,16.221848 C1.05455273,17.0034497 0.658710937,17.7491992 0.118371094,18.3790554 C-0.055453125,18.5816427 -0.0355605469,18.8862012 0.163078125,19.0645175 C0.857349609,19.6875154 1.74546094,20 2.66921484,20 C3.5595,20 4.48288477,19.7096509 5.29733203,19.1273511 C5.67922852,18.8542916 5.96834766,18.5523614 6.02433398,18.4926078 C6.71634961,17.7480082 7.01018555,16.7717043 6.86441602,15.8796715 C8.62193555,15.2488296 11.6859668,12.9153593 14.7751816,9.82221766 C16.768459,7.82640657 18.4932891,5.79416838 19.6321289,4.1 C20.9726016,2.10558522 21.3163535,0.895811088 20.713916,0.292607803 L20.713916,0.292607803 Z" mask="url(#b)"/>
    <path fill="#0A0A08" d="M4.89135937,16.4967146 C4.65416602,16.3659548 4.35602344,16.4525257 4.22538867,16.6900616 C4.21222266,16.7140862 4.19622656,16.7365503 4.17789258,16.7568378 C4.14122461,16.7950308 4.0207207,16.9116632 3.89554102,17.001191 C3.70563867,17.1369199 3.50072461,17.2342094 3.28645898,17.2903491 C3.02449219,17.3589733 2.86773047,17.6271869 2.93626758,17.8895277 C2.99389453,18.1101437 3.19261523,18.2563039 3.41020312,18.2563039 C3.45130078,18.2563039 3.49301367,18.2510883 3.53464453,18.2402464 C3.86482031,18.1537577 4.17793359,18.0057495 4.46541211,17.8002464 C4.64994141,17.6682957 4.89488672,17.426694 4.89652734,17.4248871 C4.96945312,17.3457495 5.03269922,17.2577823 5.08450195,17.1634497 C5.2150957,16.9259138 5.12859375,16.6273922 4.89135937,16.4967146"/>
  </g>
</svg>
