<svg xmlns="http://www.w3.org/2000/svg" width="24" height="17" viewBox="0 0 24 17" xmlns:xlink="http://www.w3.org/1999/xlink">
  <defs>
    <polygon id="a" points="12.002 .056 .004 .056 .004 16.875 24 16.875 24 .056 12.002 .056"/>
  </defs>
  <g fill="none" fill-rule="evenodd">
    <mask id="b" fill="white">
      <use xlink:href="#a"/>
    </mask>
    <path fill="#000000" d="M23.5102041,0.0557226563 L0.489795918,0.0557226563 C0.219306122,0.0557226563 0,0.265605469 0,0.524472656 L0,16.4061328 C0,16.6652344 0.219306122,16.8748828 0.489795918,16.8748828 L23.5102041,16.8748828 C23.7806939,16.8748828 24,16.6652344 24,16.4061328 L24,0.524472656 C24,0.265605469 23.7806939,0.0557226563 23.5102041,0.0557226563 Z M0.979591837,3.92888672 L23.0204082,3.92888672 L23.0204082,0.993222656 L0.979591837,0.993222656 L0.979591837,3.92888672 Z M0.979591837,15.9373828 L23.0204082,15.9373828 L23.0204082,4.86638672 L0.979591837,4.86638672 L0.979591837,15.9373828 Z" mask="url(#b)"/>
    <path fill="#000000" d="M3.29608163 2.92980469L3.58640816 2.92980469C3.85689796 2.92980469 4.07620408 2.71992187 4.07620408 2.46105469 4.07620408 2.2021875 3.85689796 1.99230469 3.58640816 1.99230469L3.29608163 1.99230469C3.02559184 1.99230469 2.80628571 2.2021875 2.80628571 2.46105469 2.80628571 2.71992187 3.02559184 2.92980469 3.29608163 2.92980469zM5.42387755 2.92980469L5.71371429 2.92980469C5.98420408 2.92980469 6.2035102 2.71992187 6.2035102 2.46105469 6.2035102 2.2021875 5.98420408 1.99230469 5.71371429 1.99230469L5.42387755 1.99230469C5.15338776 1.99230469 4.93408163 2.2021875 4.93408163 2.46105469 4.93408163 2.71992187 5.15338776 2.92980469 5.42387755 2.92980469zM7.55142857 2.92980469L7.8415102 2.92980469C8.112 2.92980469 8.33130612 2.71992187 8.33130612 2.46105469 8.33130612 2.2021875 8.112 1.99230469 7.8415102 1.99230469L7.55142857 1.99230469C7.28093878 1.99230469 7.06163265 2.2021875 7.06163265 2.46105469 7.06163265 2.71992187 7.28093878 2.92980469 7.55142857 2.92980469zM5.13379592 6.50449219L3.29608163 6.50449219C3.02583673 6.50449219 2.80628571 6.71414063 2.80628571 6.97324219 2.80628571 7.231875 3.02583673 7.44199219 3.29608163 7.44199219L5.13379592 7.44199219C5.40428571 7.44199219 5.62359184 7.231875 5.62359184 6.97324219 5.62359184 6.714375 5.40428571 6.50449219 5.13379592 6.50449219zM20.7039184 6.50449219L8.32512245 6.50449219C8.05481633 6.50449219 7.83532653 6.71414063 7.83532653 6.97324219 7.83532653 7.231875 8.05481633 7.44199219 8.32512245 7.44199219L20.7039184 7.44199219C20.9744082 7.44199219 21.1937143 7.231875 21.1937143 6.97324219 21.1937143 6.714375 20.9744082 6.50449219 20.7039184 6.50449219zM5.13379592 8.77201172L3.29608163 8.77201172C3.02583673 8.77201172 2.80628571 8.98189453 2.80628571 9.24076172 2.80628571 9.49962891 3.02583673 9.70951172 3.29608163 9.70951172L5.13379592 9.70951172C5.40428571 9.70951172 5.62359184 9.49962891 5.62359184 9.24076172 5.62359184 8.98189453 5.40428571 8.77201172 5.13379592 8.77201172zM20.7039184 8.77201172L17.0773469 8.77201172C16.8068571 8.77201172 16.587551 8.98189453 16.587551 9.24076172 16.587551 9.49962891 16.8068571 9.70951172 17.0773469 9.70951172L20.7039184 9.70951172C20.9741633 9.70951172 21.1937143 9.49962891 21.1937143 9.24076172 21.1937143 8.98189453 20.9744082 8.77201172 20.7039184 8.77201172zM15.5299592 9.70951172C15.800449 9.70951172 16.0197551 9.49962891 16.0197551 9.24076172 16.0197551 8.98189453 15.800449 8.77201172 15.5299592 8.77201172L12.2900816 8.77201172C12.0195918 8.77201172 11.8002857 8.98189453 11.8002857 9.24076172 11.8002857 9.49962891 12.0195918 9.70951172 12.2900816 9.70951172L15.5299592 9.70951172zM8.32512245 9.70951172L10.2110816 9.70951172C10.4815714 9.70951172 10.7008776 9.49962891 10.7008776 9.24076172 10.7008776 8.98189453 10.4815714 8.77201172 10.2110816 8.77201172L8.32512245 8.77201172C8.05481633 8.77201172 7.83532653 8.98189453 7.83532653 9.24076172 7.83532653 9.49962891 8.05463265 9.70951172 8.32512245 9.70951172zM5.13379592 11.0395312L3.29608163 11.0395312C3.02583673 11.0395312 2.80628571 11.2494141 2.80628571 11.5082812 2.80628571 11.7671484 3.02583673 11.9770312 3.29608163 11.9770312L5.13379592 11.9770312C5.40428571 11.9770312 5.62359184 11.7671484 5.62359184 11.5082812 5.62359184 11.2494141 5.40428571 11.0395312 5.13379592 11.0395312zM20.7039184 11.0395312L8.32512245 11.0395312C8.05481633 11.0395312 7.83532653 11.2494141 7.83532653 11.5082812 7.83532653 11.7671484 8.05481633 11.9770312 8.32512245 11.9770312L20.7039184 11.9770312C20.9744082 11.9770312 21.1937143 11.7671484 21.1937143 11.5082812 21.1937143 11.2494141 20.9744082 11.0395312 20.7039184 11.0395312zM5.13379592 13.3072852L3.29608163 13.3072852C3.02583673 13.3072852 2.80628571 13.517168 2.80628571 13.7760352 2.80628571 14.034668 3.02583673 14.2447852 3.29608163 14.2447852L5.13379592 14.2447852C5.40428571 14.2447852 5.62359184 14.034668 5.62359184 13.7760352 5.62359184 13.517168 5.40428571 13.3072852 5.13379592 13.3072852zM20.7039184 13.3072852L17.0773469 13.3072852C16.8068571 13.3072852 16.587551 13.517168 16.587551 13.7760352 16.587551 14.034668 16.8068571 14.2447852 17.0773469 14.2447852L20.7039184 14.2447852C20.9741633 14.2447852 21.1937143 14.034668 21.1937143 13.7760352 21.1937143 13.517168 20.9744082 13.3072852 20.7039184 13.3072852zM15.5299592 13.3072852L12.2900816 13.3072852C12.0195918 13.3072852 11.8002857 13.517168 11.8002857 13.7760352 11.8002857 14.034668 12.0195918 14.2447852 12.2900816 14.2447852L15.5299592 14.2447852C15.800449 14.2447852 16.0197551 14.034668 16.0197551 13.7760352 16.0197551 13.517168 15.800449 13.3072852 15.5299592 13.3072852zM10.2110816 13.3072852L8.32512245 13.3072852C8.05481633 13.3072852 7.83532653 13.517168 7.83532653 13.7760352 7.83532653 14.034668 8.05481633 14.2447852 8.32512245 14.2447852L10.2110816 14.2447852C10.4815714 14.2447852 10.7008776 14.034668 10.7008776 13.7760352 10.7008776 13.517168 10.4815714 13.3072852 10.2110816 13.3072852z"/>
  </g>
</svg>
