<?xml version="1.0" encoding="UTF-8"?>
<svg width="22px" height="14px" viewBox="0 0 22 14" version="1.1" xmlns="http://www.w3.org/2000/svg" xmlns:xlink="http://www.w3.org/1999/xlink">
    <!-- Generator: Sketch 51.3 (57544) - http://www.bohemiancoding.com/sketch -->
    <title>Arrow_Right_2_</title>
    <desc>Created with Sketch.</desc>
    <defs></defs>
    <g id="Symbols" stroke="none" stroke-width="1" fill="none" fill-rule="evenodd">
        <g id="Header-HD/News" transform="translate(-1348.000000, -23.000000)" fill="#000000" fill-rule="nonzero">
            <g id="BUY" transform="translate(1277.000000, 5.000000)">
                <path d="M75.2510587,34.2123624 C75.5665499,34.2002185 75.7529234,33.9357521 75.7780458,33.5957238 C75.7979101,33.3454251 76.3798161,27.2896829 84.564476,27.2964295 L84.5825875,31.1682994 C84.5825875,31.4293926 84.7128737,31.6668727 84.9173587,31.7781915 C85.120091,31.8901849 85.3637204,31.8557773 85.5372405,31.6891365 L93.1137035,24.4412711 C93.2492478,24.3130858 93.3275364,24.1208079 93.3269522,23.9190848 C93.3263679,23.716687 93.2474951,23.5250837 93.1119507,23.3975731 L85.536072,16.2171737 C85.3613834,16.0525568 85.120091,16.0208479 84.9167745,16.1308173 C84.7128737,16.2428108 84.5831717,16.4802909 84.5831717,16.7400347 L84.5650602,20.5268976 C81.16944,20.6517096 78.5403466,21.9126479 76.8355256,24.2159349 C74.06154,27.9643422 74.6808375,33.4115418 74.7094654,33.6382273 C74.7526994,33.9688104 74.9624426,34.2123624 75.2510587,34.2123624 Z" id="Arrow_Right_2_" transform="translate(83.979014, 25.139320) scale(-1, 1) rotate(-127.000000) translate(-83.979014, -25.139320) "></path>
            </g>
        </g>
    </g>
</svg>