<svg xmlns="http://www.w3.org/2000/svg" width="182" height="61" viewBox="0 0 182 61">
    <g fill="none" fill-rule="nonzero">
        <path fill="#000" d="M167.038 0H14.46c-.556 0-1.106 0-1.66.003-.465.003-.925.012-1.394.02a19.936 19.936 0 0 0-3.04.269A9.766 9.766 0 0 0 3.03 3.046a9.542 9.542 0 0 0-1.786 2.472C.782 6.43.462 7.41.295 8.42a19.92 19.92 0 0 0-.272 3.053c-.014.468-.016.937-.023 1.405v35.249c.007.473.009.932.023 1.406a19.92 19.92 0 0 0 .272 3.053c.167 1.01.486 1.99.948 2.904a9.465 9.465 0 0 0 1.787 2.462 9.519 9.519 0 0 0 2.455 1.797c.907.464 1.88.788 2.883.962 1.005.166 2.02.256 3.039.27.469.01.93.016 1.394.016.554.003 1.104.003 1.66.003h152.577c.545 0 1.099 0 1.644-.003.462 0 .936-.006 1.398-.016a20.033 20.033 0 0 0 3.033-.27 10.28 10.28 0 0 0 2.894-.962 9.523 9.523 0 0 0 2.453-1.797 9.75 9.75 0 0 0 1.792-2.462 10.11 10.11 0 0 0 .94-2.904c.168-1.01.262-2.03.28-3.053.007-.474.007-.933.007-1.406.012-.554.012-1.105.012-1.668V14.543c0-.559 0-1.113-.012-1.665 0-.468 0-.937-.006-1.405a20.708 20.708 0 0 0-.282-3.053 10.131 10.131 0 0 0-.939-2.902 9.834 9.834 0 0 0-4.245-4.27 10.225 10.225 0 0 0-2.894-.956 19.678 19.678 0 0 0-3.033-.27c-.462-.007-.936-.016-1.398-.02-.545-.002-1.1-.002-1.644-.002z"/>
        <path fill="#FFF" d="M12.808 59.666c-.462 0-.913-.006-1.372-.017a19.14 19.14 0 0 1-2.834-.248 8.89 8.89 0 0 1-2.513-.836 8.2 8.2 0 0 1-2.119-1.55 8.112 8.112 0 0 1-1.548-2.13 8.76 8.76 0 0 1-.823-2.527 19.032 19.032 0 0 1-.253-2.86c-.01-.321-.022-1.392-.022-1.392V12.878s.013-1.055.022-1.365c.012-.956.096-1.91.251-2.854a8.811 8.811 0 0 1 .825-2.535c.395-.79.915-1.51 1.54-2.132a8.443 8.443 0 0 1 2.126-1.56 8.798 8.798 0 0 1 2.508-.829c.94-.154 1.891-.238 2.844-.25l1.369-.019h155.865l1.385.02c.945.011 1.887.094 2.819.248.881.15 1.735.432 2.534.835a8.507 8.507 0 0 1 3.663 3.69c.395.793.669 1.64.811 2.515.158.952.246 1.914.264 2.878.004.432.004.896.004 1.358.012.571.012 1.116.012 1.665v31.916c0 .554 0 1.094-.012 1.64 0 .495 0 .95-.005 1.417a19.519 19.519 0 0 1-.26 2.827 8.786 8.786 0 0 1-.819 2.547c-.4.781-.92 1.494-1.54 2.113a8.212 8.212 0 0 1-2.122 1.56 8.856 8.856 0 0 1-2.53.838c-.938.154-1.885.237-2.835.248-.444.01-.91.017-1.361.017l-1.644.003-154.23-.003z"/>
        <g fill="#000">
            <path d="M37.912 30.331a7.857 7.857 0 0 1 3.716-6.584 7.978 7.978 0 0 0-6.294-3.422c-2.649-.28-5.216 1.594-6.566 1.594-1.376 0-3.454-1.566-5.691-1.52a8.377 8.377 0 0 0-7.055 4.326c-3.05 5.31-.775 13.114 2.147 17.406 1.462 2.102 3.17 4.45 5.406 4.367 2.188-.092 3.005-1.403 5.645-1.403 2.616 0 3.383 1.403 5.664 1.35 2.347-.039 3.826-2.111 5.237-4.233a17.423 17.423 0 0 0 2.395-4.904 7.584 7.584 0 0 1-4.604-6.977zM33.603 17.502a7.755 7.755 0 0 0 1.758-5.535 7.805 7.805 0 0 0-5.059 2.631A7.378 7.378 0 0 0 28.5 19.93a6.451 6.451 0 0 0 5.104-2.427z"/>
            <g>
                <path d="M64.158 41.388h-7.18l-1.723 5.119h-3.041l6.8-18.938h3.159l6.8 18.938H65.88l-1.722-5.119zm-6.436-2.362h5.69l-2.804-8.307h-.079l-2.807 8.307zM83.658 39.604c0 4.29-2.284 7.047-5.73 7.047a4.65 4.65 0 0 1-4.32-2.416h-.066v6.84h-2.819V32.7h2.729v2.296h.052a4.865 4.865 0 0 1 4.372-2.44c3.485 0 5.782 2.77 5.782 7.048zm-2.897 0c0-2.795-1.437-4.633-3.629-4.633-2.153 0-3.602 1.876-3.602 4.633 0 2.782 1.449 4.645 3.602 4.645 2.192 0 3.629-1.825 3.629-4.645zM98.772 39.604c0 4.29-2.284 7.047-5.731 7.047a4.65 4.65 0 0 1-4.32-2.416h-.066v6.84h-2.818V32.7h2.728v2.296h.052a4.865 4.865 0 0 1 4.372-2.44c3.485 0 5.783 2.77 5.783 7.048zm-2.898 0c0-2.795-1.436-4.633-3.628-4.633-2.154 0-3.602 1.876-3.602 4.633 0 2.782 1.448 4.645 3.602 4.645 2.192 0 3.628-1.825 3.628-4.645zM108.76 41.23c.208 1.878 2.023 3.111 4.502 3.111 2.376 0 4.085-1.233 4.085-2.926 0-1.47-1.03-2.35-3.472-2.953l-2.44-.592c-3.46-.84-5.065-2.466-5.065-5.105 0-3.267 2.832-5.512 6.852-5.512 3.981 0 6.71 2.245 6.801 5.512h-2.845c-.17-1.89-1.724-3.03-3.995-3.03-2.27 0-3.824 1.154-3.824 2.834 0 1.338.993 2.126 3.42 2.73l2.075.512c3.864.918 5.468 2.48 5.468 5.25 0 3.542-2.805 5.761-7.269 5.761-4.177 0-6.997-2.167-7.179-5.592h2.885zM126.408 29.432V32.7h2.612v2.244h-2.612v7.612c0 1.182.523 1.733 1.671 1.733.31-.005.62-.027.927-.066v2.231a7.7 7.7 0 0 1-1.565.131c-2.78 0-3.864-1.05-3.864-3.727v-7.914h-1.997V32.7h1.996v-3.268h2.832zM130.53 39.604c0-4.344 2.545-7.074 6.513-7.074 3.981 0 6.514 2.73 6.514 7.074 0 4.356-2.52 7.074-6.514 7.074-3.993 0-6.513-2.718-6.513-7.074zm10.155 0c0-2.98-1.358-4.739-3.642-4.739s-3.642 1.772-3.642 4.739c0 2.992 1.358 4.737 3.642 4.737s3.642-1.745 3.642-4.737zM145.88 32.7h2.689v2.35h.065a3.278 3.278 0 0 1 3.303-2.495c.325-.001.649.034.966.106v2.65a3.92 3.92 0 0 0-1.267-.17 2.832 2.832 0 0 0-2.195.908 2.866 2.866 0 0 0-.742 2.268v8.19h-2.818V32.7zM165.898 42.451c-.38 2.507-2.807 4.227-5.913 4.227-3.994 0-6.474-2.691-6.474-7.009 0-4.33 2.493-7.14 6.356-7.14 3.799 0 6.188 2.625 6.188 6.811v.971h-9.698v.171a3.608 3.608 0 0 0 .969 2.794 3.566 3.566 0 0 0 2.725 1.117 3.105 3.105 0 0 0 3.17-1.942h2.677zm-9.528-4.12h6.865a3.33 3.33 0 0 0-.923-2.493 3.293 3.293 0 0 0-2.445-1.012 3.466 3.466 0 0 0-2.475 1.02 3.505 3.505 0 0 0-1.022 2.485z"/>
            </g>
        </g>
        <g fill="#000">
            <path d="M57.606 13.149a3.902 3.902 0 0 1 3.178 1.285c.82.902 1.21 2.14 1.06 3.374 0 2.995-1.556 4.717-4.238 4.717h-3.254V13.15h3.254zm-1.855 8.05h1.698a2.776 2.776 0 0 0 2.256-.95 3.029 3.029 0 0 0 .715-2.422 3.036 3.036 0 0 0-.726-2.406 2.783 2.783 0 0 0-2.245-.947h-1.698v6.725zM63.424 18.984c-.117-1.268.467-2.496 1.507-3.168a3.112 3.112 0 0 1 3.396 0c1.04.672 1.624 1.9 1.507 3.168.12 1.27-.465 2.5-1.505 3.173a3.113 3.113 0 0 1-3.4 0c-1.04-.674-1.624-1.903-1.505-3.173zm5.03 0c0-1.534-.661-2.43-1.823-2.43-1.166 0-1.822.896-1.822 2.43 0 1.546.656 2.436 1.822 2.436 1.162 0 1.824-.896 1.824-2.436zM78.356 22.525h-1.392l-1.404-5.211h-.107l-1.398 5.211h-1.379l-1.873-7.076h1.36l1.218 5.4h.1l1.398-5.4h1.286l1.398 5.4h.106l1.212-5.4h1.341zM81.798 15.449h1.291v1.124h.1c.349-.828 1.163-1.334 2.029-1.26a2.165 2.165 0 0 1 1.784.727c.457.512.667 1.212.568 1.904v4.581H86.23v-4.23c0-1.137-.475-1.703-1.467-1.703a1.528 1.528 0 0 0-1.207.509 1.665 1.665 0 0 0-.416 1.284v4.14h-1.341v-7.076zM89.708 12.687h1.341v9.838h-1.341zM92.914 18.984c-.117-1.268.467-2.496 1.507-3.168a3.113 3.113 0 0 1 3.396 0c1.04.672 1.625 1.9 1.508 3.168.119 1.27-.465 2.5-1.506 3.173a3.113 3.113 0 0 1-3.4 0c-1.04-.673-1.624-1.903-1.505-3.173zm5.03 0c0-1.534-.661-2.43-1.823-2.43-1.166 0-1.822.896-1.822 2.43 0 1.546.656 2.436 1.822 2.436 1.162 0 1.824-.896 1.824-2.436zM100.737 20.524c0-1.274.911-2.008 2.528-2.112l1.841-.11v-.612c0-.747-.474-1.17-1.391-1.17-.749 0-1.268.287-1.417.787H101c.137-1.215 1.235-1.995 2.777-1.995 1.704 0 2.665.884 2.665 2.378v4.835h-1.291v-.994h-.107a2.263 2.263 0 0 1-2.041 1.11 2.002 2.002 0 0 1-1.584-.535 2.177 2.177 0 0 1-.682-1.582zm4.37-.605v-.591l-1.66.11c-.937.065-1.361.397-1.361 1.02 0 .638.53 1.008 1.26 1.008a1.56 1.56 0 0 0 1.195-.385c.332-.291.536-.71.565-1.162zM108.205 18.984c0-2.236 1.104-3.652 2.821-3.652.867-.042 1.68.442 2.084 1.241h.1v-3.886h1.342v9.838h-1.285v-1.118h-.106c-.436.793-1.258 1.268-2.135 1.235-1.729 0-2.821-1.417-2.821-3.658zm1.385 0c0 1.5.68 2.404 1.816 2.404 1.131 0 1.83-.916 1.83-2.398 0-1.475-.706-2.404-1.83-2.404-1.129 0-1.816.91-1.816 2.398zM120.102 18.984c-.117-1.268.468-2.496 1.507-3.168a3.112 3.112 0 0 1 3.396 0c1.04.672 1.624 1.9 1.508 3.168.118 1.27-.465 2.5-1.506 3.173a3.113 3.113 0 0 1-3.4 0c-1.04-.674-1.624-1.903-1.505-3.173zm5.03 0c0-1.534-.661-2.43-1.823-2.43-1.166 0-1.821.896-1.821 2.43 0 1.546.656 2.436 1.821 2.436 1.162 0 1.824-.896 1.824-2.436zM128.312 15.449h1.292v1.124h.1c.348-.828 1.163-1.334 2.028-1.26a2.165 2.165 0 0 1 1.784.727c.458.512.667 1.212.569 1.904v4.581h-1.342v-4.23c0-1.137-.474-1.703-1.466-1.703a1.528 1.528 0 0 0-1.208.509 1.665 1.665 0 0 0-.415 1.284v4.14h-1.342v-7.076zM141.664 13.687v1.794h1.473v1.177h-1.473v3.638c0 .741.294 1.066.961 1.066.171 0 .342-.012.512-.032v1.163c-.24.045-.485.069-.73.071-1.491 0-2.085-.546-2.085-1.91v-3.997h-1.08v-1.176h1.08v-1.794h1.342zM144.97 12.687h1.329v3.9h.106c.365-.836 1.194-1.343 2.072-1.268a2.195 2.195 0 0 1 1.767.745c.452.51.663 1.204.574 1.893v4.568h-1.343v-4.224c0-1.13-.505-1.703-1.453-1.703a1.553 1.553 0 0 0-1.256.483c-.33.346-.497.826-.455 1.311v4.133h-1.342v-9.838zM158.64 20.614c-.377 1.335-1.617 2.198-2.946 2.048a3.032 3.032 0 0 1-2.382-1.07 3.303 3.303 0 0 1-.757-2.583 3.354 3.354 0 0 1 .756-2.593 3.082 3.082 0 0 1 2.378-1.104c1.89 0 3.032 1.346 3.032 3.568v.487h-4.8v.078c-.042.525.13 1.045.475 1.43.344.386.83.603 1.335.597a1.612 1.612 0 0 0 1.617-.858h1.292zm-4.719-2.28h3.433a1.75 1.75 0 0 0-.446-1.302 1.608 1.608 0 0 0-1.227-.531 1.703 1.703 0 0 0-1.251.53 1.849 1.849 0 0 0-.509 1.303z"/>
        </g>
    </g>
</svg>
