<svg width="19px" height="15px" viewBox="0 0 19 15" version="1.1" xmlns="http://www.w3.org/2000/svg" xmlns:xlink="http://www.w3.org/1999/xlink">
    <g id="Symbols" stroke="none" stroke-width="1" fill="none" fill-rule="evenodd">
        <g id="Footer/HD-Copy-2" transform="translate(-623.000000, -16.000000)" fill="#fff" fill-rule="nonzero">
            <g id="Twitter" transform="translate(547.000000, 13.000000)">
                <g id="8800" transform="translate(76.000000, 3.000000)">
                    <path d="M19,1.77473603 C18.3006933,2.07590134 17.5503473,2.28014821 16.7619702,2.37133362 C17.5669568,1.90282407 18.1831539,1.1597022 18.4752018,0.276935704 C17.7201058,0.710805662 16.8866191,1.02585095 15.9985229,1.19663501 C15.2873567,0.45927635 14.2757913,0 13.153796,0 C11.0012663,0 9.25596447,1.69628399 9.25596447,3.78721192 C9.25596447,4.08376063 9.29039427,4.37339953 9.35689437,4.65036541 C6.11801,4.49225437 3.24599387,2.98407424 1.32379301,0.692339259 C0.987784294,1.25085744 0.796635289,1.90164729 0.796635289,2.59634011 C0.796635289,3.91068336 1.48526223,5.07038556 2.53007766,5.74887502 C1.89131028,5.7281154 1.29054296,5.55733134 0.764596021,5.27345565 L0.764596021,5.32076827 C0.764596021,7.15552011 2.10859985,8.68678325 3.890691,9.03529135 C3.56418229,9.12068338 3.21988435,9.16799599 2.86369586,9.16799599 C2.61200754,9.16799599 2.36860845,9.14376638 2.12995936,9.09760037 C2.62622651,10.6034873 4.0652305,11.6985571 5.77017283,11.7285801 C4.43684875,12.7440512 2.75565646,13.3475586 0.929635506,13.3475586 C0.615017345,13.3475586 0.305118146,13.3290922 0,13.2956294 C1.7251221,14.372263 3.77318264,15 5.97439212,15 C13.1443581,15 17.0635802,9.2280118 17.0635802,4.22225865 L17.0505099,3.73184288 C17.8162856,3.20099413 18.478772,2.53403109 19,1.77473603 Z" id="Shape"></path>
                </g>
            </g>
        </g>
    </g>
</svg>