<svg xmlns="http://www.w3.org/2000/svg" width="31" height="30" viewBox="0 0 31 30">
    <g fill="none" fill-rule="evenodd">
        <path fill="#DC4E41" d="M0 15C0 6.716 6.725 0 15.022 0c8.296 0 15.021 6.716 15.021 15 0 8.284-6.725 15-15.021 15C6.725 30 0 23.284 0 15z"/>
        <path fill="#FFF" d="M12.273 14.571V16.2h2.707c-.11.699-.819 2.05-2.707 2.05-1.63 0-2.96-1.344-2.96-3s1.33-3 2.96-3c.927 0 1.547.394 1.902.734l1.295-1.242c-.831-.774-1.909-1.242-3.197-1.242-2.639 0-4.773 2.124-4.773 4.75S9.634 20 12.273 20c2.754 0 4.582-1.927 4.582-4.641 0-.313-.035-.55-.075-.788h-4.507zM22.5 14.571h-1.364v-1.357h-1.363v1.357h-1.364v1.358h1.364v1.357h1.363v-1.357H22.5"/>
    </g>
</svg>
