<svg xmlns="http://www.w3.org/2000/svg" viewBox="0 0 377.5 85.87"><defs><style>.cls-1{fill:#71140c;}.cls-2{fill:#c1711c;}.cls-3{fill:#ba5516;}.cls-4{fill:#9f3310;}</style></defs><title>Asset 1</title><g id="Layer_2" data-name="Layer 2"><g id="Layer_1-2" data-name="Layer 1"><path class="cls-1" d="M207.34,25.93h4.34a1.71,1.71,0,0,1,1.73,1.73v31.1a1.52,1.52,0,0,1-1.52,1.53h-4.13a1.5,1.5,0,0,1-1.53-1.53V43.38a.24.24,0,0,0-.45-.1l-4.06,8.47a1.81,1.81,0,0,1-1.6,1h-3.78a1.73,1.73,0,0,1-1.6-1l-4.13-8.47a.24.24,0,0,0-.45.1V58.79a1.52,1.52,0,0,1-1.53,1.53H184.5A1.53,1.53,0,0,1,183,58.79V27.66a1.73,1.73,0,0,1,1.73-1.73h4.37a1.78,1.78,0,0,1,1.57,1l7.42,15.83a.24.24,0,0,0,.42,0l7.25-15.83A1.74,1.74,0,0,1,207.34,25.93Z"/><path class="cls-1" d="M245,31l-8.4,11.1a.62.62,0,0,0,0,.73l8.26,12.53a1.75,1.75,0,0,1-.52,2.47l-3,2a1.78,1.78,0,0,1-2.46-.52L232,48.94a.38.38,0,0,0-.62,0,.44.44,0,0,0-.07.21v9.44a1.78,1.78,0,0,1-1.77,1.77h-3.65a1.78,1.78,0,0,1-1.77-1.77V27.66a1.74,1.74,0,0,1,1.74-1.73h3.75a1.73,1.73,0,0,1,1.7,1.73v8.12a.47.47,0,0,0,.83.28l7.15-9.47a1.67,1.67,0,0,1,2.39-.32l3,2.26A1.77,1.77,0,0,1,245,31Z"/><path class="cls-1" d="M278.28,53.24a1.85,1.85,0,0,1,1.22,2.08l-.59,3.47a1.87,1.87,0,0,1-2.36,1.46A17,17,0,0,1,265,48.07a.79.79,0,0,0-.79-.63h-1.43a.82.82,0,0,0-.83.84v9.78a1.85,1.85,0,0,1-1.84,1.84h-3.51a1.85,1.85,0,0,1-1.83-1.84V27.28a1.75,1.75,0,0,1,1.77-1.74h11.14c5.62,0,10.2,4.93,10.2,10.94a11.15,11.15,0,0,1-5.52,9.72.46.46,0,0,0-.24.55,9.4,9.4,0,0,0,2.19,3.89A9.78,9.78,0,0,0,278.28,53.24Zm-7.67-16.76c0-2.09-1.39-3.75-3.09-3.75h-4.65a1,1,0,0,0-1,1v5.59a1,1,0,0,0,1,.94h4.65C269.22,40.23,270.61,38.56,270.61,36.48Z"/><path class="cls-1" d="M297,53.14h12.25a1.35,1.35,0,0,1,1.35,1.35V59a1.35,1.35,0,0,1-1.35,1.35H290.65a1.54,1.54,0,0,1-1.53-1.53V27.52a1.61,1.61,0,0,1,1.6-1.59h4a1.59,1.59,0,0,1,1.6,1.59V52.41A.75.75,0,0,0,297,53.14Z"/><path class="cls-1" d="M335.47,26.69,346,56.85a1.69,1.69,0,0,1-1,2.12l-3.64,1.25a1.65,1.65,0,0,1-2.12-1l-1.7-4.86A.43.43,0,0,0,337,54H326a.44.44,0,0,0-.45.31l-1.66,4.86a1.66,1.66,0,0,1-2.12,1L318.05,59a1.65,1.65,0,0,1-1-2.12l10.38-30.13a1.71,1.71,0,0,1,1.6-1.11l4.89,0A1.64,1.64,0,0,1,335.47,26.69Zm-6.73,20.16h5.45a.47.47,0,0,0,.45-.62l-2.74-7.88a.46.46,0,0,0-.87,0l-2.71,7.88A.47.47,0,0,0,328.74,46.85Z"/><path class="cls-1" d="M377.5,49.74a10.59,10.59,0,0,1-10.28,10.58H355.11a1.93,1.93,0,0,1-1.91-1.91V27.84a1.92,1.92,0,0,1,1.91-1.91h11a10.34,10.34,0,0,1,10.21,10.3,10.12,10.12,0,0,1-2,6A10.48,10.48,0,0,1,377.5,49.74ZM366,33.15h-4.58a1,1,0,0,0-1,1v4.09a1.06,1.06,0,0,0,1,1h4.51a3.13,3.13,0,0,0,3.16-2.81A3.08,3.08,0,0,0,366,33.15Zm4.3,16.59a3.22,3.22,0,0,0-3.09-3.23h-5.79a1.06,1.06,0,0,0-1,1v4.51a1.07,1.07,0,0,0,1,1.08h5.79A3.41,3.41,0,0,0,370.31,49.74Z"/><g id="_Group_" data-name="&lt;Group&gt;"><g id="_Group_2" data-name="&lt;Group&gt;"><path id="_Path_" data-name="&lt;Path&gt;" class="cls-2" d="M102.34,85.87a33.79,33.79,0,0,0-13.29-7.43c-6.76-1.88-13.84.06-20.67-1a30.69,30.69,0,0,1-9-3.12c-3.06-1.42-7-3.13-10.46-2.59a9.61,9.61,0,0,0-7.1,5.69c-1.19,2.44-2.72,5.86-3.68,8.4Z"/><path id="_Path_2" data-name="&lt;Path&gt;" class="cls-3" d="M35,85.87c1.09-2.9,2.25-5.77,3.55-8.59,1.2-2.61,2.49-5,4.85-6.78,4.64-3.42,10.79-2.1,15.62,0,3.11,1.37,6.11,3.07,9.5,3.63s6.74.2,10.09,0a32.49,32.49,0,0,1,16.52,3A33.87,33.87,0,0,1,106,85.87h24C121.67,72,94.68,54.71,89.35,53.62,85,52.73,80.68,51.46,76.27,51A58.5,58.5,0,0,0,63,50.82c-3,.36-6.92,1.06-9.09,3.44-.92,1-1.16,2.36-2,3.41a9.06,9.06,0,0,1-4,2.65c-3.83,1.47-8.06,1.69-12.06,2.46-1.85.35-4.4.69-5.5,1.6-3,2.48-5.82,10.34-7.44,13.59a64.11,64.11,0,0,0-3.32,7.9Z"/><path id="_Path_3" data-name="&lt;Path&gt;" class="cls-4" d="M16.28,85.87c1.19-3.62,7.63-19.86,8.46-21.43,2.14-4,7.51-5,11.58-5.66C40,58.15,45,58.15,48.17,55.9c1.12-.8,1.3-2.11,2-3.21A10.73,10.73,0,0,1,54,49.41c7.69-4.13,18.17-2.16,26.49-1.23,5.56.62,17.75,3.91,25.84,10.46,10.07,8.16,20.69,15.67,27,27.23H138c-2.59-7.91-6.29-15.46-9.67-23.05Q122.6,49.89,116.84,37c-1.5-3.36-2.84-7-5-9.95s-5.3-4.31-8.82-4.93a115.67,115.67,0,0,0-19.86-1.27,66.68,66.68,0,0,0-19.23,2.42A40.15,40.15,0,0,0,46.69,33.68c-4,4.07-7.93,8.44-13.85,9.38-4.53.73-9.71.63-13.57,3.45-2.58,1.88-3.77,5.05-4.9,7.91a67.05,67.05,0,0,0-3.22,10.77A84.46,84.46,0,0,0,9.5,85.87Z"/></g><g id="_Group_3" data-name="&lt;Group&gt;"><g id="_Group_4" data-name="&lt;Group&gt;"><path id="_Path_4" data-name="&lt;Path&gt;" class="cls-1" d="M0,85.87H6.2A88.84,88.84,0,0,1,8,64.66a72.75,72.75,0,0,1,3.4-11.39c1.2-3,2.46-6.37,5.18-8.35,4.08-3,9.63-4.17,14.42-4.93,6.26-1,9.1-5.24,13.37-9.56,5.13-5.18,12.36-8.59,19.36-10.7,6.58-2,13.77-2.1,20.62-2.09s14.16-.12,21,1.09a13.93,13.93,0,0,1,9.08,5.57c2.34,3.14,3.76,7,5.34,10.52C123.76,43.93,127,53,131.05,62.15c3.47,7.81,7.61,15.6,10.34,23.72H150c1.2-27.41-11.61-53.46-13.24-58.93-3.06-10.27-9-20.43-18.8-24.84C106.73-3,45.51.6,32.68,19.42,26.11,29.05,2.61,26.88.78,55.47.12,65.91,0,85.87,0,85.87Z"/></g></g></g></g></g></svg>