<svg xmlns="http://www.w3.org/2000/svg" width="164" height="60" viewBox="0 0 164 60">
    <g fill="none" fill-rule="evenodd">
        <rect width="163.75" height="60" fill="#05006F" rx="8"/>
        <g fill="#FFF">
            <path d="M34.925 29.428c-.036-4.01 3.283-5.96 3.435-6.05-1.88-2.742-4.793-3.116-5.817-3.146-2.447-.257-4.821 1.464-6.068 1.464-1.271 0-3.19-1.439-5.26-1.397-2.662.041-5.152 1.583-6.518 3.976-2.82 4.88-.717 12.053 1.984 15.998 1.35 1.932 2.93 4.089 4.996 4.013 2.022-.083 2.777-1.289 5.216-1.289 2.418 0 3.127 1.29 5.234 1.24 2.17-.034 3.536-1.94 4.84-3.89 1.56-2.214 2.188-4.395 2.213-4.507-.051-.017-4.214-1.606-4.255-6.412zM30.944 17.637c1.087-1.36 1.831-3.21 1.625-5.087-1.574.07-3.542 1.089-4.675 2.419-1.003 1.171-1.899 3.092-1.667 4.899 1.767.132 3.582-.892 4.717-2.231z"/>
        </g>
        <g fill="#FFF">
            <path d="M64.182 44.009h-2.826l-1.547-4.863h-5.38l-1.474 4.863h-2.75l5.33-16.556h3.291l5.356 16.556zm-4.84-6.904l-1.4-4.323c-.147-.441-.425-1.481-.834-3.119h-.05c-.163.705-.425 1.745-.786 3.12l-1.375 4.322h4.445zM77.888 37.893c0 2.03-.549 3.635-1.646 4.813-.983 1.049-2.204 1.573-3.66 1.573-1.573 0-2.702-.565-3.39-1.695h-.05v6.289h-2.653V36.001c0-1.277-.033-2.587-.098-3.93h2.333l.148 1.892h.05c.884-1.426 2.227-2.137 4.028-2.137 1.408 0 2.584.556 3.524 1.67.943 1.114 1.414 2.58 1.414 4.397zm-2.702.097c0-1.162-.262-2.12-.787-2.874-.573-.786-1.343-1.18-2.309-1.18-.654 0-1.249.22-1.78.651-.532.436-.88 1.004-1.044 1.709a3.473 3.473 0 0 0-.123.808v1.99c0 .869.266 1.602.799 2.2.532.599 1.224.897 2.075.897.999 0 1.776-.386 2.332-1.154.558-.77.837-1.786.837-3.047zM91.618 37.893c0 2.03-.548 3.635-1.647 4.813-.981 1.049-2.202 1.573-3.659 1.573-1.572 0-2.702-.565-3.388-1.695h-.05v6.289H80.22V36.001c0-1.277-.033-2.587-.098-3.93h2.333l.148 1.892h.05c.883-1.426 2.225-2.137 4.028-2.137 1.407 0 2.583.556 3.526 1.67.939 1.114 1.41 2.58 1.41 4.397zm-2.702.097c0-1.162-.262-2.12-.787-2.874-.574-.786-1.341-1.18-2.308-1.18-.656 0-1.249.22-1.781.651-.533.436-.88 1.004-1.043 1.709a3.54 3.54 0 0 0-.123.808v1.99c0 .869.266 1.602.796 2.2.532.597 1.224.897 2.078.897.999 0 1.776-.386 2.332-1.154.558-.77.836-1.786.836-3.047zM106.97 39.366c0 1.408-.489 2.554-1.47 3.438-1.079.967-2.58 1.45-4.51 1.45-1.782 0-3.21-.344-4.29-1.032l.614-2.21a7.27 7.27 0 0 0 3.834 1.057c.999 0 1.776-.226 2.335-.677.556-.45.834-1.055.834-1.808 0-.672-.23-1.238-.688-1.697-.457-.46-1.22-.886-2.285-1.28-2.898-1.082-4.346-2.665-4.346-4.748 0-1.36.507-2.477 1.524-3.345 1.012-.87 2.363-1.304 4.053-1.304 1.506 0 2.758.263 3.757.786l-.663 2.163c-.933-.508-1.988-.762-3.169-.762-.933 0-1.662.23-2.184.688-.442.41-.663.908-.663 1.5 0 .654.252 1.195.76 1.62.441.393 1.244.819 2.408 1.278 1.425.573 2.47 1.244 3.144 2.013.67.766 1.005 1.725 1.005 2.87zM115.74 34.061h-2.924v5.796c0 1.474.515 2.211 1.548 2.211.474 0 .867-.041 1.178-.123l.073 2.014c-.522.195-1.21.294-2.063.294-1.047 0-1.866-.32-2.457-.958-.588-.64-.884-1.712-.884-3.219V34.06h-1.742v-1.99h1.742v-2.187l2.605-.786v2.972h2.924v1.993zM128.93 37.941c0 1.835-.525 3.342-1.572 4.52-1.099 1.213-2.557 1.818-4.374 1.818-1.752 0-3.147-.581-4.187-1.743-1.04-1.162-1.56-2.629-1.56-4.397 0-1.85.535-3.365 1.609-4.543 1.071-1.18 2.517-1.77 4.334-1.77 1.752 0 3.161.582 4.225 1.745 1.018 1.128 1.525 2.585 1.525 4.37zm-2.752.086c0-1.1-.235-2.045-.711-2.832-.556-.953-1.351-1.429-2.381-1.429-1.066 0-1.876.477-2.432 1.429-.477.788-.712 1.747-.712 2.882 0 1.101.235 2.045.712 2.832.573.952 1.374 1.428 2.408 1.428 1.013 0 1.808-.485 2.381-1.453.49-.803.735-1.757.735-2.857zM137.552 34.403a4.605 4.605 0 0 0-.836-.073c-.933 0-1.655.352-2.162 1.057-.442.622-.664 1.409-.664 2.358v6.264h-2.65l.024-8.179c0-1.376-.033-2.628-.1-3.758h2.31l.098 2.284h.073c.28-.785.722-1.417 1.327-1.891.59-.427 1.229-.64 1.917-.64.245 0 .466.018.663.05v2.528zM149.414 37.475c0 .475-.031.876-.097 1.203h-7.957c.03 1.18.415 2.081 1.154 2.703.67.556 1.538.835 2.603.835 1.178 0 2.253-.188 3.22-.565l.415 1.841c-1.13.493-2.463.738-4.002.738-1.851 0-3.304-.545-4.362-1.633-1.055-1.089-1.584-2.55-1.584-4.384 0-1.8.492-3.3 1.476-4.495 1.03-1.277 2.422-1.915 4.174-1.915 1.72 0 3.023.638 3.907 1.915.7 1.014 1.053 2.268 1.053 3.757zm-2.53-.688c.018-.786-.155-1.466-.514-2.04-.46-.737-1.165-1.105-2.114-1.105-.867 0-1.573.36-2.111 1.081-.442.574-.704 1.261-.785 2.063h5.525z"/>
        </g>
        <g fill="#FFF">
            <path d="M58.465 17.268c0 1.464-.439 2.566-1.316 3.306-.812.683-1.967 1.025-3.462 1.025-.742 0-1.376-.032-1.907-.097v-8c.693-.112 1.44-.17 2.245-.17 1.425 0 2.498.31 3.222.93.811.7 1.218 1.702 1.218 3.006zm-1.374.036c0-.95-.252-1.677-.754-2.185-.503-.506-1.237-.76-2.204-.76-.41 0-.76.027-1.05.085v6.082c.16.025.455.036.881.036.998 0 1.768-.278 2.31-.832.543-.555.817-1.364.817-2.426zM65.754 18.546c0 .902-.257 1.641-.772 2.221-.54.596-1.256.893-2.149.893-.86 0-1.546-.285-2.057-.857-.51-.57-.766-1.291-.766-2.16 0-.908.263-1.653.79-2.231.528-.579 1.237-.869 2.13-.869.861 0 1.553.285 2.077.856.497.555.747 1.272.747 2.147zm-1.352.043c0-.541-.117-1.005-.35-1.392-.273-.468-.663-.702-1.169-.702-.524 0-.922.234-1.196.702-.233.387-.35.858-.35 1.415 0 .542.118 1.006.35 1.392.283.468.676.702 1.184.702.497 0 .888-.237 1.169-.714.241-.394.362-.862.362-1.403zM75.528 15.663l-1.835 5.864h-1.195l-.76-2.546a19.06 19.06 0 0 1-.471-1.895h-.024c-.113.644-.27 1.275-.471 1.895l-.808 2.546h-1.208l-1.725-5.864h1.34l.663 2.788c.16.659.292 1.287.398 1.882h.023c.097-.49.258-1.115.484-1.87l.833-2.8h1.062l.797 2.74c.193.668.35 1.312.47 1.931h.037c.088-.603.221-1.246.398-1.93l.711-2.74h1.28v-.001zM82.287 21.527h-1.304v-3.359c0-1.035-.393-1.552-1.182-1.552-.387 0-.7.141-.942.426-.24.285-.362.621-.362 1.006v3.478h-1.304v-4.188c0-.515-.016-1.073-.047-1.678h1.146l.06.917h.037c.152-.285.378-.52.675-.708.354-.219.75-.33 1.182-.33.548 0 1.003.177 1.365.532.45.434.676 1.082.676 1.943v3.513zM85.882 21.527h-1.303v-8.555h1.303zM93.558 18.546c0 .902-.258 1.641-.773 2.221-.54.596-1.256.893-2.148.893-.862 0-1.548-.285-2.058-.857-.51-.57-.765-1.291-.765-2.16 0-.908.263-1.653.79-2.231.527-.579 1.237-.869 2.129-.869.862 0 1.552.285 2.077.856.498.555.748 1.272.748 2.147zm-1.354.043c0-.541-.117-1.005-.35-1.392-.272-.468-.662-.702-1.167-.702-.525 0-.924.234-1.196.702-.234.387-.35.858-.35 1.415 0 .542.117 1.006.35 1.392.282.468.676.702 1.183.702.498 0 .887-.237 1.168-.714.243-.394.362-.862.362-1.403zM99.868 21.527h-1.17l-.098-.675h-.036c-.4.538-.972.808-1.713.808-.554 0-1.002-.178-1.339-.53-.306-.322-.459-.721-.459-1.195 0-.717.299-1.263.9-1.641.6-.378 1.443-.564 2.529-.555v-.11c0-.772-.406-1.158-1.218-1.158-.579 0-1.089.146-1.529.435l-.265-.856c.545-.338 1.218-.507 2.012-.507 1.532 0 2.301.809 2.301 2.426v2.16c0 .586.029 1.052.085 1.398zm-1.354-2.015v-.905c-1.438-.024-2.157.37-2.157 1.182 0 .306.082.535.25.688a.912.912 0 0 0 .637.23c.286 0 .554-.092.797-.272a1.11 1.11 0 0 0 .473-.923zM107.276 21.527h-1.157l-.06-.942h-.037c-.37.717-.999 1.075-1.883 1.075-.707 0-1.295-.277-1.762-.832-.466-.555-.7-1.275-.7-2.16 0-.949.253-1.718.761-2.305.491-.547 1.094-.821 1.81-.821.788 0 1.339.265 1.652.796h.025v-3.366h1.305v6.975c0 .571.015 1.098.046 1.58zm-1.35-2.473v-.978a1.485 1.485 0 0 0-.508-1.2 1.281 1.281 0 0 0-.873-.32c-.486 0-.867.193-1.147.58-.277.387-.418.88-.418 1.484 0 .58.134 1.05.401 1.412.282.386.663.578 1.14.578.428 0 .77-.16 1.03-.482.25-.298.374-.656.374-1.074zM118.427 18.546c0 .902-.258 1.641-.773 2.221-.54.596-1.254.893-2.148.893-.86 0-1.545-.285-2.058-.857-.51-.57-.765-1.291-.765-2.16 0-.908.262-1.653.79-2.231.527-.579 1.236-.869 2.13-.869.86 0 1.554.285 2.076.856.498.555.748 1.272.748 2.147zm-1.351.043c0-.541-.117-1.005-.35-1.392-.275-.468-.663-.702-1.17-.702-.523 0-.921.234-1.196.702-.234.387-.35.858-.35 1.415 0 .542.117 1.006.35 1.392.282.468.675.702 1.183.702.498 0 .89-.237 1.17-.714.24-.394.363-.862.363-1.403zM125.437 21.527h-1.303v-3.359c0-1.035-.393-1.552-1.183-1.552-.387 0-.699.141-.94.426-.241.285-.362.621-.362 1.006v3.478h-1.305v-4.188c0-.515-.015-1.073-.046-1.678h1.144l.061.917h.036c.153-.285.38-.52.676-.708.354-.219.749-.33 1.183-.33.546 0 1.001.177 1.363.532.452.434.676 1.082.676 1.943v3.513zM134.211 16.64h-1.435v2.848c0 .724.255 1.086.76 1.086.234 0 .428-.02.58-.06l.034.988c-.257.097-.595.146-1.012.146-.515 0-.916-.157-1.206-.47-.29-.314-.435-.841-.435-1.582V16.64h-.857v-.976h.857v-1.075l1.277-.386v1.46h1.436v.977h.001zM141.113 21.527h-1.305v-3.334c0-1.051-.393-1.577-1.18-1.577-.605 0-1.018.304-1.244.914a1.638 1.638 0 0 0-.061.47v3.526h-1.303v-8.554h1.303v3.534h.025c.41-.643.999-.964 1.761-.964.54 0 .987.177 1.341.531.442.442.663 1.099.663 1.967v3.487zM148.233 18.318c0 .233-.017.43-.048.59h-3.91c.017.58.204 1.022.566 1.328.33.274.757.41 1.28.41a4.32 4.32 0 0 0 1.581-.277l.204.906c-.556.241-1.21.362-1.968.362-.908 0-1.624-.268-2.141-.803-.52-.535-.778-1.252-.778-2.153 0-.885.24-1.621.724-2.208.506-.627 1.188-.94 2.05-.94.844 0 1.485.313 1.918.94.35.497.522 1.113.522 1.845zm-1.244-.338c.01-.387-.076-.72-.252-1.001-.227-.362-.571-.544-1.038-.544-.425 0-.772.177-1.037.531-.217.283-.345.62-.387 1.014h2.714z"/>
        </g>
    </g>
</svg>
