<?xml version="1.0" encoding="UTF-8"?>
<svg width="54px" height="91px" viewBox="0 0 54 91" version="1.1" xmlns="http://www.w3.org/2000/svg" xmlns:xlink="http://www.w3.org/1999/xlink">
    <!-- Generator: sketchtool 49.1 (51147) - http://www.bohemiancoding.com/sketch -->
    <title>3455D0A3-85CD-4E5D-8877-227EE3928CA1</title>
    <desc>Created with sketchtool.</desc>
    <defs>
        <polygon id="path-1" points="0 45.5 0 0 54 0 54 45.5 54 91 0 91"></polygon>
    </defs>
    <g id="Page-1" stroke="none" stroke-width="1" fill="none" fill-rule="evenodd">
        <g id="Home" transform="translate(-28.000000, -22.000000)">
            <g id="Page-1-Copy" transform="translate(28.000000, 22.000000)">
                <mask id="mask-2" fill="white">
                    <use xlink:href="#path-1"></use>
                </mask>
                <g id="Clip-2"></g>
                <path d="M49.060686,84.2947264 L5.88819261,84.2947264 C5.68238786,84.2947264 5.65171504,83.9966482 5.85356201,83.9550559 L33.4403034,78.2301724 C34.0408971,78.1053955 34.4713061,77.5755887 34.4713061,76.9625974 L34.4713061,15.8278523 C34.4713061,15.2356571 34.0705805,14.7197144 33.4986807,14.5731511 L5.53792876,7.42323597 C5.34300792,7.37372133 5.37862797,7.08554608 5.58047493,7.08554608 L49.060686,7.08554608 C49.2872691,7.08554608 49.4713061,7.26974057 49.4713061,7.49651765 L49.4713061,83.8837548 C49.4713061,84.1105319 49.2872691,84.2947264 49.060686,84.2947264 M7.97592348,0 C3.57091029,0 0,3.22439385 0,7.20141035 L0,83.7995799 C0,87.7765964 3.57091029,91 7.97592348,91 L46.0240765,91 C50.4290897,91 54,87.7765964 54,83.7995799 L54,7.20141035 C54,3.22439385 50.4290897,0 46.0240765,0 L7.97592348,0 Z" id="Fill-1" fill="#FFFFFF" mask="url(#mask-2)"></path>
            </g>
        </g>
    </g>
</svg>