<?xml version="1.0" encoding="UTF-8"?>
<svg width="26px" height="44px" viewBox="0 0 26 44" version="1.1" xmlns="http://www.w3.org/2000/svg" xmlns:xlink="http://www.w3.org/1999/xlink">
    <!-- Generator: sketchtool 49.1 (51147) - http://www.bohemiancoding.com/sketch -->
    <title>F8D58C62-456E-41A0-AA49-7CE3AC8D4F7F</title>
    <desc>Created with sketchtool.</desc>
    <defs>
        <polygon id="path-1" points="0 22 0 0 26 0 26 22 26 44 0 44"></polygon>
    </defs>
    <g id="Page-1" stroke="none" stroke-width="1" fill="none" fill-rule="evenodd">
        <g id="Artboard-Copy-6" transform="translate(-707.000000, -288.000000)">
            <g id="Group-4" transform="translate(685.000000, 273.000000)">
                <g id="Page-1-Copy" transform="translate(22.000000, 15.000000)">
                    <mask id="mask-2" fill="white">
                        <use xlink:href="#path-1"></use>
                    </mask>
                    <g id="Clip-2"></g>
                    <path d="M23.6218118,40.7578897 L2.8350557,40.7578897 C2.73596453,40.7578897 2.72119613,40.613764 2.81838171,40.5936534 L16.1008868,37.8255779 C16.3900616,37.7652462 16.5972955,37.5090759 16.5972955,37.2126845 L16.5972955,7.65302747 C16.5972955,7.36669133 16.4043536,7.11722457 16.1289944,7.04635877 L2.66641014,3.58925695 C2.57255937,3.56531581 2.58970976,3.42597832 2.68689534,3.42597832 L23.6218118,3.42597832 C23.7309074,3.42597832 23.8195177,3.51503939 23.8195177,3.62468985 L23.8195177,40.5591782 C23.8195177,40.6688286 23.7309074,40.7578897 23.6218118,40.7578897 M3.84025945,0 C1.71932718,0 0,1.55904758 0,3.48200061 L0,40.5184782 C0,42.4414312 1.71932718,44 3.84025945,44 L22.1597405,44 C24.2806728,44 26,42.4414312 26,40.5184782 L26,3.48200061 C26,1.55904758 24.2806728,0 22.1597405,0 L3.84025945,0 Z" id="Fill-1" fill="#FFFFFF" mask="url(#mask-2)"></path>
                </g>
            </g>
        </g>
    </g>
</svg>