<svg id="Layer_1" data-name="Layer 1" xmlns="http://www.w3.org/2000/svg" viewBox="0 0 300 105"><defs><style>.cls-1{fill:#fff;}</style></defs><title>bird</title><path class="cls-1" d="M65.63,39.28a.86.86,0,0,0-.25-.6L61.72,35l3.66-3.67a.85.85,0,0,0,.25-.6V17.93A17.94,17.94,0,0,0,47.73,0H.86a.85.85,0,0,0-.6,1.46l4,4V64.55l-4,4A.85.85,0,0,0,.86,70H47.73A17.94,17.94,0,0,0,65.63,52.1ZM57.1,30.74a.85.85,0,0,1-.25.6L53.2,35l3.66,3.67a.86.86,0,0,1,.25.6V56.36a.85.85,0,0,1-.25.6l-4.26,4.27a.85.85,0,0,1-.6.25H13.64a.85.85,0,0,1-.85-.85V9.39a.85.85,0,0,1,.85-.85H52a.85.85,0,0,1,.6.25l4.26,4.27a.86.86,0,0,1,.25.6ZM14.49,10.25V34.16H51.64l3.76-3.77V14l-3.76-3.77ZM46.88,25.62H23V18.79H46.88ZM121,69.5a.86.86,0,0,0-.18-.93l-4-4V5.48l4-4a.85.85,0,0,0-.6-1.46H94.6A.85.85,0,0,0,94,1.46l4,4V64.55l-4,4A.85.85,0,0,0,94.6,70h25.57A.85.85,0,0,0,121,69.5Zm-12.72-8.87a.85.85,0,1,1-1.7,0V9.39a.85.85,0,1,1,1.7,0ZM192.61,70h17a.85.85,0,0,0,.76-1.24l-9.06-18.16A17.87,17.87,0,0,0,210.51,35V17.93A17.94,17.94,0,0,0,192.61,0H145.74a.85.85,0,0,0-.6,1.46l4,4V64.55l-4,4a.85.85,0,0,0,.6,1.46H167a.85.85,0,0,0,.85-.85V52.95h15.67l8.29,16.61A.85.85,0,0,0,192.61,70ZM159.37,44.41V60.63a.85.85,0,1,1-1.7,0V9.39a.85.85,0,0,1,.85-.85h38.35a.85.85,0,0,1,.6.25l4.26,4.27a.86.86,0,0,1,.25.6V39.28a.86.86,0,0,1-.25.6l-4.26,4.27a.85.85,0,0,1-.6.25h-7.14l7.91,15.84a.85.85,0,0,1-.38,1.15.84.84,0,0,1-.38.09.85.85,0,0,1-.76-.47l-8.29-16.61ZM277.84,0H235.22a.85.85,0,0,0-.6,1.46l4,4V64.55l-4,4a.85.85,0,0,0,.6,1.46h42.61A22.21,22.21,0,0,0,300,47.82V22.2A22.21,22.21,0,0,0,277.84,0Zm13.64,52.1a.86.86,0,0,1-.25.6l-8.52,8.54a.85.85,0,0,1-.6.25H248a.85.85,0,0,1-.85-.85V9.39a.85.85,0,0,1,.85-.85H282.1a.85.85,0,0,1,.6.25l8.52,8.54a.85.85,0,0,1,.25.6ZM248.86,10.25V59.78h32.88l8-8V18.29l-8-8Zm32.38,37.58a3.42,3.42,0,0,1-3.41,3.42H257.38V18.79h20.45a3.42,3.42,0,0,1,3.41,3.42Zm-81-8.89V14l-3.76-3.77H159.37V42.7h37.15Zm-8.52-4.77H167.9V18.79h23.86ZM14.49,35.87V59.78H51.64L55.4,56V39.64l-3.76-3.77ZM46.88,51.24H23V44.41H46.88ZM6.66,95.88,2.73,88.77H0v12H2.65v-7l3,5.22h2l3-5.22v7h2.65v-12H10.59Zm17.46-7.38h-.51c-3.53,0-5.81,2.38-5.81,6.25S20.07,101,23.61,101h.51c3.53,0,5.81-2.38,5.81-6.25S27.66,88.51,24.12,88.51Zm0,10h-.51c-1.76,0-3-1.44-3-3.8s1.2-3.8,3-3.8h.51c1.76,0,3,1.46,3,3.8S25.88,98.55,24.12,98.55ZM38,88.77H34.4v12H38c4.22,0,6.81-2.28,6.81-6S42.19,88.77,38,88.77Zm0,9.58h-.84V91.16H38c2.46,0,4,1.37,4,3.59S40.43,98.35,38,98.35Zm11.19,2.4h8.14v-2.4H51.9V95.78h4.73V93.39H51.9V91.16h5.41V88.77H49.16ZM71.24,93c0-2.62-1.76-4.23-4.61-4.23H62.1v12h2.73V97.3h2l1.81,3.44h3.14l-2.22-4.23A4,4,0,0,0,71.24,93Zm-4.61,1.91H64.83V91.16h1.79a1.88,1.88,0,0,1,0,3.75Zm16.59,1.51-4.52-7.65H76v12H78.6V93l4.52,7.77h2.73v-12H83.21Zm20.32-7.65h-4v12h2.73V97.82h1.28c3,0,4.78-1.73,4.78-4.57S106.5,88.77,103.53,88.77Zm0,6.66h-1.28V91.16h1.28a1.86,1.86,0,0,1,1.89,2.12C105.43,94.62,104.71,95.42,103.53,95.42ZM121.62,93c0-2.62-1.76-4.23-4.61-4.23h-4.52v12h2.73V97.3h2l1.81,3.44h3.14l-2.22-4.23A4,4,0,0,0,121.62,93ZM117,94.91h-1.79V91.16H117a1.88,1.88,0,0,1,0,3.75Zm14.89-6.4h-.51c-3.53,0-5.81,2.38-5.81,6.25s2.27,6.25,5.81,6.25h.51c3.53,0,5.81-2.38,5.81-6.25S135.44,88.51,131.9,88.51Zm0,10h-.51c-1.76,0-3-1.44-3-3.8s1.2-3.8,3-3.8h.51c1.76,0,3,1.46,3,3.8S133.66,98.55,131.9,98.55Zm14.37-1-2.84-8.76h-3.07l4.35,12h3.07l4.35-12h-3.07Zm9.61,3.22h2.73v-12h-2.73Zm12.58-7.27c-1.95-.31-2.31-.65-2.31-1.51s.55-1.08,1.45-1.11h.72A1.57,1.57,0,0,1,170,92.68h2.83c.08-2.58-1.61-4.18-4.46-4.18h-.68c-2.65,0-4.27,1.37-4.27,3.73s1.3,3,4,3.56c1.23.26,2.85.43,2.85,1.57,0,.82-.61,1.28-1.64,1.28h-.72a1.83,1.83,0,0,1-1.95-2H163.1c-.08,2.7,1.72,4.36,4.78,4.36h.68c2.77,0,4.46-1.39,4.46-3.78C173,94.33,170.86,93.86,168.47,93.47Zm9.12,7.27h2.73v-12h-2.73ZM191.1,88.51h-.51c-3.53,0-5.81,2.38-5.81,6.25s2.27,6.25,5.81,6.25h.51c3.53,0,5.81-2.38,5.81-6.25S194.64,88.51,191.1,88.51Zm0,10h-.51c-1.76,0-3-1.44-3-3.8s1.2-3.8,3-3.8h.51c1.76,0,3,1.46,3,3.8S192.86,98.55,191.1,98.55Zm17.54-2.14-4.52-7.65h-2.73v12H204V93l4.52,7.77h2.73v-12h-2.65Zm12.53-2.94c-1.95-.31-2.31-.65-2.31-1.51s.55-1.08,1.45-1.11H221a1.57,1.57,0,0,1,1.62,1.83h2.83c.08-2.58-1.61-4.18-4.46-4.18h-.68c-2.65,0-4.27,1.37-4.27,3.73s1.3,3,4,3.56c1.23.26,2.85.43,2.85,1.57,0,.82-.61,1.28-1.64,1.28h-.72a1.83,1.83,0,0,1-1.95-2h-2.83c-.08,2.7,1.72,4.36,4.78,4.36h.68c2.77,0,4.46-1.39,4.46-3.78C225.73,94.33,223.56,93.86,221.17,93.47Zm24.82,3c0,1.51-.67,2.16-2,2.16h-.7c-1.32,0-2-.48-2-1.52s.73-1.54,2.15-1.54h.77V93.83l-1.64-2.51h4.71V88.77H239v1.73L241,93.37c-1.71.34-2.58,1.56-2.58,3.71,0,2.64,1.55,3.92,4.58,3.92h1.28c3,0,4.58-1.46,4.58-4.55v-.56h1.83V93.59H246Zm24.11-2.14A2.48,2.48,0,0,0,271.18,92c0-2-1.49-3.25-3.93-3.25H263v12h4.76c2.71,0,4.1-1.35,4.1-3.58A2.94,2.94,0,0,0,270.1,94.31ZM265.71,91h1.59c.68,0,1.11.48,1.11,1.3s-.43,1.3-1.11,1.3h-1.59Zm1.89,7.48H265.7V95.56h1.91a1.47,1.47,0,1,1,0,2.94Zm11.48-9.74-4.27,12h2.9l.65-2H283l.68,2h2.9l-4.44-12Zm0,7.63,1.54-4.86,1.59,4.86ZM299.48,93c0-2.62-1.76-4.23-4.61-4.23h-4.52v12h2.73V97.3h2l1.81,3.44H300l-2.22-4.23A4,4,0,0,0,299.48,93Zm-4.61,1.91h-1.79V91.16h1.79a1.88,1.88,0,0,1,0,3.75Z"/></svg>