<svg id="Layer_1" data-name="Layer 1" xmlns="http://www.w3.org/2000/svg" viewBox="0 0 208 220.01"><defs><style>.cls-1{fill:#fff;}</style></defs><title>duckcover</title><path class="cls-1" d="M43.71,73.17l.13-.6.38-.49.13-.59.23-.55.25-.55.1-.59.14-.58,0-.6,0-.6V66.82l0-.59.18-.58V64.46l0-.59-.05-.59.11-.59,0-.59,0-.59v-.58l-.08-.58.1-.59-.11-.59.08-.59L45.14,58l.12-.59.06-.59v-.58l-.07-.59,0-.59,0-.58V53.34l0-.59-.09-.58.12-.58L45.23,51l.07-.58,0-.58,0-.58,0-.59-.08-.58,0-.58v-.58l.1-.58-.07-.58,0-.58,0-.58.07-.58,0-.58.08-.58.05-.58-.16-.58.19-.58-.16-.58.14-.6v-.6l-.17-.58v-.6l-.05-.6L44.79,37l0-.6-.11-.59-.29-.53-.27-.53-.19-.56-.13-.6-.38-.47-.26-.54-.4-.45-.19-.59L42.09,31l-.39-.46-.38-.46-.48-.37-.35-.48L40,28.93l-.39-.43-.46-.35-.48-.34-.46-.36-.53-.25-.49-.31-.48-.35-.56-.17-.55-.2-.51-.31-.57-.15L34,25.61h-.59l-.57-.09-.57-.09-.57-.14-.58-.07H30.5l-.59.09-.59-.12-.59.1-.59-.11-.59.1L27,25.15l-.59,0-.59,0-.59,0-.59.15-.59,0h-.59l-.59-.15-.59.13h-.59l-.59,0h-.59l-.59-.05-.59,0-.59.06-.59-.05-.59.16L17,25.24l-.59,0-.55.05-.37.41-.15.55.07.59,0,.59.14.59-.13.59.14.59-.17.59.09.59.07.59-.19.59v1.18l0,.59v1.18l.1.59-.11.59.15.59-.17.59,0,.59v.59l0,.59,0,.59.12.59,0,.59,0,.59-.1.59.14.59,0,.59-.09.59,0,.59,0,.59.12.59.09.59,0,.59-.09.59v.59l.12.59-.13.59.09.59-.06.59v.59l-.05.59.07.59-.12.59.08.59,0,.59.07.59v.59l0,.59,0,.59,0,.59,0,.59-.16.59v.59l.16.59,0,.59v1.18l0,.59-.16.59v.59l0,.59,0,.59v.59l.12.59-.11.59,0,.59.21.59-.13.59.05.59,0,.59,0,.59.06.59-.16.59.18.59V71l-.21.59.08.59.11.59-.14.59.08.59-.07.59.08.59v.59l0,.59-.11.59v.59l-.06.59.15.59v1.17l-.18.59.11.59.38.49.6.05.59,0,.59-.08.59.06.59,0,.59.08.59,0,.59,0,.59-.16.59.13.59-.07h.59l.59,0,.59.06.59-.1.59.13.59.07.59-.16.59.09.59-.13.59.13.59.06.59,0,.59,0,.59,0,.58-.1h.58l.57-.14.58-.05.59,0,.58-.06.53-.26.6-.05.49-.37.54-.2.56-.16.55-.21.46-.37.47-.34.46-.35.54-.25.38-.45.43-.39.57-.24.34-.48.36-.48.36-.47.41-.43.38-.46.39-.46.21-.57.46-.43ZM37.34,53.81l.06.58,0,.58,0,.58,0,.58-.06.58.13.58-.18.58.06.58.14.58-.16.58.09.58,0,.58-.09.58,0,.58,0,.58,0,.58,0,.58.06.58,0,.58,0,.58-.21.59.08.6-.08.59-.18.57-.15.57-.26.54-.29.52-.23.55-.36.47-.22.58-.43.42-.38.46-.46.36-.44.38-.49.31-.44.38-.52.25-.46.38-.59.1-.51.31-.61,0-.56.18-.58.13-.59-.17H27.42l-.54,0h-.54l-.58-.07-.59-.09-.45-.4-.54-.28-.25-.58-.3-.52L23.45,72l0-.59,0-.59-.12-.59,0-.59,0-.59.1-.59-.14-.59,0-.59.09-.59,0-.59,0-.59-.12-.59-.09-.59,0-.59.09-.59v-.59L23.21,62l.13-.59-.09-.59.06-.59V59.6l.05-.59-.07-.59.12-.59-.08-.59,0-.59-.07-.59v-.59l0-.59,0-.59,0-.59,0-.59.16-.59v-.59l-.16-.59,0-.59V49.58l0-.59.16-.59v-.59l0-.59,0-.59V46l-.12-.59.11-.59,0-.59-.21-.59.13-.59-.05-.59,0-.59,0-.59-.06-.59.16-.59-.18-.59V39l.21-.59-.08-.59-.11-.59.14-.59L23.27,36l.07-.59,0-.6.17-.58.27-.55.48-.38.44-.38.53-.23.52-.31.6-.05h.54l.54.18.54,0h.54l.58-.07.58,0h.59l.55.2.54.21.51.28.54.21.48.32.57.19.38.45.49.32.42.41.43.42.34.5.44.42.21.58.22.55.39.48.12.59.29.54v.61l0,.59.09.59,0,.59,0,.59.09.59,0,.59.09.58,0,.59-.08.59-.06.58.12.59-.13.58.18.58,0,.59-.09.58-.06.58.1.58,0,.58,0,.58-.12.58.12.58v.58l-.22.58ZM207.9,175.32l-.36-.51-.07-.6-.25-.54-.25-.54-.14-.58-.22-.55-.06-.61-.26-.54-.26-.54-.18-.57,0-.61-.22-.55-.26-.54-.14-.58-.32-.52-.11-.59-.28-.53-.18-.56,0-.61-.34-.51-.16-.57,0-.61-.33-.51-.09-.59-.31-.52-.2-.55,0-.61-.27-.53-.11-.59-.27-.53-.17-.56-.29-.53-.19-.56-.11-.59-.24-.54-.2-.56-.22-.55-.15-.57-.13-.58-.14-.58-.2-.56-.34-.51,0-.88,0-.58.23-.56.51-.35.38-.48.46-.4.39-.47.37-.49.49-.37.4-.46.36-.5.42-.44.51-.36.41-.45.34-.52.47-.39.11-.62.27-.52.29-.51.1-.59.22-.55.06-.59.23-.56.1-.58,0-.59,0-.59.1-.59,0-.59.08-.56v-.56l-.14-.56,0-.56.06-.56,0-.6-.08-.59,0-.6-.14-.58-.08-.59,0-.61-.22-.56-.07-.6-.19-.57-.22-.56-.24-.55-.36-.49-.24-.55-.43-.44-.26-.54-.38-.46-.45-.4-.38-.46-.43-.4-.41-.42-.42-.4-.36-.48-.55-.24-.44-.4-.54-.24-.47-.35-.54-.23-.53-.26L198,121l-.59-.07-.58-.1-.56-.15-.55-.25-.58-.09h-.59l-.57-.18-.59,0-.59,0-.6.16-.6,0-.6-.1-.6-.08-.6.16-.6-.12-.6.07H188l-.6-.1-.6.05-.6,0-.6,0-.6,0-.6-.12-.6,0-.6,0-.6.16-.6-.12-.6.09-.6-.1-.6-.08-.6.12-.6-.06-.6.15-.58.16-.33.58,0,.6,0,.6-.08.6.17.59,0,.6-.06.59,0,.59,0,.59,0,.59.13.59-.13.59.18.59-.19.59.09.59.09.59,0,.59v.59l-.15.59.18.59-.06.59v.59l-.05.59.07.59v.59l-.1.59.09.59.08.59v.59l-.19.59.06.59.07.59,0,.59.11.59-.14.59.14.59,0,.59-.1.59-.08.59.08.59-.08.59,0,.59.09.59.06.59v.59l-.07.59-.09.59.06.59,0,.59,0,.59,0,.59-.07.59-.12.59.09.59.11.59-.18.59.18.59-.06.59-.12.59.2.59v.59l-.14.59,0,.59,0,.59.13.59-.18.59,0,.59v.59l.17.59,0,.59-.09.59.09.59-.17.59v.59l0,.59.07.59,0,.59,0,.59v.59l-.18.59.12.59-.14.59.06.59v.59l-.05.59V172l0,.59v.59l-.06.59.11.59-.07.59,0,.59.33.64.62.31.57,0,.57,0,.57,0,.57-.06.57.13.57-.14.57.17.57,0,.57,0,.57,0,.5-.16.32-.38.21-.48L185,175l.07-.6,0-.6v-.59l.06-.59L185,172v-.59l.05-.59,0-.59.12-.59L185,169l.05-.59,0-.59-.07-.59-.11-.59.2-.59,0-.59,0-.59-.19-.59.05-.59.05-.59v-.59l-.08-.59.1-.59,0-.59-.08-.59.16-.59-.16-.59v-.59l.07-.59-.07-.59.11-.59,0-.59-.05-.59.15-.59-.08-.58.16-.56.27-.51.33-.47.42-.41.58-.14.53-.19h.56l.61-.12.61-.07h1.21l.61.13.53.13.52.17.47.31.36.44.18.54.25.5.31.52.15.58,0,.61.18.56.37.5.2.56.13.58.14.58.12.58.2.55.18.56.34.51.14.58.28.53.14.58,0,.61.25.54.15.57.32.52.08.6.25.54.15.57.28.53.24.54.15.57.11.58.18.56.25.54.18.56.16.57.27.53.05.61.27.53.29.52.11.59.25.54.19.56.16.57.26.48.22.49.42.33.61.07.61-.08.61,0,.61-.08.61,0,.61,0h1.22l.61.07.61.1.42-.24.06-.41Zm-8.3-35-.22.54-.25.53-.22.55-.24.56-.53.33-.38.44-.44.37-.35.51-.53.27-.55.22-.54.22-.54.25-.6,0-.58.1-.59.1-.58-.16-.58.16h-.58l-.58-.07-.58.07-.58-.11-.58,0-.58.05-.58-.15-.55.07-.52-.17-.47-.28-.44-.33-.41-.43-.14-.58-.19-.53v-.57l-.12-.59-.07-.59V140l.13-.58.06-.58,0-.58-.06-.58,0-.58.1-.58L185,136l-.12-.58,0-.58.15-.58v-.58l-.19-.58v-.58l.06-.58.06-.58.08-.58v-.58l.06-.55,0-.58.27-.5.23-.53.43-.37.54-.16.48-.22h.54l.6-.13.6.12.6-.06.6,0,.6-.09.6,0,.6,0,.6.08h.6l.59,0,.58.08.57.15.59.1.48.36.56.19.55.24.41.43.48.35.42.44.35.5.39.47.24.56.17.58.11.59.2.57,0,.6.11.6,0,.58,0,.58v1.16l-.07.58-.1.58.13.58,0,.58v.59l-.19.57ZM30.26,159.46l0-.58-.41-.44-.57,0-.59-.11h-.59l-.59-.08-.58.1-.59-.05-.58,0-.58.09-.59-.06L24,158.3l-.58.11-.53.09-.28.45-.21.52.13.64-.1.64.09.64,0,.58,0,.58-.14.56-.09.57-.07.57-.29.51,0,.6-.18.55-.26.52-.44.42-.19.56-.31.49-.45.41-.39.46-.43.42-.49.35-.52.3-.56.22-.53.27-.59.12-.59.11-.6.11-.6-.11h-.61l-.57-.22-.54-.27-.57-.21-.51-.32-.42-.44-.52-.32-.33-.51-.42-.43-.31-.48-.35-.46-.19-.55-.41-.44-.2-.54,0-.59-.26-.52,0-.58-.29-.54.15-.6L8.26,162l-.07-.57.11-.59-.11-.59,0-.59v-.59l.1-.59-.13-.59v-1.17l.19-.58-.14-.59.06-.59,0-.59-.08-.59v-.59l.16-.59-.1-.59,0-.59.05-.59.12-.59,0-.58,0-.58-.05-.58-.13-.59.13-.59-.09-.58-.06-.58,0-.58.13-.58-.11-.58.12-.59v-.58l-.14-.58.15-.58-.09-.58-.1-.58.19-.58v-1.17l-.18-.58.13-.59-.06-.58-.07-.58.07-.58v-.58l.21-.55,0-.58.06-.58.17-.55.35-.49.19-.54.19-.55.33-.48.2-.56.41-.42.32-.53.43-.44.56-.28.39-.49.54-.29.61-.12.52-.34.62,0,.58-.21.61,0,.58.19h.59l.55.23.58.12.52.27.56.23.47.37.37.47.43.41.37.47.34.46.25.52.2.54.18.54.21.52.33.49,0,.6.14.55.16.55-.06.58.1.56,0,.57,0,.77.18.53.32.46.58.08.59-.08h.59l.59.12h.59l.59-.11.59.18.59-.21.59,0,.59.08.59-.09.52,0,.27-.42.21-.5,0-.6,0-.6-.07-.6.07-.6,0-.59,0-.6-.06-.59-.21-.57-.06-.59-.06-.59-.16-.57-.21-.56-.09-.59-.27-.53-.22-.55-.12-.6-.35-.49-.21-.57-.32-.51-.34-.49-.36-.48-.46-.4-.35-.49-.51-.34L25.6,124l-.44-.38-.5-.31-.43-.38-.48-.32-.46-.35-.47-.33-.43-.42-.58-.15-.49-.33-.57-.15-.52-.28-.57-.14-.56-.17-.56-.16-.6,0h-.58l-.57-.06-.57-.17h-.58L15,120l-.59-.13-.59.11h-.59l-.56.24-.58.08-.6,0-.59.07-.52.33-.6.08-.52.28-.53.25-.57.17-.49.33-.49.32-.48.35-.46.36-.54.27-.43.4-.41.42-.3.53-.5.35-.32.51-.46.4-.43.43-.24.56-.37.47-.17.59-.3.51-.39.48-.19.57-.18.57-.27.54v.62l-.16.57-.18.57-.12.59-.12.59-.08.6.1.6-.15.6.18.6-.2.6.09.6.1.59,0,.6v.59l-.15.59.19.59-.06.59v.59l-.06.59.07.59v.59l-.1.59.09.59.08.59v.59L0,145.9l.06.59.07.59,0,.59.11.59-.14.59.14.59,0,.59-.1.59-.08.59.08.59-.08.59L0,153l.09.59.06.59v.59l-.07.59L0,156l.07.59,0,.59,0,.59,0,.59-.07.59-.12.59.09.59.12.59L0,161.3l.19.59-.06.59-.12.6.23.58,0,.59-.07.61.08.59.15.58.27.55v.62l.17.57.21.56.4.48.28.52.2.57.38.47.17.6.33.5.39.46.43.42.43.42.43.41.41.41.3.53.52.29.37.48.51.3.48.34.47.35.51.29.52.27.55.21.54.23.53.26.59.07.55.22.57.16.6,0,.57.16.58.09.59,0,.59,0,.63-.06.59.12.58-.18.6.12.59-.06.57-.14.58-.09.55-.21.55-.22.59-.08.49-.36.56-.18.5-.31.5-.3.53-.26.42-.41.46-.36.49-.33.42-.4.51-.31.36-.47.44-.4.41-.44.32-.51.26-.55.5-.38.29-.52.31-.51.1-.62.3-.51.28-.52.21-.56.1-.59.26-.54.11-.58,0-.6.25-.56-.1-.61,0-.59.1-.59-.07-.59.12-.61,0-.61v-.6l-.11-.6ZM63.89,25.32l.06.59,0,.59,0,.59,0,.59-.06.59.13.59-.18.59.06.59.14.59-.16.59.09.59,0,.59-.09.59,0,.59,0,.59.05.59,0,.59L64,36l0,.59,0,.59,0,.59-.09.59,0,.59,0,.59.09.59v.59l0,.59-.17.59.18.59-.07.59-.08.61.08.6.11.59.12.59.12.59,0,.61.19.57.26.55.2.57L65,49l.39.48.26.54.22.57.28.54.36.49L67,52l.38.46.33.51.48.38.33.52.55.29.47.37.44.4.5.32.49.34.51.31.47.39.53.29.6.12.58.16.55.22.57.19.57.21.6,0,.59.07.59.07.6.1.6-.06.56.11.56-.1H80l.6,0,.6,0,.58-.24.59-.06.58-.14.62,0,.56-.22.55-.24.55-.24.58-.16.51-.31.61-.13.49-.36.47-.37.53-.29.36-.51.58-.25.35-.5.41-.43.41-.44.4-.45.36-.48.44-.42.32-.51.35-.49.28-.53.23-.56.23-.55.36-.5.13-.59.28-.55,0-.61.2-.57.15-.59.07-.6,0-.61.1-.6.07-.6-.15-.59.08-.6.1-.6-.17-.6.07-.6-.06-.6.18-.59-.16-.6.12-.59,0-.59-.1-.6.2-.59-.21-.6,0-.59.05-.6.12-.59L94.44,33l.08-.59,0-.59,0-.59-.08-.59,0-.59.1-.59,0-.59-.17-.59v-.59l.1-.59-.08-.59.13-.59-.14-.59,0-.59.13-.59-.05-.59V22.9l-.07-.59,0-.59,0-.59,0-.59v-.59l0-.59,0-.59v-.59l-.09-.59.14-.59v-.59l-.08-.59v-.59l-.15-.59.21-.59-.09-.59.05-.59v-.59l-.17-.59.14-.59,0-.59V9.85l-.08-.59,0-.59V8.07l-.14-.59.13-.59,0-.59.08-.59-.22-.59,0-.59.07-.59.08-.59-.11-.59.12-.59V1.55l-.13-.5L94,.77l-.49,0-.6-.11-.6,0-.6,0h-.6l-.6.08-.6-.1-.6.11L88.7.67l-.6.14L87.5.68l-.72.16-.27.71.07.6,0,.6,0,.6V4.53l0,.6.09.59-.12.6.08.59-.07.59,0,.6,0,.59,0,.6.08.59,0,.59v.59l-.1.59.07.59,0,.59,0,.59-.07.59.05.59-.08.59-.05.59.16.59-.19.59.17.59-.15.59,0,.59.12.59-.07.59,0,.59.15.59-.1.59-.05.59.11.59.06.59,0,.59-.14.59.12.59,0,.59.1.59-.18.59.06.59v1.19l.09.59-.09.59.07.59-.07.59v1.19l0,.59.07.59,0,.59-.1.59.08.59,0,.59-.13.59,0,.59.06.59.12.59V39l0,.59-.09.59,0,.59,0,.59.09.59-.14.61,0,.62-.2.59,0,.62-.28.56-.16.59-.22.58-.32.53-.19.61-.38.5-.39.48-.51.35-.34.52-.46.4-.52.32-.51.32-.57.21-.58.16-.57.2-.6,0-.6.19-.62-.1-.62-.06-.58-.2-.58-.2-.53-.31-.56-.25-.47-.39-.57-.29-.35-.52-.52-.37-.22-.55-.4-.41-.37-.44-.1-.59-.23-.51-.21-.52L72,44.7l-.14-.54-.1-.55-.18-.55.07-.57-.17-.56.18-.6,0-.6v-.6l0-.6,0-.6-.12-.6,0-.59,0-.6.1-.59L71.55,36l0-.6.1-.59,0-.6,0-.59-.12-.6-.09-.59,0-.59.09-.59v-.59L71.48,30l.13-.59-.09-.59.06-.59v-.59l.05-.59-.08-.59.12-.59-.08-.59,0-.59-.07-.59v-.59l0-.59,0-.59,0-.59,0-.59.17-.59v-.59l-.16-.59,0-.59V17.56l0-.59.16-.59v-.59l0-.59,0-.59V14l-.12-.59.12-.59,0-.59-.21-.59L71.6,11l-.05-.59,0-.59,0-.59-.06-.59.16-.59-.18-.59V6.88l.21-.59L71.6,5.7l-.11-.59.14-.59-.08-.59.07-.59-.08-.59V2.14l0-.59L71.42.92,70.8.69,70.2.63l-.61.15H68.37L67.77.6l-.61,0h-.61L65.95.7l-.6,0-.6.09-.61.13-.23.61-.08.6,0,.6,0,.6.16.6-.13.6.07.6v.59l0,.6-.06.59.11.59-.13.6-.07.59.16.6-.09.59.13.6-.13.59-.06.59,0,.59,0,.59,0,.59.09.59,0,.59.09.59,0,.59-.09.59-.06.59.12.59-.13.59.19.59,0,.59-.09.59-.06.59.1.59,0,.59,0,.59-.12.59.12.59v.59l-.22.59Zm50.28,3.62.05.59-.08.59.18.59-.19.59.14.59,0,.59v1.19l0,.59-.1.59,0,.59,0,.59,0,.59.06.59,0,.59-.14.59.08.59-.1.59.13.59-.07.59,0,.59V42l.1.59-.06.6,0,.6.06.6,0,.6.14.58.18.57.2.56.06.6.18.57.32.52.17.57.3.52.29.52.19.58.42.44.36.47.25.56.39.46.41.44.36.48.5.33.36.47.48.35.52.28.38.47.47.35.5.31.56.2.51.29.57.16.47.4.56.17.6,0,.55.22.56.17.58.09.6,0,.57.2.59,0,.59,0,.63,0,.59,0,.58-.07.59,0,.57-.16.59,0,.56-.19.56-.18.57-.13.57-.15.52-.27.53-.25.48-.33.56-.2.45-.39.49-.31.46-.36.54-.26.4-.44.49-.34.34-.49.37-.46.39-.45.4-.44.32-.5.47-.4.31-.51.31-.51.21-.56.26-.54.11-.6.22-.55.37-.5.05-.61.07-.59.07-.59.21-.57.11-.59.05-.59-.08-.6,0-.59.1-.6-.12-.61,0-.6-.1-.6.18-.6-.16-.55-.37-.4-.54-.13-.59.1-.59-.1-.59.07-.58-.07H139.9l-.58,0-.59.07-.58,0-.58-.1-.52.2-.3.42-.2.52,0,.64.07.64.12.64V42l-.06.58-.15.56-.13.56-.11.56-.07.58-.3.51-.12.57-.35.47-.19.55-.4.43-.29.49-.35.48-.44.41-.34.52-.5.35-.52.31-.6.13-.51.33-.58.15-.6,0-.6,0-.6-.08-.58-.13-.59-.08-.54-.25L126.6,50l-.48-.38-.5-.34-.4-.45-.41-.43-.34-.5-.4-.42L123.8,47l-.41-.43-.13-.58-.35-.48,0-.6-.24-.53-.2-.55.1-.6-.06-.57,0-.57-.05-.57V40.31l-.1-.59.12-.59-.16-.59.18-.59,0-.59v-.59l0-.58,0-.58-.13-.59,0-.59,0-.59.1-.59-.14-.59,0-.59.1-.59,0-.59,0-.59-.13-.58-.09-.58,0-.58.09-.59v-.59l-.12-.58.13-.58-.09-.58.06-.58V24.5l.06-.59-.08-.58.12-.58-.08-.58,0-.58-.07-.58v-.58l0-.58,0-.58,0-.58,0-.59.17-.58v-.58l-.15-.58.07-.58.06-.58.1-.57.09-.58.32-.51.18-.54.19-.54.3-.49.28-.5.21-.55.44-.4.42-.43.27-.58.55-.3.45-.41.5-.35.57-.22.56-.26h.63l.58-.27.62,0,.58.24h.59l.6,0,.51.33.57.18.46.38.52.3.43.41.42.42.27.54.32.47.23.52.39.44.23.53L136,13v.6l.16.54.1.55.17.55.09.56.12.56-.05.57,0,.77,0,.59.45.39.57.15.59-.16.59.13.59-.07h.59l.59,0,.59.06.59-.11.59.13.58.07.59-.16.55,0,.25-.47.21-.5.06-.6,0-.6,0-.6,0-.6-.1-.59v-.6l-.14-.58,0-.59v-.6l-.05-.6-.25-.55,0-.61-.36-.51-.19-.56-.15-.58-.2-.57-.37-.48-.33-.49-.34-.49-.23-.56-.45-.41-.38-.45-.22-.6-.48-.37-.46-.37-.45-.37-.4-.42-.44-.38-.43-.4-.55-.22L137,1.86l-.54-.24-.58-.14-.46-.39L134.85,1l-.53-.24-.53-.26-.58-.1L132.65.2l-.58-.05-.58,0h-1.16l-.58,0-.64,0L128.51,0l-.59.05-.59,0-.57.16-.57.11-.57.15-.61,0-.51.34-.57.13-.58.13-.52.29-.5.31-.49.32-.49.32-.55.23-.45.37-.4.43-.45.37L119,4l-.31.52-.42.42-.47.38-.42.43-.35.49-.23.57-.32.5-.38.47-.2.57-.39.48-.09.61-.19.56-.23.55-.14.58-.16.57-.12.58-.21.57-.1.59.07.61,0,.6-.05.59,0,.6-.08.6.06.6v1.19l-.07.59.07.59-.11.59.1.59v.59l-.06.59-.06.59.19.59,0,.59,0,.59-.16.59.07.59.05.59,0,.59-.08.59.06.59-.18.59Zm63.46,27.94.34.45.24.55.13.59.24.55.23.55.19.57.2.56.16.58.28.53.19.56.24.55.29.53.14.59.3.53.14.58.15.58.27.54.21.56.12.59.31.52.11.59.26.54.19.57.25.54.12.59.38.49.19.56.08.61.31.52.14.59.39.49v.63l.29.53.26.54.11.59.32.52.23.55.22.55.12.59.33.51.21.56.22.55,0,.6.38.44.39.37.6,0,.6-.08h.6l.6.16.6-.1.6,0,.6,0,.6.12.59,0,.59,0,.6-.05.59-.13.46,0L195.1,81l-.26-.54-.15-.57-.24-.54-.16-.57-.22-.55-.17-.57-.28-.52-.18-.57-.35-.5-.1-.6-.34-.5-.05-.61-.3-.52L192,73.3l0-.62-.21-.55-.22-.55-.25-.54-.22-.55-.21-.55-.31-.51-.11-.59-.36-.49-.05-.61-.23-.54-.22-.55-.19-.56-.24-.54-.33-.5-.2-.56-.18-.56-.12-.58-.34-.5-.23-.54-.13-.58-.19-.55-.18-.56-.33-.5-.3-.52-.2-.56-.13-.58-.21-.55-.33-.51-.09-.6-.3-.52-.16-.57-.22-.55-.16-.57-.28-.52-.1-.59-.29-.52-.17-.56-.28-.52-.21-.55-.25-.53-.24-.54-.18-.56-.26-.53-.06-.61-.22-.55-.36-.49-.19-.56-.13-.52v-.54l.07-.54.36-.43.28-.53.26-.54.33-.5.29-.52.19-.58.39-.46.33-.5.11-.62.41-.45.25-.54.26-.54.33-.49.24-.55.43-.44.13-.61.28-.53.47-.42.23-.56.19-.57.41-.45.22-.56.35-.48.22-.56.29-.52.26-.54.39-.46.28-.52.34-.49.16-.59.29-.52.3-.52.44-.43.27-.53.3-.51.21-.56.27-.53.22-.56-.4-.32-.59,0-.59-.08-.59,0-.59,0-.59.16-.59-.13-.58.07h-.59l-.58,0-.58-.06-.59.1-.58-.13-.51.26-.23.68-.41.56-.18.58-.4.46-.34.49-.25.54-.26.53-.31.51-.21.56-.31.5-.21.56-.31.5-.36.48-.34.49-.18.57L180,34l-.13.61-.3.51-.36.47-.34.49-.2.57-.25.54-.26.53-.39.46-.19.57-.28.52-.48.41-.2.57-.23.55-.25.53-.33.49-.31.51-.34.49-.17.58-.44.43-.23.54-.19.56-.5.33-.4.41-.55.18-.56,0-.5-.08-.34-.38-.24-.47-.13-.53-.08-.55,0-.59,0-.59,0-.59.09-.59,0-.59,0-.59-.09-.59v-.59l0-.59.17-.59-.18-.59.07-.59.09-.59,0-.59-.05-.59,0-.59v-.59l.11-.59,0-.59-.08-.59v-.59l.14-.59-.14-.59v-.59l.1-.59.06-.59v-.59l-.13-.59v-.59l.09-.59-.3-.59-.62-.32-.62.15-.62,0-.62,0-.61,0-.62,0h-.61l-.61-.12-.61,0-.61.12-.61.05-.59.16-.22.59-.08.6.06.6V28.5l-.07.6.07.59-.11.59.1.59v.59l-.06.59-.05.59.18.59,0,.59,0,.59L163,35l.07.59.05.59,0,.59-.08.59.05.59-.18.59.06.59,0,.59-.08.59.18.59-.18.59.13.59,0,.59v1.19l0,.59-.1.59,0,.59,0,.59,0,.59.06.59,0,.59-.13.59.08.59-.1.59.13.59-.07.59,0,.59v.59l.1.59-.06.59L163,54v.59l0,.59,0,.59.06.59.06.59-.11.59v.59l.11.59-.06.59,0,.59v.59l-.12.59.11.59,0,.59-.14.59v.59l0,.59-.07.59.12.59-.1.59,0,.59.1.59-.14.59,0,.59v.59l.11.59,0,.59.09.59-.19.59,0,.59.13.59-.07.59,0,.59,0,.59.12.59-.14.59.07.59.05.59,0,.59,0,.59,0,.59-.1.59.09.59L163,80l.06.59.22.63.6.27.62,0,.62-.05h.62l.61-.07.62.1.61-.09.61,0h.61l.61.14.61-.07h.52l.29-.42,0-.47V80l0-.59,0-.59.16-.59v-.59l0-.59-.07-.59V75.9l-.13-.59,0-.59.19-.59-.11-.59-.07-.59,0-.59.12-.59,0-.59V70.6l-.1-.59,0-.59.11-.59v-.59l-.15-.59.1-.59v-.59l.08-.59-.1-.59.05-.59.08-.62.08-.63.33-.55.34-.49.2-.57.32-.5.24-.55.4-.46.18-.58.37-.47.22-.56.26-.53.29-.51.36-.48.3-.49.37-.45.56-.14.53-.25L177,56l.46.36Zm-58.44,61.58,0-.58,0-.58-.15-.42-.42-.1-.52-.1-.52.1H117l-.52-.07-.46.14-.14.46-.06.75,0,.57-.11.57-.31.5-.51.3-.59,0-.61-.19-.58-.28-.52-.4-.11-.75.28-.51.33-.49.34-.49.2-.56.17-.57.35-.49.1-.59.25-.54.27-.53,0-.6.17-.56.25-.54.15-.57.1-.58,0-.59.23-.56.1-.58.08-.58-.07-.6,0-.59.09-.58-.2-.37-.37-.28h-.59l-.59,0-.59.05-.59,0-.59,0h-.59l-.59-.13-.59.09-.45.08-.15.44,0,.6-.08.6-.05.6-.07.6-.06.6-.11.59-.17.58-.07.6-.22.56-.22.56-.43.43-.53-.34-.27-.54-.32-.51-.3-.52-.31-.52-.19-.58-.36-.5-.15-.6-.25-.54-.28-.53-.23-.55-.29-.52.15-.7.53-.31.4-.46.49-.35.43-.42.44-.41.47-.38.37-.48.41-.44.43-.43.37-.47.43-.43.3-.52.35-.49.3-.52.21-.57.15-.59.32-.53.13-.59.13-.59-.06-.61.08-.59.05-.6v-.59l-.1-.58v-.59l-.13-.57-.2-.55-.07-.59-.32-.5-.25-.53-.24-.53-.37-.46-.29-.51-.42-.41-.45-.37-.39-.45-.54-.25-.51-.29-.53-.25-.55-.19-.57-.15-.55-.23-.59-.06-.59-.08-.59.07-.58.07-.58,0-.57.07h-.59l-.58.09-.55.2-.53.24-.53.24-.55.2-.48.33-.43.4-.47.34-.5.31-.41.42-.27.53-.34.47-.35.46-.32.49-.3.5-.21.54-.2.55-.05.59-.17.56,0,.58-.12.57-.17.57v.58l0,.58.11.59,0,.6.13.58.08.59.19.57.19.56.14.58.13.58.19.56.26.54.22.55.22.55.3.51-.27.69-.45.39-.43.41-.5.31-.42.41-.44.39-.44.39-.38.46-.42.41-.41.43-.4.44-.29.52-.34.49-.24.55-.24.54-.22.54-.22.55-.17.56-.2.56-.19.56v.6l-.09.58-.07.59-.07.59.07.6.06.6,0,.6.2.57.12.58.1.6.23.56.28.53.21.57.3.52.42.44.33.5.32.52.49.37.41.43.5.33.48.35.44.41.51.33.57.21.57.2.53.3.59.14.6.09.6.08.6,0,.6,0,.61.11.6-.14.6-.08.6,0,.59-.11.56-.23.6-.08.59-.15.53-.31.59-.17.48-.38.55-.25.53-.29.48-.36.67,0,.52.29.47.35.44.38.5.31.55.2.47.36.58.12.55.2.55.19.58.05.58,0h.59l.6,0,.55-.24.6,0,.51-.3.46-.36.46-.35.4-.42.44-.41.18-.58.27-.52.19-.56.18-.56L119,122l.07-.58.11-.58,0-.59-.06-.58V119Zm-16.94,1-.52.19-.54.2-.57-.06-.6-.09-.61,0-.54-.28-.58-.2-.41-.45-.33-.5-.27-.53-.14-.58-.2-.58,0-.61.09-.57.06-.57v-.58l.27-.52.09-.58.26-.51.35-.46.5-.26.53.3.19.58.24.56.32.51.31.52.18.59.3.52.32.52.3.52.32.51.35.49.21.58.41.46.09.51ZM105,98.06l-.25.5-.2.53-.39.42-.39.41-.31.48-.46.33-.49.23-.38-.41-.18-.61-.2-.6-.13-.62-.22-.61-.08-.64,0-.64,0-.57v-.58l.28-.51.14-.56.36-.45.48-.32.51-.25.57-.13.54.21.49.23.39.39.24.51.13.55.09.56-.16.55V97l-.14.55Zm58.5,104.31,0-.59,0-.6-.5-.34-.55-.2-.58,0-.59.1-.58-.14-.58,0h-.58l-.58.11-.58,0-.58.09-.58-.19-.58,0-.58.13-.58-.07-.58,0h-.58l-.58.12-.58-.14-.58.07-.58.05-.58,0-.58,0-.58,0-.58-.1-.58.09-.58-.07h-.6l-.59-.14-.5-.34-.42-.42-.42-.44-.29-.53-.24-.57,0-.62-.09-.59,0-.59v-.59l.14-.59-.07-.59.09-.59-.1-.59,0-.59v-.59l0-.59,0-.59.16-.59V190l0-.59-.07-.59v-.59l-.13-.59,0-.59.19-.59-.11-.59-.07-.59,0-.62.29-.55.32-.5.39-.45.39-.45.54-.26.59-.06.56-.07.59-.15.59.1h.59l.59.08.59-.1.59.05.59,0,.59-.09.59.06.59.05.59-.11.59,0,.59-.06.59.13.59-.13.59.09.59-.09.53-.13.37-.36.17-.53v-.63l0-.63.14-.62-.16-.62,0-.62v-.62l.18-.62-.13-.62-.14-.5-.33-.41-.55-.07h-.59l-.59,0-.59,0-.59-.05-.59.07-.59,0-.59,0-.59.08-.59-.08-.59.09-.59-.07-.59-.07-.59.06h-.59l-.59-.1-.59.11-.59-.1h-.56l-.53-.2-.52-.23-.38-.42-.54-.33-.29-.56,0-.62-.16-.59.08-.59-.19-.59.22-.59-.08-.59-.05-.59.11-.59-.11-.59,0-.59v-.58l.1-.58-.13-.59v-1.17l.19-.59-.13-.59.06-.59,0-.58,0-.61.18-.59.42-.45.3-.52.44-.42.55-.24.6-.05.57-.09.61,0,.61-.05.6-.13.6.13.6-.09.6-.06.6,0,.6.13.6-.11.6.11h.6l.6-.14.6.15.6-.08.6-.09.6.18h1.2l.6-.17.6.12.6-.06.6-.07.56-.06.34-.42.23-.55-.08-.63-.07-.63v-.63l.16-.63,0-.63-.07-.63,0-.63-.14-.63,0-.55-.43-.3-.52-.1-.6-.16-.6.15-.6,0-.59-.15-.59.15-.59-.1-.59.13h-.59l-.59-.16-.59.08-.59-.09-.59.08-.59,0-.59.1h-.59l-.59-.08-.59,0h-.59l-.59,0-.59,0-.59-.06-.59-.05H148l-.59.16-.59-.17-.59,0-.59.08-.59-.12-.59.07-.59-.05-.59,0-.59.08-.59-.1-.59,0-.59.08h-.59l-.59-.12h-.59l-.59.11-.6-.06-.26.53-.11.52-.08.59.09.59-.07.59.08.59-.12.59,0,.59,0,.59.07.59-.07.59,0,.59-.08.59v.59l.14.59,0,.59-.06.59,0,.59.05.59-.09.59.07.59v.59l-.14.59.09.59-.1.59v1.76l.1.59-.06.59.13.59-.1.59,0,.59.09.59,0,.59,0,.59,0,.59,0,.59-.15.59.13.59-.09.59.08.59-.08.59,0,.59,0,.59,0,.59.12.59.07.59v.59l-.13.59v.59l.06.59-.13.59.07.59,0,.59.16.59,0,.59-.1.59-.08.59.16.59-.12.59.07.59v.59l-.1.59.05.59,0,.59,0,.59,0,.59-.12.59,0,.59,0,.59.16.59-.13.59.09.59-.1.59-.08.59.12.59-.06.59.15.59,0,.59-.14.59,0,.59,0,.59-.08.59.17.59,0,.59-.06.59,0,.59,0,.59,0,.59.13.59-.13.59.18.59-.19.59.19.58.43.35.53.13h.6l.6.15.6-.18.6.06h.6l.6.05.6-.07h.6l.6.1.6-.09.6-.08h.6l.6.19.6-.06.6-.07.6,0,.6-.11.6.14.6-.14.6,0,.59.1.6.08.6-.08.6.08.59,0,.59-.09.59-.06h.59l.6.07.6.09.6-.06.59,0,.59,0,.59,0,.59.07.6.12.59-.09.59-.11.59.18.6-.18.56-.05.48-.37-.09-.61.11-.6,0-.6v-.59l.12-.59-.11-.59,0-.59.14-.59ZM73.7,178.16l-.12-.59-.07-.58,0-.58.12-.58,0-.58v-.58l-.11-.59,0-.58.12-.59v-.58l-.15-.59.11-.59v-.58l.08-.58-.1-.58.05-.58,0-.58-.09-.59.06-.59.05-.58-.13-.6v-.6l-.12-.59.05-.61-.23-.57,0-.61-.23-.56-.2-.56-.2-.56-.15-.58-.25-.55-.32-.51-.17-.59-.46-.42-.37-.47-.35-.48-.23-.58-.5-.36-.44-.41-.36-.47-.45-.38-.46-.37-.45-.38-.47-.36-.46-.37-.54-.24-.51-.3-.54-.23-.57-.15-.52-.28-.59-.09-.54-.23-.56-.2-.59,0-.58-.08-.58-.16L60,152l-.59-.12-.55.05-.55,0-.55,0-.54-.1-.58.19h-.59l-.6-.09-.57.19-.59,0-.53.32-.62-.06-.54.26-.53.25-.59.13-.48.36-.5.3L50,154l-.54.24-.4.45-.46.36-.44.38-.56.25-.32.51-.45.39-.38.47-.31.52-.36.47-.47.4-.23.56-.25.54-.31.51-.36.5-.18.57-.24.55-.12.59,0,.61-.26.56v.6l0,.6-.07.59-.17.59.1.6-.12.59v.59l.14.59-.15.59.09.59.1.59-.19.59v1.17l.18.59-.13.59.06.59.07.59-.06.59,0,.59-.14.59.08.59.07.59v.59l-.17.59,0,.58.07.59-.05.59.14.59-.09.58.1.58v.58l-.16.58.16.59,0,.59-.16.58.15.58-.11.58.13.58V187l-.16.58.08.59-.09.58.08.59,0,.59.11.59v.59l-.09.58.05.58v.58l0,.58,0,.59-.06.59-.05.59,0,.6.2.59-.13.61.1.6.18.58v.61l.21.57.12.59.24.55.3.53.15.59.3.53.37.48.31.51.23.57.36.48.46.4.25.58.57.3.4.43.37.46.51.31L49,207l.52.28.42.43.49.32.53.25.56.2.51.3.56.17.54.26.57.15h.6l.57.14.57.14.59,0,.59,0,.59.11.55-.07h.55l.55.14.54-.09.59.09.59,0,.59-.06.59-.08.56-.21.59-.08.53-.29.59-.09.54-.24.5-.32.54-.23.5-.3.52-.28.51-.3.57-.22.38-.47.51-.31.38-.46.48-.36.39-.46.41-.44.4-.45.26-.56.28-.54.32-.5.41-.46.27-.54.19-.58.35-.51.13-.6.21-.57v-.62l.14-.58.21-.57.16-.59-.11-.61.15-.59-.06-.6v-.59l.07-.59-.06-.59,0-.59,0-.59,0-.59-.05-.59v-.59l-.07-.59.11-.59-.09-.59,0-.59v-.59l.14-.59-.07-.59.09-.59-.1-.59,0-.59V184l0-.59,0-.58.16-.59v-.59l0-.59-.08-.58v-.58l-.13-.58,0-.58Zm-8.18,2.55-.09.59.08.59-.08.59,0,.59,0,.59,0,.59.12.59.07.59V186l-.14.59v.59l.07.58-.14.58.08.58,0,.59.16.59,0,.59-.11.59-.08.59.16.59-.12.59.07.59-.07.59v.59l-.18.57.07.62-.17.57-.32.52-.12.59-.33.5-.12.61-.51.38-.28.53-.33.48-.48.34-.36.47-.46.37-.5.31-.57.16-.51.32-.57.14-.58.09-.59-.17-.59.11-.57-.14-.58-.11-.59-.12-.54-.26-.42-.44-.53-.26-.48-.35-.38-.45-.29-.52-.39-.45-.29-.52-.34-.49-.38-.48-.1-.6-.27-.54-.21-.56-.1-.59.05-.61-.16-.59.1-.6V193l-.14-.59.15-.59-.09-.59-.1-.59.19-.59V188.9l-.18-.59.13-.59-.06-.59-.07-.59.06-.59,0-.59.14-.59-.08-.59-.07-.59V183l.17-.59,0-.59-.07-.59,0-.59-.14-.59.09-.59-.1-.59v-.59l.16-.59-.16-.59,0-.59.16-.59-.15-.59.11-.59-.13-.58v-.58l.16-.58-.08-.59.09-.59-.08-.59,0-.59-.11-.59v-.59l.09-.59-.05-.59v-.61l0-.61.12-.6.18-.59.2-.57.18-.58.07-.63.42-.47.27-.54.26-.55.46-.42.32-.49.45-.39.41-.42.42-.42.56-.22.52-.28.53-.28.58-.14.6,0,.59,0,.59-.09.55.26.62-.06.55.22.49.33.55.23.43.41.49.34.31.51.36.46.38.47.38.48.22.57.29.54.14.59.19.57.29.55.08.61,0,.61.07.6.07.61-.1.59.07.59v.59l-.14.59.09.59-.11.59v1.76l.1.59-.06.59.14.59-.1.59,0,.59.1.59,0,.59,0,.59,0,.59,0,.59-.15.59Zm53.66-17.07-.59.09-.59,0-.58-.08-.59-.06-.58.12-.58-.13-.58.18h-.58l-.58-.09-.68.11-.28.61-.07.59-.08.59-.23.56v.6l-.1.59-.32.54v.6l0,.6-.07.59-.16.57-.13.58-.17.57,0,.61-.29.55-.05.59,0,.61-.26.55,0,.6-.16.57-.2.57-.07.59-.14.58-.06.59-.07.59-.05.59-.09.58-.08.59-.15.57-.2.56-.09.59-.14.58,0,.6-.1.58-.08.58-.28.55.06.61-.17.57-.2.56-.06.59-.06.59-.07.59-.1.58-.22.56-.08.59,0,.6-.12.58-.25.56,0,.61-.12.58-.21.56-.16.57-.1.58,0,.6-.11.58-.19.57,0,.6-.25.56,0,.61-.09.59-.16.57-.08.59-.13.58-.12.58-.23.56-.13.58v.6l-.07.55-.25.5-.36.42-.5.21-.52.14-.61-.17-.42-.47-.19-.6-.22-.59v-.61l-.2-.57-.12-.58-.05-.59-.06-.59-.29-.55-.08-.59-.14-.58,0-.61-.17-.57-.16-.57-.14-.58,0-.6-.16-.57.06-.62-.17-.57-.16-.57,0-.6-.28-.55.07-.62-.24-.56-.13-.58-.12-.58-.1-.58-.14-.58v-.6l-.14-.58-.07-.59-.13-.58-.17-.57-.13-.58,0-.61-.19-.57v-.6l-.23-.56,0-.59-.06-.59-.12-.58-.2-.56,0-.59-.06-.59-.11-.58-.08-.59-.15-.57-.17-.57L97.5,176v-.6l-.1-.58-.22-.56,0-.59-.15-.57-.12-.58v-.6l-.22-.56-.13-.58,0-.61-.12-.58-.13-.58,0-.59-.23-.56v-.6l-.16-.57-.21-.56,0-.61-.09-.58-.11-.58-.41-.51-.6-.19-.59.09-.59-.19-.59,0-.59.13-.59-.07-.59,0-.59,0-.59.12-.59-.14-.59.07-.47.39v.67l.09.58.16.57,0,.6.2.56.05.59.18.56.15.57.07.59.07.58.17.57.13.57.19.56,0,.6.2.56.1.58.13.57,0,.6.18.56,0,.59.22.56.15.57.12.58.08.58.16.57,0,.61.13.57.1.58.19.56.11.58.24.55.1.58-.07.61.23.55.18.56.16.57v.6l.08.58.12.58.22.56.08.58v.6l.13.57.26.55,0,.6.12.58,0,.59.22.56.07.59.09.58.21.56.06.59.06.59.23.55.08.58.18.56v.6l.25.55,0,.59.2.56.15.57.11.58,0,.59.12.57.16.56,0,.6.28.54.16.57.11.58-.06.61.25.55.15.57,0,.59.14.57.13.57.1.58.1.58L97,209l.19.56.1.58.14.57.19.56,0,.59.21.56,0,.59.05.59.18.56.11.58,0,.59.22.55v.6l.17.56.09.58.16.57,0,.59.31.46.25.43.46.31.6-.11.6.08.6-.19.59.22.59-.08.59-.05.59.11.59-.11.59,0h.59l.59.1.59-.13h1.19l.58,0,.26-.52.22-.52.1-.59,0-.6.12-.58.27-.55,0-.6.08-.59.16-.57.23-.56.08-.59.16-.57.07-.59v-.61l.25-.56,0-.6L111,210l.13-.58.24-.56v-.6l.23-.56.12-.58,0-.61L112,206l0-.6,0-.6.3-.55.12-.58.12-.58-.05-.61.24-.56.06-.59.05-.59.17-.57.08-.59.25-.55,0-.59,0-.6.13-.58.27-.55.08-.59,0-.6.16-.57,0-.61.2-.56,0-.6.12-.58.27-.55,0-.61.15-.57.27-.55,0-.61.22-.56v-.61l.1-.58.27-.55,0-.6.2-.56,0-.6.13-.58,0-.6.12-.58.2-.56.07-.59.11-.58.09-.59.16-.57.18-.57.17-.57.11-.58,0-.61.29-.55.09-.59,0-.6.23-.56.05-.59.17-.57.07-.59,0-.6.21-.56.09-.59,0-.6.12-.58.23-.56.11-.58v-.6l.29-.55-.09-.62.13-.58.19-.57,0-.6.18-.57,0-.6.23-.56.13-.58.06-.65-.45-.37Zm18.56-35,.33-.49.51-.38.19-.57.4-.45.25-.54.06-.64.27-.52.28-.52.48-.43.08-.61.19-.56.25-.53.4-.48.21-.55-.06-.65.36-.5.27-.53-.07-.64.41-.49V118l0-.6.3-.53.23-.55.09-.59.08-.59,0-.59v-.6l.21-.56.18-.57.07-.59,0-.6-.07-.6,0-.59.16-.58-.08-.59.13-.58.15-.59,0-.59-.2-.59.18-.59-.18-.58,0-.59-.14-.58-.13-.58.21-.61,0-.59-.19-.57-.2-.57,0-.6-.09-.58-.2-.56,0-.59-.12-.58-.05-.59-.4-.51.05-.62-.16-.57-.14-.58-.3-.52-.31-.52.06-.65-.44-.47,0-.62-.39-.48-.2-.56-.18-.56-.21-.55-.17-.57-.23-.55-.48-.42-.17-.57-.32-.5-.34-.48-.12-.61-.27-.53-.49-.39-.25-.54-.46-.4-.24-.55-.22-.56-.45-.4-.22-.58-.54-.33-.4-.43-.4-.44-.25-.56-.41-.43-.42-.42-.42-.42-.46-.38-.31-.52-.43-.41-.49-.34-.32-.52-.59-.23-.37-.47-.36-.49-.44-.39-.6-.19-.43-.4-.53-.27-.36-.5-.54-.27-.49-.33L126,74l-.49-.33-.55-.23-.59-.16-.49-.34-.5-.32-.54-.24-.47-.38-.58-.17-.48-.37-.61-.08L120.2,71l-.53-.27-.53-.26-.56-.19L118,70l-.6-.08-.57-.16-.52-.31h-.62l-.54-.24-.61,0L114,69l-.57-.14-.57-.13-.55-.27h-.6l-.55-.3-.58-.11H110l-.57-.21h-.6l-.59,0-.58-.14-.59-.09-.6.16h-.59l-.59-.13-.59,0-.59-.05-.59.07-.59.14-.6-.25h-.6l-.59.07-.58.14L100,68l-.61-.17-.56.29-.59,0-.6,0-.55.3-.63-.17-.54.29-.55.23-.65-.16-.52.35-.57.17H93l-.52.34-.63,0-.53.27-.54.24-.61.05-.55.22-.55.22-.45.47L88,71l-.54.23-.52.28-.52.29-.46.4h-.66l-.46.39-.5.32-.58.18-.45.39-.52.29-.41.45-.58.19-.43.42-.44.4-.51.3-.56.23-.45.39-.4.44L78.5,77l-.46.37-.44.39-.45.38-.49.34L76.4,79l-.5.33-.53.31-.31.52-.42.42-.46.38-.36.47-.27.54-.48.37-.25.56-.41.43-.32.5-.46.4-.35.47-.41.44-.3.51-.35.48-.18.59-.2.57-.29.51-.35.48-.31.5-.39.46-.15.58-.29.51-.39.47,0,.65-.45.45-.05.62-.29.52-.27.53,0,.62-.46.47-.08.6-.11.58-.27.53-.19.56.06.63-.38.51,0,.62-.13.57-.25.55-.11.58.1.61-.15.57-.05.59-.15.57-.19.57.17.61-.22.57.14.6-.14.58-.2.58.16.59,0,.59-.09.59,0,.59.22.58-.22.6.15.58.09.59.07.59.13.58.11.58-.14.61.16.57.22.56,0,.59-.08.62.14.58.27.54.09.59.35.52v.61l.1.59.39.5.19.56.06.6.28.53.24.54.07.61.19.56.4.47.18.57.27.52.36.48.16.58.23.55.24.54.45.42.18.58.22.56.33.49.31.51.35.48.38.46.44.41.3.51.45.4.28.52.3.52.32.5.45.39.35.48.4.44.47.37.32.51.52.32.51.32.28.56.51.32.41.42.44.4.51.31.45.38.39.46.43.41.52.3.55.25.45.39.53.27.4.47.6.16.47.36.55.23.4.49.48.35.59.16.49.34.63.07.52.28.54.23.49.34.51.31.51.31.55.21.65,0,.55.21.49.4.54.24.62,0,.59.09.53.3.58.13.59.07.59.07.56.21.54.3.58.11.58.11h.6l.61-.09.58.14.59,0,.57.28.59,0,.59,0,.59.05.59,0,.6-.17.59.22.59-.08.59-.08.6.14.59-.14.6.05.59-.05.57-.29.61.16.57-.19.58-.12.61,0,.56-.22.58-.1.6,0,.6-.05.51-.4.58-.12.56-.19.65.11.52-.32.53-.27.57-.15.58-.13.52-.29.62,0,.54-.25.57-.16.54-.25.48-.37.57-.18.53-.27.5-.32.57-.18.42-.47.6-.14.48-.35.46-.38.53-.27.47-.36.5-.3.63-.13.37-.5.58-.2.42-.42.44-.4.42-.42.49-.34.52-.3.31-.54.47-.36.5-.33.32-.52.48-.35.42-.42.37-.46.4-.43.39-.44.44-.4.39-.44.31-.51.52-.34.23-.57.56-.32.35-.48.3-.51.29-.52.24-.55Zm-.63-19.4-.12.59-.05.59v.6l-.07.59-.08.59-.16.58-.11.58,0,.6-.32.54,0,.62-.39.51-.16.57-.11.58-.12.58-.09.6-.15.58-.22.55-.44.46-.11.59-.35.49-.21.56,0,.64-.27.53-.3.51-.5.4-.13.6-.26.53-.34.49-.48.39-.33.49-.11.65-.49.38-.43.42-.16.63-.57.3-.26.56-.3.53-.52.33-.48.37-.39.45-.39.45-.38.46-.37.47-.52.31-.51.31-.45.38-.41.44-.39.47-.47.37-.55.25-.43.43-.56.24-.57.21-.52.29-.41.47-.61.12-.45.42-.55.23-.49.35-.5.33h-.65l-.55.22-.51.33-.51.33-.61.07-.56.18-.53.28-.59.1-.57.16-.59.07-.51.39-.63-.07-.58.12-.59.08-.56.23-.57.22-.63-.19-.56.32-.61-.13-.58.23h-.6l-.6,0-.6,0-.59,0-.6.06-.6.11-.58-.29-.59-.08-.59,0-.6,0-.61.08-.56-.31-.62.13-.58-.14-.56-.22-.63.08-.52-.4-.62,0-.6-.05-.49-.46-.63,0-.57-.17-.51-.34-.62,0-.47-.42-.58-.14-.57-.19-.47-.39-.54-.25-.53-.26-.65,0-.43-.45-.51-.3-.53-.27-.52-.28L86,135.1l-.33-.58-.56-.23-.51-.31-.4-.46-.53-.28-.44-.39-.55-.26-.35-.51-.51-.32-.49-.35-.39-.46-.31-.53-.44-.4-.48-.37-.36-.47-.38-.46-.38-.45-.36-.47-.29-.52-.55-.33-.26-.55-.21-.57-.45-.41-.3-.51-.23-.55-.34-.49-.42-.44-.17-.59-.41-.45-.21-.56-.3-.52-.12-.6-.22-.55-.14-.58-.24-.54-.17-.57-.35-.51-.3-.53-.19-.57-.1-.59-.12-.58,0-.61-.26-.55-.09-.59,0-.61-.38-.54.14-.62-.27-.56v-1.2l-.24-.58.24-.61-.14-.59-.08-.59.1-.59,0-.59-.2-.6.27-.58-.14-.6.06-.59.19-.58.07-.59-.12-.62.15-.58.07-.59.19-.57.24-.55-.09-.63.31-.53v-.62l.27-.54.35-.51,0-.62.21-.55.3-.52.19-.56,0-.62.46-.45.15-.58.22-.55.25-.54.22-.56.25-.54.49-.41.24-.54L76.1,90l.38-.47.5-.38.33-.49.23-.56.4-.44.2-.6.5-.36.43-.41.22-.6.4-.45.51-.34.35-.48.4-.45.54-.3.47-.37.32-.53.5-.33.44-.4.4-.46.54-.27.51-.31.51-.31.38-.49.57-.21.55-.24.5-.32.52-.28.5-.31.5-.33.47-.38.56-.21.49-.36.58-.16.58-.15.58-.15.52-.3.57-.15.56-.2.54-.27.6-.05.53-.3.54-.27.63.06.55-.24.59-.08.59-.1.57-.19.59-.08.61,0h.6l.58-.13.58-.17.6,0,.59-.11.6.16.59-.19.6.06.6-.07.59.25.59.11.6-.09.58.13.62-.15.59.1.59.07.57.21.57.19.56.21.58.12.64-.12.57.17.51.37.55.23.62,0,.59.12.51.34.56.19.58.15.57.17.51.33.45.43.53.26.52.28.57.19.6.14.48.36.53.27.38.51.51.3.5.32.47.37.47.36.58.22.33.54.5.32.49.34.33.51.51.33.36.48.42.41.58.26.24.59.48.36.42.42.28.54.47.39.36.47.29.52.28.52.56.33.31.51.36.48.07.65.44.43.38.47.26.54.21.56.35.49.1.61.27.53.17.57.24.54.35.5.13.59.21.56.25.54.08.6.37.51v.62l.21.56.22.56.07.59.16.58.08.59-.15.62.28.56-.11.61.14.58.1.59.11.59,0,.6-.09.6.21.59,0,.6-.12.59Z"/></svg>