<svg id="Layer_1" data-name="Layer 1" xmlns="http://www.w3.org/2000/svg" xmlns:xlink="http://www.w3.org/1999/xlink" viewBox="0 0 300 300"><defs><style>.cls-1{fill:url(#linear-gradient);}</style><linearGradient id="linear-gradient" x1="79.51" y1="17.56" x2="220.38" y2="282.5" gradientUnits="userSpaceOnUse"><stop offset="0" stop-color="#e72d8f"/><stop offset="1" stop-color="#ec6b5b"/></linearGradient></defs><title>fukushu-footer</title><path class="cls-1" d="M276,106.47a11.08,11.08,0,0,1,0,14h12.37a6.94,6.94,0,0,0,6.72-8.68l0-.14a7,7,0,0,0-6.72-5.2Zm12.28,73.4H276a11.08,11.08,0,0,1,0,14h12.24a7,7,0,0,0,6.71-5.18l0-.14A6.94,6.94,0,0,0,288.28,179.87ZM272,82.36a7,7,0,1,0-7-7A7,7,0,0,0,272,82.36ZM219.87,27.11h2.34a4,4,0,0,0,2-7.51q-2.71-1.55-5.49-3A4,4,0,0,0,212.83,20v.06A7,7,0,0,0,219.87,27.11Zm54.49,86.37a7,7,0,1,0-7,7A7,7,0,0,0,274.36,113.47ZM222.31,273.15h-2.43a7,7,0,0,0-7,7v.06a3.85,3.85,0,0,0,5.64,3.28q2.9-1.49,5.73-3.1A3.87,3.87,0,0,0,222.31,273.15ZM272,217.9a7,7,0,1,0,7,7A7,7,0,0,0,272,217.9Zm-4.58-93.28H219.87a7,7,0,1,0,0,14h72a7,7,0,1,0,0-14Zm24.27,37.11H219.87a7,7,0,1,0,0,14h71.86a7,7,0,1,0,0-14Zm-31.32,25.15a7,7,0,1,0,7-7A7,7,0,0,0,260.42,186.88ZM219.87,50.2a7,7,0,1,0,0,14h39a7,7,0,1,0,0-14h-39Zm38.51,186.41h-39a7,7,0,1,0,0,14h39a7,7,0,1,0,0-14ZM11.63,120.48H24a11.08,11.08,0,0,1,0-14H11.67a7,7,0,0,0-6.72,5.2l0,.14A6.94,6.94,0,0,0,11.63,120.48Zm9.29,73.4a1.74,1.74,0,0,0,1.56-2.48,11.09,11.09,0,0,1,0-9.05,1.74,1.74,0,0,0-1.56-2.48H11.72A6.94,6.94,0,0,0,5,188.59l0,.13a6.94,6.94,0,0,0,6.71,5.16ZM28,82.36a7,7,0,1,0-7-7A7,7,0,0,0,28,82.36ZM77.79,27.11h2.34a7,7,0,0,0,7-7V20a4,4,0,0,0-5.86-3.42q-2.78,1.43-5.49,3A4,4,0,0,0,77.79,27.11ZM39.58,113.47a7,7,0,1,0-7,7A7,7,0,0,0,39.58,113.47ZM80.13,273.15H77.69a3.87,3.87,0,0,0-1.89,7.24q2.83,1.61,5.73,3.1a3.85,3.85,0,0,0,5.64-3.28v-.06A7,7,0,0,0,80.13,273.15ZM28,217.9a7,7,0,1,0,7,7A7,7,0,0,0,28,217.9ZM8.09,138.63h72a7,7,0,1,0,0-14h-72a7,7,0,1,0,0,14Zm24.45,37.11H80.13a7,7,0,1,0,0-14H8.27a7,7,0,1,0,0,14Zm-6.91,11.14a7,7,0,1,0,7-7A7,7,0,0,0,25.64,186.88ZM41.17,64.2h39a7,7,0,1,0,0-14h-39a7,7,0,1,0,0,14ZM54.5,250.64H80.57a7,7,0,1,0,0-14h-39a7,7,0,1,0,0,14H54.5ZM292.83,142.76h-73a11.14,11.14,0,1,1,0-22.28h38.87a0,0,0,0,0,0,0,11.08,11.08,0,0,1,0-14,0,0,0,0,0,0,0h-48a2.07,2.07,0,0,1-2.06-2.16,2.16,2.16,0,0,1,2.2-2h70a7.84,7.84,0,0,0,7.22-10.92l-.06-.15a7.85,7.85,0,0,0-7.22-4.78H210.77a2.07,2.07,0,0,1-2-2.44,2.15,2.15,0,0,1,2.15-1.7h52.86a0,0,0,0,0,0,0,11.08,11.08,0,0,1,0-14,0,0,0,0,0,0,0H219.87a11.14,11.14,0,1,1,0-22.28h19.27A7.38,7.38,0,0,0,243.82,33l-.17-.14a7.31,7.31,0,0,0-4.57-1.58h-19.2A11.17,11.17,0,0,1,208.7,20.1V20A11.57,11.57,0,0,0,201.15,9,150.65,150.65,0,0,0,98.85,9,11.57,11.57,0,0,0,91.3,20v.08A11.17,11.17,0,0,1,80.13,31.24H60.93a7.31,7.31,0,0,0-4.57,1.58l-.17.14a7.38,7.38,0,0,0,4.68,13.11H80.13a11.14,11.14,0,1,1,0,22.28H36.26a0,0,0,0,0,0,0,11.08,11.08,0,0,1,0,14,0,0,0,0,0,0,0h53a2.07,2.07,0,0,1,2.06,2.16,2.16,2.16,0,0,1-2.2,2H19.16a7.85,7.85,0,0,0-7.22,4.78l-.06.15a7.84,7.84,0,0,0,7.22,10.92H89.23a2.07,2.07,0,0,1,2,2.44,2.15,2.15,0,0,1-2.15,1.7H41.26a0,0,0,0,0,0,0,11.08,11.08,0,0,1,0,14,0,0,0,0,0,0,0H80.13a11.14,11.14,0,1,1,0,22.28h-73A7.17,7.17,0,0,0,0,149.93V150q0,.21,0,.43a7.21,7.21,0,0,0,7.23,7.16h72.9a11.14,11.14,0,1,1,0,22.28H41.26a0,0,0,0,0,0,0,11.08,11.08,0,0,1,0,14,0,0,0,0,0,0,0h48A2.07,2.07,0,0,1,91.3,196a2.16,2.16,0,0,1-2.2,2H19.22A7.83,7.83,0,0,0,12,208.93l0,.1a7.8,7.8,0,0,0,7.17,4.73h70a2.07,2.07,0,0,1,2.06,2.16,2.16,2.16,0,0,1-2.2,2H36.26a0,0,0,0,0,0,0,11.08,11.08,0,0,1,0,14,0,0,0,0,0,0,0H80.13a11.14,11.14,0,1,1,0,22.28h-19A7.38,7.38,0,0,0,56.5,267.3l.19.15A7.31,7.31,0,0,0,61.24,269H80.13A11.17,11.17,0,0,1,91.3,280.15v.08a11.48,11.48,0,0,0,7.58,10.83,150.65,150.65,0,0,0,102.23,0,11.48,11.48,0,0,0,7.58-10.83v-.08A11.17,11.17,0,0,1,219.87,269h18.89a7.31,7.31,0,0,0,4.55-1.57l.19-.15a7.38,7.38,0,0,0-4.66-13.11h-19a11.14,11.14,0,1,1,0-22.28h43.87a0,0,0,0,0,0,0,11.08,11.08,0,0,1,0-14,0,0,0,0,0,0,0h-53a2.07,2.07,0,0,1-2.06-2.16,2.16,2.16,0,0,1,2.2-2h69.87a7.8,7.8,0,0,0,7.17-4.73l0-.1a7.83,7.83,0,0,0-7.2-10.91h-70a2.07,2.07,0,0,1-2.06-2.16,2.16,2.16,0,0,1,2.2-2h47.84a0,0,0,0,0,0,0,11.08,11.08,0,0,1,0-14,0,0,0,0,0,0,0H219.87a11.14,11.14,0,1,1,0-22.28h72.9a7.21,7.21,0,0,0,7.23-7.16q0-.21,0-.43v-.07A7.17,7.17,0,0,0,292.83,142.76Zm-124-1.06a12,12,0,0,0,12-12V100a2.07,2.07,0,0,1,4.13,0v29.72a16.11,16.11,0,1,1-32.23,0V100a2.07,2.07,0,0,1,4.13,0v29.72A12,12,0,0,0,168.85,141.7Zm-16.2-95.57a2.07,2.07,0,0,1,4.13,0V75.85a12,12,0,1,0,24,0V46.13a2.07,2.07,0,0,1,4.13,0V75.85a16.11,16.11,0,0,1-32.23,0Zm-6.11,95.31a4,4,0,0,1,2.23-.54,1.84,1.84,0,0,1,1.24.67,1.89,1.89,0,0,1,.22,1.6,4.14,4.14,0,0,1-3.18,2.37,4.18,4.18,0,0,1-.53,0c-3,0-6.48-3.23-11.2-10.34-5.9-8.89-9.75-9.51-10.48-9.55v-4.57c17-8.55,14.16-20.48,14.13-20.61a2.07,2.07,0,0,1,4-1,17.89,17.89,0,0,1-.77,9.48c-2.25,6.56-7.46,11.14-12.54,14.2,2.45,1.52,5.55,4.41,9.11,9.77C140.48,135.55,144.35,142.08,146.53,141.44ZM115,46.81a2.07,2.07,0,0,1,2.07-2.07h25.2a2.07,2.07,0,1,1,0,4.13H119.16v19h19a2.07,2.07,0,1,1,0,4.13h-19V90.19a2.07,2.07,0,0,1-4.13,0Zm4.24,53.2v43.63a2.07,2.07,0,1,1-4.13,0V100a2.07,2.07,0,0,1,4.13,0Zm-.1,153a2.07,2.07,0,0,1-4.13,0V209.6a2.07,2.07,0,0,1,4.13,0Zm25.62.41a2.07,2.07,0,0,1-4.13,0V234.8H124.73v-4.13h15.92V209.19a2.07,2.07,0,0,1,4.13,0Zm-27.58-57a2.07,2.07,0,0,1,0-4.13h56.56a7,7,0,1,0,0-14H126.31a11.14,11.14,0,1,1,0-22.28h56.56a2.07,2.07,0,1,1,0,4.13H126.31a7,7,0,1,0,0,14h47.45a11.14,11.14,0,1,1,0,22.28Zm37.5,11.57h28.1a2.07,2.07,0,0,1,0,4.13H154.7a2.07,2.07,0,0,1,0-4.13ZM185,239.82a16.11,16.11,0,0,1-32.23,0V218a2.07,2.07,0,1,1,4.13,0v21.87a12,12,0,0,0,24,0V218a2.07,2.07,0,1,1,4.13,0Z"/></svg>