<svg id="Layer_1" data-name="Layer 1" xmlns="http://www.w3.org/2000/svg" viewBox="0 0 150 25"><defs><style>.cls-1{fill:#fff;}</style></defs><title>fukushu-header</title><path class="cls-1" d="M60.17,22.22c-.85.22-2.09-.1-4.24-3.89a14.75,14.75,0,0,0-4.25-5.13,13.46,13.46,0,0,0,5.67-7,12.46,12.46,0,0,0,.71-5.11A1.06,1.06,0,0,0,56.89.18,1.07,1.07,0,0,0,56,1.36c0,.31.69,7.54-7.52,11.13v2s2.71-.3,5.67,4.91c1.6,2.81,3.26,4.46,5,4.89a3.42,3.42,0,0,0,.85.11,2.75,2.75,0,0,0,1.31-.33,1,1,0,0,0,.54-1.2C61.62,22.32,61,22,60.17,22.22ZM44.7.17a1.06,1.06,0,0,0-1.05,1.07V23.79a1.05,1.05,0,1,0,2.11,0V1.24A1.06,1.06,0,0,0,44.7.17Zm-9.25,0A1.06,1.06,0,0,0,34.4,1.24V16.6a6.11,6.11,0,1,1-12.21,0V1.24a1.05,1.05,0,1,0-2.11,0V16.6a8.21,8.21,0,1,0,16.43,0V1.24A1.06,1.06,0,0,0,35.45.17Zm45.26,0a1.06,1.06,0,0,0-1.05,1.07V16.6a6.11,6.11,0,1,1-12.21,0V1.24a1.05,1.05,0,1,0-2.11,0V16.6a8.21,8.21,0,1,0,16.43,0V1.24A1.06,1.06,0,0,0,80.71.17Zm68.24,4.59a1.06,1.06,0,0,0-1.05,1.07V16.49a6.11,6.11,0,1,1-12.21,0V5.83a1.05,1.05,0,1,0-2.11,0V16.49a8.21,8.21,0,1,0,16.43,0V5.83A1.06,1.06,0,0,0,148.95,4.76ZM13.9.23H1.05A1.06,1.06,0,0,0,0,1.29V23.72a1.06,1.06,0,0,0,1.05,1.07,1.06,1.06,0,0,0,1.05-1.07v-9.4h9.69a1.07,1.07,0,0,0,0-2.14H2.11V2.36H13.9A1.06,1.06,0,0,0,15,1.29,1.06,1.06,0,0,0,13.9.23Zm96.88,0a1.06,1.06,0,0,0-1.05,1.07V23.72a1.05,1.05,0,1,0,2.11,0V1.29A1.06,1.06,0,0,0,110.77.23ZM125.52,0a1.06,1.06,0,0,0-1.05,1.07V12.18h-9.9v2.14h9.9v9.61a1.05,1.05,0,1,0,2.11,0V1.08A1.06,1.06,0,0,0,125.52,0ZM95.91,10.79a23.39,23.39,0,0,1-2.33-.54,4.64,4.64,0,0,1-3.05-2.88,3.24,3.24,0,0,1,.59-3,5.81,5.81,0,0,1,4-2.12,6.91,6.91,0,0,1,5.09,1.31,1,1,0,0,0,1.48-.18,1.08,1.08,0,0,0-.18-1.5A9,9,0,0,0,94.83.07,7.89,7.89,0,0,0,89.45,3a5.39,5.39,0,0,0-.94,5A6.72,6.72,0,0,0,93,12.29a25,25,0,0,0,2.54.6c2.14.42,4,.79,5.19,2.52a4,4,0,0,1,.59,3.58,5.49,5.49,0,0,1-3.37,3.39A6.43,6.43,0,0,1,90,19.72a1,1,0,0,0-1.41-.48,1.08,1.08,0,0,0-.47,1.43,8.13,8.13,0,0,0,7.46,4.23,9,9,0,0,0,3-.51,7.65,7.65,0,0,0,4.67-4.76,6.16,6.16,0,0,0-.87-5.46C100.72,11.74,98.16,11.23,95.91,10.79Zm38.67-9.07h14.32a1,1,0,0,0,1.05-.85A1,1,0,0,0,148.89,0H134.57a1,1,0,0,0-1.05.85A1,1,0,0,0,134.57,1.72Z"/></svg>