<svg id="Layer_1" data-name="Layer 1" xmlns="http://www.w3.org/2000/svg" viewBox="0 0 300 120"><defs><style>.cls-1{fill:#fff;}</style></defs><title>goodness</title><path class="cls-1" d="M297.27,17c-3.78,0-11.28,7.11-22.91,21.75-4.81,6.05-7.6,9.55-8.29,10.39l-.12.14v.18a2,2,0,0,0,.54,1.09c.19.25.28.39.32.46a13.7,13.7,0,0,0,.13,3.78C268,58.89,271.15,61,276.3,61h.14A16,16,0,0,0,288,56.44l.23-.25a24.18,24.18,0,0,1,.31,8.57c-1.5,10.63-10.66,16.44-20.19,19.86-10.83,3.89-23.15,4.31-34.51,4a321.76,321.76,0,0,1-34.33-2.94C172.05,81.92,93.17,68,71.33,64.71c-12.17-1.85-25.28-3.79-36.76-1.44,1.76-4.12,5.35-10.84,9-17.27,2.76-4.9,5.17-9,7.14-12.08,2.94-4.36,5.16-7.58,6.61-9.56l.1-.13v-.17c0-1-1.63-1-2.41-1s-1.69.69-3,2.23q-.81,1.22-1.33,2.07a9,9,0,0,0-2-3.67,7.54,7.54,0,0,0-5.45-2.09c-5.42,0-11,3.66-16.46,10.87-5.22,6.81-7.86,13.11-7.86,18.72a10.72,10.72,0,0,0,1.65,6,6.14,6.14,0,0,0,5.42,3c1.82,0,4.3-1,7.55-3.15l-3.4,6.44c-3.12.82-5.2,1.59-6.45,2,0,0-23.06,9.83-23.67,27.61C0,98.8,4.66,100,7.32,100c5.24,0,11.12-6.3,18-19.28q3.91-7.39,7.19-13.5c.13-.08.13-.33.37-.33,14.53-2.68,24.39-1,43.87,1.73,14.37,2.05,80.85,13.6,100.12,16.69,5.41.87,10.8,1.89,16.24,2.53,25.9,3.05,42.12,5.58,66.37,1.92,17-2.57,36.6-12.65,35.16-32.57a18.41,18.41,0,0,0-2.3-7.77,20.87,20.87,0,0,0,1-6.56,42.11,42.11,0,0,0-1-7.66,40.74,40.74,0,0,1-1-7.07c0-5,2.47-5,3.29-5a4,4,0,0,1,.9.17,4.39,4.39,0,0,0,1.11.21,3,3,0,0,0,2.47-1.29,4.32,4.32,0,0,0,.92-2.63A2.42,2.42,0,0,0,297.27,17Zm-273,58.61C17.22,89.86,11.84,97.47,7.8,97.47c-2.6-.09-2.49-4.32-2.49-4.32,0-3.83,2.24-9.25,7.88-15.77A30.74,30.74,0,0,1,27.88,68C26.79,69.84,25.6,72.94,24.29,75.61Zm9.25-23c-2.89,2.54-5.19,3.83-6.82,3.83-2.58,0-3.83-1.73-3.83-5.3,0-4.6,2.3-10.07,6.84-16.24,4.76-6.45,9.37-9.72,13.7-9.72,2.43,0,3.56,1.35,3.56,4.26,0,2.32-1.75,6.39-5.19,12.11C38.55,46.9,35.77,50.61,33.54,52.59ZM285.92,53a12,12,0,0,1-9.44,4.16,6.79,6.79,0,0,1-4.15-1.31,4.22,4.22,0,0,1-1.85-3.6,7.92,7.92,0,0,1,2.41-5.34,7,7,0,0,1,5-2.59c3.93.49,7.09,4.06,8.84,7.67C286.48,52.31,286.21,52.65,285.92,53Zm3.38-7.44a18.47,18.47,0,0,0-9-4.51,16.5,16.5,0,0,0-2.64-.43c2.88-3.4,6.14-7.34,9.71-11.71,1.77,10.78,2.15,13.68,2.15,14.19A17.4,17.4,0,0,1,289.3,45.53ZM53.5,51.9c0,6.09,2.6,9.17,7.73,9.17,4.15,0,8.56-2.72,13.09-8.09,1.12-1.34,2.17-2.66,3.13-3.93a8.55,8.55,0,0,0,6.19,2.43,12.77,12.77,0,0,0,7.82-3A15.59,15.59,0,0,0,91,51.9c0,6.09,2.6,9.17,7.73,9.17,4.15,0,8.56-2.72,13.08-8.09,1.12-1.34,2.17-2.66,3.13-3.93a8.55,8.55,0,0,0,6.19,2.43,12.76,12.76,0,0,0,7.82-3.05,20,20,0,0,0-.36,3.68c0,5.94,2.43,9,7.24,9,3.37,0,7.59-3,12.86-9.13A10.63,10.63,0,0,0,148.6,53c0,5.33,2.22,8,6.59,8,3.05,0,6.65-1.81,10.73-5.38-1.11,2.15-1.31,2.94-1.31,3.36,0,2,1.06,2.35,1.7,2.35a2.11,2.11,0,0,0,1.9-1.24c5.51-9.79,10.11-17.44,13.67-22.75,5.31-7.9,9.77-11.91,13.23-11.91,1.91,0,2.75.81,2.75,2.63,0,1.17-1.05,4.28-6.06,12.43-4.18,6.81-6.21,11.38-6.21,14A6.4,6.4,0,0,0,187.25,59a5.71,5.71,0,0,0,4.39,1.82,12.28,12.28,0,0,0,4.59-1.18c2.76-1.18,6.64-4.18,11.55-8.93.42-.41.81-.8,1.18-1.19,0,.42,0,.84,0,1.25a11.32,11.32,0,0,0,2.22,7,7.93,7.93,0,0,0,6.53,3.29c4.43,0,9.29-2,14.42-6,1.26-1,2.43-1.94,3.52-2.9a10.13,10.13,0,0,0,.18,2.57c1.06,4.1,4.22,6.18,9.37,6.18h.14a16,16,0,0,0,11.53-4.53,18.23,18.23,0,0,0,5.36-13.58,42.13,42.13,0,0,0-1-7.66,40.79,40.79,0,0,1-1-7.07c0-5,2.47-5,3.29-5a4,4,0,0,1,.9.17,4.39,4.39,0,0,0,1.11.21,3,3,0,0,0,2.47-1.29,4.32,4.32,0,0,0,.91-2.63A2.42,2.42,0,0,0,266.13,17c-3.78,0-11.28,7.11-22.91,21.75l-2.64,3.32a9.21,9.21,0,0,0-.83.9,54.28,54.28,0,0,1-10.16,9.6c-4.41,3.2-8.18,4.83-11.2,4.83a4.8,4.8,0,0,1-4.05-1.91A7,7,0,0,1,212.93,51a13,13,0,0,1,.74-4.88h1.41c5.12-.07,10.35-2.13,15.55-6.11,5.5-4.2,8.28-8.65,8.28-13.24,0-3.84-2-5.87-5.77-5.87s-7.91,2.42-12.73,7.19-8,9.35-9.78,14a17.07,17.07,0,0,0-2.22,2.61l-2.66,2.82a49.21,49.21,0,0,1-6.28,5.63c-3.22,2.48-5.63,3.74-7.17,3.74-1.75,0-2.53-.84-2.53-2.74s2-6.14,5.92-12.54c4.08-6.66,6.07-11,6.07-13.24A6.79,6.79,0,0,0,200,23.7a5.91,5.91,0,0,0-4.56-2c-1.65,0-3.84.84-6.74,2.61-1.59,1.35-3,2.57-4.17,3.64V27.1c0-2.35-1-2.84-1.76-2.84a2,2,0,0,0-2.13,2l-.21,2.48a56.2,56.2,0,0,1-4,8.78l-3,5.18a2.61,2.61,0,0,0-.55.48c-4.82,5.48-7.43,8.42-7.74,8.73-3.68,3.69-6.77,5.56-9.19,5.56-1.55,0-3.61-.51-3.61-4.92,0-2.75,1.6-7,4.76-12.6,2.74-4.57,4.69-7.74,5.8-9.43C180.7,2.06,180.7,1.63,180.7,1.32S180.59,0,179.16,0c-1.17,0-2.25.81-3.21,2.39-3.08,4.93-5.22,8.31-6.37,10.06-4.62,7.24-7.66,12-9,14.21a8,8,0,0,0-7.24-4.18c-5.7,0-11.4,3.68-16.93,10.92A46.52,46.52,0,0,0,131,42c-3.63,3.9-6.93,5.88-9.81,5.88-3.45,0-3.7-1.35-3.72-2,4-7,5.91-12.25,5.91-16,0-4.9-2.5-7.49-7.24-7.49-4.28,0-8.95,2.49-13.87,7.41a41.51,41.51,0,0,0-8.59,12c-3.69,4-7,6.06-10,6.06-3.45,0-3.7-1.35-3.72-2,4-7,5.91-12.25,5.91-16,0-4.9-2.5-7.49-7.24-7.49-4.28,0-8.95,2.49-13.87,7.41a40.27,40.27,0,0,0-9.28,13.6A24.81,24.81,0,0,0,53.5,51.9Zm188.26-5a6.94,6.94,0,0,1,5.05-2.6,4.16,4.16,0,0,1,2,.41,5,5,0,0,1,.5.46,1.79,1.79,0,0,0,1.23.64c.4,0,1.32-.16,1.32-1.65,0-2.17-1.81-3.37-5.4-3.56,2.88-3.4,6.14-7.34,9.71-11.71,1.77,10.78,2.15,13.68,2.15,14.19a14.47,14.47,0,0,1-3.56,9.9,12,12,0,0,1-9.44,4.16,6.79,6.79,0,0,1-4.15-1.31,4.22,4.22,0,0,1-1.85-3.6A7.92,7.92,0,0,1,241.76,46.89ZM217,38.42a50.9,50.9,0,0,1,7-8.36c3.72-3.64,6.64-5.49,8.7-5.49,1.64,0,2.37.73,2.37,2.37,0,2.66-2,5.85-5.81,9.46-4.19,3.95-8.68,6-13.32,6.16h-1.07A32.13,32.13,0,0,1,217,38.42Zm-77.8-2.74c4.73-6.51,9.42-9.81,13.94-9.81,2.88,0,4.22,1.23,4.22,3.88,0,1.67-1.66,5.2-4.93,10.51C145.56,51.46,140,57.13,136,57.13c-1.53,0-3.57-.51-3.57-5C132.48,47.39,134.75,41.85,139.23,35.68Zm-37.13,0C107,29.29,111.74,26,116.18,26c2.35,0,3.45,1.22,3.45,3.83a8.92,8.92,0,0,1-.86,4.36l-1.83.64-.12.06a8.73,8.73,0,0,0-4,7.8c0,2,0,2.46.05,2.64s-.21.75-1.46,2.3a62.21,62.21,0,0,1-4.68,5.27c-3,2.89-5.61,4.36-7.89,4.36C96.26,57.29,95,55.56,95,52,95,47.33,97.38,41.85,102.1,35.71Zm-37.49,0C69.52,29.29,74.25,26,78.69,26c2.35,0,3.45,1.22,3.45,3.83a8.93,8.93,0,0,1-.86,4.36l-1.83.64-.12.06a8.73,8.73,0,0,0-4,7.8c0,2,0,2.46.05,2.64s-.21.75-1.46,2.3a62,62,0,0,1-4.68,5.27c-3,2.89-5.61,4.36-7.89,4.36-2.61,0-3.88-1.73-3.88-5.29C57.5,47.33,59.9,41.85,64.61,35.71Zm-5.68,74.08h.38c.21,0,.26.07.26.38v4.21c0,.3-.05.38-.26.38h-.38v1.1h3.64v-1.1h-.46c-.19,0-.26-.08-.26-.38V113h.66c.29,0,.38.14.38.5v.26h1v-2.57h-1v.26c0,.36-.09.46-.38.46h-.66v-2.11h1c.56,0,.71,0,.91.44l.18.5H65v-2h-6Zm15.17,4.48a1.75,1.75,0,0,0-1.37-1.88,1.66,1.66,0,0,0,1.49-1.7c0-1.41-.92-2-2.64-2H67.48v1.1h.38c.19,0,.26.09.26.38v4.2c0,.3-.06.39-.26.39h-.38v1.1H71v-1.1h-.38c-.19,0-.26-.09-.26-.39v-1.51h.39c.69,0,.83.42.89,1.09.09,1,.43,1.91,1.33,1.91h1.69v-1.1h-.15C74.22,114.75,74.12,114.62,74.1,114.26Zm-3.32-2.34h-.43V109.8h.56c.75,0,1,.28,1,1S71.63,111.92,70.78,111.92Zm11.38,2.38c-.19.42-.34.44-.9.44H80v-2h.59c.28,0,.38.14.38.5v.27h1V111h-1v.26c0,.36-.1.45-.38.45H80v-1.9h1.2c.56,0,.72.05.91.44l.19.5h1v-2H77.08v1.1h.38c.21,0,.26.07.26.38v4.21c0,.3-.05.38-.26.38h-.38v1.1h6.33v-2h-1Zm7.64-3c-1-.26-1.5-.33-1.5-.87s.36-.69,1-.69a2.83,2.83,0,0,1,.88.13v.87h1.68V109a6.39,6.39,0,0,0-2.57-.5c-2,0-3.09.94-3.09,2.43s.91,1.88,2.18,2.2c1.07.26,1.57.33,1.57.95,0,.44-.39.7-1,.7a3.15,3.15,0,0,1-1-.16v-1H86.23v1.8A6.77,6.77,0,0,0,89,116c2.16,0,3.1-1,3.1-2.45S91,111.63,89.8,111.33Zm9.28-1.54h.35c.19,0,.25.07.25.38v1.53H97.56v-1.53c0-.3.07-.38.26-.38h.33v-1.1H94.64v1.1H95c.21,0,.26.07.26.38v4.2c0,.31-.05.39-.26.39h-.38v1.1h3.51v-1.1h-.33c-.19,0-.26-.08-.26-.39v-1.63h2.12v1.63c0,.31-.05.39-.25.39h-.35v1.1h3.51v-1.1h-.38c-.19,0-.26-.08-.26-.39v-4.2c0-.3.06-.38.26-.38h.38v-1.1H99.08Zm10.66,0h.38c.21,0,.26.07.26.38v4.21c0,.3-.05.38-.26.38h-.38v1.1h3.64v-1.1h-.46c-.19,0-.26-.08-.26-.38V113h.66c.29,0,.38.14.38.5v.26h1v-2.57h-1v.26c0,.36-.09.46-.38.46h-.66v-2.11h1c.56,0,.71,0,.91.44l.18.5h1.06v-2h-6Zm12.32-1.25a3.56,3.56,0,0,0-3.85,3.74A3.47,3.47,0,0,0,122,116a3.52,3.52,0,0,0,3.8-3.72A3.45,3.45,0,0,0,122.06,108.54Zm1.38,4c0,1.55-.46,2.17-1.43,2.17s-1.43-.6-1.43-2.17V112c0-1.56.46-2.2,1.44-2.2s1.42.64,1.42,2.2Zm8.68-4a3.56,3.56,0,0,0-3.85,3.74A3.47,3.47,0,0,0,132,116a3.52,3.52,0,0,0,3.8-3.72A3.45,3.45,0,0,0,132.12,108.54Zm1.38,4c0,1.55-.46,2.17-1.43,2.17s-1.43-.6-1.43-2.17V112c0-1.56.46-2.2,1.44-2.2s1.42.64,1.42,2.2Zm8.38-3.83h-3.64v1.1h.38c.21,0,.26.07.26.38v4.2c0,.31-.05.39-.26.39h-.38v1.1h3.56c2.65,0,3.92-1.21,3.92-3.56S144.54,108.69,141.89,108.69Zm1.45,3.84c0,1.56-.37,2.22-1.46,2.22h-.7v-5h.72c1.08,0,1.44.67,1.44,2.25Zm15.36-.11h.58a4.43,4.43,0,0,1-.76,1l-1.19-1.61c1.06-.18,1.62-.73,1.62-1.62s-.75-1.7-2-1.7c-1.66,0-2.5.83-2.5,1.94a2.15,2.15,0,0,0,.37,1.16,2.14,2.14,0,0,0-1.77,2.13c0,1.29.86,2.26,2.69,2.26a3.41,3.41,0,0,0,2-.67,2.55,2.55,0,0,0,1.76.67c1.29,0,1.85-.53,1.85-1.75v-.52h-1.12v.36c0,.28,0,.43-.43.43a.87.87,0,0,1-.63-.29,19.18,19.18,0,0,0,1.66-1.81h.52v-1H158.7ZM157,109.51c.4,0,.62.27.62.69s-.29.81-.83,1a1.46,1.46,0,0,1-.41-1A.6.6,0,0,1,157,109.51Zm-.83,5.26a1.22,1.22,0,0,1-1.31-1.29,1.42,1.42,0,0,1,.48-1.1q.16.19.32.42l1,1.31a5.8,5.8,0,0,0,.36.46A1.88,1.88,0,0,1,156.16,114.77Zm13.39-5H170c.16,0,.21.07.21.38v3.76c0,.6-.16.86-.71.86a1.8,1.8,0,0,1-.73-.17v1.14a3.61,3.61,0,0,0,1.49.25c1.55,0,2.24-.64,2.24-2.08v-3.76c0-.3.06-.38.26-.38h.34v-1.1h-3.51Zm10.61,0h.46c.21,0,.26.07.26.38v3.16c0,.95-.38,1.38-1.21,1.38s-1.32-.3-1.32-1.34v-3.2c0-.3.05-.38.25-.38H179v-1.1h-3.49v1.1h.32c.19,0,.26.07.26.38v3.24c0,2,.89,2.6,3.18,2.6,2,0,3-.81,3-2.55v-3.29c0-.3.06-.38.26-.38h.42v-1.1h-2.74Zm5.19,0h.38c.19,0,.25.07.25.38v4.2c0,.31-.05.39-.25.39h-.38v1.1h3.54v-1.1h-.38c-.19,0-.26-.08-.26-.39v-4.2c0-.3.07-.38.26-.38h.38v-1.1h-3.54Zm9.8,4.8c-1,0-1.43-.55-1.43-2.16v-.36c0-1.46.41-2.1,1.4-2.1.78,0,1.16.49,1.29,1.55h1.76v-2.84H197l-.35.87a1.92,1.92,0,0,0-1.92-1c-2.05,0-3.4,1.48-3.4,3.75A3.36,3.36,0,0,0,195,116c2.13,0,3.06-1.09,3.22-2.58l-1.65-.29C196.47,114.15,196,114.59,195.14,114.59Zm10.72-.28c-.19.42-.34.44-.9.44h-1.3v-2h.59c.28,0,.38.14.38.5v.27h1V111h-1v.26c0,.36-.1.45-.38.45h-.59v-1.9h1.2c.56,0,.72.05.91.44l.19.5h1v-2h-6.25v1.1h.38c.21,0,.26.07.26.38v4.21c0,.3-.05.38-.26.38h-.38v1.1h6.33v-2h-1Zm13.6-2.23c1-.21,1.53-.73,1.53-1.61,0-1.28-.78-1.78-2.92-1.78h-3.67v1.1h.38c.19,0,.26.1.26.38v4.2c0,.28-.06.39-.26.39h-.38v1.1H218c2.38,0,3.27-.62,3.27-2C221.23,112.84,220.62,112.26,219.47,112.07Zm-2.19-2.29h.56c.67,0,.94.28.94,1s-.31,1-1,1h-.48Zm.61,5h-.61v-2.09h.57c.8,0,1.11.28,1.11,1.06S218.66,114.75,217.88,114.75Zm12.88-.39-2.06-5.68h-2.2l-2.15,5.68c-.12.31-.16.39-.41.39h-.32v1.1h2.7v-1.1H226c-.25,0-.34-.08-.24-.38l.28-.81h2l.3.81c.1.29,0,.38-.23.38h-.3v1.1h3.63v-1.1h-.27C231,114.75,230.87,114.66,230.76,114.36Zm-4.4-1.81.72-2.09.71,2.09Zm14.17,1.72a1.75,1.75,0,0,0-1.37-1.88,1.66,1.66,0,0,0,1.49-1.7c0-1.41-.92-2-2.64-2h-4.11v1.1h.38c.19,0,.26.09.26.38v4.2c0,.3-.06.39-.26.39h-.38v1.1h3.51v-1.1H237c-.19,0-.26-.09-.26-.39v-1.51h.39c.69,0,.83.42.89,1.09.09,1,.43,1.91,1.33,1.91h1.69v-1.1h-.15C240.65,114.75,240.55,114.62,240.53,114.26Zm-3.32-2.34h-.43V109.8h.56c.75,0,1,.28,1,1S238.06,111.92,237.21,111.92Z"/></svg>