<svg id="Layer_1" data-name="Layer 1" xmlns="http://www.w3.org/2000/svg" viewBox="0 0 300 112"><defs><style>.cls-1{fill:#fff;}</style></defs><title>obon</title><path class="cls-1" d="M55.08,102.29l-1.44,0h-.11v.58l.6.09c.31.05.49.25.49,1v3.92a2.12,2.12,0,0,1-2.21,2.23,2.07,2.07,0,0,1-2.25-2.22v-4c0-.86.21-1,.49-1l.65-.09v-.58h-.08l-1.68,0c-.71,0-1.44,0-1.65,0h-.08v.57l.51.1c.28.05.49.16.49,1v4.18c0,1.73,1.35,2.89,3.36,2.89a3.12,3.12,0,0,0,3.33-3V104c0-.79.19-1,.49-1l.52-.09v-.57h-.24Zm26.62,0-1.7,0h-.08v.57l.58.09c.27.05.49.16.49,1v2H77v-2c0-.84.22-.95.49-1l.55-.09v-.57h-.08l-1.61,0-1.69,0h-.08v.57l.57.09c.28.05.49.16.49,1v5.22c0,.84-.2.94-.49,1l-.57.1v.57h.26c.36,0,1,0,1.51,0s1,0,1.39,0H78v-.57l-.55-.1c-.28-.05-.49-.16-.49-1v-2.38h4v2.38c0,.83-.22.94-.49,1l-.58.1v.57h.27c.39,0,1,0,1.51,0s1,0,1.39,0h.3v-.57l-.57-.1c-.29-.05-.5-.16-.5-1v-5.22c0-.84.2-.95.49-1l.57-.09v-.57H83.3C83.16,102.27,82.39,102.29,81.69,102.29Zm9.81,0-1.69,0h-.08v.57l.57.09c.28.05.49.16.49,1v5.22c0,.84-.21.94-.49,1l-.57.1v.57H90c.39,0,1,0,1.5,0s1,0,1.4,0h.29v-.57l-.56-.1c-.29-.05-.49-.16-.49-1v-5.22c0-.84.21-.95.49-1l.56-.09v-.57h-.08C93,102.27,92.23,102.29,91.5,102.29ZM275.85,13.09V14A18.37,18.37,0,0,1,283,16.11a8.21,8.21,0,0,1,3.46,4,14.3,14.3,0,0,1,.88,5c.07,2.13.09,4.36.09,6.7V61.61L241.27,13.09H221.51V14a28.16,28.16,0,0,1,3.27.57,10.24,10.24,0,0,1,3.16,1.31,8.61,8.61,0,0,1,2.53,2.54,9.48,9.48,0,0,1,1.36,4.16c.07,1.7.09,3.13.09,4.3V37.52q0,5.87-.09,11t-.29,8.88q-.2,5-.59,8.58a11.15,11.15,0,0,1-1.75,5.43,7.41,7.41,0,0,1-3.7,2.76,20.49,20.49,0,0,1-4.67,1.09v.88h24v-.88a22,22,0,0,1-6.28-1.44,6.71,6.71,0,0,1-3.36-3,13.06,13.06,0,0,1-1.21-5.34q-.25-3.58-.25-8.06v-37q6.62,6.65,12.57,12.88t12.12,12.74l13,13.7q6.81,7.18,15.1,15.77a2.81,2.81,0,0,0,1.75.87,1.06,1.06,0,0,0,.72-.21.73.73,0,0,0,.25-.57v-5.7c0-2.09,0-4.21-.05-6.35s-.05-4.21-.05-6.26V51.7q0-5.87.14-11t.33-8.89q.2-4,.39-7.58a13.61,13.61,0,0,1,.88-4.86,8,8,0,0,1,3.36-3.76A15.87,15.87,0,0,1,300,14v-.87Zm-164.45,91h-.92v2.81h-2.81v.87h2.81v3h.92v-3h2.81v-.87h-2.81ZM63.6,21.89a34,34,0,0,0-11.15-7,39.87,39.87,0,0,0-14.86-2.62,46.47,46.47,0,0,0-14.46,2.23,37,37,0,0,0-12,6.39A30.76,30.76,0,0,0,3,31,29.76,29.76,0,0,0,0,44.53a29.34,29.34,0,0,0,2.87,13,31.19,31.19,0,0,0,7.84,10.16A36,36,0,0,0,22.3,74.26a42.1,42.1,0,0,0,14,2.32A42,42,0,0,0,50.5,74.21a35.65,35.65,0,0,0,11.69-6.74,32.77,32.77,0,0,0,7.93-10.33,29,29,0,0,0,2.92-13A30.85,30.85,0,0,0,63.6,21.89ZM59.46,55.3a33,33,0,0,1-4.52,9.94,25.06,25.06,0,0,1-7.54,7.23,19.87,19.87,0,0,1-10.67,2.8A22,22,0,0,1,26,72.73,23.3,23.3,0,0,1,18.27,66a30,30,0,0,1-4.63-9.72,42.18,42.18,0,0,1-1.56-11.47,46,46,0,0,1,1.41-11.25,31.49,31.49,0,0,1,4.38-9.94,23.82,23.82,0,0,1,7.6-7.14,21.05,21.05,0,0,1,11-2.76,20.57,20.57,0,0,1,10.81,2.76,24.7,24.7,0,0,1,7.65,7.18,32.23,32.23,0,0,1,4.58,9.85A40,40,0,0,1,61,44.27,41.5,41.5,0,0,1,59.46,55.3ZM39.2,105.92c-.93-.42-1.8-.81-1.8-1.76a1.35,1.35,0,0,1,1.47-1.3,1.49,1.49,0,0,1,1.69,1.52v.07h.7v-.09a14.9,14.9,0,0,1-.05-1.82v-.06l-.05,0a7.33,7.33,0,0,0-2.27-.38,2.54,2.54,0,0,0-2.78,2.37c0,1.67,1.24,2.19,2.35,2.66.9.38,1.69.71,1.69,1.59a1.45,1.45,0,0,1-1.63,1.5,1.55,1.55,0,0,1-1.8-1.59v-.07H36l0,.33c.06.67.09,1,.09,1.7v.06l.06,0a10,10,0,0,0,2.28.35,2.75,2.75,0,0,0,3-2.59C41.45,106.94,40.25,106.4,39.2,105.92Zm165.31,3.61a16.46,16.46,0,0,1-1.91-2.66,2.54,2.54,0,0,0,1.81-2.35c0-1.44-1.06-2.3-2.83-2.3l-1.18,0-.88,0h-1.57v.57l.57.09c.29.05.49.15.49,1v5.22c0,.84-.21.94-.49,1l-.57.1v.57h.26c.36,0,1,0,1.5,0s1.34,0,1.71,0h.16v-.57l-.74-.09c-.28,0-.49-.14-.49-1v-2.08c.26,0,.5,0,.85,0a18.69,18.69,0,0,0,2,3,2.43,2.43,0,0,0,1.91.85,1.92,1.92,0,0,0,.72-.13l0,0v-.51h-.07A2,2,0,0,1,204.51,109.54Zm-3.33-3.25c-.38,0-.57,0-.82,0v-3.2c.27,0,.62,0,.93,0A1.47,1.47,0,0,1,203,104.6,1.61,1.61,0,0,1,201.18,106.29Zm61.35-4-1.42,0H261v.58l.61.09c.3,0,.49.24.49,1v4.8l-4.61-6.47,0,0h-2.28v.57l.57.09c.28.05.49.16.49,1v5.18c0,.79-.18,1-.49,1l-.6.1v.57h.35c.32,0,.71,0,1.18,0l1.12,0h.38v-.57l-.56-.1c-.3-.06-.5-.26-.5-1V104l4.87,6.83,0,0H263V104c0-.79.19-1,.49-1l.53-.09v-.57h-.18ZM65.8,105.92c-.92-.42-1.8-.81-1.8-1.76a1.35,1.35,0,0,1,1.47-1.3,1.49,1.49,0,0,1,1.69,1.52v.07h.71v-.09a13.48,13.48,0,0,1-.05-1.82v-.06l-.05,0a7.35,7.35,0,0,0-2.27-.38,2.54,2.54,0,0,0-2.78,2.37c0,1.67,1.25,2.19,2.35,2.66.9.38,1.69.71,1.69,1.59a1.46,1.46,0,0,1-1.64,1.5,1.54,1.54,0,0,1-1.79-1.59v-.07h-.71l0,.33a16.5,16.5,0,0,1,.09,1.7v.06l.06,0a10,10,0,0,0,2.28.35,2.75,2.75,0,0,0,3-2.59C68.06,106.94,66.86,106.4,65.8,105.92Zm82.41,3.19-2.58-7,0-.06-1,.19h0l-2.52,6.84c-.2.56-.38,1-.79,1l-.4.08v.56H141l.34,0,.85,0,1.27,0h.32v-.57l-.63-.06c-.2,0-.24-.19-.24-.33a1.73,1.73,0,0,1,.12-.55l.55-1.61h2.72l.56,1.66a1.46,1.46,0,0,1,.08.42.39.39,0,0,1-.33.41l-.66.07v.57H146l1.84,0,1.19,0h.36v-.56l-.34-.07C148.68,110.1,148.5,109.86,148.22,109.12Zm-4.41-2.2,1.06-3.18,1.12,3.18ZM224,42.38a40.87,40.87,0,0,0-14.76-31.48c-2.19-2.8,8.55-1.22,8.55-1.22.51,0,.83.16,1.06.07,1.12-.47-.39-1.18-.39-1.18C205.4,2.44,194.58,2.21,191.56,2.3a41,41,0,0,0-23.25,1.85l.9-4.14c-.47,1.72-3.38,4.49-5.18,6.08a40.58,40.58,0,0,0-6.45,4.19,23.51,23.51,0,0,0-2.19,2.16,18.51,18.51,0,0,1,2-5.15,22.11,22.11,0,0,0-4.76,8.34,9.36,9.36,0,0,0-.58,3.09,24.75,24.75,0,0,0,.72,4.69A23.43,23.43,0,0,0,154.12,28a19.12,19.12,0,0,0,6.35,8.38,8.47,8.47,0,0,0,1.21.72,7.51,7.51,0,0,1,1.28.52s-3.73-2.9-4.61-5c2.8,2.29,8.48,1.05,13.91-.1,1.46-.36,4.44.65,6.49,2.24a13.73,13.73,0,0,0-1.65-3.15s7.49-1.64,12.29,1.94c4.4,2.84,7.77,15.73-2.15,27.4,0,0-.66,1.78,2,.89,2.18-.73,8.56-3.7,11.93-8.55,0,.22,0,.43,0,.66,0,10.21-11.89,21.08-23.19,24.32,0,0-2.89.78.34.78a34.19,34.19,0,0,0,23.92-8.34C209.19,65,213.85,54,212.36,40.13c-1.92-15.06-15.57-20.57-22.28-22.4-.33-.18-.56-.29-.54-.4,0-.27.68-.19.68-.19a29.43,29.43,0,0,1,17.15,8.09,26.94,26.94,0,0,1,7.33,13.14,39.82,39.82,0,0,1,.08,16,35.12,35.12,0,0,1-4.9,12,30.63,30.63,0,0,1-7.68,8.18,54.68,54.68,0,0,1-5.53,3.56c-.5.28-1,.45-1.52.7-7.08,3.41-17.29,3.59-22.32,1.33-4.48-1.93-7.25-7.59-2.93-13,2.18-2.72,5.28-4.08,8-6.05,4.37-3.13,7.86-7,9.63-12.12a21,21,0,0,0,.17-11.72s-3.45,7.72-16.83,7.86-18.61,8.13-18.34,13.65a40.51,40.51,0,0,0-7.17-16.41,15.77,15.77,0,0,1-2.93-6.22,41.9,41.9,0,0,0-.47,6.22,41,41,0,0,0,82,0Zm-62.22,67.16a15.73,15.73,0,0,1-1.9-2.66,2.53,2.53,0,0,0,1.8-2.35c0-1.44-1.06-2.3-2.84-2.3l-1.16,0-.89,0h-1.56v.57l.57.09c.27.05.49.16.49,1v5.22c0,.84-.21.94-.49,1l-.57.1v.57h.26c.37,0,1,0,1.51,0s1.33,0,1.7,0h.17v-.57l-.73-.09c-.28,0-.49-.14-.49-1v-2.08c.25,0,.5,0,.84,0a19.25,19.25,0,0,0,2,3,2.42,2.42,0,0,0,1.91.85,1.88,1.88,0,0,0,.71-.13l0,0v-.51h-.07A1.93,1.93,0,0,1,161.81,109.54Zm-3.33-3.25c-.38,0-.58,0-.82,0v-3.2c.26,0,.61,0,.93,0a1.47,1.47,0,0,1,1.67,1.56A1.61,1.61,0,0,1,158.48,106.29Zm-25-.08a2.16,2.16,0,0,0,1.45-1.85c0-1.37-1-2.13-2.7-2.13l-.83,0-1.15,0c-.54,0-1.16,0-1.48,0h-.08v.57l.57.09c.27.05.49.16.49,1v5.22c0,.84-.21.94-.49,1l-.57.1v.57h.08l1.5,0,.75,0c.33,0,.67,0,1,0,2,0,3.33-1,3.33-2.57A2.19,2.19,0,0,0,133.47,106.21Zm-2.39-3.15c.26,0,.65,0,.8,0,1.06,0,1.6.48,1.6,1.43a1.48,1.48,0,0,1-1.55,1.5,7.49,7.49,0,0,1-.85,0Zm1,7c-.91,0-1-.24-1-.65v-2.62h1c1.12,0,1.77.59,1.77,1.62S133.21,110,132,110Zm48.65-6h-.92v2.81h-2.81v.87h2.81v3h.92v-3h2.8v-.87h-2.8Zm37.83,5-2.58-7,0-.06-1,.19h0l-2.52,6.84c-.2.54-.38,1-.79,1l-.4.08v.56h.08l.34,0,.85,0,1.27,0H214v-.57l-.63-.06c-.06,0-.24,0-.24-.33a1.94,1.94,0,0,1,.12-.55l.55-1.61h2.71l.56,1.66a1.44,1.44,0,0,1,.09.42.39.39,0,0,1-.33.41l-.65.07v.57h.08l1.82,0,1.21,0h.35v-.56l-.35-.07C219,110.1,218.78,109.85,218.51,109.12Zm-4.41-2.2,1.06-3.18,1.12,3.18Zm21.06,2.23-.38-5.14c0-.13,0-.29,0-.36,0-.52.2-.67.5-.72l.57-.09v-.57h-2.6l-2.36,6.63-2.4-6.58,0,0h-2.65v.57l.57.09c.31.05.5.2.5.72,0,.07,0,.23,0,.36l-.46,5.1c-.08.76-.34,1-.72,1l-.47.09h-.06v.56h.38c.28,0,.61,0,1.06,0s1,0,1.33,0h.32v-.57l-.56,0c-.3,0-.44-.26-.44-.67,0-.11,0-.23,0-.39l.45-4.84,2.39,6.47,0,.05H231l2.41-6.57.41,5a3.19,3.19,0,0,1,0,.38.5.5,0,0,1-.46.58l-.61.1v.57H233c.4,0,1.06,0,1.62,0s.93,0,1.27,0h.33v-.56l-.49-.1C235.43,110.08,235.21,109.89,235.16,109.15Zm12.82.37c-.11.31-.26.47-.72.47h-1.41c-1,0-1-.22-1-.63v-2.59h1.7c.43,0,.47.15.51.34l.13.61h.6v-.24c0-.35,0-.82,0-1.12s0-.68,0-1l0-.35h-.6l-.15.68c0,.21-.07.3-.5.3h-1.7v-2.94h2.29c.39,0,.58.14.65.47l.15.66h.62v-.08c0-.49-.05-1.25-.05-1.84v-.1l-.09,0c-.07,0-1,0-1.8,0h-2.52l-1.59,0h-.08v.57l.57.09c.28.05.5.16.5,1v5.22c0,.84-.21.94-.5,1l-.57.1v.57h.08l1.59,0h2.65c.44,0,1.33,0,1.8,0h.08v-.08c0-.55.15-1.29.26-2l0-.09h-.64ZM131.73,47.85a22.45,22.45,0,0,0-6.09-3.2,30.79,30.79,0,0,0-6.91-1.53v-.35A22.45,22.45,0,0,0,129.48,38a11.68,11.68,0,0,0,4.14-9.33A12.17,12.17,0,0,0,130.41,20a19.61,19.61,0,0,0-8.18-5.08,32.27,32.27,0,0,0-6.47-1.44,60,60,0,0,0-7.06-.39H75.87V14A20.12,20.12,0,0,1,80,14.7a8,8,0,0,1,2.92,1.89,3.59,3.59,0,0,1,.93,1.71A23.51,23.51,0,0,1,84.39,21a29.85,29.85,0,0,1,.35,3.11c.06,1.08.09,2.14.09,3.2,0,1.75,0,3.3,0,4.64s.05,2.66.05,3.95V49.43q0,2.62-.05,5.12c0,1.66-.06,3.2-.09,4.6s-.05,2.51-.05,3.32,0,1.88-.09,2.85a26.2,26.2,0,0,1-.35,2.76,23.45,23.45,0,0,1-.54,2.31A3.75,3.75,0,0,1,83,71.94a9.36,9.36,0,0,1-3.55,2.19,24,24,0,0,1-4.63,1.13v.88h33.6q4.29,0,8.86-.26a32.07,32.07,0,0,0,8.28-1.48A19.55,19.55,0,0,0,133.72,69a15.57,15.57,0,0,0,2.82-4.46,14.43,14.43,0,0,0,1.07-5.69,12.17,12.17,0,0,0-1.6-6.26A16.22,16.22,0,0,0,131.73,47.85Zm-36.18-13q0-3.33,0-7c0-2.45.09-4.7.15-6.74.07-1.05.11-1.9.15-2.54s.06-1.18.1-1.62a7.12,7.12,0,0,1,.14-1.09c.06-.29.13-.61.2-1a14.88,14.88,0,0,1,2.53-.44,35.32,35.32,0,0,1,3.71-.17A30.47,30.47,0,0,1,113.76,16a14,14,0,0,1,6.19,4.9,12.94,12.94,0,0,1,2.48,7.79,12.82,12.82,0,0,1-4.53,10q-4.53,4-13.29,4.47-1.36.09-3.61.09H95.54ZM124,67.52a15.58,15.58,0,0,1-6.33,5.12,19.71,19.71,0,0,1-6.43,1.84,59.36,59.36,0,0,1-6.14.35,15.14,15.14,0,0,1-5.06-.66,6.6,6.6,0,0,1-2.63-1.62A6.47,6.47,0,0,1,96,69c-.17-1.43-.28-3.26-.35-5.47,0-1,0-2.17,0-3.54s0-2.88,0-4.51V44.53H105a48.47,48.47,0,0,1,4.92.21,25,25,0,0,1,4.23.84A19.61,19.61,0,0,1,119,47.72,16.29,16.29,0,0,1,122.76,51a15.74,15.74,0,0,1,2.54,4.12,12.48,12.48,0,0,1,.92,4.77A13,13,0,0,1,124,67.52Z"/></svg>