<?xml version="1.0" encoding="utf-8"?>
<!-- Generator: Adobe Illustrator 16.0.0, SVG Export Plug-In . SVG Version: 6.00 Build 0)  -->
<!DOCTYPE svg PUBLIC "-//W3C//DTD SVG 1.1//EN" "http://www.w3.org/Graphics/SVG/1.1/DTD/svg11.dtd">
<svg version="1.1" id="Layer_1" xmlns="http://www.w3.org/2000/svg" xmlns:xlink="http://www.w3.org/1999/xlink" x="0px" y="0px"
	 width="17.656px" height="18.337px" viewBox="0 0 17.656 18.337" enable-background="new 0 0 17.656 18.337" xml:space="preserve">
<path fill="#B9814D" d="M17.561,17.751L12.415,12.4c1.312-1.315,2.125-3.13,2.125-5.131C14.54,3.261,11.279,0,7.27,0
	C3.261,0,0,3.261,0,7.27c0,4.01,3.261,7.271,7.27,7.271c1.761,0,3.375-0.63,4.635-1.673l5.156,5.363
	c0.067,0.071,0.158,0.106,0.25,0.106c0.086,0,0.173-0.032,0.239-0.097C17.688,18.107,17.692,17.889,17.561,17.751 M7.27,13.848
	c-3.627,0-6.577-2.951-6.577-6.578s2.95-6.578,6.577-6.578s6.578,2.951,6.578,6.578S10.896,13.848,7.27,13.848"/>
</svg>
