<?xml version="1.0" encoding="utf-8"?>
<!-- Generator: Adobe Illustrator 16.0.0, SVG Export Plug-In . SVG Version: 6.00 Build 0)  -->
<!DOCTYPE svg PUBLIC "-//W3C//DTD SVG 1.1//EN" "http://www.w3.org/Graphics/SVG/1.1/DTD/svg11.dtd">
<svg version="1.1" id="Layer_1" xmlns="http://www.w3.org/2000/svg" xmlns:xlink="http://www.w3.org/1999/xlink" x="0px" y="0px"
	 width="47.206px" height="78.061px" viewBox="0 0 47.206 78.061" enable-background="new 0 0 47.206 78.061" xml:space="preserve">
<g>
	<defs>
		<polygon id="SVGID_1_" points="35.884,19.43 24.667,0 24.667,19.43 35.884,38.859 		"/>
	</defs>
	<clipPath id="SVGID_2_">
		<use xlink:href="#SVGID_1_"  overflow="visible"/>
	</clipPath>
	
		<linearGradient id="SVGID_3_" gradientUnits="userSpaceOnUse" x1="-637.416" y1="1811.6118" x2="-636.4169" y2="1811.6118" gradientTransform="matrix(-18.8321 -74.7742 -74.7742 18.8321 123504.0547 -81696.5)">
		<stop  offset="0" style="stop-color:#8B613D"/>
		<stop  offset="0.5211" style="stop-color:#B9814D"/>
		<stop  offset="1" style="stop-color:#F4B577"/>
	</linearGradient>
	<polygon clip-path="url(#SVGID_2_)" fill="url(#SVGID_3_)" points="25.335,41.516 15.463,2.318 35.215,-2.657 45.087,36.542 	"/>
</g>
<g>
	<defs>
		<polygon id="SVGID_4_" points="11.322,38.859 22.54,19.43 22.54,0 11.322,19.43 		"/>
	</defs>
	<clipPath id="SVGID_5_">
		<use xlink:href="#SVGID_4_"  overflow="visible"/>
	</clipPath>
	
		<linearGradient id="SVGID_6_" gradientUnits="userSpaceOnUse" x1="-637.416" y1="1811.6118" x2="-636.4169" y2="1811.6118" gradientTransform="matrix(-18.8321 -74.7743 -74.7743 18.8321 123491.8203 -81693.4922)">
		<stop  offset="0" style="stop-color:#8B613D"/>
		<stop  offset="0.5211" style="stop-color:#B9814D"/>
		<stop  offset="1" style="stop-color:#F4B577"/>
	</linearGradient>
	<polygon clip-path="url(#SVGID_5_)" fill="url(#SVGID_6_)" points="11.991,41.516 2.119,2.318 21.871,-2.657 31.743,36.542 	"/>
</g>
<g>
	<defs>
		<polygon id="SVGID_7_" points="11.323,58.631 22.54,78.061 22.54,58.631 11.323,39.201 		"/>
	</defs>
	<clipPath id="SVGID_8_">
		<use xlink:href="#SVGID_7_"  overflow="visible"/>
	</clipPath>
	
		<linearGradient id="SVGID_9_" gradientUnits="userSpaceOnUse" x1="-637.4165" y1="1811.6118" x2="-636.4174" y2="1811.6118" gradientTransform="matrix(-18.8321 -74.7742 -74.7742 18.8321 123482.3125 -81691)">
		<stop  offset="0" style="stop-color:#8B613D"/>
		<stop  offset="0.5211" style="stop-color:#B9814D"/>
		<stop  offset="1" style="stop-color:#F4B577"/>
	</linearGradient>
	<polygon clip-path="url(#SVGID_8_)" fill="url(#SVGID_9_)" points="11.992,80.717 2.12,41.519 21.871,36.544 31.744,75.743 	"/>
</g>
<g>
	<defs>
		<polygon id="SVGID_10_" points="0,39.03 5.609,48.745 9.197,54.959 9.197,42.531 9.197,35.53 9.197,23.101 5.609,29.316 		"/>
	</defs>
	<clipPath id="SVGID_11_">
		<use xlink:href="#SVGID_10_"  overflow="visible"/>
	</clipPath>
	
		<linearGradient id="SVGID_12_" gradientUnits="userSpaceOnUse" x1="-637.4165" y1="1811.6382" x2="-636.4165" y2="1811.6382" gradientTransform="matrix(-18.8321 -74.7743 -74.7743 18.8321 123477.3984 -81689.8594)">
		<stop  offset="0" style="stop-color:#8B613D"/>
		<stop  offset="0.5211" style="stop-color:#B9814D"/>
		<stop  offset="1" style="stop-color:#F4B577"/>
	</linearGradient>
	<polygon clip-path="url(#SVGID_11_)" fill="url(#SVGID_12_)" points="0.548,57.138 -7.545,25.001 8.648,20.923 16.742,53.06 	"/>
</g>
<g>
	<defs>
		<polygon id="SVGID_13_" points="41.597,29.316 38.009,23.101 38.009,35.53 38.009,42.531 38.009,54.959 41.597,48.745 
			47.206,39.03 		"/>
	</defs>
	<clipPath id="SVGID_14_">
		<use xlink:href="#SVGID_13_"  overflow="visible"/>
	</clipPath>
	
		<linearGradient id="SVGID_15_" gradientUnits="userSpaceOnUse" x1="-637.416" y1="1811.5884" x2="-636.4172" y2="1811.5884" gradientTransform="matrix(-18.8321 -74.7743 -74.7743 18.8321 123509.3359 -81697.9219)">
		<stop  offset="0" style="stop-color:#8B613D"/>
		<stop  offset="0.5211" style="stop-color:#B9814D"/>
		<stop  offset="1" style="stop-color:#F4B577"/>
	</linearGradient>
	<polygon clip-path="url(#SVGID_14_)" fill="url(#SVGID_15_)" points="38.557,57.138 30.463,25.001 46.658,20.923 54.751,53.06 	"/>
</g>
<g>
	<defs>
		<polygon id="SVGID_16_" points="24.667,78.061 35.884,58.631 35.884,39.201 24.667,58.631 		"/>
	</defs>
	<clipPath id="SVGID_17_">
		<use xlink:href="#SVGID_16_"  overflow="visible"/>
	</clipPath>
	
		<linearGradient id="SVGID_18_" gradientUnits="userSpaceOnUse" x1="-637.4165" y1="1811.6128" x2="-636.4174" y2="1811.6128" gradientTransform="matrix(-18.8321 -74.7743 -74.7743 18.8321 123495.0156 -81694.3281)">
		<stop  offset="0" style="stop-color:#8B613D"/>
		<stop  offset="0.5211" style="stop-color:#B9814D"/>
		<stop  offset="1" style="stop-color:#F4B577"/>
	</linearGradient>
	<polygon clip-path="url(#SVGID_17_)" fill="url(#SVGID_18_)" points="25.335,80.717 15.463,41.519 35.215,36.544 45.087,75.743 	
		"/>
</g>
</svg>
