<?xml version="1.0" encoding="utf-8"?>
<!-- Generator: Adobe Illustrator 16.0.0, SVG Export Plug-In . SVG Version: 6.00 Build 0)  -->
<!DOCTYPE svg PUBLIC "-//W3C//DTD SVG 1.1//EN" "http://www.w3.org/Graphics/SVG/1.1/DTD/svg11.dtd">
<svg version="1.1" id="Layer_1" xmlns="http://www.w3.org/2000/svg" xmlns:xlink="http://www.w3.org/1999/xlink" x="0px" y="0px"
	 width="12.125px" height="20.05px" viewBox="0 0 12.125 20.05" enable-background="new 0 0 12.125 20.05" xml:space="preserve">
<polygon fill="#FFFFFF" points="9.217,4.99 6.336,0 6.336,4.99 9.217,9.981 "/>
<polygon fill="#FFFFFF" points="2.908,9.981 5.789,4.99 5.789,0 2.908,4.99 "/>
<polygon fill="#FFFFFF" points="2.908,15.06 5.789,20.05 5.789,15.06 2.908,10.069 "/>
<polygon fill="#FFFFFF" points="0,10.025 1.44,12.52 2.362,14.117 2.362,10.925 2.362,9.125 2.362,5.933 1.44,7.529 "/>
<polygon fill="#FFFFFF" points="10.686,7.529 9.764,5.933 9.764,9.125 9.764,10.924 9.764,14.117 10.686,12.521 12.125,10.025 "/>
<polygon fill="#FFFFFF" points="6.336,20.05 9.217,15.06 9.217,10.069 6.336,15.06 "/>
</svg>
