<svg xmlns="http://www.w3.org/2000/svg" width="29" height="29" viewBox="0 0 29 29">
    <path fill="none" fill-rule="evenodd" stroke="#2CB7F2" stroke-width="1.5" d="M14.294 1.288C7.118 1.288 1.24 7.165 1.24 14.341c0 7.175 5.877 13.052 13.053 13.052 7.175 0 13.052-5.877 13.052-13.052 0-7.176-5.877-13.053-13.052-13.053zm0 3.912c2.217 0 3.912 1.702 3.912 3.921 0 2.217-1.695 3.913-3.912 3.913-2.218 0-3.913-1.696-3.913-3.913 0-2.219 1.695-3.92 3.913-3.92zm0 18.542c-3.263 0-6.138-1.702-7.834-4.182 0-2.606 5.22-4.046 7.834-4.046 2.613 0 7.833 1.44 7.833 4.046-1.695 2.48-4.57 4.182-7.833 4.182z"/>
</svg>
