<?xml version="1.0" encoding="UTF-8"?>
<svg width="52px" height="61px" viewBox="0 0 52 61" version="1.1" xmlns="http://www.w3.org/2000/svg" xmlns:xlink="http://www.w3.org/1999/xlink">
    <!-- Generator: Sketch 49.1 (51147) - http://www.bohemiancoding.com/sketch -->
    <title>add-user</title>
    <desc>Created with Sketch.</desc>
    <defs>
        <polygon id="path-1" points="0.00710604028 0.000118434005 51.5507692 0.000118434005 51.5507692 60.6382103 0.00710604028 60.6382103"></polygon>
    </defs>
    <g id="Symbols" stroke="none" stroke-width="1" fill="none" fill-rule="evenodd">
        <g id="Illustration/AddContact" transform="translate(-32.000000, -27.000000)">
            <g id="add-user" transform="translate(32.000000, 27.000000)">
                <g id="Group-3">
                    <mask id="mask-2" fill="white">
                        <use xlink:href="#path-1"></use>
                    </mask>
                    <g id="Clip-2"></g>
                    <path d="M40.273957,57.7009286 C35.6756383,57.7009286 31.934545,53.9599537 31.934545,49.361635 C31.934545,44.7633164 35.6756383,41.022223 40.273957,41.022223 C44.8723941,41.022223 48.613369,44.7633164 48.613369,49.361635 C48.613369,53.9599537 44.8721572,57.7009286 40.273957,57.7009286 Z M21.4645053,38.4169118 C19.0531889,38.4169118 16.7363829,37.555186 14.916526,36.0192154 C16.5022389,34.7099275 17.6816047,32.9205081 18.2190582,30.8663887 C19.2516843,31.2503518 20.3405666,31.4554794 21.46415,31.4554794 C22.5754162,31.4554794 23.660627,31.2585237 24.6975167,30.8772846 C25.2376942,32.9296275 26.4190734,34.7172704 28.0059706,36.0247818 C26.1871796,37.5574362 23.8728607,38.4169118 21.4645053,38.4169118 Z M15.4511371,25.6356325 C13.8204193,23.6435725 12.7496575,20.9559496 12.402409,18.012154 C14.0436674,16.610606 15.343599,14.8413204 16.1894547,12.8683283 C16.2851494,12.952298 16.3846339,13.0327147 16.4873162,13.10946 C17.3309216,13.7391736 18.3348867,14.0720916 19.3907258,14.0720916 L27.8045144,14.0720916 C29.2886109,14.0720916 30.5089549,15.2159272 30.6344949,16.6681649 C30.4285382,21.6251018 28.221639,25.8389836 25.1343013,27.7362964 C25.0693995,27.7679183 23.5262044,28.8121509 21.4640315,28.8121509 C19.263054,28.8117956 17.1275704,27.6837117 15.4511371,25.6356325 Z M16.6563215,3.99963477 C17.0998569,3.87137074 17.5688555,3.79533611 18.0499345,3.77378112 C18.2438109,3.76489857 18.4334238,3.71361665 18.6052715,3.62348837 C19.8424331,2.97328569 21.152787,2.64368385 22.4997369,2.64368385 C27.5032183,2.64368385 31.5740319,7.12392381 31.5740319,12.6309866 C31.5740319,12.8031896 31.569413,12.9748005 31.5617147,13.1454639 C30.7994735,12.0480544 29.537796,11.4282893 27.8047513,11.4282893 L19.3909627,11.4282893 C18.9095285,11.4282893 18.4523732,11.2769306 18.0688839,10.9906756 C17.7415323,10.7464647 17.4886757,10.4181656 17.3375539,10.0416639 C17.0801968,9.40046225 16.4442062,8.99932627 15.7548019,9.04290999 C15.0617261,9.08696744 14.4784386,9.5681648 14.3031563,10.2407515 C13.8330917,12.0476991 12.9089512,13.7166711 11.6422995,15.0841101 C10.4950293,10.074707 12.702876,5.14193074 16.6563215,3.99963477 Z M40.273957,38.0848229 C40.2533495,38.0848229 40.2332157,38.0862441 40.2126082,38.0862441 C37.5980591,35.5780487 34.3598365,35.659176 34.329399,35.659176 C30.7451123,35.659176 27.7134386,33.0465219 27.1204396,29.5865909 C28.1568556,28.8466152 29.1128548,27.8965376 29.9582368,26.7523467 C31.7805808,24.2853664 32.9061776,21.1441413 33.2090133,17.761903 C33.877218,16.143147 34.2178342,14.417682 34.2178342,12.631105 C34.2175973,5.66635652 28.960904,0.000118434005 22.4997369,0.000118434005 C20.8146579,0.000118434005 19.1793211,0.387279195 17.6347048,1.15117852 C17.0479828,1.19713092 16.4732226,1.30076067 15.9222676,1.46017284 C10.5357706,3.0165141 7.49722779,9.55193934 9.14867155,16.0288582 C9.30216202,16.6302661 9.49580162,17.2220808 9.72165527,17.7918668 C10.191483,22.9371137 12.5326864,27.2359127 15.7962538,29.5687073 C14.4480011,35.8166932 8.4923103,35.6616631 8.44730538,35.6661636 C3.76276676,35.8241546 0,39.6816685 0,44.4039876 L0,52.4155743 C0,54.3815788 1.59945123,55.9807931 3.56521884,55.9807931 L25.7117855,55.9807931 C26.4418127,55.9807931 27.0336275,55.3890968 27.0336275,54.6590696 C27.0336275,53.928924 26.4418127,53.3372277 25.7117855,53.3372277 L3.56521884,53.3372277 C3.05701853,53.3372277 2.64368385,52.9237746 2.64368385,52.4155743 L2.64368385,44.4039876 C2.64368385,41.0395144 5.38093056,38.3021493 8.74540377,38.3021493 C8.79052712,38.3021493 10.7481228,38.3021493 12.5712959,37.4644655 C14.9472004,39.7605456 18.1356807,41.0603588 21.4645053,41.0603588 C24.7915533,41.0603588 27.9782571,39.7622037 30.3536879,37.4683739 C31.490299,37.9663888 32.734093,38.2572628 34.0363933,38.2953985 C34.079148,38.2996621 35.3217575,38.2582102 36.4600267,38.7498298 C32.1134988,40.3169485 28.9972632,44.4814434 28.9972632,49.3615166 C28.9972632,55.5794203 34.0559349,60.6382103 40.273957,60.6382103 C46.4918607,60.6382103 51.5507692,55.5794203 51.5507692,49.3615166 C51.5507692,43.1434945 46.4918607,38.0848229 40.273957,38.0848229 Z" id="Fill-1" fill="#FFFFFF" mask="url(#mask-2)"></path>
                </g>
                <path d="M44.5368706,47.8929349 L41.7425387,47.8929349 L41.7425387,45.098603 C41.7425387,44.2876854 41.0851115,43.6299029 40.273957,43.6299029 C39.4628025,43.6299029 38.8052569,44.2876854 38.8052569,45.098603 L38.8052569,47.8929349 L36.010925,47.8929349 C35.1997705,47.8929349 34.5422249,48.550599 34.5422249,49.361635 C34.5422249,50.1726711 35.1997705,50.8303351 36.010925,50.8303351 L38.8052569,50.8303351 L38.8052569,53.624667 C38.8052569,54.4357031 39.4628025,55.0933671 40.273957,55.0933671 C41.0851115,55.0933671 41.7425387,54.4357031 41.7425387,53.624667 L41.7425387,50.8303351 L44.5368706,50.8303351 C45.3480251,50.8303351 46.0055706,50.1726711 46.0055706,49.361635 C46.0055706,48.550599 45.3480251,47.8929349 44.5368706,47.8929349" id="Fill-4" fill="#FFFFFF"></path>
            </g>
        </g>
    </g>
</svg>