<?xml version="1.0" encoding="UTF-8"?>
<svg width="28px" height="12px" viewBox="0 0 28 12" version="1.1" xmlns="http://www.w3.org/2000/svg" xmlns:xlink="http://www.w3.org/1999/xlink">
    <!-- Generator: Sketch 48.2 (47327) - http://www.bohemiancoding.com/sketch -->
    <title>Icon /Alphabet</title>
    <desc>Created with Sketch.</desc>
    <defs></defs>
    <g id="ContactsTable" stroke="none" stroke-width="1" fill="none" fill-rule="evenodd" transform="translate(-551.000000, -263.000000)">
        <g id="Table" transform="translate(170.239308, 229.643698)" fill="#4B6976">
            <g id="Topbar" transform="translate(21.000000, 20.500000)">
                <g id="Icon-/Alphabet" transform="translate(360.000000, 12.114000)">
                    <g transform="translate(0.325256, 0.864000)">
                        <path d="M6.380133,0.537652119 C6.29776473,0.367331286 6.12547297,0.259176736 5.93618198,0.259176736 L5.93519652,0.259176736 L5.34276909,0.260162198 C5.15314961,0.260819174 4.98052936,0.369877065 4.89906443,0.540854873 L0.048123437,10.7098463 C-0.0247186937,10.8625109 -0.0141249678,11.0421936 0.076044885,11.1849215 C0.166132616,11.3279778 0.323642432,11.4149449 0.492731436,11.4149449 L1.22057789,11.4149449 C1.41052586,11.4149449 1.58372096,11.3055586 1.66551438,11.1342523 L2.93454419,8.47333827 L8.38283993,8.47333827 L9.66698017,11.1361411 C9.74910208,11.306544 9.9216402,11.4149449 10.1106027,11.4149449 L10.8414056,11.4149449 C11.1133933,11.4149449 11.334137,11.1942013 11.334137,10.9222135 C11.334137,10.8330291 11.3104038,10.7493469 11.2686858,10.6768333 L6.380133,0.537652119 Z M3.71823354,6.83090015 L5.6442386,2.79345876 L7.59085627,6.83090015 L3.71823354,6.83090015 Z" id="Fill-1"></path>
                        <rect id="Rectangle-4" transform="translate(14.827950, 5.837061) rotate(12.000000) translate(-14.827950, -5.837061) " x="14.088853" y="0.129588368" width="1.47819431" height="11.4149449" rx="0.739097155"></rect>
                        <path d="M27.0916062,0.805205289 L26.8294731,0.278475383 C26.7461193,0.111275183 26.5753879,0.0054200458 26.3883963,0.0054200458 L19.0336405,0.0054200458 C18.7616528,0.0054200458 18.5409091,0.226163729 18.5409091,0.498151482 L18.5409091,1.15512673 C18.5409091,1.42719661 18.7616528,1.64785817 19.0336405,1.64785817 L24.7472722,1.64785817 L18.4601011,10.0904007 C18.3491544,10.2392877 18.3314982,10.4381049 18.414195,10.6043196 L18.6763281,11.130721 C18.759764,11.2981676 18.9304133,11.4040227 19.1174049,11.4040227 L26.4307712,11.4040227 C26.702759,11.4040227 26.9235027,11.1833612 26.9235027,10.9112913 L26.9235027,10.254316 C26.9235027,9.98232829 26.702759,9.76158461 26.4307712,9.76158461 L20.7585291,9.76158461 L27.0457001,1.31904206 C27.1567289,1.16990867 27.174303,0.971337905 27.0916062,0.805205289 Z" id="Fill-3"></path>
                    </g>
                </g>
            </g>
        </g>
    </g>
</svg>