<?xml version="1.0" encoding="UTF-8"?>
<svg width="16px" height="19px" viewBox="0 0 16 19" version="1.1" xmlns="http://www.w3.org/2000/svg" xmlns:xlink="http://www.w3.org/1999/xlink">
    <!-- Generator: Sketch 48.2 (47327) - http://www.bohemiancoding.com/sketch -->
    <title>avatar</title>
    <desc>Created with Sketch.</desc>
    <defs></defs>
    <g id="AddContact" stroke="none" stroke-width="1" fill="none" fill-rule="evenodd" transform="translate(-527.000000, -148.000000)">
        <g id="Rectangle-9" transform="translate(445.000000, 67.000000)" fill="#002D48" stroke="#002D48" stroke-width="0.8">
            <g id="Details" transform="translate(81.000000, 79.000000)">
                <g id="avatar" transform="translate(1.000000, 2.191150)">
                    <path d="M8.07766717,9.81399655 L8.18993691,9.81399655 C9.21835237,9.79653529 10.050219,9.43493809 10.6644341,8.74359511 C12.0155757,7.22021003 11.7910801,4.60896224 11.7663799,4.3597664 C11.6786349,2.4889988 10.7941651,1.59408739 10.0643021,1.17642111 C9.52015135,0.864004987 8.88487744,0.695534558 8.17589771,0.681495355 L8.1162311,0.681495355 C7.72668711,0.681495355 6.9615067,0.744715639 6.22800224,1.16238191 C5.49090024,1.58000431 4.59239129,2.4749596 4.50464627,4.3597664 C4.48012154,4.60896224 4.25545043,7.22021003 5.60676754,8.74359511 C6.2173851,9.43493809 7.04925172,9.79653529 8.07766717,9.81399655 Z M5.44171916,4.44751141 C5.44171916,4.43706976 5.44531671,4.42640874 5.44531671,4.41938914 C5.561184,1.90290597 7.34762864,1.63265132 8.11280905,1.63265132 L8.15479504,1.63265132 C9.10252895,1.65371013 10.7134397,2.03983207 10.8222874,4.41938914 C10.8222874,4.43000628 10.8222874,4.44049181 10.8258849,4.44751141 C10.829307,4.47199227 11.0750808,6.85878831 9.95887642,8.11529693 C9.51672929,8.61368862 8.92703892,8.85924304 8.15137298,8.86630651 L8.1162311,8.86630651 C7.34420658,8.85924304 6.75087479,8.61368862 6.31214971,8.11529693 C5.19958679,6.86580791 5.43829711,4.46857022 5.44171916,4.44751141 Z" id="Fill-1"></path>
                    <path d="M15.3464642,14.1450466 L15.3464642,14.134605 C15.3464642,14.1064827 15.3428667,14.0783604 15.3428667,14.04686 C15.3219395,13.3519194 15.2761805,11.7269256 13.7530148,11.2074751 C13.7425292,11.2038776 13.72849,11.2004555 13.7178729,11.196858 C12.1350405,10.7932309 10.8188653,9.88068276 10.8047822,9.87019723 C10.5907722,9.71923194 10.2958173,9.77183507 10.1449836,9.98588904 C9.9940183,10.2001185 10.0466214,10.4948979 10.2606754,10.6458632 C10.3204736,10.6878492 11.7173743,11.6600639 13.465255,12.1094062 C14.2829069,12.4007635 14.3742495,13.2746161 14.3987303,14.0749384 C14.3987303,14.1064827 14.3987303,14.134605 14.4023279,14.1626834 C14.4057938,14.4785216 14.3846911,14.9664716 14.3286659,15.2471679 C13.7600344,15.5700257 11.5312671,16.68623 8.14075583,16.68623 C4.76445926,16.68623 2.5216528,15.5666036 1.94959917,15.2437458 C1.89335461,14.9628741 1.86887375,14.474924 1.87589336,14.1590858 C1.87589336,14.1310074 1.87931541,14.1030606 1.87931541,14.0713408 C1.90401563,13.271194 1.9951827,12.3971659 2.81296625,12.1058086 C4.56084695,11.6566419 5.9577476,10.681005 6.01737033,10.6422656 C6.2314243,10.4914758 6.28420293,10.1965209 6.13323763,9.98246698 C5.98227233,9.76841302 5.68749295,9.71580988 5.47343898,9.86659969 C5.45939978,9.87726071 4.15024415,10.7896334 2.56021673,11.1934359 C2.54613365,11.196858 2.535692,11.2004555 2.52507485,11.2038776 C1.00186526,11.7269256 0.956281722,13.3519194 0.935222918,14.0432624 C0.935222918,14.0749384 0.935222918,14.1030606 0.93175699,14.1310074 L0.93175699,14.1416246 C0.928159444,14.3241342 0.924737389,15.2612071 1.11071295,15.7314765 C1.14581096,15.8228191 1.20889962,15.8999469 1.29322258,15.9525501 C1.39842885,16.0228338 3.92215099,17.6303225 8.14435338,17.6303225 C12.3665558,17.6303225 14.8902779,16.0194118 14.9954842,15.9525501 C15.0762096,15.8999469 15.1428519,15.8228191 15.1779938,15.7314765 C15.3534838,15.2646292 15.3498863,14.3275563 15.3464642,14.1450466 Z" id="Fill-3"></path>
                </g>
            </g>
        </g>
    </g>
</svg>