<?xml version="1.0" encoding="UTF-8"?>
<svg width="23px" height="19px" viewBox="0 0 23 19" version="1.1" xmlns="http://www.w3.org/2000/svg" xmlns:xlink="http://www.w3.org/1999/xlink">
    <!-- Generator: Sketch 48.2 (47327) - http://www.bohemiancoding.com/sketch -->
    <title>broadcasts</title>
    <desc>Created with Sketch.</desc>
    <defs></defs>
    <g id="ContactsTable" stroke="none" stroke-width="1" fill="none" fill-rule="evenodd" transform="translate(-1075.000000, -359.000000)">
        <g id="Rectangle-4" transform="translate(170.239308, 229.643698)">
            <g id="Btns" transform="translate(885.509994, 122.856302)">
                <g id="broadcasts" transform="translate(20.410220, 8.087100)">
                    <path d="M13.2905951,5.03449286 L13.2905951,0.0155335116 L12.6081017,0.0155335116 C12.1320404,0.0155335116 11.8843218,0.371005661 11.3416708,1.15001127 C10.5965937,2.21949354 9.20973726,4.21015392 7.74938278,4.21015392 L3.37927457,4.21015392 C1.51590722,4.21015392 0,5.72610202 0,7.58942849 C0,9.18655962 1.1140798,10.5274696 2.60570569,10.8782817 L3.04812463,15.9014105 L6.16116298,15.9014105 L6.16116298,10.9687031 L7.74938278,10.9687031 C9.20973726,10.9687031 10.5965937,12.9593226 11.3416708,14.0288457 C11.8843218,14.8077696 12.1320404,15.1632826 12.6081017,15.1632826 L13.2905951,15.1632826 L13.2905951,10.1443232 C14.4191048,9.84260522 15.2528047,8.81175234 15.2528047,7.58942849 C15.2528047,6.36710464 14.4191456,5.33625176 13.2905951,5.03449286" id="Fill-1" stroke="#4B6976" stroke-width="1.5"></path>
                    <polygon id="Fill-4" fill="#4B6976" points="17.2116622 8.27200369 20.929363 8.27200369 20.929363 6.9070168 17.2116622 6.9070168"></polygon>
                    <polyline id="Fill-5" fill="#4B6976" points="19.5631497 3.17885139 20.2456432 4.36091074 17.0261185 6.21978155 16.3436251 5.03772219 19.5631497 3.17885139"></polyline>
                    <polyline id="Fill-6" fill="#4B6976" points="19.5634768 12.0000056 16.3439521 10.1411757 17.0264455 8.95911631 20.2459702 10.8179462 19.5634768 12.0000056"></polyline>
                </g>
            </g>
        </g>
    </g>
</svg>