<svg xmlns="http://www.w3.org/2000/svg" width="15" height="16" viewBox="0 0 15 16">
    <path fill="#2CB7F2" fill-rule="evenodd" d="M14.187 2.653a1.023 1.023 0 0 0-.75-.316h-1.066v-.8c0-.367-.13-.68-.391-.942a1.286 1.286 0 0 0-.942-.391h-.533c-.366 0-.68.13-.941.391a1.284 1.284 0 0 0-.392.942v.8H5.973v-.8c0-.367-.13-.68-.391-.942A1.285 1.285 0 0 0 4.64.204h-.533c-.366 0-.68.13-.941.391a1.284 1.284 0 0 0-.391.942v.8H1.708c-.29 0-.539.105-.75.316-.211.21-.316.461-.316.75v10.663c0 .289.105.539.316.75.211.211.46.316.75.316h11.73c.288 0 .538-.105.75-.316.21-.211.316-.461.316-.75V3.403c0-.289-.106-.54-.317-.75zm-3.949-1.116a.26.26 0 0 1 .075-.192.26.26 0 0 1 .192-.075h.533a.26.26 0 0 1 .192.075.26.26 0 0 1 .075.192v2.399a.26.26 0 0 1-.075.192.26.26 0 0 1-.192.074h-.533a.26.26 0 0 1-.192-.074.26.26 0 0 1-.075-.192v-2.4zm-6.397 0a.26.26 0 0 1 .075-.192.26.26 0 0 1 .191-.075h.533a.26.26 0 0 1 .192.075.26.26 0 0 1 .075.192v2.399a.26.26 0 0 1-.075.192.26.26 0 0 1-.192.074h-.533a.26.26 0 0 1-.191-.074.26.26 0 0 1-.075-.192v-2.4zM1.708 14.066h11.73v-8.53H1.707v8.53z"/>
</svg>
