<?xml version="1.0" encoding="UTF-8"?>
<svg width="20px" height="20px" viewBox="0 0 20 20" version="1.1" xmlns="http://www.w3.org/2000/svg" xmlns:xlink="http://www.w3.org/1999/xlink">
    <!-- Generator: Sketch 48.2 (47327) - http://www.bohemiancoding.com/sketch -->
    <title>Icon / call</title>
    <desc>Created with Sketch.</desc>
    <defs></defs>
    <g id="AddContact" stroke="none" stroke-width="1" fill="none" fill-rule="evenodd" transform="translate(-532.000000, -560.000000)">
        <g id="Rectangle-9" transform="translate(445.000000, 67.000000)" fill="#002D48" stroke="#002D48" stroke-width="0.5">
            <g id="Numbers" transform="translate(81.000000, 490.500000)">
                <g id="Icon-/-call" transform="translate(6.233601, 2.065597)">
                    <path d="M15.8510437,12.0943436 C15.4430987,11.6697907 14.9512207,11.4427458 14.4299635,11.4427458 C13.9128057,11.4427458 13.4166181,11.665481 12.9920652,12.0902441 L11.6633271,13.41462 C11.553904,13.355704 11.4446913,13.3010976 11.3395779,13.2464912 C11.1882672,13.170757 11.0452079,13.0992799 10.9232238,13.0235457 C9.67873409,12.2331458 8.54771424,11.2029296 7.46294426,9.87014467 C6.93737742,9.20577562 6.58424905,8.64651994 6.32782499,8.07911797 C6.67249173,7.76377786 6.99214148,7.43566648 7.30317194,7.12032637 C7.42105659,7.00270451 7.53867845,6.880773 7.65651053,6.76294092 C8.53930517,5.88014628 8.53930517,4.73640771 7.65651053,3.85340285 L6.50846231,2.70556486 C6.37833196,2.57522428 6.24362918,2.44073173 6.11759825,2.30629173 C5.86527361,2.04555802 5.60044047,1.77641523 5.32719827,1.52409059 C4.91925328,1.12045525 4.43147469,0.906129092 3.91862657,0.906129092 C3.40556821,0.906129092 2.90959078,1.12045525 2.4891373,1.52409059 L2.48072823,1.53249966 L1.05102874,2.9747602 C0.512900843,3.51283554 0.205969805,4.16874296 0.138644692,4.92981631 C0.0378409704,6.15748791 0.399378404,7.30122648 0.676930256,8.04952856 C1.35790722,9.88696281 2.37561486,11.5896943 3.89339936,13.41462 C5.73493303,15.6135917 7.95072285,17.350012 10.4818528,18.5735842 C11.4487907,19.0318259 12.7397405,19.5742109 14.1817383,19.6666056 C14.2702437,19.6709152 14.3626384,19.6750146 14.4467816,19.6750146 C15.4180817,19.6750146 16.2337089,19.3262485 16.8727982,18.63229 C16.8769502,18.623881 16.8853592,18.6197815 16.8896689,18.6113725 C17.1083047,18.3465393 17.3604191,18.1067232 17.6254625,17.8503517 C17.8060998,17.6778606 17.9910993,17.4972233 18.1719469,17.3079141 C18.5883009,16.8749522 18.8067265,16.3703029 18.8067265,15.8531977 C18.8067265,15.3319405 18.5839913,14.8313906 18.1594384,14.4109371 L15.8510437,12.0943436 Z M17.3563197,16.5216136 C17.35201,16.5216136 17.35201,16.5259232 17.3563197,16.5216136 C17.1922903,16.6984143 17.0241089,16.858134 16.8432613,17.0346719 C16.5700191,17.2954056 16.2924673,17.5686478 16.0318912,17.8755789 C15.6071281,18.3297212 15.106841,18.5440473 14.4508811,18.5440473 C14.3878656,18.5440473 14.3205405,18.5440473 14.257525,18.5399479 C13.0088833,18.4600618 11.8483266,17.9722832 10.9780404,17.5561393 C8.59822121,16.4039917 6.50846231,14.7683751 4.77204201,12.6956446 C3.33845332,10.9674757 2.37971428,9.36980503 1.74493464,7.65435484 C1.3538078,6.6075308 1.21090617,5.79164083 1.27397419,5.02236863 C1.31601954,4.5302804 1.50511849,4.12254564 1.85414744,3.77356925 L3.28794635,2.33971778 C3.49386344,2.14636174 3.71249925,2.04124837 3.92703563,2.04124837 C4.19186877,2.04124837 4.40619493,2.20117836 4.54089771,2.33561836 L4.5534062,2.34817941 C4.81004049,2.587943 5.05374584,2.835958 5.31032757,3.10079113 C5.44072071,3.23544136 5.57521327,3.36993391 5.70965326,3.50873612 L6.85749126,4.65657411 C7.30317194,5.10225479 7.30317194,5.5142992 6.85749126,5.95997989 C6.73555975,6.08196395 6.61788533,6.20389546 6.49595382,6.32151732 C6.14282546,6.68305476 5.80635756,7.01952265 5.44072071,7.34742381 C5.43231164,7.35583288 5.42390257,7.36014252 5.41959292,7.36834137 C5.05805549,7.73008903 5.1253806,8.08321739 5.20090456,8.32277076 L5.21367583,8.36076924 C5.51214524,9.08384411 5.93259872,9.7650313 6.57168801,10.5765591 L6.57583998,10.5806585 C7.73639669,12.0101478 8.95975864,13.1245597 10.3094143,13.9779751 C10.4818528,14.0873982 10.6583907,14.1756934 10.8265721,14.2596264 C10.9780404,14.3354132 11.1209421,14.4068377 11.2428736,14.4825719 C11.2597443,14.4910335 11.2765624,14.503542 11.2933806,14.5119511 C11.4362822,14.5833756 11.5707747,14.6170644 11.7095244,14.6170644 C12.0585533,14.6170644 12.2771891,14.3984286 12.3486137,14.3270041 L13.7865646,12.8890532 C13.9296239,12.7459413 14.1567213,12.5737131 14.4215544,12.5737131 C14.6822881,12.5737131 14.8966143,12.7375323 15.0269549,12.8806441 L17.35201,15.2056467 C17.7851822,15.6345093 17.7851822,16.0761431 17.3563197,16.5216136 Z" id="Fill-1"></path>
                </g>
            </g>
        </g>
    </g>
</svg>