<?xml version="1.0" encoding="UTF-8"?>
<svg width="43px" height="75px" viewBox="0 0 43 75" version="1.1" xmlns="http://www.w3.org/2000/svg" xmlns:xlink="http://www.w3.org/1999/xlink">
    <!-- Generator: Sketch 49.1 (51147) - http://www.bohemiancoding.com/sketch -->
    <title>CallIcon</title>
    <desc>Created with Sketch.</desc>
    <defs>
        <path d="M4.99884334,71 C2.2380584,71 1.88807303e-14,68.757846 1.88807303e-14,66.0074179 L1.88807303e-14,4.99258213 C1.88807303e-14,2.23525516 2.23688538,0 4.99884334,0 L34.0011567,0 C36.7619416,0 39,2.24215403 39,4.99258213 L39,66.0074179 C39,68.7647448 36.7631146,71 34.0011567,71 L4.99884334,71 Z" id="path-1"></path>
    </defs>
    <g id="Symbols" stroke="none" stroke-width="1" fill="none" fill-rule="evenodd">
        <g id="Illustration/Voice" transform="translate(-35.000000, -18.000000)">
            <g id="CallIcon" transform="translate(37.000000, 20.000000)">
                <g id="touch-screen">
                    <g id="Group-5"></g>
                    <mask id="mask-2" fill="white">
                        <use xlink:href="#path-1"></use>
                    </mask>
                    <path stroke="#FFFFFF" stroke-width="2" d="M4.99884334,72 C1.68822402,72 -1,69.3125804 -1,66.0074179 L-1,4.99258213 C-1,1.6823213 1.68524989,-1 4.99884334,-1 L34.0011567,-1 C37.311776,-1 40,1.68741959 40,4.99258213 L40,66.0074179 C40,69.3176787 37.3147501,72 34.0011567,72 L4.99884334,72 Z"></path>
                    <polyline id="Fill-1" fill="#26BEE3" mask="url(#mask-2)" points="39 13.3519538 39 56.6480462 19.4999315 60 0 56.6480462 0 13.3519538 19.4999315 10 39 13.3519538"></polyline>
                    <path d="M39,57 L39,65.9597913 C39,68.7416853 36.806773,71 34.1050569,71 L4.8949431,71 C2.18994027,71 0,68.7416853 0,65.9597913 L0,57 L39,57" id="Fill-3" stroke="#FFFFFF" fill="#FFFFFF" mask="url(#mask-2)"></path>
                    <path d="M39,5.0402087 L39,14 L0,14 L0,5.0402087 C0,2.26000685 2.18994027,0 4.8949431,0 L34.1050569,0 C36.806773,0 39,2.26000685 39,5.0402087" id="Fill-4" stroke="#FFFFFF" fill="#FFFFFF" mask="url(#mask-2)"></path>
                    <path d="M9.5,5 C10.3284431,5 11,5.67155691 11,6.5 C11,7.32844309 10.3284431,8 9.5,8 C8.67155691,8 8,7.32844309 8,6.5 C8,5.67155691 8.67155691,5 9.5,5" id="Fill-6" fill="#26BEE3" mask="url(#mask-2)"></path>
                    <path d="M24.2821105,8 L14.7180311,8 C13.7691704,8 13,7.32844309 13,6.5 C13,5.67155691 13.7691704,5 14.7180311,5 L24.2821105,5 C25.2309712,5 26,5.67155691 26,6.5 C26,7.32844309 25.2309712,8 24.2821105,8" id="Fill-7" fill="#26BEE3" mask="url(#mask-2)"></path>
                    <path d="M21.284918,65 L17.7152234,65 C16.7679134,65 16,64.3284431 16,63.5 C16,62.6715569 16.7679134,62 17.7152234,62 L21.284918,62 C22.232228,62 23,62.6715569 23,63.5 C23,64.3284431 22.232228,65 21.284918,65" id="Fill-8" fill="#26BEE3" mask="url(#mask-2)"></path>
                </g>
                <g id="speaker-filled-audio-tool" transform="translate(6.000000, 24.000000)" fill="#FFFFFF">
                    <path d="M14,18.7739382 C14,19.2495719 13.7150223,19.6813399 13.2687577,19.8825417 C13.096944,19.9619348 12.9119716,20 12.7281272,20 C12.4390139,20 12.1510285,19.9039307 11.9175573,19.7168674 L4.97131962,14.1673244 L1.27036898,14.1673244 C0.568451582,14.1673244 0,13.6177355 0,12.9409001 L0,8.05949187 C0,7.38265644 0.568451582,6.83306752 1.27036898,6.83306752 L4.97131962,6.83306752 L11.9175573,1.2820744 C12.2980289,0.979002935 12.823621,0.913748314 13.2702616,1.11748774 C13.7150223,1.31868949 14,1.7508201 14,2.22645378 L14,18.7739382 Z M18.8699537,16.9971025 C18.8372452,16.9985512 18.8057333,17 18.7730248,17 C18.4164221,17 18.0733814,16.8728721 17.8196909,16.6421584 L17.6389963,16.4780873 C17.1667171,16.0492568 17.1104744,15.3701546 17.5093588,14.8819253 C18.5193343,13.6468646 19.0522439,12.1810903 19.0522439,10.6446893 C19.0522439,8.99093947 18.4459395,7.44041317 17.3023378,6.15971684 C16.8659582,5.67329852 16.9066444,4.9659456 17.3940812,4.52298982 L17.5747759,4.35891871 C17.8444218,4.11407971 18.2046144,3.98115676 18.5955212,4.00216366 C18.9756581,4.01918649 19.3310641,4.18217103 19.5723892,4.44946568 C21.1603482,6.21368283 22,8.35711069 22,10.6446893 C22,12.7754406 21.2568783,14.8029683 19.852805,16.5092354 C19.6190587,16.7935529 19.2608605,16.9717493 18.8699537,16.9971025 Z M23.4506577,21.5539044 C23.2379124,21.8225291 22.931462,21.9840016 22.6034942,21.9985118 C22.5871825,22 22.5708709,22 22.5531711,22 C22.242903,22 21.9444349,21.8675479 21.7237074,21.6324083 L21.5703086,21.4664711 C21.1392651,21.0058653 21.1108066,20.2677053 21.5012445,19.7676615 C23.3937406,17.3563639 24.4362966,14.2928513 24.4362966,11.1419055 C24.4362966,7.86334436 23.3205118,4.70942211 21.2950933,2.25757032 C20.8845261,1.75938678 20.9046553,1.00634459 21.3412517,0.536809391 L21.4956916,0.371244285 C21.7237074,0.12568705 22.0204402,-0.0108576555 22.360555,0.000676093475 C22.683317,0.0107216167 22.9883792,0.164752974 23.203901,0.42370424 C25.6509924,3.37820425 26.9999989,7.18471346 26.9999989,11.1419055 C27.0013871,14.9484147 25.7405328,18.6455393 23.4506577,21.5539044 Z" id="Fill-1"></path>
                </g>
            </g>
        </g>
    </g>
</svg>