<svg xmlns="http://www.w3.org/2000/svg" width="25" height="25" viewBox="0 0 25 25">
    <g fill="#0D689A" fill-rule="evenodd">
        <path d="M12.893.75C6.275.75.89 6.132.89 12.751c0 6.618 5.385 12.002 12.003 12.002s12.002-5.384 12.002-12.002c0-6.619-5.384-12.003-12.002-12.003zm0 21.45c-5.21 0-9.449-4.238-9.449-9.448s4.24-9.449 9.449-9.449c5.21 0 9.45 4.238 9.45 9.449 0 5.21-4.24 9.448-9.45 9.448z"/>
        <path d="M19.148 12.381h-5.394V5.896a.987.987 0 1 0-1.976 0v7.473c0 .547.443.989.988.989h6.382a.988.988 0 1 0 0-1.977z"/>
    </g>
</svg>
