<?xml version="1.0" encoding="UTF-8"?>
<svg width="24px" height="24px" viewBox="0 0 24 24" version="1.1" xmlns="http://www.w3.org/2000/svg" xmlns:xlink="http://www.w3.org/1999/xlink">
    <!-- Generator: Sketch 48.2 (47327) - http://www.bohemiancoding.com/sketch -->
    <title>Icon / Cancel</title>
    <desc>Created with Sketch.</desc>
    <defs></defs>
    <g id="Contacts-Add-contact-Modal" stroke="none" stroke-width="1" fill="none" fill-rule="evenodd" transform="translate(-668.000000, -81.000000)">
        <g id="AddCOntact" transform="translate(-10.000000, -146.000000)" fill="#fff">
            <g id="Icon-/-Cancel" transform="translate(677.380346, 226.844339)">
                <g id="Combined-Shape">
                    <path d="M14.6213203,12 L23.8137085,21.1923882 C24.3994949,21.7781746 24.3994949,22.7279221 23.8137085,23.3137085 C23.2279221,23.8994949 22.2781746,23.8994949 21.6923882,23.3137085 L12.5,14.1213203 L3.30761184,23.3137085 C2.72182541,23.8994949 1.77207794,23.8994949 1.1862915,23.3137085 C0.600505063,22.7279221 0.600505063,21.7781746 1.1862915,21.1923882 L10.3786797,12 L1.1862915,2.80761184 C0.600505063,2.22182541 0.600505063,1.27207794 1.1862915,0.686291501 C1.77207794,0.100505063 2.72182541,0.100505063 3.30761184,0.686291501 L12.5,9.87867966 L21.6923882,0.686291501 C22.2781746,0.100505063 23.2279221,0.100505063 23.8137085,0.686291501 C24.3994949,1.27207794 24.3994949,2.22182541 23.8137085,2.80761184 L14.6213203,12 Z"></path>
                </g>
            </g>
        </g>
    </g>
</svg>