<?xml version="1.0" encoding="UTF-8"?>
<svg width="31px" height="28px" viewBox="0 0 31 28" version="1.1" xmlns="http://www.w3.org/2000/svg" xmlns:xlink="http://www.w3.org/1999/xlink">
    <!-- Generator: Sketch 48.2 (47327) - http://www.bohemiancoding.com/sketch -->
    <title>RHS Icons</title>
    <desc>Created with Sketch.</desc>
    <defs></defs>
    <g id="ContactsTable" stroke="none" stroke-width="1" fill="none" fill-rule="evenodd" transform="translate(-944.000000, -20.000000)">
        <g id="NewNavBar" transform="translate(0.000000, -0.283371)" fill="#FFFFFF" stroke="#2CB7F2" stroke-width="1.5">
            <g id="Tabs" transform="translate(407.000000, -0.000000)">
                <g id="RHS-Icons" transform="translate(537.892654, 13.623955)">
                    <path d="M24.8871983,29.0887347 C24.8871983,30.5777251 25.8538211,31.8806166 27.3357587,32.5958696 L27.3357587,33.1692696 C24.5911833,33.1073919 22.0719625,32.6873554 19.6938628,30.344852 C19.1311749,30.4153128 18.5549805,30.4522398 17.9675415,30.4522398 C15.4267633,30.4522398 13.0863225,29.7668611 11.2178821,28.6149378 C15.0683384,28.6011651 18.7033539,27.3676697 21.4599056,25.1372115 C22.8493594,24.0125677 23.9455927,22.6933085 24.7179994,21.215496 C25.5367145,19.6488591 25.9517608,17.9797581 25.9517608,16.2545014 C25.9517608,15.9763844 25.9398511,15.6998643 25.9184933,15.4248744 C27.8498759,17.020188 29.0391919,19.1942244 29.0391919,21.5908209 C29.0391919,24.371791 27.4381563,26.8530868 24.9342386,28.4777423 C24.9038321,28.6770817 24.8871983,28.8810785 24.8871983,29.0887347 Z" id="speech-bubbles"></path>
                    <path d="M13.1544741,7.91633457 C20.209796,7.91633457 25.929225,12.5449196 25.929225,18.2545014 C25.929225,23.9640166 20.209796,28.5926682 13.1544741,28.5926682 C12.47688,28.5926682 11.8117945,28.5494868 11.1628106,28.4673824 C8.41876747,31.2005138 5.25003043,31.6904122 2.08315636,31.7624032 L2.08315636,31.0937249 C3.79304347,30.2591743 5.17025477,28.7392451 5.17025477,27.0022782 C5.17025477,26.7598241 5.15129225,26.5217613 5.11622822,26.2891543 C2.22713845,24.3936341 0.379723172,21.4988889 0.379723172,18.2545014 C0.379723172,12.5449196 6.09915215,7.91633457 13.1544741,7.91633457 Z" id="Path"></path>
                </g>
            </g>
        </g>
    </g>
</svg>