<?xml version="1.0" encoding="UTF-8"?>
<svg width="30px" height="34px" viewBox="0 0 30 34" version="1.1" xmlns="http://www.w3.org/2000/svg" xmlns:xlink="http://www.w3.org/1999/xlink">
    <!-- Generator: Sketch 48.2 (47327) - http://www.bohemiancoding.com/sketch -->
    <title>Icon / contacts</title>
    <desc>Created with Sketch.</desc>
    <defs></defs>
    <g id="ContactsTableMoreOptions" stroke="none" stroke-width="1" fill="none" fill-rule="evenodd" transform="translate(-172.000000, -112.000000)">
        <g id="Dashboard" transform="translate(152.760692, 94.634154)">
            <g id="Icon-/-contacts" transform="translate(0.329881, 0.445214)">
                <g id="contacts" transform="translate(19.040000, 17.340000)">
                    <path d="M28.5935066,0.114266972 L3.70722299,0.114266972 C3.07856483,0.114266972 2.56834951,0.624482291 2.56834951,1.25314045 L2.56834951,7.82026456 L1.13887348,7.82026456 C0.510215319,7.82026456 0,8.33047988 0,8.95913804 C0,9.58855545 0.510215319,10.0980115 1.13887348,10.0980115 L2.56834951,10.0980115 L2.56834951,15.5270214 L1.13887348,15.5270214 C0.510215319,15.5270214 0,16.0370469 0,16.6658949 C0,17.294553 0.510215319,17.8047684 1.13887348,17.8047684 L2.56834951,17.8047684 L2.56834951,23.2328292 L1.13887348,23.2328292 C0.510215319,23.2328292 0,23.7430445 0,24.3717027 C0,25.0013099 0.510215319,25.5105761 1.13887348,25.5105761 L2.56834951,25.5105761 L2.56834951,32.0784595 C2.56834951,32.7071176 3.07856483,33.217333 3.70722299,33.217333 L28.5935066,33.217333 C29.222924,33.217333 29.7323801,32.7071176 29.7323801,32.0784595 L29.7323801,1.25314045 C29.7323801,0.624482291 29.222924,0.114266972 28.5935066,0.114266972 Z M27.4546332,30.939586 L4.84609647,30.939586 L4.84609647,25.5105761 L6.27633175,25.5105761 C6.90517972,25.5105761 7.41520523,25.0013099 7.41520523,24.3717027 C7.41520523,23.7430445 6.90517972,23.2328292 6.27633175,23.2328292 L4.84609647,23.2328292 L4.84609647,17.8047684 L6.27633175,17.8047684 C6.90517972,17.8047684 7.41520523,17.294553 7.41520523,16.6658949 C7.41520523,16.0370469 6.90517972,15.5270214 6.27633175,15.5270214 L4.84609647,15.5270214 L4.84609647,10.0980115 L6.27633175,10.0980115 C6.90517972,10.0980115 7.41520523,9.58855545 7.41520523,8.95913804 C7.41520523,8.33047988 6.90517972,7.82026456 6.27633175,7.82026456 L4.84609647,7.82026456 L4.84609647,2.39201393 L27.4546332,2.39201393 L27.4546332,30.939586 Z" id="Fill-1" fill="#2CB7F2"></path>
                    <path d="M16.9652288,17.1892072 C19.5468652,17.1892072 21.6482765,15.0879857 21.6482765,12.5048308 C21.6482765,9.92148613 19.5468652,7.82026456 16.9652288,7.82026456 C14.3826434,7.82026456 12.2814218,9.92148613 12.2814218,12.5048308 C12.2814218,15.0879857 14.3826434,17.1892072 16.9652288,17.1892072 Z M16.9652288,10.0980115 C18.2916368,10.0980115 19.3705296,11.178233 19.3705296,12.5048308 C19.3705296,13.831998 18.2916368,14.9114603 16.9652288,14.9114603 C15.6388208,14.9114603 14.5591688,13.831998 14.5591688,12.5048308 C14.5591688,11.178233 15.6388208,10.0980115 16.9652288,10.0980115 Z" id="Fill-2" fill="#F78000"></path>
                    <path d="M11.7512762,25.7070318 C12.3801242,25.7070318 12.8901497,25.1970063 12.8901497,24.5681583 L12.8901497,22.6003748 C12.8901497,21.3369845 13.9177932,20.3093409 15.1811835,20.3093409 L18.7773663,20.3093409 C20.0407566,20.3093409 21.0691594,21.3369845 21.0691594,22.6003748 L21.0691594,24.5681583 C21.0691594,25.1970063 21.5786154,25.7070318 22.2080329,25.7070318 C22.836691,25.7070318 23.3469063,25.1970063 23.3469063,24.5681583 L23.3469063,22.6003748 C23.3469063,20.0809968 21.2967443,18.031594 18.7773663,18.031594 L15.1811835,18.031594 C12.6618055,18.031594 10.6124027,20.0809968 10.6124027,22.6003748 L10.6124027,24.5681583 C10.6124027,25.1970063 11.1218588,25.7070318 11.7512762,25.7070318 Z" id="Fill-3" fill="#F78000"></path>
                </g>
            </g>
        </g>
    </g>
</svg>