<svg xmlns="http://www.w3.org/2000/svg" width="19" height="14" viewBox="0 0 19 14">
    <g fill="#2CB7F2" fill-rule="evenodd">
        <path d="M1.844 1.595c-.274 0-.532.285-.532.586v9.403c0 .282.233.504.532.504H17.1c.299 0 .533-.222.533-.504V2.16c0-.296-.255-.565-.533-.565H1.844zM17.1 13.254H1.844c-.936 0-1.698-.75-1.698-1.67V2.18C.146 1.231.924.43 1.844.43H17.1c.92 0 1.698.792 1.698 1.73v9.424c0 .92-.762 1.67-1.698 1.67z"/>
        <path d="M4.81 10.34H3.06a.583.583 0 1 1 0-1.167h1.75a.583.583 0 1 1 0 1.166M18.216 4.51H.73a.583.583 0 1 1 0-1.166h17.487a.583.583 0 1 1 0 1.166M8.307 10.34H6.558a.583.583 0 1 1 0-1.167h1.749a.583.583 0 1 1 0 1.166M11.804 10.34h-1.748a.583.583 0 1 1 0-1.167h1.748a.583.583 0 1 1 0 1.166M15.302 10.34h-1.749a.583.583 0 1 1 0-1.167h1.749a.583.583 0 1 1 0 1.166"/>
    </g>
</svg>
