<svg xmlns="http://www.w3.org/2000/svg" width="23" height="17" viewBox="0 0 23 17">
    <g fill="#2CB7F2" fill-rule="evenodd">
        <path d="M13.952 9.82c.064 0 .128-.004.192-.012.049-.006.105-.01.148-.034.092-.05.093-.142.078-.232-.016-.105-.109-.16-.21-.146a.523.523 0 0 1-.32-.043c-.189-.103-.237-.368-.152-.555a.364.364 0 0 1 .274-.207.643.643 0 0 1 .19 0c.061.008.12-.003.165-.05a.264.264 0 0 0 .046-.247c-.055-.125-.23-.12-.346-.12a.984.984 0 0 0-.583.174c-.32.235-.406.709-.231 1.059.141.283.443.412.749.412zM14.967 9.675c.056.155.27.113.399.113.082 0 .16-.028.19-.112l.02-.05.28-.753.13-.35c.039-.104.077-.228-.05-.295-.06-.032-.144-.02-.21-.02-.087 0-.17.022-.204.113-.036.099-.057.205-.085.307-.056.2-.112.399-.154.602-.059-.288-.154-.57-.236-.851-.014-.05-.027-.097-.07-.132-.06-.048-.137-.038-.208-.038-.076 0-.155-.009-.214.051-.051.052-.058.124-.034.19l.446 1.225zM16.629 9.675c.056.154.27.113.399.113.082 0 .16-.028.19-.112l.019-.05.28-.753.13-.35c.04-.104.078-.228-.05-.295-.06-.032-.143-.02-.21-.02-.086 0-.17.022-.203.113-.036.1-.057.205-.085.307-.056.2-.112.399-.155.602-.058-.288-.153-.57-.235-.851-.014-.05-.027-.097-.07-.132-.06-.048-.137-.038-.208-.038-.076 0-.155-.009-.214.051-.05.052-.058.124-.034.19l.446 1.225z"/>
        <path d="M14.661 13.07a4.941 4.941 0 0 1-2.778-.851h-9.34c-.58 0-1.051-.472-1.051-1.052V5.495h8.936a5.004 5.004 0 0 1 2.042-1.857H1.492v-.934c0-.58.471-1.052 1.051-1.052h14.983c.58 0 1.051.472 1.051 1.052v.933h-1.726a4.976 4.976 0 0 1 2.354 6.479l.674.627v-8.04A2.356 2.356 0 0 0 17.526.35H2.543A2.356 2.356 0 0 0 .19 2.704v8.464a2.356 2.356 0 0 0 2.353 2.353H17.49l-.903-.84a4.956 4.956 0 0 1-1.925.388z"/>
        <path d="M3.435 7.404a.343.343 0 0 0-.342.342v1.02c0 .19.153.344.342.344h6.359a4.962 4.962 0 0 1-.055-1.706H3.435zM22.486 14.609l-3.497-3.25a4.374 4.374 0 1 0-1.231 1.184l3.566 3.315a.85.85 0 0 0 1.205-.044.853.853 0 0 0-.043-1.205zM15.402 5.97a2.891 2.891 0 0 1 2.888 2.888 2.891 2.891 0 0 1-2.888 2.888 2.891 2.891 0 0 1-2.889-2.888 2.891 2.891 0 0 1 2.889-2.888z"/>
    </g>
</svg>
