<?xml version="1.0" encoding="UTF-8"?>
<svg width="17px" height="21px" viewBox="0 0 17 21" version="1.1" xmlns="http://www.w3.org/2000/svg" xmlns:xlink="http://www.w3.org/1999/xlink">
    <!-- Generator: Sketch 48.2 (47327) - http://www.bohemiancoding.com/sketch -->
    <title>Icon /Delete</title>
    <desc>Created with Sketch.</desc>
    <defs></defs>
    <g id="ContactsTable" stroke="none" stroke-width="1" fill="none" fill-rule="evenodd" transform="translate(-1210.000000, -357.000000)">
        <g id="Table" transform="translate(170.239308, 229.643698)" fill="#4b6976">
            <g id="Rectangle-4">
                <g id="Btns" transform="translate(885.509994, 122.856302)">
                    <g id="Icon-/Delete" transform="translate(154.000000, 5.000000)">
                        <g transform="translate(0.366090, 0.000000)">
                            <path d="M1.17392106,4.75649334 L15.3004957,4.75649334 L15.3004957,3.37345781 L1.17392106,3.37345781 L1.17392106,4.75649334 Z M2.43177747,18.8609983 L14.0426393,18.8609983 L14.0426393,5.93041439 L2.43177747,5.93041439 L2.43177747,18.8609983 Z M6.87209473,2.19953675 L9.60236119,2.19953675 L9.60236119,1.17392106 L6.87209473,1.17392106 L6.87209473,2.19953675 Z M16.4744168,2.19953675 L10.7762823,2.19953675 L10.7762823,0 L5.69817368,0 L5.69817368,2.19953675 L0,2.19953675 L0,5.93041439 L1.25785641,5.93041439 L1.25785641,20.0349194 L15.2165604,20.0349194 L15.2165604,5.93041439 L16.4744168,5.93041439 L16.4744168,2.19953675 Z" id="Fill-1"></path>
                            <polygon id="Fill-4" points="4.8363591 16.1750669 6.01028015 16.1750669 6.01028015 8.61618925 4.8363591 8.61618925"></polygon>
                            <polygon id="Fill-5" points="7.65024787 16.1750669 8.82416893 16.1750669 8.82416893 8.61618925 7.65024787 8.61618925"></polygon>
                            <polygon id="Fill-6" points="10.4641366 16.1750669 11.6380577 16.1750669 11.6380577 8.61618925 10.4641366 8.61618925"></polygon>
                        </g>
                    </g>
                </g>
            </g>
        </g>
    </g>
</svg>