<?xml version="1.0" encoding="UTF-8"?>
<svg width="18px" height="18px" viewBox="0 0 18 18" version="1.1" xmlns="http://www.w3.org/2000/svg" xmlns:xlink="http://www.w3.org/1999/xlink">
    <!-- Generator: Sketch 48.2 (47327) - http://www.bohemiancoding.com/sketch -->
    <title>Icon /Edit</title>
    <desc>Created with Sketch.</desc>
    <defs></defs>
    <g id="ContactsTable" stroke="none" stroke-width="1" fill="none" fill-rule="evenodd" transform="translate(-1119.000000, -359.000000)">
        <g id="Table" transform="translate(170.239308, 229.643698)" fill="#4B6976" stroke="#4B6976">
            <g id="Rectangle-4">
                <g id="Btns" transform="translate(885.509994, 122.856302)">
                    <g id="Icon-/Edit" transform="translate(63.000000, 7.000000)">
                        <g transform="translate(0.951065, 0.587100)">
                            <path d="M7.69399765,4.86596553 L6.104346,6.45561718 C5.51868487,7.04127832 4.92959343,7.62693945 4.3473626,8.21929386 C4.21010873,8.3598107 4.10632121,8.54726409 4.06611976,8.73141269 C3.85532358,9.69846472 3.65122068,10.6656841 3.44695044,11.6329034 L3.33324851,12.1684069 C3.27961869,12.4294026 3.34989802,12.6905238 3.52735335,12.8678118 C3.66464905,13.0050656 3.85532358,13.0820383 4.05616352,13.0820383 C4.11301448,13.0820383 4.16990728,13.075345 4.22675824,13.0652214 L4.81584967,12.9415214 C5.75286566,12.7439444 6.69327011,12.5431045 7.63024426,12.349167 C7.84794287,12.3022305 8.03192413,12.205178 8.18929964,12.0478025 C10.819713,9.41412624 13.4501263,6.78358742 16.0804978,4.1566044 C16.2746444,3.96245774 16.3818623,3.73158175 16.408468,3.44707594 C16.4118983,3.40018121 16.408468,3.35328649 16.3985118,3.30982207 C16.3818623,3.24297303 16.3684339,3.17252636 16.351617,3.10571916 C16.3148459,2.93495711 16.2746444,2.74097777 16.1944089,2.55352438 C15.7023698,1.42897133 14.8858327,0.625778922 13.7680984,0.17398319 C13.5439157,0.0835822105 13.3061373,0.0535461608 13.0987714,0.0267312475 L13.0419205,0.0200379774 C12.7405978,-0.0167331753 12.4662156,0.0835822105 12.2286045,0.3246236 C10.7226187,1.83730264 9.20650937,3.35328649 7.69399765,4.86596553 Z M12.9314397,0.826618858 L12.948131,0.826618858 L13.004982,0.833312128 C13.179007,0.853433771 13.3396455,0.873513582 13.4669431,0.926976077 C14.3771442,1.29510593 15.0464712,1.9510464 15.4513722,2.87480134 C15.4982669,2.98185183 15.5283448,3.1191057 15.55859,3.26288551 C15.5685463,3.31651534 15.5819328,3.37010333 15.5919309,3.42352399 C15.5785025,3.48384709 15.5551597,3.52404854 15.508265,3.56751297 C12.8745887,6.19462148 10.2440081,8.8284651 7.61359475,11.4588784 C7.57013032,11.5023428 7.52992887,11.5224645 7.46964761,11.535851 C6.52920132,11.7332607 5.59222717,11.9308376 4.65178089,12.1282054 L4.1564789,12.231993 L4.25031018,11.7935419 C4.45437126,10.8297529 4.65847416,9.8625335 4.86600737,8.89874444 C4.87270064,8.86849922 4.89951555,8.82177183 4.92959343,8.78826365 C5.5119916,8.19917221 6.09422243,7.61351108 6.67988357,7.03128025 L8.26953522,5.4416286 C9.78564456,3.92551925 11.3015866,2.40957724 12.8142656,0.890204924 C12.8778517,0.836575097 12.9079296,0.826618858 12.9314397,0.826618858 Z" id="Fill-1" stroke-width="0.8"></path>
                            <path d="M1.30188287,3.66130241 L7.14510767,3.66130241 C7.37255336,3.66130241 7.55674378,3.47715382 7.55674378,3.24949897 C7.55674378,3.02205329 7.37255336,2.83786286 7.14510767,2.83786286 L1.30188287,2.83786286 C0.582398165,2.83786286 0,3.42352399 0,4.13974573 L0,15.0967126 C0,15.8161973 0.585661134,16.3984281 1.30188287,16.3984281 L12.2554194,16.3984281 C12.9749041,16.3984281 13.5571349,15.812767 13.5571349,15.0967126 L13.5571349,9.49109884 C13.5571349,9.26348583 13.3731537,9.07946273 13.1454988,9.07946273 C12.9180531,9.07946273 12.7338627,9.26348583 12.7338627,9.49109884 L12.7338627,15.0967126 C12.7338627,15.3611386 12.5163733,15.578628 12.2519891,15.578628 L1.30188287,15.578628 C1.0374987,15.578628 0.820009254,15.3611386 0.820009254,15.0967126 L0.820009254,4.14317603 C0.820009254,3.87879186 1.0374987,3.66130241 1.30188287,3.66130241 Z" id="Fill-3" stroke-width="0.8"></path>
                        </g>
                    </g>
                </g>
            </g>
        </g>
    </g>
</svg>