<?xml version="1.0" encoding="UTF-8"?>
<svg width="11px" height="11px" viewBox="0 0 11 11" version="1.1" xmlns="http://www.w3.org/2000/svg" xmlns:xlink="http://www.w3.org/1999/xlink">
    <!-- Generator: Sketch 48.2 (47327) - http://www.bohemiancoding.com/sketch -->
    <title>Icon /EditSmall</title>
    <desc>Created with Sketch.</desc>
    <defs></defs>
    <g id="AddContact" stroke="none" stroke-width="1" fill="none" fill-rule="evenodd" transform="translate(-625.000000, -816.000000)">
        <g id="Rectangle-9" transform="translate(445.000000, 67.000000)" fill="#005384" stroke="#005384">
            <g id="Email" transform="translate(82.569252, 715.897872)">
                <g id="Field-Copy-5" transform="translate(1.249668, 32.500000)">
                    <g id="Icon-/EditSmall" transform="translate(96.148363, 0.549948)">
                        <g transform="translate(0.204814, 0.685948)" id="Fill-1">
                            <path d="M3.76337533,3.63537708 L2.70360756,4.69514484 C2.31316681,5.0855856 1.92043918,5.47602636 1.5322853,5.87092929 C1.44078272,5.96460719 1.37159104,6.08957612 1.34479007,6.21234185 C1.20425928,6.8570432 1.06819068,7.50185611 0.932010521,8.14666902 L0.856209237,8.50367131 C0.820456019,8.67766845 0.86730891,8.85174925 0.985612459,8.96994124 C1.07714293,9.06144382 1.20425928,9.11275889 1.33815257,9.11275889 C1.37605322,9.11275889 1.41398175,9.10829671 1.45188239,9.10154766 L1.84461001,9.019081 C2.46928733,8.88736302 3.09622363,8.75346973 3.72087307,8.62417806 C3.86600547,8.59288702 3.98865965,8.52818541 4.09357666,8.4232684 C5.84718554,6.66748421 7.60079441,4.91379167 9.3543754,3.16246966 C9.48380652,3.03303854 9.55528506,2.87912122 9.57302223,2.68945068 C9.5753091,2.65818753 9.57302223,2.62692438 9.56638474,2.5979481 C9.55528506,2.55338208 9.54633281,2.50641763 9.53512159,2.4618795 C9.51060748,2.34803813 9.48380652,2.21871857 9.43031613,2.09374964 C9.10229012,1.34404761 8.55793204,0.808586002 7.81277586,0.507388847 C7.66332071,0.447121528 7.50480177,0.427097495 7.36655785,0.409220886 L7.32865721,0.404758706 C7.12777544,0.380244604 6.94485394,0.447121528 6.78644655,0.607815788 C5.78245604,1.61626848 4.77171647,2.62692438 3.76337533,3.63537708 Z M7.25500335,0.942479293 L7.26613091,0.942479293 L7.30403155,0.946941473 C7.42004823,0.960355902 7.52714055,0.973742442 7.61200564,1.00938411 C8.21880635,1.25480401 8.66502436,1.69209766 8.93495837,2.30793428 C8.96622152,2.37930128 8.98627344,2.47080386 9.00643691,2.56665706 C9.01307441,2.60241028 9.02199877,2.63813561 9.02866415,2.67374938 C9.0197119,2.71396478 9.00415005,2.74076575 8.9728869,2.76974203 C7.21710271,4.52114771 5.46338227,6.27704346 3.70977339,8.03065234 C3.68079711,8.05962862 3.65399614,8.07304305 3.61380863,8.08196741 C2.98684444,8.21357383 2.36219501,8.34529181 1.73523082,8.47687034 L1.4050295,8.54606202 L1.46758368,8.25376134 C1.6036244,7.6112353 1.739693,6.96642239 1.87804847,6.32389635 C1.88251065,6.30373287 1.90038726,6.27258128 1.92043918,6.25024249 C2.30870463,5.85751486 2.69685852,5.46707411 3.08729927,5.07892022 L4.14706704,4.01915245 C5.1578066,3.00841289 6.16843461,1.99778488 7.17688731,0.984870004 C7.21927802,0.949116786 7.23932994,0.942479293 7.25500335,0.942479293 Z" stroke-width="0.8"></path>
                        </g>
                    </g>
                </g>
            </g>
        </g>
    </g>
</svg>