<?xml version="1.0" encoding="UTF-8"?>
<svg width="20px" height="15px" viewBox="0 0 20 15" version="1.1" xmlns="http://www.w3.org/2000/svg" xmlns:xlink="http://www.w3.org/1999/xlink">
    <!-- Generator: Sketch 48.2 (47327) - http://www.bohemiancoding.com/sketch -->
    <title>envelope</title>
    <desc>Created with Sketch.</desc>
    <defs></defs>
    <g id="AddContact" stroke="none" stroke-width="1" fill="none" fill-rule="evenodd" transform="translate(-529.000000, -787.000000)">
        <g id="Rectangle-9" transform="translate(445.000000, 67.000000)" fill="#002D48" stroke="#002D48" stroke-width="0.5">
            <g id="Email" transform="translate(82.569252, 715.897872)">
                <g id="envelope" transform="translate(1.464827, 3.847000)">
                    <path d="M16.8550482,0.687316164 L3.14885606,0.687316164 C1.92526315,0.687316164 0.930747922,1.68183139 0.930747922,2.9054243 L0.930747922,12.2730737 C0.930747922,13.496479 1.92526315,14.4909942 3.14885606,14.4909942 L16.8512014,14.4909942 C18.0747943,14.4909942 19.0693564,13.496479 19.0693564,12.2730737 L19.0693564,2.90908354 C19.0730156,1.68567828 18.0785004,0.687316164 16.8550482,0.687316164 Z M18.059782,12.2730737 C18.059782,12.9373662 17.5193876,13.4778075 16.8550482,13.4778075 L3.14885606,13.4778075 C2.48456361,13.4778075 1.94416921,12.9373662 1.94416921,12.2730737 L1.94416921,2.90908354 C1.94416921,2.24479109 2.48456361,1.70439669 3.14885606,1.70439669 L16.8512014,1.70439669 C17.5155407,1.70439669 18.0559351,2.24479109 18.0559351,2.90908354 L18.0559351,12.2730737 L18.059782,12.2730737 Z" id="Fill-1"></path>
                    <path d="M12.370089,7.47290401 L16.8061177,3.49460854 C17.012677,3.30695531 17.0313485,2.9878979 16.8436952,2.77772627 C16.656042,2.57135463 16.3369846,2.55268313 16.1270006,2.74033637 L10.0094114,8.23102307 L8.81584297,7.16501196 C8.81218374,7.16135273 8.8085245,7.15769349 8.8085245,7.1538466 C8.7821123,7.12762206 8.75593468,7.10510367 8.72586325,7.08253837 L3.86944447,2.73648948 C3.65922594,2.54883624 3.34016853,2.56750774 3.1525153,2.77772627 C2.96486206,2.9878979 2.98376813,3.30695531 3.19375209,3.49460854 L7.6826051,7.50658776 L3.21265816,11.6912549 C3.00994575,11.882755 2.99859273,12.2017655 3.19009286,12.4081371 C3.2914256,12.5131291 3.42648902,12.5695658 3.56155243,12.5695658 C3.68545048,12.5695658 3.80930161,12.5244821 3.90697512,12.4343148 L8.4443834,8.18978627 L9.67529478,9.28929348 C9.77296829,9.37561397 9.89301945,9.41685077 10.0132583,9.41685077 C10.1332625,9.41685077 10.2571605,9.37195473 10.3509872,9.28563424 L11.6158169,8.15220871 L16.1270006,12.4381617 C16.2244865,12.5319883 16.3520438,12.577072 16.4758949,12.577072 C16.6109583,12.577072 16.7423625,12.5244821 16.8436952,12.4193025 C17.0351953,12.2168247 17.0276892,11.8939204 16.8250237,11.7026079 L12.370089,7.47290401 Z" id="Fill-4"></path>
                </g>
            </g>
        </g>
    </g>
</svg>