<?xml version="1.0" encoding="UTF-8"?>
<svg width="17px" height="15px" viewBox="0 0 17 15" version="1.1" xmlns="http://www.w3.org/2000/svg" xmlns:xlink="http://www.w3.org/1999/xlink">
    <!-- Generator: Sketch 48.2 (47327) - http://www.bohemiancoding.com/sketch -->
    <title>Icon /Filter</title>
    <desc>Created with Sketch.</desc>
    <defs></defs>
    <g id="ContactsTable" stroke="none" stroke-width="1" fill="none" fill-rule="evenodd" transform="translate(-457.000000, -261.000000)">
        <g id="Table" transform="translate(170.239308, 229.643698)" fill="#4B6976" stroke="#4B6976">
            <g id="Topbar" transform="translate(21.000000, 20.500000)">
                <g id="Icon-/Filter" transform="translate(266.000000, 11.000000)">
                    <g transform="translate(0.424770, 0.000000)" id="filter">
                        <path d="M15.302846,0.38482981 C15.2261746,0.221951601 15.062056,0.118069259 14.8822,0.118069259 L0.465114031,0.118069259 C0.285258035,0.118069259 0.121061916,0.221951601 0.0444680694,0.38482981 C-0.0324358733,0.547785544 -0.00817081879,0.740045401 0.106254806,0.879046176 L5.64830023,7.60093142 L5.64830023,13.7992962 C5.64830023,13.9600812 5.73163867,14.1096253 5.86815868,14.1944367 C5.94296947,14.2407961 6.02809097,14.264441 6.11344504,14.264441 C6.18406953,14.264441 6.25492659,14.2483935 6.31996934,14.2159884 L9.43395883,12.6727154 C9.59203054,12.5943385 9.69226925,12.4331659 9.69226925,12.2563333 L9.69862623,7.60124152 L15.2410593,0.879046176 C15.3554849,0.740045401 15.37975,0.547475447 15.302846,0.38482981 Z M8.87469971,7.13795728 C8.8062459,7.22121821 8.7686467,7.32541064 8.7686467,7.43316919 L8.76259981,11.9671683 L6.57858986,13.0494827 L6.57858986,7.43378939 C6.57858986,7.32603084 6.54106818,7.22121821 6.47230427,7.13795728 L1.45145361,1.04835889 L13.8958605,1.04835889 L8.87469971,7.13795728 Z" stroke-width="0.5"></path>
                    </g>
                </g>
            </g>
        </g>
    </g>
</svg>