<?xml version="1.0" encoding="UTF-8"?>
<svg width="32px" height="60px" viewBox="0 0 32 60" version="1.1" xmlns="http://www.w3.org/2000/svg" xmlns:xlink="http://www.w3.org/1999/xlink">
    <!-- Generator: Sketch 48.2 (47327) - http://www.bohemiancoding.com/sketch -->
    <title>flash</title>
    <desc>Created with Sketch.</desc>
    <defs></defs>
    <g id="Contacts-Add-contact-Modal" stroke="none" stroke-width="1" fill="none" fill-rule="evenodd" transform="translate(-397.000000, -192.000000)">
        <g id="AddCOntact" transform="translate(-10.000000, -146.000000)">
            <g id="flash" transform="translate(407.500000, 338.000000)">
                <g id="Group-3" fill="#2CB7F2">
                    <path d="M2.76351571,33.4002086 L13.0987179,33.4002086 C13.4718464,33.4002086 13.8231983,33.5744211 14.0490423,33.8713316 C14.2748863,34.168008 14.3489969,34.5534297 14.2494803,34.9129771 L9.42866508,52.3297761 L27.3868341,26.5437534 L17.7688534,26.5437534 C17.3959591,26.5437534 17.0444901,26.3695409 16.818529,26.0726304 C16.592685,25.775954 16.5185744,25.3905323 16.6179739,25.0309849 L22.8855254,2.38816274 L11.3472268,2.38816274 L2.76351571,33.4002086 Z M6.41226029,59.9440791 C6.24120892,59.9440791 6.06840138,59.9073165 5.90507718,59.8306302 C5.378342,59.5832438 5.10672039,58.9922327 5.26196619,58.4313106 L11.5292836,35.7884885 L1.19396429,35.7884885 C0.820952896,35.7884885 0.469600979,35.614276 0.243756978,35.3173655 C0.0179129768,35.0206891 -0.0561975741,34.6352674 0.0433189634,34.27572 L9.28805407,0.875511374 C9.43112372,0.358259535 9.90201256,0 10.4388165,0 L24.4549598,0 C24.8278541,0 25.1793231,0.17421248 25.4052842,0.471122997 C25.6311282,0.767799357 25.7052387,1.15310397 25.6058393,1.51265137 L19.3385219,24.1554735 L29.6737241,24.1554735 C30.1185045,24.1554735 30.5264052,24.4025087 30.7322288,24.7968284 C30.9379353,25.191148 30.9078462,25.6669541 30.6536693,26.0320042 L7.3926738,59.4323299 C7.16320037,59.7619053 6.7927647,59.9440791 6.41226029,59.9440791 Z" id="Fill-1"></path>
                </g>
                <path d="M16.031763,19.1298884 C15.9253388,19.1298884 15.8172756,19.1156048 15.7099148,19.0856328 C15.0747651,18.9082592 14.703627,18.2494597 14.8810006,17.6143101 L15.0474859,17.0180304 C15.2248595,16.3828807 15.8840102,16.0118597 16.5188086,16.1889991 C17.1539583,16.3663727 17.5252135,17.0251722 17.3477228,17.6603218 L17.1811204,18.2566015 C17.0337189,18.7843904 16.5540492,19.1298884 16.031763,19.1298884" id="Fill-4" fill="#F78000"></path>
                <path d="M17.1987993,14.9506621 C17.0923751,14.9506621 16.9843118,14.9362615 16.8770681,14.9062895 C16.2419185,14.7289159 15.8706633,14.0702335 16.0480368,13.4350838 L18.5826645,4.35976097 C18.7600381,3.7246113 19.4193059,3.35394147 20.0539873,3.53084675 C20.6890198,3.70833742 21.0602751,4.36690275 20.8829015,5.00205241 L18.3482738,14.0773752 C18.2008722,14.6051641 17.7210855,14.9506621 17.1987993,14.9506621" id="Fill-5" fill="#F78000"></path>
            </g>
        </g>
    </g>
</svg>