<?xml version="1.0" encoding="UTF-8"?>
<svg width="15px" height="16px" viewBox="0 0 15 16" version="1.1" xmlns="http://www.w3.org/2000/svg" xmlns:xlink="http://www.w3.org/1999/xlink">
    <!-- Generator: Sketch 48.2 (47327) - http://www.bohemiancoding.com/sketch -->
    <title>Icon / Search</title>
    <desc>Created with Sketch.</desc>
    <defs></defs>
    <g id="ContactsTableMoreOptions" stroke="none" stroke-width="1" fill="none" fill-rule="evenodd" transform="translate(-188.000000, -260.000000)">
        <g id="Table" transform="translate(170.239308, 229.643698)" fill="#4B6976" stroke="#4B6976">
            <g id="Topbar" transform="translate(17.000000, 20.500000)">
                <g id="Icon-/-Search" transform="translate(0.500697, 9.996317)">
                    <g transform="translate(0.681650, 0.571429)" id="Fill-1">
                        <path d="M13.9056053,13.4585385 L10.4253527,9.83931977 C11.320449,8.77476815 11.8108424,7.43581446 11.8108424,6.04198037 C11.8108424,2.78606351 9.16181948,0.137040562 5.90461887,0.137040562 C2.64902294,0.137040562 0,2.78606351 0,6.04198037 C0,9.29886004 2.64902294,11.947883 5.90461887,11.947883 C7.12707203,11.947883 8.29304009,11.5794461 9.28826908,10.8785173 L12.7961223,14.5266205 C12.942791,14.679708 13.1395261,14.7634728 13.3516662,14.7634728 C13.5509687,14.7634728 13.7400012,14.6870895 13.8844234,14.5481233 C14.1915611,14.2535022 14.2002265,13.7656763 13.9056053,13.4585385 Z M5.90461887,1.6778643 C8.3116545,1.6778643 10.2700187,3.63622849 10.2700187,6.04198037 C10.2700187,8.449016 8.3116545,10.4070592 5.90461887,10.4070592 C3.49886699,10.4070592 1.54082374,8.449016 1.54082374,6.04198037 C1.54082374,3.63622849 3.49886699,1.6778643 5.90461887,1.6778643 Z" stroke-width="0.5"></path>
                    </g>
                </g>
            </g>
        </g>
    </g>
</svg>