<?xml version="1.0" encoding="UTF-8"?>
<svg width="25px" height="19px" viewBox="0 0 25 19" version="1.1" xmlns="http://www.w3.org/2000/svg" xmlns:xlink="http://www.w3.org/1999/xlink">
    <!-- Generator: Sketch 48.2 (47327) - http://www.bohemiancoding.com/sketch -->
    <title>Combined Shape</title>
    <desc>Created with Sketch.</desc>
    <defs></defs>
    <g id="AddContact" stroke="none" stroke-width="1" fill="none" fill-rule="evenodd" transform="translate(-529.000000, -1031.000000)">
        <g id="Rectangle-9" transform="translate(445.000000, 67.000000)" fill="#000000" stroke="#002D48">
            <g id="Groups" transform="translate(82.569252, 960.479833)">
                <g id="group-(2)" transform="translate(2.000000, 3.887426)">
                    <path d="M7.87353791,5.19610003 C7.87353791,6.28790169 8.30039939,7.54765937 9.01527716,8.56647978 C9.82676319,9.72303697 10.8529342,10.3599748 11.9045991,10.3599748 C12.956264,10.3599748 13.9824351,9.72303697 14.7941544,8.56647978 C15.5090322,7.54765937 15.9356604,6.28766834 15.9356604,5.19610003 C15.9356604,2.97352672 14.1274058,1.16503881 11.9045991,1.16503881 C9.68202582,1.16503881 7.87353791,2.97352672 7.87353791,5.19610003 Z M15.8086363,7.35021393 C15.9056337,7.29725539 16.0260712,7.29094795 16.1325522,7.34388362 C16.3929744,7.47333635 16.6573637,7.53896696 16.918486,7.53896696 C17.5969023,7.53896696 18.3108467,7.07634408 18.8769618,6.26964179 C19.4113408,5.50786001 19.7433442,4.53751874 19.7433442,3.73694198 C19.7433442,2.17936718 18.4760608,0.912083855 16.918486,0.912083855 C16.1833649,0.912083855 15.4871554,1.19309954 14.9580268,1.70355984 C14.8187732,1.83779631 14.5972626,1.83388765 14.4630261,1.69463408 C14.328848,1.5556722 14.3329317,1.33392825 14.4719519,1.19969177 C15.1321083,0.562753996 16.0010576,0.212024017 16.918486,0.212024017 C18.8621438,0.212024017 20.4431706,1.79334251 20.4431706,3.73694198 C20.4431706,4.63161244 20.1147786,5.65530697 19.5582827,6.51143297 C20.5712768,7.00079922 21.4285487,7.75973488 22.0394821,8.70779268 C22.6737363,9.69201848 23.0089483,10.8341661 23.0089483,12.0102666 L23.0089483,12.0152837 C23.0089483,12.1141672 22.9672364,12.2082669 22.8940801,12.2745976 C21.9305644,13.1485639 20.76724,13.8116956 19.5300593,14.1922365 C19.4956396,14.2027374 19.4609867,14.2077545 19.4268004,14.2077545 C19.2773377,14.2077545 19.1387841,14.1109129 19.0925219,13.9605167 C19.0355253,13.7757009 19.1394842,13.5799175 19.3243,13.5229793 C20.4142348,13.1877089 21.4424477,12.6141266 22.3068466,11.8598704 C22.2797193,10.871736 21.9852858,9.91597929 21.4511401,9.08699176 C20.9472721,8.30508326 20.2545045,7.66884555 19.4375347,7.23475011 C18.6775614,7.92086709 17.8063369,8.28209796 16.9039014,8.28209796 C16.3674806,8.28209796 15.8401605,8.15422037 15.3365258,7.90219883 C15.1635527,7.81562476 15.093605,7.60549013 15.1799458,7.43251701 C15.2665782,7.2595439 15.4766545,7.18959625 15.6496276,7.27617032 C15.7023612,7.30254092 15.7553729,7.32722447 15.8086363,7.35021393 Z M4.24907477,6.50824338 C3.69381064,5.65276519 3.36602763,4.63050165 3.36602763,3.73694198 C3.36602763,1.79334251 4.94728779,0.212024017 6.89094559,0.212024017 C7.808374,0.212024017 8.67708992,0.562753996 9.33747971,1.19969177 C9.47649992,1.33392825 9.4805836,1.55543885 9.34611378,1.69463408 C9.21216899,1.83388765 8.99042504,1.83779631 8.85140482,1.70355984 C8.32227626,1.19309954 7.62606675,0.912083855 6.89094559,0.912083855 C5.33331245,0.912083855 4.06608746,2.17936718 4.06608746,3.73694198 C4.06608746,4.53751874 4.39809084,5.50786001 4.93246985,6.26940844 C5.49852657,7.07634408 6.21229591,7.53896696 6.89094559,7.53896696 C7.15183455,7.53896696 7.41639883,7.47333635 7.67687943,7.34388362 C7.77962649,7.29280424 7.8953683,7.29688587 7.99045754,7.3448153 C8.04504839,7.32107591 8.0993675,7.29554728 8.15338683,7.2682363 C8.32589324,7.18096218 8.53649457,7.24997641 8.6237687,7.42248282 C8.71104283,7.59498923 8.6417369,7.80559057 8.46946384,7.8928647 C7.96244551,8.14920327 7.43121677,8.27912271 6.89047888,8.27912271 C5.99055196,8.27912271 5.12160268,7.9190586 4.36390459,7.23475011 C3.5494433,7.66744543 2.8587176,8.30210801 2.356483,9.08150796 C1.82367913,9.90804528 1.52994569,10.8610601 1.50281837,11.8463943 C2.14594001,12.4079006 2.86741001,12.8629979 3.64926017,13.2000183 C3.82678368,13.2763832 3.908574,13.4823758 3.83203413,13.6598993 C3.77503759,13.7923273 3.64605156,13.8716091 3.51047331,13.8716091 C3.46421102,13.8716091 3.41730701,13.8622749 3.3719198,13.8429066 C2.47158451,13.4546068 1.64504719,12.9222696 0.915584841,12.2609464 C0.842428588,12.1943824 0.800716689,12.1002827 0.800716689,12.0015742 L0.800716689,11.9967905 C0.800716689,10.8234319 1.13522861,9.68425948 1.76808271,8.70207553 C2.37873442,7.75460825 3.23613771,6.99661911 4.24907477,6.50824338 Z M11.9045991,1.86509865 C13.7413228,1.86509865 15.2356005,3.35960973 15.2356005,5.19610003 C15.2356005,6.13523031 14.846834,7.27236084 14.2210388,8.16429541 C13.5539984,9.11480165 12.7099596,9.65991491 11.9045991,9.65991491 C11.099472,9.65991491 10.2551415,9.11480165 9.58839282,8.16429541 C8.96236431,7.27259419 8.57359775,6.13523031 8.57359775,5.19610003 C8.57359775,3.35960973 10.0680505,1.86509865 11.9045991,1.86509865 Z M14.9126396,8.48739051 C16.091307,9.04843013 17.0887172,9.92601348 17.7970028,11.0258075 C18.5245983,12.155179 18.9092812,13.465516 18.9092812,14.8150564 L18.9092812,14.8207735 C18.9092812,14.9194236 18.8675693,15.0137567 18.7944714,15.0800874 C16.9048349,16.7937755 14.457834,17.7376895 11.9043658,17.7376895 C9.35089752,17.7376895 6.90413005,16.7937755 5.01431851,15.0800874 C4.94116226,15.0137567 4.89945036,14.9194236 4.89945036,14.8207735 L4.89945036,14.8150564 C4.89945036,13.465516 5.28413324,12.155179 6.01196212,11.0255741 C6.72071437,9.92601348 7.71812462,9.04843013 8.8967337,8.48739051 C9.03027011,8.42380174 9.18959206,8.45092906 9.29442603,8.55552967 C10.0769762,9.3362714 10.9794117,9.74872333 11.9043658,9.74872333 C12.8293782,9.74872333 13.7319887,9.3362714 14.5150056,8.55552967 C14.6198396,8.45092906 14.7791032,8.42380174 14.9126396,8.48739051 Z M4.06083702,13.7068616 C4.17588018,13.4290546 4.59451597,13.4201871 4.70687557,13.7068616 C4.77501473,13.8677587 4.70757563,14.0594001 4.55624603,14.1448658 C4.27231342,14.3057628 3.93616803,14.0074207 4.06083702,13.7068616 Z M11.9045991,17.0376297 C14.2315397,17.0376297 16.4633888,16.1965078 18.2076462,14.6655936 C18.1805189,13.5036109 17.8364395,12.3791982 17.2086025,11.4047732 C16.6140183,10.4820943 15.7936649,9.73303032 14.8260655,9.22642035 C13.950524,10.0272305 12.9453548,10.4487832 11.9045991,10.4487832 C10.8636102,10.4487832 9.8584409,10.0272305 8.98359946,9.22642035 C8.01576673,9.73303032 7.19512159,10.4820943 6.60059577,11.4047732 C5.97252542,12.3791982 5.62844601,13.5036109 5.60131869,14.6655936 C7.34557611,16.1965078 9.57742521,17.0376297 11.9045991,17.0376297 Z" id="Combined-Shape"></path>
                </g>
            </g>
        </g>
    </g>
</svg>