<?xml version="1.0" encoding="UTF-8"?>
<svg width="31px" height="60px" viewBox="0 0 31 60" version="1.1" xmlns="http://www.w3.org/2000/svg" xmlns:xlink="http://www.w3.org/1999/xlink">
    <!-- Generator: Sketch 49.1 (51147) - http://www.bohemiancoding.com/sketch -->
    <title>Group 3</title>
    <desc>Created with Sketch.</desc>
    <defs></defs>
    <g id="Symbols" stroke="none" stroke-width="1" fill="none" fill-rule="evenodd">
        <g id="Illustration/QuickAdd" transform="translate(-42.000000, -28.000000)" fill="#FFFFFF">
            <g id="flash" transform="translate(42.000000, 28.000000)">
                <g id="Group-3">
                    <path d="M2.76351571,33.4002086 L13.0987179,33.4002086 C13.4718464,33.4002086 13.8231983,33.5744211 14.0490423,33.8713316 C14.2748863,34.168008 14.3489969,34.5534297 14.2494803,34.9129771 L9.42866508,52.3297761 L27.3868341,26.5437534 L17.7688534,26.5437534 C17.3959591,26.5437534 17.0444901,26.3695409 16.818529,26.0726304 C16.592685,25.775954 16.5185744,25.3905323 16.6179739,25.0309849 L22.8855254,2.38816274 L11.3472268,2.38816274 L2.76351571,33.4002086 Z M6.41226029,59.9440791 C6.24120892,59.9440791 6.06840138,59.9073165 5.90507718,59.8306302 C5.378342,59.5832438 5.10672039,58.9922327 5.26196619,58.4313106 L11.5292836,35.7884885 L1.19396429,35.7884885 C0.820952896,35.7884885 0.469600979,35.614276 0.243756978,35.3173655 C0.0179129768,35.0206891 -0.0561975741,34.6352674 0.0433189634,34.27572 L9.28805407,0.875511374 C9.43112372,0.358259535 9.90201256,0 10.4388165,0 L24.4549598,0 C24.8278541,0 25.1793231,0.17421248 25.4052842,0.471122997 C25.6311282,0.767799357 25.7052387,1.15310397 25.6058393,1.51265137 L19.3385219,24.1554735 L29.6737241,24.1554735 C30.1185045,24.1554735 30.5264052,24.4025087 30.7322288,24.7968284 C30.9379353,25.191148 30.9078462,25.6669541 30.6536693,26.0320042 L7.3926738,59.4323299 C7.16320037,59.7619053 6.7927647,59.9440791 6.41226029,59.9440791 Z" id="Fill-1"></path>
                </g>
            </g>
        </g>
    </g>
</svg>