<?xml version="1.0" encoding="UTF-8"?>
<svg width="41px" height="31px" viewBox="0 0 41 31" version="1.1" xmlns="http://www.w3.org/2000/svg" xmlns:xlink="http://www.w3.org/1999/xlink">
    <!-- Generator: Sketch 49.1 (51147) - http://www.bohemiancoding.com/sketch -->
    <title>Group</title>
    <desc>Created with Sketch.</desc>
    <defs></defs>
    <g id="Symbols" stroke="none" stroke-width="1" fill="none" fill-rule="evenodd">
        <g id="Illustration/Done" transform="translate(-37.000000, -41.000000)" fill="#FFFFFF">
            <g id="Group" transform="translate(37.000000, 41.000000)">
                <path d="M0.458745694,16.9620257 C0.150345227,16.6536252 0,16.185242 0,15.8768415 C0,15.5684411 0.150345227,15.1096954 0.458745694,14.8012949 L2.61947646,12.6405641 C3.2382049,12.0218357 4.1634063,12.0218357 4.78020723,12.6405641 L4.93247996,12.7986194 L13.4173478,21.8925781 C13.7257483,22.2029061 14.184494,22.2029061 14.4948219,21.8925781 L35.1537982,0.456818191 L35.3118534,0.456818191 C35.9305819,-0.15227273 36.8557833,-0.15227273 37.4725842,0.456818191 L39.6275325,2.61754896 C40.2443334,3.2362774 40.2443334,4.1614788 39.6275325,4.77827973 L14.9612776,30.3793735 C14.6528772,30.6877739 14.3425492,30.8381192 13.8760935,30.8381192 C13.4173478,30.8381192 13.1089473,30.6877739 12.8005469,30.3793735 L0.767146161,17.4207714 L0.458745694,16.9620257 Z" id="Fill-1"></path>
            </g>
        </g>
    </g>
</svg>