<?xml version="1.0" encoding="UTF-8"?>
<svg width="18px" height="18px" viewBox="0 0 18 18" version="1.1" xmlns="http://www.w3.org/2000/svg" xmlns:xlink="http://www.w3.org/1999/xlink">
    <!-- Generator: Sketch 49.1 (51147) - http://www.bohemiancoding.com/sketch -->
    <title>Help</title>
    <desc>Created with Sketch.</desc>
    <defs>
        <path d="M11.703101,3 C6.89068216,3 3,6.89068216 3,11.703101 C3,16.5155199 6.89068216,20.4062021 11.703101,20.4062021 C16.5155199,20.4062021 20.4062021,16.5155199 20.4062021,11.703101 C20.4062021,6.89068216 16.5155199,3 11.703101,3 Z M11.703101,19.38223 C7.50527138,19.38223 4.02397212,15.9009307 4.02397212,11.703101 C4.02397212,7.50527138 7.50527138,4.02397212 11.703101,4.02397212 C15.9009307,4.02397212 19.38223,7.50527138 19.38223,11.703101 C19.38223,15.9009307 15.9009307,19.38223 11.703101,19.38223 Z M14.7278473,9.65069858 C14.7278473,9.9146999 14.6958476,10.1466976 14.6318473,10.3466986 C14.567847,10.5466996 14.4778479,10.7306977 14.3618473,10.8986986 C14.2458467,11.0666994 14.1058481,11.2246978 13.9418473,11.3726986 C13.7778465,11.5206993 13.5918483,11.6746978 13.3838473,11.8346986 C13.2558467,11.9386991 13.1498477,12.0306982 13.0658473,12.1106986 C12.9818469,12.190699 12.9158475,12.2726982 12.8678473,12.3566986 C12.8198471,12.440699 12.7858474,12.5286981 12.7658473,12.6206986 C12.7458472,12.712699 12.7358473,12.8226979 12.7358473,12.9506986 L12.7358473,13.2626986 L10.8638473,13.2626986 L10.8638473,12.8066986 C10.8638473,12.5986975 10.8838471,12.4126994 10.9238473,12.2486986 C10.9638475,12.0846978 11.0238469,11.9346993 11.1038473,11.7986986 C11.1838477,11.6626979 11.2818467,11.5306992 11.3978473,11.4026986 C11.5138479,11.2746979 11.6518465,11.1426993 11.8118473,11.0066986 L12.2078473,10.6346986 C12.343848,10.514698 12.4598468,10.3886992 12.5558473,10.2566986 C12.6518478,10.1246979 12.6998473,9.9666995 12.6998473,9.78269858 C12.6998473,9.5266973 12.6218481,9.32269934 12.4658473,9.17069858 C12.3098465,9.01869782 12.0958487,8.94269858 11.8238473,8.94269858 C11.4878456,8.94269858 11.2358481,9.05669744 11.0678473,9.28469858 C10.8998465,9.51269972 10.8078474,9.77069714 10.7918473,10.0586986 L8.8838473,9.85469858 C8.93184754,9.42269642 9.04184644,9.04270022 9.2138473,8.71469858 C9.38584816,8.38669694 9.60784594,8.11469966 9.8798473,7.89869858 C10.1518487,7.6826975 10.4598456,7.52069912 10.8038473,7.41269858 C11.147849,7.30469804 11.5118454,7.25069858 11.8958473,7.25069858 C12.2558491,7.25069858 12.6058456,7.29669812 12.9458473,7.38869858 C13.285849,7.48069904 13.587846,7.6246976 13.8518473,7.82069858 C14.1158486,8.01669956 14.3278465,8.26669706 14.4878473,8.57069858 C14.6478481,8.8747001 14.7278473,9.2346965 14.7278473,9.65069858 Z M12.9758473,14.9546986 C12.9758473,15.2747002 12.8638484,15.5446975 12.6398473,15.7646986 C12.4158462,15.9846997 12.1398489,16.0946986 11.8118473,16.0946986 C11.6518465,16.0946986 11.501848,16.0666989 11.3618473,16.0106986 C11.2218466,15.9546983 11.0978478,15.8746991 10.9898473,15.7706986 C10.8818468,15.6666981 10.7958476,15.5466993 10.7318473,15.4106986 C10.667847,15.2746979 10.6358473,15.1266994 10.6358473,14.9666986 C10.6358473,14.8146978 10.665847,14.6686993 10.7258473,14.5286986 C10.7858476,14.3886979 10.8698468,14.2666991 10.9778473,14.1626986 C11.0858478,14.0586981 11.2118466,13.9766989 11.3558473,13.9166986 C11.499848,13.8566983 11.6518465,13.8266986 11.8118473,13.8266986 C11.9718481,13.8266986 12.1218466,13.8566983 12.2618473,13.9166986 C12.401848,13.9766989 12.5258468,14.0566981 12.6338473,14.1566986 C12.7418478,14.2566991 12.825847,14.3766979 12.8858473,14.5166986 C12.9458476,14.6566993 12.9758473,14.8026978 12.9758473,14.9546986 Z" id="path-1"></path>
    </defs>
    <g id="Symbols" stroke="none" stroke-width="1" fill="none" fill-rule="evenodd">
        <g id="Card/Broadcast" transform="translate(-204.000000, -8.000000)">
            <g id="Icons/Help" transform="translate(201.000000, 5.000000)">
                <mask id="mask-2" fill="white">
                    <use xlink:href="#path-1"></use>
                </mask>
                <use id="Combined-Shape" fill="#4B6976" fill-rule="evenodd" xlink:href="#path-1"></use>
                <g id="Color/Gray03" mask="url(#mask-2)" fill="#B3BEC4" fill-rule="evenodd">
                    <rect id="Rectangle-2" x="0" y="0" width="24" height="24"></rect>
                </g>
            </g>
        </g>
    </g>
</svg>