<?xml version="1.0" encoding="UTF-8"?>
<svg width="25px" height="22px" viewBox="0 0 25 22" version="1.1" xmlns="http://www.w3.org/2000/svg" xmlns:xlink="http://www.w3.org/1999/xlink">
    <!-- Generator: Sketch 48.2 (47327) - http://www.bohemiancoding.com/sketch -->
    <title>Icon/ Inbox</title>
    <desc>Created with Sketch.</desc>
    <defs></defs>
    <g id="members-home" stroke="none" stroke-width="1" fill="none" fill-rule="evenodd" transform="translate(-540.000000, -252.000000)">
        <g id="Icon/-Inbox" transform="translate(539.538561, 252.486739)" fill="#8B58EB">
            <g transform="translate(0.678557, 0.203430)">
                <path d="M10.2917685,0.144386128 C15.7081159,0.144386128 20.0989028,3.69773562 20.0989028,8.08096276 C20.0989028,12.4641388 15.7081159,16.0175394 10.2917685,16.0175394 C9.77158175,16.0175394 9.26099783,15.9843892 8.76277497,15.921358 C6.6561821,18.0195739 4.2235531,18.3956673 1.7923543,18.4509346 L1.7923543,17.9375924 C3.105029,17.2969107 4.16230959,16.130066 4.16230959,14.7966023 C4.16230959,14.610471 4.14775212,14.427711 4.12083358,14.2491394 C1.90288888,12.7939548 0.484634241,10.5716684 0.484634241,8.08096276 C0.484634241,3.69773562 4.87542105,0.144386128 10.2917685,0.144386128 Z" id="speech-bubbles"></path>
                <path d="M20.8604638,17.9337615 C20.8604638,19.0768545 21.6025369,20.07708 22.7402156,20.6261774 L22.7402156,21.0663747 C20.6332141,21.0188714 18.6992166,20.6964108 16.8735572,18.8980786 C16.4415836,18.9521711 15.999241,18.9805198 15.5482661,18.9805198 C13.597719,18.9805198 11.8009703,18.4543569 10.3665747,17.5700292 C13.3225574,17.5594559 16.1131468,16.6125055 18.2293425,14.9001901 C19.2960216,14.0368048 20.1375963,13.0240138 20.7305703,11.8895021 C21.3590953,10.6868001 21.677725,9.40543668 21.677725,8.08096276 C21.677725,7.86745328 21.6685819,7.65516968 21.6521856,7.4440609 C23.1349017,8.66877787 24.0479357,10.3377785 24.0479357,12.1776377 C24.0479357,14.3125793 22.8188259,16.2174619 20.8965765,17.4647046 C20.8732335,17.6177368 20.8604638,17.7743445 20.8604638,17.9337615 Z" id="Path"></path>
            </g>
        </g>
    </g>
</svg>