<?xml version="1.0" encoding="UTF-8"?>
<svg width="23px" height="24px" viewBox="0 0 23 24" version="1.1" xmlns="http://www.w3.org/2000/svg" xmlns:xlink="http://www.w3.org/1999/xlink">
    <!-- Generator: Sketch 48.2 (47327) - http://www.bohemiancoding.com/sketch -->
    <title>Icon /Invalid number</title>
    <desc>Created with Sketch.</desc>
    <defs>
        <path d="M3.2562902,2.7621406 L4.98916306,4.49501347 C5.09959067,4.60544107 5.09959067,4.7844796 4.98916306,4.89490721 C4.87873546,5.00533481 4.69969693,5.00533481 4.58926933,4.89490721 L2.85639646,3.16203434 L1.12352359,4.89490721 C1.01309598,5.00533481 0.834057454,5.00533481 0.723629847,4.89490721 C0.61320224,4.7844796 0.61320224,4.60544107 0.723629847,4.49501347 L2.45650272,2.7621406 L0.723629847,1.02926773 C0.61320224,0.918840121 0.61320224,0.739801596 0.723629847,0.629373989 C0.834057454,0.518946382 1.01309598,0.518946382 1.12352359,0.629373989 L2.85639646,2.36224686 L4.58926933,0.629373989 C4.69969693,0.518946382 4.87873546,0.518946382 4.98916306,0.629373989 C5.09959067,0.739801596 5.09959067,0.918840121 4.98916306,1.02926773 L3.2562902,2.7621406 Z" id="path-1"></path>
    </defs>
    <g id="AddContactValidation" stroke="none" stroke-width="1" fill="none" fill-rule="evenodd" transform="translate(-878.000000, -621.000000)">
        <g id="Rectangle-9" transform="translate(445.000000, 67.000000)">
            <g id="Numbers" transform="translate(81.000000, 490.500000)">
                <g id="Field-Copy-3" transform="translate(0.500000, 29.500000)">
                    <g id="Icon-/Invalid-number" transform="translate(351.550427, 34.821948)">
                        <path d="M15.9473886,14.4897198 C15.5394436,14.0651669 15.0475656,13.838122 14.5263084,13.838122 C14.0091507,13.838122 13.512963,14.0608572 13.0884101,14.4856204 L11.759672,15.8099963 C11.650249,15.7510802 11.5410362,15.6964738 11.4359228,15.6418674 C11.2846121,15.5661332 11.1415528,15.4946562 11.0195688,15.418922 C9.77507903,14.628522 8.64405917,13.5983059 7.5592892,12.2655209 C7.03372236,11.6011518 6.68059399,11.0418962 6.42416993,10.4744942 C6.76883667,10.1591541 7.08848642,9.8310427 7.39951688,9.51570259 C7.51740153,9.39808073 7.63502339,9.27614923 7.75285547,9.15831714 C8.6356501,8.27552251 8.6356501,7.13178393 7.75285547,6.24877908 L6.60480725,5.10094108 C6.4746769,4.97060051 6.33997412,4.83610795 6.21394319,4.70166795 C5.96161855,4.44093424 5.69678541,4.17179146 5.42354321,3.91946681 C5.01559822,3.51583147 4.52781963,3.30150531 4.0149715,3.30150531 C3.50191315,3.30150531 3.00593571,3.51583147 2.58548224,3.91946681 L2.57707317,3.92787588 L1.14737368,5.37013642 C0.609245781,5.90821176 0.302314743,6.56411918 0.23498963,7.32519253 C0.134185909,8.55286413 0.495723343,9.6966027 0.773275194,10.4449048 C1.45425216,12.282339 2.4719598,13.9850705 3.98974429,15.8099963 C5.83127797,18.0089679 8.04706779,19.7453883 10.5781977,20.9689604 C11.5451356,21.4272022 12.8360855,21.9695871 14.2780832,22.0619818 C14.3665887,22.0662914 14.4589833,22.0703909 14.5431266,22.0703909 C15.5144267,22.0703909 16.3300539,21.7216247 16.9691431,21.0276662 C16.9732951,21.0192572 16.9817042,21.0151578 16.9860138,21.0067487 C17.2046496,20.7419155 17.4567641,20.5020994 17.7218074,20.2457279 C17.9024447,20.0732369 18.0874443,19.8925995 18.2682918,19.7032903 C18.6846459,19.2703284 18.9030715,18.7656791 18.9030715,18.2485739 C18.9030715,17.7273167 18.6803362,17.2267668 18.2557833,16.8063133 L15.9473886,14.4897198 Z M17.4526646,18.9169898 C17.448355,18.9169898 17.448355,18.9212994 17.4526646,18.9169898 C17.2886352,19.0937905 17.1204538,19.2535102 16.9396063,19.4300481 C16.6663641,19.6907819 16.3888122,19.9640241 16.1282362,20.2709551 C15.7034731,20.7250974 15.203186,20.9394236 14.547226,20.9394236 C14.4842105,20.9394236 14.4168854,20.9394236 14.35387,20.9353241 C13.1052282,20.855438 11.9446715,20.3676594 11.0743854,19.9515156 C8.69456615,18.7993679 6.60480725,17.1637513 4.86838695,15.0910208 C3.43479826,13.3628519 2.47605922,11.7651813 1.84127958,10.0497311 C1.45015274,9.00290702 1.30725111,8.18701705 1.37031913,7.41774486 C1.41236448,6.92565662 1.60146343,6.51792186 1.95049237,6.16894547 L3.38429129,4.735094 C3.59020838,4.54173796 3.80884419,4.43662459 4.02338057,4.43662459 C4.28821371,4.43662459 4.50253987,4.59655458 4.63724265,4.73099458 L4.64975114,4.74355563 C4.90638543,4.98331922 5.15009078,5.23133422 5.40667251,5.49616735 C5.53706565,5.63081758 5.6715582,5.76531013 5.8059982,5.90411234 L6.9538362,7.05195033 C7.39951688,7.49763102 7.39951688,7.90967542 6.9538362,8.35535611 C6.83190469,8.47734018 6.71423027,8.59927168 6.59229876,8.71689354 C6.2391704,9.07843098 5.9027025,9.41489887 5.53706565,9.74280003 C5.52865658,9.7512091 5.52024751,9.75551875 5.51593786,9.76371759 C5.15440043,10.1254652 5.22172554,10.4785936 5.2972495,10.718147 L5.31002077,10.7561455 C5.60849018,11.4792203 6.02894366,12.1604075 6.66803294,12.9719353 L6.67218492,12.9760347 C7.83274163,14.405524 9.05610358,15.5199359 10.4057592,16.3733514 C10.5781977,16.4827744 10.7547356,16.5710696 10.922917,16.6550026 C11.0743854,16.7307894 11.217287,16.8022139 11.3392185,16.8779481 C11.3560892,16.8864097 11.3729074,16.8989182 11.3897255,16.9073273 C11.5326271,16.9787518 11.6671197,17.0124406 11.8058693,17.0124406 C12.1548983,17.0124406 12.3735341,16.7938048 12.4449586,16.7223803 L13.8829095,15.2844294 C14.0259688,15.1413176 14.2530662,14.9690893 14.5178994,14.9690893 C14.7786331,14.9690893 14.9929592,15.1329085 15.1232998,15.2760203 L17.448355,17.601023 C17.8815272,18.0298855 17.8815272,18.4715193 17.4526646,18.9169898 Z" id="Fill-1" stroke="#FC4F15" stroke-width="0.5" fill="#FC4F15"></path>
                        <circle id="Oval" stroke="#FC4F15" stroke-width="1.5" fill="#FFFFFF" cx="16.4030715" cy="6.09078655" r="5.47960431"></circle>
                        <g id="Icon-/-Cancel" transform="translate(13.546675, 3.797667)">
                            <g id="Combined-Shape">
                                <use fill="#FC4F15" fill-rule="evenodd" xlink:href="#path-1"></use>
                                <path stroke="#FC4F15" stroke-width="0.3" d="M3.46842223,2.7621406 L5.09522908,4.38894745 C5.26423533,4.5579537 5.26423533,4.83196697 5.09522908,5.00097322 C4.92622283,5.16997947 4.65220956,5.16997947 4.48320331,5.00097322 L2.85639646,3.37416637 L1.2295896,5.00097322 C1.06058335,5.16997947 0.786570081,5.16997947 0.61756383,5.00097322 C0.448557579,4.83196697 0.448557579,4.5579537 0.61756383,4.38894745 L2.24437068,2.7621406 L0.61756383,1.13533375 C0.448557579,0.966327495 0.448557579,0.692314222 0.61756383,0.523307972 C0.786570081,0.354301721 1.06058335,0.354301721 1.2295896,0.523307972 L2.85639646,2.15011482 L4.48320331,0.523307972 C4.65220956,0.354301721 4.92622283,0.354301721 5.09522908,0.523307972 C5.26423533,0.692314222 5.26423533,0.966327495 5.09522908,1.13533375 L3.46842223,2.7621406 Z"></path>
                            </g>
                        </g>
                    </g>
                </g>
            </g>
        </g>
    </g>
</svg>