<?xml version="1.0" encoding="UTF-8"?>
<svg width="16px" height="18px" viewBox="0 0 16 18" version="1.1" xmlns="http://www.w3.org/2000/svg" xmlns:xlink="http://www.w3.org/1999/xlink">
    <!-- Generator: Sketch 48.2 (47327) - http://www.bohemiancoding.com/sketch -->
    <title>keywords</title>
    <desc>Created with Sketch.</desc>
    <defs></defs>
    <g id="keywords" stroke="none" stroke-width="1" fill="none" fill-rule="evenodd">
        <path d="M14.4336821,2.07451698 L10.4341312,2.07451698 C10.099775,1.03503206 9.12858198,0.283371309 7.97755508,0.283371309 C6.82675298,0.283371309 5.85555999,1.03503206 5.52120381,2.07451698 L1.55766459,2.07451698 C0.723100406,2.07451698 0.0469698899,2.7506475 0.0469698899,3.58516672 L0.0469698899,16.3963991 C0.0469698899,17.2309633 0.723100406,17.9070938 1.55766459,17.9070938 L14.4336821,17.9070938 C15.2680665,17.9070938 15.9443768,17.2309633 15.9443768,16.3963991 L15.9443768,3.58516672 C15.9443768,2.7506475 15.2680665,2.07451698 14.4336821,2.07451698 Z M7.97755508,1.962975 C8.47403153,1.962975 8.8767246,2.3658479 8.8767246,2.86214452 C8.8767246,3.35844113 8.47403153,3.76131403 7.97755508,3.76131403 C7.48125847,3.76131403 7.07838557,3.35844113 7.07838557,2.86214452 C7.07838557,2.3658479 7.48125847,1.962975 7.97755508,1.962975 Z M12.4627025,14.932641 C12.4627025,15.2095852 12.2361568,15.436131 11.9592126,15.436131 L4.03932749,15.436131 C3.76238328,15.436131 3.53583752,15.2095852 3.53583752,14.932641 L3.53583752,14.6989019 C3.53583752,14.08387 3.82348185,13.5011632 4.3162717,13.134302 C5.30886492,12.4005797 6.25843289,11.9186698 6.47427853,11.8143212 C6.50309691,11.7999344 6.52099039,11.771161 6.52099039,11.7423426 L6.52099039,10.8756781 C6.38786834,10.6454008 6.30163798,10.4007817 6.26562625,10.1814293 C6.16851594,10.174236 6.03908049,10.0376072 5.90227185,9.55201065 C5.71524459,8.88658026 5.9131518,8.78946995 6.08210575,8.80390162 C6.04982556,8.71043295 6.02469377,8.620516 6.01030706,8.53059905 C5.94916354,8.22119482 5.93477682,7.92981894 6.00662047,7.65305456 C6.0929857,7.2825068 6.29444463,6.98393757 6.51748363,6.75739181 C6.6576192,6.60637629 6.81955962,6.47325424 6.99215521,6.36539886 C7.13251557,6.26828855 7.28353109,6.18556495 7.45248505,6.12797315 C7.58210033,6.08476805 7.7222359,6.05594967 7.86974466,6.04875631 C8.32652277,6.00923781 8.67180386,6.12446639 8.91992969,6.27179531 C9.29052241,6.47694084 9.43065798,6.74669169 9.43065798,6.74669169 C9.43065798,6.74669169 10.2796089,6.80779026 9.99173975,8.53059905 C9.97384628,8.620516 9.95222125,8.71398467 9.91994107,8.80390162 C10.0888501,8.78946995 10.290309,8.88658026 10.099775,9.55201065 C9.96296633,10.0376072 9.83353088,10.174236 9.73642057,10.1814293 C9.70409542,10.4007817 9.61768523,10.6382074 9.48105643,10.8684398 L9.48105643,11.7423426 C9.48105643,11.7748476 9.4989499,11.8034412 9.52776828,11.8143212 C9.74361392,11.9186698 10.6931819,12.4005797 11.6857751,13.134302 C12.178565,13.5011632 12.4662093,14.08387 12.4662093,14.6989019 L12.4662093,14.932641 L12.4627025,14.932641 Z" fill="#3169e3"></path>
    </g>
</svg>