<svg xmlns="http://www.w3.org/2000/svg" width="25" height="33" viewBox="0 0 25 33">
    <g fill="#0D689A" fill-rule="evenodd">
        <path d="M23.424 32.138H1.216C.567 32.138 0 31.571 0 30.923V16.09c0-.648.568-1.216 1.216-1.216h22.208c.648 0 1.216.568 1.216 1.216v14.833c0 .648-.568 1.215-1.216 1.215zM2.432 29.707h19.776v-12.4H2.432v12.4z"/>
        <path d="M19.21 17.306H5.43c-.648 0-1.215-.568-1.215-1.216V8.633c0-4.458 3.647-8.105 8.105-8.105s8.105 3.647 8.105 8.105v7.457c0 .648-.567 1.216-1.216 1.216zM6.645 14.874h11.267v-6.24c0-3.08-2.513-5.674-5.674-5.674-3.08 0-5.674 2.512-5.674 5.673v6.241h.081zM12.32 26.708c-.649 0-1.216-.567-1.216-1.216V22.25c0-.648.568-1.216 1.216-1.216s1.216.568 1.216 1.216v3.242c0 .649-.568 1.216-1.216 1.216z"/>
    </g>
</svg>
