<?xml version="1.0" encoding="UTF-8"?>
<svg width="30px" height="23px" viewBox="0 0 30 23" version="1.1" xmlns="http://www.w3.org/2000/svg" xmlns:xlink="http://www.w3.org/1999/xlink">
    <!-- Generator: Sketch 48.2 (47327) - http://www.bohemiancoding.com/sketch -->
    <title>Icon/ megaphone</title>
    <desc>Created with Sketch.</desc>
    <defs></defs>
    <g id="members-home" stroke="none" stroke-width="1" fill="none" fill-rule="evenodd" transform="translate(-125.000000, -255.000000)">
        <g id="Icon/-megaphone" transform="translate(124.994986, 255.651492)" fill="#21C3A8">
            <g transform="translate(0.355229, 0.203430)">
                <path d="M18.4494368,6.98866807 L18.4494368,0.0215629577 L17.5020286,0.0215629577 C16.8411807,0.0215629577 16.4973082,0.515014221 15.7440233,1.59639655 C14.709739,3.08100619 12.7845641,5.84435596 10.7573624,5.84435596 L4.6909647,5.84435596 C2.10431769,5.84435596 0,7.94873039 0,10.5353207 C0,12.7523899 1.54651802,14.6137839 3.61712941,15.1007662 L4.23127649,22.0736593 L8.55266344,22.0736593 L8.55266344,15.2262854 L10.7573624,15.2262854 C12.7845641,15.2262854 14.709739,17.9895784 15.7440233,19.4742448 C16.4973082,20.5555136 16.8411807,21.0490216 17.5020286,21.0490216 L18.4494368,21.0490216 L18.4494368,14.0819165 C20.0159857,13.6630844 21.1732923,12.2320984 21.1732923,10.5353207 C21.1732923,8.83854287 20.0160424,7.4075569 18.4494368,6.98866807" id="Fill-1"></path>
                <polygon id="Fill-4" points="23.8924948 11.4828424 29.0532482 11.4828424 29.0532482 9.58802588 23.8924948 9.58802588"></polygon>
                <polyline id="Fill-5" points="27.1567294 4.4127458 28.1041376 6.05363014 23.6349309 8.63403524 22.6875227 6.9931509 27.1567294 4.4127458"></polyline>
                <polyline id="Fill-6" points="27.1571833 16.6578955 22.6879766 14.0775472 23.6353849 12.4366628 28.1045916 15.0170112 27.1571833 16.6578955"></polyline>
            </g>
        </g>
    </g>
</svg>