<?xml version="1.0" encoding="UTF-8"?>
<svg width="56px" height="52px" viewBox="0 0 56 52" version="1.1" xmlns="http://www.w3.org/2000/svg" xmlns:xlink="http://www.w3.org/1999/xlink">
    <!-- Generator: Sketch 49.1 (51147) - http://www.bohemiancoding.com/sketch -->
    <title>message</title>
    <desc>Created with Sketch.</desc>
    <defs></defs>
    <g id="Symbols" stroke="none" stroke-width="1" fill="none" fill-rule="evenodd">
        <g id="Illustration/Email" transform="translate(-30.000000, -27.000000)" fill="#FFFFFF">
            <g id="message" transform="translate(30.000000, 27.000000)">
                <path d="M9,22 L4,19 L9,16 L9,22 Z M45,9 L45,25.3257454 L33.9203132,32.9749538 L29.4029469,29.4952789 C29.3959286,29.4898341 29.3898973,29.4863494 29.3830983,29.4815579 C28.8783297,29.1054298 28.164109,29.0916 27.6401498,29.4952789 L23.0899949,33 L12,25.3889053 L12,9 L45,9 Z M27.5100581,3 L31,6 L24,6 L27.5100581,3 Z M52,19.9994849 L47,23 L47,17 L52,19.9994849 Z M36,33.8034489 L52.9656988,22 L53,47 L36,33.8034489 Z M28.5404865,32 L51,48.9398236 L6,49 L28.5404865,32 Z M20,33.7920328 L3.03428521,47 L3,22 L20,33.7920328 Z M55.957233,19.6519538 C55.9571236,19.5682531 55.9383111,19.4418324 55.905608,19.3690019 C55.8196392,19.0587657 55.628233,18.7753789 55.3418892,18.5775409 L47.3255769,13.0393793 L47.3255769,7.10249802 C47.3255769,6.31538513 46.683327,5.6771943 45.891452,5.6771943 L36.6690616,5.6771943 L28.8220618,0.255344171 C28.3316243,-0.0839155082 27.6805149,-0.0853286373 27.1886556,0.25240921 L19.2911245,5.6771943 L10.1090935,5.6771943 C9.31699977,5.6771943 8.67496853,6.31538513 8.67496853,7.10249802 L8.67496853,12.9693751 L0.619718735,18.5024276 C0.223453119,18.774618 0.00907812477,19.2098618 0.00229687494,19.6546713 C0.00185937495,19.6630414 0,19.6710854 0,19.6797815 L0.0427656239,50.5766529 C0.0433124989,50.9546106 0.194906245,51.3169151 0.464078113,51.5838878 C0.733031232,51.850317 1.0971406,52 1.47689059,52 L1.47885934,52 L54.5678424,51.9273869 C55.3598267,51.9262999 56.0010924,51.2873481 55.9999986,50.5001265 L55.957233,19.6519538 L55.957233,19.6519538 Z" id="Fill-1"></path>
                <path d="M18.4157048,17 L37.5842952,17 C38.3662152,17 39,16.3283633 39,15.5 C39,14.6717511 38.3662152,14 37.5842952,14 L18.4157048,14 C17.6340008,14 17,14.6717511 17,15.5 C17,16.3283633 17.6340008,17 18.4157048,17" id="Fill-4"></path>
                <path d="M18.4157048,25 L37.5842952,25 C38.3662152,25 39,24.3282489 39,23.5 C39,22.6716367 38.3662152,22 37.5842952,22 L18.4157048,22 C17.6340008,22 17,22.6716367 17,23.5 C17,24.3282489 17.6340008,25 18.4157048,25" id="Fill-5"></path>
            </g>
        </g>
    </g>
</svg>