<?xml version="1.0" encoding="UTF-8"?>
<svg width="34px" height="34px" viewBox="0 0 34 34" version="1.1" xmlns="http://www.w3.org/2000/svg" xmlns:xlink="http://www.w3.org/1999/xlink">
    <!-- Generator: Sketch 48.2 (47327) - http://www.bohemiancoding.com/sketch -->
    <title>play-button</title>
    <desc>Created with Sketch.</desc>
    <defs>
        <polygon id="path-1" points="7.95807864e-13 32.6799724 32.7208735 32.6799724 32.7208735 0 7.95807864e-13 0"></polygon>
    </defs>
    <g id="members-home" stroke="none" stroke-width="1" fill="none" fill-rule="evenodd" transform="translate(-1071.000000, -807.000000)">
        <g id="play-button" transform="translate(1071.639563, 807.639563)">
            <mask id="mask-2" fill="white">
                <use xlink:href="#path-1"></use>
            </mask>
            <g id="Clip-2"></g>
            <path d="M16.3604368,0 C7.33901926,0 7.95807864e-13,7.33901926 7.95807864e-13,16.3604368 C7.95807864e-13,25.3818543 7.33901926,32.7208735 16.3604368,32.7208735 C25.3818543,32.7208735 32.7208735,25.3818543 32.7208735,16.3604368 C32.7208735,7.33901926 25.3818543,0 16.3604368,0 Z M24.8467316,16.8103488 L12.8511231,24.9905671 C12.7577322,25.0546455 12.6513894,25.0866847 12.5416381,25.0866847 C12.4564275,25.0866847 12.3691719,25.0655525 12.2887331,25.0226063 C12.1108133,24.9292155 11.999017,24.7431155 11.999017,24.5406551 L11.999017,8.18021838 C11.999017,7.97775797 12.1108133,7.79165801 12.2887331,7.69826718 C12.4673345,7.60214961 12.6827469,7.61578331 12.8511231,7.73030637 L24.8494584,15.9105247 C24.9960206,16.0114141 25.0866847,16.1791086 25.0866847,16.3604368 C25.0866847,16.5417649 24.9960206,16.7094594 24.8467316,16.8103488 Z" id="Fill-1" fill="#2CB7F2" mask="url(#mask-2)"></path>
        </g>
    </g>
</svg>