<?xml version="1.0" encoding="UTF-8"?>
<svg width="18px" height="21px" viewBox="0 0 18 21" version="1.1" xmlns="http://www.w3.org/2000/svg" xmlns:xlink="http://www.w3.org/1999/xlink">
    <!-- Generator: Sketch 48.2 (47327) - http://www.bohemiancoding.com/sketch -->
    <title>push-to-talk</title>
    <desc>Created with Sketch.</desc>
    <defs></defs>
    <g id="push-to-talk" stroke="none" stroke-width="1" fill="none" fill-rule="evenodd">
        <g transform="translate(0.944377, 0.935232)" fill="#4B6976">
            <path d="M11.7210328,11.715416 L9.5200107,11.7120876 L9.5200107,9.04602282 C9.5200107,8.38782766 9.07348228,7.852264 8.47987929,7.852264 C7.88586025,7.852264 7.43974789,8.38782766 7.43974789,9.04602282 L7.43974789,13.0833969 C7.18990833,12.799753 6.92415475,12.6300036 6.59016856,12.6300036 C6.40575326,12.6300036 6.22050586,12.6835704 6.05793332,12.7847751 C5.54556459,13.1061757 5.35990113,13.8095126 5.6390724,14.3896979 C6.09537805,15.2981487 7.59254319,18.2787492 7.69416403,18.4311285 C8.03220674,18.9434972 8.54530356,19.242535 9.10281399,19.242535 L12.0427454,19.242535 C13.1702478,19.242535 13.7638508,18.6504922 13.7638508,17.6376122 L13.7638508,13.9244471 C13.7638508,13.9053087 13.789022,13.8871064 13.7878779,13.868384 C13.7894381,13.8395724 13.7870458,13.8095126 13.7870458,13.7786207 C13.7870458,12.640925 12.8582084,11.715416 11.7210328,11.715416 Z" id="Fill-1"></path>
            <path d="M10.4354303,10.8381692 L11.7530688,10.8381692 C11.9517339,10.8381692 12.1459264,10.8511709 12.3336702,10.8885116 C12.7614762,10.1957841 13.0089235,9.37668059 13.0089235,8.50484245 C13.0089235,5.99958195 10.970994,3.95988427 8.46614956,3.95988427 C5.9612011,3.95988427 3.92327164,5.99708563 3.92327164,8.50193008 C3.92327164,9.91994122 4.5688812,11.1872373 5.58945814,12.0209026 C5.87840664,11.8446004 6.1915902,11.747036 6.52443225,11.738923 L6.52443225,10.0540142 C6.1915902,9.62901647 5.98283583,9.0886682 5.98283583,8.50109797 C5.98283583,7.13592551 7.09723262,6.02516918 8.46240508,6.02516918 C9.8271615,6.02516918 10.9189874,7.13592551 10.9189874,8.50109797 C10.9189874,9.03863788 10.7681684,9.53602872 10.4354303,9.94230405 L10.4354303,10.8381692 Z" id="Fill-2"></path>
            <path d="M16.9138888,8.50109797 C16.9138888,3.83475646 13.1247941,0.0386928882 8.45876462,0.0386928882 C3.79242311,0.0386928882 0,3.83475646 0,8.50109797 C0,12.1813949 2.36349059,15.3196794 5.65082589,16.4821302 L4.8308903,14.7712181 C4.65333987,14.4018674 4.59041192,14.0007928 4.62816869,13.6140719 C3.07566856,12.4459003 2.07006952,10.5887457 2.07006952,8.50109797 C2.07006952,4.97442844 4.93937601,2.105538 8.46573351,2.105538 C11.992403,2.105538 14.8612935,4.97442844 14.8612935,8.50109797 C14.8612935,9.70619422 14.5260591,10.8349448 13.9438976,11.7983145 C14.4184055,12.3224367 14.7080821,13.0175566 14.7080821,13.7786207 C14.7080821,13.8066002 14.6931042,13.8346838 14.6922721,13.8622473 C14.6931042,13.8805536 14.6788544,13.9012522 14.6788544,13.9244471 L14.6788544,14.208403 C16.0936412,12.7027088 16.9138888,10.6983756 16.9138888,8.50109797 Z" id="Fill-3"></path>
        </g>
    </g>
</svg>