<svg xmlns="http://www.w3.org/2000/svg" width="19" height="19" viewBox="0 0 19 19">
    <g fill="#4B6976" fill-rule="evenodd">
        <path d="M9.595.785A8.696 8.696 0 0 0 .89 9.488a8.696 8.696 0 0 0 8.704 8.704 8.696 8.696 0 0 0 8.703-8.704A8.696 8.696 0 0 0 9.595.785zm0 16.383c-4.198 0-7.68-3.482-7.68-7.68 0-4.197 3.482-7.679 7.68-7.679 4.197 0 7.679 3.482 7.679 7.68 0 4.197-3.482 7.679-7.68 7.679z"/>
        <path d="M12.62 7.436c0 .264-.033.496-.097.696-.064.2-.154.384-.27.552a2.726 2.726 0 0 1-.42.474c-.164.148-.35.302-.558.462a5.475 5.475 0 0 0-.318.276c-.084.08-.15.162-.198.246a.926.926 0 0 0-.102.264c-.02.092-.03.202-.03.33v.312H8.755v-.456c0-.208.02-.394.06-.558.04-.164.1-.314.18-.45.08-.136.178-.268.294-.396.116-.128.254-.26.414-.396l.396-.372c.136-.12.252-.246.348-.378a.784.784 0 0 0 .144-.474c0-.256-.078-.46-.234-.612-.156-.152-.37-.228-.642-.228-.336 0-.588.114-.756.342-.168.228-.26.486-.276.774L6.775 7.64c.048-.432.158-.812.33-1.14.172-.328.394-.6.666-.816.272-.216.58-.378.924-.486a3.625 3.625 0 0 1 1.092-.162c.36 0 .71.046 1.05.138.34.092.642.236.906.432s.476.446.636.75c.16.304.24.664.24 1.08zm-1.753 5.304c0 .32-.112.59-.336.81-.224.22-.5.33-.828.33a1.2 1.2 0 0 1-.45-.084 1.143 1.143 0 0 1-.372-.24 1.212 1.212 0 0 1-.258-.36 1.1 1.1 0 0 1-.006-.882c.06-.14.144-.262.252-.366a1.21 1.21 0 0 1 .834-.336c.16 0 .31.03.45.09s.264.14.372.24a1.1 1.1 0 0 1 .342.798z"/>
    </g>
</svg>
