<?xml version="1.0" encoding="UTF-8"?>
<svg width="20px" height="21px" viewBox="0 0 20 21" version="1.1" xmlns="http://www.w3.org/2000/svg" xmlns:xlink="http://www.w3.org/1999/xlink">
    <!-- Generator: Sketch 48.2 (47327) - http://www.bohemiancoding.com/sketch -->
    <title>Icon /settings</title>
    <desc>Created with Sketch.</desc>
    <defs></defs>
    <g id="ContactsTable" stroke="none" stroke-width="1" fill="none" fill-rule="evenodd" transform="translate(-1253.000000, -257.000000)">
        <g id="Topbar" transform="translate(191.239308, 250.143698)" fill="#4B6976" stroke="#4B6976">
            <g id="Icon-/settings" transform="translate(1062.537552, 8.000000)">
                <g transform="translate(0.609189, 0.226807)">
                    <path d="M2.29840148,4.67680801 C3.45211533,4.67680801 4.40889366,3.81931799 4.56931405,2.70704266 L17.3951492,2.70704266 C17.5781351,2.70704266 17.7237854,2.56139244 17.7237854,2.38045794 C17.7237854,2.19747203 17.5781351,2.05182181 17.3951492,2.05182181 L4.56931405,2.05182181 C4.40889366,0.939546482 3.45211533,0.0820564613 2.29840148,0.0820564613 C1.03062915,0.0820564613 0,1.11268561 0,2.38045794 C0,3.64658914 1.03062915,4.67680801 2.29840148,4.67680801 Z M2.29840148,0.739328716 C3.2022534,0.739328716 3.93953071,1.47496489 3.93953071,2.38045794 C3.93953071,3.28430986 3.2022534,4.02158717 2.29840148,4.02158717 C1.39290843,4.02158717 0.657272255,3.28430986 0.657272255,2.38045794 C0.657272255,1.47496489 1.39290843,0.739328716 2.29840148,0.739328716 Z" id="Fill-1"></path>
                    <path d="M15.4274353,13.8683625 C14.27167,13.8683625 13.3148917,14.7254423 13.1544713,15.8360765 L0.328636127,15.8360765 C0.147291348,15.8360765 0,15.9837781 0,16.1647126 C0,16.3460574 0.147291348,16.4933487 0.328636127,16.4933487 L13.1544713,16.4933487 C13.3148917,17.6039829 14.27167,18.4631141 15.4274353,18.4631141 C16.6935665,18.4631141 17.7237854,17.4324849 17.7237854,16.1647126 C17.7237854,14.8985814 16.6935665,13.8683625 15.4274353,13.8683625 Z M15.4274353,17.8058418 C14.5219422,17.8058418 13.7863061,17.0702056 13.7863061,16.1647126 C13.7863061,15.2608607 14.5219422,14.5235834 15.4274353,14.5235834 C16.3312872,14.5235834 17.0685645,15.2608607 17.0685645,16.1647126 C17.0685645,17.0702056 16.3312872,17.8058418 15.4274353,17.8058418 Z" id="Fill-3"></path>
                    <path d="M17.3951492,8.94497484 L11.2811223,8.94497484 C11.149832,7.76213095 10.1462814,6.83899577 8.93020468,6.83899577 C7.71371764,6.83899577 6.71016712,7.76213095 6.57887678,8.94497484 L0.328636127,8.94497484 C0.147291348,8.94497484 0,9.09062506 0,9.27155956 C0,9.45454547 0.147291348,9.60019569 0.328636127,9.60019569 L6.59980118,9.60019569 C6.78894132,10.7173944 7.76007954,11.569961 8.93020468,11.569961 C10.0982784,11.569961 11.0694166,10.7173944 11.2585568,9.60019569 L17.3951492,9.60019569 C17.5781351,9.60019569 17.7237854,9.45454547 17.7237854,9.27155956 C17.7237854,9.09062506 17.5781351,8.94497484 17.3951492,8.94497484 Z M8.93020468,10.9126888 C7.98778622,10.9126888 7.22178916,10.1466917 7.22178916,9.20427326 C7.22178916,8.26226509 7.98778622,7.49585774 8.93020468,7.49585774 C9.87221286,7.49585774 10.6386202,8.26226509 10.6386202,9.20427326 C10.6386202,10.1466917 9.87221286,10.9126888 8.93020468,10.9126888 Z" id="Fill-4"></path>
                </g>
            </g>
        </g>
    </g>
</svg>