<?xml version="1.0" encoding="UTF-8"?>
<svg width="43px" height="75px" viewBox="0 0 43 75" version="1.1" xmlns="http://www.w3.org/2000/svg" xmlns:xlink="http://www.w3.org/1999/xlink">
    <!-- Generator: Sketch 49.1 (51147) - http://www.bohemiancoding.com/sketch -->
    <title>CallIcon1</title>
    <desc>Created with Sketch.</desc>
    <defs>
        <path d="M4.99884334,71 C2.2380584,71 1.88807303e-14,68.757846 1.88807303e-14,66.0074179 L1.88807303e-14,4.99258213 C1.88807303e-14,2.23525516 2.23688538,0 4.99884334,0 L34.0011567,0 C36.7619416,0 39,2.24215403 39,4.99258213 L39,66.0074179 C39,68.7647448 36.7631146,71 34.0011567,71 L4.99884334,71 Z" id="path-1"></path>
    </defs>
    <g id="Symbols" stroke="none" stroke-width="1" fill="none" fill-rule="evenodd">
        <g id="Illustration/Text" transform="translate(-35.000000, -18.000000)">
            <g id="CallIcon1" transform="translate(37.000000, 20.000000)">
                <g id="touch-screen">
                    <g id="Group-5">
                        <mask id="mask-2" fill="white">
                            <use xlink:href="#path-1"></use>
                        </mask>
                        <path stroke="#FFFFFF" stroke-width="2" d="M4.99884334,72 C1.68822402,72 -1,69.3125804 -1,66.0074179 L-1,4.99258213 C-1,1.6823213 1.68524989,-1 4.99884334,-1 L34.0011567,-1 C37.311776,-1 40,1.68741959 40,4.99258213 L40,66.0074179 C40,69.3176787 37.3147501,72 34.0011567,72 L4.99884334,72 Z"></path>
                        <polyline id="Fill-1" fill="#27CBB0" mask="url(#mask-2)" points="39 13.3519538 39 56.6480462 19.4999315 60 0 56.6480462 0 13.3519538 19.4999315 10 39 13.3519538"></polyline>
                        <path d="M39,57 L39,65.9597913 C39,68.7416853 36.806773,71 34.1050569,71 L4.8949431,71 C2.18994027,71 0,68.7416853 0,65.9597913 L0,57 L39,57" id="Fill-3" stroke="#FFFFFF" fill="#FFFFFF" mask="url(#mask-2)"></path>
                        <path d="M39,5.0402087 L39,14 L0,14 L0,5.0402087 C0,2.26000685 2.18994027,0 4.8949431,0 L34.1050569,0 C36.806773,0 39,2.26000685 39,5.0402087" id="Fill-4" stroke="#FFFFFF" fill="#FFFFFF" mask="url(#mask-2)"></path>
                    </g>
                    <path d="M9.5,5 C10.3284431,5 11,5.67155691 11,6.5 C11,7.32844309 10.3284431,8 9.5,8 C8.67155691,8 8,7.32844309 8,6.5 C8,5.67155691 8.67155691,5 9.5,5" id="Fill-6" fill="#27CBB0"></path>
                    <path d="M24.2821105,8 L14.7180311,8 C13.7691704,8 13,7.32844309 13,6.5 C13,5.67155691 13.7691704,5 14.7180311,5 L24.2821105,5 C25.2309712,5 26,5.67155691 26,6.5 C26,7.32844309 25.2309712,8 24.2821105,8" id="Fill-7" fill="#27CBB0"></path>
                    <path d="M21.284918,65 L17.7152234,65 C16.7679134,65 16,64.3284431 16,63.5 C16,62.6715569 16.7679134,62 17.7152234,62 L21.284918,62 C22.232228,62 23,62.6715569 23,63.5 C23,64.3284431 22.232228,65 21.284918,65" id="Fill-8" fill="#27CBB0"></path>
                    <path d="M12.6201122,32.7024038 C11.5366174,32.5104423 11.4905351,32.39575 11.4905351,32.1543846 C11.4905351,31.7279231 12.1508421,31.6153846 12.5002484,31.6153846 C13.0611864,31.6153846 13.423138,31.8205385 13.4905847,32.0224615 C13.630695,32.4420577 14.0582301,32.6591923 14.4448998,32.5066731 C14.8320663,32.3548269 15.0320464,31.8914808 14.8918119,31.4724231 C14.5879911,30.5643077 13.6719331,30 12.5002484,30 C11.0280966,30 10,30.8860385 10,32.1543846 C10,33.8750385 11.4895414,34.1388846 12.3793908,34.2966538 C13.4638793,34.4891538 13.5094648,34.6043846 13.5094648,34.8456154 C13.5094648,35.2720769 12.8490336,35.3846154 12.5002484,35.3846154 C11.9393103,35.3846154 11.5773587,35.1801346 11.509912,34.9776731 C11.3696775,34.5580769 10.9422666,34.3413462 10.5555969,34.4927885 C10.1683063,34.6442308 9.9679535,35.1075769 10.108188,35.5271731 C10.4113877,36.4358269 11.3279425,37 12.5002484,37 C13.9722759,37 14.9999999,36.1145 14.9999999,34.8456154 C15.0004967,33.1245577 13.5104585,32.8600385 12.6201122,32.7024038 Z" id="Fill-2" fill="#FFFFFF"></path>
                    <path d="M26.6201123,32.7024038 C25.5362448,32.5104423 25.4905351,32.39575 25.4905351,32.1543846 C25.4905351,31.7279231 26.1509664,31.6153846 26.4997516,31.6153846 C27.0606896,31.6153846 27.4226412,31.8205385 27.4905848,32.023 C27.6308193,32.4420577 28.0577334,32.6591923 28.4450241,32.5066731 C28.8321906,32.3548269 29.0320465,31.8914808 28.891812,31.4724231 C28.5881155,30.5643077 27.6715606,30 26.4997516,30 C25.0282208,30 24,30.8860385 24,32.1543846 C24,33.8750385 25.4896656,34.1388846 26.3795151,34.2966538 C27.4638794,34.4891538 27.5094649,34.6043846 27.5094649,34.8456154 C27.5094649,35.2720769 26.8491578,35.3846154 26.4997516,35.3846154 C25.9389377,35.3846154 25.5769861,35.1795962 25.5095394,34.9771346 C25.3693049,34.5580769 24.9422666,34.3408077 24.5551001,34.4927885 C24.1679336,34.6447692 23.9680777,35.1075769 24.1078154,35.5271731 C24.4115119,36.4358269 25.3280668,37 26.4997516,37 C27.9719034,37 29,36.1145 29,34.8456154 C29,33.1245577 27.5099617,32.8600385 26.6201123,32.7024038 Z" id="Fill-3" fill="#FFFFFF"></path>
                    <path d="M22.4896411,30.0500447 C22.1827757,29.9327964 21.8384622,30.0264873 21.626647,30.2835989 L20.0002601,32.2559545 L18.3738731,30.2835989 C18.1615378,30.0259489 17.8167042,29.9327964 17.5104889,30.0500447 C17.2036234,30.1668891 17,30.4697693 17,30.8077835 L17,36.1923196 C17,36.6382938 17.3493845,37 17.7801664,37 C18.2113384,37 18.5603329,36.6382938 18.5603329,36.1923196 L18.5603329,32.998482 L19.4065534,34.0243707 C19.554785,34.2042143 19.7716713,34.307732 20.0002601,34.307732 C20.2283287,34.307732 20.445215,34.2042143 20.5935766,34.0243707 L21.4396671,32.998482 L21.4396671,36.1923196 C21.4396671,36.6382938 21.7886616,37 22.2198336,37 C22.6506155,37 23,36.6382938 23,36.1923196 L23,30.8077835 C23,30.4697693 22.7963766,30.1674276 22.4896411,30.0500447 Z" id="Fill-4" fill="#FFFFFF"></path>
                    <path d="M29.6872086,25.3513929 C26.9583117,23.1902951 23.3402381,22 19.499741,22 C15.6597617,22 12.0418177,23.1902951 9.31292075,25.3513929 C6.53133091,27.5543233 5,30.4992676 5,33.643821 C5,39.1634129 9.76100464,43.8704949 16.4082081,45.0229599 C16.5291299,46.7437814 15.9051009,48.4520789 14.6847488,49.6805916 C14.4642672,49.9025373 14.399016,50.2353913 14.5198083,50.5239594 C14.6407301,50.8123984 14.9234852,51 15.2369238,51 C18.7892283,51 21.8397203,48.4711877 22.5589072,45.0285118 C29.2239771,43.8862468 33.9999999,39.1725799 33.9999999,33.643821 C34.0005177,30.4997841 32.468669,27.5543233 29.6872086,25.3513929 Z M22.26941,44.3216223 C21.86316,44.3783288 21.56962,44.7416172 21.59757,45.1538853 C21.59809,45.1574213 21.59809,45.1610882 21.59861,45.1646242 C21.23955,47.4779354 19.60038,49.3282963 17.48125,50 C18.29531,48.5481562 18.62941,46.8440798 18.39892,45.158469 L18.39892,45.1538853 C18.42726,44.7416172 18.13385,44.377805 17.7276,44.3216223 C11.51139,43.4559641 7,39.2155482 7,34.2389954 C7,28.5933582 12.83167,24 20,24 C27.16833,24 33,28.5933582 33,34.2389954 C33,39.2165959 28.48705,43.4570118 22.26941,44.3216223 Z" id="Fill-5" fill="#FFFFFF"></path>
                </g>
            </g>
        </g>
    </g>
</svg>