<?xml version="1.0" encoding="UTF-8"?>
<svg width="31px" height="30px" viewBox="0 0 31 30" version="1.1" xmlns="http://www.w3.org/2000/svg" xmlns:xlink="http://www.w3.org/1999/xlink">
    <!-- Generator: Sketch 48.2 (47327) - http://www.bohemiancoding.com/sketch -->
    <title>SupportIcon</title>
    <desc>Created with Sketch.</desc>
    <defs></defs>
    <g id="members-home" stroke="none" stroke-width="1" fill="none" fill-rule="evenodd" transform="translate(-780.000000, -810.000000)">
        <g id="NewNavBar" transform="translate(-1.000000, 0.716629)">
            <g id="Group-2" transform="translate(118.000000, 735.283371)">
                <g id="SupportIcon" transform="translate(663.731810, 74.394916)">
                    <path d="M14.778025,0.0249270039 C6.60644959,0.0249270039 0,6.63137659 0,14.802952 C0,22.9745274 6.60644959,29.580977 14.778025,29.580977 C22.9496004,29.580977 29.55605,22.9745274 29.55605,14.802952 C29.55605,6.63137659 22.9496004,0.0249270039 14.778025,0.0249270039 Z" id="Fill-4" fill="#2CB7F2"></path>
                    <g id="Group-5" transform="translate(12.765882, 6.180587)" fill="#F1F4F7">
                        <path d="M2.23950608,0.506195488 C1.12888766,0.506195488 0.224544915,1.41053823 0.224544915,2.52115666 C0.224544915,3.63177508 1.12888766,4.53611782 2.23950608,4.53611782 C3.3501245,4.53611782 4.24817836,3.63177508 4.24817836,2.52115666 C4.24817836,1.41053823 3.3501245,0.506195488 2.23950608,0.506195488 Z" id="Path"></path>
                        <path d="M2.23950608,6.5447901 C1.12888766,6.5447901 0.224544915,7.44410173 0.224544915,8.55975127 L0.224544915,14.5983459 C0.224544915,15.7077065 1.12888766,16.6070182 2.23950608,16.6070182 C3.3501245,16.6070182 4.24817836,15.7077065 4.24817836,14.5983459 L4.24817836,8.55975127 C4.24817836,7.44913285 3.3501245,6.5447901 2.23950608,6.5447901 Z" id="Path"></path>
                    </g>
                </g>
            </g>
        </g>
    </g>
</svg>