<?xml version="1.0" encoding="UTF-8"?>
<svg width="59px" height="55px" viewBox="0 0 59 55" version="1.1" xmlns="http://www.w3.org/2000/svg" xmlns:xlink="http://www.w3.org/1999/xlink">
    <!-- Generator: Sketch 49.1 (51147) - http://www.bohemiancoding.com/sketch -->
    <title>upload</title>
    <desc>Created with Sketch.</desc>
    <defs></defs>
    <g id="Symbols" stroke="none" stroke-width="1" fill="none" fill-rule="evenodd">
        <g id="Illustration/Upload" transform="translate(-28.000000, -30.000000)" fill="#FFFFFF">
            <g id="upload" transform="translate(28.000000, 30.000000)">
                <path d="M47.900028,14.279567 C47.2702385,10.5367102 45.417507,7.12161649 42.583606,4.52963937 C39.4345074,1.64714159 35.3410275,0.060556676 31.0778375,0.060556676 C27.783403,0.060556676 24.5738991,1.00493804 21.824626,2.7856071 C19.5354323,4.26349278 17.6341041,6.26171169 16.2900486,8.61115933 C15.7087045,8.5024601 15.1031378,8.44144925 14.497571,8.44144925 C9.35025356,8.44144925 5.15912602,12.6319712 5.15912602,17.7792887 C5.15912602,18.4457149 5.23194542,19.0874643 5.35305877,19.7172537 C2.02244159,22.1395208 0,26.0396735 0,30.1934073 C0,33.5482471 1.24716474,36.8061963 3.52454994,39.3863649 C5.86173485,42.0261818 8.95042811,43.5886954 12.2444085,43.7702141 L22.7571989,43.7702141 C23.665549,43.7702141 24.3923805,43.0439881 24.3923805,42.135638 C24.3923805,41.2272878 23.665549,40.5004563 22.7571989,40.5004563 L12.3898959,40.5004563 C7.43651121,40.1976729 3.27036329,35.4862122 3.27036329,30.1815987 C3.27036329,26.7539395 5.11128624,23.5563956 8.07810919,21.8249288 C8.76890947,21.4251034 9.05927874,20.5895726 8.79252658,19.8385185 C8.55060266,19.184355 8.42948931,18.4943116 8.42948931,17.755066 C8.42948931,14.4126403 11.1545397,11.6875899 14.497571,11.6875899 C15.211837,11.6875899 15.9144459,11.8088546 16.568458,12.0506271 C17.3675033,12.341602 18.2516308,11.9779591 18.6152736,11.2150964 C20.8802447,6.40719911 25.7726185,3.3065459 31.0896461,3.3065459 C38.2353339,3.3065459 44.1337055,8.65975607 44.8119403,15.7568471 C44.8846083,16.4954872 45.4417297,17.089094 46.1685612,17.2103587 C51.5578026,18.1305174 55.627514,23.1081248 55.627514,28.7889466 C55.627514,34.8079774 50.8918305,40.0397714 45.0544698,40.4880422 L36.1282643,40.4880422 C35.2199142,40.4880422 34.4930827,41.2148737 34.4930827,42.1232239 C34.4930827,43.031574 35.2199142,43.7584055 36.1282643,43.7584055 L45.2359884,43.7584055 C48.9296429,43.4916533 52.3815248,41.7962178 54.9492792,38.9623168 C57.5046196,36.1520328 58.8972717,32.5430063 58.8972717,28.7889466 C58.8854632,21.9940333 54.2466704,15.9507799 47.900028,14.279567 Z" id="Fill-1"></path>
                <path d="M39.2647974,31.743961 C39.9071523,31.1017574 39.9071523,30.0721425 39.2647974,29.4305446 L30.6053441,20.7710913 C30.3025607,20.4683079 29.8785126,20.2867893 29.4546158,20.2867893 C29.0311733,20.2867893 28.6071252,20.4558938 28.3043418,20.7710913 L19.6448885,29.4305446 C19.0026849,30.0721425 19.0026849,31.1017574 19.6448885,31.743961 C19.9594804,32.0585529 20.3835285,32.228263 20.7950112,32.228263 C21.2066452,32.228263 21.6306933,32.070967 21.9458908,31.743961 L27.8200398,25.869812 L27.8200398,52.8661296 C27.8200398,53.7744797 28.5462657,54.5013112 29.4546158,54.5013112 C30.362966,54.5013112 31.0896461,53.7744797 31.0896461,52.8661296 L31.0896461,25.869812 L36.9637951,31.743961 C37.5935845,32.3857103 38.6231994,32.3857103 39.2647974,31.743961 Z" id="Fill-2"></path>
            </g>
        </g>
    </g>
</svg>