<?xml version="1.0" encoding="UTF-8"?>
<svg width="14px" height="16px" viewBox="0 0 14 16" version="1.1" xmlns="http://www.w3.org/2000/svg" xmlns:xlink="http://www.w3.org/1999/xlink">
    <!-- Generator: Sketch 48.2 (47327) - http://www.bohemiancoding.com/sketch -->
    <title>vanity-numbers</title>
    <desc>Created with Sketch.</desc>
    <defs></defs>
    <g id="vanity-numbers" stroke="none" stroke-width="1" fill="none" fill-rule="evenodd" transform="translate(1.000000, 1.000000)">
        <path d="M12.1528797,5.48473098 L12.1528797,3.80490768 L10.055722,3.80490768 L10.4735807,0.450503967 L8.79637882,0.450503967 L8.376423,3.80490768 L5.02201929,3.80490768 L5.44197511,0.450503967 L3.76424897,0.450503967 L3.34481743,3.80490768 L0.40984526,3.80490768 L0.40984526,5.48473098 L3.13562595,5.48473098 L2.71567013,8.83913469 L0.40984526,8.83913469 L0.40984526,10.5163365 L2.50700294,10.5163365 L2.08704711,13.8733617 L3.76424897,13.8733617 L4.18420479,10.5163365 L7.54122995,10.5163365 L7.11917697,13.8733617 L8.79847598,13.8733617 L9.21843181,10.5163365 L12.1528797,10.5163365 L12.1528797,8.83913469 L9.42709899,8.83913469 L9.84495766,5.48473098 L12.1528797,5.48473098 Z M7.74989714,8.83913469 L4.39549343,8.83913469 L4.81282781,5.48473098 L8.16775581,5.48473098 L7.74989714,8.83913469 Z" stroke="#4B6976" fill="#4B6976"></path>
    </g>
</svg>