<?xml version="1.0" encoding="UTF-8"?>
<svg width="30px" height="16px" viewBox="0 0 30 16" version="1.1" xmlns="http://www.w3.org/2000/svg" xmlns:xlink="http://www.w3.org/1999/xlink">
    <!-- Generator: Sketch 48.2 (47327) - http://www.bohemiancoding.com/sketch -->
    <title>Icon /View</title>
    <desc>Created with Sketch.</desc>
    <defs></defs>
    <g id="ContactsTable" stroke="none" stroke-width="1" fill="none" fill-rule="evenodd" transform="translate(-1158.000000, -361.000000)">
        <g id="Table" transform="translate(170.239308, 229.643698)" fill="#4B6976">
            <g id="Rectangle-4">
                <g id="Btns" transform="translate(885.509994, 122.856302)">
                    <g id="Icon-/View" transform="translate(103.000000, 9.000000)">
                        <g transform="translate(0.158578, 0.400000)">
                            <path d="M20.396106,11.8245135 C21.2549849,10.6032838 21.7599721,9.11609264 21.7599721,7.51303383 C21.7599721,5.91075415 21.2554858,4.42423084 20.397386,3.20333502 C22.6458979,4.28254059 24.790396,5.86406204 26.4884529,7.51269992 C25.504802,8.46607609 23.2782171,10.4361049 20.396106,11.8245135 Z M2.00542351,7.51336774 C2.98907442,6.55999158 5.21565939,4.5899628 8.09765917,3.20155415 C7.23889157,4.42278389 6.73384874,5.90997502 6.73384874,7.51303383 C6.73384874,9.11531351 7.23833505,10.6018368 8.09643482,11.8227326 C5.84786727,10.7435271 3.70348046,9.16200563 2.00542351,7.51336774 Z M20.090409,7.51303383 C20.090409,10.7351236 17.469028,13.3565046 14.2468826,13.3565046 C11.0275754,13.3565046 8.40341182,10.7375166 8.40341182,7.51303383 C8.40341182,4.29094406 11.0247928,1.66956307 14.2468826,1.66956307 C17.466635,1.66956307 20.090409,4.28888493 20.090409,7.51303383 Z M28.2784472,6.95328498 C28.214169,6.8821616 26.6751657,5.19128377 24.1918576,3.48576944 C20.8714306,1.20536889 17.4325202,0 14.2468826,0 C11.0613006,0 7.62239021,1.20536889 4.30201882,3.48576944 C1.81871071,5.19128377 0.279763119,6.8821616 0.215484941,6.95328498 C-0.0717912122,7.27116979 -0.0717912122,7.75489787 0.215484941,8.07272703 C0.279763119,8.14385041 1.81876636,9.83472824 4.30207448,11.5402426 C7.62239021,13.8206988 11.0613006,15.0260677 14.2468826,15.0260677 C17.4325202,15.0260677 20.8714306,13.8206988 24.1918576,11.5402982 C26.6751657,9.83478389 28.2141133,8.14390606 28.2784472,8.07278268 C28.565612,7.75489787 28.565612,7.27116979 28.2784472,6.95328498 Z" id="Fill-1"></path>
                            <path d="M16.7512828,7.51303383 C16.7512828,8.89392945 15.6278338,10.0173784 14.2468826,10.0173784 C12.865987,10.0173784 11.742538,8.89392945 11.742538,7.51303383 C11.742538,6.13213821 12.865987,5.00868922 14.2468826,5.00868922 C15.6278338,5.00868922 16.7512828,6.13213821 16.7512828,7.51303383 Z M10.0729749,7.51303383 C10.0729749,9.81452653 11.9454455,11.6869415 14.2468826,11.6869415 C16.5484309,11.6869415 18.4208459,9.81452653 18.4208459,7.51303383 C18.4208459,5.21154113 16.5484309,3.33912615 14.2468826,3.33912615 C11.9454455,3.33912615 10.0729749,5.21154113 10.0729749,7.51303383 Z" id="Fill-4"></path>
                        </g>
                    </g>
                </g>
            </g>
        </g>
    </g>
</svg>