<?xml version="1.0" encoding="UTF-8"?>
<svg width="39px" height="67px" viewBox="0 0 39 67" version="1.1" xmlns="http://www.w3.org/2000/svg" xmlns:xlink="http://www.w3.org/1999/xlink">
    <!-- Generator: Sketch 49.1 (51147) - http://www.bohemiancoding.com/sketch -->
    <title>CallIcon2</title>
    <desc>Created with Sketch.</desc>
    <defs>
        <path d="M4.9986141,62.125 C2.23795576,62.125 1.88807303e-14,59.8772363 1.88807303e-14,57.1198995 L1.88807303e-14,5.00510055 C1.88807303e-14,2.24085984 2.23903656,0 4.9986141,0 L29.1263859,0 C31.8870442,0 34.125,2.24776366 34.125,5.00510055 L34.125,57.1198995 C34.125,59.8841402 31.8859634,62.125 29.1263859,62.125 L4.9986141,62.125 Z" id="path-1"></path>
    </defs>
    <g id="Symbols" stroke="none" stroke-width="1" fill="none" fill-rule="evenodd">
        <g id="Illustration/Record" transform="translate(-38.000000, -24.000000)">
            <g id="CallIcon2" transform="translate(40.000000, 26.000000)">
                <g id="touch-screen">
                    <g id="Group-5"></g>
                    <mask id="mask-2" fill="white">
                        <use xlink:href="#path-1"></use>
                    </mask>
                    <path stroke="#FFFFFF" stroke-width="2" d="M4.9986141,63.125 C1.68754593,63.125 -1,60.4314026 -1,57.1198995 L-1,5.00510055 C-1,1.68920551 1.6861215,-1 4.9986141,-1 L29.1263859,-1 C32.4374541,-1 35.125,1.69359739 35.125,5.00510055 L35.125,57.1198995 C35.125,60.4357945 32.4388785,63.125 29.1263859,63.125 L4.9986141,63.125 Z"></path>
                    <polyline id="Fill-1" fill="#2CB7F2" mask="url(#mask-2)" points="34.125 11.6829595 34.125 49.5670405 17.0624401 52.5 0 49.5670405 0 11.6829595 17.0624401 8.75 34.125 11.6829595"></polyline>
                    <path d="M34.125,49.875 L34.125,57.7148174 C34.125,60.1489746 32.2059263,62.125 29.8419248,62.125 L4.28307521,62.125 C1.91619774,62.125 0,60.1489746 0,57.7148174 L0,49.875 L34.125,49.875" id="Fill-3" stroke="#FFFFFF" fill="#FFFFFF" mask="url(#mask-2)"></path>
                    <path d="M34.125,4.41018261 L34.125,12.25 L0,12.25 L0,4.41018261 C0,1.97750599 1.91619774,0 4.28307521,0 L29.8419248,0 C32.2059263,0 34.125,1.97750599 34.125,4.41018261" id="Fill-4" stroke="#FFFFFF" fill="#FFFFFF" mask="url(#mask-2)"></path>
                    <path d="M8.3125,4.375 C9.0373877,4.375 9.625,4.9626123 9.625,5.6875 C9.625,6.4123877 9.0373877,7 8.3125,7 C7.5876123,7 7,6.4123877 7,5.6875 C7,4.9626123 7.5876123,4.375 8.3125,4.375" id="Fill-6" fill="#2CB7F2" mask="url(#mask-2)"></path>
                    <path d="M21.2468467,7 L12.8782772,7 C12.0480241,7 11.375,6.4123877 11.375,5.6875 C11.375,4.9626123 12.0480241,4.375 12.8782772,4.375 L21.2468467,4.375 C22.0770998,4.375 22.75,4.9626123 22.75,5.6875 C22.75,6.4123877 22.0770998,7 21.2468467,7" id="Fill-7" fill="#2CB7F2" mask="url(#mask-2)"></path>
                    <path d="M18.6243033,56.875 L15.5008204,56.875 C14.6719242,56.875 14,56.2873877 14,55.5625 C14,54.8376123 14.6719242,54.25 15.5008204,54.25 L18.6243033,54.25 C19.4531995,54.25 20.125,54.8376123 20.125,55.5625 C20.125,56.2873877 19.4531995,56.875 18.6243033,56.875" id="Fill-8" fill="#2CB7F2" mask="url(#mask-2)"></path>
                </g>
                <g id="speaker-filled-audio-tool" transform="translate(5.250000, 21.000000)" fill="#FFFFFF">
                    <path d="M12.25,16.4271959 C12.25,16.8433754 12.0006445,17.2211724 11.610163,17.397224 C11.459826,17.466693 11.2979752,17.5 11.1371113,17.5 C10.8841372,17.5 10.63215,17.4159394 10.4278627,17.252259 L4.34990467,12.3964089 L1.11157286,12.3964089 C0.497395134,12.3964089 0,11.9155186 0,11.3232876 L0,7.05205539 C0,6.45982439 0.497395134,5.97893408 1.11157286,5.97893408 L4.34990467,5.97893408 L10.4278627,1.1218151 C10.7607753,0.856627568 11.2206684,0.799529774 11.6114789,0.977801775 C12.0006445,1.15385331 12.25,1.53196758 12.25,1.94814706 L12.25,16.4271959 Z M16.5112095,14.8724647 C16.4825895,14.8737323 16.4550166,14.875 16.4263967,14.875 C16.1143693,14.875 15.8142088,14.763763 15.5922296,14.5618886 L15.4341217,14.4183264 C15.0208774,14.0430997 14.9716651,13.4488852 15.320689,13.0216846 C16.2044175,11.9410066 16.6707134,10.658454 16.6707134,9.31410316 C16.6707134,7.86707204 16.1401971,6.51036153 15.1395456,5.38975223 C14.7577134,4.96413621 14.7933139,4.3452024 15.2198211,3.9576161 L15.3779289,3.81405388 C15.613869,3.59981975 15.9290376,3.48351216 16.271081,3.5018932 C16.6037008,3.51678818 16.9146811,3.65939965 17.1258406,3.89328247 C18.5153047,5.43697248 19.25,7.31247185 19.25,9.31410316 C19.25,11.1785105 18.5997685,12.9525973 17.3712044,14.445581 C17.1666764,14.6943588 16.8532529,14.8502807 16.5112095,14.8724647 Z M20.5193255,18.8596663 C20.3331734,19.094713 20.0650293,19.2360014 19.7780574,19.2486978 C19.7637847,19.25 19.749512,19.25 19.7340247,19.25 C19.4625402,19.25 19.2013806,19.1341044 19.0082439,18.9283572 L18.8740201,18.7831622 C18.496857,18.3801321 18.4719557,17.7342422 18.8135889,17.2967038 C20.469523,15.1868184 21.3817595,12.5062449 21.3817595,9.74916732 C21.3817595,6.88042632 20.4054478,4.12074435 18.6332066,1.97537403 C18.2739603,1.53946343 18.2915734,0.880551516 18.6735952,0.469708217 L18.8087302,0.32483875 C19.0082439,0.109976169 19.2678852,-0.00950044853 19.5654856,0.000591581791 C19.8479024,0.00938141465 20.1148318,0.144158852 20.3034133,0.37074121 C22.4446184,2.95592872 23.624999,6.28662428 23.624999,9.74916732 C23.6262137,13.0798629 22.5229662,16.3148469 20.5193255,18.8596663 Z" id="Fill-1"></path>
                </g>
            </g>
        </g>
    </g>
</svg>