<?xml version="1.0" encoding="utf-8"?>
<!-- Generator: Adobe Illustrator 21.0.0, SVG Export Plug-In . SVG Version: 6.00 Build 0)  -->
<svg version="1.1" id="Ebene_1" xmlns="http://www.w3.org/2000/svg" xmlns:xlink="http://www.w3.org/1999/xlink" x="0px" y="0px"
	 viewBox="0 0 195.7 32.5" style="enable-background:new 0 0 195.7 32.5;" xml:space="preserve">
<style type="text/css">
	.st0{fill:#FFD631;}
	.st1{fill:none;stroke:#FFD631;stroke-width:0.75;stroke-miterlimit:10;}
	.st2{fill:none;}
</style>
<g>
	<path class="st0" d="M131.8,15.3l-6.5,7.8l-0.2,0.2v0.3v7h-1.9v-7v-0.3l-0.2-0.2l-6.5-7.8h2.4l4.6,5.5l0.6,0.7l0.6-0.7l4.6-5.5
		H131.8 M133.4,14.5H129l-4.8,5.8l-4.8-5.8h-4.4l7.5,9v7.8h3.4v-7.8L133.4,14.5L133.4,14.5z"/>
</g>
<g>
	<path class="st0" d="M151.4,15.3v1.9h-6h-0.8v0.8v12.7h-1.9V17.9v-0.8h-0.8h-6l0-1.9H151.4 M152.2,14.5h-16.8l0,3.4h6.7v13.5h3.4
		V17.9h6.7V14.5L152.2,14.5z"/>
</g>
<g>
	<path class="st0" d="M171.6,15.3v1.9h-15.3v-1.9H171.6 M172.4,14.5h-16.8v3.4h16.8V14.5L172.4,14.5z"/>
</g>
<g>
	<path class="st0" d="M171.6,22v1.9h-15.3V22H171.6 M172.4,21.3h-16.8v3.4h16.8V21.3L172.4,21.3z"/>
</g>
<g>
	<path class="st0" d="M171.6,28.7v1.9h-15.3v-1.9H171.6 M172.4,28h-16.8v3.4h16.8V28L172.4,28z"/>
</g>
<g>
	<path class="st0" d="M191.8,15.3v1.9h-9.9c-3.1,0-3.6,1.5-3.6,2.4c0,0.9,0.5,2.4,3.6,2.4h5c3.3,0,4.9,1.4,4.9,4.3
		c0,2.9-1.5,4.3-4.9,4.3h-10.5v-1.9h9.9c3.1,0,3.6-1.5,3.6-2.4c0-0.9-0.5-2.4-3.6-2.4h-5c-3.3,0-4.9-1.4-4.9-4.3
		c0-2.9,1.5-4.3,4.9-4.3H191.8 M192.6,14.5h-11.2c-3.7,0-5.6,1.7-5.6,5c0,3.4,1.9,5,5.6,5h5c1.9,0,2.8,0.6,2.8,1.7
		c0,1.1-0.9,1.7-2.8,1.7h-10.7v3.4H187c3.7,0,5.6-1.7,5.6-5c0-3.4-1.9-5-5.6-5h-5c-1.9,0-2.8-0.6-2.8-1.7c0-1.1,0.9-1.7,2.8-1.7
		h10.7V14.5L192.6,14.5z"/>
</g>
<path class="st1" d="M97.6,17.8c0,0-0.1,0.1-0.1,0.1h3.3h6c1.9,0,2.8,0.6,2.8,1.7c0,1.1-0.7,1.7-2.2,1.7H96.1v3.4h11.2
	c1.5,0,2.2,0.6,2.2,1.7c0,1.1-0.9,1.7-2.8,1.7H96.1v3.4h11.2c3.7,0,5.6-1.7,5.6-5c0-1.9-0.6-3-1.7-3.4c1.1-0.4,1.7-1.5,1.7-3.4
	c0-3.4-1.9-5-5.6-5h-6.1c0,0,0,0,0,0C99.9,15.6,98.7,16.7,97.6,17.8"/>
<path class="st0" d="M137.1,0.9c-16.5,0-31.1,4.9-40.4,12.5c-0.2,0.2-0.4,0.3-0.6,0.5c-1.1,1-2.1,1.9-3.1,3c-0.3,0.3-0.6,0.7-0.9,1
	c-0.9,1.1-1.7,2.2-2.4,3.4h0.4H93c0.9-1.4,1.9-2.7,3.1-4c0.1-0.2,0.3-0.3,0.4-0.5c0.7-0.8,1.5-1.5,2.4-2.2c0.4-0.4,0.9-0.8,1.4-1.1
	c9-6.9,22.9-11.4,38.6-11.4c14.6,0,27.7,3.9,36.7,10C166.3,5.2,152.5,0.9,137.1,0.9z"/>
<path class="st0" d="M13.4,24.6c3.7,0,5.6-1.7,5.6-5s-1.9-5-5.6-5H2.2v3.4h10.7c1.9,0,2.8,0.6,2.8,1.7s-0.9,1.7-2.8,1.7H2.2v3.4h5
	l7.9,6.7h5.2l-7.9-6.7H13.4z"/>
<rect x="22.4" y="14.5" class="st0" width="3.4" height="16.8"/>
<path class="st0" d="M29.1,19.6c0,3.4,1.9,5,5.6,5h5c1.9,0,2.8,0.6,2.8,1.7S41.6,28,39.7,28H29.1v3.4h11.2c3.7,0,5.6-1.7,5.6-5
	s-1.9-5-5.6-5h-5c-1.9,0-2.8-0.6-2.8-1.7c0-1.1,0.9-1.7,2.8-1.7h10.7v-3.4H34.7C31,14.5,29.1,16.2,29.1,19.6z"/>
<rect x="49.3" y="14.5" class="st0" width="3.4" height="16.8"/>
<polygon class="st0" points="69.5,26.2 59.4,14.5 56,14.5 56,31.3 59.4,31.3 59.4,19.6 69.4,31.3 72.8,31.3 72.8,14.5 69.5,14.5 "/>
<path class="st0" d="M80.1,18.7c0.1-0.1,0.2-0.3,0.4-0.4c0,0,0.1-0.1,0.2-0.1c0.1-0.1,0.2-0.1,0.3-0.2c0.2-0.1,0.5-0.2,0.8-0.2
	c0.2,0,0.3,0,0.5,0h8c0.8-1.1,1.7-2.1,2.7-3.1l0.2-0.3H93H81.8c-3.7,0-5.6,1.9-5.6,5.6v5.6c0,3.7,1.9,5.6,5.6,5.6H93v-8.7h-3.4V28
	h-7.4c-0.3,0-0.5,0-0.7-0.1c-0.1,0-0.1,0-0.2,0c-0.3-0.1-0.5-0.2-0.7-0.3c-0.1-0.1-0.2-0.1-0.3-0.2c-0.1-0.1-0.2-0.2-0.2-0.3
	c-0.2-0.3-0.4-0.7-0.5-1.2c0-0.2,0-0.4,0-0.6v-4.7C79.6,19.8,79.7,19.2,80.1,18.7z"/>
<rect x="-28.9" y="-60.5" class="st2" width="252.3" height="167.2"/>
</svg>
