<svg id="Layer_1" data-name="Layer 1" xmlns="http://www.w3.org/2000/svg" viewBox="0 0 1920 720"><defs><style>.cls-1{fill:orange;}</style></defs><title>layer</title><path class="cls-1" d="M1921,121.07V722.4c-1.85,0-3.7,0-5.55,0H6.55c-1.84,0-3.69,0-5.54-.05V232.05c8.69.17,17.35.19,26.05.76,11.89.77,23.87.37,35.8.16s24.07.16,36.14-.71c16.36-1.17,32.84.44,49.24-1.17,7.13-.7,14.33.45,21.51-.92,4.06-.77,8.39,0,12.59-.22s8.27-.67,12.42-.93c5-.32,9.94-.13,15-.81,6.57-.88,13.3-.34,20-1.11,7.11-.83,14.32-.81,21.49-1.16a4.18,4.18,0,0,0,1-.07c5.67-1.45,11.53-1.18,17.28-1.85,5.45-.64,11-.76,16.45-1.11a4.45,4.45,0,0,0,.5,0,124.48,124.48,0,0,1,18.28-2c4-.14,8.05-.2,11.87-1.17,3.18-.8,6.34-.33,9.41-.94a95.36,95.36,0,0,1,14.76-1.89c1,0,2-.17,3-.3,3.93-.55,7.84-1.22,11.77-1.66,4.13-.47,8.32-.48,12.41-1.16a209.36,209.36,0,0,1,21.61-3,86.84,86.84,0,0,0,9.37-1.15c4.87-.84,9.69-2,14.56-2.78,6.85-1.12,13.73-2.05,20.6-3,3.12-.44,6.26-.67,9.38-1.12,2.93-.43,5.85-1,8.77-1.56,4.38-.81,8.74-1.71,13.14-2.41,5.06-.82,10.17-1.33,15.22-2.23,8.6-1.52,17.17-3.24,25.75-4.88l15.06-2.89c3.73-.71,7.46-1.43,11.19-2.12,8.6-1.6,17.2-3.17,25.79-4.77q6.09-1.12,12.16-2.32c6.46-1.28,12.92-2.6,19.39-3.86,3.89-.76,7.79-1.47,11.69-2.18,6.66-1.2,13.33-2.37,20-3.55,4.71-.84,9.41-1.72,14.13-2.52,4.39-.75,8.82-1.33,13.21-2.14,6.64-1.23,13.24-2.74,19.9-3.85,7.34-1.22,14.73-2.11,22.09-3.16,2.62-.37,5.23-.79,7.84-1.2,5.87-.92,11.73-1.93,17.61-2.73,3.95-.53,8-.56,11.9-1.16,5.57-.84,11.1-1.93,16.76-1.92a14.85,14.85,0,0,0,2-.17c4.42-.6,8.82-1.42,13.25-1.77,6.82-.53,13.66-.75,20.49-1.1a2.74,2.74,0,0,0,1-.06c2.86-1.38,5.92-.7,8.89-.94,3.14-.25,6.26-.75,9.4-.95,6.48-.41,13-.22,19.49-.79,10.47-.92,21.06-.86,31.57-1,26.83-.47,53.69-.8,80.51.77,7,.41,14,0,21,.78,8.93,1,18,.23,27,1.14,8.29.83,16.68.8,25,1.15a3.31,3.31,0,0,1,1,.06c5.61,2,11.55.55,17.31,1.75,4.65,1,9.59.58,14.41,1q13.66,1.09,27.35,2.09c8.79.63,17.57,1.18,26.34,2.09,4.29.44,8.63.59,12.93.89,8.79.63,17.57,1.12,26.34,2.13,4.28.5,8.6.29,12.93.92,5.24.76,10.61.27,16,1s10.93.23,16.45,1c6.91.92,14-.4,21,1.19,18.78,0,37.52,1.72,56.3,1.06,1.51,0,3-.08,4.54,0,1.31.09,2.6.52,3.91.55,2.63.06,5.27,0,7.91-.13,1,0,2-.42,2.93-.43,19.44-.1,38.89.32,58.32-1,6.15-.43,12.31-.3,18.49-.75,8-.57,16-1,24-1.31,6.5-.28,13-.68,19.48-1a1.61,1.61,0,0,0,.5,0c2.85-1.39,5.91-.75,8.89-1s5.92-.73,8.89-.95c5.64-.42,11.3-.72,17-1.07a4.71,4.71,0,0,0,1-.08c5.15-1.51,10.53-1,15.77-1.85,4.09-.65,8.38-.31,12.36-1.32,3-.76,6-.35,8.92-.86a108.21,108.21,0,0,1,16.25-1.93,18.86,18.86,0,0,0,2.5-.19c3.92-.58,7.81-1.33,11.74-1.77,4.46-.5,9-.29,13.39-1.23,3-.65,6-.53,8.91-1,6.2-.9,12.37-2,18.58-2.85,3.95-.53,8-.29,11.87-1.22,3-.73,6-.54,8.91-1,6.2-.91,12.38-2,18.59-2.86,3.94-.53,8-.29,11.86-1.22,3-.73,6-.55,8.91-1,6.54-.92,13-2,19.6-2.86,4.11-.53,8.27-.69,12.41-1.09,3.13-.3,6.26-.67,9.38-1.09,4.41-.6,8.81-1.37,13.23-1.87s9-.6,13.42-1.12c7.38-.88,14.72-2.09,22.11-2.89,5.46-.59,11-.74,16.45-1.09a3.29,3.29,0,0,0,1-.06c4.75-1.94,9.86-.61,14.79-1.74,4.13-.94,8.57-.41,12.9-1,5.24-.75,10.61-.25,15.94-1,5.07-.76,10.28-.5,15.44-.93,9.14-.78,18.37-.83,27.54-1,23.19-.54,46.4-.32,69.6-.15,9,.06,18-.36,27.07.77,9.25,1.14,18.68.83,28,1.26A30,30,0,0,1,1921,121.07Z"/></svg>