<?xml version="1.0" encoding="UTF-8"?>
<svg width="33px" height="29px" viewBox="0 0 33 29" version="1.1" xmlns="http://www.w3.org/2000/svg" xmlns:xlink="http://www.w3.org/1999/xlink">
    <!-- Generator: sketchtool 54.1 (76490) - https://sketchapp.com -->
    <title>B7CA9AAD-76B7-4CAD-B80F-6A6B903583E3</title>
    <desc>Created with sketchtool.</desc>
    <g id="DFL" stroke="none" stroke-width="1" fill="none" fill-rule="evenodd">
        <g id="DFL-•-Desktop" transform="translate(-704.000000, -1771.000000)">
            <g id="CARD-•-2" transform="translate(0.000000, 1552.000000)">
                <g id="CARD:-2" transform="translate(588.000000, 192.000000)">
                    <g id="***Browser-Icon***" transform="translate(116.000000, 27.000000)">
                        <g id="Browser-Icon">
                            <polygon id="Path" fill="#1C232F" fill-rule="nonzero" points="0 0.100694444 0 28.6475694 32.6981707 28.6475694 32.6981707 0.100694444"></polygon>
                            <polygon id="Path" fill="#FFFFFF" fill-rule="nonzero" points="28.0198171 27.8420139 28.0198171 17.5711806 27.2652439 17.5711806 27.2652439 27.8420139 24.8003049 27.8420139 24.8003049 19.484375 24.0457317 19.484375 24.0457317 27.8923611 21.5807927 27.8923611 21.5807927 22.0017361 20.8262195 22.0017361 20.8262195 27.8420139 18.3612805 27.8420139 18.3612805 25.6267361 17.6067073 25.6267361 17.6067073 27.8420139 15.0914634 27.8420139 15.0914634 23.3611111 14.3368902 23.3611111 14.3368902 27.8420139 11.8719512 27.8420139 11.8719512 20.9444444 11.117378 20.9444444 11.117378 27.8420139 8.65243902 27.8420139 8.65243902 22.4045139 7.89786585 22.4045139 7.89786585 27.8923611 5.43292683 27.8923611 5.43292683 24.3680556 4.67835366 24.3680556 4.67835366 27.8923611 0.754573171 27.8923611 0.754573171 4.43055556 31.9435976 4.43055556 31.9435976 27.8923611 28.0198171 27.8923611"></polygon>
                            <rect id="Rectangle" fill="#05B1F7" x="29.9314024" y="1.91319444" width="1" height="1"></rect>
                            <rect id="Rectangle" fill="#05B1F7" x="27.9695122" y="1.91319444" width="1" height="1"></rect>
                            <rect id="Rectangle" fill="#05B1F7" x="25.9573171" y="1.91319444" width="1" height="1"></rect>
                        </g>
                        <path d="M17.2186412,7.25 C14.1704912,7.25 11.6994774,9.77461557 11.6994774,12.8888867 L9.8597561,12.8888867 L12.2452613,15.3261388 L12.2881882,15.4138549 L14.7656795,12.8888867 L12.9259582,12.8888867 C12.9259582,10.4641654 14.8454007,8.50308593 17.2186412,8.50308593 C19.5918816,8.50308593 21.5113241,10.4641654 21.5113241,12.8888867 C21.5113241,15.313608 19.5918816,17.2746875 17.2186412,17.2746875 C16.0350872,17.2746875 14.9619164,16.7797185 14.1892335,15.984009 L13.3184321,16.8737 C14.3507155,17.9341945 15.7547406,18.5296397 17.2186412,18.5277734 C20.2667911,18.5277733 22.7378049,16.0031578 22.7378049,12.8888867 C22.7378049,9.77461562 20.2667911,7.25000007 17.2186412,7.25 Z" id="Icon-Path" fill="#08B2F7" fill-rule="nonzero"></path>
                        <polygon id="Icon-Path" fill="#08B2F7" fill-rule="nonzero" points="16.2987805 10.4722222 16.2987805 13.6773504 19.0546829 15.3055556 19.5182927 14.5299145 17.2646341 13.1965812 17.2646341 10.4722222"></polygon>
                    </g>
                </g>
            </g>
        </g>
    </g>
</svg>