<?xml version="1.0" encoding="UTF-8"?>
<svg width="249px" height="78px" viewBox="0 0 249 78" version="1.1" xmlns="http://www.w3.org/2000/svg" xmlns:xlink="http://www.w3.org/1999/xlink">
    <!-- Generator: sketchtool 54.1 (76490) - https://sketchapp.com -->
    <title>E8BFE9BD-D7D0-418F-995B-AB805DB5017A</title>
    <desc>Created with sketchtool.</desc>
    <g id="DFL" stroke="none" stroke-width="1" fill="none" fill-rule="evenodd">
        <g id="DFL-•-Desktop" transform="translate(-596.000000, -2500.000000)">
            <g id="FOOTER" transform="translate(0.000000, 2472.000000)">
                <g id="***Logo-•-Reverse***" transform="translate(596.000000, 28.000000)">
                    <g id="logo">
                        <g id="red" fill="#EA1821">
                            <path d="M72.5566005,20.0383085 C68.980939,13.8275585 64.5173035,9.35122507 58.3247114,5.76593337 C52.1315791,2.1801 46.0340499,0.541558313 38.8827268,0.541558313 C31.7319438,0.541558313 25.6344146,2.1801 19.4412824,5.76593337 C13.2486903,9.35122507 8.78505476,13.8275585 5.20939321,20.0383085 C1.63373165,26.2490586 -0.000162039047,32.3639336 -0.000162039047,39.5350587 C-0.000162039047,46.7067255 1.63373165,52.8216005 5.20939321,59.0318089 L9.76106993,56.3966006 C6.88757756,51.4322255 5.23153854,45.6753921 5.2272175,39.5350587 C5.2272175,39.5263921 5.22613724,39.5171837 5.22613724,39.5085171 C5.22613724,33.3746837 6.87461444,27.6227253 9.73784434,22.6605169 C15.5626078,12.5665584 26.4413691,5.7556417 38.8827268,5.7556417 C51.3246247,5.7556417 62.2033859,12.5665584 68.0281494,22.6605169 C70.8913793,27.6227253 72.5398565,33.3746837 72.5398565,39.5085171 C72.5398565,39.5171837 72.5387762,39.5263921 72.5387762,39.5350587 C72.5339151,45.6753921 70.8784162,51.4322255 68.0049238,56.3966006 L72.5566005,59.0318089 C76.1322621,52.8216005 77.7661558,46.7067255 77.7661558,39.5350587 C77.7661558,32.3639336 76.1322621,26.2490586 72.5566005,20.0383085" id="Fill-1"></path>
                            <polygon id="Fill-4" points="34.86 59.7446809 43.16 59.7446809 43.16 34.8510638 34.86 34.8510638"></polygon>
                            <polygon id="Fill-6" points="19.92 24.893617 21.58 31.5319149 34.86 31.5319149 34.86 31.5319149 43.16 31.5319149 44.82 31.5319149 56.44 31.5319149 58.1 24.893617"></polygon>
                            <path d="M191.035335,42.2053129 C191.035335,45.118938 191.586808,47.3121464 192.689213,48.786563 C193.791619,50.2604381 195.439556,50.9976464 197.633025,50.9976464 C202.031845,50.9976464 204.231255,48.0672297 204.231255,42.2053129 C204.231255,36.3314795 202.043728,33.3951045 197.668673,33.3951045 C195.475205,33.3951045 193.821326,34.1350211 192.707038,35.6153962 C191.592749,37.0957712 191.035335,39.2922296 191.035335,42.2053129 M210.011188,42.2053121 C210.011188,46.5213119 208.943891,49.8384783 206.809837,52.1573532 C204.675782,54.4756864 201.617025,55.634853 197.633025,55.634853 C193.649565,55.634853 190.590808,54.4756864 188.456754,52.1573532 C186.322699,49.8384783 185.255402,46.5093952 185.255402,42.1695621 C185.255402,37.829729 186.3254,34.5158125 188.465396,32.2267293 C190.605392,29.9381877 193.673331,28.7936461 197.668674,28.7936461 C201.664017,28.7936461 204.720073,29.9468544 206.836303,32.253271 C208.952533,34.5602292 210.011188,37.8773957 210.011188,42.2053121" id="Fill-7"></path>
                            <polygon id="Fill-8" points="220.095528 55.2781677 214.671541 55.2781677 214.671541 29.2039594 229.574272 29.2039594 229.574272 33.7339178 220.095528 33.7339178 220.095528 40.4576261 228.916394 40.4576261 228.916394 44.9697094 220.095528 44.9697094"></polygon>
                            <polygon id="Fill-9" points="239.356199 55.2781677 233.932212 55.2781677 233.932212 29.2039594 248.834943 29.2039594 248.834943 33.7339178 239.356199 33.7339178 239.356199 40.4576261 248.177064 40.4576261 248.177064 44.9697094 239.356199 44.9697094"></polygon>
                            <polygon id="Fill-15" points="181.180017 25.9061832 181.180017 29.9220999 128.999662 29.9220999 131.716517 25.9061832"></polygon>
                        </g>
                        <g id="light" transform="translate(8.300000, 24.893617)" fill="#FFFFFF">
                            <polygon id="Fill-10" points="95.6938518 5.02853699 88.228173 5.02853699 88.228173 1.01262049 121.311144 1.01262049 118.594289 5.02853699 100.476164 5.02853699 100.476164 29.9040359 95.6938518 29.9040359"></polygon>
                            <path d="M107.979598,10.4985582 L112.671709,10.4725582 L112.660906,13.4002664 C112.660906,13.4002664 112.688453,10.4855582 117.466984,10.4855582 C117.933657,10.4855582 118.205342,10.5245582 118.594236,10.6025582 L118.594236,15.1254747 C118.205342,15.0474747 117.778099,14.9694747 117.194759,14.9694747 C114.900286,14.9694747 112.762451,17.4443497 112.762451,20.0779329 L112.762451,29.9043077 L107.979598,29.9043077 L107.979598,10.4985582 Z" id="Fill-11"></path>
                            <path d="M130.530079,20.6237167 C127.147244,20.5457167 123.919966,21.286175 123.919966,24.172175 C123.919966,26.0436333 125.125537,26.9016333 126.641682,26.9016333 C128.547261,26.9016333 129.946738,25.654175 130.374521,24.289175 C130.49119,23.9376334 130.530079,23.548175 130.530079,23.236175 L130.530079,20.6237167 Z M131.152309,29.904091 L130.841194,27.7986327 L130.724526,27.7986327 C129.557844,29.280091 127.575027,30.333091 125.125537,30.333091 C121.314919,30.333091 119.176543,27.5646328 119.176543,24.6786328 C119.176543,19.8827163 123.414404,17.465258 130.413411,17.504258 L130.413411,17.1922581 C130.413411,15.9447998 129.907849,13.8777998 126.563903,13.8777998 C124.697754,13.8777998 122.753285,14.4627998 121.470476,15.2812581 L120.537131,12.1623415 C121.937149,11.3043416 124.386639,10.4853416 127.38058,10.4853416 C133.446241,10.4853416 135.195723,14.3457998 135.195723,18.479258 L135.195723,25.3421745 C135.195723,27.0576328 135.273501,28.7346327 135.467948,29.904091 L131.152309,29.904091 Z" id="Fill-12"></path>
                            <path d="M153.196859,29.3193082 C152.185735,29.7873083 150.203458,30.2937666 147.831206,30.2937666 C141.921102,30.2937666 138.071594,26.5118498 138.071594,20.623933 C138.071594,14.9310161 141.959991,10.4855576 148.608453,10.4855576 C150.359015,10.4855576 152.146846,10.875016 153.235748,11.3825576 L152.380722,14.9694744 C151.602935,14.6190161 150.475143,14.2290161 148.764011,14.2290161 C145.10895,14.2290161 142.931685,16.9194745 142.971115,20.3899329 C142.971115,24.2888497 145.498384,26.5118498 148.764011,26.5118498 C150.436254,26.5118498 151.602935,26.1608498 152.53628,25.7708498 L153.196859,29.3193082 Z" id="Fill-13"></path>
                            <polygon id="Fill-14" points="160.543662 18.1833455 167.075996 10.4857206 172.831082 10.4857206 165.481531 18.6740955 173.491662 29.9039286 167.620447 29.9039286 162.462744 22.0643871 160.543662 24.1173037 160.543662 29.9039286 155.761349 29.9039286 155.761349 10.4857206 160.543662 10.4857206"></polygon>
                            <path d="M30.5828891,49.1785968 C19.8008111,49.1785968 9.64312357,44.0322218 3.16426245,35.5139719 L0.0930824272,37.5658052 C3.14265724,41.7404302 6.79609756,44.9579301 11.5460021,47.7079718 C17.6564944,51.2455968 23.5277091,52.8234718 30.5828891,52.8234718 C37.6380691,52.8234718 43.5092838,51.2455968 49.6197762,47.7079718 C54.3691406,44.9579301 58.0236612,41.7398885 61.0726958,37.5652635 L58.002056,35.5139719 C51.5226547,44.0322218 41.3649671,49.1785968 30.5828891,49.1785968" id="Fill-16"></path>
                        </g>
                    </g>
                </g>
            </g>
        </g>
    </g>
</svg>