<?xml version="1.0" encoding="UTF-8"?>
<svg width="37px" height="41px" viewBox="0 0 37 41" version="1.1" xmlns="http://www.w3.org/2000/svg" xmlns:xlink="http://www.w3.org/1999/xlink">
    <!-- Generator: sketchtool 54.1 (76490) - https://sketchapp.com -->
    <title>8BCE00DE-1EA1-4C08-BFD5-45824F44AB45</title>
    <desc>Created with sketchtool.</desc>
    <g id="DFL" stroke="none" stroke-width="1" fill="none" fill-rule="evenodd">
        <g id="DFL-•-Desktop" transform="translate(-999.000000, -1971.000000)" fill-rule="nonzero">
            <g id="CARD-•-2" transform="translate(0.000000, 1552.000000)">
                <g id="CARD:-6" transform="translate(885.000000, 400.000000)">
                    <g id="Icon" transform="translate(92.000000, 0.500000)">
                        <g id="Never-Sell-Icon" transform="translate(22.000000, 19.000000)">
                            <g id="Dotted-Circle" transform="translate(0.113916, 7.184283)" fill="#05B1F7">
                                <path d="M35.33354,17.0749528 C35.7466,17.119434 36.11634,17.1635283 36.54954,17.2296698 C36.59286,16.7871792 36.61452,16.388783 36.65822,15.9459057 C36.22312,15.9238585 35.8321,15.9014245 35.44222,15.8793774 C35.3989,16.3002075 35.37686,16.6765566 35.33354,17.0749528 Z" id="Path_241"></path>
                                <path d="M33.0942,23.8693491 C33.44228,24.0905943 33.79036,24.2897925 34.13806,24.5110377 C34.3558,24.1126415 34.52946,23.7583396 34.74606,23.3823774 C34.37594,23.1831792 34.02862,23.0060283 33.65888,22.8288774 C33.46432,23.1611321 33.2899,23.515434 33.0942,23.8693491 Z" id="Path_242"></path>
                                <path d="M32.74574,5.61003774 C33.09382,5.38879245 33.41986,5.16754717 33.76756,4.94591509 C33.5065,4.59161321 33.28914,4.23769811 33.05012,3.88339623 C32.70204,4.14912264 32.39804,4.37036792 32.072,4.63570755 C32.31102,4.96680189 32.52762,5.27623585 32.74574,5.61003774 Z" id="Path_243"></path>
                                <path d="M35.2469,12.2941981 C35.65996,12.2276698 36.0297,12.1615283 36.44276,12.095 C36.35574,11.6525094 36.29076,11.2541132 36.20374,10.833283 C35.79068,10.9218585 35.42056,11.010434 35.02954,11.1210566 C35.09452,11.5194528 35.18116,11.8958019 35.2469,12.2941981 Z" id="Path_244"></path>
                                <path d="M35.46464,14.6625283 L36.68064,14.6625283 C36.65898,14.2420849 36.63694,13.8436887 36.61528,13.4008113 C36.18056,13.4449057 35.81082,13.4673396 35.39928,13.511434 C35.42132,13.9098302 35.44298,14.2861792 35.46464,14.6625283 Z" id="Path_245"></path>
                                <path d="M26.35376,30.420066 C26.54946,30.7964151 26.7235,31.1503302 26.9192,31.5030849 C27.28894,31.2818396 27.63664,31.0826415 28.00638,30.8613962 C27.76736,30.4850472 27.57166,30.1531792 27.3543,29.7988774 C27.0326452,30.0251101 26.6985907,30.2325089 26.35376,30.420066 L26.35376,30.420066 Z" id="Path_246"></path>
                                <path d="M34.89882,19.4428962 C35.29022,19.5535189 35.65882,19.6420943 36.07302,19.7523302 C36.15966,19.3318868 36.24668,18.9334906 36.35536,18.4906132 C35.94268,18.4020377 35.5509,18.3358962 35.15988,18.2693679 C35.07286,18.6681509 34.98584,19.0433396 34.89882,19.4428962 Z" id="Path_247"></path>
                                <path d="M31.76762,25.839283 C32.09404,26.1050094 32.39804,26.3483019 32.72446,26.6128679 C32.98552,26.258566 33.22454,25.9266981 33.48446,25.5723962 C33.13638,25.3291038 32.81034,25.1082453 32.4843,24.8641792 C32.20234,25.2196415 31.98498,25.5294623 31.76762,25.839283 Z" id="Path_248"></path>
                                <path d="M30.48474,1.0505283 C30.13666,0.762754717 29.83228,0.497415094 29.50624,0.231688679 C29.24518,0.585603774 29.00616,0.895811321 28.76714,1.22767925 C29.09318,1.49340566 29.37514,1.73669811 29.67914,1.98037736 C29.94096,1.67016981 30.20164,1.36034906 30.48474,1.0505283 Z" id="Path_249"></path>
                                <path d="M34.15934,21.7226509 C34.5287,21.8773679 34.89844,22.0320849 35.28984,22.2096226 C35.44184,21.8112264 35.57256,21.4128302 35.72456,21.014434 C35.3115,20.8817642 34.94176,20.7487075 34.57202,20.6160377 C34.42002,20.9923868 34.28968,21.3463019 34.15934,21.7226509 Z" id="Path_250"></path>
                                <path d="M34.72478,9.94830189 C35.11618,9.81563208 35.48478,9.70500943 35.87694,9.594 C35.7466,9.1735566 35.61588,8.79720755 35.46388,8.37676415 C35.07248,8.53148113 34.70388,8.66453774 34.33338,8.81925472 C34.46372,9.21765094 34.59406,9.57195283 34.72478,9.94830189 Z" id="Path_251"></path>
                                <path d="M24.20068,31.4164434 C24.35268,31.8148396 24.4834,32.1900283 24.61374,32.5895849 C25.00514,32.4348679 25.37374,32.2801509 25.78756,32.1026132 C25.6139,31.704217 25.46152,31.3499151 25.28786,30.9739528 C24.9185,31.1066226 24.5708,31.2617264 24.20068,31.4164434 Z" id="Path_252"></path>
                                <path d="M33.877,7.71264151 C34.24674,7.53549057 34.59444,7.35872642 34.98584,7.18157547 C34.79014,6.78317925 34.59444,6.40799057 34.4204,6.03048113 C34.05066,6.25172642 33.70296,6.42887736 33.3564,6.62807547 C33.52892,7.00442453 33.70296,7.35833962 33.877,7.71264151 Z" id="Path_253"></path>
                                <path d="M28.35408,29.1591226 L29.07152,30.1551132 C29.4196,29.8893868 29.74564,29.6240472 30.07206,29.3583208 C29.78934,29.0264528 29.54994,28.7166321 29.28926,28.4064245 C28.96208,28.6725377 28.65808,28.9158302 28.35408,29.1591226 Z" id="Path_254"></path>
                                <path d="M30.17998,27.632066 C30.4627,27.9415 30.72338,28.2296604 31.0061,28.4953868 C31.33252,28.1859528 31.6141,27.9198396 31.9181,27.6100189 C31.5918067,27.3005849 31.3092133,27.0349874 31.07032,26.8132264 C30.74542,27.101 30.4627,27.3667264 30.17998,27.632066 Z" id="Path_255"></path>
                                <path d="M1.23766,15.835283 C0.8246,15.8573302 0.43282,15.8793774 0.02166,15.9018113 C0.06536,16.3443019 0.08702,16.7426981 0.13034,17.1855755 C0.56506,17.1414811 0.9348,17.097 1.34634,17.0308585 C1.30454,16.6320755 1.26122,16.2336792 1.23766,15.835283 Z" id="Path_256"></path>
                                <path d="M4.63182,4.56956604 C4.3054,4.32627358 4.0014,4.08259434 3.65332,3.81725472 C3.41392,4.1715566 3.17452,4.50342453 2.9355,4.87977358 C3.30524,5.12306604 3.63128,5.34392453 3.95732,5.54389623 C4.19672,5.20970755 4.41408,4.90027358 4.63182,4.56956604 Z" id="Path_257"></path>
                                <path d="M8.6108,30.8633302 C8.98054,31.0845755 9.32862,31.2837736 9.69798,31.5050189 C9.89368,31.1286698 10.08938,30.7747547 10.26304,30.422 C9.91534,30.2228019 9.5893,30.0236038 9.24122,29.8244057 C9.04552,30.1551132 8.82854,30.5094151 8.6108,30.8633302 Z" id="Path_258"></path>
                                <path d="M1.65224,11.0769623 C1.23918,10.9883868 0.86944,10.8998113 0.45638,10.7891887 C0.36936,11.2316792 0.30438,11.6300755 0.21736,12.0509057 C0.65246,12.117434 1.02182,12.1835755 1.41322,12.2501038 C1.50024,11.8517075 1.58536,11.4753585 1.65224,11.0769623 Z" id="Path_259"></path>
                                <path d="M1.50024,18.2256604 C1.08756,18.3142358 0.69578,18.3803774 0.30476,18.4469057 C0.39178,18.8673491 0.47842,19.2657453 0.58748,19.6846415 C1.00054,19.5740189 1.37028,19.4854434 1.7613,19.3752075 C1.67466,18.9992453 1.58764,18.6240566 1.50024,18.2256604 Z" id="Path_260"></path>
                                <path d="M2.08772,20.5495094 C1.69632,20.6821792 1.32772,20.8152358 0.93518,20.9479057 C1.08718,21.3683491 1.23918,21.7446981 1.39118,22.1430943 C1.7822,21.9659434 2.15118,21.8112264 2.52168,21.6561226 C2.37044,21.2797736 2.2401,20.9258585 2.08772,20.5495094 Z" id="Path_261"></path>
                                <path d="M3.00048,22.7627358 C2.63074,22.9398868 2.28304,23.1170377 1.9133,23.3158491 C2.109,23.6921981 2.30432,24.0685472 2.5213,24.4445094 C2.89104,24.2232642 3.23874,24.024066 3.56478,23.8256415 C3.37022,23.4709528 3.17452,23.1170377 3.00048,22.7627358 Z" id="Path_262"></path>
                                <path d="M2.3484,8.77477358 C1.957,8.6200566 1.5884,8.487 1.21752,8.33228302 C1.0868,8.75272642 0.95646,9.12907547 0.80446,9.54951887 C1.19586,9.68218868 1.56446,9.79319811 1.97866,9.90382075 C2.109,9.50542453 2.21768,9.15112264 2.3484,8.77477358 Z" id="Path_263"></path>
                                <path d="M4.74012,27.5655377 C5.02284,27.8749717 5.30556,28.1631321 5.52292,28.4064245 C5.84934,28.1186509 6.15334,27.8753585 6.47976,27.6096321 C6.17576,27.3001981 5.91432,27.0340849 5.63198,26.7687453 C5.34812,27.0120377 5.04412,27.2777642 4.74012,27.5655377 Z" id="Path_264"></path>
                                <path d="M4.19672,24.8432925 C3.87068,25.0865849 3.54426,25.3074434 3.19618,25.5515094 C3.45724,25.9054245 3.69626,26.2376792 3.93566,26.5915943 C4.2617,26.3258679 4.56646,26.0825755 4.8925,25.8180094 C4.6531,25.4849811 4.43574,25.1751604 4.19672,24.8432925 Z" id="Path_265"></path>
                                <path d="M3.34818,6.6060283 C3.0001,6.40683019 2.6524,6.20763208 2.28418,6.00843396 L1.71874,7.1595283 C2.08848,7.33667925 2.43618,7.5134434 2.82758,7.69059434 C3.00048,7.29219811 3.17414,6.9599434 3.34818,6.6060283 Z" id="Path_266"></path>
                                <path d="M10.85014,32.080566 C11.2632,32.257717 11.63294,32.39 12.02396,32.5675377 C12.17596,32.1691415 12.30668,31.7939528 12.4374,31.4168302 C12.06766,31.2621132 11.71996,31.1073962 11.35022,30.9743396 C11.17618,31.3282547 11.00214,31.6821698 10.85014,32.080566 Z" id="Path_267"></path>
                                <path d="M7.95796,1.18358491 C7.71894,0.851716981 7.47954,0.541896226 7.21886,0.209641509 C6.89282,0.475367925 6.58844,0.740707547 6.24036,1.02848113 C6.52308,1.33791509 6.76248,1.64734906 7.04482,1.95678302 C7.34958,1.6705566 7.65358,1.42687736 7.95796,1.18358491 Z" id="Path_268"></path>
                                <path d="M6.5664,29.3351132 C6.91448,29.6008396 7.24052,29.8661792 7.56656,30.1319057 C7.82762,29.7776038 8.04498,29.4457358 8.284,29.1359151 C7.95796,28.8926226 7.676,28.6489434 7.3492,28.4056509 L6.5664,29.3351132 Z" id="Path_269"></path>
                                <path d="M1.28288,13.4449057 C0.86982,13.4004245 0.47842,13.3783774 0.06688,13.334283 C0.04484,13.7767736 0.02318,14.1751698 0.00152,14.6180472 L1.21752,14.6180472 C1.23918,14.2416981 1.26122,13.8653491 1.28288,13.4449057 Z" id="Path_270"></path>
                                <path d="M6.11002,2.82126415 C5.8273,2.51183019 5.54496,2.22366981 5.2839,1.91384906 C5.00118,2.22328302 4.74012,2.5114434 4.4574,2.82126415 C4.78382,3.10903774 5.0654,3.35233019 5.3922,3.64010377 C5.65364,3.33028302 5.91432,3.04250943 6.11002,2.82126415 Z" id="Path_271"></path>
                                <path d="M32.26808,2.86419811 C31.96408,2.53233019 31.70226,2.24533019 31.44158,1.93589623 C31.13758,2.22366981 30.85486,2.5114434 30.57176,2.79921698 L31.35494,3.66253774 C31.65894,3.41885849 31.94166,3.15313208 32.26808,2.86419811 Z" id="Path_272"></path>
                            </g>
                            <g id="Handshake" transform="translate(2.894672, 16.164405)">
                                <path d="M20.9206039,15.2655758 C20.6166039,15.5750097 20.3335039,15.8631701 20.0291239,16.1509437 C20.5294572,16.6377865 21.0295372,17.1468053 21.5293639,17.6780003 C21.6812122,17.795257 21.7722065,17.9766244 21.7764985,18.1705822 C21.7807906,18.36454 21.6979113,18.5498938 21.5514039,18.6739909 C21.4301063,18.8212827 21.2509732,18.906363 21.0621539,18.906363 C20.8733346,18.906363 20.6942015,18.8212827 20.5729039,18.6739909 L19.0947039,17.1689814 L18.2245039,18.0543493 L19.7027039,19.5593588 C19.8452463,19.6702296 19.934084,19.8381238 19.9465915,20.0202817 C19.959099,20.2024395 19.8940691,20.3812798 19.7680639,20.511255 C19.6533177,20.6787706 19.4683265,20.7821645 19.2678794,20.7908144 C19.0674323,20.7994642 18.8745075,20.7123784 18.7462439,20.5553493 C18.2457839,20.0463305 17.7460839,19.5373116 17.2676639,19.0282927 L16.3974639,19.9136607 L17.5283439,21.0643682 C17.6374039,21.1749909 17.7673639,21.2856135 17.8760439,21.4186701 C18.0208708,21.5420614 18.1045471,21.7244239 18.1045471,21.9166654 C18.1045471,22.1089068 18.0208708,22.2912694 17.8760439,22.4146607 C17.7543366,22.5639576 17.5722981,22.6484908 17.3817504,22.6441958 C17.1912027,22.6399008 17.0130189,22.547248 16.8979239,22.3926135 L15.1362439,20.5998305 C15.0660104,20.5222278 15.0341456,20.4163893 15.0496039,20.3120569 C15.168663,19.267498 14.4599275,18.3122126 13.4403039,18.1429248 C13.2662639,18.1208776 13.2229439,18.0543493 13.2012839,17.8996324 C13.0642119,17.0677672 12.4293479,16.4127368 11.6140239,16.2619531 C11.5270039,16.2399059 11.3962839,16.1513305 11.3962839,16.0848022 C11.2868886,15.2143244 10.6193494,14.5256689 9.76570388,14.4026418 C9.71424739,14.3909268 9.66349665,14.3762043 9.61370388,14.3585475 C9.55778697,13.6379537 9.12396075,13.0042519 8.4791855,12.7013255 C7.83441025,12.398399 7.07918568,12.4734644 6.50416388,12.8976324 C6.13442388,12.4106607 5.78672388,11.923689 5.41698388,11.4146701 C5.48077385,11.3537426 5.53902407,11.2870721 5.59102388,11.215472 L10.6784639,6.03632104 C10.7813962,5.90222135 10.9607715,5.85661581 11.1135639,5.9256984 C11.7443639,6.19142482 12.3960639,6.43471727 13.0701839,6.67800972 C12.7445239,6.98744368 12.4397639,7.25355689 12.1353839,7.51889651 C11.4836839,8.09444368 10.8091839,8.66999085 10.1787639,9.26758519 C9.50227003,9.88075814 9.27208478,10.8576635 9.60174199,11.7164639 C9.9313992,12.5752644 10.7512672,13.1345602 11.6569639,13.1184909 C12.1536828,13.0938385 12.6313604,12.916346 13.0268639,12.609472 C13.2153711,12.4807758 13.3902241,12.332482 13.5486039,12.1669814 C14.2620856,11.4431301 15.1700042,10.9503052 16.1580639,10.7505475 C16.6989475,10.6837612 17.244244,10.6615129 17.7886439,10.6840192 C17.8540039,10.6840192 17.9193639,10.7505475 17.9843439,10.816689 C19.0719039,11.7241041 20.1590839,12.609472 21.2025639,13.5629154 C21.9857439,14.2711324 22.7248439,15.0679248 23.4643239,15.8426701 C23.5956977,15.9699268 23.6644027,16.1502344 23.6516855,16.3343765 C23.6389682,16.5185186 23.5461565,16.6872691 23.3985839,16.7945663 C23.282614,16.9243271 23.11951,17.0001052 22.9472197,17.0042703 C22.7749294,17.0084353 22.608475,16.9406241 22.4865839,16.8166135 C21.9203839,16.3060475 21.4203039,15.7742078 20.9206039,15.2655758 Z" id="Path_274" fill="#FFFFFF"></path>
                                <path d="M25.7473639,11.4587644 C25.1165639,12.4327078 24.4644839,13.4286984 23.8120239,14.4687833 C23.7487082,14.4153887 23.6904408,14.3560798 23.6379839,14.2916324 C22.0727639,12.5653776 20.2240639,11.1489437 18.4627639,9.64393425 C18.3025881,9.52887993 18.1148288,9.46005162 17.9193639,9.44473614 C17.3755839,9.42268897 16.8321839,9.42268897 16.3100639,9.44473614 C16.0592872,9.48276876 15.8120636,9.54202446 15.5709639,9.62188708 C14.5272736,9.8552568 13.5698482,10.3847024 12.8095039,11.1489437 C12.611255,11.3427435 12.3924198,11.5134686 12.1570439,11.6579626 C11.7547265,11.994093 11.1608815,11.9346081 10.8306539,11.5250993 C10.5004263,11.1155906 10.5588665,10.5111307 10.9611839,10.1750003 C12.1137239,9.13491538 13.2879239,8.09483048 14.4617439,7.05435878 C14.5660156,6.98899142 14.6875985,6.95805238 14.8098239,6.96578331 C15.3969239,6.96578331 16.0056839,6.98783048 16.5924039,6.94373614 C16.8278716,6.94007272 17.0590917,6.87934498 17.2669039,6.76658519 C18.0930239,6.2796135 18.9191439,5.77059463 19.7023239,5.28362293 C21.7030239,7.36417953 23.7033439,9.40025501 25.7473639,11.4587644 Z" id="Path_275" fill="#FFFFFF"></path>
                                <path d="M29.2916239,7.60785878 L26.5734839,10.3745852 L20.7678439,4.4651701 L23.4859839,1.69844368 C25.4213239,3.66837765 27.3798439,5.63792482 29.2916239,7.60785878 Z" id="Path_276" fill="#FFFFFF"></path>
                                <path d="M7.00424388,2.31808519 L9.74404388,5.10685878 L4.56882388,10.3745852 L1.82902388,7.58581161 C3.54662388,5.8591701 5.28702388,4.08882104 7.00424388,2.31808519 Z" id="Path_277" fill="#FFFFFF"></path>
                                <path d="M8.82938388,17.8992456 C8.52538388,17.5673776 8.22138388,17.2575569 7.91738388,16.9473493 C8.30878388,16.5489531 8.67738388,16.1064626 9.09158388,15.7301135 C9.3716078,15.5131524 9.76804344,15.54974 10.0051627,15.814429 C10.242282,16.079118 10.2415969,16.4842946 10.0035839,16.7481512 C9.61370388,17.1245003 9.22192388,17.5008493 8.82938388,17.8992456 Z" id="Path_278" fill="#FFFFFF"></path>
                                <path d="M10.6788439,19.7361229 C10.3528039,19.404255 10.0480439,19.0944343 9.74404388,18.7621795 C10.1137839,18.3858305 10.4831439,17.9885946 10.8749239,17.6110852 C11.1451292,17.3421383 11.5783697,17.3470738 11.8425938,17.6221089 C12.1068178,17.8971441 12.1019691,18.3381287 11.8317639,18.6070758 C11.4399839,18.9838116 11.0482039,19.3601607 10.6788439,19.7361229 Z" id="Path_279" fill="#FFFFFF"></path>
                                <path d="M6.98220388,16.0623682 C6.78650388,15.8631701 6.63412388,15.6860192 6.46046388,15.5088682 C6.33796876,15.396911 6.26619013,15.2385374 6.26201997,15.0710182 C6.25784982,14.903499 6.32165642,14.7416285 6.43842388,14.6235003 C6.66119242,14.363831 6.90101673,14.1198491 7.15624388,13.8932361 C7.28375358,13.7647549 7.45945419,13.6984036 7.63843705,13.7111416 C7.81741991,13.7238795 7.98233991,13.8144722 8.09104388,13.9597644 C8.22768188,14.0721694 8.3088596,14.2400366 8.31303093,14.4188108 C8.31720225,14.5975849 8.2439453,14.7691855 8.11270388,14.8880663 C7.76538388,15.2876229 7.39526388,15.6419248 6.98220388,16.0623682 Z" id="Path_280" fill="#FFFFFF"></path>
                                <path d="M11.5266239,20.6880192 L12.6791639,19.5148776 C12.8010466,19.3789586 12.9760338,19.3053013 13.1566299,19.3138982 C13.3372259,19.3224951 13.5046956,19.4124543 13.6135839,19.5593588 C13.7512395,19.6761061 13.8326373,19.8476902 13.8368606,20.0300196 C13.841084,20.212349 13.7677211,20.3876472 13.6356239,20.5108682 C13.4182639,20.7541607 13.1796239,20.9750192 12.9615039,21.197038 C12.8442439,21.3191896 12.6835479,21.3880536 12.5157639,21.3880536 C12.3479799,21.3880536 12.1872839,21.3191896 12.0700239,21.197038 C11.8747039,21.0195003 11.7006639,20.8647833 11.5266239,20.6880192 Z" id="Path_281" fill="#FFFFFF"></path>
                                <path d="M20.8544839,20.0463305 C20.6587839,21.1529437 20.1153839,21.6840097 19.0061639,21.927689 C18.9606267,22.5277692 18.6484382,23.0738586 18.1583839,23.4106512 C17.4341141,23.9566018 16.4264738,23.8812853 15.7883239,23.2335003 L14.0053639,21.4186701 C13.8313239,21.6178682 13.6793239,21.7950192 13.5052839,21.9717833 C13.1663564,22.3373495 12.6943737,22.5445442 12.2005539,22.5445442 C11.706734,22.5445442 11.2347514,22.3373495 10.8958239,21.9717833 L5.32958388,16.3060475 C4.64988361,15.6501223 4.57453573,14.5745503 5.15592388,13.8270946 C5.26460388,13.6723776 5.24256388,13.6058493 5.15592388,13.4507456 C4.34967689,12.2773632 3.43199193,11.1875502 2.41612388,10.1970475 C1.67702388,9.48883048 0.981243877,8.73613236 0.263423877,8.00586821 C0.102128796,7.89010159 0.00441925899,7.70325613 0.000146101122,7.50241421 C-0.00412705675,7.30157229 0.085543866,7.11059629 0.241763877,6.98783048 L6.22144388,0.901264439 C6.33690547,0.744462315 6.51817809,0.652170049 6.71069388,0.652170049 C6.90320967,0.652170049 7.08448228,0.744462315 7.19994388,0.901264439 C8.30878388,2.02992482 9.41762388,3.15897199 10.5264639,4.26635878 C10.641386,4.38735254 10.7831754,4.47848347 10.9399039,4.53208519 C11.7660239,4.86395312 12.5921439,5.17377387 13.4403039,5.48359463 C13.6561911,5.56323468 13.884886,5.60076336 14.1144239,5.59421727 C14.7667572,5.61639337 15.4189639,5.61639337 16.0710439,5.59421727 C16.2158407,5.59454814 16.3582167,5.55641807 16.4841039,5.48359463 C17.1145239,5.10724557 17.7001039,4.71000972 18.3320439,4.35493425 C18.8891622,4.02681092 19.4010541,3.62490892 19.8543239,3.15974557 C20.7663239,2.18580218 21.7243039,1.25633991 22.6591039,0.282396515 C22.7761669,0.105829732 22.9717632,6.61609132e-14 23.1810339,1.10134124e-13 C23.3903046,1.54107335e-13 23.5859009,0.105829732 23.7029639,0.282396515 L30.2260439,6.92207576 C30.6174439,7.32047199 30.5957839,7.60824557 30.2260439,8.00509463 L26.9645039,11.3249343 C26.7947539,11.4934976 26.6419936,11.6789205 26.5085039,11.8784343 C25.8127239,12.9409531 25.1169439,14.0251324 24.4207839,15.0888116 C24.322633,15.2307294 24.2983968,15.4123597 24.3558039,15.5757833 C24.5308394,16.1079057 24.4709523,16.6911046 24.1915966,17.1748839 C23.9122409,17.6586631 23.440783,17.9956304 22.8988839,18.0988305 C22.7359239,18.1103878 22.6062382,18.2423915 22.5948839,18.4082644 C22.450405,19.1666885 21.8785174,19.7661069 21.1379639,19.935321 C21.0555644,19.9986453 20.9573333,20.0371121 20.8544839,20.0463305 L20.8544839,20.0463305 Z M20.6150839,15.1549531 C21.1151639,15.6860192 21.6152439,16.217472 22.1373639,16.7264909 C22.2541571,16.8600782 22.4227441,16.9346446 22.5983789,16.9303987 C22.7740136,16.9261528 22.9389328,16.8435241 23.0493639,16.7044437 C23.1968843,16.5970849 23.2896221,16.4283019 23.3022657,16.2441621 C23.3149092,16.0600222 23.2461386,15.8797496 23.1147239,15.7525475 C22.3752439,14.9789626 21.6357639,14.1810097 20.8533439,13.4727927 C19.8098639,12.5208965 18.7006439,11.6359154 17.6351239,10.7265663 C17.5701439,10.682472 17.5047839,10.5938965 17.4394239,10.5938965 C16.8949547,10.5603103 16.3485467,10.5825988 15.8084639,10.6604248 C14.820563,10.8603201 13.9128033,11.3531305 13.1993839,12.0768588 C13.0473839,12.2315758 12.8513039,12.3646324 12.6776439,12.5193493 C12.2914929,12.8419209 11.8091393,13.0213997 11.3096439,13.0283682 C10.4143042,13.0481426 9.60045869,12.5016312 9.26600388,11.6560286 C8.9245846,10.7908185 9.15043564,9.80066209 9.83144388,9.17707576 C10.4835239,8.57948142 11.1359839,8.00393425 11.7880639,7.42877387 C12.0920639,7.16304746 12.3960639,6.87527387 12.7232439,6.58788708 C12.0491239,6.32216067 11.3966639,6.07886821 10.7662439,5.83518897 C10.6146114,5.75462608 10.4277491,5.80213516 10.3311439,5.94581161 L5.24332388,11.1249626 C5.17796388,11.1914909 5.13464388,11.2576324 5.06928388,11.3241607 C5.43902388,11.8331795 5.80838388,12.3201512 6.15646388,12.8071229 C6.73189724,12.3850858 7.48601663,12.311149 8.13001147,12.6136287 C8.77400631,12.9161084 9.20808446,13.5481329 9.26600388,14.2676512 C9.30932388,14.2896984 9.37468388,14.2896984 9.41800388,14.3121324 C10.2678611,14.4427753 10.9316563,15.1275684 11.0485839,15.9942927 C11.0879629,16.0861686 11.1692547,16.1524224 11.2659439,16.1714437 C12.0890437,16.3070663 12.7311307,16.9695491 12.8532039,17.8091229 C12.8752439,17.9638399 12.9181839,18.0303682 13.0922239,18.0524154 C14.116387,18.2139344 14.8290199,19.1746999 14.7011439,20.2215475 C14.6965477,20.3247728 14.7271569,20.4264407 14.7877839,20.509321 C15.3748839,21.1069154 15.9619839,21.7265569 16.5494639,22.3021041 C16.6704545,22.4473779 16.8467821,22.5329449 17.0338418,22.5371597 C17.2209015,22.5413744 17.4007763,22.4638332 17.5279639,22.3241512 C17.6727908,22.20076 17.7564671,22.0183974 17.7564671,21.8261559 C17.7564671,21.6339145 17.6727908,21.4515519 17.5279639,21.3281607 C17.4192839,21.217538 17.3106039,21.0848682 17.1798839,20.9742456 L16.0490039,19.823538 L16.9188239,18.9381701 C17.3972439,19.4251418 17.8973239,19.9562078 18.3974039,20.4652267 C18.5286242,20.6171875 18.7203751,20.700515 18.9189572,20.6918737 C19.1175393,20.6832324 19.3016038,20.5835512 19.4196039,20.4207456 C19.5456091,20.2907703 19.610639,20.1119301 19.5981315,19.9297722 C19.585624,19.7476144 19.4967863,19.5797202 19.3542439,19.4688493 L17.8756639,17.9638399 L18.7454839,17.078472 C19.2239039,17.5654437 19.7239839,18.0965097 20.2240639,18.5834814 C20.3453615,18.7307733 20.5244946,18.8158536 20.7133139,18.8158536 C20.9021332,18.8158536 21.0812663,18.7307733 21.2025639,18.5834814 C21.3491154,18.4594422 21.4320633,18.2741232 21.4278452,18.0801662 C21.4236272,17.8862091 21.3327043,17.7048078 21.1809039,17.5874909 L19.6806639,16.0604343 C20.0067039,15.7525475 20.2890439,15.4647739 20.6150839,15.1549531 Z M25.4205639,11.370189 C23.3765439,9.31167953 21.3758439,7.25355689 19.3538639,5.21748142 C18.5710639,5.70445312 17.7449439,6.21347199 16.9184439,6.70044368 C16.7118979,6.81577558 16.4802857,6.87667494 16.2447039,6.87759463 C15.6576039,6.8996418 15.0484639,6.87759463 14.4613639,6.8996418 C14.3395276,6.89472112 14.2188598,6.92546087 14.1136639,6.98821727 C12.9394639,8.02830218 11.7652639,9.06877387 10.6131039,10.1088588 C10.4219376,10.2726822 10.3029105,10.5073892 10.2824353,10.7608975 C10.26196,11.0144058 10.3417299,11.2657482 10.5040439,11.4591512 C10.6596012,11.6530604 10.8845507,11.7760188 11.1292791,11.8009073 C11.3740074,11.8257958 11.6184104,11.7505699 11.8085839,11.591821 C12.0352225,11.4346607 12.2530493,11.2647224 12.4610439,11.0828022 C13.2272697,10.3264602 14.1824759,9.7983145 15.2228839,9.55574557 C15.463953,9.47577152 15.7111857,9.41651361 15.9619839,9.37859463 C16.5057639,9.35654746 17.0491639,9.35654746 17.5709039,9.37859463 C17.7702905,9.37324147 17.9643751,9.44433875 18.1146839,9.57779274 C19.8756039,11.0828022 21.7246839,12.4992361 23.2895239,14.2254909 L23.4635639,14.4026418 C24.1376839,13.3401229 24.7901439,12.3441324 25.4209439,11.370189 L25.4205639,11.370189 Z M28.9864839,7.49684934 L23.1808439,1.58743425 L20.4630839,4.35416067 L26.2687239,10.2635758 C27.1602039,9.35616067 28.0953839,8.4266984 28.9868639,7.49723614 L28.9864839,7.49684934 Z M6.69910388,2.20707576 L1.52426388,7.47480218 L4.26368388,10.2635758 L9.43890388,4.99584934 C8.52576388,4.06638708 7.59058388,3.13692482 6.69948388,2.20746255 L6.69910388,2.20707576 Z M8.50372388,17.7886229 C8.89512388,17.3902267 9.30818388,17.015038 9.67754388,16.6154814 C9.88054035,16.3465964 9.86489736,15.9682515 9.64042342,15.7176781 C9.41594949,15.4671047 9.04726492,15.4164365 8.76554388,15.5974437 C8.35248388,15.9958399 7.98274388,16.4162833 7.59134388,16.8146795 C7.89534388,17.1465475 8.19934388,17.4563682 8.50334388,17.7886229 L8.50372388,17.7886229 Z M10.3520439,19.6479343 C10.7434439,19.2715852 11.1344639,18.8952361 11.4829239,18.5192739 C11.7015693,18.2424269 11.6824604,17.8429329 11.4384271,17.5890154 C11.1943937,17.3350978 10.8024301,17.3068696 10.5257039,17.5232833 C10.1343039,17.8996324 9.76570388,18.2968682 9.39520388,18.6739909 C9.73023189,18.9818465 10.0495945,19.3069177 10.3520439,19.6479343 L10.3520439,19.6479343 Z M6.67706388,15.9517456 C7.06846388,15.5533493 7.46024388,15.1781607 7.82960388,14.7786041 C7.9609211,14.6597372 8.03419745,14.4880745 8.02995184,14.3092538 C8.02570623,14.130433 7.94436885,13.9625736 7.80756388,13.8503022 C7.69885991,13.70501 7.53393991,13.6144172 7.35495705,13.6016793 C7.17597419,13.5889414 7.00027358,13.6552926 6.87276388,13.7837739 C6.61752743,14.0102476 6.37782049,14.2542393 6.15532388,14.514038 C6.03845332,14.6321115 5.97457544,14.7940053 5.9787465,14.9615604 C5.98291755,15.1291155 6.05476851,15.2875086 6.17736388,15.3994059 C6.32936388,15.5765569 6.48136388,15.753321 6.67744388,15.9525192 L6.67706388,15.9517456 Z M11.1990639,20.5773965 C11.3943839,20.7545475 11.5684239,20.9316984 11.7424639,21.0864154 C11.8597759,21.2084688 12.0204525,21.2772645 12.1882039,21.2772645 C12.3559553,21.2772645 12.5166318,21.2084688 12.6339439,21.0864154 C12.8729639,20.8651701 13.0899439,20.6222644 13.3076839,20.4002456 C13.4398431,20.2770086 13.5132777,20.1016815 13.5091275,19.919293 C13.5049773,19.7369046 13.4236468,19.5652261 13.2860239,19.4483493 C13.1712544,19.3105384 13.0053549,19.2275094 12.8280552,19.2191462 C12.6507555,19.210783 12.478023,19.2778388 12.3512239,19.404255 C11.9830039,19.7585569 11.6136439,20.1569531 11.2002039,20.5773965 L11.1990639,20.5773965 Z" id="Path_283" fill="#1C232F"></path>
                            </g>
                            <g id="Money-Symbol" transform="translate(18.620000, 8.968750) rotate(-360.000000) translate(-18.620000, -8.968750) translate(10.175556, 0.000000)">
                                <path d="M2.40452308,2.8987119 C0.952753179,4.44188971 0.144900994,6.49762082 0.150611538,8.63421172 C0.118025208,10.9541005 1.01967966,13.1864815 2.64589615,14.812217 C4.19452258,16.3772804 6.29177968,17.2500652 8.47403654,17.2376288 L8.76375,17.2376288 C13.2833644,17.1295395 16.8816842,13.3502167 16.8461308,8.74868741 C16.8549809,5.25743139 14.7668771,2.11524902 11.5800342,0.824255658 C8.39319132,-0.466737701 4.75493305,0.355689481 2.40452308,2.89837718 L2.40452308,2.8987119 Z" id="Path_73-path" fill="#1C232F"></path>
                                <path d="M0.910243733,8.7040293 C0.88749297,6.68423698 1.66471421,4.74003012 3.06691253,3.3091558 C4.50062512,1.82385523 6.46299551,0.989416206 8.50980059,0.994731246 L8.50980059,0.994731246 C10.5269226,0.98687321 12.4628816,1.80188255 13.8841675,3.25725809 C16.0593775,5.47248605 16.7081735,8.80180599 15.5280736,11.6930213 C14.3479737,14.5842366 11.57133,16.4680903 8.4926703,16.4662915 L8.47554,16.4662915 C6.46651152,16.475723 4.53733053,15.6672424 3.1183034,14.2211823 C1.69669739,12.7493489 0.903177506,10.7669398 0.909894135,8.7040293 L0.910243733,8.7040293 Z" id="Path_73-path" fill="#FFFFFF"></path>
                                <path d="M8.37735577,9.27353501 C8.79698051,9.26560421 9.21017502,9.3792526 9.56876538,9.60123004 C9.81779289,9.76189738 9.97881772,10.0317234 10.0041089,10.3307265 C10.0294001,10.6297295 9.91605567,10.9236002 9.69767308,11.1252295 C9.22123492,11.512404 8.58297717,11.6237356 8.007075,11.4201216 C7.54599257,11.2753859 7.20771038,10.8737556 7.13760577,10.387832 L7.12149231,10.2566201 L6.79955192,10.2566201 C6.63299116,10.2536078 6.46638664,10.2590818 6.30036346,10.2730216 C6.21136263,10.2956713 6.1321164,10.3474083 6.074775,10.4203003 C6.01966226,10.4832983 5.99077134,10.5656389 5.99420769,10.6499211 C6.07902813,11.5038652 6.62608199,12.2377364 7.41120577,12.55082 C7.50007547,12.5856464 7.59157595,12.6130723 7.68480577,12.6328275 C7.78148654,12.6662999 7.92617885,12.6997723 7.95840577,12.7476379 C7.99707132,12.8804236 8.00826853,13.0199273 7.99129038,13.1573403 C7.99129038,13.2393478 7.97517692,13.3213552 7.97517692,13.4030279 L7.97517692,13.7143215 C7.9537529,13.8509987 7.98230031,13.9909281 8.05541538,14.1076225 C8.15209615,14.2060314 8.28100385,14.2060314 8.55460385,14.2060314 L8.77986346,14.2060314 C8.88514186,14.2113709 8.98854754,14.1762464 9.06957692,14.1076225 C9.14202268,14.0215415 9.17692744,13.9091548 9.16625769,13.7963289 L9.16625769,13.4686339 C9.17700085,13.2991309 9.17160455,13.1289674 9.15014423,12.9605225 C9.13403077,12.7640394 9.15014423,12.6984334 9.40763077,12.6328275 C10.1268532,12.4542245 10.7190034,11.9366885 11.0012192,11.2400399 C11.2532626,10.5913592 11.181338,9.8586329 10.8081865,9.27353501 C10.3734519,8.56894049 9.68123077,8.17563951 8.69896731,8.07723059 C8.33134984,8.04943986 7.97154863,7.95513297 7.63646538,7.79874002 C7.33776435,7.66126866 7.1305008,7.37592286 7.08893654,7.04494104 C7.06770418,6.68297272 7.23221976,6.33564662 7.52367115,6.12712718 C7.9046363,5.81906645 8.40757198,5.71551135 8.87621538,5.84863661 C9.40525855,6.01535774 9.82410175,6.42949619 10.0031712,6.9629336 L10.0360558,7.06134253 L11.1307846,7.06134253 L11.1307846,6.89732765 C11.0979,5.76662917 10.5030173,5.07843614 9.15047308,4.61952921 L9.15047308,3.1611357 L8.36124231,3.1611357 C8.25247434,3.14280978 8.14119547,3.17264919 8.05541538,3.24314314 C7.98012641,3.33410556 7.94513569,3.452705 7.95873462,3.57083817 L7.95873462,4.61952921 C7.87816731,4.65300163 7.81404231,4.66873367 7.74958846,4.70153665 C7.52824103,4.77736407 7.3129746,4.87047085 7.10570769,4.98002721 C6.30266088,5.39493023 5.84919114,6.28508259 5.97875192,7.1922197 C6.16657379,8.39217274 7.18393627,9.27483698 8.37768462,9.27353501 L8.37735577,9.27353501 Z" id="Path_100" fill="#1C232F"></path>
                            </g>
                        </g>
                    </g>
                </g>
            </g>
        </g>
    </g>
</svg>