<?xml version="1.0" encoding="UTF-8"?>
<svg width="43px" height="34px" viewBox="0 0 43 34" version="1.1" xmlns="http://www.w3.org/2000/svg" xmlns:xlink="http://www.w3.org/1999/xlink">
    <!-- Generator: sketchtool 54.1 (76490) - https://sketchapp.com -->
    <title>3C7C819A-3311-478C-8B09-8673DEF5C59D</title>
    <desc>Created with sketchtool.</desc>
    <g id="DFL" stroke="none" stroke-width="1" fill="none" fill-rule="evenodd">
        <g id="DFL-•-Desktop" transform="translate(-998.000000, -1767.000000)">
            <g id="CARD-•-2" transform="translate(0.000000, 1552.000000)">
                <g id="CARD:-3" transform="translate(885.000000, 192.000000)">
                    <g id="Icon" transform="translate(92.000000, 0.000000)">
                        <g id="Megaphone-Icon" transform="translate(21.000000, 23.000000)">
                            <path d="M26.8110119,8.23529412 L25.2752976,3.40992647 C25.0193452,2.63786765 24.1875,2.12316176 23.2916667,2.38051471 C22.9077381,2.50919118 22.5877976,2.76654412 22.3958333,3.15257353 C22.203869,3.53860294 22.139881,3.92463235 22.2678571,4.31066176 L22.7157738,5.66176471 C18.8125,10.3584559 15.6770833,12.6746324 11.5178571,14.0900735 L11.0699405,12.5459559 L4.15922619,14.7977941 C2.81547619,15.2481618 1.72767857,16.1488971 1.08779762,17.3713235 C0.447916667,18.59375 0.319940476,20.0091912 0.767857143,21.3602941 L0.767857143,21.4246324 C1.4077381,23.6764706 3.45535714,25.0919118 5.69494048,25.0919118 C6.07886905,25.0919118 6.39880952,25.0919118 6.71875,25.0275735 L11.5818452,33.7132353 C11.6458333,33.8419118 11.8377976,33.9705882 12.0297619,33.9705882 C12.09375,33.9705882 12.2217262,33.9705882 12.2857143,33.90625 L15.0372024,32.3621324 C15.1651786,32.2977941 15.2291667,32.1691176 15.2931548,31.9761029 L15.485119,30.6893382 C15.6130952,29.8529412 15.1651786,29.0808824 14.3973214,28.7591912 L14.077381,28.6305147 C13.6934524,28.4375 13.5014881,28.1158088 13.5654762,27.6654412 L13.6294643,27.4080882 C13.7574405,26.5716912 13.3095238,25.7996324 12.5416667,25.4779412 L12.2857143,25.3492647 C11.9017857,25.15625 11.7098214,24.8345588 11.7738095,24.3841912 L11.9017857,23.4191176 L14.2693452,22.6470588 L13.8214286,21.1672794 C15.7410714,20.5882353 17.6607143,20.3308824 19.5803571,20.3308824 C21.9479167,20.3308824 24.5074405,20.7169118 27.8348214,21.5533088 L28.2827381,22.9044118 C28.4747024,23.5477941 29.0505952,23.9981618 29.7544643,23.9981618 C29.8824405,23.9981618 30.0744048,23.9981618 30.266369,23.9338235 C30.6502976,23.8051471 30.9702381,23.5477941 31.1622024,23.1617647 C31.3541667,22.7757353 31.4181548,22.3897059 31.2901786,22.0036765 L29.7544643,17.1783088 C30.5863095,16.7922794 31.2261905,16.0845588 31.546131,15.1838235 C31.9940476,14.0900735 31.9940476,12.8676471 31.610119,11.7095588 C30.7782738,9.39338235 28.7306548,7.91360294 26.8110119,8.23529412 Z" id="Path" fill="#FFFFFF"></path>
                            <path d="M26.8110119,8.23529412 L25.2752976,3.40992647 C25.0193452,2.63786765 24.1875,2.12316176 23.2916667,2.38051471 C22.9077381,2.50919118 22.5877976,2.76654412 22.3958333,3.15257353 C22.203869,3.53860294 22.139881,3.92463235 22.2678571,4.31066176 L22.7157738,5.66176471 C18.8125,10.3584559 15.6770833,12.6746324 11.5178571,14.0900735 L11.0699405,12.5459559 L4.15922619,14.7977941 C2.81547619,15.2481618 1.72767857,16.1488971 1.08779762,17.3713235 C0.447916667,18.59375 0.319940476,20.0091912 0.767857143,21.3602941 L0.767857143,21.4246324 C1.4077381,23.6764706 3.45535714,25.0919118 5.69494048,25.0919118 C6.07886905,25.0919118 6.39880952,25.0919118 6.71875,25.0275735 L11.5818452,33.7132353 C11.6458333,33.8419118 11.8377976,33.9705882 12.0297619,33.9705882 C12.09375,33.9705882 12.2217262,33.9705882 12.2857143,33.90625 L15.0372024,32.3621324 C15.1651786,32.2977941 15.2291667,32.1691176 15.2931548,31.9761029 L15.485119,30.6893382 C15.6130952,29.8529412 15.1651786,29.0808824 14.3973214,28.7591912 L14.077381,28.6305147 C13.6934524,28.4375 13.5014881,28.1158088 13.5654762,27.6654412 L13.6294643,27.4080882 C13.7574405,26.5716912 13.3095238,25.7996324 12.5416667,25.4779412 L12.2857143,25.3492647 C11.9017857,25.15625 11.7098214,24.8345588 11.7738095,24.3841912 L11.9017857,23.4191176 L14.2693452,22.6470588 L13.8214286,21.1672794 C15.7410714,20.5882353 17.6607143,20.3308824 19.5803571,20.3308824 C21.9479167,20.3308824 24.5074405,20.7169118 27.8348214,21.5533088 L28.2827381,22.9044118 C28.4747024,23.5477941 29.0505952,23.9981618 29.7544643,23.9981618 C29.8824405,23.9981618 30.0744048,23.9981618 30.266369,23.9338235 C30.6502976,23.8051471 30.9702381,23.5477941 31.1622024,23.1617647 C31.3541667,22.7757353 31.4181548,22.3897059 31.2901786,22.0036765 L29.7544643,17.1783088 C30.5863095,16.7922794 31.2261905,16.0845588 31.546131,15.1838235 C31.9940476,14.0900735 31.9940476,12.8676471 31.610119,11.7095588 C30.7782738,9.39338235 28.7306548,7.91360294 26.8110119,8.23529412 Z M11.8377976,26.25 L12.09375,26.3786765 C12.4776786,26.5716912 12.6696429,26.8933824 12.6056548,27.34375 L12.5416667,27.6011029 C12.4136905,28.4375 12.8616071,29.2095588 13.6294643,29.53125 L13.8854167,29.6599265 C14.2693452,29.8529412 14.4613095,30.1746324 14.3973214,30.5606618 L14.2693452,31.5900735 L12.1577381,32.7481618 L7.67857143,24.7058824 L10.8139881,23.7408088 L10.75,24.2555147 C10.6220238,25.0919118 11.0699405,25.9283088 11.8377976,26.25 Z M6.97470238,23.9338235 C6.52678571,24.0625 6.14285714,24.1268382 5.69494048,24.1268382 C3.83928571,24.1268382 2.17559524,22.9044118 1.59970238,21.1029412 L1.59970238,21.0386029 C1.2797619,20.0091912 1.4077381,18.8511029 1.91964286,17.8216912 C2.43154762,16.7922794 3.32738095,16.0845588 4.41517857,15.6985294 L10.3660714,13.8327206 L10.5580357,14.4117647 L10.5580357,14.4117647 L12.733631,21.4889706 L12.733631,21.4889706 L12.9255952,22.0680147 L6.97470238,23.9338235 Z M19.516369,19.3658088 C17.46875,19.3658088 15.485119,19.6231618 13.4375,20.2665441 L12.5416667,17.4356618 L11.7738095,15.0551471 C16.5729167,13.4466912 19.8363095,10.5514706 23.0997024,6.81985294 L27.3869048,20.5238971 C24.2514881,19.7518382 21.8199405,19.3658088 19.516369,19.3658088 Z M30.1383929,22.7757353 C30.0744048,22.9044118 29.9464286,23.0330882 29.7544643,23.0974265 C29.4345238,23.2261029 29.1145833,23.0330882 29.0505952,22.7113971 L23.2276786,4.11764706 C23.1636905,3.98897059 23.1636905,3.79595588 23.2916667,3.66727941 C23.3556548,3.53860294 23.483631,3.40992647 23.6755952,3.34558824 C23.7395833,3.34558824 23.8035714,3.34558824 23.8675595,3.34558824 C24.1235119,3.34558824 24.3794643,3.53860294 24.4434524,3.73161765 L30.266369,22.3253676 C30.266369,22.4540441 30.202381,22.6470588 30.1383929,22.7757353 Z M30.5223214,14.7977941 C30.266369,15.4411765 29.8184524,15.9558824 29.3065476,16.2132353 L27.0669643,9.13602941 C28.5386905,9.00735294 30.0104167,10.1654412 30.5863095,11.9025735 C30.90625,12.9319853 30.8422619,13.9613971 30.5223214,14.7977941 Z" id="Shape" fill="#1C232F" fill-rule="nonzero"></path>
                            <path d="M41.7202381,8.42830882 C40.6324405,4.82536765 38.2008929,1.93014706 34.8735119,0.193014706 L34.4255952,1.02941176 C37.4970238,2.63786765 39.8005952,5.34007353 40.8244048,8.68566176 C41.8482143,12.03125 41.5282738,15.5698529 39.9285714,18.6580882 L40.7604167,19.1084559 C42.5520833,15.8272059 42.8720238,12.03125 41.7202381,8.42830882 Z" id="Path" fill="#05B1F7"></path>
                            <path d="M33.3377976,3.15257353 L32.889881,3.98897059 C35.1934524,5.21139706 36.8571429,7.20588235 37.625,9.71507353 C38.3928571,12.2242647 38.2008929,14.8621324 36.985119,17.1139706 L37.8169643,17.5643382 C39.0967262,15.0551471 39.3526786,12.1599265 38.5208333,9.39338235 C37.6889881,6.69117647 35.8333333,4.50367647 33.3377976,3.15257353 Z" id="Path" fill="#05B1F7"></path>
                            <path d="M31.8020833,6.17647059 L31.3541667,7.01286765 C34.4255952,8.62132353 35.641369,12.4816176 34.0416667,15.6341912 L34.8735119,16.0845588 C36.7291667,12.4816176 35.3854167,8.04227941 31.8020833,6.17647059 Z" id="Path" fill="#05B1F7"></path>
                        </g>
                    </g>
                </g>
            </g>
        </g>
    </g>
</svg>