<?xml version="1.0" encoding="UTF-8"?>
<svg width="33px" height="33px" viewBox="0 0 33 33" version="1.1" xmlns="http://www.w3.org/2000/svg" xmlns:xlink="http://www.w3.org/1999/xlink">
    <!-- Generator: sketchtool 54.1 (76490) - https://sketchapp.com -->
    <title>3D1006AA-35B2-4E66-89C0-A1CF83AE8E0E</title>
    <desc>Created with sketchtool.</desc>
    <g id="DFL" stroke="none" stroke-width="1" fill="none" fill-rule="evenodd">
        <g id="DFL-•-Desktop" transform="translate(-410.000000, -1976.000000)" fill-rule="nonzero">
            <g id="CARD-•-2" transform="translate(0.000000, 1552.000000)">
                <g id="CARD:-4" transform="translate(292.000000, 400.000000)">
                    <g id="Icon" transform="translate(93.000000, 0.000000)">
                        <g id="Mag-Glass-Icon" transform="translate(25.000000, 24.000000)">
                            <path d="M32.5514062,28.5308203 L26.1247852,22.1054883 C25.8347461,21.8154492 25.441582,21.6543164 25.029082,21.6543164 L23.9784961,21.6543164 C25.7574023,19.3791211 26.8144336,16.5180469 26.8144336,13.4049609 C26.8144336,5.99994141 20.8132031,0 13.4075391,0 C6.001875,0 0,5.99994141 0,13.4049609 C0,20.8099805 6.00123047,26.8099219 13.4075391,26.8099219 C16.520625,26.8099219 19.3829883,25.7528906 21.6581836,23.9739844 L21.6581836,25.0245703 C21.6581836,25.4370703 21.8193164,25.8302344 22.1093555,26.1202734 L28.5359766,32.5456055 C29.1418359,33.1514648 30.1215234,33.1514648 30.7209375,32.5456055 L32.5449609,30.721582 C33.1508203,30.1157227 33.1508203,29.1366797 32.5514062,28.5308203 Z" id="Icon-Path" fill="#000000"></path>
                            <path d="M13.4302326,24.9418605 C7.07165698,24.9418605 1.91860465,19.7976867 1.91860465,13.4302326 C1.91860465,7.07157325 7.06286337,1.91860465 13.4302326,1.91860465 C19.7888081,1.91860465 24.9418605,7.06277842 24.9418605,13.4302326 C24.9418605,19.7888919 19.7976017,24.9418605 13.4302326,24.9418605 Z" id="Icon-Path" fill="#FFFFFF"></path>
                            <path d="M13.4721954,8.45625 C15.1981464,8.45625 16.5989181,9.84225 16.5989181,11.55 C16.5989181,12.205875 16.3550338,12.9855 15.9735736,13.789875 L16.905337,14.7118125 C17.4556402,13.629 17.8496072,12.5214375 17.8496072,11.55 C17.8496072,9.1554375 15.8922788,7.21875 13.4721954,7.21875 C12.3215615,7.21875 11.2834895,7.6580625 10.5018088,8.369625 L11.3960515,9.2544375 C11.9463547,8.765625 12.6717544,8.45625 13.4721954,8.45625 Z M13.4721954,10.003125 C13.1032421,10.003125 12.7655561,10.1330625 12.4966579,10.349625 L14.6853638,12.51525 C14.9042344,12.2491875 15.0355568,11.9150625 15.0355568,11.55 C15.0355568,10.6956845 14.3356161,10.003125 13.4721954,10.003125 L13.4721954,10.003125 Z M8.1004858,7.750875 L7.21875,8.6233125 L9.20734564,10.5909375 C9.13855775,10.9003125 9.09478363,11.2220625 9.09478363,11.55 C9.09478363,14.7984375 13.4721954,19.59375 13.4721954,19.59375 C13.4721954,19.59375 14.5165208,18.4490625 15.58586,16.9021875 L17.6807642,18.975 L18.5625,18.1025625 L8.1004858,7.750875 Z M13.4721954,17.66325 C12.2152529,16.066875 10.4705416,13.492875 10.3579796,11.7294375 L14.6853638,16.0111875 C14.2788899,16.6175625 13.8536556,17.180625 13.4721954,17.66325 L13.4721954,17.66325 Z" id="Icon-Shape" fill="#08B2F7"></path>
                        </g>
                    </g>
                </g>
            </g>
        </g>
    </g>
</svg>