<?xml version="1.0" encoding="UTF-8"?>
<svg width="32px" height="39px" viewBox="0 0 32 39" version="1.1" xmlns="http://www.w3.org/2000/svg" xmlns:xlink="http://www.w3.org/1999/xlink">
    <!-- Generator: sketchtool 54.1 (76490) - https://sketchapp.com -->
    <title>BD1659F5-6A55-4398-8383-7F73D167E122</title>
    <desc>Created with sketchtool.</desc>
    <g id="DFL" stroke="none" stroke-width="1" fill="none" fill-rule="evenodd">
        <g id="DFL-•-Desktop" transform="translate(-408.000000, -1766.000000)" fill="#FFFFFF" fill-rule="nonzero">
            <g id="CARD-•-2" transform="translate(0.000000, 1552.000000)">
                <g id="CARD:-1" transform="translate(292.000000, 192.000000)">
                    <g id="Icon" transform="translate(92.000000, 0.000000)">
                        <g id="Shield-Icon" transform="translate(25.000000, 23.000000)">
                            <path d="M15,0 L0,6.72727273 L0,16.8181818 C0,26.1522727 6.4,34.8809091 15,37 C23.6,34.8809091 30,26.1522727 30,16.8181818 L30,6.72727273 L15,0 Z" id="Icon-Path" stroke="#1C232F" stroke-width="1.425"></path>
                            <path d="M15,7.8423913 C17.539142,7.8423913 19.5975232,9.96451988 19.5975232,12.5822981 C19.5975232,15.2000764 17.539142,17.322205 15,17.322205 C12.460858,17.322205 10.4024768,15.2000764 10.4024768,12.5822981 C10.4024768,9.96451988 12.460858,7.8423913 15,7.8423913 Z" id="Icon-Path" stroke="#08B2F7"></path>
                            <path d="M22.8617647,26.8020186 C21.0031082,29.730578 18.2290959,31.9159378 15,32.9954969 C11.7709041,31.9159378 8.99689184,29.730578 7.13823529,26.8020186 C6.6172658,26.0437369 6.17064585,25.2339772 5.80495356,24.3846661 C5.80495356,21.7777174 9.95804954,19.6447593 15,19.6447593 C20.0419505,19.6447593 24.1950464,21.7303183 24.1950464,24.3846661 C23.8293993,25.2340007 23.3827769,26.0437649 22.8617647,26.8020186 L22.8617647,26.8020186 Z" id="Icon-Path" stroke="#08B2F7"></path>
                        </g>
                    </g>
                </g>
            </g>
        </g>
    </g>
</svg>