<?xml version="1.0" encoding="UTF-8"?>
<svg width="37px" height="37px" viewBox="0 0 37 37" version="1.1" xmlns="http://www.w3.org/2000/svg" xmlns:xlink="http://www.w3.org/1999/xlink">
    <!-- Generator: sketchtool 54.1 (76490) - https://sketchapp.com -->
    <title>0B9CDF18-816E-4877-A8CC-1470FDC9E5E0</title>
    <desc>Created with sketchtool.</desc>
    <g id="DFL" stroke="none" stroke-width="1" fill="none" fill-rule="evenodd">
        <g id="DFL-•-Desktop" transform="translate(-703.000000, -1975.000000)">
            <g id="CARD-•-2" transform="translate(0.000000, 1552.000000)">
                <g id="CARD:-5" transform="translate(588.000000, 401.000000)">
                    <g id="***Web-Activity-Icon***" transform="translate(115.000000, 22.000000)">
                        <g id="Group_132" transform="translate(4.204545, 4.755961)">
                            <g id="Group_128" transform="translate(18.863448, 19.301376)"></g>
                            <g id="Group_129" transform="translate(3.653526, 19.520837)"></g>
                            <g id="Group_131" transform="translate(0.899294, 0.231069)" fill="#1C232F" fill-rule="nonzero">
                                <g id="Group_130">
                                    <path d="M26.5774305,14.0106996 C26.3198058,21.4567683 20.2645306,27.1286506 12.7926843,26.8174153 C5.53865137,26.5011358 -0.0986684249,20.424024 0.170967995,13.2110237 C0.440604414,5.99802334 6.51609923,0.353586112 13.7737393,0.57337172 C21.0313794,0.793157329 26.7499758,6.79475908 26.5774305,14.0106996 Z M12.553305,9.91168004 C12.498204,9.91168004 12.4438327,9.89318004 12.407342,9.89318004 L6.86768103,9.89318004 C6.68522727,9.89318004 6.64873652,9.96572906 6.59181095,10.1126408 C5.9068688,12.5763698 5.93215717,15.1818511 6.66479245,17.631984 C6.71989349,17.8333075 6.83046046,17.8699447 7.01437385,17.8699447 L12.2781647,17.8699447 C12.3701214,17.8699447 12.4438327,17.8518075 12.5540348,17.8518075 C12.5536699,15.2001408 12.5536699,12.5655232 12.5536699,9.91276827 L12.553305,9.91168004 Z M14.1913748,17.8336702 C14.2262338,17.8470947 14.2634925,17.8532677 14.3008471,17.8518075 L19.785407,17.8518075 C19.951075,17.8518075 19.9879307,17.7792585 20.0430317,17.6323467 C20.6667197,15.6187836 20.7991844,13.4865424 20.4294687,11.4119938 C20.3375121,10.8997977 20.2086997,10.3876016 20.0798873,9.89354278 L14.1902801,9.89354278 L14.1913748,17.8336702 Z M4.98913715,9.89354278 C4.1607971,9.89354278 3.35106733,9.89354278 2.55958293,9.91168004 C2.48660143,9.91168004 2.39391492,10.0397291 2.35705926,10.1311408 C1.53674677,12.5839093 1.57532913,15.2404165 2.46653152,17.6686212 C2.49287429,17.8144701 2.63218624,17.9122347 2.77925725,17.888082 C3.3496077,17.869582 3.90207767,17.888082 4.47242811,17.888082 L5.07999912,17.888082 C4.33229394,15.2788842 4.30054368,12.5183268 4.98804243,9.89281729 L4.98913715,9.89354278 Z M21.663586,17.8336702 C21.7051428,17.8476454 21.748928,17.8539161 21.7927632,17.8521702 L24.018699,17.8521702 C24.1269738,17.8285118 24.2164616,17.7531355 24.2577135,17.6508467 C24.4995941,16.8575491 24.6963474,16.0513417 24.8470391,15.2360526 C25.116031,13.4959704 24.9452319,11.7166975 24.3500351,10.0585918 C24.3317897,9.98604278 24.2405628,9.89390553 24.1843671,9.89390553 C23.3746373,9.87540553 22.5649075,9.89390553 21.7365675,9.89390553 C22.4305992,12.4992728 22.4053879,15.2424315 21.663586,17.8347585 L21.663586,17.8336702 Z M12.553305,2.88639572 C10.1828074,3.96650651 8.30039868,5.88339424 7.27126874,8.26518004 L12.553305,8.26518004 L12.553305,2.88639572 Z M14.1913748,8.26518004 L19.4551657,8.26518004 C18.4331616,5.88481175 16.5568707,3.9675311 14.1913748,2.88639572 L14.1913748,8.26518004 Z M7.41869137,19.4801702 C8.46090301,21.7242992 10.2846853,23.5178183 12.553305,24.529582 L12.553305,19.4801702 L7.41869137,19.4801702 Z M19.3263533,19.4801702 L14.2099851,19.4801702 L14.2099851,24.529582 C16.4623827,23.5007474 18.2751291,21.7117239 19.3263533,19.4801702 L19.3263533,19.4801702 Z M23.5957712,8.30181729 C22.2550007,5.80062787 20.033205,3.87899098 17.3558528,2.90489572 C17.3923435,2.95967023 17.3923435,2.97744474 17.3923435,2.99630749 C17.4288343,3.032582 17.4843002,3.06885651 17.5211559,3.10513102 C18.9667661,4.28416672 20.1087541,5.78884081 20.8523966,7.4943467 C21.1286315,8.17122906 21.4782129,8.39068984 22.1773757,8.29927807 C22.6499597,8.27288428 23.123695,8.27409552 23.5961361,8.30290553 L23.5957712,8.30181729 Z M3.18539932,8.30181729 L3.47987968,8.30181729 C4.03198475,8.30181729 4.58408981,8.28368004 5.13655979,8.30181729 C5.3686621,8.34352343 5.59368271,8.19967928 5.6518092,7.97244474 C6.41227692,6.08295464 7.63279428,4.41073079 9.20381893,3.10585651 C9.25891996,3.069582 9.29577562,3.01444474 9.38627268,2.94117023 C6.75601933,3.76532709 4.19801766,6.1438467 3.18576422,8.30290553 L3.18539932,8.30181729 Z M23.3750022,19.462033 C22.7677961,19.462033 22.1788354,19.4983075 21.5898746,19.443533 C21.2764614,19.3820575 20.9693502,19.5747557 20.8903469,19.8824545 C20.2587471,21.3216548 19.3452709,22.6214772 18.203168,23.7061506 C17.9272979,23.9622487 17.6510629,24.2183467 17.3565826,24.4929447 C19.2340317,24.1454349 22.6386188,21.2913565 23.3750022,19.4616702 L23.3750022,19.462033 Z M9.36948694,24.4933075 C9.3143859,24.457033 9.27753024,24.4018957 9.22352393,24.3652585 C7.89950366,23.2507062 6.81643345,21.8809827 6.03970588,20.3387879 C5.89374288,20.0460526 5.80032655,19.6619055 5.56094723,19.5153565 C5.3215679,19.3688075 4.91688547,19.479082 4.58554944,19.479082 L3.33391667,19.479082 C4.69051637,21.8037104 6.82796344,23.5786209 9.37058166,24.4918565 L9.36948694,24.4933075 Z" id="Path_534"></path>
                                </g>
                            </g>
                            <g id="Group-2" transform="translate(1.995455, 2.392788)" fill="#FFFFFF" fill-rule="nonzero" stroke="#FFFFFF" stroke-width="0.5">
                                <path d="M11.4572335,8.00714706 C11.4021324,8.00714706 11.3477612,7.98864706 11.3112705,7.98864706 L5.7716095,7.98864706 C5.58915575,7.98864706 5.55084046,8.06119608 5.49573942,8.20810784 C4.81079727,10.6718369 4.83608565,13.2773181 5.56872093,15.727451 C5.62382196,15.9287745 5.73438894,15.9654118 5.91830232,15.9654118 L11.1820932,15.9654118 C11.2740499,15.9654118 11.3477612,15.9472745 11.4583282,15.9472745 C11.4572335,13.3130196 11.4572335,10.678402 11.4572335,8.00714706 Z" id="Path_522"></path>
                                <path d="M11.4572335,1 C9.08675629,2.08013959 7.20435661,3.99701811 6.17519721,6.37878431 L11.4572335,6.37878431 L11.4572335,1 Z" id="Path_524"></path>
                                <path d="M13.1135487,6.37878431 L18.3773395,6.37878431 C17.3553355,3.99841602 15.4790445,2.08113537 13.1135487,1 L13.1135487,6.37878431 Z" id="Path_525"></path>
                                <path d="M6.32225494,17.5937745 C7.3645564,19.8379666 9.18847695,21.6314943 11.4572335,22.6431863 L11.4572335,17.5937745 L6.32225494,17.5937745 Z" id="Path_526"></path>
                                <path d="M18.2299169,17.5937745 L13.1135487,17.5937745 L13.1135487,22.6431863 C15.3659646,21.6143779 17.1787189,19.8253466 18.2299169,17.5937745 L18.2299169,17.5937745 Z" id="Path_527"></path>
                                <path d="M13.1135487,15.9287745 C13.1483938,15.9422491 13.1856631,15.9484239 13.2230209,15.9469118 L18.7075808,15.9469118 C18.8732488,15.9469118 18.9101045,15.8743627 18.9652055,15.7292647 C19.5889352,13.7157092 19.7214004,11.583458 19.3516426,9.50891176 C19.2596859,8.99671569 19.1326981,8.48451961 19.0020612,7.99046078 L13.1135487,7.99046078 L13.1135487,15.9287745 Z" id="Path_523"></path>
                                <g id="Group-3" transform="translate(0.550000, 0.701251)">
                                    <path d="M20.1703349,14.9287745 C20.211807,14.9425509 20.2554579,14.9486971 20.2991473,14.9469118 L22.5250831,14.9469118 C22.6334958,14.9233613 22.7231401,14.8479684 22.7644625,14.7455882 C23.0062215,13.9522838 23.202853,13.1460764 23.3534232,12.3307941 C23.6223843,10.5907111 23.4515858,8.8114457 22.8564191,7.15333333 C22.8378089,7.08078431 22.7469469,6.98864706 22.6907511,6.98864706 C21.8810214,6.97014706 21.0712916,6.98864706 20.2429515,6.98864706 C20.93703,9.59376289 20.9118183,12.336701 20.16997,14.9287745 L20.1703349,14.9287745 Z" id="Path_528"></path>
                                    <path d="M22.0853696,5.39728431 C20.7446691,2.89595823 18.5228646,0.974184578 15.8454511,2.57571742e-14 C15.8819419,0.0547745098 15.8819419,0.0725490196 15.8819419,0.0914117647 C15.9184326,0.127686275 15.9738985,0.163960784 16.0107542,0.200235294 C17.4564257,1.3792126 18.5984257,2.88390263 19.3419949,4.58945098 C19.6182299,5.26633333 19.9678113,5.48579412 20.667339,5.39438235 C21.109242,5.36064706 21.5693904,5.39728431 22.0853696,5.39728431 Z" id="Path_529"></path>
                                    <path d="M21.8638707,16.576 C21.2566646,16.576 20.6677039,16.6122745 20.0787432,16.5575 C19.7653299,16.4960245 19.4582187,16.6887227 19.3792155,16.9964216 C18.74759,18.4356076 17.8341171,19.7354252 16.6920365,20.8201176 C16.4158015,21.0762157 16.1399315,21.3323137 15.8454511,21.6069118 C17.7229003,21.259402 21.1460976,18.4053235 21.8638707,16.576 Z" id="Path_530"></path>
                                    <path d="M3.22001606,7.17183333 C2.39167601,7.17183333 1.58194624,7.17183333 0.790826749,7.19033333 C0.717845247,7.19033333 0.625158738,7.31838235 0.588303079,7.40798039 C-0.232036756,9.86086848 -0.193454457,12.5174989 0.697775333,14.9458235 C0.723938204,15.0917862 0.863382457,15.1896436 1.01050107,15.1652843 C1.58085151,15.1471471 2.13332149,15.1652843 2.70367193,15.1652843 L3.31124294,15.1652843 C2.56402008,12.5566039 2.53252205,9.79669423 3.22001606,7.17183333 L3.22001606,7.17183333 Z" id="Path_531"></path>
                                    <path d="M1.41664313,5.58010784 L1.7111235,5.58010784 C2.26322856,5.58010784 2.81533363,5.56160784 3.3674387,5.58010784 C3.59966685,5.62202477 3.8249199,5.47813394 3.88305301,5.25073529 C4.64356107,3.36126732 5.86407176,1.68905259 7.43506274,0.384147059 C7.49016378,0.347872549 7.52701944,0.292735294 7.6175165,0.219460784 C4.98689824,1.06102941 2.42889657,3.43954902 1.41664313,5.58010784 Z" id="Path_532"></path>
                                    <path d="M7.60036585,21.7712353 C7.54526481,21.7349608 7.50840915,21.6798235 7.45440284,21.6431863 C6.13033857,20.5285853 5.04715745,19.1588785 4.27021988,17.6167157 C4.12425688,17.3239804 4.03084056,16.9398333 3.79182614,16.7932843 C3.55281171,16.6467353 3.14776438,16.7570098 2.81642835,16.7570098 L1.56479558,16.7570098 C2.92100636,19.0818647 5.05801831,20.8572495 7.60036585,21.7712353 L7.60036585,21.7712353 Z" id="Path_533"></path>
                                </g>
                            </g>
                        </g>
                        <path d="M28.4974522,5.75209227 C28.1847265,5.53263148 27.8716358,5.2946707 27.5402998,5.07520991 C20.5639439,0.488572918 11.2361194,1.83464844 5.85968484,8.20388639 C4.16556416,10.1906779 2.98430332,12.5581251 2.41824209,15.1011217 C2.01999072,16.8775571 1.914254,18.7064489 2.10515144,20.5165432 C2.34374634,22.8412163 3.09799465,25.0843578 4.31357171,27.084406 C4.36867274,27.1758178 4.4055284,27.2490923 4.45953472,27.340504 C4.67216565,27.7245526 4.5323437,28.2072181 4.14680898,28.4200334 C3.96696243,28.5206897 3.7537079,28.5444336 3.55591649,28.485824 C3.35812508,28.4272143 3.19275359,28.2912757 3.09769988,28.1091609 C2.69349706,27.4396219 2.32492014,26.7494571 1.99348974,26.0415138 C0.783483704,23.394834 0.258392403,20.489405 0.465986894,17.5895531 C0.67917961,13.9819111 2.00274246,10.5265961 4.25737595,7.69169031 C6.6273156,4.58575846 9.98892853,2.37288664 13.7905847,1.41620011 C19.6615817,-0.0656136144 25.0541849,1.05019031 29.8392171,4.78247462 C29.9121986,4.83724913 29.9851802,4.89129815 30.0968419,4.98379815 C30.0968419,4.85574913 30.1154521,4.78247462 30.1154521,4.69106286 L30.1154521,2.55086678 C30.1101347,2.33901903 30.1911667,2.13402614 30.3401432,1.98244879 C30.4891196,1.83087144 30.693395,1.74557582 30.9065716,1.74593541 C31.3482607,1.74209992 31.7100942,2.09368446 31.7163014,2.53272952 C31.7345468,3.90487331 31.7345468,5.2770171 31.7163014,6.6491609 C31.7273338,6.86100377 31.6474944,7.06756354 31.4966041,7.21755967 C31.3457138,7.3675558 31.1379227,7.44692208 30.924817,7.43595501 L26.7842114,7.43595501 C26.3470867,7.43595501 25.9927271,7.08369529 25.9927271,6.6491609 C25.9927271,6.2146265 26.3470867,5.86236678 26.7842114,5.86236678 C27.3545619,5.84422952 27.9252772,5.86236678 28.4956277,5.86236678 C28.4851259,5.82684338 28.4851259,5.78906665 28.4956277,5.75354325 L28.4974522,5.75209227 Z" id="Path_535" fill="#08B2F7" fill-rule="nonzero"></path>
                        <path d="M6.85369291,32.4816903 L6.85369291,34.9149844 C6.85795831,35.2752331 6.6188858,35.5936497 6.27024843,35.6920641 C5.92161105,35.7904785 5.54987521,35.6444827 5.36304572,35.3357687 C5.29222268,35.16673 5.24874785,34.9876173 5.23423337,34.8050727 C5.21562308,34.2381021 5.21562308,33.6707687 5.21562308,33.0852982 C5.21562308,32.317004 5.1970128,31.5483472 5.1970128,30.800004 C5.16364124,30.5601903 5.24251105,30.3183825 5.41109064,30.1436602 C5.57967023,29.968938 5.81941835,29.8805183 6.0618436,29.9036609 L10.0557563,29.9036609 C10.2778463,29.8839084 10.4980627,29.9578496 10.6626183,30.1074247 C10.8271739,30.2569997 10.9209173,30.4684366 10.920952,30.6900923 C10.9312176,30.9164282 10.8413132,31.1358913 10.6749062,31.2907074 C10.5084991,31.4455235 10.2822636,31.5201801 10.0557563,31.4950236 L8.17867209,31.4950236 C8.3976166,31.6763962 8.54686377,31.8058962 8.71216687,31.9339452 C14.9535839,36.4694035 23.5240948,36.0970546 29.3436727,31.0376021 C32.2036147,28.5977053 34.0957419,25.2248933 34.68081,21.5238864 C35.3699883,17.6821274 34.6307577,13.7223175 32.6008372,10.3821707 C32.3063568,9.86997462 32.3249671,9.46732756 32.6738187,9.17459227 C32.8521096,9.01963294 33.091791,8.95402438 33.324748,8.9964118 C33.5577051,9.03879922 33.7584693,9.18454849 33.8699855,9.39223933 C34.2744596,10.0864904 34.6430095,10.8008191 34.9741957,11.5324354 C36.0813818,13.9903618 36.5921103,16.6725092 36.4652078,19.3626511 C36.3368028,23.5706406 34.698146,27.5941121 31.8454787,30.7056903 C29.2617996,33.6256297 25.7698941,35.6026312 21.9254679,36.3220727 C16.4226626,37.3834648 11.4719624,36.1407001 7.07373214,32.6815629 C7.05621658,32.6278766 6.98250526,32.5731021 6.85369291,32.4816903 Z" id="Path_536" fill="#08B2F7" fill-rule="nonzero"></path>
                    </g>
                </g>
            </g>
        </g>
    </g>
</svg>