<svg xmlns="http://www.w3.org/2000/svg" width="34" height="34" viewBox="0 0 34 34">
  <g fill="#09AB58" fill-rule="nonzero">
    <path d="M24.53 11.373L14.374 21.53l-4.5-4.5c-.316-.317-.828-.317-1.144 0-.316.316-.316.828 0 1.144l5.072 5.073c.152.15.358.236.572.236.215 0 .42-.085.573-.236l10.728-10.73c.316-.315.316-.827 0-1.144-.316-.316-.83-.316-1.145 0z"/>
    <path d="M17 0C7.785 0 0 7.785 0 17s7.785 17 17 17 17-7.785 17-17S26.215 0 17 0zm0 32.38C8.663 32.38 1.62 25.338 1.62 17S8.662 1.62 17 1.62 32.38 8.662 32.38 17 25.338 32.38 17 32.38z"/>
  </g>
</svg>
