<svg xmlns="http://www.w3.org/2000/svg" width="125" height="63" viewBox="0 0 125 63">
  <g fill="#09AB58" fill-rule="evenodd">
    <g fill-rule="nonzero" opacity=".5">
      <path d="M14.257 52.772h-2.145c-.686 0-1.242.566-1.242 1.263 0 .698.556 1.263 1.242 1.263h2.145v2.16c0 .668.57 1.21 1.27 1.21.703 0 1.27-.542 1.27-1.21V55.3h2.147c.686 0 1.242-.565 1.242-1.263 0-.697-.556-1.263-1.242-1.263h-2.146v-2.16c0-.667-.568-1.208-1.27-1.208-.702 0-1.27.54-1.27 1.208v2.16zM119.07 31.93h-2.145c-.686 0-1.242.565-1.242 1.263s.556 1.263 1.242 1.263h2.146v2.16c0 .668.57 1.21 1.272 1.21.7 0 1.27-.542 1.27-1.21v-2.16h2.146c.686 0 1.242-.565 1.242-1.263s-.556-1.263-1.242-1.263h-2.146v-2.16c0-.668-.57-1.21-1.27-1.21-.702 0-1.27.542-1.27 1.21v2.16zM63.17 6.456h-2.145c-.686 0-1.242.566-1.242 1.263s.556 1.262 1.242 1.262h2.146v2.16c0 .668.57 1.21 1.27 1.21.703 0 1.27-.542 1.27-1.21v-2.16h2.147c.686 0 1.242-.565 1.242-1.263s-.557-1.264-1.243-1.264H65.71v-2.16c0-.667-.567-1.208-1.27-1.208-.7 0-1.27.54-1.27 1.208v2.16zM120.342 4.632c0-2.558-2.086-4.632-4.66-4.632-2.572 0-4.657 2.074-4.657 4.632s2.085 4.63 4.658 4.63c2.573 0 4.66-2.072 4.66-4.63zm-6.655 0c0-1.097.894-1.985 1.996-1.985 1.103 0 1.997.888 1.997 1.985 0 1.096-.894 1.985-1.997 1.985-1.102 0-1.996-.89-1.996-1.985zM9.317 19.298c0-2.558-2.086-4.63-4.66-4.63-2.57 0-4.657 2.072-4.657 4.63s2.086 4.632 4.658 4.632c2.573 0 4.66-2.074 4.66-4.632zm-6.655 0c0-1.096.894-1.985 1.996-1.985 1.103 0 1.997.89 1.997 1.985 0 1.097-.894 1.985-1.997 1.985-1.102 0-1.996-.888-1.996-1.985zM59.783 57.895c0-2.558-2.086-4.632-4.66-4.632-2.572 0-4.657 2.074-4.657 4.632s2.085 4.63 4.658 4.63c2.573 0 4.66-2.072 4.66-4.63zm-6.655 0c0-1.096.894-1.985 1.996-1.985 1.103 0 1.997.89 1.997 1.985 0 1.096-.893 1.985-1.996 1.985-1.102 0-1.996-.89-1.996-1.985z"/>
    </g>
    <path d="M12.522 43.466c-.912-.57-1.652-1.6-1.652-2.97 0-1.944 1.48-3.43 3.418-3.43.627 0 1.253.173 1.71.458 2.904 1.828 5.81 2.742 8.26 2.742 2.507 0 3.646-.914 3.646-2.285v-.113c0-1.886-2.963-2.514-6.323-3.543-4.273-1.256-9.115-3.256-9.115-9.2v-.112c0-6.23 5.013-9.712 11.166-9.712 3.192 0 6.496.857 9.458 2.34 1.254.63 2.053 1.772 2.053 3.257 0 1.942-1.54 3.43-3.476 3.43-.626 0-1.025-.116-1.595-.402-2.45-1.198-4.786-1.942-6.61-1.942-2.108 0-3.19.915-3.19 2.115v.113c0 1.715 2.906 2.516 6.21 3.658 4.273 1.43 9.23 3.486 9.23 9.084v.115c0 6.8-5.07 9.884-11.68 9.884-3.76 0-7.805-1.085-11.508-3.484M38.52 19.87c0-2.4 1.935-4.342 4.328-4.342 2.394 0 4.33 1.942 4.33 4.342v.4c2.107-2.856 5.014-4.97 9.514-4.97 7.12 0 13.9 5.598 13.9 15.826v.115c0 10.227-6.665 15.826-13.9 15.826-4.614 0-7.462-2.113-9.514-4.57v9.14c0 2.4-1.936 4.344-4.33 4.344-2.393 0-4.33-1.943-4.33-4.343V19.87zm23.414 11.37v-.114c0-5.086-3.42-8.456-7.463-8.456-4.045 0-7.406 3.37-7.406 8.456v.114c0 5.085 3.36 8.456 7.407 8.456 4.045 0 7.464-3.314 7.464-8.456zM73.93 8.688c0-2.515 2.108-4.056 4.842-4.056 2.734 0 4.843 1.54 4.843 4.056v.115c0 2.512-2.11 4.112-4.843 4.112-2.734 0-4.843-1.6-4.843-4.112v-.115zM74.44 20c0-2.4 1.937-4.342 4.33-4.342s4.33 1.942 4.33 4.342v22.626c0 2.4-1.937 4.34-4.33 4.34s-4.33-1.94-4.33-4.34V20zM87.51 8.688c0-2.515 2.11-4.056 4.844-4.056 2.734 0 4.843 1.54 4.843 4.056v.115c0 2.512-2.11 4.112-4.843 4.112-2.734 0-4.843-1.6-4.843-4.112v-.115zM88.025 20c0-2.4 1.937-4.342 4.33-4.342s4.33 1.942 4.33 4.342v22.626c0 2.4-1.937 4.34-4.33 4.34s-4.33-1.94-4.33-4.34V20zM101.578 19.642c0-2.4 1.937-4.342 4.33-4.342s4.33 1.942 4.33 4.342v1.37c1.253-2.97 3.304-5.712 5.868-5.712 2.677 0 4.216 1.77 4.216 4.227 0 2.286-1.482 3.658-3.248 4.057-4.387 1.03-6.836 4.4-6.836 10.57v8.113c0 2.4-1.937 4.342-4.33 4.342s-4.33-1.943-4.33-4.343V19.642z"/>
  </g>
</svg>
