<svg xmlns="http://www.w3.org/2000/svg" width="212" height="154" viewBox="0 0 212 154">
  <g fill="none" fill-rule="evenodd">
    <path stroke="#5A8FEE" stroke-width="1.8" d="M32.54 3.49l157.584 8.925c10.422.59 18.39 9.517 17.8 19.94-.01.187-.023.375-.04.563l-6.08 70.115c-.816 9.41-8.452 16.77-17.883 17.243l-150.36 7.538c-10.424.523-19.3-7.505-19.822-17.93-.01-.232-.02-.464-.022-.697L12.574 22.61c-.138-10.438 8.21-19.01 18.65-19.148.438-.006.878.003 1.317.028z" opacity=".244"/>
    <path stroke="#7C4DFF" stroke-width="1.8" d="M190.327 122.543L35.265 152.006c-10.255 1.948-20.147-4.786-22.096-15.04-.036-.186-.068-.37-.098-.558L2.01 66.905C.526 57.58 6.153 48.588 15.19 45.848l144.07-43.69c9.99-3.03 20.542 2.613 23.57 12.602.07.223.132.446.19.67l22.055 83.73c2.66 10.095-3.368 20.433-13.462 23.09-.425.113-.854.21-1.286.293z" opacity=".174"/>
    <path fill="#09AB58" d="M197.03 122.932c8.992-2.18 15.24-10.687 14.34-20.154l-7.782-81.836c-.968-10.177-9.853-17.74-20.054-17.07L24.92 14.292c-.438.028-.875.072-1.31.132C13.266 15.832 6.023 25.36 7.432 35.7L19.3 122.827c1.375 10.094 10.503 17.283 20.638 16.252l136.02-13.826c20.893 11.325 29.57 13.657 26.027 6.997l-4.954-9.318z"/>
    <text fill="#FFF" font-family="Campton-Book, Campton" font-size="12.6" font-weight="300" letter-spacing=".42" transform="rotate(-5 41.305 128.014)">
      <tspan x="35.533" y="85.8">Alle studerende bør læse </tspan> <tspan x="51.608" y="100.8">den. Den tog mig 15 </tspan> <tspan x="29.403" y="115.8">minutter at spare mig selv.</tspan>
    </text>
    <text fill="#FFF" font-family="Campton-SemiBold, Campton" font-size="18" font-weight="500" transform="rotate(-5 41.305 128.014)">
      <tspan x="58.203" y="43.1">Kanon guide!</tspan>
    </text>
    <text fill="#FFCA28" font-family="PingFangSC-Medium, PingFang SC" font-size="14.4" font-weight="400" letter-spacing=".48" transform="rotate(-5 41.305 128.014)">
      <tspan x="77.55" y="61.8">★★★★★</tspan>
    </text>
  </g>
</svg>
