<?xml version="1.0" encoding="UTF-8"?>
<svg width="118px" height="20px" viewBox="0 0 118 20" version="1.1" xmlns="http://www.w3.org/2000/svg" xmlns:xlink="http://www.w3.org/1999/xlink">
    <!-- Generator: Sketch 52.5 (67469) - http://www.bohemiancoding.com/sketch -->
    <title>stars</title>
    <desc>Created with Sketch.</desc>
    <g id="Page-1" stroke="none" stroke-width="1" fill="none" fill-rule="evenodd">
        <g id="Naughty-or-nice-lander" transform="translate(-581.000000, -1830.000000)" fill="#FFC107" fill-rule="nonzero">
            <g id="Group-16" transform="translate(0.000000, 1760.000000)">
                <path d="M591.124894,85.3436782 L591.124894,85.3654005 L585.069754,89.7315766 L587.198353,82.3460051 L581.349873,77.6974395 L588.706972,77.5236613 L591.124894,70.2249789 L593.542817,77.5236613 L600.899916,77.6974395 L595.03077,82.3677273 L597.159368,89.7750211 L591.124894,85.3436782 Z M615.562447,85.3436782 L615.562447,85.3654005 L609.507307,89.7315766 L611.635906,82.3460051 L605.787426,77.6974395 L613.144524,77.5236613 L615.562447,70.2249789 L617.98037,77.5236613 L625.337468,77.6974395 L619.468322,82.3677273 L621.596921,89.7750211 L615.562447,85.3436782 Z M640,85.3436782 L640,85.3654005 L633.94486,89.7315766 L636.073459,82.3460051 L630.224979,77.6974395 L637.582077,77.5236613 L640,70.2249789 L642.417923,77.5236613 L649.775021,77.6974395 L643.905875,82.3677273 L646.034474,89.7750211 L640,85.3436782 Z M664.437553,85.3436782 L664.437553,85.3654005 L658.382413,89.7315766 L660.511012,82.3460051 L654.662532,77.6974395 L662.01963,77.5236613 L664.437553,70.2249789 L666.855476,77.5236613 L674.212574,77.6974395 L668.343428,82.3677273 L670.472027,89.7750211 L664.437553,85.3436782 Z M688.875106,85.3436782 L688.875106,85.3654005 L682.819966,89.7315766 L684.948564,82.3460051 L679.100084,77.6974395 L686.457183,77.5236613 L688.875106,70.2249789 L691.293028,77.5236613 L698.650127,77.6974395 L692.780981,82.3677273 L694.909579,89.7750211 L688.875106,85.3436782 Z" id="stars"></path>
            </g>
        </g>
    </g>
</svg>