<?xml version="1.0" encoding="UTF-8"?>
<svg width="60px" height="60px" viewBox="0 0 60 60" version="1.1" xmlns="http://www.w3.org/2000/svg" xmlns:xlink="http://www.w3.org/1999/xlink">
    <!-- Generator: sketchtool 53.2 (72643) - https://sketchapp.com -->
    <title>56FA6FC4-2BD2-4615-A430-70F6ABBC6522</title>
    <desc>Created with sketchtool.</desc>
    <g id="Page-1" stroke="none" stroke-width="1" fill="none" fill-rule="evenodd">
        <g id="TCG-LP" transform="translate(-1222.000000, -3930.000000)">
            <g id="Reviews" transform="translate(0.000000, 3800.000000)">
                <g id="arrow-right" transform="translate(1224.000000, 132.000000)">
                    <circle id="Oval" stroke="#FFFFFF" stroke-width="2" cx="28" cy="28" r="29"></circle>
                    <path d="M32.8749812,28.8476709 L28.0937426,33.6289095 C27.9296803,33.7929718 27.7304624,33.8750027 27.4960878,33.8750027 C27.2617132,33.8750027 27.0624953,33.7929718 26.898433,33.6289095 L26.1249973,32.8203177 C25.960935,32.6562554 25.8789042,32.4570375 25.8789042,32.2226629 C25.8789042,31.9882883 25.960935,31.7890703 26.1249973,31.625008 L29.4999893,28.2500161 L26.1249973,24.8750241 C25.960935,24.7109619 25.8789042,24.5117439 25.8789042,24.2773693 C25.8789042,24.0429947 25.960935,23.8437768 26.1249973,23.6797145 L26.898433,22.8711227 C27.0624953,22.7070604 27.2617132,22.6250295 27.4960878,22.6250295 C27.7304624,22.6250295 27.9296803,22.7070604 28.0937426,22.8711227 L32.8749812,27.6523613 C33.0390435,27.8164236 33.1210744,28.0156415 33.1210744,28.2500161 C33.1210744,28.4843907 33.0390435,28.6836086 32.8749812,28.8476709 Z" id="" fill="#FFFFFF" fill-rule="nonzero"></path>
                </g>
            </g>
        </g>
    </g>
</svg>