<?xml version="1.0" encoding="UTF-8"?>
<svg width="60px" height="60px" viewBox="0 0 60 60" version="1.1" xmlns="http://www.w3.org/2000/svg" xmlns:xlink="http://www.w3.org/1999/xlink">
    <!-- Generator: sketchtool 53.2 (72643) - https://sketchapp.com -->
    <title>42AC4141-C418-4C0C-B5D7-E12769DC50B6</title>
    <desc>Created with sketchtool.</desc>
    <g id="Page-1" stroke="none" stroke-width="1" fill="none" fill-rule="evenodd">
        <g id="TCG-LP" transform="translate(-158.000000, -3930.000000)">
            <g id="Reviews" transform="translate(0.000000, 3800.000000)">
                <g id="arrow-left" transform="translate(160.000000, 132.000000)">
                    <circle id="Oval" stroke="#FFFFFF" stroke-width="2" cx="28" cy="28" r="29"></circle>
                    <path d="M24.1249973,27.6523613 L28.9062359,22.8711227 C29.0702982,22.7070604 29.2695161,22.6250295 29.5038907,22.6250295 C29.7382654,22.6250295 29.9374833,22.7070604 30.1015456,22.8711227 L30.8749812,23.6797145 C31.0390435,23.8437768 31.1210744,24.0429947 31.1210744,24.2773693 C31.1210744,24.5117439 31.0390435,24.6992433 30.8749812,24.839868 L27.4999893,28.2500161 L30.8749812,31.625008 C31.0390435,31.7890703 31.1210744,31.9882883 31.1210744,32.2226629 C31.1210744,32.4570375 31.0390435,32.6562554 30.8749812,32.8203177 L30.1015456,33.6289095 C29.9374833,33.7929718 29.7382654,33.8750027 29.5038907,33.8750027 C29.2695161,33.8750027 29.0702982,33.7929718 28.9062359,33.6289095 L24.1249973,28.8476709 C23.960935,28.6836086 23.8789042,28.4843907 23.8789042,28.2500161 C23.8789042,28.0156415 23.960935,27.8164236 24.1249973,27.6523613 Z" id="" fill="#FFFFFF" fill-rule="nonzero"></path>
                </g>
            </g>
        </g>
    </g>
</svg>