<?xml version="1.0" encoding="UTF-8"?>
<svg width="66px" height="58px" viewBox="0 0 66 58" version="1.1" xmlns="http://www.w3.org/2000/svg" xmlns:xlink="http://www.w3.org/1999/xlink">
    <!-- Generator: sketchtool 53.2 (72643) - https://sketchapp.com -->
    <title>1EF75C9A-CF4F-49DD-816B-39741E606397</title>
    <desc>Created with sketchtool.</desc>
    <g id="Page-1" stroke="none" stroke-width="1" fill="none" fill-rule="evenodd">
        <g id="TCG-LP" transform="translate(-1136.000000, -3581.000000)" fill="#FFFFFF">
            <g id="Featured-in" transform="translate(182.000000, 3503.000000)">
                <g id="logos" transform="translate(0.000000, 78.000000)">
                    <g id="logos-row-1" transform="translate(57.000000, 0.000000)">
                        <g id="CBS_logo" transform="translate(897.000000, 0.000000)">
                            <path d="M35.5217967,0 C27.4324495,0 21,6.74186113 21,14.9541925 C21,23.2564754 27.4324495,30 35.5217967,30 C43.653828,30 49.9999998,23.2576874 49.9999998,14.9568101 C50.0013767,6.7444787 43.653828,0 35.5217967,0 Z M35.5217967,6.34761365 C42.1268344,6.34761365 46.965457,10.6292781 49.0101687,14.9568101 C46.965457,19.3504003 42.1268344,23.6523864 35.5217967,23.6523864 C28.8740744,23.6523864 24.0741951,19.3489947 22.0308604,14.9568101 C24.0741951,10.6306837 28.8754513,6.35023122 35.5217967,6.35023122 L35.5217967,6.34761783 L35.5217967,6.34761365 Z M35.5217967,7.02818253 C31.2189524,7.02818253 27.7108497,10.5830908 27.7108497,14.9541925 C27.7108497,19.3913534 31.2189524,22.9273187 35.5217967,22.9273187 C39.8246411,22.9273187 43.2865857,19.3911599 43.2865857,14.9568101 C43.2865857,10.5857083 39.8246411,7.02818253 35.5217967,7.02818253 Z" id="path3003" fill-rule="nonzero"></path>
                            <path d="M12.9841626,32 C5.33264613,32 0,37.8602994 0,44.9882707 L0,45.0742857 C0,52.290429 5.44128942,58 12.7904077,58 C17.580235,58 20.4420962,56.2714643 23,53.4933333 L19.5098281,49.9536842 C17.5581088,51.7451241 15.8004072,52.9068672 12.9609121,52.9068672 C8.69126552,52.9068672 5.72222846,49.2947244 5.72222846,44.9882707 L5.72222846,44.9231078 C5.72222846,40.6152545 8.75646224,37.0931328 12.9609121,37.0931328 C15.45362,37.0931328 17.4046317,38.1649966 19.334157,39.9368421 L22.8243289,35.8680702 C20.5050146,33.5727878 17.6879863,32 12.9841626,32 Z" id="path3005"></path>
                            <path d="M25,32 L25,57 L36.7580527,57 C42.3244609,57 46,54.7180927 46,50.1502231 L46,50.0620396 C46,46.7113402 44.239369,45.034055 41.3777452,43.9255109 C43.141496,42.9255931 44.6240849,41.359219 44.6240849,38.5307605 L44.6240849,38.4659197 C44.6240849,36.7446125 44.064476,35.3525071 42.9253294,34.1993983 C41.5082753,32.7858658 39.2938065,32 36.4762079,32 L25,32 Z M30.2858712,36.808586 L35.6614202,36.8085901 C37.9617256,36.8085901 39.2280381,37.7441062 39.2280381,39.3762838 L39.2280381,39.4644673 C39.2280381,41.3138973 37.7026382,42.0970018 35.295022,42.0970018 L30.2858712,42.0995912 L30.2858712,36.808586 L30.2858712,36.808586 Z M30.2858712,46.6695674 L36.5863836,46.6695715 C39.3572054,46.6695715 40.6039531,47.7149397 40.6039531,49.3902894 L40.6039531,49.4758792 C40.6039531,51.3253093 39.143656,52.1732545 36.7580527,52.1732545 L30.2858712,52.175844 L30.2858712,46.6695674 L30.2858712,46.6695674 Z" id="path3007" fill-rule="nonzero"></path>
                            <path d="M55.8480461,32 C50.7050553,32 47.013885,35.034435 47.013885,39.6293234 L47.013885,39.6974892 C47.013885,44.7147025 50.3086696,46.1232524 55.3869511,47.4211959 C59.6071274,48.5192396 60.4851948,49.2224831 60.4851948,50.6302309 L60.4851948,50.7193708 C60.4851948,52.1918749 59.0991516,53.0946859 56.8357326,53.0946859 C53.9336568,53.0946859 51.5606104,51.9045802 49.2957813,50.0350913 L46,53.9729757 C49.0329019,56.678667 52.9008099,58 56.7256986,58 L56.7256986,57.9973824 C62.1767595,57.9973824 66,55.1803875 66,50.1688052 L66,50.1032612 C66,45.6829334 63.0998801,43.8534403 57.9779907,42.5132643 C53.6269867,41.3898772 52.5260662,40.8413696 52.5260662,39.1914894 L52.5260662,39.1259453 C52.5260662,37.8941659 53.6473327,36.9053141 55.7799298,36.9053141 C57.9125269,36.9053141 60.1108359,37.8493107 62.3531577,39.4090955 L65.2323774,35.2116568 C62.6819855,33.1661994 59.5407045,32 55.8480461,32 Z" id="path3009"></path>
                        </g>
                    </g>
                </g>
            </g>
        </g>
    </g>
</svg>