<?xml version="1.0" encoding="UTF-8"?>
<svg width="192px" height="192px" viewBox="0 0 192 192" version="1.1" xmlns="http://www.w3.org/2000/svg" xmlns:xlink="http://www.w3.org/1999/xlink">
    <!-- Generator: sketchtool 53.2 (72643) - https://sketchapp.com -->
    <title>E4FB9B66-BA30-45D4-BBF0-5CFBC36AEE26</title>
    <desc>Created with sketchtool.</desc>
    <g id="Page-1" stroke="none" stroke-width="1" fill="none" fill-rule="evenodd">
        <g id="TCG-LP" transform="translate(-192.000000, -920.000000)">
            <g id="Factoids" transform="translate(160.000000, 816.000000)">
                <g id="Group-11" transform="translate(0.000000, 104.000000)">
                    <g id="Group-6">
                        <g id="icon1" transform="translate(32.000000, 0.000000)">
                            <circle id="Oval" fill="#FFF5F5" fill-rule="nonzero" cx="96" cy="96" r="96"></circle>
                            <path d="M141.850746,123.501493 L132.680597,123.501493 L132.680597,110.032836 L98.1492537,110.032836 L98.1492537,95.8477612 C104.310448,95.7044776 110.758209,93.841791 117.20597,90.4029851 C125.086567,86.1044776 130.101493,81.0895522 130.38806,80.8029851 L131.104478,80.0865672 L130.38806,79.3701493 C129.958209,78.9402985 120.358209,69.3402985 106.889552,65.6149254 C104.023881,64.7552239 101.158209,64.4686567 98.2925373,64.3253731 C97.8626866,64.3253731 97.5761194,64.3253731 97.1462687,64.3253731 C96.7164179,64.3253731 96.4298507,64.3253731 96,64.3253731 C93.1343284,64.4686567 90.2686567,64.8985075 87.4029851,65.6149254 C73.9343284,69.1970149 64.3343284,78.9402985 63.9044776,79.3701493 L63.1880597,80.0865672 L63.9044776,80.8029851 C64.0477612,80.9462687 69.2059701,86.1044776 77.0865672,90.4029851 C83.5343284,93.841791 89.838806,95.7044776 96,95.8477612 L96,110.032836 L63.1880597,110.032836 L63.1880597,123.501493 L62.041791,123.501493 L59.0328358,120.779104 C58.8895522,120.635821 58.6029851,120.492537 58.3164179,120.492537 L50.1492537,120.492537 C49.5761194,120.492537 49.0029851,120.922388 49.0029851,121.638806 L49.0029851,139.692537 C49.0029851,140.265672 49.4328358,140.838806 50.1492537,140.838806 L74.5074627,140.838806 C75.080597,140.838806 75.6537313,140.408955 75.6537313,139.692537 L75.6537313,124.647761 C75.6537313,124.074627 75.2238806,123.501493 74.5074627,123.501493 L65.3373134,123.501493 L65.3373134,112.18209 L96,112.18209 L96,123.501493 L95.7134328,123.501493 L92.7044776,120.779104 C92.561194,120.635821 92.2746269,120.492537 91.9880597,120.492537 L83.8208955,120.492537 C83.2477612,120.492537 82.6746269,120.922388 82.6746269,121.638806 L82.6746269,139.692537 C82.6746269,140.265672 83.1044776,140.838806 83.8208955,140.838806 L108.179104,140.838806 C108.752239,140.838806 109.325373,140.408955 109.325373,139.692537 L109.325373,124.647761 C109.325373,124.074627 108.895522,123.501493 108.179104,123.501493 L98.1492537,123.501493 L98.1492537,112.18209 L130.531343,112.18209 L130.531343,123.501493 L129.385075,123.501493 L126.376119,120.779104 C126.232836,120.635821 125.946269,120.492537 125.659701,120.492537 L117.492537,120.492537 C116.919403,120.492537 116.346269,120.922388 116.346269,121.638806 L116.346269,139.692537 C116.346269,140.265672 116.776119,140.838806 117.492537,140.838806 L141.850746,140.838806 C142.423881,140.838806 142.997015,140.408955 142.997015,139.692537 L142.997015,124.647761 C142.997015,124.074627 142.423881,123.501493 141.850746,123.501493 Z" id="Path" fill="#FFFFFF"></path>
                            <g id="Group" transform="translate(49.000000, 51.000000)" fill="#EA1821" fill-rule="nonzero">
                                <path d="M52.8746269,29.2298507 C52.8746269,26.6507463 50.7253731,24.5014925 48.1462687,24.5014925 C45.5671642,24.5014925 43.4179104,26.6507463 43.4179104,29.2298507 C43.4179104,31.8089552 45.5671642,33.958209 48.1462687,33.958209 C50.7253731,33.958209 52.8746269,31.8089552 52.8746269,29.2298507 Z M45.5671642,29.2298507 C45.5671642,27.7970149 46.7134328,26.6507463 48.1462687,26.6507463 C49.5791045,26.6507463 50.7253731,27.7970149 50.7253731,29.2298507 C50.7253731,30.6626866 49.5791045,31.8089552 48.1462687,31.8089552 C46.7134328,31.8089552 45.5671642,30.6626866 45.5671642,29.2298507 Z" id="Shape"></path>
                                <path d="M92.8507463,72.5014925 L83.680597,72.5014925 L83.680597,59.0328358 L49.1492537,59.0328358 L49.1492537,44.8477612 C55.3104478,44.7044776 61.758209,42.841791 68.2059701,39.4029851 C76.0865672,35.1044776 81.1014925,30.0895522 81.3880597,29.8029851 L82.1044776,29.0865672 L81.3880597,28.3701493 C80.958209,27.9402985 71.358209,18.3402985 57.8895522,14.6149254 C55.0238806,13.7552239 52.158209,13.4686567 49.2925373,13.3253731 C48.8626866,13.3253731 48.5761194,13.3253731 48.1462687,13.3253731 C47.7164179,13.3253731 47.4298507,13.3253731 47,13.3253731 C44.1343284,13.4686567 41.2686567,13.8985075 38.4029851,14.6149254 C24.9343284,18.1970149 15.3343284,27.9402985 14.9044776,28.3701493 L14.1880597,29.0865672 L14.9044776,29.8029851 C15.0477612,29.9462687 20.2059701,35.1044776 28.0865672,39.4029851 C34.5343284,42.841791 40.838806,44.7044776 47,44.8477612 L47,59.0328358 L14.1880597,59.0328358 L14.1880597,72.5014925 L13.041791,72.5014925 L10.0328358,69.7791045 C9.88955224,69.6358209 9.60298507,69.4925373 9.31641791,69.4925373 L1.14925373,69.4925373 C0.576119403,69.4925373 0.00298507463,69.9223881 0.00298507463,70.638806 L0.00298507463,88.6925373 C0.00298507463,89.2656716 0.432835821,89.838806 1.14925373,89.838806 L25.5074627,89.838806 C26.080597,89.838806 26.6537313,89.4089552 26.6537313,88.6925373 L26.6537313,73.6477612 C26.6537313,73.0746269 26.2238806,72.5014925 25.5074627,72.5014925 L16.3373134,72.5014925 L16.3373134,61.1820896 L47,61.1820896 L47,72.5014925 L46.7134328,72.5014925 L43.7044776,69.7791045 C43.561194,69.6358209 43.2746269,69.4925373 42.9880597,69.4925373 L34.8208955,69.4925373 C34.2477612,69.4925373 33.6746269,69.9223881 33.6746269,70.638806 L33.6746269,88.6925373 C33.6746269,89.2656716 34.1044776,89.838806 34.8208955,89.838806 L59.1791045,89.838806 C59.7522388,89.838806 60.3253731,89.4089552 60.3253731,88.6925373 L60.3253731,73.6477612 C60.3253731,73.0746269 59.8955224,72.5014925 59.1791045,72.5014925 L49.1492537,72.5014925 L49.1492537,61.1820896 L81.5313433,61.1820896 L81.5313433,72.5014925 L80.3850746,72.5014925 L77.3761194,69.7791045 C77.2328358,69.6358209 76.9462687,69.4925373 76.6597015,69.4925373 L68.4925373,69.4925373 C67.919403,69.4925373 67.3462687,69.9223881 67.3462687,70.638806 L67.3462687,88.6925373 C67.3462687,89.2656716 67.7761194,89.838806 68.4925373,89.838806 L92.8507463,89.838806 C93.4238806,89.838806 93.9970149,89.4089552 93.9970149,88.6925373 L93.9970149,73.6477612 C93.9970149,73.0746269 93.4238806,72.5014925 92.8507463,72.5014925 Z M24.361194,87.6895522 L2.29552239,87.6895522 L2.29552239,71.641791 L9.02985075,71.641791 L11.8955224,74.5074627 C12.038806,74.6507463 12.3253731,74.7940299 12.6119403,74.7940299 L24.361194,74.7940299 L24.361194,87.6895522 Z M58.0328358,87.6895522 L35.9671642,87.6895522 L35.9671642,71.641791 L42.7014925,71.641791 L45.7104478,74.3641791 C45.8537313,74.5074627 46.1402985,74.6507463 46.4268657,74.6507463 L58.1761194,74.6507463 L58.1761194,87.6895522 L58.0328358,87.6895522 Z M34.3910448,29.2298507 C34.3910448,22.0656716 39.9791045,16.1910448 46.8567164,15.6179104 C47.5731343,15.6179104 48.4328358,15.6179104 49.1492537,15.6179104 C56.1701493,16.1910448 61.6149254,22.0656716 61.6149254,29.2298507 C61.6149254,36.680597 55.5970149,42.841791 48.1462687,42.9850746 C48.1462687,42.9850746 48.0029851,42.9850746 48.0029851,42.9850746 C48.0029851,42.9850746 47.8597015,42.9850746 47.8597015,42.9850746 C40.5522388,42.6985075 34.3910448,36.680597 34.3910448,29.2298507 Z M79.0955224,29.2298507 C77.3761194,30.8059701 73.0776119,34.5313433 67.2029851,37.6835821 C64.1940299,39.2597015 61.1850746,40.5492537 58.319403,41.4089552 C61.758209,38.5432836 64.0507463,34.1014925 64.0507463,29.2298507 C64.0507463,24.358209 61.9014925,20.0597015 58.4626866,17.0507463 C68.6358209,20.2029851 76.6597015,26.9373134 79.0955224,29.2298507 Z M17.1970149,29.2298507 C19.6328358,26.9373134 27.6567164,20.2029851 37.9731343,17.0507463 C34.5343284,19.9164179 32.3850746,24.358209 32.3850746,29.2298507 C32.3850746,34.1014925 34.5343284,38.4 38.1164179,41.4089552 C35.2507463,40.5492537 32.241791,39.2597015 29.2328358,37.6835821 C23.2149254,34.5313433 18.9164179,30.8059701 17.1970149,29.2298507 Z M91.8477612,87.6895522 L69.638806,87.6895522 L69.638806,71.641791 L76.3731343,71.641791 L79.238806,74.5074627 C79.3820896,74.6507463 79.6686567,74.7940299 79.9552239,74.7940299 L91.7044776,74.7940299 L91.7044776,87.6895522 L91.8477612,87.6895522 Z" id="Shape"></path>
                                <rect id="Rectangle" x="75.0835821" y="80.0955224" width="2.14925373" height="2.14925373"></rect>
                                <rect id="Rectangle" x="79.5253731" y="80.0955224" width="2.14925373" height="2.14925373"></rect>
                                <rect id="Rectangle" x="83.9671642" y="80.0955224" width="2.14925373" height="2.14925373"></rect>
                                <rect id="Rectangle" x="12.1820896" y="80.0955224" width="2.14925373" height="2.14925373"></rect>
                                <rect id="Rectangle" x="16.6238806" y="80.0955224" width="2.14925373" height="2.14925373"></rect>
                                <rect id="Rectangle" x="7.74029851" y="80.0955224" width="2.14925373" height="2.14925373"></rect>
                                <rect id="Rectangle" x="45.8537313" y="80.0955224" width="2.14925373" height="2.14925373"></rect>
                                <rect id="Rectangle" x="50.2955224" y="80.0955224" width="2.14925373" height="2.14925373"></rect>
                                <rect id="Rectangle" x="41.4119403" y="80.0955224" width="2.14925373" height="2.14925373"></rect>
                                <rect id="Rectangle" x="47.1432836" y="0.429850746" width="2.14925373" height="9.02686567"></rect>
                                <polygon id="Rectangle" transform="translate(34.847296, 6.649684) rotate(75.000671) translate(-34.847296, -6.649684) " points="30.3339975 5.57508882 39.3605935 5.57508882 39.3605935 7.72427834 30.3339975 7.72427834"></polygon>
                                <polygon id="Rectangle" transform="translate(22.366113, 11.778340) rotate(59.999272) translate(-22.366113, -11.778340) " points="17.8527799 10.7037371 26.879447 10.7037371 26.879447 12.8529435 17.8527799 12.8529435"></polygon>
                                <polygon id="Rectangle" transform="translate(11.633428, 20.118147) rotate(45.000000) translate(-11.633428, -20.118147) " points="7.12003851 19.0435303 16.1468176 19.0435303 16.1468176 21.1927634 7.12003851 21.1927634"></polygon>
                                <polygon id="Rectangle" transform="translate(84.589688, 20.098073) rotate(45.000000) translate(-84.589688, -20.098073) " points="83.5150718 15.5846833 85.6643049 15.5846833 85.6643049 24.6114624 83.5150718 24.6114624"></polygon>
                                <polygon id="Rectangle" transform="translate(74.034890, 11.852848) rotate(30.000728) translate(-74.034890, -11.852848) " points="72.9602863 7.33951422 75.1094928 7.33951422 75.1094928 16.3661813 72.9602863 16.3661813"></polygon>
                                <polygon id="Rectangle" transform="translate(61.557813, 6.669937) rotate(14.975708) translate(-61.557813, -6.669937) " points="60.4832251 2.15666962 62.6323999 2.15666962 62.6323999 11.1832038 60.4832251 11.1832038"></polygon>
                            </g>
                        </g>
                    </g>
                </g>
            </g>
        </g>
    </g>
</svg>