<?xml version="1.0" encoding="UTF-8"?>
<svg width="192px" height="192px" viewBox="0 0 192 192" version="1.1" xmlns="http://www.w3.org/2000/svg" xmlns:xlink="http://www.w3.org/1999/xlink">
    <!-- Generator: sketchtool 53.2 (72643) - https://sketchapp.com -->
    <title>E45603F7-08A0-4750-9C30-C3CEC217EABD</title>
    <desc>Created with sketchtool.</desc>
    <g id="Page-1" stroke="none" stroke-width="1" fill="none" fill-rule="evenodd">
        <g id="TCG-LP" transform="translate(-1056.000000, -920.000000)">
            <g id="Factoids" transform="translate(160.000000, 816.000000)">
                <g id="Group-11" transform="translate(0.000000, 104.000000)">
                    <g id="Group-9" transform="translate(864.000000, 0.000000)">
                        <g id="icon4" transform="translate(32.000000, 0.000000)">
                            <circle id="Oval" fill="#FFF5F5" fill-rule="nonzero" cx="96" cy="96" r="96"></circle>
                            <g id="Group" transform="translate(41.000000, 41.000000)">
                                <circle id="Oval" fill="#FFFFFF" fill-rule="nonzero" cx="55" cy="55" r="31"></circle>
                                <rect id="Rectangle" fill="#EA1821" fill-rule="nonzero" x="55.4537313" y="19.0597015" width="2.14925373" height="21.3492537"></rect>
                                <rect id="Rectangle" fill="#EA1821" fill-rule="nonzero" x="55.4537313" y="72.5044776" width="2.14925373" height="21.3492537"></rect>
                                <rect id="Rectangle" fill="#EA1821" fill-rule="nonzero" x="19.0597015" y="55.4537313" width="21.3492537" height="2.14925373"></rect>
                                <rect id="Rectangle" fill="#EA1821" fill-rule="nonzero" x="72.5044776" y="55.4537313" width="21.3492537" height="2.14925373"></rect>
                                <path d="M52.4447761,26.5104478 L52.158209,24.361194 C46.2835821,25.0776119 40.6955224,27.5134328 35.9671642,31.3820896 L37.2567164,33.1014925 C41.6985075,29.519403 47,27.2268657 52.4447761,26.5104478 Z" id="Path" fill="#EA1821" fill-rule="nonzero"></path>
                                <path d="M26.5104478,52.4447761 C27.2268657,47 29.519403,41.841791 32.958209,37.4 L31.238806,36.1104478 C27.5134328,40.6955224 25.0776119,46.2835821 24.2179104,52.158209 L26.5104478,52.4447761 Z" id="Path" fill="#EA1821" fill-rule="nonzero"></path>
                                <path d="M86.4029851,52.4447761 L88.5522388,52.158209 C86.5462687,37.6865672 75.2268657,26.3671642 60.7552239,24.5044776 L60.4686567,26.6537313 C73.9373134,28.3731343 84.5402985,38.9761194 86.4029851,52.4447761 Z" id="Path" fill="#EA1821" fill-rule="nonzero"></path>
                                <path d="M26.5104478,60.3253731 L24.361194,60.6119403 C26.2238806,75.0835821 37.6865672,86.6895522 52.158209,88.5522388 L52.4447761,86.4029851 C38.9761194,84.6835821 28.2298507,73.9373134 26.5104478,60.3253731 Z" id="Path" fill="#EA1821" fill-rule="nonzero"></path>
                                <path d="M60.4686567,86.4029851 L60.7552239,88.5522388 C75.2268657,86.6895522 86.6895522,75.2268657 88.5522388,60.6119403 L86.4029851,60.3253731 C84.6835821,73.9373134 73.9373134,84.6835821 60.4686567,86.4029851 Z" id="Path" fill="#EA1821" fill-rule="nonzero"></path>
                                <path d="M44.2776119,40.1223881 C47,38.1164179 50.2955224,36.6835821 53.7343284,36.2537313 L53.4477612,34.1044776 C49.7223881,34.5343284 45.9970149,36.1104478 42.9880597,38.4029851 L44.2776119,40.1223881 Z" id="Path" fill="#EA1821" fill-rule="nonzero"></path>
                                <path d="M36.2537313,53.7343284 C36.6835821,50.2955224 37.9731343,47.1432836 39.9791045,44.4208955 L38.2597015,43.1313433 C35.9671642,46.1402985 34.5343284,49.7223881 34.1044776,53.4477612 L36.2537313,53.7343284 Z" id="Path" fill="#EA1821" fill-rule="nonzero"></path>
                                <path d="M76.6597015,53.7343284 L78.8089552,53.4477612 C77.519403,43.4179104 69.4955224,35.3940299 59.4656716,34.1044776 L59.1791045,36.2537313 C68.2059701,37.4 75.5134328,44.5641791 76.6597015,53.7343284 Z" id="Path" fill="#EA1821" fill-rule="nonzero"></path>
                                <path d="M36.2537313,59.0358209 L34.1044776,59.3223881 C35.3940299,69.4955224 43.4179104,77.519403 53.4477612,78.8089552 L53.7343284,76.6597015 C44.5641791,75.5134328 37.4,68.2059701 36.2537313,59.0358209 Z" id="Path" fill="#EA1821" fill-rule="nonzero"></path>
                                <path d="M78.8089552,59.3223881 L76.6597015,59.0358209 C75.5134328,68.2059701 68.2059701,75.3701493 59.1791045,76.6597015 L59.4656716,78.8089552 C69.4955224,77.519403 77.519403,69.4955224 78.8089552,59.3223881 Z" id="Path" fill="#EA1821" fill-rule="nonzero"></path>
                                <polygon id="Path" fill="#FFFFFF" points="16.0507463 25.0776119 4.44477612 13.3283582 11.8955224 11.8955224 13.3283582 4.44477612 25.0776119 16.1940299 23.6447761 23.6447761"></polygon>
                                <path d="M55.7402985,57.1731343 L57.3164179,55.5970149 L25.6507463,24.0746269 L27.3701493,15.3343284 L12.038806,0.00298507463 L10.0328358,10.0328358 L0.146268657,12.038806 L15.4776119,27.3701493 L24.2179104,25.6507463 L55.7402985,57.1731343 Z M16.0507463,25.0776119 L4.44477612,13.3283582 L11.8955224,11.8955224 L13.3283582,4.44477612 L25.0776119,16.1940299 L23.6447761,23.6447761 L16.0507463,25.0776119 Z" id="Shape" fill="#EA1821" fill-rule="nonzero"></path>
                                <path d="M48.2895522,53.5910448 C48.0029851,54.4507463 47.7164179,55.4537313 47.7164179,56.4567164 C47.7164179,61.1850746 51.5850746,65.0537313 56.3134328,65.0537313 C61.041791,65.0537313 64.9104478,61.1850746 64.9104478,56.4567164 C64.9104478,51.7283582 61.041791,47.8597015 56.3134328,47.8597015 C55.3104478,47.8597015 54.3074627,48.0029851 53.4477612,48.4328358 L54.1641791,50.438806 C54.880597,50.1522388 55.5970149,50.0089552 56.3134328,50.0089552 C59.8955224,50.0089552 62.761194,52.8746269 62.761194,56.4567164 C62.761194,60.038806 59.8955224,62.9044776 56.3134328,62.9044776 C52.7313433,62.9044776 49.8656716,60.038806 49.8656716,56.4567164 C49.8656716,55.7402985 50.0089552,55.0238806 50.2955224,54.3074627 L48.2895522,53.5910448 Z" id="Path" fill="#EA1821" fill-rule="nonzero"></path>
                            </g>
                        </g>
                    </g>
                </g>
            </g>
        </g>
    </g>
</svg>