<?xml version="1.0" encoding="UTF-8"?>
<svg width="192px" height="192px" viewBox="0 0 192 192" version="1.1" xmlns="http://www.w3.org/2000/svg" xmlns:xlink="http://www.w3.org/1999/xlink">
    <!-- Generator: sketchtool 53.2 (72643) - https://sketchapp.com -->
    <title>1715EC5A-2E0B-4AEA-8B94-3EEF1D2E0748</title>
    <desc>Created with sketchtool.</desc>
    <g id="Page-1" stroke="none" stroke-width="1" fill="none" fill-rule="evenodd">
        <g id="TCG-LP" transform="translate(-480.000000, -920.000000)">
            <g id="Factoids" transform="translate(160.000000, 816.000000)">
                <g id="Group-11" transform="translate(0.000000, 104.000000)">
                    <g id="Group-7" transform="translate(288.000000, 0.000000)">
                        <g id="icon2" transform="translate(32.000000, 0.000000)">
                            <circle id="Oval" fill="#FFF5F5" fill-rule="nonzero" cx="96" cy="96" r="96"></circle>
                            <polygon id="Path" fill="#FFFFFF" points="48 54.2953846 48 138.036923 144 138.036923 144 54.2953846"></polygon>
                            <g id="Group" transform="translate(48.000000, 54.000000)" fill="#EA1821" fill-rule="nonzero">
                                <path d="M0,0.295384615 L0,84.0369231 L96,84.0369231 L96,0.295384615 L0,0.295384615 Z M93.7846154,2.51076923 L93.7846154,10.7815385 L2.21538462,10.7815385 L2.21538462,2.51076923 L93.7846154,2.51076923 Z M82.2646154,81.6738462 L82.2646154,51.5446154 L80.0492308,51.5446154 L80.0492308,81.6738462 L72.8123077,81.6738462 L72.8123077,57.1569231 L70.5969231,57.1569231 L70.5969231,81.8215385 L63.36,81.8215385 L63.36,64.5415385 L61.1446154,64.5415385 L61.1446154,81.6738462 L53.9076923,81.6738462 L53.9076923,75.1753846 L51.6923077,75.1753846 L51.6923077,81.6738462 L44.3076923,81.6738462 L44.3076923,68.5292308 L42.0923077,68.5292308 L42.0923077,81.6738462 L34.8553846,81.6738462 L34.8553846,61.44 L32.64,61.44 L32.64,81.6738462 L25.4030769,81.6738462 L25.4030769,65.7230769 L23.1876923,65.7230769 L23.1876923,81.8215385 L15.9507692,81.8215385 L15.9507692,71.4830769 L13.7353846,71.4830769 L13.7353846,81.8215385 L2.21538462,81.8215385 L2.21538462,12.9969231 L93.7846154,12.9969231 L93.7846154,81.8215385 L82.2646154,81.8215385 L82.2646154,81.6738462 Z" id="Shape"></path>
                                <rect id="Rectangle" x="87.8769231" y="5.61230769" width="2.21538462" height="2.21538462"></rect>
                                <rect id="Rectangle" x="82.1169231" y="5.61230769" width="2.21538462" height="2.21538462"></rect>
                                <rect id="Rectangle" x="76.2092308" y="5.61230769" width="2.21538462" height="2.21538462"></rect>
                                <path d="M57.7476923,23.4830769 C54.7938462,22.7446154 51.9876923,22.3015385 49.1815385,22.1538462 C48.7384615,22.1538462 48.4430769,22.1538462 48,22.1538462 C47.5569231,22.1538462 47.2615385,22.1538462 46.8184615,22.1538462 C44.0123077,22.3015385 41.2061538,22.5969231 38.2523077,23.4830769 C24.96,27.1753846 15.36,36.7753846 14.9169231,37.0707692 L14.1784615,37.8092308 L14.9169231,38.5476923 C15.0646154,38.6953846 20.2338462,43.8646154 28.0615385,48 C34.7076923,51.5446154 41.3538462,53.4646154 47.8523077,53.4646154 C47.8523077,53.4646154 48,53.4646154 48,53.4646154 C48,53.4646154 48.1476923,53.4646154 48.1476923,53.4646154 C54.4984615,53.4646154 61.1446154,51.5446154 67.9384615,48 C75.7661538,43.7169231 80.7876923,38.6953846 81.0830769,38.5476923 L81.8215385,37.8092308 L81.0830769,37.0707692 C80.64,36.6276923 71.04,27.0276923 57.7476923,23.4830769 Z M48.1476923,51.3969231 C48.1476923,51.3969231 48,51.3969231 48,51.3969231 C48,51.3969231 47.8523077,51.3969231 47.8523077,51.3969231 C40.4676923,51.2492308 34.4123077,45.1938462 34.4123077,37.8092308 C34.4123077,30.72 39.8769231,24.96 46.8184615,24.3692308 C47.5569231,24.3692308 48.4430769,24.3692308 49.1815385,24.3692308 C56.1230769,24.96 61.5876923,30.72 61.5876923,37.8092308 C61.5876923,45.1938462 55.5323077,51.2492308 48.1476923,51.3969231 Z M29.0953846,46.2276923 C23.3353846,43.1261538 19.0523077,39.4338462 17.28,37.9569231 C19.7907692,35.7415385 27.6184615,29.0953846 37.6615385,25.9938462 C34.2646154,28.9476923 32.1969231,33.2307692 32.1969231,37.9569231 C32.1969231,42.6830769 34.4123077,46.9661538 37.6615385,49.92 C34.8553846,48.8861538 32.0492308,47.7046154 29.0953846,46.2276923 Z M66.9046154,46.2276923 C63.9507692,47.8523077 61.1446154,49.0338462 58.1907692,49.92 C61.5876923,46.9661538 63.6553846,42.6830769 63.6553846,37.9569231 C63.6553846,33.2307692 61.44,28.9476923 58.1907692,25.9938462 C68.2338462,29.0953846 76.0615385,35.7415385 78.5723077,37.9569231 C76.9476923,39.4338462 72.6646154,43.1261538 66.9046154,46.2276923 Z" id="Shape"></path>
                                <path d="M48,33.0830769 C45.3415385,33.0830769 43.2738462,35.1507692 43.2738462,37.8092308 C43.2738462,40.4676923 45.3415385,42.5353846 48,42.5353846 C50.6584615,42.5353846 52.7261538,40.4676923 52.7261538,37.8092308 C52.7261538,35.1507692 50.6584615,33.0830769 48,33.0830769 Z M48,40.4676923 C46.5230769,40.4676923 45.4892308,39.2861538 45.4892308,37.9569231 C45.4892308,36.48 46.6707692,35.4461538 48,35.4461538 C49.4769231,35.4461538 50.5107692,36.6276923 50.5107692,37.9569231 C50.5107692,39.2861538 49.4769231,40.4676923 48,40.4676923 Z" id="Shape"></path>
                            </g>
                        </g>
                    </g>
                </g>
            </g>
        </g>
    </g>
</svg>