<?xml version="1.0" encoding="UTF-8"?>
<svg width="192px" height="192px" viewBox="0 0 192 192" version="1.1" xmlns="http://www.w3.org/2000/svg" xmlns:xlink="http://www.w3.org/1999/xlink">
    <!-- Generator: sketchtool 53.2 (72643) - https://sketchapp.com -->
    <title>957799C3-F6D2-4675-A5C4-89C66A65942E</title>
    <desc>Created with sketchtool.</desc>
    <g id="Page-1" stroke="none" stroke-width="1" fill="none" fill-rule="evenodd">
        <g id="TCG-LP" transform="translate(-768.000000, -920.000000)">
            <g id="Factoids" transform="translate(160.000000, 816.000000)">
                <g id="Group-11" transform="translate(0.000000, 104.000000)">
                    <g id="Group-8" transform="translate(576.000000, 0.000000)">
                        <g id="icon3" transform="translate(32.000000, 0.000000)">
                            <circle id="Oval" fill="#FFF5F5" fill-rule="nonzero" cx="96" cy="96" r="96"></circle>
                            <g id="Group" transform="translate(48.000000, 54.000000)">
                                <path d="M90.5353846,0.147692308 L5.46461538,0.147692308 C2.51076923,0.147692308 0,2.65846154 0,5.61230769 L0,73.5507692 C0,76.6523077 2.51076923,79.0153846 5.46461538,79.0153846 L58.0430769,79.0153846 C58.1907692,79.1630769 58.1907692,79.3107692 58.1907692,79.4584615 L56.1230769,82.7076923 L60.5538462,86.9907692 L63.5076923,84.9230769 C64.5415385,85.5138462 65.7230769,85.9569231 66.9046154,86.4 L67.6430769,89.9446154 L73.8461538,89.9446154 L74.4369231,86.4 C75.6184615,86.1046154 76.8,85.5138462 77.8338462,84.9230769 L80.9353846,86.9907692 L85.2184615,82.56 L83.1507692,79.6061538 C83.1507692,79.4584615 83.2984615,79.4584615 83.2984615,79.3107692 L90.3876923,79.3107692 C93.4892308,79.3107692 95.8523077,76.8 95.8523077,73.8461538 L95.8523077,5.90769231 C96,2.65846154 93.4892308,0.147692308 90.5353846,0.147692308 Z" id="Path" fill="#FFFFFF"></path>
                                <path d="M70.7446154,64.9846154 C68.8246154,64.9846154 66.9046154,65.7230769 65.5753846,67.2 C64.2461538,68.5292308 63.5076923,70.4492308 63.5076923,72.3692308 C63.5076923,76.3569231 66.7569231,79.6061538 70.8923077,79.6061538 L70.8923077,79.6061538 C74.88,79.6061538 78.1292308,76.2092308 78.1292308,72.2215385 C77.9815385,68.2338462 74.7323077,64.9846154 70.7446154,64.9846154 Z M70.7446154,77.3907692 L70.7446154,78.4246154 L70.7446154,77.3907692 C67.9384615,77.3907692 65.5753846,75.1753846 65.5753846,72.2215385 C65.5753846,70.8923077 66.1661538,69.5630769 67.0523077,68.5292308 C68.0861538,67.4953846 69.2676923,67.0523077 70.7446154,67.0523077 C73.5507692,67.0523077 75.9138462,69.2676923 75.9138462,72.2215385 C75.9138462,75.1753846 73.5507692,77.3907692 70.7446154,77.3907692 Z" id="Shape" fill="#EA1821" fill-rule="nonzero"></path>
                                <path d="M90.5353846,0.147692308 L5.46461538,0.147692308 C2.51076923,0.147692308 0,2.65846154 0,5.61230769 L0,73.5507692 C0,76.6523077 2.51076923,79.0153846 5.46461538,79.0153846 L58.0430769,79.0153846 C58.1907692,79.1630769 58.1907692,79.3107692 58.1907692,79.4584615 L56.1230769,82.7076923 L60.5538462,86.9907692 L63.5076923,84.9230769 C64.5415385,85.5138462 65.7230769,85.9569231 66.9046154,86.4 L67.6430769,89.9446154 L73.8461538,89.9446154 L74.4369231,86.4 C75.6184615,86.1046154 76.8,85.5138462 77.8338462,84.9230769 L80.9353846,86.9907692 L85.2184615,82.56 L83.1507692,79.6061538 C83.1507692,79.4584615 83.2984615,79.4584615 83.2984615,79.3107692 L90.3876923,79.3107692 C93.4892308,79.3107692 95.8523077,76.8 95.8523077,73.8461538 L95.8523077,5.90769231 C96,2.65846154 93.4892308,0.147692308 90.5353846,0.147692308 Z M5.46461538,2.36307692 L90.5353846,2.36307692 C92.3076923,2.36307692 93.7846154,3.84 93.7846154,5.61230769 L93.7846154,11.2246154 L2.21538462,11.2246154 L2.21538462,5.61230769 C2.21538462,3.84 3.69230769,2.36307692 5.46461538,2.36307692 Z M82.56,82.2646154 L80.7876923,84.0369231 L78.1292308,82.1169231 L77.5384615,82.56 C76.3569231,83.2984615 74.88,83.8892308 73.4030769,84.3323077 L72.6646154,84.48 L72.0738462,87.7292308 L69.5630769,87.7292308 L68.9723077,84.48 L68.2338462,84.3323077 C66.7569231,84.0369231 65.4276923,83.4461538 64.0984615,82.7076923 L63.5076923,82.2646154 L60.8492308,84.1846154 L59.0769231,82.4123077 L60.9969231,79.7538462 L60.5538462,79.1630769 C59.8153846,77.9815385 59.2246154,76.5046154 58.7815385,75.0276923 L58.6338462,74.2892308 L55.3846154,73.6984615 L55.3846154,71.1876923 L58.6338462,70.5969231 L58.7815385,69.8584615 C59.0769231,68.3815385 59.6676923,67.0523077 60.4061538,65.7230769 L60.8492308,65.1323077 L58.9292308,62.4738462 L60.7015385,60.7015385 L63.36,62.6215385 L63.9507692,62.1784615 C65.28,61.2923077 66.6092308,60.8492308 68.0861538,60.4061538 L68.8246154,60.2584615 L69.4153846,57.0092308 L71.9261538,57.0092308 L72.5169231,60.2584615 L73.2553846,60.4061538 C74.7323077,60.7015385 76.0615385,61.2923077 77.3907692,62.0307692 L77.9815385,62.4738462 L80.64,60.5538462 L82.4123077,62.3261538 L80.64,64.9846154 L81.0830769,65.5753846 C81.9692308,66.7569231 82.56,68.2338462 82.8553846,69.5630769 L83.0030769,70.3015385 L86.2523077,70.8923077 L86.2523077,73.4030769 L83.0030769,73.9938462 L82.7076923,74.88 C82.4123077,76.3569231 81.8215385,77.6861538 81.0830769,79.0153846 L80.64,79.6061538 L82.56,82.2646154 Z M90.5353846,76.9476923 L84.48,76.9476923 C84.6276923,76.6523077 84.7753846,76.3569231 84.7753846,76.0615385 L88.32,75.3230769 L88.32,69.12 L84.7753846,68.5292308 C84.48,67.3476923 83.8892308,66.1661538 83.2984615,65.1323077 L85.3661538,62.0307692 L80.9353846,57.6 L77.9815385,59.6676923 C76.9476923,59.0769231 75.7661538,58.6338462 74.5846154,58.1907692 L73.6984615,54.6461538 L67.4953846,54.6461538 L66.9046154,58.1907692 C65.7230769,58.4861538 64.5415385,59.0769231 63.5076923,59.6676923 L60.4061538,57.6 L55.9753846,62.0307692 L58.0430769,64.9846154 C57.4523077,66.0184615 57.0092308,67.2 56.5661538,68.3815385 L53.1692308,69.2676923 L53.1692308,75.4707692 L56.7138462,76.0615385 C56.8615385,76.3569231 56.8615385,76.6523077 57.0092308,76.8 L5.46461538,76.8 C3.69230769,76.8 2.21538462,75.3230769 2.21538462,73.5507692 L2.21538462,13.44 L93.7846154,13.44 L93.7846154,73.6984615 C93.7846154,75.4707692 92.3076923,76.9476923 90.5353846,76.9476923 Z" id="Shape" fill="#EA1821" fill-rule="nonzero"></path>
                                <rect id="Rectangle" fill="#EA1821" fill-rule="nonzero" x="85.0707692" y="6.05538462" width="2.21538462" height="2.21538462"></rect>
                                <rect id="Rectangle" fill="#EA1821" fill-rule="nonzero" x="74.7323077" y="6.05538462" width="2.21538462" height="2.21538462"></rect>
                                <rect id="Rectangle" fill="#EA1821" fill-rule="nonzero" x="79.9015385" y="6.05538462" width="2.21538462" height="2.21538462"></rect>
                                <path d="M19.9384615,30.4246154 C23.4830769,30.4246154 26.2892308,27.6184615 26.2892308,24.0738462 C26.2892308,20.5292308 23.3353846,17.7230769 19.9384615,17.7230769 C16.5415385,17.7230769 13.5876923,20.5292308 13.5876923,24.0738462 C13.5876923,27.6184615 16.3938462,30.4246154 19.9384615,30.4246154 Z M19.9384615,19.9384615 C22.3015385,19.9384615 24.0738462,21.8584615 24.0738462,24.0738462 C24.0738462,26.4369231 22.1538462,28.2092308 19.9384615,28.2092308 C17.7230769,28.2092308 15.8030769,26.2892308 15.8030769,24.0738462 C15.6553846,21.7107692 17.5753846,19.9384615 19.9384615,19.9384615 Z" id="Shape" fill="#EA1821" fill-rule="nonzero"></path>
                                <path d="M33.5261538,45.0461538 C33.3784615,41.3538462 32.9353846,38.4 32.9353846,37.9569231 C32.9353846,36.9230769 32.64,35.7415385 31.9015385,34.7076923 C31.3107692,33.5261538 30.1292308,32.64 28.8,32.1969231 L24.0738462,30.4246154 L20.0861538,37.9569231 L19.2,37.9569231 L15.2123077,30.4246154 L10.4861538,32.1969231 C9.15692308,32.64 8.12307692,33.5261538 7.38461538,34.7076923 C6.79384615,35.7415385 6.35076923,36.9230769 6.35076923,37.9569231 C6.35076923,38.4 5.90769231,41.3538462 5.76,45.0461538 L5.76,46.2276923 L33.5261538,46.2276923 L33.5261538,45.0461538 Z M28.8,44.0123077 L28.5046154,40.9107692 L26.2892308,41.0584615 L26.5846154,44.0123077 L12.8492308,44.0123077 L13.1446154,41.0584615 L10.9292308,40.9107692 L10.6338462,44.0123077 L8.12307692,44.0123077 C8.27076923,40.7630769 8.71384615,38.2523077 8.71384615,38.1046154 L8.71384615,37.9569231 C8.71384615,37.0707692 9.15692308,36.1846154 9.45230769,35.7415385 C9.89538462,35.0030769 10.4861538,34.4123077 11.3723077,34.1169231 L14.3261538,33.0830769 L18.0184615,40.0246154 L21.4153846,40.0246154 L25.1076923,33.0830769 L28.0615385,34.1169231 C28.9476923,34.4123077 29.5384615,35.0030769 29.9815385,35.7415385 C30.2769231,36.3323077 30.72,37.0707692 30.72,37.9569231 L30.72,38.1046154 C30.72,38.1046154 31.0153846,40.6153846 31.3107692,44.0123077 L28.8,44.0123077 Z" id="Shape" fill="#EA1821" fill-rule="nonzero"></path>
                                <path d="M38.2523077,37.8092308 L88.32,37.8092308 L88.32,20.9723077 L38.2523077,20.9723077 L38.2523077,37.8092308 Z M40.4676923,23.1876923 L86.1046154,23.1876923 L86.1046154,35.5938462 L40.4676923,35.5938462 L40.4676923,23.1876923 Z" id="Shape" fill="#EA1821" fill-rule="nonzero"></path>
                                <rect id="Rectangle" fill="#EA1821" fill-rule="nonzero" x="38.2523077" y="41.9446154" width="41.0584615" height="2.21538462"></rect>
                                <rect id="Rectangle" fill="#EA1821" fill-rule="nonzero" x="38.2523077" y="47.2615385" width="27.6184615" height="2.21538462"></rect>
                                <path d="M5.76,70.4492308 L25.5507692,70.4492308 L25.5507692,55.5323077 L5.76,55.5323077 L5.76,70.4492308 Z M7.97538462,57.7476923 L23.3353846,57.7476923 L23.3353846,68.2338462 L7.97538462,68.2338462 L7.97538462,57.7476923 Z" id="Shape" fill="#EA1821" fill-rule="nonzero"></path>
                                <path d="M29.2430769,70.4492308 L49.0338462,70.4492308 L49.0338462,55.5323077 L29.2430769,55.5323077 L29.2430769,70.4492308 Z M31.4584615,57.7476923 L46.8184615,57.7476923 L46.8184615,68.2338462 L31.4584615,68.2338462 L31.4584615,57.7476923 Z" id="Shape" fill="#EA1821" fill-rule="nonzero"></path>
                            </g>
                        </g>
                    </g>
                </g>
            </g>
        </g>
    </g>
</svg>