<?xml version="1.0" encoding="UTF-8"?>
<svg width="150px" height="48px" viewBox="0 0 150 48" version="1.1" xmlns="http://www.w3.org/2000/svg" xmlns:xlink="http://www.w3.org/1999/xlink">
    <!-- Generator: sketchtool 53.2 (72643) - https://sketchapp.com -->
    <title>9CBFB82D-299C-418C-8D57-CDA94A40EDC5</title>
    <desc>Created with sketchtool.</desc>
    <g id="Page-1" stroke="none" stroke-width="1" fill="none" fill-rule="evenodd">
        <g id="TCG-LP" transform="translate(-160.000000, -16.000000)">
            <g id="Header">
                <g id="logos/TO/h/light" transform="translate(160.000000, 16.000000)">
                    <g id="logo">
                        <g id="red" fill="#EA1821">
                            <path d="M44.7832363,12.3631525 C42.5762739,8.52878341 39.8212381,5.76520188 35.9990593,3.55172824 C32.1765471,1.33792019 28.4130428,0.326323611 23.9991181,0.326323611 C19.5855267,0.326323611 15.8220224,1.33792019 11.9995102,3.55172824 C8.17733142,5.76520188 5.42229561,8.52878341 3.21533323,12.3631525 C1.00837085,16.1975215 -9.76138828e-05,19.9726996 -9.76138828e-05,24.3999813 C-9.76138828e-05,28.8275974 1.00837085,32.6027755 3.21533323,36.4368102 L6.02470966,34.8098953 C4.25113868,31.7450085 3.22900172,28.1908768 3.2263347,24.3999813 C3.2263347,24.3946307 3.22566794,24.3889457 3.22566794,24.3835951 C3.22566794,20.5967126 4.24313761,17.0455906 6.0103744,13.9820414 C9.60552279,7.75027206 16.3200891,3.54537441 23.9991181,3.54537441 C31.6784804,3.54537441 38.3930467,7.75027206 41.9881951,13.9820414 C43.7554319,17.0455906 44.7729016,20.5967126 44.7729016,24.3835951 C44.7729016,24.3889457 44.7722348,24.3946307 44.7722348,24.3999813 C44.7692344,28.1908768 43.7474308,31.7450085 41.9738599,34.8098953 L44.7832363,36.4368102 C46.9901987,32.6027755 47.9986671,28.8275974 47.9986671,24.3999813 C47.9986671,19.9726996 46.9901987,16.1975215 44.7832363,12.3631525" id="Fill-1"></path>
                            <polygon id="Fill-4" points="22 36 26 36 26 21 22 21"></polygon>
                            <polygon id="Fill-6" points="12 15 13 19 21 19 26 19 35 19 36 15"></polygon>
                            <path d="M115.081529,25.4314062 C115.081529,27.1870521 115.413742,28.5086007 116.077842,29.3970312 C116.741941,30.2851354 117.734675,30.7293507 119.056041,30.7293507 C121.705933,30.7293507 123.030879,28.9635868 123.030879,25.4314062 C123.030879,21.8920451 121.713091,20.122691 119.077516,20.122691 C117.75615,20.122691 116.759837,20.5685382 116.088579,21.460559 C115.417321,22.3525799 115.081529,23.6760868 115.081529,25.4314062 M126.512766,25.4314062 C126.512766,28.0320729 125.869816,30.0308785 124.584241,31.4281493 C123.298666,32.8250937 121.456041,33.523566 119.056041,33.523566 C116.656367,33.523566 114.813742,32.8250937 113.528167,31.4281493 C112.242592,30.0308785 111.599642,28.0248924 111.599642,25.4098646 C111.599642,22.7948368 112.244219,20.7979896 113.533373,19.4186701 C114.822527,18.0396771 116.670683,17.3500174 119.077516,17.3500174 C121.484349,17.3500174 123.325347,18.0448993 124.600184,19.4346632 C125.875022,20.8247535 126.512766,22.823559 126.512766,25.4314062" id="Fill-7"></path>
                            <polygon id="Fill-8" points="132.587668 33.3086389 129.320206 33.3086389 129.320206 17.5972569 138.297755 17.5972569 138.297755 20.3268472 132.587668 20.3268472 132.587668 24.3783125 137.901443 24.3783125 137.901443 27.0971319 132.587668 27.0971319"></polygon>
                            <polygon id="Fill-9" points="144.190477 33.3086389 140.923015 33.3086389 140.923015 17.5972569 149.900564 17.5972569 149.900564 20.3268472 144.190477 20.3268472 144.190477 24.3783125 149.504252 24.3783125 149.504252 27.0971319 144.190477 27.0971319"></polygon>
                            <polygon id="Fill-15" points="109.144588 15.6101361 109.144588 18.0299833 77.7106399 18.0299833 79.3472993 15.6101361"></polygon>
                        </g>
                        <g id="light" transform="translate(5.000000, 15.000000)" fill="#C0C5CF">
                            <polygon id="Fill-10" points="57.646898 3.03001597 53.1495011 3.03001597 53.1495011 0.61016875 73.0790022 0.61016875 71.4423427 3.03001597 60.5278091 3.03001597 60.5278091 18.0190993 57.646898 18.0190993"></polygon>
                            <path d="M65.0479501,6.32605417 L67.8745228,6.3103875 L67.8680152,8.07451944 C67.8680152,8.07451944 67.8846095,6.31822083 70.763243,6.31822083 C71.0443709,6.31822083 71.2080369,6.34172083 71.4423102,6.38872083 L71.4423102,9.11406806 C71.2080369,9.06706806 70.9506616,9.02006806 70.5992516,9.02006806 C69.217039,9.02006806 67.9291866,10.5113389 67.9291866,12.0982417 L67.9291866,18.0192625 L65.0479501,18.0192625 L65.0479501,6.32605417 Z" id="Fill-11"></path>
                            <path d="M78.6325813,12.4271111 C76.5947289,12.3801111 74.6505857,12.8262847 74.6505857,14.5652847 C74.6505857,15.6929583 75.376833,16.2099583 76.2901735,16.2099583 C77.4381128,16.2099583 78.2811714,15.4582847 78.538872,14.6357847 C78.609154,14.4239583 78.6325813,14.1892847 78.6325813,14.0012847 L78.6325813,12.4271111 Z M79.0074187,18.0191319 L78.82,16.7504583 L78.749718,16.7504583 C78.046898,17.6431319 76.8524295,18.2776319 75.376833,18.2776319 C73.0812798,18.2776319 71.793102,16.6094583 71.793102,14.8704583 C71.793102,11.9806111 74.3460304,10.5239375 78.5622993,10.5474375 L78.5622993,10.3594375 C78.5622993,9.60776389 78.257744,8.36226389 76.2433189,8.36226389 C75.1191323,8.36226389 73.9477657,8.71476389 73.1749892,9.2079375 L72.6127332,7.32859028 C73.4561171,6.81159028 74.9317137,6.31809028 76.7352928,6.31809028 C80.3893059,6.31809028 81.4432104,8.64426389 81.4432104,11.1349375 L81.4432104,15.2702847 C81.4432104,16.3039583 81.4900651,17.3144583 81.6072017,18.0191319 L79.0074187,18.0191319 Z" id="Fill-12"></path>
                            <path d="M92.2872668,17.6667625 C91.6781562,17.9487625 90.484013,18.2539361 89.0549458,18.2539361 C85.4946421,18.2539361 83.1756616,15.9750889 83.1756616,12.4272417 C83.1756616,8.99689444 85.5180694,6.31822083 89.523167,6.31822083 C90.5777223,6.31822083 91.6547289,6.55289444 92.3106941,6.85872083 L91.7956182,9.02006806 C91.3270716,8.80889444 90.647679,8.57389444 89.6168764,8.57389444 C87.4150325,8.57389444 86.1034273,10.1950681 86.12718,12.2862417 C86.12718,14.6355889 87.6496312,15.9750889 89.6168764,15.9750889 C90.6242516,15.9750889 91.3270716,15.7635889 91.8893275,15.5285889 L92.2872668,17.6667625 Z" id="Fill-13"></path>
                            <polygon id="Fill-14" points="96.7130477 10.9566312 100.648189 6.31831875 104.115108 6.31831875 99.6876681 11.2523396 104.513048 18.019034 100.976171 18.019034 97.8691215 13.2952076 96.7130477 14.5322215 96.7130477 18.019034 93.8321367 18.019034 93.8321367 6.31831875 96.7130477 6.31831875"></polygon>
                            <path d="M18.9992181,30.7223973 C12.3443264,30.7223973 6.07481966,27.545148 2.07595051,22.2861834 L0.180363189,23.5529364 C2.06261539,26.1302504 4.31758421,28.1166583 7.24931037,29.8144685 C11.0208157,31.9985138 14.6446346,32.9726562 18.9992181,32.9726562 C23.3538016,32.9726562 26.9776205,31.9985138 30.7491258,29.8144685 C33.6805186,28.1166583 35.9361542,26.129916 37.818073,23.552602 L35.922819,22.2861834 C31.9236165,27.545148 25.6541098,30.7223973 18.9992181,30.7223973" id="Fill-16"></path>
                        </g>
                    </g>
                </g>
            </g>
        </g>
    </g>
</svg>