<?xml version="1.0" encoding="UTF-8"?>
<svg width="285px" height="26px" viewBox="0 0 285 26" version="1.1" xmlns="http://www.w3.org/2000/svg" xmlns:xlink="http://www.w3.org/1999/xlink">
    <!-- Generator: sketchtool 53.2 (72643) - https://sketchapp.com -->
    <title>1CF62702-6318-466F-BA78-5D84C9D29AE8</title>
    <desc>Created with sketchtool.</desc>
    <g id="Page-1" stroke="none" stroke-width="1" fill="none" fill-rule="evenodd">
        <g id="TCG-LP" transform="translate(-596.000000, -3668.000000)" fill="#FFFFFF" fill-rule="nonzero">
            <g id="Featured-in" transform="translate(182.000000, 3503.000000)">
                <g id="logos" transform="translate(0.000000, 78.000000)">
                    <g id="logos-row-2" transform="translate(0.000000, 68.000000)">
                        <g id="logo_si" transform="translate(414.000000, 19.000000)">
                            <path d="M13.46,0 C8.2114309,0.00123789276 3.52262823,3.28113211 1.72177354,8.21108155 C-0.0790811464,13.141031 1.39160826,18.6709179 5.40358456,22.0549281 C9.41556086,25.4389384 15.1142418,25.9562513 19.67,23.35 C21.67,24.35 22.74,24.73 25.16,26 C24.42,23.56 24.16,22.1 23.62,19.94 C25.126329,17.7584013 25.9352938,15.1711088 25.94,12.52 C25.9400352,5.62098583 20.358979,0.0220415787 13.46,0 Z M13.46,22.5 C7.9371525,22.5 3.46,18.0228475 3.46,12.5 C3.46,6.9771525 7.9371525,2.5 13.46,2.5 C18.9828475,2.5 23.46,6.9771525 23.46,12.5 C23.4655552,18.0111658 19.0111245,22.4879581 13.5,22.51 L13.46,22.5 Z" id="Shape"></path>
                            <circle id="Oval" cx="13.5" cy="12.42" r="3.1"></circle>
                            <path d="M44.65,16.36 C43.4623233,15.7927104 42.2096764,15.3729225 40.92,15.11 C39.7065373,14.8965182 38.5434016,14.4590706 37.49,13.82 C36.8603378,13.3537751 36.5071476,12.6023067 36.55,11.82 C36.537686,10.9553619 36.9627016,10.1429427 37.68,9.66 C38.5644308,9.06727986 39.6166864,8.77615579 40.68,8.83 C41.8204557,8.78715243 42.9405686,9.14050036 43.85,9.83 C44.6489308,10.4110849 45.1181786,11.342132 45.11,12.33 L47,12.33 C47.0476046,10.8905153 46.4093575,9.51383113 45.28,8.62 C43.9667695,7.62579248 42.3450086,7.12651675 40.7,7.21 C39.1485807,7.14500121 37.6213212,7.61058612 36.37,8.53 C35.2977417,9.30286431 34.6675684,10.5482956 34.68,11.87 C34.6672376,12.6248308 34.8795994,13.3663567 35.29,14 C35.7678741,14.6592234 36.4088067,15.1829962 37.15,15.52 C38.2777055,16.0307196 39.4629486,16.4034164 40.68,16.63 C41.8976847,16.8403123 43.0566812,17.3073197 44.08,18 C44.8136425,18.5237261 45.237539,19.3790217 45.21,20.28 C45.2112404,21.1699616 44.7589195,21.9992165 44.01,22.48 C43.0594853,23.093305 41.9395693,23.3907827 40.81,23.33 C39.6080351,23.3892835 38.4180679,23.0672924 37.41,22.41 C36.5632379,21.8216188 36.0413013,20.8702877 36,19.84 L34.15,19.84 C34.1342555,21.2883779 34.824424,22.6537923 36,23.5 C37.3801665,24.5216345 39.0635774,25.0499016 40.78,25 C42.4009309,25.0741215 44.0018321,24.6177242 45.34,23.7 C46.467694,22.9140162 47.1251518,21.6141283 47.09,20.24 C47.1147783,19.4442625 46.9062115,18.6586606 46.49,17.98 C46.0261962,17.2907435 45.3924491,16.7327705 44.65,16.36 L44.65,16.36 Z" id="Shape"></path>
                            <path d="M58,7.22 C55.1488863,7.16409819 52.5349258,8.80076712 51.34,11.39 C50.6698305,12.7734652 50.3276355,14.2928109 50.34,15.83 L50.27,16.27 C50.1566924,18.5743993 50.9133574,20.837256 52.39,22.61 C53.7719796,24.1913918 55.7909661,25.0687331 57.89,25 C59.298054,25.0317876 60.6858705,24.6605467 61.89,23.93 C63.0648319,23.192909 63.9995602,22.1296122 64.58,20.87 C65.2477546,19.4785823 65.5897411,17.9533226 65.58,16.41 L65.58,16 C65.7205712,13.6821118 64.9813311,11.3965385 63.51,9.6 C62.123877,8.01955646 60.1008624,7.14573167 58,7.22 Z M62.14,21.35 C61.1200627,22.5957299 59.5950047,23.3181071 57.985,23.3181071 C56.3749953,23.3181071 54.8499373,22.5957299 53.83,21.35 C52.7355491,19.9184923 52.1733983,18.1507224 52.24,16.35 L52.24,16 C52.1793697,14.1333993 52.7737034,12.3044079 53.92,10.83 C54.8947188,9.54312956 56.4259364,8.79982004 58.04,8.83 C59.1075724,8.81225313 60.1548213,9.12293697 61.04,9.72 C61.9294556,10.3561804 62.6224198,11.2293153 63.04,12.24 C63.5195501,13.3611978 63.7580407,14.5706857 63.74,15.79 L63.74,16.15 C63.8248204,18.0194589 63.251578,19.859496 62.12,21.35 L62.14,21.35 Z" id="Shape"></path>
                            <path d="M76.21,1.66 C76.7888052,1.65557126 77.366117,1.71934407 77.93,1.85 L78.07,0.28 C77.4190755,0.0977099329 76.7459603,0.00683938651 76.07,0.01 C74.675235,-0.0582442062 73.3178339,0.473070969 72.34,1.47 C71.3954112,2.58079672 70.9186235,4.01474482 71.01,5.47 L71.01,7.54 L68.18,7.54 L68.18,9.09 L71,9.09 L71,24.63 L73,24.63 L73,9.09 L77,9.09 L77,7.54 L73,7.54 L73,5.42 C72.9070334,4.43648027 73.181313,3.45334826 73.77,2.66 C74.3931311,1.97893403 75.2881258,1.61213291 76.21,1.66 L76.21,1.66 Z" id="Shape"></path>
                            <path d="M85.13,23.31 C84.4799169,23.3697318 83.8415956,23.1084306 83.42,22.61 C83.0680029,21.9623664 82.9215086,21.222919 83,20.49 L83,9.09 L86.3,9.09 L86.3,7.54 L83,7.54 L83,3.16 L81,3.16 L81,7.54 L78,7.54 L78,9.09 L81,9.09 L81,20.5 C80.9218245,21.679151 81.2384776,22.8507673 81.9,23.83 C82.6035712,24.653824 83.6603021,25.0891674 84.74,25 C85.416948,25.0200153 86.0925925,24.9288033 86.74,24.73 L86.66,23.19 C86.1531537,23.2632424 85.6420675,23.3033276 85.13,23.31 L85.13,23.31 Z" id="Shape"></path>
                            <polygon id="Shape" points="105.98 20.68 105.62 22.34 105.18 20.54 101.12 7.54 99.51 7.54 95.4 20.62 95.02 22.17 94.69 20.7 91.03 7.53 89.08 7.53 94.09 24.63 95.71 24.63 100.01 11.13 100.22 10.18 100.43 11.11 104.82 24.67 106.49 24.67 111.49 7.57 109.49 7.57"></polygon>
                            <path d="M127.32,20.75 L127.32,12.66 C127.37405,11.1406325 126.751392,9.67555494 125.62,8.66 C124.342354,7.64741577 122.737684,7.13861799 121.11,7.23 C119.431522,7.17586949 117.785707,7.7021064 116.45,8.72 C115.286286,9.52304739 114.57938,10.8364046 114.55,12.25 L116.45,12.25 C116.463636,11.2771136 116.948249,10.3712609 117.75,9.82 C118.694659,9.12469077 119.848023,8.77197991 121.02,8.82 C122.207291,8.72015508 123.387845,9.07789866 124.32,9.82 C125.093568,10.5726532 125.505337,11.622117 125.45,12.7 L125.45,14.7 L122,14.7 C119.955032,14.5713782 117.919911,15.0740497 116.17,16.14 C114.822978,17.0161308 114.033631,18.5341055 114.09,20.14 C114.055655,21.4679865 114.61244,22.742731 115.61,23.62 C116.719936,24.5698824 118.150774,25.0599443 119.61,24.99 C120.734518,24.9953212 121.846791,24.7564896 122.87,24.29 C123.869595,23.844573 124.742528,23.1572239 125.41,22.29 C125.421995,23.0992293 125.543086,23.9031434 125.77,24.68 L127.82,24.68 L127.82,24.49 C127.417512,23.2863576 127.247825,22.0171001 127.32,20.75 L127.32,20.75 Z M125.41,19.9 C124.958085,20.9218404 124.199784,21.7779863 123.24,22.35 C122.218986,22.9693237 121.044027,23.2881915 119.85,23.27 L119.85,23.27 C118.829676,23.303635 117.835104,22.9458753 117.07,22.27 C116.381419,21.6806227 115.989549,20.8163111 116,19.91 C115.984903,18.7656916 116.599481,17.7055454 117.6,17.15 C118.955159,16.4213987 120.483187,16.0756911 122.02,16.15 L125.41,16.15 L125.41,19.9 Z" id="Shape"></path>
                            <path d="M134,10.26 L134,7.54 L132,7.54 L132,24.63 L134,24.63 L134,12.9 C134.219373,11.7816759 134.79469,10.7643458 135.64,10 C136.491236,9.3241516 137.553502,8.9700627 138.64,9 C139.070037,9.00763501 139.49848,9.05449597 139.92,9.14 L139.92,7.46 C139.522167,7.30493321 139.096665,7.23344879 138.67,7.25 C136.637554,7.17984835 134.775504,8.3800133 134,10.26 L134,10.26 Z" id="Shape"></path>
                            <path d="M149.37,7.22 C148.051207,7.21677898 146.761968,7.61051962 145.67,8.35 C144.51739,9.12160991 143.597585,10.1935625 143.01,11.45 C142.341866,12.8341761 141.999779,14.3530414 142.01,15.89 L142.01,16.57 C141.993326,18.066023 142.336282,19.5441607 143.01,20.88 C143.621951,22.1185161 144.57188,23.1585844 145.75,23.88 C146.93744,24.5980759 148.30245,24.9687767 149.69,24.95 C152.095139,25.0761543 154.392011,23.9390889 155.75,21.95 L154.56,21.05 C154.013324,21.8022898 153.297383,22.4154642 152.47,22.84 C151.629293,23.2222299 150.713298,23.4102141 149.79,23.39 C148.170243,23.4176735 146.626778,22.7030383 145.6,21.45 C144.464972,20.0981214 143.870136,18.3741657 143.93,16.61 L143.93,16.25 L156.13,16.25 L156.13,15.25 C156.250241,13.1564255 155.603183,11.0908152 154.31,9.44 C153.093467,7.97821871 151.270803,7.15912659 149.37,7.22 Z M154.23,14.59 L144,14.59 C144.124566,13.0346005 144.74899,11.5612397 145.78,10.39 C146.695273,9.37601726 148.004216,8.80722864 149.37,8.83 L149.37,8.83 C150.702835,8.78884628 151.98122,9.35988262 152.84,10.38 C153.760377,11.5090647 154.258916,12.9233593 154.25,14.38 L154.23,14.59 Z" id="Shape"></path>
                            <path d="M159.89,22.17 C159.515411,22.1458293 159.149318,22.2886055 158.89,22.56 C158.652403,22.8146441 158.523284,23.1517894 158.53,23.5 C158.518971,23.8400693 158.649301,24.1695155 158.89,24.41 C159.158817,24.6637593 159.521121,24.7941887 159.89,24.77 C160.258365,24.7906076 160.619296,24.6606726 160.89,24.41 C161.131732,24.1701955 161.262248,23.8402801 161.25,23.5 C161.258867,23.1514163 161.129447,22.8134846 160.89,22.56 C160.628399,22.2920346 160.263947,22.1498984 159.89,22.17 L159.89,22.17 Z" id="Shape"></path>
                            <path d="M168,1.33 C167.627951,1.29640679 167.260583,1.43233277 167,1.7 C166.769381,1.94221276 166.643612,2.26561788 166.65,2.6 C166.6393,2.95258182 166.781731,3.29253712 167.040561,3.53219432 C167.299391,3.77185152 167.649282,3.88774981 168,3.85 C168.369754,3.88060032 168.734594,3.74925791 169,3.49 C169.23659,3.25500061 169.366676,2.9333992 169.36,2.6 C169.367064,2.24504906 169.222861,1.90383847 168.963385,1.66153304 C168.703908,1.41922761 168.353638,1.29868785 168,1.33 L168,1.33 Z" id="Shape"></path>
                            <rect id="Rectangle-path" x="167.03" y="7.54" width="2" height="17.06"></rect>
                            <path d="M182.48,7.18 C181.365798,7.16449566 180.26777,7.4476349 179.3,8 C178.329622,8.60259456 177.536073,9.45134776 177,10.46 L176.9,7.54 L175.02,7.54 L175.02,24.63 L177.02,24.63 L177.02,13 C177.344416,11.8397004 177.99728,10.797896 178.9,10 C179.770658,9.27813721 180.869073,8.88837737 182,8.9 C183.112873,8.80936335 184.209493,9.21145719 185,10 C185.717387,10.9793399 186.071003,12.1780965 186,13.39 L186,24.63 L187.9,24.63 L187.9,13.38 C188.014606,11.7175308 187.53237,10.0687086 186.54,8.73 C185.483165,7.63731 183.996141,7.06960409 182.48,7.18 L182.48,7.18 Z" id="Shape"></path>
                            <path d="M195.36,1.47 C194.415411,2.58079672 193.938623,4.01474482 194.03,5.47 L194.03,7.54 L191.2,7.54 L191.2,9.09 L194,9.09 L194,24.63 L196,24.63 L196,9.09 L200,9.09 L200,7.54 L196,7.54 L196,5.42 C195.907033,4.43648027 196.181313,3.45334826 196.77,2.66 C197.390859,1.98170533 198.281556,1.61516319 199.2,1.66 C199.778805,1.65557126 200.356117,1.71934407 200.92,1.85 L201.1,0.28 C200.449076,0.0977099329 199.77596,0.00683938651 199.1,0.01 C197.701815,-0.0611475903 196.340191,0.470395552 195.36,1.47 Z" id="Shape"></path>
                            <path d="M209.85,7.22 C206.998886,7.16409819 204.384926,8.80076712 203.19,11.39 C202.51983,12.7734652 202.177635,14.2928109 202.19,15.83 L202.12,16.27 C202.006692,18.5743993 202.763357,20.837256 204.24,22.61 C205.626462,24.1969235 207.654055,25.0748124 209.76,25 C211.168054,25.0317876 212.55587,24.6605467 213.76,23.93 C214.934832,23.192909 215.86956,22.1296122 216.45,20.87 C217.117755,19.4785823 217.459741,17.9533226 217.45,16.41 L217.45,16 C217.590571,13.6821118 216.851331,11.3965385 215.38,9.6 C213.989394,8.01401277 211.957767,7.13964153 209.85,7.22 L209.85,7.22 Z M214,21.35 C212.980063,22.5957299 211.455005,23.3181071 209.845,23.3181071 C208.234995,23.3181071 206.709937,22.5957299 205.69,21.35 C204.595549,19.9184923 204.033398,18.1507224 204.1,16.35 L204.1,16.01 C204.032756,14.1285799 204.631186,12.2837163 205.79,10.8 C206.764719,9.51312956 208.295936,8.76982004 209.91,8.8 C210.977572,8.78225313 212.024821,9.09293697 212.91,9.69 C213.799456,10.3261804 214.49242,11.1993153 214.91,12.21 C215.405382,13.3412895 215.654232,14.5650843 215.64,15.8 L215.64,16.16 C215.716745,18.0285082 215.136472,19.864859 214,21.35 L214,21.35 Z" id="Shape"></path>
                            <path d="M223,10.26 L222.9,7.54 L221,7.54 L221,24.63 L223,24.63 L223,12.9 C223.224794,11.7791157 223.80731,10.761468 224.66,10 C225.511236,9.3241516 226.573502,8.9700627 227.66,9 C228.090037,9.00763501 228.51848,9.05449597 228.94,9.14 L228.94,7.46 C228.542167,7.30493321 228.116665,7.23344879 227.69,7.25 C225.650356,7.17133135 223.778064,8.37295161 223,10.26 L223,10.26 Z" id="Shape"></path>
                            <path d="M250.42,7.22 C249.237616,7.2070203 248.072397,7.5034963 247.04,8.08 C246.006543,8.66340746 245.15502,9.52185298 244.58,10.56 C243.826667,8.34666667 242.116667,7.24 239.45,7.24 C238.348434,7.22472833 237.26106,7.48968968 236.29,8.01 C235.330107,8.55651588 234.538148,9.35539068 234,10.32 L233.9,7.54 L232.01,7.54 L232.01,24.63 L234.01,24.63 L234.01,12.87 C234.287783,11.7112697 234.912203,10.664755 235.8,9.87 C236.6733,9.1921414 237.754937,8.83866537 238.86,8.87 C240.011823,8.77360464 241.151166,9.16548061 242,9.95 C242.736298,10.8774432 243.093641,12.0495265 243,13.23 L243,24.63 L245,24.63 L245,13.32 C245.067412,12.1167491 245.606358,10.9885551 246.5,10.18 C247.451936,9.3037271 248.706489,8.83058119 250,8.86 C251.166217,8.76084428 252.317354,9.17744614 253.15,10 C253.843661,10.9907643 254.162642,12.1958026 254.05,13.4 L254.05,24.63 L256.05,24.63 L256.05,13.22 C255.97,9.22 254.093333,7.22 250.42,7.22 Z" id="Shape"></path>
                            <path d="M266.89,7.22 C265.571207,7.21677898 264.281968,7.61051962 263.19,8.35 C262.03739,9.12160991 261.117585,10.1935625 260.53,11.45 C259.861866,12.8341761 259.519779,14.3530414 259.53,15.89 L259.53,16.57 C259.513326,18.066023 259.856282,19.5441607 260.53,20.88 C261.141951,22.1185161 262.09188,23.1585844 263.27,23.88 C264.45744,24.5980759 265.82245,24.9687767 267.21,24.95 C269.594229,25.0549161 271.863395,23.920333 273.21,21.95 L272,21 C271.443182,21.7607892 270.712993,22.3778508 269.87,22.8 C269.029293,23.1822299 268.113298,23.3702141 267.19,23.35 C265.571921,23.3801176 264.028752,22.6693024 263,21.42 C261.887788,20.0554297 261.318083,18.3285097 261.4,16.57 L261.4,16.21 L273.6,16.21 L273.6,15.21 C273.720241,13.1164255 273.073183,11.0508152 271.78,9.4 C270.566608,7.96714329 268.766792,7.16477143 266.89,7.22 Z M271.75,14.59 L261.49,14.59 C261.614566,13.0346005 262.23899,11.5612397 263.27,10.39 C264.185273,9.37601726 265.494216,8.80722864 266.86,8.83 L266.86,8.83 C268.192835,8.78884628 269.47122,9.35988262 270.33,10.38 C271.250377,11.5090647 271.748916,12.9233593 271.74,14.38 L271.75,14.59 Z" id="Shape"></path>
                            <path d="M283.75,7.26 C281.709236,7.17544712 279.832541,8.3733376 279.05,10.26 L278.95,7.54 L277,7.54 L277,24.63 L279,24.63 L279,12.9 C279.2275,11.7778293 279.813617,10.7600213 280.67,10 C281.521236,9.3241516 282.583502,8.9700627 283.67,9 C284.100037,9.00763501 284.52848,9.05449597 284.95,9.14 L284.95,7.46 C284.567067,7.31498564 284.159266,7.24701884 283.75,7.26 Z" id="Shape"></path>
                        </g>
                    </g>
                </g>
            </g>
        </g>
    </g>
</svg>