<?xml version="1.0" encoding="UTF-8"?>
<svg width="158px" height="27px" viewBox="0 0 158 27" version="1.1" xmlns="http://www.w3.org/2000/svg" xmlns:xlink="http://www.w3.org/1999/xlink">
    <!-- Generator: sketchtool 53.2 (72643) - https://sketchapp.com -->
    <title>1C77A972-A08D-43BA-B6ED-102E0D0A7211</title>
    <desc>Created with sketchtool.</desc>
    <g id="Page-1" stroke="none" stroke-width="1" fill="none" fill-rule="evenodd">
        <g id="TCG-LP" transform="translate(-387.000000, -3666.000000)" fill="#FFFFFF" fill-rule="nonzero">
            <g id="Featured-in" transform="translate(182.000000, 3503.000000)">
                <g id="logos" transform="translate(0.000000, 78.000000)">
                    <g id="logos-row-2" transform="translate(0.000000, 68.000000)">
                        <g id="Mashable2" transform="translate(205.000000, 17.000000)">
                            <g id="g13734" transform="translate(14.500000, 13.444444) scale(-1, 1) rotate(-180.000000) translate(-14.500000, -13.444444) translate(0.000000, 0.444444)">
                                <polygon id="path13736" points="22.0657895 0.513333333 22.0657895 16.94 15.9078947 0.513333333 13.3421053 0.513333333 6.67105263 16.94 6.67105263 0.513333333 0.513157895 0.513333333 0.513157895 25.6666667 9.23684211 25.6666667 14.3684211 11.8066667 19.5 25.6666667 28.2236842 25.6666667 28.2236842 0.513333333"></polygon>
                            </g>
                            <g id="g13738" transform="translate(80.210526, 14.000000) scale(-1, 1) rotate(-180.000000) translate(-80.210526, -14.000000) translate(30.210526, 0.000000)">
                                <g id="Group" transform="translate(0.000000, 0.000000)">
                                    <g id="g13740">
                                        <g id="g13746" transform="translate(0.661296, 1.662067)">
                                            <path d="M11.8504155,0.511111111 L11.8504155,2.55555556 C10.8199446,1.02222222 8.75900277,0 6.18282548,0 C3.6066482,0 0,2.04444444 0,6.13333333 C0,10.2222222 3.6066482,11.7555556 6.18282548,11.7555556 C8.75900277,11.7555556 10.8199446,10.7333333 11.8504155,9.71111111 L11.8504155,11.7555556 C11.8504155,13.2888889 10.3047091,14.3111111 8.24376731,14.3111111 C6.18282548,14.3111111 4.63711911,13.8 3.09141274,12.2666667 L1.03047091,16.3555556 C3.6066482,18.4 6.69806094,18.9111111 9.27423823,18.9111111 C13.3961219,18.9111111 17.5180055,17.3777778 17.5180055,11.7555556 L17.5180055,0.511111111 L11.8504155,0.511111111 Z M11.8504155,5.11111111 L11.8504155,6.64444444 C11.3351801,7.66666667 10.3047091,8.17777778 8.75900277,8.17777778 C7.2132964,8.17777778 5.66759003,7.66666667 5.66759003,6.13333333 C5.66759003,4.6 7.2132964,4.08888889 8.75900277,4.08888889 C10.3047091,4.08888889 11.3351801,4.08888889 11.8504155,5.11111111 L11.8504155,5.11111111 Z" id="path13748"></path>
                                        </g>
                                        <g id="g13750" transform="translate(19.969219, 1.238467)">
                                            <path d="M0.756232687,3.28888889 L3.33240997,7.37777778 C4.87811634,6.35555556 7.45429363,4.82222222 9.51523546,4.82222222 C11.0609418,4.82222222 12.0914127,5.33333333 12.0914127,5.84444444 C12.0914127,7.88888889 1.27146814,5.84444444 1.27146814,13 C1.27146814,16.0666667 3.84764543,19.1333333 9,19.1333333 C12.0914127,19.1333333 14.66759,18.1111111 16.7285319,16.5777778 L14.66759,13 C13.6371191,14.0222222 11.5761773,15.0444444 9.51523546,15.0444444 C7.96952909,15.0444444 7.45429363,14.5333333 7.45429363,14.0222222 C7.45429363,11.9777778 17.7590028,14.0222222 17.7590028,6.86666667 C17.7590028,2.77777778 14.66759,0.733333333 9.51523546,0.733333333 C6.42382271,0.733333333 2.81717452,1.75555556 0.756232687,3.28888889" id="path13752"></path>
                                        </g>
                                        <g id="g13754" transform="translate(38.543917, 1.662067)">
                                            <path d="M13.0554017,0.511111111 L13.0554017,11.2444444 C13.0554017,13.2888889 12.0249307,14.3111111 9.96398892,14.3111111 C8.41828255,14.3111111 7.38781163,13.2888889 6.35734072,12.7777778 L6.35734072,1.02222222 L0.689750693,1.02222222 L0.689750693,25.5555556 L6.35734072,25.5555556 L6.35734072,16.3555556 C7.38781163,17.3777778 9.44875346,18.9111111 12.5401662,18.9111111 C16.6620499,18.9111111 18.7229917,16.3555556 18.7229917,13.2888889 L18.7229917,0.511111111 L13.0554017,0.511111111 Z" id="path13756"></path>
                                        </g>
                                        <g id="g13758" transform="translate(60.282953, 1.662067)">
                                            <path d="M11.8504155,0.511111111 L11.8504155,2.55555556 C10.8199446,1.02222222 8.75900277,0 6.18282548,0 C3.6066482,0 0,2.04444444 0,6.13333333 C0,10.2222222 3.6066482,11.7555556 6.18282548,11.7555556 C8.75900277,11.7555556 10.8199446,10.7333333 11.8504155,9.71111111 L11.8504155,11.7555556 C11.8504155,13.2888889 10.3047091,14.3111111 8.24376731,14.3111111 C6.18282548,14.3111111 4.63711911,13.8 3.09141274,12.2666667 L1.03047091,16.3555556 C3.6066482,18.4 6.69806094,18.9111111 9.27423823,18.9111111 C13.3961219,18.9111111 17.5180055,17.3777778 17.5180055,11.7555556 L17.5180055,0.511111111 L11.8504155,0.511111111 Z M11.8504155,5.11111111 L11.8504155,6.64444444 C11.3351801,7.66666667 10.3047091,8.17777778 8.75900277,8.17777778 C7.2132964,8.17777778 5.66759003,7.66666667 5.66759003,6.13333333 C5.66759003,4.6 7.2132964,4.08888889 8.75900277,4.08888889 C10.3047091,4.08888889 11.3351801,4.08888889 11.8504155,5.11111111 L11.8504155,5.11111111 Z" id="path13760"></path>
                                        </g>
                                        <g id="g13762" transform="translate(79.172648, 0.439844)">
                                            <path d="M0.756232687,1.73333333 L0.756232687,26.7777778 L6.42382271,26.7777778 L6.42382271,17.5777778 C7.96952909,19.6222222 10.0304709,20.1333333 11.5761773,20.1333333 C16.2132964,20.1333333 19.8199446,16.5555556 19.8199446,10.4222222 C19.8199446,4.28888889 16.2132964,0.711111111 11.5761773,0.711111111 C9.51523546,0.711111111 7.45429363,1.73333333 6.42382271,3.26666667 L6.42382271,1.22222222 L0.756232687,1.22222222 L0.756232687,1.73333333 Z M10.0304709,6.33333333 C12.0914127,6.33333333 14.1523546,7.86666667 14.1523546,10.9333333 C14.1523546,13.4888889 12.6066482,15.5333333 10.0304709,15.5333333 C9,15.5333333 7.45429363,15.0222222 6.42382271,14 L6.42382271,8.37777778 C7.45429363,6.84444444 9,6.33333333 10.0304709,6.33333333 L10.0304709,6.33333333 Z" id="path13764"></path>
                                        </g>
                                    </g>
                                </g>
                            </g>
                            <polygon id="path13766" points="130.947368 0.777777778 136.473684 0.777777778 136.473684 25.6666667 130.947368 25.6666667"></polygon>
                            <g id="g13776" transform="translate(148.263158, 17.222222) scale(-1, 1) rotate(-180.000000) translate(-148.263158, -17.222222) translate(138.263158, 7.222222)">
                                <path d="M0.75,10.0022222 C0.75,15.1355556 4.85526316,19.7555556 10.5,19.7555556 C15.6315789,19.7555556 19.7368421,15.6488889 19.7368421,9.48888889 L19.7368421,7.94888889 L6.90789474,7.94888889 C7.42105263,6.40888889 8.96052632,4.86888889 11.5263158,4.86888889 C12.5526316,4.86888889 15.1184211,5.38222222 16.1447368,6.40888889 L18.7105263,2.81555556 C16.6578947,1.27555556 14.0921053,0.248888889 11.0131579,0.248888889 C5.36842105,0.248888889 0.75,4.35555556 0.75,10.0022222 M10.5,14.6222222 C7.93421053,14.6222222 6.90789474,13.0822222 6.90789474,12.0555556 L14.6052632,12.0555556 C14.0921053,13.5955556 13.0657895,14.6222222 10.5,14.6222222" id="path13778"></path>
                            </g>
                        </g>
                    </g>
                </g>
            </g>
        </g>
    </g>
</svg>