<?xml version="1.0" encoding="UTF-8"?>
<svg width="150px" height="38px" viewBox="0 0 150 38" version="1.1" xmlns="http://www.w3.org/2000/svg" xmlns:xlink="http://www.w3.org/1999/xlink">
    <!-- Generator: sketchtool 53.2 (72643) - https://sketchapp.com -->
    <title>30D98A7F-A085-4542-83DC-EEBE4C2E94C1</title>
    <desc>Created with sketchtool.</desc>
    <g id="Page-1" stroke="none" stroke-width="1" fill="none" fill-rule="evenodd">
        <g id="TCG-LP" transform="translate(-182.000000, -3661.000000)" fill="#FFFFFF">
            <g id="Featured-in" transform="translate(182.000000, 3503.000000)">
                <g id="logos" transform="translate(0.000000, 78.000000)">
                    <g id="logos-row-2" transform="translate(0.000000, 68.000000)">
                        <g id="PC-mag-logo" transform="translate(0.000000, 12.000000)">
                            <path d="M0,0.136856511 L36.2407263,0.136856511 L36.2407263,37.3922401 L0,37.3922401 L0,0.136856511 Z M12.1015033,6.3647148 L6.46534557,6.3647148 L6.46534557,31.4003326 L10.2923663,31.4003326 L10.2923663,21.9940933 L12.1015033,21.9940933 C15.928524,21.9940933 17.8072433,19.8124181 17.8072433,15.8067192 L17.8072433,12.5520889 C17.8072433,8.54639007 15.928524,6.3647148 12.1015033,6.3647148 Z M27.2356306,22.0656237 L27.2356306,25.6421405 C27.2356306,27.4303989 26.4702265,28.0741719 25.2525381,28.0741719 C24.0348497,28.0741719 23.2694455,27.4303989 23.2694455,25.6421405 L23.2694455,12.1229069 C23.2694455,10.3346485 24.0348497,9.65511028 25.2525381,9.65511028 C26.4702265,9.65511028 27.2356306,10.3346485 27.2356306,12.1229069 L27.2356306,14.8052945 L30.8539047,14.8052945 L30.8539047,12.3732631 C30.8539047,8.36756423 28.9056033,6.07859346 25.1481648,6.07859346 C21.3907263,6.07859346 19.4424248,8.36756423 19.4424248,12.3732631 L19.4424248,25.3917843 C19.4424248,29.3974832 21.3907263,31.6864539 25.1481648,31.6864539 C28.9056033,31.6864539 30.8539047,29.3974832 30.8539047,25.3917843 L30.8539047,22.0656237 L27.2356306,22.0656237 Z" id="Combined-Shape"></path>
                            <path d="M12.1015033,9.94123163 L10.2923663,9.94123163 L10.2923663,18.4175765 L12.1015033,18.4175765 C13.3191917,18.4175765 13.9802226,17.8453338 13.9802226,16.0570754 L13.9802226,12.3017327 C13.9802226,10.5134743 13.3191917,9.94123163 12.1015033,9.94123163 Z" id="PC"></path>
                            <path d="M49.4439477,6.3647148 L44.1209098,6.3647148 L44.1209098,31.4003326 L47.4608551,31.4003326 L47.4608551,13.6965743 L50.3137251,31.4003326 L53.9319992,31.4003326 L56.5761226,13.4462181 L56.5761226,31.4003326 L60.1943967,31.4003326 L60.1943967,6.3647148 L54.8713588,6.3647148 L52.2620266,24.1400034 L49.4439477,6.3647148 Z M71.4667122,6.3647148 L75.3633151,31.4003326 L71.5015033,31.4003326 L70.8404725,26.8581562 L66.1436743,26.8581562 L65.4826435,31.4003326 L61.9687427,31.4003326 L65.8653456,6.3647148 L71.4667122,6.3647148 Z M68.4746779,10.7995957 L66.6307497,23.4604652 L70.318606,23.4604652 L68.4746779,10.7995957 Z M82.843401,21.0284338 L84.5829559,21.0284338 L84.5829559,25.6421405 C84.5829559,27.4303989 83.8175517,28.0741719 82.5998633,28.0741719 C81.3821749,28.0741719 80.6167708,27.4303989 80.6167708,25.6421405 L80.6167708,12.1229069 C80.6167708,10.3346485 81.3821749,9.65511028 82.5998633,9.65511028 C83.8175517,9.65511028 84.5829559,10.3346485 84.5829559,12.1229069 L84.5829559,14.8052945 L88.20123,14.8052945 L88.20123,12.3732631 C88.20123,8.36756423 86.2529285,6.07859346 82.49549,6.07859346 C78.7380515,6.07859346 76.7897501,8.36756423 76.7897501,12.3732631 L76.7897501,25.3917843 C76.7897501,29.3974832 78.7380515,31.6864539 82.49549,31.6864539 C86.2529285,31.6864539 88.20123,29.3974832 88.20123,25.3917843 L88.20123,17.451917 L82.843401,17.451917 L82.843401,21.0284338 Z M99.1256345,6.3647148 L103.022237,31.4003326 L99.1604256,31.4003326 L98.4993948,26.8581562 L93.8025966,26.8581562 L93.1415658,31.4003326 L89.627665,31.4003326 L93.5242679,6.3647148 L99.1256345,6.3647148 Z M96.1336002,10.7995957 L94.289672,23.4604652 L97.9775283,23.4604652 L96.1336002,10.7995957 Z M104.553046,6.3647148 L104.553046,9.94123163 L111.476474,9.94123163 L104.205135,27.8953461 L104.205135,31.4003326 L115.407868,31.4003326 L115.407868,27.8238158 L108.136529,27.8238158 L115.407868,9.86970129 L115.407868,6.3647148 L104.553046,6.3647148 Z M117.669289,31.4003326 L121.49631,31.4003326 L121.49631,6.3647148 L117.669289,6.3647148 L117.669289,31.4003326 Z M132.455506,31.4003326 L136.3869,31.4003326 L136.3869,6.3647148 L132.977372,6.3647148 L132.977372,21.3503203 L129.045978,6.3647148 L124.244807,6.3647148 L124.244807,31.4003326 L127.689125,31.4003326 L127.689125,13.2673923 L132.455506,31.4003326 Z M142.962417,9.94123163 L149.572725,9.94123163 L149.572725,6.3647148 L139.135396,6.3647148 L139.135396,31.4003326 L149.572725,31.4003326 L149.572725,27.8238158 L142.962417,27.8238158 L142.962417,20.4919563 L148.215873,20.4919563 L148.215873,16.9154394 L142.962417,16.9154394 L142.962417,9.94123163 Z" id="Magazine"></path>
                        </g>
                    </g>
                </g>
            </g>
        </g>
    </g>
</svg>