<?xml version="1.0" encoding="UTF-8"?>
<svg width="207px" height="52px" viewBox="0 0 207 52" version="1.1" xmlns="http://www.w3.org/2000/svg" xmlns:xlink="http://www.w3.org/1999/xlink">
    <!-- Generator: sketchtool 53.2 (72643) - https://sketchapp.com -->
    <title>A7194E41-2BD8-478C-9C12-CF9F97D42A85</title>
    <desc>Created with sketchtool.</desc>
    <g id="Page-1" stroke="none" stroke-width="1" fill="none" fill-rule="evenodd">
        <g id="TCG-LP" transform="translate(-617.000000, -3880.000000)">
            <g id="Reviews" transform="translate(0.000000, 3800.000000)">
                <g id="pc-mag" transform="translate(333.000000, 80.000000)">
                    <g id="PC-mag-logo-color" transform="translate(284.000000, 0.000000)">
                        <rect id="Rectangle-2" fill="#EA1821" x="0" y="0.188861985" width="50.0122023" height="51.4124294"></rect>
                        <path d="M16.7000746,8.78330643 C21.9813631,8.78330643 24.5739957,11.7940183 24.5739957,17.3218827 L24.5739957,21.8132725 C24.5739957,27.3411369 21.9813631,30.3518488 16.7000746,30.3518488 L14.2034654,30.3518488 L14.2034654,43.332459 L8.92217688,43.332459 L8.92217688,8.78330643 L16.7000746,8.78330643 Z M16.7000746,13.7188997 L14.2034654,13.7188997 L14.2034654,25.4162556 L16.7000746,25.4162556 C18.3804846,25.4162556 19.2927071,24.6265607 19.2927071,22.1587641 L19.2927071,16.9763912 C19.2927071,14.5085946 18.3804846,13.7188997 16.7000746,13.7188997 Z M37.5851702,30.4505607 L37.5851702,35.3861539 C37.5851702,37.8539505 36.5289125,38.7423573 34.8485025,38.7423573 C33.1680925,38.7423573 32.1118348,37.8539505 32.1118348,35.3861539 L32.1118348,16.7296115 C32.1118348,14.2618149 33.1680925,13.3240522 34.8485025,13.3240522 C36.5289125,13.3240522 37.5851702,14.2618149 37.5851702,16.7296115 L37.5851702,20.4313064 L42.5783885,20.4313064 L42.5783885,17.075103 C42.5783885,11.5472386 39.8897325,8.38845897 34.7044674,8.38845897 C29.5192023,8.38845897 26.8305463,11.5472386 26.8305463,17.075103 L26.8305463,35.0406624 C26.8305463,40.5685268 29.5192023,43.7273064 34.7044674,43.7273064 C39.8897325,43.7273064 42.5783885,40.5685268 42.5783885,35.0406624 L42.5783885,30.4505607 L37.5851702,30.4505607 Z" id="PC" fill="#FFFFFF"></path>
                        <path d="M68.2326478,8.78330643 L60.8868555,8.78330643 L60.8868555,43.332459 L65.4959801,43.332459 L65.4959801,18.9012725 L69.4329406,43.332459 L74.4261589,43.332459 L78.0750492,18.555781 L78.0750492,43.332459 L83.0682675,43.332459 L83.0682675,8.78330643 L75.7224752,8.78330643 L72.1215966,33.3132047 L68.2326478,8.78330643 Z M98.6240629,8.78330643 L104.001375,43.332459 L98.6720746,43.332459 L97.759852,37.0642556 L91.2782706,37.0642556 L90.366048,43.332459 L85.5168649,43.332459 L90.8941769,8.78330643 L98.6240629,8.78330643 Z M94.4950554,14.903442 L91.9504346,32.375442 L97.0396763,32.375442 L94.4950554,14.903442 Z M114.323893,29.0192386 L116.724479,29.0192386 L116.724479,35.3861539 C116.724479,37.8539505 115.668221,38.7423573 113.987811,38.7423573 C112.307401,38.7423573 111.251144,37.8539505 111.251144,35.3861539 L111.251144,16.7296115 C111.251144,14.2618149 112.307401,13.3240522 113.987811,13.3240522 C115.668221,13.3240522 116.724479,14.2618149 116.724479,16.7296115 L116.724479,20.4313064 L121.717697,20.4313064 L121.717697,17.075103 C121.717697,11.5472386 119.029041,8.38845897 113.843776,8.38845897 C108.658511,8.38845897 105.969855,11.5472386 105.969855,17.075103 L105.969855,35.0406624 C105.969855,40.5685268 108.658511,43.7273064 113.843776,43.7273064 C119.029041,43.7273064 121.717697,40.5685268 121.717697,35.0406624 L121.717697,24.0836454 L114.323893,24.0836454 L114.323893,29.0192386 Z M136.793376,8.78330643 L142.170688,43.332459 L136.841387,43.332459 L135.929165,37.0642556 L129.447583,37.0642556 L128.535361,43.332459 L123.686178,43.332459 L129.06349,8.78330643 L136.793376,8.78330643 Z M132.664368,14.903442 L130.119747,32.375442 L135.208989,32.375442 L132.664368,14.903442 Z M144.283203,8.78330643 L144.283203,13.7188997 L153.837534,13.7188997 L143.803086,38.4955776 L143.803086,43.332459 L159.262858,43.332459 L159.262858,38.3968658 L149.22841,38.3968658 L159.262858,13.6201878 L159.262858,8.78330643 L144.283203,8.78330643 Z M162.383619,43.332459 L167.664908,43.332459 L167.664908,8.78330643 L162.383619,8.78330643 L162.383619,43.332459 Z M182.788598,43.332459 L188.213922,43.332459 L188.213922,8.78330643 L183.508774,8.78330643 L183.508774,29.463442 L178.08345,8.78330643 L171.457833,8.78330643 L171.457833,43.332459 L176.210993,43.332459 L176.210993,18.3090013 L182.788598,43.332459 Z M197.288135,13.7188997 L206.410361,13.7188997 L206.410361,8.78330643 L192.006847,8.78330643 L192.006847,43.332459 L206.410361,43.332459 L206.410361,38.3968658 L197.288135,38.3968658 L197.288135,28.2788997 L204.537904,28.2788997 L204.537904,23.3433064 L197.288135,23.3433064 L197.288135,13.7188997 Z" id="Magazine" fill="#FFFFFF"></path>
                    </g>
                </g>
            </g>
        </g>
    </g>
</svg>