<?xml version="1.0" encoding="UTF-8"?>
<svg width="379px" height="32px" viewBox="0 0 379 32" version="1.1" xmlns="http://www.w3.org/2000/svg" xmlns:xlink="http://www.w3.org/1999/xlink">
    <!-- Generator: sketchtool 53.2 (72643) - https://sketchapp.com -->
    <title>A72DE32F-2D0F-440D-A2A5-A435DC78E101</title>
    <desc>Created with sketchtool.</desc>
    <g id="Page-1" stroke="none" stroke-width="1" fill="none" fill-rule="evenodd">
        <g id="TCG-LP" transform="translate(-239.000000, -3596.000000)" fill="#FFFFFF" fill-rule="nonzero">
            <g id="Featured-in" transform="translate(182.000000, 3503.000000)">
                <g id="logos" transform="translate(0.000000, 78.000000)">
                    <g id="logos-row-1" transform="translate(57.000000, 0.000000)">
                        <g id="WSJ_Logo" transform="translate(0.000000, 15.000000)">
                            <path d="M376.978413,27.6048478 C375.876108,27.6048478 374.956826,28.5208252 374.956826,29.7571283 C374.956826,30.9928393 375.876108,31.9088167 376.978413,31.9088167 C378.080719,31.9088167 379,30.9928393 379,29.7571283 C379,28.5208252 378.080719,27.6048478 376.978413,27.6048478 L376.978413,27.6048478 Z M303.834048,31.7708576 L313.114214,31.7708576 L313.114214,30.9472477 L312.104609,30.7181053 C311.185327,30.4889629 310.771146,29.9856786 310.771146,28.7031918 L310.771146,16.2519382 L312.931189,16.2519382 C314.263464,16.2519382 314.952776,16.5722639 315.044288,19.3651957 L315.274257,25.2246091 C315.457876,30.4889629 316.974363,31.9544084 319.547994,31.9544084 C322.166193,31.9544084 322.855505,30.1686372 322.855505,27.6510315 L322.855505,26.5976871 L321.889874,26.5976871 L321.889874,27.3757054 C321.889874,29.0702933 321.661093,30.2604126 321.016943,30.2604126 C320.420331,30.2604126 320.373981,29.80272 320.236118,27.6966232 L319.960987,23.6685725 C319.593156,18.2662596 318.903844,16.3893052 314.906426,15.6562864 C318.720225,14.6497178 321.063293,11.856786 321.063293,7.87373485 C321.063293,2.70056434 316.974363,0.228550282 313.069052,0.228550282 L297.402051,0.228550282 L297.402051,1.05275234 L298.274982,1.23571098 C299.928737,1.60222037 299.975088,2.47201406 299.975088,6.18033121 L299.975088,24.4004071 C299.975088,28.4752336 298.825837,30.4433713 296.20645,30.4433713 C293.864571,30.4433713 292.577458,29.2988436 292.577458,24.8580997 L292.577458,3.20444074 C292.577458,1.92254603 292.990451,1.55662874 294.001245,1.32748635 L295.242007,1.05275234 L295.242007,0.228550282 L285.640361,0.228550282 L285.640361,1.05275234 L286.649966,1.32748635 C287.569247,1.60222037 287.890728,1.96872976 287.890728,3.25003238 L287.890728,24.5377741 C287.890728,29.3444352 290.693734,32 294.966876,32 C299.239425,32 301.352524,29.3444352 301.352524,24.4004071 L301.352524,4.5319271 C301.352524,2.05991304 301.858812,1.19011934 303.87921,1.19011934 C305.487804,1.19011934 306.177711,1.73958738 306.177711,3.25003238 L306.177711,28.7031918 C306.177711,29.9856786 305.764123,30.4433713 304.844842,30.6725136 L303.834048,30.9472477 L303.834048,31.7708576 L303.834048,31.7708576 Z M365.491854,3.25003238 C365.491854,1.96872976 365.906036,1.55662874 366.824128,1.37307799 L368.064891,1.09834397 L368.064891,0.228550282 L358.508406,0.228550282 L358.508406,1.05275234 L359.5192,1.32748635 C360.438481,1.60222037 360.851474,1.96872976 360.851474,3.25003238 L360.851474,28.8873346 C360.851474,30.1230456 360.346969,30.8098807 358.921399,30.8098807 C357.267644,30.8098807 357.037675,30.2604126 356.441063,27.5598483 L350.560515,0.137367009 L348.721953,0.137367009 L343.117724,26.6894625 C342.473574,29.6647608 342.152093,30.352188 340.91133,30.7181053 L340.129912,30.9472477 L340.129912,31.7708576 L346.700366,31.7708576 L346.700366,30.9472477 L345.735923,30.7636969 C344.357298,30.4889629 343.990061,29.7571283 344.679373,26.2773615 L347.987479,9.29299658 L351.616471,27.2845222 C352.167921,29.8939032 352.122759,30.3977796 350.146334,30.7636969 L349.181891,30.9472477 L349.181891,31.7708576 L373.532445,31.7708576 L373.532445,21.3333333 L372.659514,21.3333333 C372.200171,26.1399944 371.235728,30.6725136 367.330416,30.6725136 L365.491854,30.6725136 L365.491854,3.25003238 L365.491854,3.25003238 Z M351.157127,23.2558794 L351.157127,22.0201684 L344.954504,22.0201684 L344.77148,23.2558794 L351.157127,23.2558794 Z M325.520054,3.79950042 L325.520054,25.6823018 C325.520054,28.9785179 325.520054,30.5351466 323.866299,30.8098807 L323.039124,30.9472477 L323.039124,31.7708576 L329.792603,31.7708576 L329.792603,30.9472477 C326.852329,30.5351466 326.852329,29.5279859 326.852329,25.9570358 L326.852329,5.17317051 L325.750023,4.16600981 L337.006613,31.7708576 L338.9355,31.7708576 L338.9355,6.31769821 C338.9355,2.56378943 338.9355,1.73958738 340.774062,1.23571098 L341.417024,1.05275234 L341.417024,0.228550282 L334.478738,0.228550282 L334.478738,1.05275234 L335.260157,1.23571098 C337.603225,1.64781201 337.603225,2.56378943 337.603225,6.0429642 L337.603225,21.9739846 L338.063163,21.8366176 L329.517472,0.228550282 L322.947017,0.228550282 L322.947017,1.05275234 L323.589979,1.23571098 C324.326236,1.46485336 324.73923,2.28905542 325.520054,3.79950042 L325.520054,3.79950042 Z M310.771146,1.32748635 L312.609708,1.32748635 C314.447082,1.32748635 316.147188,2.5176057 316.147188,8.46938662 C316.147188,14.5579425 314.861264,15.1530021 312.288227,15.1530021 L310.771146,15.1530021 L310.771146,1.32748635 Z M280.172806,15.7024702 C280.172806,28.9323342 279.069906,30.8098807 276.680488,30.8098807 C274.291664,30.8098807 273.23452,28.9323342 273.23452,15.7936534 C273.23452,3.06707373 274.383771,1.23571098 276.680488,1.23571098 C279.069906,1.23571098 280.172806,3.06707373 280.172806,15.7024702 L280.172806,15.7024702 Z M285.181017,15.9772042 C285.181017,7.23308354 282.378012,0 276.680488,0 C270.937803,0 268.226309,7.23308354 268.226309,15.9772042 C268.226309,24.7669165 271.029315,32 276.680488,32 C282.515874,32 285.181017,24.7669165 285.181017,15.9772042 L285.181017,15.9772042 Z M265.516598,3.25003238 C265.516598,1.96872976 265.838079,1.55662874 266.756172,1.32748635 L267.766966,1.05275234 L267.766966,0.228550282 L258.256832,0.228550282 L258.256832,1.05275234 L259.404893,1.32748635 C260.32358,1.55662874 260.829868,1.87695439 260.829868,3.20444074 L260.829868,25.2246091 C260.829868,28.2916829 260.553549,30.7636969 258.256832,30.7636969 C256.7861,30.7636969 255.683795,29.6191692 255.730145,28.7955593 C255.866819,27.3757054 258.256832,27.4680729 258.44045,25.1784254 C258.578313,23.5306134 257.521169,22.8437783 256.556726,22.7070034 C255.132345,22.5234527 253.387077,23.713572 253.340133,26.0944028 C253.293782,29.1614765 255.315963,31.9544084 258.761931,31.9544084 C262.57573,31.9544084 265.516598,29.3906189 265.516598,24.4915903 L265.516598,3.25003238 L265.516598,3.25003238 Z M112.059614,3.25003238 C112.059614,1.96872976 112.473202,1.55662874 113.391889,1.37307799 L114.632651,1.09834397 L114.632651,0.228550282 L105.076167,0.228550282 L105.076167,1.05275234 L106.08696,1.32748635 C107.005647,1.60222037 107.419235,1.96872976 107.419235,3.25003238 L107.419235,28.8873346 C107.419235,30.1230456 106.913541,30.8098807 105.48916,30.8098807 C103.835404,30.8098807 103.559679,30.2604126 102.962473,27.5598483 L97.0813314,0.137367009 L95.2439573,0.137367009 L89.6385402,26.6894625 C88.9955782,29.6647608 88.6735029,30.352188 87.4333348,30.7181053 L86.651916,30.9472477 L86.651916,31.7708576 L93.2223705,31.7708576 L93.2223705,30.9472477 L92.2573331,30.7636969 C90.8793025,30.4889629 90.5114712,29.7571283 91.2007836,26.2773615 L94.5088889,9.2012212 L98.1384752,27.2845222 C98.6435748,29.8939032 98.6435748,30.3977796 96.6683382,30.7636969 L95.7033009,30.9472477 L95.7033009,31.7708576 L120.100206,31.7708576 L120.100206,21.3333333 L119.227275,21.3333333 C118.767931,26.1399944 117.802894,30.6725136 113.897583,30.6725136 L112.059614,30.6725136 L112.059614,3.25003238 L112.059614,3.25003238 Z M239.969849,1.32748635 L240.981237,1.32748635 C243.830593,1.32748635 244.795036,5.85941345 245.116517,10.6666667 L245.988854,10.6666667 L245.988854,0.228550282 L229.311059,0.228550282 L229.311059,10.6666667 L230.18399,10.6666667 C230.506065,5.85941345 231.471103,1.32748635 234.31927,1.32748635 L235.330064,1.32748635 L235.330064,28.7031918 C235.330064,29.9856786 234.91707,30.4433713 233.997789,30.6725136 L232.803377,30.9472477 L232.803377,31.7708576 L242.727693,31.7708576 L242.727693,30.9472477 L241.302718,30.626922 C240.429787,30.3977796 239.969849,30.1230456 239.969849,28.7031918 L239.969849,1.32748635 L239.969849,1.32748635 Z M218.97375,15.9310204 L220.397537,15.9772042 C222.465474,16.0228195 223.062086,16.8014062 223.476861,21.7916181 L224.349198,21.7916181 L224.349198,9.06444629 L223.476861,9.06444629 C222.970573,13.0474975 222.419124,14.7409011 220.443887,14.7870848 L218.97375,14.8327002 L218.97375,1.32751004 L222.143993,1.32751004 C225.682067,1.32751004 226.462891,5.76825386 226.967991,10.6666904 L227.840922,10.6666904 L227.840922,0.228573966 L211.990302,0.228573966 L211.990302,1.05277602 L213.001096,1.32751004 C214.057051,1.60224406 214.33337,2.24348746 214.33337,3.2962398 L214.33337,28.7032155 C214.33337,29.9857023 213.920377,30.4433949 213.001096,30.6725373 L211.990302,30.9472713 L211.990302,31.7708813 L228.300266,31.7708813 L228.300266,21.333357 L227.427335,21.333357 C226.875885,26.0944265 226.278679,30.6725373 222.143993,30.6725373 L218.97375,30.6725373 L218.97375,15.9310441 L218.97375,15.9310204 Z M201.652399,15.9310204 L203.07678,15.9772042 C205.144123,16.0228195 205.741329,16.8014062 206.154916,21.7916181 L207.027847,21.7916181 L207.027847,9.06444629 L206.154916,9.06444629 C205.649817,13.0474975 205.098367,14.7409011 203.12313,14.7870848 L201.652399,14.8327002 L201.652399,1.32751004 L204.822642,1.32751004 C208.360716,1.32751004 209.141541,5.85943714 209.64664,10.6666904 L210.519571,10.6666904 L210.519571,0.228573966 L194.209608,0.228573966 L194.209608,1.05277602 L195.679745,1.32751004 C196.736294,1.60224406 197.012019,2.24348746 197.012019,3.2962398 L197.012019,28.7032155 C197.012019,29.9857023 196.598432,30.4433949 195.679745,30.6725373 L194.668951,30.9472713 L194.668951,31.7708813 L210.978915,31.7708813 L210.978915,21.333357 L210.106578,21.333357 C209.555128,26.0944265 208.957328,30.6725373 204.822642,30.6725373 L201.652399,30.6725373 L201.652399,15.9310441 L201.652399,15.9310204 Z M182.768805,1.32748635 L184.14743,1.32748635 C185.984804,1.32748635 187.684909,2.5176057 187.684909,8.46938662 C187.684909,14.4661671 186.398985,15.1530021 183.825949,15.1530021 L182.768805,15.1530021 L182.768805,1.32748635 Z M175.831113,31.7708576 L185.112467,31.7708576 L185.112467,30.9472477 L184.101079,30.7181053 C183.182392,30.4889629 182.768805,29.9856786 182.768805,28.7031918 L182.768805,16.2519382 L184.468911,16.2519382 C185.801185,16.2519382 186.490497,16.8014062 186.582604,19.3651957 L186.811979,25.2246091 C186.996191,30.4889629 188.512084,31.9544084 191.085121,31.9544084 C193.703914,31.9544084 194.392632,30.1686372 194.392632,27.6510315 L194.392632,26.5976871 L193.428189,26.5976871 L193.428189,27.3757054 C193.428189,29.0702933 193.198814,30.2604126 192.555258,30.2604126 C191.958052,30.2604126 191.911702,29.80272 191.774434,27.6966232 L191.498114,23.6685725 C191.130877,18.1288926 190.395809,16.3893052 186.444741,15.6562864 C190.257946,14.6497178 192.601014,11.856786 192.601014,7.87373485 C192.601014,2.70056434 188.512084,0.228550282 184.606773,0.228550282 L175.831113,0.228550282 L175.831113,1.05275234 L176.841907,1.32748635 C177.761188,1.60222037 178.174181,1.96872976 178.174181,3.25003238 L178.174181,28.7031918 C178.174181,29.9856786 177.761188,30.4433713 176.841907,30.6725136 L175.831113,30.9472477 L175.831113,31.7708576 L175.831113,31.7708576 Z M168.801909,1.32748635 L169.812703,1.32748635 C172.66087,1.32748635 173.625908,5.85941345 173.947983,10.6666667 L174.82032,10.6666667 L174.82032,0.228550282 L158.142525,0.228550282 L158.142525,10.6666667 L159.015456,10.6666667 C159.336937,5.85941345 160.301974,1.32748635 163.150736,1.32748635 L164.16153,1.32748635 L164.16153,28.7031918 C164.16153,29.9856786 163.747348,30.4433713 162.829255,30.6725136 L161.634249,30.9472477 L161.634249,31.7708576 L171.328596,31.7708576 L171.328596,30.9472477 L170.134184,30.6725136 C168.939772,30.3977796 168.801909,29.4823943 168.801909,28.7031918 L168.801909,1.32748635 L168.801909,1.32748635 Z M158.188281,23.576205 C158.188281,14.1914331 147.850972,11.719419 147.850972,4.89843649 C147.850972,3.43358313 148.402422,1.23571098 150.69914,1.23571098 C154.007245,1.23571098 155.248007,5.49349616 155.799457,10.6666667 L156.672388,10.6666667 L156.672388,0.228550282 L156.120938,0.228550282 C155.890969,1.23571098 155.477382,1.69399574 154.88077,1.69399574 C153.823626,1.69399574 153.272177,0.0455916366 150.74549,0.0455916366 C146.840179,0.0455916366 144.175036,3.29621612 144.175036,7.5534092 C144.175036,15.2903691 154.512939,18.5404015 154.512939,25.6823018 C154.512939,28.9323342 152.996452,30.7636969 150.929109,30.7636969 C147.850972,30.7636969 145.829385,27.1477472 145.277935,21.3333333 L144.405004,21.3333333 L144.405004,31.7708576 L144.956454,31.7708576 C145.415798,30.2604126 146.013004,30.1230456 146.518103,30.1230456 C147.391629,30.1230456 148.310316,31.9544084 150.974865,31.9544084 C155.064389,31.9544084 158.188281,28.429642 158.188281,23.576205 L158.188281,23.576205 Z M128.094447,3.25003238 C128.094447,1.96872976 128.508034,1.55662874 129.426721,1.37307799 L130.667484,1.09834397 L130.667484,0.228550282 L121.110999,0.228550282 L121.110999,1.05275234 L122.121793,1.32748635 C123.04048,1.60222037 123.454067,1.96872976 123.454067,3.25003238 L123.454067,28.7031918 C123.454067,29.9856786 123.04048,30.4433713 122.121793,30.6725136 L121.110999,30.9472477 L121.110999,31.7708576 L136.135038,31.7708576 L136.135038,21.3333333 L135.261513,21.3333333 C134.802764,26.1399944 133.837727,30.6725136 129.932415,30.6725136 L128.094447,30.6725136 L128.094447,3.25003238 L128.094447,3.25003238 Z M97.6785374,23.2558794 L97.6785374,22.0201684 L91.4765085,22.0201684 L91.2922958,23.2558794 L97.6785374,23.2558794 Z M71.1227773,31.862633 L73.0065017,31.862633 L77.2790501,9.33918031 L76.636088,9.33918031 L81.3222239,31.862633 L82.9765736,31.862633 L88.5819907,5.31053752 C89.1791967,2.5176057 89.5006778,1.55662874 90.6035776,1.28130262 L91.4765085,1.05275234 L91.4765085,0.228550282 L84.9981605,0.228550282 L84.9981605,1.05275234 L85.9631978,1.23571098 C87.3412284,1.510445 87.6627094,2.33464705 87.0197474,5.72204644 L83.390161,23.5306134 L83.941611,23.5306134 L80.2656743,4.76106948 C79.897843,2.97529836 79.6684683,1.510445 81.1849556,1.23571098 L82.1951548,1.05275234 L82.1951548,0.228550282 L73.3279827,0.228550282 L73.3279827,1.05275234 L73.9251887,1.19011934 C74.84447,1.41866963 74.9823325,1.96872976 75.3495696,3.70831714 L76.7739505,10.5292997 L76.4982255,6.40888149 L73.3279827,23.0729207 L73.7415702,23.0729207 L70.0198775,4.76106948 C69.60629,2.88411509 69.4684276,1.46485336 70.9385645,1.19011934 L71.6284711,1.05275234 L71.6284711,0.228550282 L62.5770863,0.228550282 L62.5770863,1.05275234 L63.4500172,1.28130262 C64.2765979,1.510445 64.7365356,1.92254603 65.2879856,4.44015173 L71.1227773,31.862633 Z M46.5880098,15.9310204 L48.0123907,15.9772042 C50.0797337,16.0228195 50.6769397,16.8014062 51.0905271,21.7916181 L51.9634581,21.7916181 L51.9634581,9.06444629 L51.0905271,9.06444629 C50.5854275,13.0474975 50.0339776,14.7409011 48.0581468,14.7870848 L46.5880098,14.8327002 L46.5880098,1.32751004 L49.7582526,1.32751004 C53.2957325,1.32751004 54.0771513,5.85943714 54.5822509,10.6666904 L55.4551819,10.6666904 L55.4551819,0.228573966 L39.6045622,0.228573966 L39.6045622,1.05277602 L40.6153556,1.32751004 C41.6719051,1.60224406 41.9476301,2.24348746 41.9476301,3.2962398 L41.9476301,28.7032155 C41.9476301,29.9857023 41.5340426,30.4433949 40.6153556,30.6725373 L39.6045622,30.9472713 L39.6045622,31.7708813 L55.9151197,31.7708813 L55.9151197,21.333357 L55.0415945,21.333357 C54.4907388,26.0944265 53.8935328,30.6725373 49.7582526,30.6725373 L46.5880098,30.6725373 L46.5880098,15.9310441 L46.5880098,15.9310204 Z M17.6885876,31.7708576 L27.1072096,31.7708576 L27.1072096,30.9472477 L26.05066,30.7181053 C25.2234852,30.5351466 24.6720352,29.9856786 24.6720352,28.7031918 L24.6720352,16.2063466 L31.6097268,16.2063466 L31.6097268,28.7031918 C31.6097268,29.9856786 31.0588711,30.5351466 30.2316963,30.7181053 L29.1751467,30.9472477 L29.1751467,31.7708576 L38.5937687,31.7708576 L38.5937687,30.9472477 L37.5829753,30.6725136 C36.6642883,30.4433713 36.2501066,29.9394949 36.2501066,28.6581922 L36.2501066,3.25003238 C36.2501066,1.96872976 36.6642883,1.55662874 37.5829753,1.32748635 L38.5937687,1.05275234 L38.5937687,0.228550282 L29.1751467,0.228550282 L29.1751467,1.05275234 L30.2316963,1.32748635 C31.0125208,1.55662874 31.6097268,1.87695439 31.6097268,3.20444074 L31.6097268,14.9700435 L24.6720352,14.9700435 L24.6720352,3.20444074 C24.6720352,1.92254603 25.1777291,1.55662874 26.05066,1.32748635 L27.1072096,1.05275234 L27.1072096,0.228550282 L17.6885876,0.228550282 L17.6885876,1.05275234 L18.699381,1.32748635 C19.6186623,1.60222037 20.0316555,1.96872976 20.0316555,3.25003238 L20.0316555,28.7031918 C20.0316555,29.9856786 19.6186623,30.4433713 18.699381,30.6725136 L17.6885876,30.9472477 L17.6885876,31.7708576 Z M10.6587901,1.32748635 L11.6701777,1.32748635 C14.5183453,1.32748635 15.4833826,5.85941345 15.8048632,10.6666667 L16.6777941,10.6666667 L16.6777941,0.228550282 L0,0.228550282 L0,10.6666667 L0.872930959,10.6666667 C1.194412,5.85941345 2.15944936,1.32748635 5.00761687,1.32748635 L6.01841031,1.32748635 L6.01841031,28.7031918 C6.01841031,29.9856786 5.60541711,30.4433713 4.68613583,30.6725136 L3.49172383,30.9472477 L3.49172383,31.7708576 L13.4160397,31.7708576 L13.4160397,30.9472477 L11.9916588,30.626922 C11.1187278,30.3977796 10.6587901,30.1230456 10.6587901,28.7031918 L10.6587901,1.32748635 L10.6587901,1.32748635 Z" id="path13406"></path>
                        </g>
                    </g>
                </g>
            </g>
        </g>
    </g>
</svg>