<svg xmlns="http://www.w3.org/2000/svg" xmlns:xlink="http://www.w3.org/1999/xlink" viewBox="0 0 722 862.07"><defs><style>.cls-1,.cls-22{fill:none;}.cls-2{isolation:isolate;}.cls-14,.cls-3{fill:#2a363b;}.cls-4{fill:#e5d7be;}.cls-5{fill:#363636;}.cls-6{fill:#ef9f95;}.cls-7{fill:#e6e6e6;}.cls-8{fill:#ede6d8;}.cls-9{fill:#524347;}.cls-10{fill:#c95d43;}.cls-11,.cls-15{fill:#ebf5ff;}.cls-11{opacity:0.7;}.cls-12{fill:#d23a34;}.cls-13{fill:#8e2121;}.cls-14{opacity:0.28;}.cls-16{fill:#d3d6dd;}.cls-17{fill:#ececf8;}.cls-18{fill:#683c1d;}.cls-19{fill:#3a2110;}.cls-20{fill:#593416;}.cls-21{fill:#e5d8c3;}.cls-22{stroke:#b28957;stroke-miterlimit:10;stroke-width:2.49px;stroke-dasharray:7.46;}.cls-23{fill:#3a424b;}.cls-24,.cls-37{fill:#bd8d28;}.cls-24,.cls-40{opacity:0.5;}.cls-25{fill:#e1af38;}.cls-26{fill:#303e51;}.cls-27{clip-path:url(#clip-path);}.cls-28{opacity:0.2;}.cls-29{fill:#f9a01b;}.cls-30{fill:#71aeb7;}.cls-31{fill:#f5e0cd;}.cls-32{fill:#f58e81;}.cls-33{fill:#a52323;}.cls-34{fill:#d64c4c;}.cls-35{fill:#ccc;mix-blend-mode:multiply;}.cls-36{fill:#724233;}.cls-38{fill:#683c30;}.cls-39{opacity:0.49;}.cls-41{opacity:0.1;}.cls-42{fill:#d9d9d9;}.cls-43{fill:#b3b3b3;}.cls-44{fill:#3d2e33;}.cls-45{fill:#f7a49a;}.cls-46{fill:#4e8d93;}.cls-47{fill:#84bbc1;}.cls-48{fill:#f6a36f;}.cls-49{fill:#e58e60;}.cls-50{fill:#f7ad86;}.cls-51{fill:#db8a5f;}.cls-52{fill:#fdfdfd;}.cls-53{fill:#f5dc58;}.cls-54{fill:#adc6b9;}.cls-55{fill:#8f9b94;}.cls-56{fill:#a3b7ac;}.cls-57{fill:#eaf6e0;}.cls-58{fill:#e0decd;}.cls-59{fill:#c8c6b8;}.cls-60{fill:#ebe8d5;}.cls-61{fill:#f0e0d8;}.cls-62{fill:#e4b451;}.cls-63{fill:#ab8128;}.cls-64{fill:#b2d235;}.cls-65{fill:#9fba2f;}.cls-66{fill:#badd28;}</style><clipPath id="clip-path" transform="translate(-1027.33 -129.89)"><rect class="cls-1" x="1379.2" y="372.18" width="31.51" height="20.9" rx="4.67" ry="4.67" transform="translate(-47.79 278.81) rotate(-11.22)"/></clipPath></defs><title>Header_vector</title><g class="cls-2"><g id="Layer_6" data-name="Layer 6"><path class="cls-3" d="M1106.61,294c-2.7,5.28-7,10.32-10.13,13.79-6.88,7.55-30.59,49.11-43.06,29.93-6.82-10.49,4.91-24.63,10.79-29.73,8-7,13.62-18.82,19.42-27.66,6.71-10.23,28.77-19.1,34.53-14.31C1126,272.6,1110.32,286.76,1106.61,294Z" transform="translate(-1027.33 -129.89)"/><path class="cls-4" d="M1028.85,424.58c-.74,7.58,5,15.09,12.74,16.66a24.12,24.12,0,0,0,9.05-.14,84.58,84.58,0,0,1,19.68-5.73c14.72-2.13,29.48-3.43,43.57-8.59,8-2.95,19.67-7.48,27-14.45,4-3.85,6.76-8.44,6.83-13.91.37-27.87-47.92-12.44-62.5-7.43s-26,14.6-40.57,18.75h0c-1.24.35-2.49.68-3.78,1l-1.07.24C1034,413.27,1029.43,418.62,1028.85,424.58Z" transform="translate(-1027.33 -129.89)"/><path class="cls-4" d="M1066.54,422c-10.42-7.46-24.41-18.23-35.12-4.72-9.66,12.18-.3,20.42,8.61,27.86a285.71,285.71,0,0,0,37.66,26.33c8.36,5,42.21,27.76,50.8,20.51C1142.17,480.39,1076.58,429.14,1066.54,422Z" transform="translate(-1027.33 -129.89)"/><path class="cls-5" d="M1137.11,501l-7.67,3.6q.55,1,1,2a14.84,14.84,0,0,1,7.09-2.55,8.24,8.24,0,0,1-5,9.14,29.44,29.44,0,0,1,.28,9.72c2.21,1.36,4-.46,5.57-2.52a25.42,25.42,0,0,0,5.16-17.69c2.09.7,4.18,1,6.26,1.7.71-.82,1.47-1.77,2.19-2.6a117.69,117.69,0,0,1-14.76-12.44A18.65,18.65,0,0,1,1137.11,501Z" transform="translate(-1027.33 -129.89)"/><path class="cls-6" d="M1137.28,489.37c-4-3.93-7.88-8-11.6-12.13-1.35,6.76-5.67,12.17-12.39,13.74a29.7,29.7,0,0,1,15.52,12.46c.23.37.42.76.63,1.14l7.67-3.6A18.65,18.65,0,0,0,1137.28,489.37Z" transform="translate(-1027.33 -129.89)"/><path class="cls-6" d="M1136.38,510a8.4,8.4,0,0,0,1.17-6,14.84,14.84,0,0,0-7.09,2.55,29.7,29.7,0,0,1,2.11,6.58A8.39,8.39,0,0,0,1136.38,510Z" transform="translate(-1027.33 -129.89)"/><path class="cls-7" d="M1122.4,486.68a20,20,0,0,1-8.57,5.84,1.64,1.64,0,1,1-1.08-3.1c5.39-1.88,9.42-6.38,11.36-12.67a1.64,1.64,0,1,1,3.14,1A24.6,24.6,0,0,1,1122.4,486.68Z" transform="translate(-1027.33 -129.89)"/><path class="cls-1" d="M1154.34,476.13a14.71,14.71,0,0,0-.07,4.74c0-.35,0-.7,0-1C1154.37,478.58,1154.37,477.35,1154.34,476.13Z" transform="translate(-1027.33 -129.89)"/><path class="cls-8" d="M1058.85,445.56c.07,7.59,6.48,14.51,14.22,15.34a23.29,23.29,0,0,0,8.83-1,81.39,81.39,0,0,1,18.63-7.55c14.16-3.5,28.46-6.2,41.68-12.66,7.55-3.69,13.84-7.25,20.24-14.87,3.54-4.2,4.58-10.93,4.07-16.37-2.58-27.72-38-13-51.77-6.64-12.6,5.84-40.43,27.15-46.68,29.16C1062.68,433.84,1058.79,439.59,1058.85,445.56Z" transform="translate(-1027.33 -129.89)"/><path class="cls-8" d="M1090.8,455.82c-5.2-11.71-11.79-28.09-27.87-21.88-14.51,5.6-10.61,17.45-6.71,28.38a285.71,285.71,0,0,0,19.1,41.79c4.69,8.51,22.29,45.33,33.38,43.44C1126.35,544.54,1095.81,467.11,1090.8,455.82Z" transform="translate(-1027.33 -129.89)"/><path class="cls-5" d="M1111.66,559.67l-8.43-.79q0,1.14-.15,2.27a14.85,14.85,0,0,1,7.41,1.4,8.24,8.24,0,0,1-8.93,5.35,29.44,29.44,0,0,1-4.69,8.52c1.21,2.3,3.66,1.62,6.07.66a25.42,25.42,0,0,0,13.42-12.62c1.44,1.66,3.1,3,4.54,4.64,1-.35,2.17-.78,3.2-1.13a117.69,117.69,0,0,1-6.41-18.21A18.65,18.65,0,0,1,1111.66,559.67Z" transform="translate(-1027.33 -129.89)"/><path class="cls-6" d="M1117.69,549.76c-1.48-5.43-2.71-10.93-3.84-16.34-4.59,5.14-11.06,7.61-17.64,5.56a29.7,29.7,0,0,1,7.06,18.6c0,.43,0,.87,0,1.3l8.43.79A18.65,18.65,0,0,0,1117.69,549.76Z" transform="translate(-1027.33 -129.89)"/><path class="cls-6" d="M1106.44,567.11a8.4,8.4,0,0,0,4-4.55,14.85,14.85,0,0,0-7.41-1.4,29.7,29.7,0,0,1-1.52,6.75A8.39,8.39,0,0,0,1106.44,567.11Z" transform="translate(-1027.33 -129.89)"/><path class="cls-7" d="M1106.23,539.9a20,20,0,0,1-10.34.69,1.64,1.64,0,1,1,.64-3.23c5.6,1.11,11.36-.72,16.21-5.16a1.64,1.64,0,1,1,2.22,2.42A24.61,24.61,0,0,1,1106.23,539.9Z" transform="translate(-1027.33 -129.89)"/><path class="cls-9" d="M1099.78,227.25a19.67,19.67,0,0,1-8.19,17.57,15.08,15.08,0,0,0,2.53-16.71Z" transform="translate(-1027.33 -129.89)"/><path class="cls-6" d="M1104.48,301c13.67,3.36,24.55-8.11,26.86-10.79,6.36-7.4,13.89-15.7,14.63-25.42-25.9-2.16-16.61-15.22-15.37-33.08.32-4.68-4.57-9.44-7.57-13.83-12.25-18-31.33-.77-27.85,16.1a41.79,41.79,0,0,0,11.94,20.73c2.34,2.16,1.44,8.39-1.44,11.79C1099.93,278.27,1097.27,299.28,1104.48,301Z" transform="translate(-1027.33 -129.89)"/><path class="cls-3" d="M1116.51,388.18l.08-.1C1116.5,388.09,1116.41,388.11,1116.51,388.18Z" transform="translate(-1027.33 -129.89)"/><path class="cls-3" d="M1116.63,388h0l0,0C1116.67,388.06,1116.74,388.06,1116.63,388Z" transform="translate(-1027.33 -129.89)"/><path class="cls-3" d="M1158,331.26c1.44-17.26,1-13.38,3.6-27.82,1.92-10.55,4.56-20.14,2.16-28.77-2.24-8.06-17.5-9.59-28.77-12-2.08,19.9-11.27,33.57-24.22,33.57-10.32,0-9.11-17.26-5-29.7-3.82,1.94-6.61,2.79-7.92,5-1.73,2.92-3.84,9.11-5,14.15-6.06,25.46,1.93,31.3,6.23,40.52,3.36,7.19,8,26.81-.77,49.69-.32.84-.57,1.71-.84,2.57.33,3.37,2.24,12.81,31.6,10.46a92.29,92.29,0,0,0,30.23-7.39C1157.88,371.64,1157.14,341,1158,331.26Z" transform="translate(-1027.33 -129.89)"/><path class="cls-8" d="M1119.45,405.47c-3.4,18.91,15.48,34,32.79,25.67,11.25-5.43,15.79-12.24,15.47-21.32-1.1-19.14-6.12-22-6.39-23.5-.1-.55-2.05-4.23-2.13-4.78-9.54,4.14-25.69,2.86-42.47,1.74-7-1.44-11.53-.89-12.15,2.56-5.12-3.2-5.12-2.88-7.2-7.37-.37,1.2-.67,2.43-.94,3.67h0c-1.13,7.06-.33,5.94-.49,9,1.28,8.43,4.92,14.94,9,17.9C1106.66,410.33,1121,397,1119.45,405.47Z" transform="translate(-1027.33 -129.89)"/><path class="cls-3" d="M1164.85,277a46,46,0,0,1,1.79,4.4c4.42,12.57,11.6,22.85,20.73,32.37l1.43,1.37.66.63c3.9,3.74,5.33,14.41,1.59,18.31-9,9.36-24.1-10.45-30.12-16.63-8.77-9-34.67-39.34-14.14-49C1156,264.16,1161.5,269.9,1164.85,277Z" transform="translate(-1027.33 -129.89)"/><path class="cls-6" d="M1179.61,319.45c.57-.79,1.18-1.56,1.8-2.3,5.12-6,10.31-12.39,13.35-19.7,2.28-5.49,4.2-12.23,6.09-17.19,2.13-5.58,10.58-.67,9,6s-6.87,28.35-9.47,33.45c-3.75,7.35-10.15,22.82-20.43,14.41C1174.42,329.62,1176.29,324.09,1179.61,319.45Z" transform="translate(-1027.33 -129.89)"/><path class="cls-9" d="M1094,229.49a29.48,29.48,0,0,1,24.75,1.51,22.55,22.55,0,0,1,2.79,13.65c4.18-3.24,4.7-9.61,2.58-14.46,2.06-1.56,4.3,7.05,6,9,5.28-5.28,5.74-13.84,5-17s-3.21-7.41-6-9.11c4.2-.19,4.54-5.1,3.7-9.22s-5.16-7.06-9.35-6.79a8,8,0,0,0-5.82,2.89,5.9,5.9,0,0,0-.68,6.29c-6.21-1.24-14.19.67-18.42,5.4S1092.09,223.45,1094,229.49Z" transform="translate(-1027.33 -129.89)"/><path class="cls-9" d="M1095.07,228.42a4.87,4.87,0,0,0-7.28,4.29c2.43-.7,4.43-1.75,6.86-2.45C1095.25,229.72,1095.76,228.82,1095.07,228.42Z" transform="translate(-1027.33 -129.89)"/><path class="cls-9" d="M1094.94,227.45a4.3,4.3,0,0,0-4.84-2.38c1.35,1.28,2.17,2.22,3.52,3.5C1094.18,229.1,1094.72,228.19,1094.94,227.45Z" transform="translate(-1027.33 -129.89)"/><path class="cls-6" d="M1124.36,230.11a2.62,2.62,0,0,1-.07-3,3.52,3.52,0,0,1,2.7-1.49,5.43,5.43,0,0,1,3.05.79,3.9,3.9,0,0,1,2.17,3,3.52,3.52,0,0,1-2.78,3.17,10.31,10.31,0,0,1-4.51-.15l.13-.18A7.83,7.83,0,0,0,1124.36,230.11Z" transform="translate(-1027.33 -129.89)"/><path class="cls-9" d="M1096.7,235.19a3.19,3.19,0,0,1,5.11,0" transform="translate(-1027.33 -129.89)"/><path class="cls-9" d="M1096.66,235.16a1.92,1.92,0,0,1,.06-.29c.09-.16,0-.44.3-.69a2.55,2.55,0,0,1,.91-.78,4.24,4.24,0,0,1,1.31-.37,6.41,6.41,0,0,1,.64.12,3,3,0,0,1,.63.22,2.35,2.35,0,0,1,.93.75c.24.22.27.57.35.72a1.39,1.39,0,0,1,.06.29l-.08.06-.18-.18a2.41,2.41,0,0,0-.49-.43l-.37-.23a2.1,2.1,0,0,0-.45-.18,3,3,0,0,0-2.07,0,2.12,2.12,0,0,0-.45.18l-.37.23a2.43,2.43,0,0,0-.49.44l-.18.18Z" transform="translate(-1027.33 -129.89)"/><path class="cls-9" d="M1108.4,233.85a3.19,3.19,0,0,1,4.92-1.39" transform="translate(-1027.33 -129.89)"/><path class="cls-9" d="M1108.36,233.82a1.87,1.87,0,0,1,0-.3c0-.18-.08-.44.1-.75a2.56,2.56,0,0,1,.67-1,4.25,4.25,0,0,1,1.17-.7,6.35,6.35,0,0,1,.65-.05,3,3,0,0,1,.66,0,2.36,2.36,0,0,1,1.09.48c.29.15.41.48.53.6a1.43,1.43,0,0,1,.14.27l-.06.08-.22-.12a2.42,2.42,0,0,0-.59-.28l-.42-.12a2.1,2.1,0,0,0-.48-.05,3,3,0,0,0-2,.56,2.15,2.15,0,0,0-.38.3l-.29.32a2.48,2.48,0,0,0-.36.56l-.12.22Z" transform="translate(-1027.33 -129.89)"/><path class="cls-9" d="M1108.4,236.13a3.41,3.41,0,0,0,.71.63,4.27,4.27,0,0,0,.83.35,3,3,0,0,0,.86.08,3.17,3.17,0,0,0,.79-.22l.38-.23a3.23,3.23,0,0,1,.26-.25,3,3,0,0,0,.45-.67,3.66,3.66,0,0,0,.22-.77,2.6,2.6,0,0,0-.06-.78l-.08-.39.35-.17.44-.22.4-.31c.12-.12.22-.25.34-.37s.15-.29.23-.44,0-.17.06-.24l.05-.29c0-.17,0-.33,0-.51s-.09-.36-.13-.55l-.26-.53c.14.13.3.27.43.43s.21.36.31.55a4.2,4.2,0,0,1,.16.65v.3a1.39,1.39,0,0,1,0,.34,5.37,5.37,0,0,1-.21.65c-.12.19-.23.39-.36.57l-.49.47-.59.36.27-.56a3.32,3.32,0,0,1,.13,1.15,3.4,3.4,0,0,1-.3,1.09,3.8,3.8,0,0,1-.66.92c-.16.13-.33.25-.49.37l-.48.23a2.91,2.91,0,0,1-1.11.14,3.64,3.64,0,0,1-1-.27,2.9,2.9,0,0,1-.85-.62l-.31-.42Z" transform="translate(-1027.33 -129.89)"/><path class="cls-9" d="M1102.77,236l.19.46.08.52a2.89,2.89,0,0,1-.14,1,3.63,3.63,0,0,1-.53.94,2.9,2.9,0,0,1-.87.71l-.5.19-.61.1a3.83,3.83,0,0,1-1.12-.16,3.4,3.4,0,0,1-1-.54,3.32,3.32,0,0,1-.74-.89l.59.2-.67.18-.68,0c-.23,0-.45-.09-.67-.14a5.43,5.43,0,0,1-.62-.3,1.37,1.37,0,0,1-.26-.22l-.21-.21a4.26,4.26,0,0,1-.36-.57c-.07-.2-.12-.41-.18-.6s0-.42,0-.61l.2.55c.1.16.2.33.3.47l.37.36.24.17c.07,0,.19.15.21.13s.31.11.48.14h.5l.5-.07.46-.17.37-.13.22.33a2.62,2.62,0,0,0,.52.58,3.62,3.62,0,0,0,.71.38,2.92,2.92,0,0,0,.8.14h.36l.43-.11a3.17,3.17,0,0,0,.7-.42,3,3,0,0,0,.54-.67,4.26,4.26,0,0,0,.33-.84A3.41,3.41,0,0,0,1102.77,236Z" transform="translate(-1027.33 -129.89)"/><path class="cls-10" d="M1113.38,246a3.39,3.39,0,0,1-5,2.38,2.6,2.6,0,0,0,3,1.6,2.92,2.92,0,0,0,2.21-2.68A2.07,2.07,0,0,0,1113.38,246Z" transform="translate(-1027.33 -129.89)"/><path class="cls-6" d="M1204.33,275.3l3.1-2c.88-.56,1.88-1.15,2.62-.73,1,.54.8,2.57,0,3.91a9.2,9.2,0,0,1-3.16,2.88,6.33,6.33,0,0,1-3.38,1.38,2,2,0,0,1-1.58-2.75A5.11,5.11,0,0,1,1204.33,275.3Z" transform="translate(-1027.33 -129.89)"/><path class="cls-6" d="M1202.91,287.06c-2.19-2.2-1.18-6,1.36-8s6.09-2.74,9.47-3,6.83-.19,10.1-1.05c1.33-.35,2.91-.83,4-.08a2,2,0,0,1,.6,2.39,6.13,6.13,0,0,1-1.69,2.19,39,39,0,0,1-13.63,8.16,16.47,16.47,0,0,1-5.32,1.1A6.86,6.86,0,0,1,1202.91,287.06Z" transform="translate(-1027.33 -129.89)"/><rect class="cls-11" x="125.35" y="75" width="133.32" height="76.73" rx="7.5" ry="7.5"/><rect class="cls-12" x="24.13" y="217.52" width="58.68" height="54.91"/><rect class="cls-13" x="24.13" y="220.03" width="58.68" height="8.52"/><rect class="cls-12" x="23.36" y="217.1" width="60.23" height="9.42"/><g id="_Group_" data-name="&lt;Group&gt;"><path class="cls-12" d="M1198.64,256a80.09,80.09,0,0,1,4.86,13c-1.37.3-2.71.73-4,1.15-.4.13-4.49,1.64-5.93,1.5-.65-.06-3.19-1.4-3.9-1.51a4.2,4.2,0,0,0-2.8.72c-1.17.64-1.69,1.06-3.19.89a39.89,39.89,0,0,0-5.71-.79c-3.22,0-10.15.74-11.33-2.57,0-.1.29-.94.2-.94,1.93-5,3.74-10.08,5.57-15.13s4.68-8.93,5.41-14.38c.36-2.67-.5-6.47-.59-9.63a22.76,22.76,0,0,1,.58-4.46,43.84,43.84,0,0,0-1.27-5.32.21.21,0,0,0-.12-.13l.07-.12c1-.19,1-.83,1.55.18s1.74,5.25,1.8,5.12,5.2,1.52,5.26,1.5a35.71,35.71,0,0,0,4.69-1.85c.15-.08,1.64-5.06,1.64-5.06l1.4.15s-1.12,3.88-.59,5.3a14.65,14.65,0,0,1,.74,7,42.15,42.15,0,0,0-.26,6.19C1193,243.54,1196.69,251.92,1198.64,256Z" transform="translate(-1027.33 -129.89)"/></g><rect class="cls-14" x="187.21" y="94.02" width="41.8" height="3.84"/><rect class="cls-14" x="187.21" y="106.97" width="60.43" height="3.84"/><rect class="cls-14" x="187.21" y="114.65" width="60.43" height="3.84"/><rect class="cls-14" x="187.21" y="122.16" width="37.25" height="3.84"/><rect class="cls-14" x="187.21" y="129.83" width="37.25" height="3.84"/><path class="cls-15" d="M1286,215.44v-3.84a7.19,7.19,0,0,0-7.19-7.19H1159.87a7.19,7.19,0,0,0-7.19,7.19v3.84Z" transform="translate(-1027.33 -129.89)"/><path class="cls-6" d="M1071.71,325.2a64.89,64.89,0,0,1,5.62,3.27c16.75,10.57,39.14,11.91,53,20.06,3.53,2.07-4.64,4.19-8.87,3.36-8.81-1.72-80.2.33-64.4-24.5C1060.88,321.45,1066.54,322.62,1071.71,325.2Z" transform="translate(-1027.33 -129.89)"/><path class="cls-6" d="M1113.19,348.85s4,5,7.91,7.32c2.21,1.3,5.4,1.74,6.45,2.6,2.89,2.38,13.11,8.17,14.32,7.25s-.14-2.79-.14-2.79,3,1.16,3.42.13-.29-2.52-1.4-3.34a29.22,29.22,0,0,1-6-4c-1.5-1.21-2.89-2.58-2.89-2.58-.46-.93,3.36.63,7.57,3.55,3.15.77-2.55-4-3.06-4.59s-2.91-1.64-6.74-3.15c-6.91-2.71-15.24-5.55-15.24-5.55Z" transform="translate(-1027.33 -129.89)"/></g><g id="Layer_3" data-name="Layer 3"><path class="cls-9" d="M1280.56,353.18a5.43,5.43,0,0,0,7.53,3.81,3.93,3.93,0,0,1,1.37,4,4,4,0,0,1-3.16,2.92,4,4,0,0,1,1.37,4.37,4.3,4.3,0,0,1-3.74,3,8,8,0,0,1-1.78,8.59,8.66,8.66,0,0,1-8.95,2c-1.76,2.7-5.87,3.78-9.08,3.59a9.38,9.38,0,0,1-7.7-5.08c-1,1.7-3.11,2.28-5.06,2.23a5.56,5.56,0,0,1-4.73-3c-2,.73-5-1.08-5.93-3a4.44,4.44,0,0,1,1.86-5.53c-1.2-1.66-1.16-4.13-1-6.17l2.06-1.13c-2.53-.89-4.24-8-2.91-10.36,0,0,5.69,1.05,7.66,0,1.81-3.79,4.06-5.58,7.16-8.42s7.38-4.66,11.52-3.95a14.42,14.42,0,0,1,7.67,4.39C1276.84,347.62,1279.93,350.25,1280.56,353.18Z" transform="translate(-1027.33 -129.89)"/><path class="cls-16" d="M1183.63,493.52c-10.83-10,1.35-19.71,7.5-27.49,9-11.44,11.91-23.37,15.18-37.12a18.62,18.62,0,0,1,24.13-13c36.11,12.76-10.61,65.18-26.22,77.16-6.26,4.8-13.81,6.77-20.56.52Z" transform="translate(-1027.33 -129.89)"/><path class="cls-6" d="M1222.32,566.67a26.71,26.71,0,0,1,8.31-13.17c6.5-5.52,14.89-6.88,22.08-3.58,6.22,2.86,11.08,9,13.19,16.64,2.44,8.87.4,16.74-2.59,25.19A332.63,332.63,0,0,0,1247,660.92c-1,8.2-.74,18.73-9.15,21.28-5.53,1.69-11-2.31-12.15-8.94a395.21,395.21,0,0,1-6.3-64.07c-.13-10.92.25-21.88,1.21-32.8A48.91,48.91,0,0,1,1222.32,566.67Z" transform="translate(-1027.33 -129.89)"/><path class="cls-17" d="M1252.56,764.74c-.29,2.71-.66,5.4-1,8.11l-.63,4.91a6.33,6.33,0,0,1-12.62-.76s0-.23,0-.25q-.08-9.77-.59-19.53a25.56,25.56,0,0,0,15.5.73C1253,760.2,1252.8,762.47,1252.56,764.74Z" transform="translate(-1027.33 -129.89)"/><path class="cls-6" d="M1227.45,653.47a14,14,0,0,1,7.59-3.4c8.68-1,14.5,5.47,15.65,13.43,1.61,11.11,2.71,22.29,3.38,33.49a411.56,411.56,0,0,1-.87,60.94,25.56,25.56,0,0,1-15.5-.73,422,422,0,0,0-4.79-45.77q-2.64-16.35-6.65-32.43C1224.13,670.42,1219.45,660.54,1227.45,653.47Z" transform="translate(-1027.33 -129.89)"/><path class="cls-4" d="M1237.81,775.75c-25.63-80.71-32.85-154.19-30.2-227.6,18.54,3.84,66.89,4.7,66.39,4.27-1.74,32.72-16.59,61.64-17.61,100.78-.75,28.71,6.19,45.81-4,122.11C1247.19,778,1243.07,778,1237.81,775.75Z" transform="translate(-1027.33 -129.89)"/><path class="cls-18" d="M1224.7,789.58a66.63,66.63,0,0,1-11.21.5,7.05,7.05,0,0,1-4.9-2.47s0-.09.06-.14c9.13-1.16,20-5,25.33-11.51a18.81,18.81,0,0,1,9.36,3.69l-2.38,2.89C1238.51,785.52,1233.68,788,1224.7,789.58Z" transform="translate(-1027.33 -129.89)"/><path class="cls-19" d="M1207.51,792.09c8,3,16,1.76,24.42.08,7.7-1.53,15.07-4.36,22.37-7.28a11.41,11.41,0,0,1,1.19,4.06c-3.7,4.54-9.38,5.74-15.24,5.72-1.06-.81-.87-1.6-1.92-2.41-.68,1.26-.31,2-1,3.23-11.08,3-21.12,2.39-31.95-1.43l.9-2.29C1206.55,791.85,1207.51,792.09,1207.51,792.09Z" transform="translate(-1027.33 -129.89)"/><path class="cls-20" d="M1207.51,792.09c.69-1.35.45-3.09,1.08-4.47a7.05,7.05,0,0,0,4.9,2.47,66.63,66.63,0,0,0,11.21-.5c9-1.59,13.81-4.06,16.26-7a9.06,9.06,0,0,0,9.65-2.8,18.1,18.1,0,0,1,3.69,5.15c-7.3,2.92-14.66,5.75-22.37,7.28C1223.5,793.85,1215.56,795.12,1207.51,792.09Z" transform="translate(-1027.33 -129.89)"/><path class="cls-20" d="M1224.77,782.53a13.7,13.7,0,0,1,9.33,5.91c1.46-.8,2.53-1.6,4-2.4a14,14,0,0,0-10.59-5.78C1226.65,781,1225.63,781.76,1224.77,782.53Z" transform="translate(-1027.33 -129.89)"/><path class="cls-6" d="M1266.62,570.56a26.71,26.71,0,0,1,7.72-13.52c6.25-5.8,14.58-7.53,21.9-4.54,6.34,2.58,11.47,8.5,13.9,16,2.83,8.76,1.13,16.71-1.48,25.28a332.62,332.62,0,0,0-13.3,69.82c-.67,8.24.08,18.74-8.21,21.66-5.46,1.93-11.06-1.83-12.53-8.4a395.22,395.22,0,0,1-9.1-63.73c-.61-10.91-.7-21.87-.23-32.82A48.91,48.91,0,0,1,1266.62,570.56Z" transform="translate(-1027.33 -129.89)"/><path class="cls-17" d="M1305.49,767.11c-.17,2.72-.42,5.43-.65,8.14l-.42,4.93a6.33,6.33,0,0,1-12.64-.21v-.25q-.51-9.76-1.45-19.49a25.56,25.56,0,0,0,15.52.05C1305.74,762.56,1305.63,764.83,1305.49,767.11Z" transform="translate(-1027.33 -129.89)"/><path class="cls-6" d="M1275.54,657a14,14,0,0,1,7.43-3.73c8.62-1.42,14.73,4.83,16.22,12.73,2.09,11,3.68,22.15,4.85,33.31a411.56,411.56,0,0,1,1.79,60.92,25.56,25.56,0,0,1-15.52-.05,422,422,0,0,0-6.79-45.51q-3.35-16.22-8.06-32.11C1273,674.12,1267.86,664.45,1275.54,657Z" transform="translate(-1027.33 -129.89)"/><path class="cls-8" d="M1291.24,778.75c-29.13-79.51-36.51-152.87-37.08-226.33,18.69,3,64,2,63.46,1.63-.31,32.77-13.88,62.31-13.18,101.46.51,28.71,8.19,45.49,1.39,122.17C1300.7,780.56,1296.59,780.79,1291.24,778.75Z" transform="translate(-1027.33 -129.89)"/><path class="cls-18" d="M1279.8,789.58a66.64,66.64,0,0,1-11.21.5,7.05,7.05,0,0,1-4.9-2.47s0-.09.06-.14c9.13-1.16,20-5,25.33-11.51a18.81,18.81,0,0,1,9.36,3.69l-2.38,2.89C1293.61,785.52,1288.78,788,1279.8,789.58Z" transform="translate(-1027.33 -129.89)"/><path class="cls-19" d="M1262.61,792.09c8,3,16,1.76,24.42.08,7.7-1.53,15.07-4.36,22.37-7.28a11.41,11.41,0,0,1,1.19,4.06c-3.7,4.54-9.38,5.74-15.24,5.72-1.06-.81-.87-1.6-1.92-2.41-.68,1.26-.31,2-1,3.23-11.08,3-21.12,2.39-31.95-1.43l.9-2.29C1261.65,791.85,1262.61,792.09,1262.61,792.09Z" transform="translate(-1027.33 -129.89)"/><path class="cls-20" d="M1262.61,792.09c.69-1.35.45-3.09,1.08-4.47a7.05,7.05,0,0,0,4.9,2.47,66.64,66.64,0,0,0,11.21-.5c9-1.59,13.81-4.06,16.26-7a9.06,9.06,0,0,0,9.65-2.8,18.1,18.1,0,0,1,3.69,5.15c-7.3,2.92-14.66,5.75-22.37,7.28C1278.6,793.85,1270.66,795.12,1262.61,792.09Z" transform="translate(-1027.33 -129.89)"/><path class="cls-20" d="M1279.87,782.53a13.7,13.7,0,0,1,9.33,5.91c1.46-.8,2.53-1.6,4-2.4a14,14,0,0,0-10.59-5.78C1281.75,781,1280.73,781.76,1279.87,782.53Z" transform="translate(-1027.33 -129.89)"/><path class="cls-21" d="M1239.69,398.62a21.58,21.58,0,0,0,4.18-4.45,44.75,44.75,0,0,0,41.67.43,35.11,35.11,0,0,0,4.33,4.66A61.36,61.36,0,0,1,1239.69,398.62Z" transform="translate(-1027.33 -129.89)"/><path class="cls-3" d="M1206.89,433.68a38.45,38.45,0,0,1,4.55-12.05A42.82,42.82,0,0,1,1227.69,406c4-2.25,8.39-4.41,12-7.38a61.36,61.36,0,0,0,50.17.63,83,83,0,0,0,12.42,8.95c5.34,3.3,10.75,6.76,14.68,11.66,14.63,18.23-1.85,39.89-3.06,58.85a212.65,212.65,0,0,0,9.73,78.4c1.11,3.41-18.61,9.72-22.59,10.56-11.77,2.47-24,3-36,2.85s-24.24-.74-36.28-2.07c-9.77-1.08-17.42-4.46-26.58-8.21a422.92,422.92,0,0,0,6.73-66.35c.25-11.06.41-22.35-.58-33.38C1207.56,451.42,1205.08,442.89,1206.89,433.68Z" transform="translate(-1027.33 -129.89)"/><path class="cls-6" d="M1243.87,394.16c.21-.3.41-.61.6-.93,3.11-5.23,3.92-11,3.38-17-1.16-12.88-2.38-33.2,15.9-33.7,18.93-.53,18.19,20.65,16.86,33.74a24.79,24.79,0,0,0,4.93,18.36A44.75,44.75,0,0,1,1243.87,394.16Z" transform="translate(-1027.33 -129.89)"/><polygon class="cls-16" points="257.38 262.27 247.86 267.87 237.37 290.66 249.36 274.2 252.8 281.46 262.53 269.36 257.38 262.27"/><polygon class="cls-7" points="252.8 281.46 247.86 267.87 257.38 262.27 262.53 269.36 252.8 281.46"/><polygon class="cls-16" points="217.36 262.27 226.88 267.87 237.37 290.66 225.38 274.2 221.94 281.46 212.21 269.36 217.36 262.27"/><polygon class="cls-7" points="221.94 281.46 226.88 267.87 217.36 262.27 212.21 269.36 221.94 281.46"/><polygon class="cls-6" points="227.1 268.35 230.83 276.2 231.83 278.3 237.53 290.31 243.09 278.24 244.03 276.19 247.47 268.72 227.1 268.35"/><path class="cls-22" d="M1311.37,564.67" transform="translate(-1027.33 -129.89)"/><path class="cls-7" d="M1307.06,415.8a18.55,18.55,0,0,0-14.3,22,114.4,114.4,0,0,0,16.79,40.57c6.34,9.35,20.54,29.95,33.81,20.51,12.75-9.07-.12-21.39-5-30.48a83.08,83.08,0,0,1-9.61-36.14C1328.42,421.33,1317.95,413.48,1307.06,415.8Z" transform="translate(-1027.33 -129.89)"/><path class="cls-7" d="M1265.9,480.52c-8.7-.34-17.44-.87-26.05-1.67-8.28-.77-16.54-1.8-24.75-3.11-7.38-1.18-15.05-3.79-22.51-4.12a13.74,13.74,0,0,0-14.35,13.1c-.87,19.25,28.55,15.33,40.58,15.36a384.05,384.05,0,0,0,44.54-2.74A28.39,28.39,0,0,1,1265.9,480.52Z" transform="translate(-1027.33 -129.89)"/><path class="cls-6" d="M1294.66,487.47a6.46,6.46,0,0,0-6.45-6.48h-.1c-5.36,0-10.78-.11-16.23-.27a20,20,0,0,0-.76,15.66q9-1.15,18-2.54A6.47,6.47,0,0,0,1294.66,487.47Z" transform="translate(-1027.33 -129.89)"/><path class="cls-16" d="M1271.89,480.72q-3-.09-6-.2a28.39,28.39,0,0,0-2.54,16.81q3.89-.45,7.77-.94A20,20,0,0,1,1271.89,480.72Z" transform="translate(-1027.33 -129.89)"/><path class="cls-7" d="M1374.42,425.36c-5.33,6.89-10.84,13.69-16.5,20.23q-8.16,9.43-16.91,18.33c-5.25,5.32-11.83,10.05-16.43,15.92a13.73,13.73,0,0,0,2.33,19.28C1342.07,511,1356,484.79,1363,475a383.88,383.88,0,0,0,23.65-37.83A28.4,28.4,0,0,1,1374.42,425.36Z" transform="translate(-1027.33 -129.89)"/><path class="cls-6" d="M1394,411.8c-2.66-1.67-6.25-1.3-8,.83l0,.06q-4,4.78-8.19,9.57A19.61,19.61,0,0,0,1389,430q3.58-5.92,7-11.95C1397.18,416,1396.36,413.32,1394,411.8Z" transform="translate(-1027.33 -129.89)"/><path class="cls-16" d="M1378.07,420.6q-1.81,2.39-3.65,4.76a28.4,28.4,0,0,0,12.21,11.83q1.9-3.42,3.75-6.87A20,20,0,0,1,1378.07,420.6Z" transform="translate(-1027.33 -129.89)"/><path class="cls-9" d="M1249.81,348.1l4.55,1.62c-5.59,2.89-5.32,21-6.75,23.69C1246.43,363.75,1247,355.83,1249.81,348.1Z" transform="translate(-1027.33 -129.89)"/><path class="cls-9" d="M1280.74,374.83c-1.79-2-5.53-20.27-5.32-25.78l1.54-.86-1.75.35s-.87-1.9-1-2a9.16,9.16,0,0,0-1.87-1.83,8.81,8.81,0,0,0-9.48-.7c-1.6.84-2.52,2.19-3.82,3.36a14,14,0,0,1-7.56,3.88,37.43,37.43,0,0,1-5.09.36c2.52-.38,5.8-12.07,17-12.85,8-.56,12.74,2.07,15.15,8.48.79.38,2,.45,2.75.84C1281.73,349.72,1282.94,357.12,1280.74,374.83Z" transform="translate(-1027.33 -129.89)"/><path class="cls-6" d="M1276.22,358.93a10.71,10.71,0,0,0,1.17,5.24,13.08,13.08,0,0,0,3-1.92,6,6,0,0,0,1.89-3,3.94,3.94,0,0,0-.65-3.38,3,3,0,0,0-3.2-1,3.17,3.17,0,0,0-1.7,1.65A5.94,5.94,0,0,0,1276.22,358.93Z" transform="translate(-1027.33 -129.89)"/><path class="cls-6" d="M1250.69,359.62a10.71,10.71,0,0,1-1.17,5.24,13.08,13.08,0,0,1-3-1.92,6,6,0,0,1-1.89-3,3.94,3.94,0,0,1,.65-3.38,3,3,0,0,1,3.2-1,3.17,3.17,0,0,1,1.7,1.65A5.94,5.94,0,0,1,1250.69,359.62Z" transform="translate(-1027.33 -129.89)"/><path class="cls-9" d="M1250.61,356.28c-.32,2.88-.63,5.89.43,8.58s4,4.9,6.76,4.15c1.38-.37,2.54-1.39,4-1.64,1.9-.33,3.71.79,5.38,1.76s3.7,1.86,5.46,1.06a4.39,4.39,0,0,0,2.22-2.79,13,13,0,0,0,.39-3.64l.14-10.25c.52.22,1,.28,1.5.5a51.75,51.75,0,0,0,3.47,15.41c3.29,8.74.89,18.46-6.81,24a22.41,22.41,0,0,1-14.42,3.89c-4.69-.28-9.24-4.09-11.9-7.7s-3.1-8.75-2.66-13a41,41,0,0,1,2.09-9.09c.72-2.1,2.47-3.42,2.68-5.76l.69-8A6.09,6.09,0,0,1,1250.61,356.28Z" transform="translate(-1027.33 -129.89)"/><path class="cls-9" d="M1274.41,355.62l-5.6-1.5" transform="translate(-1027.33 -129.89)"/><path class="cls-9" d="M1260.19,353l-5.78.46" transform="translate(-1027.33 -129.89)"/><circle class="cls-9" cx="1269.47" cy="360.28" r="1.96" transform="translate(-271.58 1445.89) rotate(-82.93)"/><circle class="cls-9" cx="1256.13" cy="359.32" r="1.96" transform="translate(-282.34 1431.81) rotate(-82.93)"/><path class="cls-23" d="M1254.89,364.83h0a5.7,5.7,0,0,1-3.91-1.51,7.79,7.79,0,0,1-2.11-5.56,5.54,5.54,0,0,1,1.69-4.14,5.78,5.78,0,0,1,3.66-1.22h.5c1.09,0,4.75.2,5.94,2.8a3.8,3.8,0,0,1,.26.77,8.06,8.06,0,0,1-2.84,7.89A5.52,5.52,0,0,1,1254.89,364.83Zm-.17-11.14h-.44a4.81,4.81,0,0,0-2.86.89,4.28,4.28,0,0,0-1.26,3.19,6.52,6.52,0,0,0,1.71,4.6,4.39,4.39,0,0,0,3,1.15h0a4.3,4.3,0,0,0,2.44-.74,6.88,6.88,0,0,0,2.32-6.55,2.48,2.48,0,0,0-.17-.51C1258.79,354.22,1256.57,353.68,1254.72,353.68Z" transform="translate(-1027.33 -129.89)"/><path class="cls-23" d="M1270,365.85a5.7,5.7,0,0,1-3.84-1.44,8.07,8.07,0,0,1-1.75-8.2,3.88,3.88,0,0,1,.36-.73c.85-1.34,2.56-2.08,4.8-2.08a11,11,0,0,1,2,.18,5.77,5.77,0,0,1,3.46,1.7,5.55,5.55,0,0,1,1.12,4.33,7.79,7.79,0,0,1-2.84,5.23A5.6,5.6,0,0,1,1270,365.85Zm-.42-11.16c-1,0-2.9.19-3.71,1.48a2.5,2.5,0,0,0-.24.48,6.88,6.88,0,0,0,1.42,6.8,4.63,4.63,0,0,0,5.47.32,6.53,6.53,0,0,0,2.31-4.33,4.28,4.28,0,0,0-.81-3.33,4.81,4.81,0,0,0-2.71-1.27A9.74,9.74,0,0,0,1269.61,354.69Z" transform="translate(-1027.33 -129.89)"/><rect class="cls-23" x="1262.04" y="354.16" width="1.29" height="4.43" transform="translate(-205.28 1462.28) rotate(-86.14)"/><rect class="cls-23" x="1276.48" y="355.72" width="1.29" height="3.25" transform="translate(-192.93 1477.55) rotate(-86.13)"/><rect class="cls-23" x="1247.69" y="354.06" width="1.29" height="2.68" transform="translate(-217.64 1447.09) rotate(-86.14)"/><path class="cls-6" d="M1280.42,494.83a56.72,56.72,0,0,1,10,2.55c4.48,1.71,9.93,6.28,11.53,5.3s1.22-2.65-1.69-4.78-6.7-2.85-6.54-4.95,1.79-3.64,6.21-3.55,15.55-1,16-2.72-2.18-2.49-2.18-2.49,3.59-1.1,3.27-2.39-2.12-2.12-3.74-2.06c-.09,0-1.79.66-8.45.7-2.28,0-4.57-.27-4.57-.27s4-1.48,7.39-3.13,3.26-4.11,2.32-4.31-10.2,3.78-14.86,5.19a74,74,0,0,1-15.44,3Z" transform="translate(-1027.33 -129.89)"/><path class="cls-6" d="M1402.71,423.44c-7-.92-13.14-1.68-13.14-1.68-3.17-.53-5.06-2.17-5.31-4.4-.18-1.6.89-4.4,3.9-6.65,4.23-2.15,16.27-2.75,20.85-1.39.78.31,1.64.71,1.81,1.53.15,1.07-1,1.86-2,1.93s-5.21.29-6.21.69c-1.43.61-1.94,1-1.17,2.33s4.17,1.49,5.53.71a28.42,28.42,0,0,0,6.17-4c1-1.69,2.1-3.79,3.71-6.49a2.56,2.56,0,0,1,2.61-1.16c1,.49.46,2.23,0,3.24-.93,2.35-2.69,5.93-3.45,7.32a3.38,3.38,0,0,1-.82,1.06c-1.4,1.18-5.56,5.44-7,6.53C1406.88,424,1405,423.88,1402.71,423.44Z" transform="translate(-1027.33 -129.89)"/><rect class="cls-8" x="47.55" y="610.19" width="117.37" height="58.47"/><rect class="cls-4" x="47.55" y="618.61" width="117.37" height="9.74"/><rect class="cls-8" x="46" y="610.19" width="120.47" height="14.62"/><rect class="cls-4" x="77.61" y="574.98" width="105.64" height="35.43"/><rect class="cls-24" x="77.61" y="580.08" width="105.64" height="5.91"/><rect class="cls-8" x="76.21" y="574.98" width="108.43" height="8.86"/><rect class="cls-4" x="68.31" y="543.54" width="62.46" height="31.11"/><rect class="cls-24" x="68.31" y="548.02" width="62.46" height="5.19"/><rect class="cls-8" x="67.49" y="543.54" width="64.11" height="7.78"/><rect class="cls-25" x="1379.2" y="372.18" width="31.51" height="20.9" rx="4.67" ry="4.67" transform="translate(-1075.13 148.92) rotate(-11.22)"/><rect class="cls-26" x="1378.51" y="376.52" width="31.51" height="5.26" transform="translate(-1074.46 148.71) rotate(-11.22)"/><g class="cls-27"><rect class="cls-28" x="1370.94" y="381.28" width="31.51" height="20.9" rx="7.2" ry="7.2" transform="translate(-1077.06 147.48) rotate(-11.22)"/></g><rect class="cls-17" x="1369.54" y="383.18" width="31.51" height="20.9" rx="4.67" ry="4.67" transform="translate(-1077.45 147.25) rotate(-11.22)"/><circle class="cls-12" cx="1381.07" cy="399.28" r="3.18" transform="translate(-1078.63 146.53) rotate(-11.22)"/><circle class="cls-3" cx="1376.48" cy="400.19" r="3.18" transform="translate(-1078.9 145.66) rotate(-11.22)"/><path class="cls-17" d="M1375.86,397.07a3.18,3.18,0,1,1-2.5,3.74,3.18,3.18,0,0,1,2.5-3.74m-.18-.92a4.12,4.12,0,1,0,4.84,3.24,4.12,4.12,0,0,0-4.84-3.24Z" transform="translate(-1027.33 -129.89)"/><path class="cls-3" d="M1396,387.93l-22.61,4.49a1.17,1.17,0,1,1-.46-2.29l22.61-4.49a1.17,1.17,0,1,1,.46,2.29Z" transform="translate(-1027.33 -129.89)"/><path class="cls-3" d="M1396.92,392.52l-11.4,2.26a1.17,1.17,0,1,1-.46-2.29l11.4-2.26a1.17,1.17,0,1,1,.46,2.29Z" transform="translate(-1027.33 -129.89)"/></g><g id="Layer_5" data-name="Layer 5"><path class="cls-16" d="M1681.09,414c-.61-6-.76-11.44-1.44-17.43-3-26.5-1.68-53.51-6.23-81.74-2.75-17,2.17-29.67-8.84-45.88a115.4,115.4,0,0,1-63.65-12.52c-14.85,12.69-22.51,31.4-30.74,49.12a295.3,295.3,0,0,1-71.77,96.31c-30.27,23.25-15.58,33.76,82,27.94,34.1-2,51.81,21.74,77.7,9.55C1668.32,434.59,1679.43,426.08,1681.09,414Z" transform="translate(-1027.33 -129.89)"/><path class="cls-29" d="M1673.44,153.38c-2.16,2.79-5.29,4.76-7.17,7.73a11.8,11.8,0,0,0-.54,11.41c-3.68-2.41-5-7.21-5-11.61s1.14-8.74,1.11-13.13a25.74,25.74,0,0,0-6.25-16.57,14.63,14.63,0,0,1,17.84,22.16Z" transform="translate(-1027.33 -129.89)"/><path class="cls-29" d="M1654.8,212.37a17.71,17.71,0,0,1,4.75-29.18c2.63-1.18,5.95-2.1,6.81-4.86s-1.19-5.28-1.73-8a7.9,7.9,0,0,1,3.43-7.76,2.62,2.62,0,0,0-1.46.61c3.37-5.23,3.57-12.09,2.7-17.85-.94-6.23-4.19-11.15-12.67-14.13-5.32-1.88-11.17-.25-15.75,3.45a15.43,15.43,0,0,1,1.59,5.92c0,2.64-1.31,5.49-3.81,6.33-1.82.61-4.36.37-5.1,2.15-.57,1.36.48,2.81.91,4.22a5.17,5.17,0,0,1-6.8,6.35c-1.7-.65-2.91-2.13-4.37-3.23s-3.57-1.78-5-.69c-1.73,1.28-1.28,4-.16,5.88s2.75,3.54,2.93,5.69c.29,3.41-3.17,5.93-6.42,7s-6.95,1.62-9.25,4.16c-3,3.28-2.28,8.52-.26,12.45s5.12,7.28,6.8,11.37c3.06,7.46.18,16.75-6.21,21.55,1.22.77,2.46,1.53,3.71,2.25,7.51,4.33,15.64,7.91,24.25,9.23s17.75.2,24.88-4.24a33.85,33.85,0,0,0,9.7-9.51,36,36,0,0,0,2-3.19C1664.48,217.72,1659,216.21,1654.8,212.37Z" transform="translate(-1027.33 -129.89)"/><path class="cls-29" d="M1664.63,170.33c.54,2.73,2.56,5.35,1.73,8s-4.18,3.67-6.81,4.86a17.71,17.71,0,0,0-4.75,29.18c4.16,3.84,9.68,5.34,15.42,6a21.64,21.64,0,0,0,2.95-9.86,14.11,14.11,0,0,0-6.32-12.36c-1.43-.87-2-3.43-1.57-4.95a6.84,6.84,0,0,1,3.06-3.56,29.3,29.3,0,0,0,4-2.73,7.77,7.77,0,0,0,2.16-7.61,8.87,8.87,0,0,0-5.83-5.92c-.84-.26-.79-1.27-.61-2.07a4,4,0,0,1,1.48-1.95,4.5,4.5,0,0,0,1.55-1.9,2.33,2.33,0,0,0-1.11-2.61,3.22,3.22,0,0,0-1.93-.26A7.9,7.9,0,0,0,1664.63,170.33Z" transform="translate(-1027.33 -129.89)"/><path class="cls-29" d="M1611.9,202.25c-1.68-4.09-4.78-7.43-6.8-11.37s-2.71-9.18.26-12.45c2.3-2.54,6-3.08,9.25-4.16s6.71-3.6,6.42-7c-.18-2.15-1.82-3.84-2.93-5.69s-1.57-4.6.16-5.88c1.46-1.08,3.58-.4,5,.69s2.67,2.57,4.37,3.23a5.17,5.17,0,0,0,6.8-6.35c-.44-1.41-1.48-2.86-.91-4.22.74-1.77,3.28-1.53,5.1-2.15,2.5-.84,3.86-3.7,3.81-6.33a15.43,15.43,0,0,0-1.59-5.92,22.37,22.37,0,0,0-6.28,8.09c-.57,1.26-1.38,4.86-3.43,2.77-.56-.57-1-1.34-1.7-1.68-1.39-.64-2.93.69-3.2,2.1s.24,2.87.24,4.3c0,3.45-1.81,2.72-4.07,1.93a10.82,10.82,0,0,0-8.27,0,8.61,8.61,0,0,0-4.93,8.13c.12,1.91.88,3.89.25,5.69s-2.41,2.85-4.27,3.37-3.84.57-5.75.91c-8.38,1.47-14.72,8.63-16.17,16.58s1.46,16.35,6.52,23.05c4.21,5.57,9.81,10.07,15.85,13.9C1612.08,219,1615,209.71,1611.9,202.25Z" transform="translate(-1027.33 -129.89)"/><path class="cls-6" d="M1679.51,494.92c-2.72-32.53,1-61.47-.5-94-.54-11.91-5.88-27.47-6.63-39.37q-.18-2.9-.38-5.8c-1.33-19.58-3.11-39.13-5.84-58.64l-.09-.63a23.44,23.44,0,0,0-44.74-6.59c-4.69,10.64-2.42,23-.94,34.05,1.58,11.79,16.27,49.37,19.17,54.5,4.36,7.69,14.17,18.82,14.32,27.74.15,8.76-2.68,38,4.05,60.23,2.46,8.11,6.5,15.65,10,23.34,1.7,3.68,3.4,10.45,6.07,13.34C1680.81,510.4,1679.77,498.13,1679.51,494.92Z" transform="translate(-1027.33 -129.89)"/><path class="cls-6" d="M1686.27,516.53a7,7,0,0,0,3.41.12,3.67,3.67,0,0,0,2.31-1.74,27,27,0,0,1-2.72-1.79,27.65,27.65,0,0,1-9.79-14.39c-.7-2.49-2.58-4.9-5.3-5a4.26,4.26,0,0,0-3.14.68,4.9,4.9,0,0,0-.82.75,52.35,52.35,0,0,0,5,12.53C1677.75,511.81,1681.57,515.37,1686.27,516.53Z" transform="translate(-1027.33 -129.89)"/><path class="cls-30" d="M1692,514.91a3.67,3.67,0,0,1-2.31,1.74,7,7,0,0,1-3.41-.12c-4.7-1.16-8.51-4.72-11-8.84a52.35,52.35,0,0,1-5-12.53c-1.74,2-1.13,4.85-1.11,7.58.07,6.36-1.14,14.36-4.23,19.93.19,0,1.34,0,1.53,0,3.15-4,5.28-6.49,7.16-11.48,1,5.79,6.78,9.59,12.5,10.81a27.34,27.34,0,0,0,19.67-3.24A27.67,27.67,0,0,1,1692,514.91Z" transform="translate(-1027.33 -129.89)"/><path class="cls-6" d="M1667.14,218.71c-5.42-6.1-18.05-9.35-17.73-19.16.21-6.49,4-11.87,9.79-13.78,8.08-2.66,17.67,2.18,21.89,10.41,2.46,4.8,4,9.76,6.19,14a87.09,87.09,0,0,0,6.58,10.85,65,65,0,0,0,6.47,7.74c.43.44,4.5,5.37,4.55,5.28,6.78,5.53,2.33,12.32-6.26,11.52C1681.83,235.16,1673.81,226.22,1667.14,218.71Z" transform="translate(-1027.33 -129.89)"/><path class="cls-31" d="M1690.76,347.65" transform="translate(-1027.33 -129.89)"/><path class="cls-6" d="M1635.74,284.15a23.7,23.7,0,0,0-24.74-8.25c-11.22,3.06-19.38,12.59-27,20.71a210.55,210.55,0,0,0-22.65,28.63q-2.13,3.26-4.06,6.52a121.15,121.15,0,0,0-8.54,17.12c-3.23,8.23-7.3,15.67-14.13,21.4s-13.42,10.58-19.11,17.37c-7.16,8.56-13.06,18.15-18.54,27.84-4.17,7.37-8.06,14.9-11.81,22.5-1.79,3.64-6,9.22-6.54,13.12-1.43,9.87,7.45,1.34,9.77-.89,23.56-22.6,48.37-38,72.73-59.61,8.91-7.92,17.64-21.86,26.41-29.94l4.27-4c14.37-13.36,28.44-27.06,41.88-41.47l.43-.46A23.62,23.62,0,0,0,1635.74,284.15Z" transform="translate(-1027.33 -129.89)"/><path class="cls-6" d="M1476.51,471a7,7,0,0,0,2.26,2.56,3.67,3.67,0,0,0,2.85.48,27,27,0,0,1-.57-3.21,27.64,27.64,0,0,1,3.71-17c1.32-2.22,1.78-5.25,0-7.3a4.26,4.26,0,0,0-2.66-1.81,4.9,4.9,0,0,0-1.11-.07,52.34,52.34,0,0,0-5.64,12.26C1474.08,461.58,1474.12,466.8,1476.51,471Z" transform="translate(-1027.33 -129.89)"/><path class="cls-30" d="M1481.62,474a3.67,3.67,0,0,1-2.85-.48,7,7,0,0,1-2.26-2.56c-2.39-4.2-2.43-9.42-1.17-14.09a52.34,52.34,0,0,1,5.64-12.26c-2.65.12-4.3,2.51-6.26,4.41-4.57,4.43-11.21,9.05-17.38,10.64.16.1.92,1,1.08,1.08,5.07-.46,8.34-.64,13.26-2.7-3.5,4.73-2.3,11.52.75,16.51a27.34,27.34,0,0,0,15.88,12A27.66,27.66,0,0,1,1481.62,474Z" transform="translate(-1027.33 -129.89)"/><path class="cls-32" d="M1601.31,255.63c-.5.61-1,1.23-1.5,1.85h0c-1.62,2.06-3.18,4.16-4.62,6.34a52.41,52.41,0,0,0-7.43,16c-3.06,11.94,0,26,6.23,36.43l.41.6a39.31,39.31,0,0,0,42.25,15.58c15.67-4.23,28.34-22.21,30.26-37.84a50.07,50.07,0,0,0,.3-8.05,70.6,70.6,0,0,0-.67-7.26q-.33-2.3-.76-4.58c-.31-1.62-.73-3.29-1.18-5A101.41,101.41,0,0,1,1601.31,255.63Z" transform="translate(-1027.33 -129.89)"/><path class="cls-30" d="M1663,253.39a92.93,92.93,0,0,1-53.48-12,20.75,20.75,0,0,1-4.89,10.23q-1.7,2-3.35,4a101.41,101.41,0,0,0,63.29,14C1663.18,264.27,1661.59,258.62,1663,253.39Z" transform="translate(-1027.33 -129.89)"/><path class="cls-6" d="M1653.62,230.32c7.34-5.57,12.27-15,15.19-23.72a72.11,72.11,0,0,0,3.12-18.89c-.34-.93-13.7-10.12-14-11.06-2.78-7.9,14.22-6.67,15-14.73a41.53,41.53,0,0,0-.28-9.81c-1.3-8.81-5.57-17.69-14.72-18.84A15.11,15.11,0,0,0,1641,146.38c-1.41,11.13,12.57,31.33-13.53,34C1642.07,194.7,1651.12,210,1653.62,230.32Z" transform="translate(-1027.33 -129.89)"/><path class="cls-17" d="M1667.59,184.12s1.32,18.21.89,24.6c-.45,6.71-.71,9.34-8.05,14.91-2.51-20.28-15.53-29.53-30.12-43.84-.17.22-12,2-12.82,3-6.48,7.09-3.83,38.36-3.88,40.86-.15,7.16-3.65,16.77-3.88,18.19a92.05,92.05,0,0,0,53.3,11.56c.39-1.42,2.25-7.43,3.22-8.73,8.35-11.18,15.13-17.51,16.25-22.07.72-2.91-10.29-35-10.29-35Z" transform="translate(-1027.33 -129.89)"/><path class="cls-29" d="M1642.49,157.51a16.69,16.69,0,0,0,4.88-9.48,7.45,7.45,0,0,0-.19-3.62,3.09,3.09,0,0,0-2.53-2,18.69,18.69,0,0,1-10.07,5.07c2.34,4.28,3.46,9.94.67,13.94.21,0,.42,0,.63,0A16.69,16.69,0,0,0,1642.49,157.51Z" transform="translate(-1027.33 -129.89)"/><path class="cls-29" d="M1668.34,140.3c-3.29-7.4-10.24-11-18.25-9.84s-14.54,9-15.54,17l0,0a18.69,18.69,0,0,0,10.07-5.07,3.09,3.09,0,0,1,2.53,2,7.45,7.45,0,0,1,.19,3.62,16.49,16.49,0,0,1-11.5,13.36,15.44,15.44,0,0,0,12.49-7.17c2.73-4.45,4.26-9.6,1.84-14.22A18.66,18.66,0,0,1,1668.34,140.3Z" transform="translate(-1027.33 -129.89)"/><path class="cls-6" d="M1647,156.1a6.67,6.67,0,0,0-.53-5.07,4.05,4.05,0,0,0-4.47-1.91,4,4,0,0,0-2.55,3.36,6.2,6.2,0,0,0,1.25,4.18,14.76,14.76,0,0,0,3.21,3.08A5.52,5.52,0,0,0,1647,156.1Z" transform="translate(-1027.33 -129.89)"/><path class="cls-9" d="M1653.51,146.24l6.1-1.6" transform="translate(-1027.33 -129.89)"/><path class="cls-9" d="M1653.48,146.14a4.48,4.48,0,0,1,.68-1.27,3.42,3.42,0,0,1,.83-.8,2.5,2.5,0,0,1,.51-.3l.55-.21.58-.09a2.82,2.82,0,0,1,.59,0,3.49,3.49,0,0,1,1.12.29,4.5,4.5,0,0,1,1.22.77l.05.21a6.15,6.15,0,0,0-3.3-.18,6.25,6.25,0,0,0-2.8,1.78Z" transform="translate(-1027.33 -129.89)"/><path class="cls-9" d="M1665.65,144.37l6.25.79" transform="translate(-1027.33 -129.89)"/><path class="cls-9" d="M1665.66,144.26a4.49,4.49,0,0,1,1.11-.92,3.42,3.42,0,0,1,1.07-.43,2.49,2.49,0,0,1,.58-.08h.59l.58.14a2.82,2.82,0,0,1,.54.23,3.5,3.5,0,0,1,.93.69,4.49,4.49,0,0,1,.85,1.17l0,.21a4.07,4.07,0,0,0-2.58-1.48,8.06,8.06,0,0,0-3.67.69Z" transform="translate(-1027.33 -129.89)"/><circle class="cls-9" cx="1656.69" cy="149.7" r="2.07" transform="translate(155.65 1614.37) rotate(-78.62)"/><circle class="cls-9" cx="1669" cy="148.64" r="2.07" transform="translate(166.56 1625.58) rotate(-78.62)"/><path class="cls-17" d="M1681.09,414c-.61-6-.76-11.44-1.44-17.43-3-26.5-1.68-53.51-6.23-81.74-2.75-17,2.17-29.67-8.84-45.88-21.83,2-43.47-3.58-62.9-13.72-14.85,12.69-23.25,32.61-31.48,50.32a295.3,295.3,0,0,1-71.77,96.31c41.52-18.92,53.68,18.93,94.15,8.37,24.81-6.47,27.92-27.09,62.81-22.93C1659.67,387.83,1679.22,392.45,1681.09,414Z" transform="translate(-1027.33 -129.89)"/><path class="cls-29" d="M1571.06,241.85a.44.44,0,0,1-.35-.43,71.77,71.77,0,0,1,4.45-24.69c1-2.59,2.6-6.11,5.89-6.87a.44.44,0,0,1,.2.85c-2.88.66-4.38,3.93-5.27,6.32a70.91,70.91,0,0,0-4.39,24.39.44.44,0,0,1-.44.44Z" transform="translate(-1027.33 -129.89)"/><path class="cls-6" d="M1608.54,215c7.36-3.53,19.76-4.55,23.26-13.72,2.32-6.07-.45-13.29-5.07-17.3-6.42-5.58-14.7,1.51-21.77,7.46-4.13,3.47-39.83,26.13-39.85,26-8.39,2.48-5.92,15.53,2.31,18.12l1.77.22C1573.54,236.25,1599.49,219.33,1608.54,215Z" transform="translate(-1027.33 -129.89)"/><polygon class="cls-12" points="528.81 110.22 566.21 108.89 542.93 180.84 497.74 176.88 528.81 110.22"/><polygon class="cls-33" points="566.21 108.89 566.61 111.68 549.15 175.92 542.93 180.84 566.21 108.89"/><polygon class="cls-12" points="566.61 111.68 549.15 175.92 554.59 186.42 569.08 111.44 566.61 111.68"/><polygon class="cls-34" points="542.93 180.84 549.15 175.92 554.59 186.42 542.93 180.84"/><polygon class="cls-13" points="497.74 176.88 542.93 180.84 554.59 186.42 513.42 183.96 497.74 176.88"/><circle class="cls-8" cx="1579.52" cy="243.11" r="1.73" transform="translate(2.13 1613.7) rotate(-78.62)"/><circle class="cls-8" cx="1565.78" cy="243.58" r="1.73" transform="translate(-9.36 1600.6) rotate(-78.62)"/><path class="cls-29" d="M1565.76,244a.44.44,0,0,1-.35-.48,114.84,114.84,0,0,1,6.32-26.63,8.69,8.69,0,0,1,1.6-3,4.12,4.12,0,0,1,3.48-1.38,4.26,4.26,0,0,1,3.14,2.35,8.91,8.91,0,0,1,.77,3.46,134.32,134.32,0,0,1-.31,24.66.44.44,0,0,1-.48.39.41.41,0,0,1-.39-.48,133.44,133.44,0,0,0,.31-24.5,8.25,8.25,0,0,0-.68-3.14,3.43,3.43,0,0,0-2.47-1.88,3.26,3.26,0,0,0-2.72,1.1,7.87,7.87,0,0,0-1.42,2.7,114,114,0,0,0-6.27,26.43.44.44,0,0,1-.48.38Z" transform="translate(-1027.33 -129.89)"/><path class="cls-6" d="M1565.13,192.19a100.76,100.76,0,0,1-1.65-10.86c-.39-4,1.91-8.53-4.32-8.87-5.15-.28-6,4.74-6.52,8.75-1.28,9.5-.68,18.74.62,28.22.58,4.21,1.44,8.37,2.32,12.53.66,3.13,1,6.42,3,9a12.63,12.63,0,0,0,8.12,4.7l.13,0c6.52,1,11.57-5.69,9.15-11.82l-3.7-9.36A136.7,136.7,0,0,1,1565.13,192.19Z" transform="translate(-1027.33 -129.89)"/><path class="cls-29" d="M1590.65,239.31a.44.44,0,0,1-.35-.42c-.3-14.41-2.39-24-5.89-27.11a4,4,0,0,0-3.21-1.06.44.44,0,1,1-.1-.87,4.88,4.88,0,0,1,3.88,1.27c4.73,4.14,6,17.38,6.19,27.75a.44.44,0,0,1-.43.45Z" transform="translate(-1027.33 -129.89)"/><path class="cls-35" d="M1629.72,223.19c6.12,8.73,18.7,12.5,28.48,13.12s12.79-.37,20.73-8.2c-6,11.47-12.49,14-23.26,13.57S1633.52,235.06,1629.72,223.19Z" transform="translate(-1027.33 -129.89)"/><path class="cls-6" d="M1562.75,179c1.12-4.37,1.72-9.87,2.84-14.24.51-1.78,2.44-5.18.52-5.63-1.78-.19-3.68,4.62-4.19,7.57-1.68-4.57-4.54-8.75-9.12-11a7.57,7.57,0,0,0-3.55-.88c-1.24.1-3,1.82-3.39,3a4.16,4.16,0,0,0,.84,3.54c1.09,1.82,2.08,3.61,3.17,5.42-2.94-2.63-7.22-6-8.47-4.75-.71.56.49,1.23,1.09,1.82,2.27,2.09,4.64,3.7,6.37,6.16a12.07,12.07,0,0,1,1.59,3c1.16,2.61,2.21,6.37,3.34,8.92Z" transform="translate(-1027.33 -129.89)"/><path class="cls-25" d="M1731.7,275.25l6.91,14s-5-14.19-4.08-18.63l-1.65-.81Z" transform="translate(-1027.33 -129.89)"/><path class="cls-25" d="M1730.65,272.79c6,13.36,2.31,21-1.16,23.72-2.86,2.28-11.15,3.92-14,4.44s-11.15,2.14-14.65,1.08c-4.26-1.28-10.51-7-9.89-21.59,0,0-4.68,24.14,3.3,34.33,6.51,8.31,19.92,4.1,24.48,3,4.65-.64,18.67-1.71,21.62-11.85C1744,293.47,1730.65,272.79,1730.65,272.79Z" transform="translate(-1027.33 -129.89)"/><path class="cls-36" d="M1718.29,300.44s11.51-2.34,13.36-6.53a21.53,21.53,0,0,0,1.91-6.4l.27-2.69s1.62,7-1.71,10.82C1728.24,300.07,1718.29,300.44,1718.29,300.44Z" transform="translate(-1027.33 -129.89)"/><path class="cls-36" d="M1713.37,301.06l-10.16,1.18s1.6,1.21,10.34-.26Z" transform="translate(-1027.33 -129.89)"/><path class="cls-37" d="M1730.65,272.79l-19.86,3.82-19.86,3.82c-.62,14.64,5.63,20.31,9.89,21.59,3.5,1.05,11.81-.5,14.65-1.08s11.15-2.16,14-4.44C1733,293.74,1736.67,286.15,1730.65,272.79Z" transform="translate(-1027.33 -129.89)"/><path class="cls-1" d="M1700.06,237.89a2.32,2.32,0,0,0,.33-.15l-.46.2Z" transform="translate(-1027.33 -129.89)"/><path class="cls-36" d="M1719.54,306.94c.25,1.28-2.1,2.81-2.1,2.81h0s-2.75-.55-3-1.82l-3.32-17.23a2.49,2.49,0,0,1,2.1-2.81h0a2.49,2.49,0,0,1,3,1.82Z" transform="translate(-1027.33 -129.89)"/><path class="cls-38" d="M1719.19,302.46a1.16,1.16,0,0,1-.88,1.39l-3.38.65a1.16,1.16,0,0,1-1.33-1h0a1.16,1.16,0,0,1,.88-1.39l3.38-.65a1.16,1.16,0,0,1,1.33,1Z" transform="translate(-1027.33 -129.89)"/><path class="cls-37" d="M1719,307c.24,1.27-1.86,2.75-1.86,2.75h0s-2.5-.59-2.75-1.86l-3.3-17.13a2.35,2.35,0,0,1,1.86-2.75h0a2.35,2.35,0,0,1,2.75,1.86Z" transform="translate(-1027.33 -129.89)"/><g class="cls-39"><path class="cls-25" d="M1690.92,281.21s11.21,8.36,20.3,12.68l1.47,7.63s-2.52.39-5.38.72a22.84,22.84,0,0,1-5.95-.07,7.68,7.68,0,0,1-2.43-.94,13.88,13.88,0,0,1-5.22-5.58,22.92,22.92,0,0,1-2.59-8.85A33.54,33.54,0,0,1,1690.92,281.21Z" transform="translate(-1027.33 -129.89)"/></g><path class="cls-25" d="M1718.69,302.55a1.16,1.16,0,0,1-.88,1.39l-3.38.65a1.16,1.16,0,0,1-1.33-1h0a1.16,1.16,0,0,1,.88-1.39l3.38-.65a1.16,1.16,0,0,1,1.33,1Z" transform="translate(-1027.33 -129.89)"/><path class="cls-25" d="M1690.88,283.11l-1.23,15.55s-.6-15-3.13-18.81l1.23-1.37Z" transform="translate(-1027.33 -129.89)"/><g class="cls-40"><path class="cls-25" d="M1714,288.08a2.37,2.37,0,0,0-2.8,1.49,4.35,4.35,0,0,0,.12,2.16c.63,3.29,2.12,10.79,2.12,10.79Z" transform="translate(-1027.33 -129.89)"/></g><g class="cls-41"><path class="cls-25" d="M1715.13,304.46l-.79.15a1.22,1.22,0,0,1-1.24-1h0a1.19,1.19,0,0,1,.77-1.36l.81-.16Z" transform="translate(-1027.33 -129.89)"/></g><g class="cls-40"><path class="cls-25" d="M1696.69,237.65s3.85-1,6.4-.41a6,6,0,0,1,3.27,2.43,5.62,5.62,0,0,0-4-2C1700.12,237.52,1698.58,237.78,1696.69,237.65Z" transform="translate(-1027.33 -129.89)"/></g><path class="cls-25" d="M1721.42,253c-4.28-2.8.75-22.73-9.32-28a26.33,26.33,0,0,0-13.94-2.31c-13.79,1.64-7.53,22.74-12,37-1.44,4.53-3.67,8.08-2.38,13.23.37,1.49,3.47,8.39,3.47,8.39l1.34-1.45c-5.87-11.18-3-12.94-1.08-19.48,2.54-8.59,2.88-22.11,3.32-25.26,2.09-14.91,17.95-13.31,23.86-4.7,4,5.81,2,20.28,5.74,23.34,4.23,3.5,12.51.28,20.06,1.88,6.6,1.4,7.74,5.61,7.77,6.1.28,4.36-7.05.71-10.62.73s-4.75,7.66-4.75,7.66l1.64,1.45s-.06-8.26,4.12-7.88c3.36.3,10.83,2.54,10.74-1.06-.13-5-3.45-7.81-9.34-8.5C1733.45,253.29,1725.84,255.9,1721.42,253Z" transform="translate(-1027.33 -129.89)"/><path class="cls-6" d="M1712.11,205.28c1.32-3,3.55-8.69,6.41-10.28,5.71-3.17,3.51,8.3,2.24,13.09-4.47,16.89-5.18,22-11.41,32.32-5.63,9.29-18.34,6.15-15.21-4.7C1697.08,225.52,1707.8,215,1712.11,205.28Z" transform="translate(-1027.33 -129.89)"/><path class="cls-6" d="M1713.45,201.74c2.7-3.46-.85-10.25,1.28-14,1.08.81,1.69.94,2.77,1.75,0,0,.77-2.7,1.19-4.89.18-.8-.79-6.06.73-7.14,1.13-.78,5.82,2.87,6.41,3.64s3.45,6.62,3.77,9.72c.14,1.1-8.38,14.06-8.38,14.06" transform="translate(-1027.33 -129.89)"/><path class="cls-42" d="M1708.86,190l8.68-27.23c.35-1.09,1.29-1.85,2.11-1.68l-.44-.09c-.82-.16-1.76.59-2.11,1.68l-8.68,27.23c-.35,1.09,0,2.11.85,2.28l.44.09C1708.89,192.12,1708.51,191.1,1708.86,190Z" transform="translate(-1027.33 -129.89)"/><path class="cls-43" d="M1733.5,163.87l-.44-.09-13.4-2.7c-.82-.16-1.76.59-2.11,1.68L1708.86,190c-.35,1.09,0,2.11.85,2.28l13.4,2.7.44.09c.82.16,1.76-.59,2.11-1.68l8.68-27.23C1734.69,165.06,1734.31,164,1733.5,163.87Z" transform="translate(-1027.33 -129.89)"/><path class="cls-42" d="M1724.26,178.61c-.53,1.66-2,2.81-3.21,2.56s-1.82-1.8-1.29-3.46,2-2.81,3.21-2.56S1724.79,177,1724.26,178.61Z" transform="translate(-1027.33 -129.89)"/><path class="cls-6" d="M1713.82,202.83c2.7-3.46,5.14-10.51,5.59-16.1.18-.8-1.5-8.21,0-9.29,1.13-.78,5.82,2.87,6.41,3.64s3.45,6.62,3.77,9.72c.14,1.1-8.38,14.06-8.38,14.06Z" transform="translate(-1027.33 -129.89)"/></g><g id="Layer_4" data-name="Layer 4"><path class="cls-44" d="M1544,490.24l1.25-.71a1.16,1.16,0,0,1-.73-.57,6.3,6.3,0,0,1-1.08-3c-.43-.41-1.27-.13-1.83,0A5.46,5.46,0,0,0,1544,490.24Z" transform="translate(-1027.33 -129.89)"/><path class="cls-9" d="M1548.76,488.61a8.26,8.26,0,0,0-1.7-5,5.35,5.35,0,0,0-4.73-2,4,4,0,0,0-3.42,3.58,4.62,4.62,0,0,0,2,3.65,13.66,13.66,0,0,0,3.88,1.84c-1.45-.94-3.47-3.74-2.77-4.37,1.46-.94,4,1.45,4.3,3.43C1547.21,489.57,1547.82,488.76,1548.76,488.61Z" transform="translate(-1027.33 -129.89)"/><path class="cls-9" d="M1550.91,490.92a4,4,0,1,0-7.28,2.93C1545.85,493.2,1548.69,491.57,1550.91,490.92Z" transform="translate(-1027.33 -129.89)"/><path class="cls-8" d="M1634.53,665.11c13-10.31.2-22.18-6-31.42-9.11-13.59-11.3-27.19-13.77-42.87a20.91,20.91,0,0,0-25.87-16.69c-41.53,11.15,6.21,73.89,22.64,88.64,6.59,5.92,14.87,8.77,23,2.37Z" transform="translate(-1027.33 -129.89)"/><path class="cls-8" d="M1693.95,605.37c-8.47,4.88-17.09,9.6-25.76,14-8.33,4.21-16.79,8.18-25.38,11.84-7.72,3.29-16.57,5.4-23.85,9.54a15.42,15.42,0,0,0-5.8,21c10.68,18.81,36.3-2.5,47.74-9.67a431.1,431.1,0,0,0,40.68-29.23A31.88,31.88,0,0,1,1693.95,605.37Z" transform="translate(-1027.33 -129.89)"/><path class="cls-45" d="M1718.47,600.06a7.26,7.26,0,0,0-10-2.31,48.78,48.78,0,0,0-8.71,4.22,22.45,22.45,0,0,0,8.65,15.34c5.25-4.32,3.48-3.44,8.64-7.9A7.26,7.26,0,0,0,1718.47,600.06Z" transform="translate(-1027.33 -129.89)"/><path class="cls-30" d="M1699.76,602q-2.89,1.71-5.82,3.39a31.88,31.88,0,0,0,7.64,17.49q3.43-2.75,6.82-5.54A22.45,22.45,0,0,1,1699.76,602Z" transform="translate(-1027.33 -129.89)"/><path class="cls-8" d="M1470.48,665.19c-13-10.29-.22-22.18,6-31.43,9.1-13.6,11.27-27.2,13.72-42.89A20.91,20.91,0,0,1,1516,574.16c41.54,11.1-6.13,73.89-22.55,88.67-6.59,5.93-14.86,8.79-23,2.39Z" transform="translate(-1027.33 -129.89)"/><path class="cls-8" d="M1411,605.51c8.48,4.87,17.1,9.58,25.77,14,8.33,4.21,16.8,8.16,25.39,11.81,7.72,3.28,16.57,5.39,23.86,9.52a15.42,15.42,0,0,1,5.82,21c-10.67,18.82-36.31-2.47-47.75-9.62A431.1,431.1,0,0,1,1403.38,623,31.88,31.88,0,0,0,1411,605.51Z" transform="translate(-1027.33 -129.89)"/><path class="cls-45" d="M1386.42,600.41a7.26,7.26,0,0,1,10-2.32l.09.06c5.11,3.17,3.41.88,8.68,4a22.45,22.45,0,0,1-8.63,15.35c-5.25-4.32-3.54-3.26-8.71-7.72A7.26,7.26,0,0,1,1386.42,600.41Z" transform="translate(-1027.33 -129.89)"/><path class="cls-30" d="M1405.19,602.13q2.9,1.71,5.82,3.39a31.88,31.88,0,0,1-7.63,17.5q-3.43-2.74-6.82-5.54A22.45,22.45,0,0,0,1405.19,602.13Z" transform="translate(-1027.33 -129.89)"/><path class="cls-6" d="M1599.53,739.51a29.18,29.18,0,0,0-9.08-14.38c-7.1-6-16.27-7.51-24.12-3.9-6.8,3.13-12.1,9.83-14.4,18.18-2.66,9.69-.43,18.29,2.84,27.51a363.35,363.35,0,0,1,17.89,75.55c1.13,9,.82,20.46,10,23.24,6,1.84,12-2.53,13.26-9.77a431.72,431.72,0,0,0,6.85-70c.14-11.93-.29-23.9-1.34-35.83A53.43,53.43,0,0,0,1599.53,739.51Z" transform="translate(-1027.33 -129.89)"/><path class="cls-17" d="M1566.61,955.89c.31,3,.72,5.9,1.11,8.85.44,3.41.45,9.86.45,9.86a6.92,6.92,0,0,0,13.78-.84s0-.25,0-.27c.05-7.12.52-18.73.88-25.84a27.92,27.92,0,0,1-16.93.81C1566.12,950.94,1566.35,953.41,1566.61,955.89Z" transform="translate(-1027.33 -129.89)"/><path class="cls-6" d="M1594,834.33a15.34,15.34,0,0,0-8.29-3.71c-9.48-1.13-15.84,6-17.09,14.68-1.75,12.13-2.95,24.36-3.68,36.59a449.57,449.57,0,0,0,1,66.57,27.92,27.92,0,0,0,16.93-.81,461,461,0,0,1,5.21-50q2.88-17.86,7.24-35.43C1597.62,852.84,1602.72,842,1594,834.33Z" transform="translate(-1027.33 -129.89)"/><path class="cls-46" d="M1584.73,953.24c27.95-88.17,20.11-165.43,17.18-245.62-20.25,4.21-59.38,16.83-58.84,16.36,1.92,35.75,18.16,67.33,19.29,110.08.83,31.36-9.35,34.64,1.78,118C1569.88,954.94,1579,955.72,1584.73,953.24Z" transform="translate(-1027.33 -129.89)"/><path class="cls-7" d="M1610.75,988.11a3.5,3.5,0,0,0-1.22,0,1.12,1.12,0,0,0-1,.73,2.19,2.19,0,0,1-2.12,1.35,171.5,171.5,0,0,1-33.39-4.85c-2.56-.64-5.23-1.41-7.25-3.05a2.75,2.75,0,0,0-1.9,2.77,3,3,0,0,0,2.44,2.6l3.12.51c5,.83,10,1.68,15,2.37a125.39,125.39,0,0,0,14.53,1.31,53.14,53.14,0,0,0,6.38-.21c1-.1,1.9-.22,2.85-.4,1.21-.23,2.57-.24,3-1.61a1.44,1.44,0,0,0-.21-1.37A.63.63,0,0,0,1610.75,988.11Z" transform="translate(-1027.33 -129.89)"/><path class="cls-47" d="M1585.94,975.78a6.39,6.39,0,0,0,2,1.87l3.52,2.49a14.71,14.71,0,0,0,2.37,1.46,10.34,10.34,0,0,0,5.55.61c-5.37-1.52-10.1-3.83-13.45-8.73A2.26,2.26,0,0,0,1585.94,975.78Z" transform="translate(-1027.33 -129.89)"/><path class="cls-7" d="M1583.58,969.72a3.86,3.86,0,0,1,1.11,3,14.17,14.17,0,0,1-3.68,1.23l-.63-3.25C1581.31,970.35,1582.65,970.05,1583.58,969.72Z" transform="translate(-1027.33 -129.89)"/><path class="cls-7" d="M1566.74,974.7a2.66,2.66,0,0,0,.79-1.83c.06-.68,0-1.36,0-2a5.79,5.79,0,0,1,.62-2.19,2.94,2.94,0,0,0-1.93,1.32,6.82,6.82,0,0,0-.83,3.18c0,.62-.07,1.23-.08,1.85A1.51,1.51,0,0,0,1566.74,974.7Z" transform="translate(-1027.33 -129.89)"/><path class="cls-47" d="M1596.92,985.7a4.53,4.53,0,0,0-2.46-2.68,17.34,17.34,0,0,0-2.94-.71,15.06,15.06,0,0,1-4.34-2,36.44,36.44,0,0,1-7.91-6.47c-.3-.28-.53-1.08-.83-1.36-3.2-.36-4.63,3.78-8.51.9-2-2-.82-4.2-.88-4.73a2,2,0,0,0-.89,0,5.79,5.79,0,0,0-.62,2.19c0,.68,0,1.36,0,2a2.66,2.66,0,0,1-.79,1.83,1.51,1.51,0,0,1-1.42.29c0,.09,0,.19,0,.28a7.66,7.66,0,0,0,7.07,1.36c1.45-.47,2.9-1.4,4.38-1a5.31,5.31,0,0,1,1.72.92l10.84,7.63-7.24,3.2q7.14,1.37,14.39,2.12a1.69,1.69,0,0,0,.11-.15A4.53,4.53,0,0,0,1596.92,985.7Z" transform="translate(-1027.33 -129.89)"/><path class="cls-30" d="M1576.76,975.6c-1.48-.37-2.93.56-4.38,1a7.66,7.66,0,0,1-7.07-1.36c0,1,0,1.93.08,2.9a13.24,13.24,0,0,1,7.59,7.19l.08,0q4.48,1.11,9,2l7.24-3.2-10.84-7.63A5.31,5.31,0,0,0,1576.76,975.6Z" transform="translate(-1027.33 -129.89)"/><path class="cls-47" d="M1565.38,978.18a36,36,0,0,0,.46,4.13l0,0a18,18,0,0,0,7.17,3A13.24,13.24,0,0,0,1565.38,978.18Z" transform="translate(-1027.33 -129.89)"/><path class="cls-47" d="M1609.47,984.95a5.12,5.12,0,0,1-2.74.78,32.1,32.1,0,0,0-3.74,0,6.31,6.31,0,0,0-4.83,3.87c2.76.26,5.52.48,8.28.61a2.19,2.19,0,0,0,2.12-1.35v0a1.11,1.11,0,0,1,.94-.7l1.24-.09A4.7,4.7,0,0,0,1609.47,984.95Z" transform="translate(-1027.33 -129.89)"/><path class="cls-30" d="M1603,985.75a32.1,32.1,0,0,1,3.74,0,5.12,5.12,0,0,0,2.74-.78,2.89,2.89,0,0,0-1.44-.77c-3-.61-5.92-1.18-8.69-2a10.34,10.34,0,0,1-5.55-.61,14.71,14.71,0,0,1-2.37-1.46l-3.52-2.49a6.39,6.39,0,0,1-2-1.87,2.26,2.26,0,0,1,0-2.29l0,0a4.55,4.55,0,0,0-1.95-3.67c-1.44.9-3,.86-4.62,1.29-.72.81-.24,1.74,0,2.8a36.44,36.44,0,0,0,7.91,6.47,15.06,15.06,0,0,0,4.34,2,17.34,17.34,0,0,1,2.94.71,4.47,4.47,0,0,1,2.12,6.3,1.69,1.69,0,0,1-.11.15l1.71.16A6.31,6.31,0,0,1,1603,985.75Z" transform="translate(-1027.33 -129.89)"/><path class="cls-8" d="M1593.58,983.74l-.07,0a.17.17,0,0,1-.08-.23,3.61,3.61,0,0,1,4.59-1.79.18.18,0,0,1,.1.22.17.17,0,0,1-.22.1,3.27,3.27,0,0,0-4.15,1.62A.17.17,0,0,1,1593.58,983.74Z" transform="translate(-1027.33 -129.89)"/><path class="cls-8" d="M1593.35,982.81h0a.18.18,0,0,1-.14-.2,4,4,0,0,0-.2-2.1.17.17,0,0,1,.32-.12,4.36,4.36,0,0,1,.22,2.28A.17.17,0,0,1,1593.35,982.81Z" transform="translate(-1027.33 -129.89)"/><path class="cls-8" d="M1590.44,982.67a.17.17,0,0,1-.16-.12.17.17,0,0,1,.11-.22,12.12,12.12,0,0,1,4.46-.52.17.17,0,0,1,0,.34h0a11.54,11.54,0,0,0-4.33.51Z" transform="translate(-1027.33 -129.89)"/><path class="cls-8" d="M1590.5,982.16h0a.17.17,0,0,1-.14-.2,8.64,8.64,0,0,0,.06-2.93.17.17,0,0,1,.34-.05,9,9,0,0,1-.06,3A.17.17,0,0,1,1590.5,982.16Z" transform="translate(-1027.33 -129.89)"/><path class="cls-8" d="M1587.57,981.35a.17.17,0,0,1-.14-.07.17.17,0,0,1,0-.24,5.21,5.21,0,0,1,4.84-.59.17.17,0,0,1,.1.22.17.17,0,0,1-.22.1,4.91,4.91,0,0,0-4.51.55A.17.17,0,0,1,1587.57,981.35Z" transform="translate(-1027.33 -129.89)"/><path class="cls-8" d="M1587.61,980.72h-.06a.17.17,0,0,1-.1-.22l1-2.72a.17.17,0,0,1,.32.12l-1,2.72A.17.17,0,0,1,1587.61,980.72Z" transform="translate(-1027.33 -129.89)"/><path class="cls-8" d="M1585.47,979.87a.17.17,0,0,1-.15-.09.17.17,0,0,1,.06-.24A5.76,5.76,0,0,1,1590,979a.18.18,0,0,1,.11.22.17.17,0,0,1-.22.11,5.39,5.39,0,0,0-4.34.48Z" transform="translate(-1027.33 -129.89)"/><path class="cls-8" d="M1585.76,979.38a.17.17,0,0,1-.1,0,.17.17,0,0,1,0-.24,5.48,5.48,0,0,0,1.08-2.86.17.17,0,0,1,.17-.16h0a.17.17,0,0,1,.16.19,5.83,5.83,0,0,1-1.15,3A.17.17,0,0,1,1585.76,979.38Z" transform="translate(-1027.33 -129.89)"/><path class="cls-8" d="M1583.23,978.44a.17.17,0,0,1-.06-.33,10.06,10.06,0,0,1,4.86-.54.17.17,0,0,1,.15.19.16.16,0,0,1-.19.15,9.7,9.7,0,0,0-4.69.52Z" transform="translate(-1027.33 -129.89)"/><path class="cls-8" d="M1586.15,976.33h-.06a8.92,8.92,0,0,0-5.27-.15.18.18,0,0,1-.21-.12.17.17,0,0,1,.12-.21,9.25,9.25,0,0,1,5.47.16.17.17,0,0,1-.06.34Z" transform="translate(-1027.33 -129.89)"/><path class="cls-8" d="M1583.54,978a.17.17,0,0,1-.14-.27l2.41-3.48a.18.18,0,0,1,.24,0,.17.17,0,0,1,0,.24l-2.41,3.48A.18.18,0,0,1,1583.54,978Z" transform="translate(-1027.33 -129.89)"/><path class="cls-8" d="M1579.84,978.16a1.57,1.57,0,0,1-1.41-.91,1.85,1.85,0,0,1,.26-1.78,3.26,3.26,0,0,1,1.43-1.06,6,6,0,0,1,3.67-.3l.24.06-.13.2a16.48,16.48,0,0,1-2.47,3,2.66,2.66,0,0,1-1.37.81Zm2.58-3.88a5.52,5.52,0,0,0-2.16.44,2.91,2.91,0,0,0-1.28.94,1.52,1.52,0,0,0-.23,1.44,1.22,1.22,0,0,0,1.24.69,2.37,2.37,0,0,0,1.19-.72,16,16,0,0,0,2.28-2.7A5.42,5.42,0,0,0,1582.42,974.29Z" transform="translate(-1027.33 -129.89)"/><path class="cls-8" d="M1587.65,975.84a5.54,5.54,0,0,1-3.92-1.62l-.12-.12.12-.12a3.63,3.63,0,0,1,5.17,0,1.16,1.16,0,0,1,.34,1.37,1.19,1.19,0,0,1-.88.45A5.28,5.28,0,0,1,1587.65,975.84Zm-3.55-1.74a5.2,5.2,0,0,0,3.55,1.4,4.9,4.9,0,0,0,.66,0,.85.85,0,0,0,.64-.29c.17-.27,0-.67-.3-.94a3.28,3.28,0,0,0-4.56-.12Z" transform="translate(-1027.33 -129.89)"/><path class="cls-8" d="M1582.7,981.6a.17.17,0,0,1-.17-.16,16.05,16.05,0,0,1,1.13-7.15l.11-.27.18.23a8.91,8.91,0,0,0,6.59,3.41.17.17,0,0,1,0,.34h0a9.24,9.24,0,0,1-6.66-3.31,15.74,15.74,0,0,0-1,6.72.17.17,0,0,1-.16.19Z" transform="translate(-1027.33 -129.89)"/><path class="cls-6" d="M1506.78,734.93a29.18,29.18,0,0,1,9.59-14.05c7.31-5.77,16.53-6.93,24.24-3,6.68,3.37,11.75,10.25,13.74,18.68,2.32,9.78-.22,18.29-3.81,27.4A363.35,363.35,0,0,0,1530,838.78c-1.45,8.91-1.55,20.41-10.83,22.87-6.11,1.62-11.89-3-12.91-10.24a431.72,431.72,0,0,1-4.36-70.19c.28-11.93,1.14-23.88,2.61-35.76A53.43,53.43,0,0,1,1506.78,734.93Z" transform="translate(-1027.33 -129.89)"/><path class="cls-17" d="M1532,952.34c-.42,2.95-.93,5.87-1.42,8.81-.56,3.4-1.58,11.16-1.58,11.16a6.92,6.92,0,0,1-13.74-1.33v-.27c.2-7.11.92-20.06.81-27.17a27.92,27.92,0,0,0,16.89,1.41C1532.67,947.41,1532.36,949.87,1532,952.34Z" transform="translate(-1027.33 -129.89)"/><path class="cls-6" d="M1509,829.89a15.35,15.35,0,0,1,8.42-3.41c9.51-.79,15.62,6.54,16.56,15.27,1.32,12.19,2.08,24.44,2.38,36.7a449.57,449.57,0,0,1-3.35,66.49,27.92,27.92,0,0,1-16.89-1.41,461,461,0,0,0-3.43-50.15q-2.24-17.95-6-35.67C1504.67,848.26,1500,837.28,1509,829.89Z" transform="translate(-1027.33 -129.89)"/><path class="cls-46" d="M1514.26,951.25c-24.8-89.11-14.5-168.25-8.73-248.28,20.08,4.92,58.75,18.92,58.22,18.44-3.19,35.65-20.53,66.64-23.18,109.33-1.94,31.31,7.42,37.85-6.66,120.75C1528.08,954.17,1519.91,953.93,1514.26,951.25Z" transform="translate(-1027.33 -129.89)"/><path class="cls-7" d="M1487.07,988.17a3.5,3.5,0,0,1,1.22,0,1.12,1.12,0,0,1,1,.72,2.19,2.19,0,0,0,2.12,1.35,171.5,171.5,0,0,0,33.39-4.88c2.56-.64,5.23-1.41,7.25-3.06a2.75,2.75,0,0,1,1.91,2.77,3,3,0,0,1-2.44,2.6l-3.12.52c-5,.83-10,1.69-15,2.38a125.39,125.39,0,0,1-14.53,1.33,53.14,53.14,0,0,1-6.38-.2c-1-.09-1.9-.22-2.85-.4-1.21-.23-2.57-.24-3-1.61a1.44,1.44,0,0,1,.21-1.37A.63.63,0,0,1,1487.07,988.17Z" transform="translate(-1027.33 -129.89)"/><path class="cls-47" d="M1511.87,975.82a6.39,6.39,0,0,1-2,1.87l-3.51,2.49a14.71,14.71,0,0,1-2.37,1.46,10.34,10.34,0,0,1-5.55.62c5.37-1.52,10.1-3.84,13.44-8.74A2.26,2.26,0,0,1,1511.87,975.82Z" transform="translate(-1027.33 -129.89)"/><path class="cls-7" d="M1514.22,969.76a3.86,3.86,0,0,0-1.1,3,14.17,14.17,0,0,0,3.68,1.23l.62-3.25C1516.49,970.39,1515.16,970.09,1514.22,969.76Z" transform="translate(-1027.33 -129.89)"/><path class="cls-7" d="M1531.07,974.72a2.66,2.66,0,0,1-.79-1.83c-.06-.68,0-1.36,0-2a5.8,5.8,0,0,0-.62-2.19,2.94,2.94,0,0,1,1.93,1.32,6.83,6.83,0,0,1,.84,3.18c0,.62.07,1.23.09,1.85A1.51,1.51,0,0,1,1531.07,974.72Z" transform="translate(-1027.33 -129.89)"/><path class="cls-47" d="M1500.9,985.75a4.53,4.53,0,0,1,2.46-2.68,17.34,17.34,0,0,1,2.94-.71,15.06,15.06,0,0,0,4.34-2,36.44,36.44,0,0,0,7.9-6.48c.3-.28.53-1.08.83-1.36,3.2-.36,4.63,3.78,8.51.89,2-2,.82-4.2.88-4.73a2,2,0,0,1,.89,0,5.8,5.8,0,0,1,.62,2.19c0,.68,0,1.36,0,2a2.66,2.66,0,0,0,.79,1.83,1.51,1.51,0,0,0,1.42.29c0,.09,0,.19,0,.28a7.66,7.66,0,0,1-7.07,1.37c-1.45-.47-2.9-1.4-4.38-1a5.31,5.31,0,0,0-1.72.92l-10.84,7.64,7.25,3.2q-7.14,1.37-14.38,2.13a1.69,1.69,0,0,1-.11-.15A4.53,4.53,0,0,1,1500.9,985.75Z" transform="translate(-1027.33 -129.89)"/><path class="cls-30" d="M1521.05,975.63c1.48-.37,2.93.56,4.38,1a7.66,7.66,0,0,0,7.07-1.37c0,1,0,1.93-.08,2.9a13.24,13.24,0,0,0-7.58,7.19l-.08,0q-4.48,1.11-9,2l-7.25-3.2,10.84-7.64A5.31,5.31,0,0,1,1521.05,975.63Z" transform="translate(-1027.33 -129.89)"/><path class="cls-47" d="M1532.43,978.19a36,36,0,0,1-.46,4.13l0,0a18,18,0,0,1-7.16,3A13.24,13.24,0,0,1,1532.43,978.19Z" transform="translate(-1027.33 -129.89)"/><path class="cls-47" d="M1488.34,985a5.12,5.12,0,0,0,2.74.78,32.11,32.11,0,0,1,3.74,0,6.31,6.31,0,0,1,4.83,3.87c-2.76.27-5.52.49-8.28.61a2.19,2.19,0,0,1-2.12-1.35v0a1.11,1.11,0,0,0-.95-.7l-1.24-.09A4.7,4.7,0,0,1,1488.34,985Z" transform="translate(-1027.33 -129.89)"/><path class="cls-30" d="M1494.82,985.81a32.11,32.11,0,0,0-3.74,0,5.12,5.12,0,0,1-2.74-.78,2.89,2.89,0,0,1,1.44-.77c3-.61,5.92-1.19,8.68-2a10.34,10.34,0,0,0,5.55-.62,14.71,14.71,0,0,0,2.37-1.46l3.51-2.49a6.39,6.39,0,0,0,2-1.87,2.26,2.26,0,0,0,0-2.29l0,0a4.55,4.55,0,0,1,1.94-3.67c1.44.9,3,.86,4.62,1.29.72.8.24,1.74,0,2.8a36.44,36.44,0,0,1-7.9,6.48,15.06,15.06,0,0,1-4.34,2,17.34,17.34,0,0,0-2.94.71,4.47,4.47,0,0,0-2.11,6.3,1.69,1.69,0,0,0,.11.15l-1.71.16A6.31,6.31,0,0,0,1494.82,985.81Z" transform="translate(-1027.33 -129.89)"/><path class="cls-8" d="M1504.24,983.78a.17.17,0,0,1-.16-.1,3.28,3.28,0,0,0-4.15-1.61.17.17,0,0,1-.22-.1.17.17,0,0,1,.1-.22,3.61,3.61,0,0,1,4.59,1.78.17.17,0,0,1-.08.23Z" transform="translate(-1027.33 -129.89)"/><path class="cls-8" d="M1504.47,982.85a.17.17,0,0,1-.17-.14,4.36,4.36,0,0,1,.21-2.28.17.17,0,0,1,.22-.1.17.17,0,0,1,.1.22,4,4,0,0,0-.19,2.1.17.17,0,0,1-.14.2Z" transform="translate(-1027.33 -129.89)"/><path class="cls-8" d="M1507.37,982.71h-.05a11.6,11.6,0,0,0-4.33-.5.18.18,0,0,1-.19-.16.17.17,0,0,1,.16-.19,12,12,0,0,1,4.46.52.17.17,0,0,1,.11.22A.17.17,0,0,1,1507.37,982.71Z" transform="translate(-1027.33 -129.89)"/><path class="cls-8" d="M1507.31,982.2a.17.17,0,0,1-.17-.14,9,9,0,0,1-.06-3,.16.16,0,0,1,.2-.14.17.17,0,0,1,.14.2,8.64,8.64,0,0,0,.06,2.93.17.17,0,0,1-.14.2Z" transform="translate(-1027.33 -129.89)"/><path class="cls-8" d="M1510.24,981.38a.16.16,0,0,1-.1,0,4.94,4.94,0,0,0-4.51-.54.17.17,0,1,1-.13-.32,5.2,5.2,0,0,1,4.84.58.17.17,0,0,1,0,.24A.17.17,0,0,1,1510.24,981.38Z" transform="translate(-1027.33 -129.89)"/><path class="cls-8" d="M1510.21,980.76a.17.17,0,0,1-.16-.11l-1-2.72a.17.17,0,0,1,.32-.12l1,2.72a.17.17,0,0,1-.1.22Z" transform="translate(-1027.33 -129.89)"/><path class="cls-8" d="M1512.35,979.9l-.09,0a5.39,5.39,0,0,0-4.34-.48.17.17,0,1,1-.11-.33,5.76,5.76,0,0,1,4.62.51.17.17,0,0,1,.06.24A.17.17,0,0,1,1512.35,979.9Z" transform="translate(-1027.33 -129.89)"/><path class="cls-8" d="M1512.05,979.42a.17.17,0,0,1-.14-.07,5.81,5.81,0,0,1-1.15-3,.17.17,0,0,1,.16-.19h0a.17.17,0,0,1,.17.16,5.47,5.47,0,0,0,1.08,2.86.17.17,0,0,1,0,.24A.17.17,0,0,1,1512.05,979.42Z" transform="translate(-1027.33 -129.89)"/><path class="cls-8" d="M1514.58,978.48h-.06a9.74,9.74,0,0,0-4.69-.52h0a.17.17,0,0,1,0-.34,10,10,0,0,1,4.86.53.17.17,0,0,1-.06.33Z" transform="translate(-1027.33 -129.89)"/><path class="cls-8" d="M1511.66,976.37a.17.17,0,0,1-.06-.33,9.3,9.3,0,0,1,5.47-.17.17.17,0,1,1-.09.33,9,9,0,0,0-5.27.16Z" transform="translate(-1027.33 -129.89)"/><path class="cls-8" d="M1514.27,978a.17.17,0,0,1-.14-.07l-2.41-3.48a.17.17,0,0,1,.29-.2l2.41,3.48a.17.17,0,0,1,0,.24A.16.16,0,0,1,1514.27,978Z" transform="translate(-1027.33 -129.89)"/><path class="cls-8" d="M1518,978.2h-.2a2.65,2.65,0,0,1-1.37-.81,16.5,16.5,0,0,1-2.48-3l-.13-.2.24-.06a6,6,0,0,1,3.67.3,3.31,3.31,0,0,1,1.43,1.06,1.85,1.85,0,0,1,.26,1.78A1.57,1.57,0,0,1,1518,978.2Zm-3.63-3.77a16.1,16.1,0,0,0,2.29,2.69,2.35,2.35,0,0,0,1.19.72,1.2,1.2,0,0,0,1.24-.7,1.52,1.52,0,0,0-.23-1.44,3,3,0,0,0-1.28-.94A5.58,5.58,0,0,0,1514.34,974.42Z" transform="translate(-1027.33 -129.89)"/><path class="cls-8" d="M1510.16,975.88h0a5.52,5.52,0,0,1-.7,0,1.18,1.18,0,0,1-.89-.45,1.15,1.15,0,0,1,.34-1.37,3.62,3.62,0,0,1,5.17,0l.12.12-.12.12A5.55,5.55,0,0,1,1510.16,975.88Zm1.34-2.61a3.31,3.31,0,0,0-2.34,1c-.27.28-.47.67-.3.94a.85.85,0,0,0,.64.29,5.18,5.18,0,0,0,.66,0h0a5.19,5.19,0,0,0,3.55-1.4A3.31,3.31,0,0,0,1511.49,973.27Z" transform="translate(-1027.33 -129.89)"/><path class="cls-8" d="M1515.11,981.64h0a.17.17,0,0,1-.16-.19,15.76,15.76,0,0,0-1-6.72,9.25,9.25,0,0,1-6.66,3.32h0a.17.17,0,0,1,0-.34,8.92,8.92,0,0,0,6.58-3.42l.18-.23.11.27a16.08,16.08,0,0,1,1.13,7.15A.17.17,0,0,1,1515.11,981.64Z" transform="translate(-1027.33 -129.89)"/><path class="cls-1" d="M1567.14,560.51a67.66,67.66,0,0,1-14,1.65A67.66,67.66,0,0,0,1567.14,560.51Z" transform="translate(-1027.33 -129.89)"/><path class="cls-30" d="M1546.08,561.89a67.92,67.92,0,0,0,21.05-1.38q1.72-.39,3.42-.87a64.22,64.22,0,0,0,9.91-3.7h0a23.56,23.56,0,0,1-4.57-4.86,48.88,48.88,0,0,1-45.51.49,38.38,38.38,0,0,1-4.73,5.09,64,64,0,0,0,10,3.44q1.71.44,3.44.78A67.06,67.06,0,0,0,1546.08,561.89Z" transform="translate(-1027.33 -129.89)"/><path class="cls-8" d="M1617.14,603.82a46.76,46.76,0,0,0-.83-9.59,42,42,0,0,0-5-13.16A46.78,46.78,0,0,0,1593.57,564c-4.36-2.46-9.16-4.81-13.11-8.06a64.26,64.26,0,0,1-9.91,3.7q-1.7.48-3.42.87a67.74,67.74,0,0,1-28,.37q-1.73-.34-3.44-.78a64,64,0,0,1-10-3.44,90.65,90.65,0,0,1-13.57,9.78c-5.84,3.61-11.74,7.39-16,12.74-5.24,6.53-6.58,15.18-6,24A482.32,482.32,0,0,1,1617.14,603.82Z" transform="translate(-1027.33 -129.89)"/><path class="cls-30" d="M1616.75,609.72a56.68,56.68,0,0,0,.39-5.9,482.32,482.32,0,0,0-127.12-.63c.08,1.34.21,2.68.37,4A440.79,440.79,0,0,1,1616.75,609.72Z" transform="translate(-1027.33 -129.89)"/><path class="cls-30" d="M1492.95,620.33c.43,1.64.87,3.24,1.33,4.78a424,424,0,0,1,118.24,2.42q.77-2.36,1.47-4.74A438.6,438.6,0,0,0,1492.95,620.33Z" transform="translate(-1027.33 -129.89)"/><path class="cls-7" d="M1614,622.8c.11-.37.23-.74.34-1.11a76,76,0,0,0,2.43-12,440.79,440.79,0,0,0-126.36-2.51,99.71,99.71,0,0,0,2.56,13.12A438.6,438.6,0,0,1,1614,622.8Z" transform="translate(-1027.33 -129.89)"/><path class="cls-8" d="M1553.14,562.16a68,68,0,0,1-7.05-.27A67.94,67.94,0,0,0,1553.14,562.16Z" transform="translate(-1027.33 -129.89)"/><path class="cls-8" d="M1546.08,561.89a67.06,67.06,0,0,1-7-1A67.06,67.06,0,0,0,1546.08,561.89Z" transform="translate(-1027.33 -129.89)"/><path class="cls-8" d="M1570.56,559.64a64.26,64.26,0,0,0,9.91-3.7h0A64.22,64.22,0,0,1,1570.56,559.64Z" transform="translate(-1027.33 -129.89)"/><path class="cls-30" d="M1523.11,735.61c-7-.71-14.15-1.77-20.44-4.77-.23,2.64-.39,4.89-.42,6.54,0,0,14.27,6.77,50.57,6.35,33.68-.39,53.48-4.21,53.48-4.21-.27-1.77-.61-4.11-1-6.83A301.89,301.89,0,0,1,1523.11,735.61Z" transform="translate(-1027.33 -129.89)"/><path class="cls-8" d="M1600.2,667.33c.45-2.83,1.07-5.63,1.8-8.41,1.68-6.45,4-12.82,6.25-19.19,1.47-4.05,2.93-8.11,4.27-12.19a424,424,0,0,0-118.24-2.42c.33,1.12.66,2.21,1,3.26,1.45,4.61,3.1,9.21,4.71,13.83,2.49,7.1,7.27,26.14,7.54,28.46a63.92,63.92,0,0,1,.47,8c-.07,9.33-11.87,48.45-5.31,52.21,6.28,3,13.45,4.06,20.44,4.77a301.89,301.89,0,0,0,82.2-2.93c7.2-6.76-5.92-45-6-54.68A65.08,65.08,0,0,1,1600.2,667.33Z" transform="translate(-1027.33 -129.89)"/><path class="cls-6" d="M1575.9,551.08c-.23-.33-.45-.66-.65-1-3.4-5.71-4.29-12.06-3.71-18.62,1.26-14.07,2.58-36.26-17.38-36.81-20.68-.56-19.86,22.57-18.4,36.87.86,8.36-1.36,14.75-5.38,20.06A48.88,48.88,0,0,0,1575.9,551.08Z" transform="translate(-1027.33 -129.89)"/><path class="cls-22" d="M1502.25,737.38" transform="translate(-1027.33 -129.89)"/><polygon class="cls-48" points="644.96 540.74 594.6 519.1 588.25 629.66 652.02 648.21 644.96 540.74"/><polygon class="cls-49" points="594.6 519.1 592.58 522.7 582.36 619.65 588.25 629.66 594.6 519.1"/><polygon class="cls-48" points="592.58 522.7 582.36 619.65 569.36 631.1 589.34 521.07 592.58 522.7"/><polygon class="cls-50" points="588.25 629.66 582.36 619.65 569.36 631.1 588.25 629.66"/><polygon class="cls-51" points="652.02 648.21 588.25 629.66 569.36 631.1 626.86 649.56 652.02 648.21"/><circle class="cls-52" cx="1638.79" cy="662.34" r="2.53" transform="translate(-321.2 2033.94) rotate(-80.16)"/><circle class="cls-52" cx="1657.3" cy="670.26" r="2.53" transform="matrix(0.17, -0.99, 0.99, 0.17, -313.66, 2058.75)"/><path class="cls-53" d="M1657.22,670.78a.59.59,0,0,1-.59-.56,220.14,220.14,0,0,0-5.19-35.07,11.79,11.79,0,0,0-1.55-4,6.29,6.29,0,0,0-3.52-2.72,3.11,3.11,0,0,0-3.25,1,7.65,7.65,0,0,0-1.18,3.4,150.66,150.66,0,0,0-2.28,29.86.59.59,0,0,1-.57.6h0a.59.59,0,0,1-.59-.58,151.76,151.76,0,0,1,2.3-30.09,8.54,8.54,0,0,1,1.41-3.92,4.28,4.28,0,0,1,4.45-1.46,7.5,7.5,0,0,1,4.22,3.22,12.94,12.94,0,0,1,1.72,4.36,221.19,221.19,0,0,1,5.22,35.25.59.59,0,0,1-.56.62Z" transform="translate(-1027.33 -129.89)"/><path class="cls-53" d="M1625.84,651h0a.59.59,0,0,1-.58-.59,28.14,28.14,0,0,1,4.91-15.63,7.12,7.12,0,0,1,2.61-2.53,3.24,3.24,0,0,1,3.81.57.59.59,0,0,1-.89.77,2.09,2.09,0,0,0-2.41-.28,6,6,0,0,0-2.15,2.14,27,27,0,0,0-4.7,15A.59.59,0,0,1,1625.84,651Z" transform="translate(-1027.33 -129.89)"/><polygon class="cls-54" points="653.46 518.69 611.45 512.58 615.25 602.55 667.73 603.2 653.46 518.69"/><polygon class="cls-55" points="611.45 512.58 610.13 515.91 609.73 595.84 615.25 602.55 611.45 512.58"/><polygon class="cls-54" points="610.13 515.91 609.73 595.84 600.26 607.91 607.4 515.33 610.13 515.91"/><polygon class="cls-56" points="615.25 602.55 609.73 595.84 600.26 607.91 615.25 602.55"/><polygon class="cls-55" points="667.73 603.2 615.25 602.55 600.26 607.91 647.72 609.89 667.73 603.2"/><path class="cls-57" d="M1651.3,649.61a1.68,1.68,0,0,0,1.88,1.89,2.55,2.55,0,0,0,2.18-2.3,1.68,1.68,0,0,0-1.88-1.89A2.55,2.55,0,0,0,1651.3,649.61Z" transform="translate(-1027.33 -129.89)"/><path class="cls-57" d="M1666.74,651.84a1.68,1.68,0,0,0,1.88,1.89,2.55,2.55,0,0,0,2.18-2.3,1.68,1.68,0,0,0-1.88-1.89A2.55,2.55,0,0,0,1666.74,651.84Z" transform="translate(-1027.33 -129.89)"/><path class="cls-29" d="M1668.7,652.1a.52.52,0,0,1-.5-.37,103.37,103.37,0,0,0-11.34-24.87,9.35,9.35,0,0,0-2.13-2.6,5.93,5.93,0,0,0-3.63-1.24,3.16,3.16,0,0,0-2.7,1.5,4.75,4.75,0,0,0-.38,2.72c.62,5.44,2.23,10.5,3.92,15.87.64,2,1.28,4.06,1.88,6.15a.52.52,0,1,1-1,.29c-.6-2.08-1.24-4.11-1.88-6.12-1.71-5.41-3.33-10.53-4-16.06a5.74,5.74,0,0,1,.48-3.3,4.14,4.14,0,0,1,3.58-2.07,6.81,6.81,0,0,1,4.32,1.46,10.18,10.18,0,0,1,2.37,2.87,104.42,104.42,0,0,1,11.46,25.12.52.52,0,0,1-.35.64Z" transform="translate(-1027.33 -129.89)"/><path class="cls-29" d="M1639.52,643.2a.52.52,0,0,1-.5-.39,17.72,17.72,0,0,1,1.26-12.11,6.21,6.21,0,0,1,2.16-2.6,3,3,0,0,1,3.52.23.52.52,0,1,1-.69.77,2,2,0,0,0-2.3-.11,5.27,5.27,0,0,0-1.76,2.18,16.68,16.68,0,0,0-1.18,11.4.52.52,0,0,1-.38.63Z" transform="translate(-1027.33 -129.89)"/><polygon class="cls-58" points="657.93 512.83 620.42 504.71 625.85 567.6 672.56 572.88 657.93 512.83"/><polygon class="cls-59" points="620.42 504.71 619.32 506.91 620.79 562.43 625.85 567.6 620.42 504.71"/><polygon class="cls-58" points="619.32 506.91 620.79 562.43 610 575.55 616.88 506.25 619.32 506.91"/><polygon class="cls-60" points="625.85 567.6 620.79 562.43 610 575.55 625.85 567.6"/><polygon class="cls-59" points="672.56 572.88 625.85 567.6 610 575.55 656.29 579.14 672.56 572.88"/><path class="cls-52" d="M1659.05,640.72a1.59,1.59,0,0,0,1.72,1.48,1.72,1.72,0,0,0,1.88-1.4,1.59,1.59,0,0,0-1.72-1.48A1.72,1.72,0,0,0,1659.05,640.72Z" transform="translate(-1027.33 -129.89)"/><path class="cls-52" d="M1672.84,643.69a1.59,1.59,0,0,0,1.72,1.48,1.72,1.72,0,0,0,1.88-1.4,1.59,1.59,0,0,0-1.72-1.48A1.72,1.72,0,0,0,1672.84,643.69Z" transform="translate(-1027.33 -129.89)"/><path class="cls-61" d="M1661.33,640.33h-.07a.44.44,0,0,1-.36-.5c0-.22,3.65-22.45,11.14-22.7a.46.46,0,0,1,.45.42.44.44,0,0,1-.42.45c-5.6.19-9.42,16.32-10.31,22A.44.44,0,0,1,1661.33,640.33Z" transform="translate(-1027.33 -129.89)"/><path class="cls-61" d="M1674.58,644.13h-.05a.44.44,0,0,1-.38-.49c.09-.68.16-1.16.21-1.56a19,19,0,0,0,.24-2.85.44.44,0,0,1,.44-.42h0a.44.44,0,0,1,.42.45,20,20,0,0,1-.25,3c-.06.39-.13.86-.21,1.54A.44.44,0,0,1,1674.58,644.13Z" transform="translate(-1027.33 -129.89)"/><path class="cls-61" d="M1654.78,636.59h-.09a.41.41,0,0,1-.31-.49,29.52,29.52,0,0,1,4.07-9.66l.33-.52a33.73,33.73,0,0,1,3.48-5,5,5,0,0,1,3.07-1.23h0a.41.41,0,1,1,0,.82,4.23,4.23,0,0,0-2.55,1,41.19,41.19,0,0,0-3.31,4.8l-.33.53a28.71,28.71,0,0,0-4,9.39A.41.41,0,0,1,1654.78,636.59Z" transform="translate(-1027.33 -129.89)"/><polygon class="cls-25" points="686.18 502.61 641.48 492.95 665.73 576.55 720 582.16 686.18 502.61"/><polygon class="cls-37" points="641.48 492.95 640.86 495.91 658.53 569.82 665.73 576.55 641.48 492.95"/><polygon class="cls-25" points="640.86 495.91 658.53 569.82 651.48 580.08 637.92 495.11 640.86 495.91"/><polygon class="cls-62" points="665.73 576.55 658.53 569.82 651.48 580.08 665.73 576.55"/><polygon class="cls-63" points="720 582.16 665.73 576.55 651.48 580.08 700.88 586.43 720 582.16"/><path class="cls-57" d="M1683.33,630.65a2.45,2.45,0,0,0,2.37,1.92,1.64,1.64,0,0,0,1.72-1.92,2.45,2.45,0,0,0-2.37-1.92A1.64,1.64,0,0,0,1683.33,630.65Z" transform="translate(-1027.33 -129.89)"/><path class="cls-57" d="M1699.76,634.18a2.45,2.45,0,0,0,2.37,1.92,1.64,1.64,0,0,0,1.72-1.92,2.45,2.45,0,0,0-2.37-1.92A1.64,1.64,0,0,0,1699.76,634.18Z" transform="translate(-1027.33 -129.89)"/><path class="cls-29" d="M1685.66,630a.5.5,0,0,1-.5-.46l-.1-1.15c-.51-5.73-1.71-19.14,2.14-23.63a4.1,4.1,0,0,1,2.9-1.52.53.53,0,0,1,.54.47.5.5,0,0,1-.47.54,3.07,3.07,0,0,0-2.2,1.17c-3.57,4.18-2.36,17.77-1.9,22.89l.1,1.16a.5.5,0,0,1-.46.54Z" transform="translate(-1027.33 -129.89)"/><path class="cls-29" d="M1701.72,634.63a.5.5,0,0,1-.5-.45c-.34-3.06-.79-6-1.33-8.83a.5.5,0,0,1,1-.19c.54,2.83,1,5.83,1.34,8.91a.5.5,0,0,1-.44.56Z" transform="translate(-1027.33 -129.89)"/><path class="cls-29" d="M1677.2,625.19a.47.47,0,0,1-.47-.46,38.15,38.15,0,0,1,1.81-13,10.14,10.14,0,0,1,1.51-3.18,4.32,4.32,0,0,1,3.2-1.79h0a.47.47,0,0,1,0,.95,3.44,3.44,0,0,0-2.49,1.42,9.08,9.08,0,0,0-1.36,2.88,37.25,37.25,0,0,0-1.76,12.65.47.47,0,0,1-.46.49Z" transform="translate(-1027.33 -129.89)"/><path class="cls-9" d="M1569.38,500.77l-5,1.77c6.11,3.15,5.83,23,7.38,25.87C1573.08,517.86,1572.5,509.21,1569.38,500.77Z" transform="translate(-1027.33 -129.89)"/><path class="cls-44" d="M1569.52,500.95a49.51,49.51,0,0,1-5.11,1.59,6.8,6.8,0,0,1,4.86,2.36,12.18,12.18,0,0,1,1.67,3.68c.58,1.89.95,4.08,1.36,6A37.91,37.91,0,0,0,1569.52,500.95Z" transform="translate(-1027.33 -129.89)"/><path class="cls-9" d="M1535.61,530c2-2.13,6-22.15,5.8-28.16l-1.68-.94,1.91.38s1-2.08,1-2.19a10,10,0,0,1,2-2,9.63,9.63,0,0,1,10.36-.77c1.75.92,2.75,2.4,4.18,3.67a15.34,15.34,0,0,0,8.26,4.24,40.89,40.89,0,0,0,5.56.39c-2.76-.42-6.34-13.18-18.53-14-8.71-.61-13.91,2.27-16.54,9.27-.87.42-2.14.5-3,.92C1534.52,502.56,1534.8,510.27,1535.61,530Z" transform="translate(-1027.33 -129.89)"/><path class="cls-6" d="M1540.54,512.61a11.7,11.7,0,0,1-1.27,5.72,14.29,14.29,0,0,1-3.27-2.09,6.58,6.58,0,0,1-2.06-3.24,4.3,4.3,0,0,1,.71-3.69,3.22,3.22,0,0,1,3.49-1.07A3.47,3.47,0,0,1,1540,510,6.49,6.49,0,0,1,1540.54,512.61Z" transform="translate(-1027.33 -129.89)"/><path class="cls-6" d="M1568.43,513.35a11.7,11.7,0,0,0,1.28,5.72A14.29,14.29,0,0,0,1573,517a6.58,6.58,0,0,0,2.06-3.24,4.3,4.3,0,0,0-.72-3.69,3.22,3.22,0,0,0-3.49-1.07,3.47,3.47,0,0,0-1.86,1.8A6.49,6.49,0,0,0,1568.43,513.35Z" transform="translate(-1027.33 -129.89)"/><path class="cls-44" d="M1547.51,488a3.58,3.58,0,0,0-4.18,4.85c.52-.25,1-.55,1.49-.81a2.88,2.88,0,0,1,.23-2.81A2.76,2.76,0,0,1,1547.51,488Z" transform="translate(-1027.33 -129.89)"/><path class="cls-9" d="M1541.48,501.83l.82,23.84a27,27,0,0,1,26.65-1.89c-.47-6-.87-12.2-1.34-18.21.62,1.51,1.1,2.37,1.72,3.88,2.37,5.79,1.25,12.29,2.81,18.35,1.31,5.1-3.37,10.18-7.88,12.88a18.21,18.21,0,0,1-15.22,1.39,20.54,20.54,0,0,1-11.39-10.36c-1.06-2.18-1.13-4.94-1.48-7.33,2.45-3.6,2.92-8.44,3.49-12.76C1540.08,508.34,1541.05,505.11,1541.48,501.83Z" transform="translate(-1027.33 -129.89)"/><path class="cls-9" d="M1542.51,509l6.12-1.64" transform="translate(-1027.33 -129.89)"/><path class="cls-9" d="M1542.48,508.89a4.51,4.51,0,0,1,.68-1.28,3.45,3.45,0,0,1,.83-.81,2.5,2.5,0,0,1,.51-.3l.55-.21.59-.09a2.83,2.83,0,0,1,.59,0,3.52,3.52,0,0,1,1.13.28,4.52,4.52,0,0,1,1.23.76l.06.21-3,.92-3.09.72Z" transform="translate(-1027.33 -129.89)"/><path class="cls-9" d="M1558,506.13l6.32.5" transform="translate(-1027.33 -129.89)"/><path class="cls-9" d="M1558.05,506a4.51,4.51,0,0,1,1.07-1,3.44,3.44,0,0,1,1.06-.49,2.51,2.51,0,0,1,.58-.11l.59,0,.58.11a2.8,2.8,0,0,1,.56.2,3.51,3.51,0,0,1,1,.64,4.51,4.51,0,0,1,.9,1.13l0,.22-3.17-.14-3.15-.36Z" transform="translate(-1027.33 -129.89)"/><circle class="cls-9" cx="1547.91" cy="514.08" r="2.14" transform="translate(-1078.99 65.28) rotate(-7.1)"/><circle class="cls-9" cx="1562.49" cy="513.03" r="2.14" transform="translate(-1078.74 67.07) rotate(-7.1)"/><polygon class="cls-54" points="411.38 526.55 452.27 516.93 460.98 600.13 408.92 605.71 411.38 526.55"/><polygon class="cls-55" points="452.27 516.93 454.05 519.88 465.53 593.43 460.98 600.13 452.27 516.93"/><polygon class="cls-54" points="454.05 519.88 465.53 593.43 476.62 603.64 456.68 519.08 454.05 519.88"/><polygon class="cls-56" points="460.98 600.13 465.53 593.43 476.62 603.64 460.98 600.13"/><polygon class="cls-55" points="408.92 605.71 460.98 600.13 476.62 603.64 429.73 609.96 408.92 605.71"/><path class="cls-57" d="M1468.16,654.59a1.53,1.53,0,0,1-1.61,1.91,2.63,2.63,0,0,1-2.48-1.91,1.53,1.53,0,0,1,1.61-1.91A2.63,2.63,0,0,1,1468.16,654.59Z" transform="translate(-1027.33 -129.89)"/><path class="cls-57" d="M1453.13,658.1a1.53,1.53,0,0,1-1.61,1.91,2.63,2.63,0,0,1-2.48-1.91,1.53,1.53,0,0,1,1.61-1.91A2.63,2.63,0,0,1,1453.13,658.1Z" transform="translate(-1027.33 -129.89)"/><path class="cls-29" d="M1451.14,658.57h-.09a.51.51,0,0,1-.42-.59,88.44,88.44,0,0,1,7.9-24.24,9.1,9.1,0,0,1,2-2.88,6.85,6.85,0,0,1,4.09-1.76,4.44,4.44,0,0,1,3.81,1.56,5.22,5.22,0,0,1,.95,3c.14,5.17-.76,10-1.71,15.19-.35,1.91-.71,3.84-1,5.81a.5.5,0,0,1-.59.43.52.52,0,0,1-.43-.59c.31-2,.66-3.92,1-5.83.94-5.1,1.83-9.92,1.7-15a4.17,4.17,0,0,0-.75-2.44,3.42,3.42,0,0,0-2.92-1.14,5.79,5.79,0,0,0-3.44,1.48,8.08,8.08,0,0,0-1.74,2.58,87.49,87.49,0,0,0-7.82,24A.52.52,0,0,1,1451.14,658.57Z" transform="translate(-1027.33 -129.89)"/><path class="cls-29" d="M1478.91,647.61h-.06a.52.52,0,0,1-.45-.57,14.8,14.8,0,0,0-2.74-10.34,5.13,5.13,0,0,0-2.07-1.85,2.12,2.12,0,0,0-2.29.31.52.52,0,1,1-.75-.71,3.11,3.11,0,0,1,3.44-.56,6.36,6.36,0,0,1,2.5,2.19,15.85,15.85,0,0,1,2.94,11.07A.52.52,0,0,1,1478.91,647.61Z" transform="translate(-1027.33 -129.89)"/><polygon class="cls-12" points="398.58 525.16 441.66 514.89 431.45 603.78 378.12 609.74 398.58 525.16"/><polygon class="cls-33" points="441.66 514.89 442.77 518.04 437.52 596.63 431.45 603.78 441.66 514.89"/><polygon class="cls-12" points="442.77 518.04 437.52 596.63 446.29 607.54 445.58 517.18 442.77 518.04"/><polygon class="cls-34" points="431.45 603.78 437.52 596.63 446.29 607.54 431.45 603.78"/><polygon class="cls-13" points="378.12 609.74 431.45 603.78 446.29 607.54 397.96 614.29 378.12 609.74"/><circle class="cls-8" cx="426.4" cy="523.19" r="2.05"/><circle class="cls-8" cx="410.57" cy="526.94" r="2.05"/><path class="cls-29" d="M1438,657.26h-.11a.47.47,0,0,1-.36-.57,178.66,178.66,0,0,1,9-27.34,10.38,10.38,0,0,1,2-3.23,6.06,6.06,0,0,1,3.81-2,3.47,3.47,0,0,1,3.34,1.77,6.91,6.91,0,0,1,.58,3.31,123,123,0,0,1-2.33,24.28.48.48,0,0,1-.56.37.47.47,0,0,1-.38-.56,122,122,0,0,0,2.31-24.09,6.18,6.18,0,0,0-.47-2.87,2.49,2.49,0,0,0-2.44-1.28,5.09,5.09,0,0,0-3.17,1.68,9.52,9.52,0,0,0-1.79,2.95,177.9,177.9,0,0,0-9,27.2A.48.48,0,0,1,1438,657.26Z" transform="translate(-1027.33 -129.89)"/><path class="cls-29" d="M1465.69,645.85h-.08a.48.48,0,0,1-.39-.55,21.79,21.79,0,0,0-1.67-12.57,4.87,4.87,0,0,0-1.42-2,1.69,1.69,0,0,0-2-.11.48.48,0,0,1-.6-.73,2.62,2.62,0,0,1,3.12.07,5.78,5.78,0,0,1,1.73,2.38,22.76,22.76,0,0,1,1.75,13.12A.48.48,0,0,1,1465.69,645.85Z" transform="translate(-1027.33 -129.89)"/><polygon class="cls-25" points="387.55 519.11 432.25 509.45 408 593.05 353.72 598.65 387.55 519.11"/><polygon class="cls-37" points="432.25 509.45 432.86 512.4 415.2 586.32 408 593.05 432.25 509.45"/><polygon class="cls-25" points="432.86 512.4 415.2 586.32 422.24 596.58 435.8 511.6 432.86 512.4"/><polygon class="cls-62" points="408 593.05 415.2 586.32 422.24 596.58 408 593.05"/><polygon class="cls-63" points="353.72 598.65 408 593.05 422.24 596.58 372.85 602.93 353.72 598.65"/><path class="cls-57" d="M1445.06,647.14a2.45,2.45,0,0,1-2.37,1.92,1.64,1.64,0,0,1-1.72-1.92,2.45,2.45,0,0,1,2.37-1.92A1.64,1.64,0,0,1,1445.06,647.14Z" transform="translate(-1027.33 -129.89)"/><path class="cls-57" d="M1428.63,650.67a2.45,2.45,0,0,1-2.37,1.92,1.64,1.64,0,0,1-1.72-1.92,2.45,2.45,0,0,1,2.37-1.92A1.64,1.64,0,0,1,1428.63,650.67Z" transform="translate(-1027.33 -129.89)"/><path class="cls-29" d="M1442.73,646.47h0a.5.5,0,0,1-.46-.54l.1-1.16c.46-5.12,1.67-18.72-1.9-22.89a3.07,3.07,0,0,0-2.2-1.17.5.5,0,0,1,.07-1,4.1,4.1,0,0,1,2.9,1.52c3.85,4.5,2.65,17.91,2.14,23.63l-.1,1.15A.5.5,0,0,1,1442.73,646.47Z" transform="translate(-1027.33 -129.89)"/><path class="cls-29" d="M1426.67,651.13h-.06a.5.5,0,0,1-.44-.56c.34-3.09.79-6.09,1.34-8.91a.51.51,0,0,1,.59-.4.5.5,0,0,1,.4.59c-.54,2.8-1,5.77-1.33,8.83A.5.5,0,0,1,1426.67,651.13Z" transform="translate(-1027.33 -129.89)"/><path class="cls-29" d="M1451.19,641.69h0a.47.47,0,0,1-.46-.49,37.24,37.24,0,0,0-1.76-12.65,9.1,9.1,0,0,0-1.36-2.89,3.44,3.44,0,0,0-2.49-1.42.47.47,0,0,1,0-.95h0a4.33,4.33,0,0,1,3.2,1.79,10.15,10.15,0,0,1,1.51,3.18,38.14,38.14,0,0,1,1.81,13A.47.47,0,0,1,1451.19,641.69Z" transform="translate(-1027.33 -129.89)"/><polygon class="cls-64" points="380.49 503.16 417.88 511.8 386.18 566.38 341.67 551.26 380.49 503.16"/><polygon class="cls-65" points="417.88 511.8 417.94 514.25 392.96 563.86 386.18 566.38 417.88 511.8"/><polygon class="cls-64" points="417.94 514.25 392.96 563.86 397.13 580.32 420.43 514.69 417.94 514.25"/><polygon class="cls-66" points="386.18 566.38 392.96 563.86 397.13 580.32 386.18 566.38"/><polygon class="cls-65" points="341.67 551.26 386.18 566.38 397.13 580.32 353.72 563.86 341.67 551.26"/><path class="cls-57" d="M1432.39,642.41a1.59,1.59,0,0,1-2.19.61,1.72,1.72,0,0,1-1.11-2.07,1.59,1.59,0,0,1,2.19-.61A1.72,1.72,0,0,1,1432.39,642.41Z" transform="translate(-1027.33 -129.89)"/><path class="cls-57" d="M1418.65,639.22a1.59,1.59,0,0,1-2.19.61,1.72,1.72,0,0,1-1.11-2.07,1.59,1.59,0,0,1,2.19-.61A1.72,1.72,0,0,1,1418.65,639.22Z" transform="translate(-1027.33 -129.89)"/><path class="cls-29" d="M1430.68,641.12l-.12,0a.43.43,0,0,1-.3-.54c1.59-5.48,5-21.71,0-24.26a.44.44,0,1,1,.4-.78c6.67,3.42.48,25.06.41,25.28A.44.44,0,0,1,1430.68,641.12Z" transform="translate(-1027.33 -129.89)"/><path class="cls-29" d="M1417.07,638.92l-.14,0a.44.44,0,0,1-.28-.55c.21-.65.35-1.1.47-1.48a20,20,0,0,1,1-2.77.44.44,0,0,1,.8.35,19.33,19.33,0,0,0-1,2.68c-.12.38-.26.84-.47,1.5A.44.44,0,0,1,1417.07,638.92Z" transform="translate(-1027.33 -129.89)"/><path class="cls-29" d="M1438.19,640.52h-.09a.41.41,0,0,1-.31-.49,28.78,28.78,0,0,0,.42-10.18l-.07-.59a41.11,41.11,0,0,0-.95-5.78,4.23,4.23,0,0,0-1.86-2,.41.41,0,0,1-.2-.55.41.41,0,0,1,.55-.2,5,5,0,0,1,2.25,2.43,34,34,0,0,1,1,6l.07.58a29.5,29.5,0,0,1-.44,10.47A.41.41,0,0,1,1438.19,640.52Z" transform="translate(-1027.33 -129.89)"/><path class="cls-45" d="M1397.09,593.23c-2.63-3.85-9.3-10.38-11.06-8-2.84,3.77,7.88,7.79,4.65,12.23-1,1.35-3.31-.63-5.94-4.18s-7.09-11.44-9.71-10.55c-2.05.72.92,10.82,4.93,15.53-3.21-3.31-4.43-12.85-7.12-11.68-1.92.83.1,12.74,3.73,17.13s8.69,5.95,13.58,8.83c1.33.76,2.87,1.58,4.39,1.18a6.45,6.45,0,0,0,2.77-2.21C1403.08,604.56,1402.43,600.95,1397.09,593.23Z" transform="translate(-1027.33 -129.89)"/><path class="cls-45" d="M1707.2,608.66a6.45,6.45,0,0,0,1.61,3.16c1.22,1,3,.89,4.48.74,5.64-.6,10.89.07,16-2.42s11.89-12.5,10.48-14c-2-2.18-7,6-11.31,7.69,5.6-2.62,12.48-10.59,10.91-12.1-2-1.89-9.35,3.45-13.21,5.59s-6.79,3-7.14,1.35c-1.1-5.37,10.32-4.6,9.29-9.21-.62-2.89-9.39.3-13.38,2.72C1706.91,597,1704.82,600,1707.2,608.66Z" transform="translate(-1027.33 -129.89)"/></g></g></svg>