<svg xmlns="http://www.w3.org/2000/svg" width="200" height="200" viewBox="0 0 200 200">
    <g fill="none" fill-rule="evenodd">
        <path d="M0 0h200v200H0z"/>
        <g stroke="#000" stroke-width="3.6" transform="translate(27 37)">
            <ellipse cx="12" cy="12.334" rx="7.2" ry="7.314"/>
            <ellipse cx="81.6" cy="14.741" rx="7.2" ry="7.314"/>
            <ellipse cx="136.8" cy="7.427" rx="7.2" ry="7.314"/>
            <ellipse cx="117.6" cy="33.994" rx="7.2" ry="7.314"/>
            <ellipse cx="136.8" cy="86.94" rx="7.2" ry="7.314"/>
            <ellipse cx="129.6" cy="130.259" rx="7.2" ry="7.314"/>
            <ellipse cx="86.4" cy="137.479" rx="7.2" ry="7.314"/>
            <ellipse cx="36" cy="130.165" rx="7.2" ry="7.314"/>
            <ellipse cx="7.2" cy="84.533" rx="7.2" ry="7.314"/>
            <ellipse cx="24" cy="46.027" rx="7.2" ry="7.314"/>
            <path d="M14.4 19.23l7.207 19.899M132 12.877l-10.219 15.165M119.859 40.938l12.298 40.414M93.6 134.789l40.879-40.926M14 86.94l66.981 45.726M21.607 52.925L9.64 77.651M30.17 42.256L75.917 19.23M87.282 19.23l24.494 10.465"/>
            <ellipse cx="71.866" cy="72.334" rx="35.834" ry="35.934"/>
            <ellipse cx="71.933" cy="72.199" rx="28.263" ry="28.341"/>
            <path d="M124.509 124.545L100.2 93.533M55.093 104.094l-15.228 19.902M27.775 52.255l10.379 7.871M81.6 22.054l-2.758 15.03M112.475 39.129l-11.89 11.711M106.961 79.626L129.6 86.94M83.789 106.228l2.611 23.937M62.4 72.78s11.925.005 16.425.005c5.4 4.987 2.375 9.68-1.025 11.598H62.4V60.467h15.1c2.6 1.668 6.346 6.214 1.325 12.318"/>
        </g>
    </g>
</svg>
