<svg xmlns="http://www.w3.org/2000/svg" width="200" height="200" viewBox="0 0 200 200">
    <g fill="none" fill-rule="evenodd">
        <path d="M0 0h200v200H0z"/>
        <g fill-rule="nonzero" transform="translate(50 44)">
            <path fill="#000" d="M98.826 17.6C67.107 17.6 52.876 1.04 52.67.79A2.169 2.169 0 0 0 51 0a2.505 2.505 0 0 0-1.672.78C49.189.95 34.97 17.6 3.172 17.6a2.183 2.183 0 0 0-2.174 2.2v41.99c0 22.95 10.2 44.76 27.274 58.34 6.55 5.3 14.055 9.3 22.109 11.78.403.12.831.12 1.234 0a66.059 66.059 0 0 0 22.109-11.78C90.8 106.55 101 84.74 101 61.79V19.8a2.184 2.184 0 0 0-2.174-2.2zm-2.174 44.19c0 21.61-9.574 42.13-25.613 54.88A61.839 61.839 0 0 1 51 127.5a59.164 59.164 0 0 1-11.454-5.02 2.191 2.191 0 0 0-1.589-3.68 2.159 2.159 0 0 0-2.029 1.47 66.146 66.146 0 0 1-4.965-3.6c-.093-.07-.18-.15-.27-.22.237.091.488.142.742.15a2.2 2.2 0 1 0-2.174-2.2c.01.407.135.802.361 1.14a65.183 65.183 0 0 1-11.165-12.16 2.19 2.19 0 1 0-2.053-3.06 71.97 71.97 0 0 1-2.691-4.63c.207-.327.321-.703.33-1.09a2.154 2.154 0 0 0-1.95-2.15 72.566 72.566 0 0 1-5.252-16.06c.433-.416.679-.99.681-1.59a2.188 2.188 0 0 0-1.324-2.02 73.5 73.5 0 0 1-.794-8.99 2.2 2.2 0 0 0-.056-4.39v-8.8a2.2 2.2 0 0 0 0-4.4v-8.8a2.2 2.2 0 0 0 0-4.4v-8.8A2.191 2.191 0 0 0 7.522 22a.994.994 0 0 0-.026-.13 86.714 86.714 0 0 0 8.982-.86 2.158 2.158 0 0 0-.261.99 2.174 2.174 0 1 0 3.687-1.57 70.836 70.836 0 0 0 15.883-5.02 2.172 2.172 0 1 0 3.5-1.71 60.655 60.655 0 0 0 4.722-2.8c.151.053.309.087.469.1a2.161 2.161 0 0 0 2.118-1.92 44.664 44.664 0 0 0 4.4-3.71c4.641 4.51 19.039 16 45.652 16.6v39.82h.004zM51 13.2a2.2 2.2 0 1 1-2.174 2.2A2.184 2.184 0 0 1 51 13.2zM11.87 26.4a2.2 2.2 0 1 1-2.174 2.2 2.184 2.184 0 0 1 2.174-2.2zm13.043 0a2.2 2.2 0 1 1-2.174 2.2 2.184 2.184 0 0 1 2.174-2.2zm6.522-6.6a2.2 2.2 0 1 1-2.174 2.2 2.184 2.184 0 0 1 2.174-2.2zm6.522 6.6a2.2 2.2 0 1 1-2.174 2.2 2.184 2.184 0 0 1 2.174-2.2zm6.521-6.6a2.2 2.2 0 1 1-2.174 2.2 2.184 2.184 0 0 1 2.174-2.2zM51 26.4a2.2 2.2 0 1 1-2.174 2.2A2.184 2.184 0 0 1 51 26.4zM11.87 39.6a2.2 2.2 0 1 1-2.174 2.2 2.184 2.184 0 0 1 2.174-2.2zm6.521-6.6a2.2 2.2 0 1 1-2.174 2.2 2.184 2.184 0 0 1 2.174-2.2zm6.522 6.6a2.2 2.2 0 1 1-2.174 2.2 2.184 2.184 0 0 1 2.174-2.2zm6.522-6.6a2.2 2.2 0 1 1-2.174 2.2 2.184 2.184 0 0 1 2.174-2.2zm6.522 6.6a2.2 2.2 0 1 1-2.174 2.2 2.184 2.184 0 0 1 2.174-2.2zm6.521-6.6a2.2 2.2 0 1 1-2.174 2.2 2.184 2.184 0 0 1 2.174-2.2zM51 39.6a2.2 2.2 0 1 1-2.174 2.2A2.184 2.184 0 0 1 51 39.6zM11.87 52.8A2.2 2.2 0 1 1 9.696 55a2.184 2.184 0 0 1 2.174-2.2zm6.521-6.6a2.2 2.2 0 1 1-2.174 2.2 2.184 2.184 0 0 1 2.174-2.2zm6.522 6.6a2.2 2.2 0 1 1-2.174 2.2 2.184 2.184 0 0 1 2.174-2.2zm6.522-6.6a2.2 2.2 0 1 1-2.174 2.2 2.184 2.184 0 0 1 2.174-2.2zm6.522 6.6a2.2 2.2 0 1 1-2.174 2.2 2.184 2.184 0 0 1 2.174-2.2zm6.521-6.6a2.2 2.2 0 1 1-2.174 2.2 2.184 2.184 0 0 1 2.174-2.2zM51 52.8a2.2 2.2 0 1 1-2.174 2.2A2.184 2.184 0 0 1 51 52.8zM11.87 66a2.2 2.2 0 1 1-2.174 2.2A2.184 2.184 0 0 1 11.87 66zm6.521-6.6a2.2 2.2 0 1 1-2.174 2.2 2.184 2.184 0 0 1 2.174-2.2zm6.522 6.6a2.2 2.2 0 1 1-2.174 2.2 2.184 2.184 0 0 1 2.174-2.2zm6.522-6.6a2.2 2.2 0 1 1-2.174 2.2 2.184 2.184 0 0 1 2.174-2.2zm6.522 6.6a2.2 2.2 0 1 1-2.174 2.2 2.184 2.184 0 0 1 2.174-2.2zm6.521-6.6a2.2 2.2 0 1 1-2.174 2.2 2.184 2.184 0 0 1 2.174-2.2zM51 66a2.2 2.2 0 1 1-2.174 2.2A2.184 2.184 0 0 1 51 66zM11.87 79.2a2.2 2.2 0 1 1-2.174 2.2 2.184 2.184 0 0 1 2.174-2.2zm6.521-6.6a2.2 2.2 0 1 1-2.174 2.2 2.184 2.184 0 0 1 2.174-2.2zm6.522 6.6a2.2 2.2 0 1 1-2.174 2.2 2.184 2.184 0 0 1 2.174-2.2zm6.522-6.6a2.2 2.2 0 1 1-2.174 2.2 2.184 2.184 0 0 1 2.174-2.2zm6.522 6.6a2.2 2.2 0 1 1-2.174 2.2 2.184 2.184 0 0 1 2.174-2.2zm6.521-6.6a2.2 2.2 0 1 1-2.174 2.2 2.184 2.184 0 0 1 2.174-2.2zM51 79.2a2.2 2.2 0 1 1-2.174 2.2A2.184 2.184 0 0 1 51 79.2zm-32.609 6.6a2.2 2.2 0 1 1-2.174 2.2 2.184 2.184 0 0 1 2.174-2.2zm6.522 6.6a2.2 2.2 0 1 1-2.174 2.2 2.184 2.184 0 0 1 2.174-2.2zm6.522-6.6a2.2 2.2 0 1 1-2.174 2.2 2.184 2.184 0 0 1 2.174-2.2zm6.522 6.6a2.2 2.2 0 1 1-2.174 2.2 2.184 2.184 0 0 1 2.174-2.2zm6.521-6.6a2.2 2.2 0 1 1-2.174 2.2 2.184 2.184 0 0 1 2.174-2.2zM51 92.4a2.2 2.2 0 1 1-2.174 2.2A2.184 2.184 0 0 1 51 92.4zm-26.087 13.2a2.2 2.2 0 1 1-2.174 2.2 2.184 2.184 0 0 1 2.174-2.2zm6.522-6.6a2.2 2.2 0 1 1-2.174 2.2 2.184 2.184 0 0 1 2.174-2.2zm6.522 6.6a2.2 2.2 0 1 1-2.174 2.2 2.184 2.184 0 0 1 2.174-2.2zm6.521-6.6a2.2 2.2 0 1 1-2.174 2.2 2.184 2.184 0 0 1 2.174-2.2zM51 105.6a2.2 2.2 0 1 1-2.174 2.2A2.184 2.184 0 0 1 51 105.6zm-6.522 6.6a2.2 2.2 0 1 1-2.174 2.2 2.184 2.184 0 0 1 2.174-2.2zM51 118.8a2.2 2.2 0 1 1-2.174 2.2A2.184 2.184 0 0 1 51 118.8z"/>
            <circle cx="51.5" cy="66.5" r="38.5" fill="#FFF" stroke="#000" stroke-width="3"/>
            <g fill="#000">
                <path d="M41 40l-1 9s24.069 6.78 26 10c1.931 3.22 2 5 2 5l2-9a8.79 8.79 0 0 0-5-5c-3.747-1.34-24-10-24-10"/>
                <path d="M49 60v5l-2 2 2 2v10l8-2 1-8 2-2-2-1-1-9-8 2z"/>
                <path d="M30 59s.133-.04.375-.1C32.694 58.28 45 55 45 55l-2 18s2.174 8.13 6 10c3.826 1.87 6.562 2.05 9 1 2.438-1.05 7-10 7-10h3s-3.809 14.23-17 14c-13.191-.23-15.462-1.88-18-12a11.51 11.51 0 0 0-1-5l-2-2 3-2-1-5 1-1"/>
            </g>
        </g>
    </g>
</svg>
