<svg xmlns="http://www.w3.org/2000/svg" width="200" height="200" viewBox="0 0 200 200">
    <g fill="none" fill-rule="evenodd">
        <path d="M0 0h200v200H0z"/>
        <path fill="#000" fill-rule="nonzero" d="M121.274 48.674H63.366V155.94h83.972V74.752l-26.064-26.078zm1.048 6.103l18.918 18.925h-18.918V54.777zm-55.378 97.587V52.25h51.81v25.028h25.006v75.085H66.944zm70.223-39.663a1.01 1.01 0 0 1-.593-.575.984.984 0 0 1 .02-.822 4.222 4.222 0 0 0-.821-4.786 4.196 4.196 0 0 0-4.773-.832 1.01 1.01 0 0 1-.83.03 1.024 1.024 0 0 1-.564-.605 4.198 4.198 0 0 0-3.953-2.794 4.198 4.198 0 0 0-3.954 2.794.997.997 0 0 1-1.393.575 4.196 4.196 0 0 0-4.764.832 4.222 4.222 0 0 0-.83 4.776c.123.262.134.562.03.832a1.066 1.066 0 0 1-.604.575 4.207 4.207 0 0 0-2.787 3.963 4.207 4.207 0 0 0 2.787 3.964c.27.101.488.309.603.574a.993.993 0 0 1-.03.823 4.234 4.234 0 0 0 .051 3.704 4.216 4.216 0 0 0 2.944 2.24v19.649l7.947-7.967 7.946 7.967V127.97a4.203 4.203 0 0 0 2.952-2.237 4.221 4.221 0 0 0 .043-3.708.981.981 0 0 1-.02-.823 1.01 1.01 0 0 1 .593-.574 4.207 4.207 0 0 0 2.787-3.964 4.207 4.207 0 0 0-2.787-3.963zm-11.514 22.432l-4.764 4.786v-12.366h.04c.07.016.139.036.207.06.106.046.203.11.287.188.128.111.224.255.276.416a4.198 4.198 0 0 0 3.954 2.794 4.198 4.198 0 0 0 3.953-2.794 1.062 1.062 0 0 1 .563-.604c.06-.02.13-.04.208-.06h.04v12.366l-4.764-4.786zm10.447-17.508a4.225 4.225 0 0 0-2.462 2.362 4.24 4.24 0 0 0 .08 3.415c.2.387.119.86-.198 1.16a.987.987 0 0 1-.89.267l-.355-.11a3.347 3.347 0 0 0-.445-.148c-.108-.03-.217-.08-.326-.109-.158-.03-.316-.04-.474-.06-.139-.02-.257-.04-.386-.049-.158 0-.306.03-.464.04-.129.01-.267.01-.396.03-.283.06-.56.142-.83.247-.07.03-.128.08-.198.11-.199.089-.39.195-.573.316a3.636 3.636 0 0 0-.593.505c-.02.02-.05.04-.07.06-.4.428-.709.934-.908 1.486a1.02 1.02 0 0 1-1.918 0 4.156 4.156 0 0 0-.91-1.486c-.019-.02-.039-.03-.058-.05a5.095 5.095 0 0 0-.603-.525 4.268 4.268 0 0 0-.554-.297c-.079-.04-.148-.09-.217-.119h-.01a.29.29 0 0 0-.099-.03 3.56 3.56 0 0 0-1.285-.267 1.612 1.612 0 0 0-.217-.02h-.01a3.676 3.676 0 0 0-1.66.357l-.366.109a1.004 1.004 0 0 1-1.005-.363 1.01 1.01 0 0 1-.112-1.064 4.243 4.243 0 0 0 .079-3.418 4.173 4.173 0 0 0-2.461-2.349 1.017 1.017 0 0 1 0-1.922 4.206 4.206 0 0 0 2.47-2.358 4.222 4.222 0 0 0-.088-3.418 1.02 1.02 0 0 1 .197-1.16 1.013 1.013 0 0 1 1.157-.198 4.178 4.178 0 0 0 3.407.09 4.194 4.194 0 0 0 2.345-2.478 1.015 1.015 0 0 1 1.918 0 4.2 4.2 0 0 0 2.35 2.48 4.184 4.184 0 0 0 3.412-.092c.39-.176.848-.092 1.15.213.302.305.383.765.204 1.155a4.208 4.208 0 0 0-.09 3.415 4.192 4.192 0 0 0 2.472 2.351 1.02 1.02 0 0 1-.01 1.922z"/>
        <g stroke="#000" stroke-width="3.5" transform="translate(17 19)">
            <ellipse cx="13.158" cy="36.009" rx="7.8" ry="7.814"/>
            <ellipse cx="26.224" cy="68.401" rx="7.815" ry="7.829"/>
            <ellipse cx="7.821" cy="96.026" rx="7.82" ry="7.834"/>
            <ellipse cx="33.566" cy="138.406" rx="7.8" ry="7.814"/>
            <ellipse cx="85.06" cy="154.961" rx="7.835" ry="7.848"/>
            <path d="M130.124 140.52c4.31.01 7.797 3.518 7.79 7.836-.007 4.319-3.506 7.815-7.817 7.811-4.31-.004-7.803-3.505-7.803-7.824a7.839 7.839 0 0 1 2.297-5.537 7.811 7.811 0 0 1 5.533-2.286z"/>
            <ellipse cx="145.749" cy="103.411" rx="7.805" ry="7.819"/>
            <ellipse cx="155.126" cy="60.498" rx="7.815" ry="7.829"/>
            <ellipse cx="131.946" cy="33.421" rx="7.82" ry="7.834"/>
            <path d="M80.466.73c4.312.006 7.804 3.51 7.8 7.83-.003 4.32-3.501 7.82-7.813 7.818-4.312-.002-7.807-3.504-7.807-7.824C72.65 4.23 76.15.73 80.466.73z"/>
        </g>
        <g stroke="#000">
            <path stroke-width="9" d="M93.842 49.44h5.801V34.673h-4.5v4.5h3.2v-4.5h-4.5V49.44zM36.462 56.008l-.013-.004-1.135 4.355 28.316 7.379.318-1.223.014.003 1.136-4.354-28.315-7.388-.321 1.232zM49.461 86.99l.346 1.232 16.438-4.62-1.218-4.331-.01.003-.343-1.22-16.447 4.608 1.214 4.334.02-.006zM31.007 115.648l.201 1.26 34.705-5.539-.71-4.443-.009.001-.2-1.26-34.705 5.539.709 4.444.01-.002zM55.65 153.023l.914.904 10.958-11.078-3.2-3.165-.024.025-.914-.904-10.958 11.077 3.199 3.165.025-.024zM102.727 162.358h-3.2v4.5h4.5V153.93h-4.5v4.5h3.2v-4.5h-4.5v12.928h4.5v-4.5zM142.09 161.965l.014.023 3.826-2.369-4.569-7.378-1.1.681-.016-.023-3.825 2.369 4.569 7.378 1.1-.681zM150.473 120.98v3.235h4.5v-4.5h-10.048v4.5h4.5v-3.234h-4.5v4.5h10.048v-4.5h-4.5z"/>
            <path stroke-width="8" d="M164.6 81.116l-.197-.748-21.007 5.54 1.02 3.867.011-.003.196.745 21.017-5.539-1.02-3.868-.02.006z"/>
            <path stroke-width="9" d="M142.855 56.635l-.914-.904-8.219 8.308 3.2 3.165.024-.025.914.905 8.22-8.309-3.2-3.164-.025.024z"/>
        </g>
        <g fill="#000">
            <g transform="translate(70 65.107)">
                <ellipse cx="10.5" cy="1.481" rx="1.5" ry="1.481"/>
                <ellipse cx="19.5" cy="1.481" rx="1.5" ry="1.481"/>
                <ellipse cx="15" cy="6.664" rx="1.5" ry="1.481"/>
                <ellipse cx="6" cy="6.664" rx="1.5" ry="1.481"/>
                <ellipse cx="1.5" cy="1.481" rx="1.5" ry="1.481"/>
            </g>
            <g transform="translate(70 54)">
                <ellipse cx="10.5" cy="1.481" rx="1.5" ry="1.481"/>
                <ellipse cx="19.5" cy="1.481" rx="1.5" ry="1.481"/>
                <ellipse cx="15" cy="6.664" rx="1.5" ry="1.481"/>
                <ellipse cx="6" cy="6.664" rx="1.5" ry="1.481"/>
                <ellipse cx="1.5" cy="1.481" rx="1.5" ry="1.481"/>
            </g>
            <g transform="translate(70 76.214)">
                <ellipse cx="10.5" cy="1.481" rx="1.5" ry="1.481"/>
                <ellipse cx="19.5" cy="1.481" rx="1.5" ry="1.481"/>
                <ellipse cx="15" cy="6.664" rx="1.5" ry="1.481"/>
                <ellipse cx="6" cy="6.664" rx="1.5" ry="1.481"/>
                <ellipse cx="1.5" cy="1.481" rx="1.5" ry="1.481"/>
            </g>
            <g transform="translate(70 87.32)">
                <ellipse cx="10.5" cy="1.481" rx="1.5" ry="1.481"/>
                <ellipse cx="19.5" cy="1.481" rx="1.5" ry="1.481"/>
                <ellipse cx="15" cy="6.664" rx="1.5" ry="1.481"/>
                <ellipse cx="6" cy="6.664" rx="1.5" ry="1.481"/>
                <ellipse cx="1.5" cy="1.481" rx="1.5" ry="1.481"/>
            </g>
            <g transform="translate(70 98.427)">
                <ellipse cx="10.5" cy="1.481" rx="1.5" ry="1.481"/>
                <ellipse cx="19.5" cy="1.481" rx="1.5" ry="1.481"/>
                <ellipse cx="15" cy="6.664" rx="1.5" ry="1.481"/>
                <ellipse cx="6" cy="6.664" rx="1.5" ry="1.481"/>
                <ellipse cx="1.5" cy="1.481" rx="1.5" ry="1.481"/>
            </g>
            <g transform="translate(70 109.534)">
                <ellipse cx="10.5" cy="1.481" rx="1.5" ry="1.481"/>
                <ellipse cx="19.5" cy="1.481" rx="1.5" ry="1.481"/>
                <ellipse cx="15" cy="6.664" rx="1.5" ry="1.481"/>
                <ellipse cx="6" cy="6.664" rx="1.5" ry="1.481"/>
                <ellipse cx="1.5" cy="1.481" rx="1.5" ry="1.481"/>
            </g>
            <g transform="translate(70 120.641)">
                <ellipse cx="10.5" cy="1.481" rx="1.5" ry="1.481"/>
                <ellipse cx="19.5" cy="1.481" rx="1.5" ry="1.481"/>
                <ellipse cx="15" cy="6.664" rx="1.5" ry="1.481"/>
                <ellipse cx="6" cy="6.664" rx="1.5" ry="1.481"/>
                <ellipse cx="1.5" cy="1.481" rx="1.5" ry="1.481"/>
            </g>
            <g transform="translate(70 131.748)">
                <ellipse cx="10.5" cy="1.481" rx="1.5" ry="1.481"/>
                <ellipse cx="19.5" cy="1.481" rx="1.5" ry="1.481"/>
                <ellipse cx="15" cy="6.664" rx="1.5" ry="1.481"/>
                <ellipse cx="6" cy="6.664" rx="1.5" ry="1.481"/>
                <ellipse cx="1.5" cy="1.481" rx="1.5" ry="1.481"/>
            </g>
            <g transform="translate(70 142.855)">
                <ellipse cx="10.5" cy="1.481" rx="1.5" ry="1.481"/>
                <ellipse cx="19.5" cy="1.481" rx="1.5" ry="1.481"/>
                <ellipse cx="15" cy="6.664" rx="1.5" ry="1.481"/>
                <ellipse cx="6" cy="6.664" rx="1.5" ry="1.481"/>
                <ellipse cx="1.5" cy="1.481" rx="1.5" ry="1.481"/>
            </g>
        </g>
    </g>
</svg>
