<svg xmlns="http://www.w3.org/2000/svg" width="120" height="120" viewBox="0 0 120 120">
    <g fill="none" fill-rule="evenodd">
        <path d="M0 0h120v120H0z"/>
        <path fill="#000" fill-rule="nonzero" d="M84.116 31.35H44.024c-10.456.092-18.865 8.653-18.799 19.138 0 .801.648 1.45 1.446 1.45.8 0 1.447-.649 1.447-1.45-.06-8.874 7.056-16.122 15.906-16.2h40.092"/>
        <path stroke="#000" stroke-width="2" d="M79.419 27.928l5.049 5.063.872-.874-5.049-5.063-.872.874z"/>
        <path stroke="#000" stroke-width="2" d="M86.049 32.803l-1.057-1.06-5.573 5.589 1.057 1.06 5.573-5.59z"/>
        <path stroke="#000" stroke-width="1.5" d="M81.809 21.955l1.141-1.145 11.846 11.88-1.141 1.145z"/>
        <path stroke="#000" stroke-width="1.5" d="M81.809 43.49l1.141 1.145 11.846-11.88-1.141-1.145z"/>
        <g>
            <path fill="#000" fill-rule="nonzero" d="M35.884 89.65h40.092c10.456-.092 18.865-8.653 18.799-19.138 0-.801-.648-1.45-1.446-1.45-.8 0-1.447.649-1.447 1.45.06 8.874-7.056 16.122-15.906 16.2H35.884"/>
            <path stroke="#000" stroke-width="2" d="M40.581 93.072l-5.049-5.063-.872.874 5.049 5.063.872-.874z"/>
            <path stroke="#000" stroke-width="2" d="M33.951 88.197l1.057 1.06 5.573-5.589-1.057-1.06-5.573 5.59z"/>
            <path stroke="#000" stroke-width="1.5" d="M38.191 99.045l-1.141 1.145-11.846-11.88 1.141-1.145z"/>
            <path stroke="#000" stroke-width="1.5" d="M38.191 77.51l-1.141-1.145-11.846 11.88 1.141 1.145z"/>
        </g>
        <path fill="#000" fill-rule="nonzero" d="M61.088 74.793c-3.797 0-8.549-2.423-10.563-4.057a1.432 1.432 0 0 1-.224-1.986 1.363 1.363 0 0 1 1.947-.224c1.734 1.399 5.877 3.427 8.84 3.427 2.881 0 7.144-1.57 7.144-4.943 0-3.022-2.904-4.207-6.698-5.445l-1.123-.374c-3-1.036-9.242-3.182-9.242-8.35 0-4.985 3.8-8.327 9.453-8.327a15.357 15.357 0 0 1 9.418 3.107c.59.509.667 1.393.175 1.996a1.363 1.363 0 0 1-1.95.182 12.854 12.854 0 0 0-7.646-2.456c-4.119 0-6.679 2.103-6.679 5.499 0 2.765 3.717 4.41 7.352 5.658l1.082.363C65.808 59.985 71 61.683 71 67.01c.004 5.37-5.794 7.783-9.912 7.783zM60.622 79a1.402 1.402 0 0 1-.987-.418 1.393 1.393 0 0 1-.4-.991V42.42a1.382 1.382 0 0 1 .682-1.23 1.391 1.391 0 0 1 1.409 0c.435.256.696.727.682 1.23v35.17c.004.37-.14.726-.4.99-.26.265-.615.415-.986.419z"/>
    </g>
</svg>
