<svg xmlns="http://www.w3.org/2000/svg" width="93" height="104" viewBox="0 0 93 104">
    <path fill="#E90000" fill-rule="evenodd" d="M37.885 1.02L40.757 0C55.485 20.3 71.695 37.54 93 50.888v2.317C71.695 66.553 55.485 83.701 40.757 104l-2.872-1.02c5.836-19.465 16.581-40.042 26.863-50.702C54.466 41.711 43.721 20.485 37.885 1.02zM0 5.56l2.872-1.02c13.43 18.447 28.252 34.297 47.796 46.347v2.317C31.124 65.255 16.303 81.012 2.872 99.458L0 98.438c5.187-18.167 14.543-36.427 23.435-46.16C14.543 42.638 5.187 23.73 0 5.561z"/>
</svg>
