<svg xmlns="http://www.w3.org/2000/svg" width="93" height="104" viewBox="0 0 93 104">
    <path fill="#E90000" fill-rule="evenodd" d="M52.284 0l2.868 1.02C49.23 20.485 38.588 41.248 28.316 51.815c10.272 10.566 20.914 31.7 26.836 51.165L52.284 104C37.478 83.7 21.376 66.645 0 53.205v-2.317C21.376 37.54 37.478 20.299 52.284 0zm37.755 4.542L93 5.562c-5.275 18.167-14.528 36.52-23.412 46.253C78.472 61.455 87.725 80.364 93 98.439l-2.961 1.02C76.713 81.011 61.907 65.254 42.382 53.204v-2.317C61.907 38.93 76.713 22.988 90.04 4.542z"/>
</svg>
