<?xml version="1.0" encoding="UTF-8"?>
<svg width="40px" height="41px" viewBox="0 0 40 41" version="1.1" xmlns="http://www.w3.org/2000/svg" xmlns:xlink="http://www.w3.org/1999/xlink">
    <!-- Generator: Sketch 52.2 (67145) - http://www.bohemiancoding.com/sketch -->
    <title>confirmation</title>
    <desc>Created with Sketch.</desc>
    <defs>
        <path d="M90.9237987,102.780704 L79.9105923,113.626994 L75.8112733,109.595242 C75.2840058,109.095655 74.1804573,108.907215 73.4838701,109.606928 C72.793224,110.30372 72.9031333,111.425599 73.4289155,111.922264 L78.740207,117.157699 C79.0045834,117.407492 79.5868055,117.72302 79.9328712,117.72302 C80.2789369,117.72302 80.7868959,117.451315 81.0512723,117.201522 L93.3388323,105.123795 C93.8646145,104.625669 93.9804648,103.471653 93.2779366,102.792391 C92.5650116,102.101442 91.4510662,102.282578 90.9237987,102.780704 M83.0007359,126.184559 C73.6689414,126.184559 66.0769231,118.592541 66.0769231,109.262218 C66.0769231,99.9304234 73.6689414,92.338405 83.0007359,92.338405 C92.3310586,92.338405 99.9230769,99.9304234 99.9230769,109.262218 C99.9230769,118.592541 92.3310586,126.184559 83.0007359,126.184559 M83,89.261482 C71.9525926,89.261482 63,98.2158877 63,109.262223 C63,120.308558 71.9525926,129.261482 83,129.261482 C94.0459259,129.261482 103,120.308558 103,109.262223 C103,98.2158877 94.0459259,89.261482 83,89.261482" id="path-1"></path>
    </defs>
    <g id="Symbols" stroke="none" stroke-width="1" fill="none" fill-rule="evenodd">
        <g id="ROW-G-03" transform="translate(-63.000000, -89.000000)">
            <g id="confirmation">
                <use fill="#00FF49" xlink:href="#path-1"></use>
                <use fill="#00DF14" xlink:href="#path-1"></use>
            </g>
        </g>
    </g>
</svg>