<svg xmlns="http://www.w3.org/2000/svg" xmlns:xlink="http://www.w3.org/1999/xlink" width="50" height="50" viewBox="0 0 50 50">
    <defs>
        <path id="b" d="M30.761 21.873l4.475-4.475-1.634-1.634-4.475 4.475 1.634 1.634zm6.827-4.475a.932.932 0 0 1-.275.688l-19.64 19.64a.932.932 0 0 1-.687.274.932.932 0 0 1-.687-.275l-3.024-3.024a.932.932 0 0 1-.275-.687c0-.275.092-.504.275-.687l19.64-19.64a.932.932 0 0 1 .687-.275c.275 0 .504.092.687.275l3.024 3.024a.932.932 0 0 1 .275.687zm-20.633-2.901l1.497.458-1.497.458-.458 1.497-.458-1.497-1.497-.458 1.497-.458.458-1.497.458 1.497zm5.346 2.474l2.993.916-2.993.916-.917 2.994-.916-2.994-2.993-.916 2.993-.916.916-2.994.917 2.994zm14.202 7.3l1.497.458-1.497.458-.458 1.497-.458-1.497-1.497-.458 1.497-.458.458-1.497.458 1.497zm-9.774-9.774l1.497.458-1.497.458-.458 1.497-.458-1.497-1.497-.458 1.497-.458.458-1.497.458 1.497z"/>
        <filter id="a" width="114%" height="114%" x="-5%" y="-5%" filterUnits="objectBoundingBox">
            <feOffset dx=".5" dy=".5" in="SourceAlpha" result="shadowOffsetOuter1"/>
            <feGaussianBlur in="shadowOffsetOuter1" result="shadowBlurOuter1" stdDeviation=".5"/>
            <feColorMatrix in="shadowBlurOuter1" values="0 0 0 0 1 0 0 0 0 1 0 0 0 0 1 0 0 0 0.75 0"/>
        </filter>
    </defs>
    <g fill="none" fill-rule="evenodd">
        <g fill-rule="nonzero">
            <path d="M0 0h50v50H0z"/>
            <use fill="#000" filter="url(#a)" xlink:href="#b"/>
            <use fill="#013F56" xlink:href="#b"/>
        </g>
    </g>
</svg>
