<?xml version="1.0" encoding="UTF-8"?>
<svg width="51px" height="47px" viewBox="0 0 51 47" version="1.1" xmlns="http://www.w3.org/2000/svg" xmlns:xlink="http://www.w3.org/1999/xlink">
    <!-- Generator: Sketch 52.2 (67145) - http://www.bohemiancoding.com/sketch -->
    <title>Robot crossed out icon Copy 3</title>
    <desc>Created with Sketch.</desc>
    <g id="Symbols" stroke="none" stroke-width="1" fill="none" fill-rule="evenodd" opacity="0.618791853">
        <g id="ROW-G-03" transform="translate(-117.000000, -85.000000)">
            <g id="Robot-crossed-out-icon-Copy-3" transform="translate(144.867841, 109.000000) rotate(7.000000) translate(-144.867841, -109.000000) translate(120.867841, 84.000000)">
                <path d="M41.6523889,21.4369115 L41.6523889,20.9284513 C41.6523889,16.9135487 38.3742632,13.6472743 34.3451944,13.6472743 L25.6772381,13.6472743 L25.6772381,10.5362389 C27.6439021,10.0166283 29.0976693,8.22859292 29.0976693,6.1080885 C29.0976693,3.58183186 27.0353267,1.5269292 24.5001243,1.5269292 C21.9649841,1.5269292 19.9023307,3.58183186 19.9023307,6.1080885 C19.9023307,8.22859292 21.3562222,10.0166903 23.3226997,10.5362389 L23.3226997,13.6472743 L14.6548056,13.6472743 C10.6255503,13.6472743 7.34748677,16.9136106 7.34748677,20.9284513 L7.34748677,21.4369115 C4.49391534,21.9864425 2.33197751,24.4940531 2.33197751,27.4951327 C2.33197751,30.500115 4.49851587,33.0092743 7.35643915,33.5554602 C7.54711243,37.4019292 10.7477751,40.4731327 14.6548056,40.4731327 L34.3452566,40.4731327 C38.2521627,40.4731327 41.4526389,37.4019292 41.6434365,33.5554602 C44.501422,33.0092743 46.6680847,30.500115 46.6680847,27.4951327 C46.6680225,24.4939292 44.5061468,21.9864425 41.6523889,21.4369115 Z M7.34748677,31.1347611 C5.80550132,30.6383805 4.68682672,29.1948938 4.68682672,27.4950708 C4.68682672,25.7956195 5.80550132,24.3521947 7.34748677,23.8556903 L7.34748677,31.1347611 Z M22.2570556,6.1080885 C22.2570556,4.87577876 23.2631415,3.87316814 24.5,3.87316814 C25.7367341,3.87316814 26.7429444,4.87584071 26.7429444,6.1080885 C26.7429444,7.34033628 25.7367341,8.34300885 24.5,8.34300885 C23.2631415,8.34300885 22.2570556,7.34027434 22.2570556,6.1080885 Z M39.2979127,33.1919558 C39.2978505,35.9130973 37.0759815,38.126708 34.3451944,38.126708 L14.6548056,38.126708 C11.923832,38.126708 9.70214947,35.9130973 9.70214947,33.1919558 L9.70214947,20.9284513 C9.70214947,18.2074336 11.923832,15.9936991 14.6548056,15.9936991 L34.3452566,15.9936991 C37.0760437,15.9936991 39.2979127,18.2074336 39.2979127,20.9284513 L39.2979127,33.1919558 Z M41.6523889,31.1347611 L41.6523889,23.8557522 C43.1943122,24.3522566 44.3131733,25.7956814 44.3131733,27.4951327 C44.3131733,29.1948319 43.1943122,30.6384425 41.6523889,31.1347611 Z" id="Shape" fill="#041C3F" fill-rule="nonzero" transform="translate(24.500031, 21.000031) rotate(-4.000000) translate(-24.500031, -21.000031) "></path>
                <path d="M32.1469329,23.9015561 C30.2317451,23.9015561 28.6738443,25.4541313 28.6738443,27.3622198 C28.6738443,29.2705561 30.2318695,30.8229455 32.1469329,30.8229455 C34.0619964,30.8229455 35.6201459,29.2704322 35.6201459,27.3622198 C35.6201459,25.4541933 34.0619964,23.9015561 32.1469329,23.9015561 Z M32.1469329,28.4766446 C31.5302134,28.4766446 31.028507,27.9770428 31.028507,27.3623437 C31.028507,26.7478305 31.5302134,26.2477331 32.1469329,26.2477331 C32.7637147,26.2477331 33.2654832,26.7478305 33.2654832,27.3623437 C33.2654832,27.976919 32.7637147,28.4766446 32.1469329,28.4766446 Z" id="Shape" fill="#041C3F" fill-rule="nonzero" transform="translate(32.146995, 27.362251) rotate(8.000000) translate(-32.146995, -27.362251) "></path>
                <path d="M17.6031101,21.8648588 C15.6878601,21.8648588 14.1299593,23.417434 14.1299593,25.3255225 C14.1299593,27.2338588 15.6879222,28.7862482 17.6031101,28.7862482 C19.5181114,28.7862482 21.0762609,27.2337349 21.0762609,25.3255225 C21.0762609,23.4174959 19.5181114,21.8648588 17.6031101,21.8648588 Z M17.6031101,26.4399473 C16.9863905,26.4399473 16.484622,25.9403455 16.484622,25.3256464 C16.484622,24.7111331 16.9863905,24.2110358 17.6031101,24.2110358 C18.2197675,24.2110358 18.7215982,24.7111331 18.7215982,25.3256464 C18.7215982,25.9402216 18.2197675,26.4399473 17.6031101,26.4399473 Z" id="Shape" fill="#041C3F" fill-rule="nonzero" transform="translate(17.603110, 25.325553) rotate(8.000000) translate(-17.603110, -25.325553) "></path>
                <path d="M27.9261094,33 L22.0738906,33 C21.4807814,33 21,33.6716572 21,34.4998416 C21,35.3285013 21.4807814,36 22.0738906,36 L27.9262228,36 C28.5191619,36 29,35.3283428 29,34.4998416 C28.9999433,33.6714987 28.5191619,33 27.9261094,33 Z" id="Path" fill="#041C3F"></path>
                <path d="M0.499171516,49.0990431 L41.4991715,5.09904313" id="Path-4" stroke="#FF0000" stroke-width="3" fill-rule="nonzero"></path>
            </g>
        </g>
    </g>
</svg>