<svg width="40px" height="41px" viewBox="0 0 40 41" version="1.1" xmlns="http://www.w3.org/2000/svg" xmlns:xlink="http://www.w3.org/1999/xlink">
    <g id="Symbols" stroke="none" stroke-width="1" fill="none" fill-rule="evenodd" fill-opacity="0.156221694">
        <g id="ROW-G-01" transform="translate(-100.000000, -100.000000)" fill="#013F56">
            <path d="M119.311523,113.671875 C116.040039,113.671875 114.111328,116.210938 114.111328,120.483398 C114.111328,124.731445 116.064453,127.319336 119.262695,127.319336 C122.607422,127.319336 124.755859,124.658203 124.755859,120.483398 C124.755859,116.308594 122.631836,113.671875 119.311523,113.671875 Z M120.166016,100 C131.713867,100 139.746094,107.373047 139.746094,117.96875 C139.746094,125.927734 136.181641,130.981445 130.566406,130.981445 C127.709961,130.981445 125.488281,129.272461 125.195312,126.879883 L124.804688,126.879883 C123.754883,129.370117 121.557617,130.761719 118.701172,130.761719 C113.623047,130.761719 110.205078,126.586914 110.205078,120.385742 C110.205078,114.453125 113.696289,110.302734 118.701172,110.302734 C121.264648,110.302734 123.461914,111.621094 124.414062,113.745117 L124.804688,113.745117 L124.804688,110.766602 L128.491211,110.766602 L128.491211,125.097656 C128.491211,126.806641 129.492188,127.807617 131.25,127.807617 C134.326172,127.807617 136.303711,123.925781 136.303711,117.919922 C136.303711,109.106445 129.614258,103.076172 119.848633,103.076172 C110.302734,103.076172 103.442383,110.351562 103.442383,120.507812 C103.442383,130.932617 110.180664,137.646484 120.629883,137.646484 C123.974609,137.646484 127.270508,137.182617 128.808594,136.474609 L128.808594,139.550781 C126.611328,140.307617 123.657227,140.74707 120.581055,140.74707 C107.983398,140.74707 100,132.836914 100,120.361328 C100,108.276367 108.203125,100 120.166016,100 Z" id="@"></path>
        </g>
    </g>
</svg>