<?xml version="1.0" encoding="utf-8"?>
<!-- Generator: Adobe Illustrator 19.0.0, SVG Export Plug-In . SVG Version: 6.00 Build 0)  -->
<svg version="1.1" id="Layer_1" xmlns="http://www.w3.org/2000/svg" xmlns:xlink="http://www.w3.org/1999/xlink" x="0px" y="0px"
	 width="6px" height="11px" viewBox="0 0 6 11" enable-background="new 0 0 6 11" xml:space="preserve">
<path id="XMLID_43_" fill-rule="evenodd" clip-rule="evenodd" fill="#C9C9C9" d="M6,5.5c0-0.1,0-0.1,0-0.2c0-0.1,0-0.1,0-0.2
	C5.9,5,5.8,4.9,5.7,4.7L1.6,0.3c-0.4-0.4-1-0.4-1.3-0.1c-0.3,0.3-0.3,0.9,0.1,1.3l3.6,3.9l-3.6,4c-0.4,0.4-0.4,1-0.1,1.3
	c0.3,0.3,0.9,0.3,1.3-0.1l4.1-4.5C5.8,6.1,5.9,6,5.9,5.8c0-0.1,0-0.1,0-0.2C6,5.6,6,5.5,6,5.5z"/>
</svg>
