<?xml version="1.0" encoding="utf-8"?>
<!-- Generator: Adobe Illustrator 19.0.0, SVG Export Plug-In . SVG Version: 6.00 Build 0)  -->
<svg version="1.1" id="Layer_1" xmlns="http://www.w3.org/2000/svg" xmlns:xlink="http://www.w3.org/1999/xlink" x="0px" y="0px"
	 width="9px" height="7px" viewBox="0 0 9 7" enable-background="new 0 0 9 7" xml:space="preserve">
<path id="XMLID_2_" fill-rule="evenodd" clip-rule="evenodd" fill="#FFFFFF" d="M3.4,6.7C3.4,6.7,3.4,6.8,3.4,6.7C3.2,6.9,3,7,2.9,7
	C2.7,7,2.5,6.9,2.4,6.8c0,0,0-0.1-0.1-0.1L0.2,4.4c-0.2-0.3-0.2-0.7,0-0.9c0.2-0.3,0.6-0.3,0.9,0l1.8,1.9l5-5.2
	c0.2-0.3,0.6-0.3,0.9,0c0.2,0.3,0.2,0.7,0,0.9L3.4,6.7z"/>
</svg>
