<?xml version="1.0" encoding="utf-8"?>
<!-- Generator: Adobe Illustrator 19.0.0, SVG Export Plug-In . SVG Version: 6.00 Build 0)  -->
<svg version="1.1" id="Layer_1" xmlns="http://www.w3.org/2000/svg" xmlns:xlink="http://www.w3.org/1999/xlink" x="0px" y="0px"
	 width="18px" height="18px" viewBox="0 0 18 18" enable-background="new 0 0 18 18" xml:space="preserve">
<path id="XMLID_44_" fill-rule="evenodd" clip-rule="evenodd" fill="#5B5B5B" d="M9,18c5,0,9-4,9-9c0-5-4-9-9-9S0,4,0,9
	C0,14,4,18,9,18z M9,1.6c4.1,0,7.4,3.3,7.4,7.4c0,4.1-3.3,7.4-7.4,7.4c-4.1,0-7.4-3.3-7.4-7.4C1.6,4.9,4.9,1.6,9,1.6z M4.9,9.8h6.4
	l-2.5,2.7c-0.3,0.3-0.3,0.8,0,1.1c0.3,0.3,0.8,0.3,1.1,0l3.8-4c0,0,0,0,0.1,0c0,0,0-0.1,0-0.1c0.1-0.1,0.1-0.2,0.1-0.3
	c0,0,0-0.1,0-0.1c0-0.2,0-0.5-0.2-0.7c0,0,0,0-0.1,0l-3.8-4C9.5,4,9.1,4,8.7,4.3c-0.3,0.3-0.3,0.8,0,1.1l2.5,2.7H4.9
	C4.4,8.2,4.1,8.5,4.1,9C4.1,9.4,4.4,9.8,4.9,9.8z"/>
</svg>
