<?xml version="1.0" encoding="UTF-8"?>
<!-- Generator: Adobe Illustrator 19.0.0, SVG Export Plug-In . SVG Version: 6.00 Build 0)  -->
<svg version="1.1" id="Layer_1" xmlns="http://www.w3.org/2000/svg" xmlns:xlink="http://www.w3.org/1999/xlink" x="0px" y="0px" width="14px" height="14px" viewBox="1 0 14 14" enable-background="new 1 0 14 14" xml:space="preserve">
<path id="XMLID_2_" fill="#7C7C7C" d="M14.7,4.2L14.7,4.2L14.7,4.2l-1.3,1.3L9.5,1.6l1.2-1.3l0,0c0,0,0-0.1,0.1-0.1  c0.3-0.3,0.9-0.3,1.3,0l2.6,2.6C15.1,3.3,15.1,3.8,14.7,4.2z M12.7,6.1l-6.5,6.6L2.3,8.8l6.5-6.6L12.7,6.1z M5.6,13.4l-2.3,0.3L1,14  l0.3-2.3l0.3-2.3l2,2L5.6,13.4z"/>
</svg>