<?xml version="1.0" encoding="UTF-8"?>
<!-- Generator: Adobe Illustrator 19.0.0, SVG Export Plug-In . SVG Version: 6.00 Build 0)  -->
<svg version="1.1" id="Layer_1" xmlns="http://www.w3.org/2000/svg" xmlns:xlink="http://www.w3.org/1999/xlink" x="0px" y="0px" width="11px" height="14px" viewBox="0 0 11 14" enable-background="new 0 0 11 14" xml:space="preserve">
<path id="XMLID_2_" fill-rule="evenodd" clip-rule="evenodd" fill="#96A6C2" d="M10.3,6.4c0.2,0.1,0.4,0.2,0.5,0.4  C10.9,6.9,11,7.1,11,7.4V13c0,0.3-0.1,0.5-0.3,0.7C10.5,13.9,10.3,14,10,14H1c-0.3,0-0.5-0.1-0.7-0.3C0.1,13.5,0,13.2,0,13V7.4  c0-0.2,0.1-0.4,0.2-0.6c0.1-0.2,0.3-0.3,0.5-0.4V4.9c0-0.7,0.1-1.3,0.4-1.9c0.3-0.6,0.6-1.1,1-1.6C2.5,1,3,0.6,3.6,0.4  C4.2,0.1,4.8,0,5.5,0c0.7,0,1.3,0.1,1.9,0.4C8,0.6,8.5,1,8.9,1.4c0.4,0.4,0.8,1,1,1.6c0.3,0.6,0.4,1.2,0.4,1.9V6.4L10.3,6.4z M8,4.7  c0-0.4-0.1-0.7-0.2-1C7.7,3.3,7.5,3,7.3,2.8C7,2.5,6.8,2.4,6.5,2.2C6.2,2.1,5.8,2,5.5,2c-0.4,0-0.7,0.1-1,0.2C4.2,2.4,4,2.5,3.7,2.8  C3.5,3,3.3,3.3,3.2,3.6C3.1,3.9,3,4.3,3,4.7V6h5V4.7z M6.2,10.3c0.2-0.1,0.4-0.3,0.5-0.5C6.9,9.7,7,9.5,7,9.3c0-0.3-0.1-0.6-0.4-0.9  C6.2,8.1,5.9,8,5.5,8C5.1,8,4.7,8.1,4.4,8.4C4.1,8.6,4,8.9,4,9.3c0,0.2,0.1,0.4,0.2,0.6c0.1,0.2,0.3,0.3,0.5,0.4L4,13h3L6.2,10.3z"/>
</svg>