<?xml version="1.0" encoding="UTF-8"?>
<!-- Generator: Adobe Illustrator 19.0.0, SVG Export Plug-In . SVG Version: 6.00 Build 0)  -->
<svg version="1.1" id="Layer_1" xmlns="http://www.w3.org/2000/svg" xmlns:xlink="http://www.w3.org/1999/xlink" x="0px" y="0px" width="17px" height="17px" viewBox="0 0 17 17" enable-background="new 0 0 17 17" xml:space="preserve">
<path id="XMLID_2_" fill-rule="evenodd" clip-rule="evenodd" fill="#9DA9B3" d="M16.9,8.8l-4.8,5.1C12.1,14,12,14,11.9,14  c-0.1,0-0.2,0-0.3-0.1l-1.1-1.2c-0.1-0.1-0.1-0.4,0-0.5l2.2-2.3H6.3C6.1,9.8,6,9.7,6,9.4V7.6c0-0.2,0.2-0.4,0.4-0.4h6.3l-2.2-2.3  c-0.1-0.1-0.1-0.4,0-0.5l1.1-1.2C11.8,3,12,3,12.1,3.1l4.8,5.1C17,8.3,17,8.4,17,8.5S17,8.7,16.9,8.8z M3,2C2.4,2,2,2.4,2,3v11  c0,0.6,0.4,1,1,1h8.8c-0.4,1.2-1.5,2-2.8,2H3c-1.7,0-3-1.3-3-3V3c0-1.7,1.3-3,3-3h6c1.3,0,2.4,0.8,2.8,2H3z"/>
</svg>