<?xml version="1.0" encoding="utf-8"?>
<!-- Generator: Adobe Illustrator 19.0.0, SVG Export Plug-In . SVG Version: 6.00 Build 0)  -->
<svg version="1.1" id="Layer_1" xmlns="http://www.w3.org/2000/svg" xmlns:xlink="http://www.w3.org/1999/xlink" x="0px" y="0px"
	 width="12px" height="8px" viewBox="0 0 12 8" enable-background="new 0 0 12 8" xml:space="preserve">
<path id="XMLID_2_" fill-rule="evenodd" clip-rule="evenodd" fill="#7C7C7C" d="M2,8C1.5,8.3,0.4,7.7,0.4,7.7
	c-1-2.6,0.1-5.8,2.6-7.1C5.4-0.6,8.5,0.1,10,2.2l0.7-0.4c0.3-0.2,0.7-0.1,1,0.1c0.3,0.2,0.4,0.6,0.3,1l-0.8,2.4
	c-0.1,0.2-0.2,0.4-0.5,0.5c-0.2,0.1-0.4,0.1-0.7,0.1L7.6,5.1C7.3,5,7,4.7,7,4.3s0.2-0.7,0.5-0.9l0.6-0.3C7,2,5.5,1.7,4,2.5
	C2.3,3.3,1.7,5.1,2.3,6.7C2.3,6.7,2.4,7.8,2,8z"/>
</svg>
