<?xml version="1.0" encoding="utf-8"?>
<!-- Generator: Adobe Illustrator 19.0.0, SVG Export Plug-In . SVG Version: 6.00 Build 0)  -->
<svg version="1.1" id="Layer_1" xmlns="http://www.w3.org/2000/svg" xmlns:xlink="http://www.w3.org/1999/xlink" x="0px" y="0px"
	 width="13px" height="11px" viewBox="0 0 13 11" enable-background="new 0 0 13 11" xml:space="preserve">
<path id="XMLID_2_" fill="#7C7C7C" d="M0.1,5.2c0.1-0.3,0.5-0.5,0.8-0.5h0.8C2.2,2.1,4.6,0,7.3,0c3,0,5.7,2.6,5.7,5.5
	c0,2.9-2.6,5.5-5.7,5.5c-1,0-1.9-0.2-2.7-0.7C4.1,10,4,9.3,4.2,8.9c0.3-0.4,0.8-0.7,1.3-0.5C6,8.7,6.7,8.9,7.3,8.9
	c2,0,3.5-1.4,3.5-3.4c0-2-1.5-3.4-3.5-3.4c-1.7,0-3,1-3.4,2.5h0.6c0.4,0,0.7,0.2,0.8,0.5c0.1,0.3,0.1,0.7-0.2,1L3.4,7.9
	C3.2,8.1,3,8.2,2.7,8.2S2.3,8.1,2.1,7.9L0.3,6.1C0,5.9-0.1,5.5,0.1,5.2z"/>
</svg>
