<?xml version="1.0" encoding="UTF-8"?>
<!-- Generator: Adobe Illustrator 19.0.0, SVG Export Plug-In . SVG Version: 6.00 Build 0)  -->
<svg version="1.1" id="Layer_1" xmlns="http://www.w3.org/2000/svg" xmlns:xlink="http://www.w3.org/1999/xlink" x="0px" y="0px" width="13px" height="9px" viewBox="0 0 13 9" enable-background="new 0 0 13 9" xml:space="preserve">
<path id="XMLID_2_" fill-rule="evenodd" clip-rule="evenodd" fill="#E2E2E2" d="M5.4,8.6c0,0,0,0.1-0.1,0.1C5.1,8.9,4.9,9,4.7,9  C4.4,9,4.2,8.9,4,8.7c0,0-0.1-0.1-0.1-0.1L0.3,5.1c-0.4-0.3-0.4-0.9,0-1.2s0.9-0.3,1.3,0l3.1,3l6.8-6.6c0.4-0.3,0.9-0.3,1.3,0  c0.4,0.3,0.4,0.9,0,1.2L5.4,8.6z"/>
</svg>