<?xml version="1.0" encoding="UTF-8"?>
<!-- Generator: Adobe Illustrator 19.0.0, SVG Export Plug-In . SVG Version: 6.00 Build 0)  -->
<svg version="1.1" id="Layer_1" xmlns="http://www.w3.org/2000/svg" xmlns:xlink="http://www.w3.org/1999/xlink" x="0px" y="0px" width="41px" height="36px" viewBox="0 0 41 36" enable-background="new 0 0 41 36" xml:space="preserve">
<path id="XMLID_3_" fill="#FF8A18" stroke="#FF8A18" stroke-width="6" stroke-miterlimit="10" d="M17.6,4.6L3.5,28.2  C3.2,28.6,3,29.2,3,29.8v0l0,0v0C3,31.6,4.5,33,6.4,33h28.3c1.9,0,3.4-1.4,3.4-3.2c0-0.6-0.2-1.1-0.5-1.6L23.4,4.6  c-0.3-0.5-0.7-0.9-1.3-1.2C21.6,3.1,21.1,3,20.5,3c-0.6,0-1.1,0.1-1.6,0.4C18.3,3.7,17.9,4.1,17.6,4.6z"/>
<path id="XMLID_1_" fill-rule="evenodd" clip-rule="evenodd" fill="#FFFFFF" d="M20.5,21c0,0-1.4-3.8-2.3-6.3  c-0.1-0.3-0.2-0.7-0.2-1c0-1.5,1.1-2.7,2.5-2.7c1.4,0,2.5,1.2,2.5,2.7c0,0.4-0.1,0.7-0.2,1C21.9,17.2,20.5,21,20.5,21z M20.5,22.3  c1.2,0,2.2,1.1,2.2,2.4c0,1.3-1,2.4-2.2,2.4c-1.2,0-2.2-1.1-2.2-2.4C18.3,23.3,19.3,22.3,20.5,22.3z"/>
</svg>