<?xml version="1.0" encoding="utf-8"?>
<!-- Generator: Adobe Illustrator 19.0.0, SVG Export Plug-In . SVG Version: 6.00 Build 0)  -->
<svg version="1.1" id="Layer_1" xmlns="http://www.w3.org/2000/svg" xmlns:xlink="http://www.w3.org/1999/xlink" x="0px" y="0px"
	 width="12px" height="8px" viewBox="0 0 12 8" enable-background="new 0 0 12 8" xml:space="preserve">
<path id="XMLID_2_" fill-rule="evenodd" clip-rule="evenodd" fill="#7C7C7C" d="M9.7,6.7c0.6-1.7,0-3.4-1.7-4.3C6.5,1.7,5,2,4,3.2
	l0.6,0.3C4.8,3.6,5,4,5,4.3C5,4.7,4.7,5,4.4,5.1L2,5.9c-0.2,0.1-0.5,0-0.7-0.1C1.1,5.7,1,5.5,0.9,5.3L0.1,2.9c-0.1-0.3,0-0.7,0.3-1
	c0.3-0.2,0.7-0.3,1-0.1L2,2.2C3.5,0.1,6.6-0.6,9,0.6c2.5,1.3,3.7,4.5,2.6,7.1c0,0-1.1,0.5-1.6,0.3C9.6,7.8,9.7,6.7,9.7,6.7z"/>
</svg>
