<svg id="facebook_logo_Black" xmlns="http://www.w3.org/2000/svg" viewBox="0 0 12.97 24.836">
  <defs>
    <style>
      .cls-1 {
        fill: #fff;
        fill-rule: evenodd;
      }
    </style>
  </defs>
  <path id="Path_163" data-name="Path 163" class="cls-1" d="M43.343,28.365c.767-.025,1.538,0,2.309-.007h.318v-4c-.413-.043-.84-.1-1.27-.123-.789-.036-1.578-.072-2.37-.058a5.789,5.789,0,0,0-3.344,1.035,5.005,5.005,0,0,0-2.008,3.34,11.358,11.358,0,0,0-.141,1.719c-.025.9,0,1.8,0,2.7V33.3H33V37.77h3.807V49.007h4.654V37.788h3.8c.2-1.487.384-2.96.583-4.495h-.854c-1.078,0-3.557,0-3.557,0s.011-2.215.04-3.177C41.5,28.806,42.286,28.4,43.343,28.365Z" transform="translate(-33 -24.171)"/>
</svg>
