<svg xmlns="http://www.w3.org/2000/svg" viewBox="0 0 39.23 24.836">
  <defs>
    <style>
      .cls-1 {
        fill: #fff;
      }
    </style>
  </defs>
  <g id="google_logo_Black" transform="translate(0)">
    <g id="Group_37" data-name="Group 37" transform="translate(0)">
      <path id="Path_164" data-name="Path 164" class="cls-1" d="M33.937,45.546c-.006.071-.013.136-.013.195,0,1.513.006,4.8.006,4.8h6.648a5.637,5.637,0,0,1-2.441,3.733,7.16,7.16,0,0,1-3.61,1.162,7.279,7.279,0,0,1-2.694-.312,7.49,7.49,0,0,1-5.122-6.453,7.121,7.121,0,0,1,.149-2.253,7.335,7.335,0,0,1,8.167-5.72,6.7,6.7,0,0,1,3.649,1.759l3.616-3.616a15.459,15.459,0,0,0-2.2-1.617,11.767,11.767,0,0,0-5.895-1.6c-.4-.006-.792.019-1.188.032a9.451,9.451,0,0,0-2.045.318,12.452,12.452,0,0,0-9.407,11.348,11.823,11.823,0,0,0,.26,3.343A12.448,12.448,0,0,0,33.3,60.432a13.063,13.063,0,0,0,4.071-.4,10.794,10.794,0,0,0,6.109-4.019A13.334,13.334,0,0,0,45.61,45.539C41.715,45.546,37.832,45.546,33.937,45.546Z" transform="translate(-21.532 -35.618)"/>
      <path id="Path_165" data-name="Path 165" class="cls-1" d="M75.322,48.817H71.116V44.48h-3.4v4.337H63.39v3.389h4.33v4.33h3.4v-4.33h4.33V48.817Z" transform="translate(-36.216 -38.727)"/>
    </g>
  </g>
</svg>
