<svg xmlns="http://www.w3.org/2000/svg" viewBox="0 0 314.75 183.786">
  <defs>
    <style>
      .cls-1 {
        fill: #aec5ca;
        stroke: #f9f9fa;
        stroke-linecap: round;
        stroke-linejoin: round;
        stroke-width: 0.75px;
        fill-rule: evenodd;
      }
    </style>
  </defs>
  <g id="pennsylvaniamap" transform="translate(-17.125 -5.625)">
    <path id="Path_422" data-name="Path 422" class="cls-1" d="M276.3,79.805l2.41-1.362-.838-27.66L277.138,24.9l5.239-.1,1.991.419,1.153,2.2,2.2,1.048,1.572,5.762H293.8l1.152.943,1.362.419.314.943,2.1,1.676-.943,1.152v1.362l1.886.629.21,3.143-.419.943.733,5.553-1.152,1.781.21.629-6.5,10.9-3.143,2.515-.943,3.457-1.048.419-3.248-.419.1,2.3,1.467,1.257-1.886,4.505-.1,1.362Z" transform="translate(12.348 0.897)"/>
    <path id="Path_423" data-name="Path 423" class="cls-1" d="M244.5,48.7l.1.838h21.059l-2.619,4.715.419.21-1.781,3.772,1.362,1.152-3.353,6.077-9.22,2.619-14.773.21,3.457-11.63,1.257-7.858Z" transform="translate(10.411 2.037)"/>
    <path id="Path_424" data-name="Path 424" class="cls-1" d="M271.173,83.97l-2.41-1.991-.21-4.61-2.619-2.829.733-3.248L260.8,68.568,259.229,67l-.629-1.572,3.353-6.077L260.591,58.2l1.781-3.772-.419-.21,2.619-4.715,14.144.1.838,27.66-2.41,1.362-1.362,1.362-1.152-.419-.524.314Z" transform="translate(11.504 2.076)"/>
    <path id="Path_425" data-name="Path 425" class="cls-1" d="M111.74,81.322l.21-1.886h-1.886l.1-2.829L98.434,68.854l-.838-.21-.629.838-2.515.943L93.3,70.111l-1.991.524-.21-4.924h1.362l.1-2.2h4.715v.943h1.152V50.519l25.25-.419v1.781l3.562.1V66.444l9.115.21-.21,5.658H137.2l-.21,6.915L115.3,77.341l-.1,2.829Z" transform="translate(3.512 2.104)"/>
    <path id="Path_426" data-name="Path 426" class="cls-1" d="M44.3,83.4l.1-22.735V59.41l.943-.21V58.153l.943-.1-.1-.524h1.048l-.1-.943,1.048-.1v-.733l.838-.1v-.733h.943V53.857l2.619-1.048v-.838h.733l.1-1.362,3.248.1v.524H64.94V50.61l5.553-.21.21,12.258-.629-.1-.1,1.676h2.41V67.9l.1,3.772-3.562-.1v1.362l-3.353-.419V75.65l-1.152-.1v.943l-.733-.1v1.152l-.629-.1v3.143l-.943.943V82.67l-.943-.1-.314.629Z" transform="translate(1.279 2.119)"/>
    <path id="Path_427" data-name="Path 427" class="cls-1" d="M92.374,70.621l-1.362,1.257-1.467-.21-.943.524-.733-1.362-.314,1.991-.838-1.362-.838.943-.1-7.439-10.582-.524.1,3.457H71.21V64.23H68.8l.1-1.676.629.1L69.324,50.4l30.174.1V64.439H98.346V63.5H93.631l-.1,2.2H92.164Z" transform="translate(2.448 2.119)"/>
    <path id="Path_428" data-name="Path 428" class="cls-1" d="M125.6,51.948l.1-1.048,11.42.1,8.591,10.372,2.934.21.1,7.963L143.1,80.131l-7.753-.943.21-6.915h-1.048l.21-5.658-9.115-.21Z" transform="translate(5.158 2.142)"/>
    <path id="Path_429" data-name="Path 429" class="cls-1" d="M318.8,70.435l-4.924,2.829-.1,1.152-1.676.943-2.3,3.981.21,1.467-2.724,4.715-1.991,2.1-1.781.943-2.619,1.362-2.934-4.61-4.086-.524,1.676-7.439L283.6,78.4l.1-1.362,1.886-4.505-1.467-1.257-.1-2.3,3.248.419,1.048-.419.943-3.457L292.4,63l6.5-10.9,2.41,2.829.524,1.886,2.3,4.086,2.1-.1,1.886,1.676.21,1.152,1.676-.1,3.772,1.257,2.1-.1.838.629-.1,1.467,1.886,1.886Z" transform="translate(12.697 2.2)"/>
    <path id="Path_430" data-name="Path 430" class="cls-1" d="M206.78,52.4l3.353.524,3.877,13.411,7.229,6.915,4.086,1.257-.1.314,4.924.838-8.172,8.591-2.724.314-1.781.1-2.934-1.152-2.2-.524-5.658,1.257-.838,1.362-3.353-.629-.733,4.4-5.658.21-3.562.838-1.572-.1-6.077-7.648-.838-.419.1-1.152L183,80.793v-.629l-2.829-.838-1.886-2.515-.943-.314-1.572-2.829-.943-.733-1.048-2.515-2.619-.943-2.724-4.924V63.82l-.629-.1-.1-2.41V56.486l34.679-.524Z" transform="translate(7.167 2.214)"/>
    <path id="Path_431" data-name="Path 431" class="cls-1" d="M228.211,75.635l-4.924-.838.1-.314-4.086-1.257-7.229-6.915L208.2,52.9l32.27,3.562-3.457,11.63-1.676,5.239h-4.819Z" transform="translate(9.099 2.238)"/>
    <path id="Path_432" data-name="Path 432" class="cls-1" d="M40.126,90.388l-2.515-3.248-6.286-.314.1-.733-13.83-.1.21-25.879,3.562.21.1-.419h1.362l.733.629,15.3.314v-.629h6.81l-.1,22.735Z" transform="translate(0.005 2.572)"/>
    <path id="Path_433" data-name="Path 433" class="cls-1" d="M193.324,92.331l-10.268,3.877-9.639,1.676-3.457-5.762,1.257-1.152-1.362-.314-4.3-2.934-4.3-.1L159.9,84.893l-.838.629-.1-3.038-5.762.21-.314-5.972-.943,1.572-1.257.838-.1.943-.733-.419-.733,1.362v1.467l-.524.838-.838.314-.629,1.152-1.781-.524-3.038-4.61,5.658-10.582-.1-7.963,21.059-.21.1,2.41.629.1v.733l2.724,4.924,2.619.943,1.048,2.515.943.733,1.572,2.829.943.314,1.886,2.515,2.829.838v.629l1.152.314-.1,1.152.838.419,6.077,7.648,1.572.1.1,1.991Z" transform="translate(5.955 2.62)"/>
    <path id="Path_434" data-name="Path 434" class="cls-1" d="M85.979,91.774l-1.152.21-1.048,1.257H82.94L82,94.812l-1.048-.419-.838.733H78.225l-1.152,2.1-.943-1.467.733.1.1-.629-1.467.524v-.733l-.629-.1v-.943l-.419,1.676-1.362.629-.524-.943-1.048-.419-.629,1.362-.524.314-.629-.524L68.9,97.117l-1.257-.733-3.038.838-.838-1.467,2.2.1-.1-.943L64.5,94.288v-.524l.943-.419-1.781-.419-2.2-1.572.419-1.152-.943-1.886V83.5l-.838-.943.314-.629.943.1V80.878l.943-.943V76.792l.629.1V75.744l.733.1v-.943l1.152.1V71.867l3.353.419V70.924l3.562.1-.1-3.772h4.086l-.1-3.457,10.582.524.1,7.439Z" transform="translate(2.033 2.758)"/>
    <path id="Path_435" data-name="Path 435" class="cls-1" d="M239.772,98.751l-1.257-7.229.1-6.391-2.829.524L233.8,80.835l.314-8.067,1.676-5.239,14.773-.21,9.22-2.619.629,1.572,1.572,1.572,5.867,2.724-.733,3.248,2.619,2.829.21,4.61,2.41,1.991-.314,1.152-2.2,2.1-.943-.838-1.781-.21-.733,1.257-.629-.1-2.3,2.1-.314,2.934,1.572,1.467.314,1.781-5.658,2.2-.943,1.048L251.3,101.37l-1.781.733Z" transform="translate(10.321 2.801)"/>
    <path id="Path_436" data-name="Path 436" class="cls-1" d="M84.6,101.013l.21-9.429.314-20.011.838-.943.838,1.362L87.115,70l.733,1.362.943-.524,1.467.21,1.362-1.257,1.991-.524,1.152.314,2.515-.943.629-.838.838.21,11.734,7.753-.1,2.829h1.886l-.21,1.886-3.143.21L107.021,85.4l-.1,16.135Z" transform="translate(3.202 2.949)"/>
    <path id="Path_437" data-name="Path 437" class="cls-1" d="M223.291,103.2l.21-5.658-1.572-1.781-1.467-5.029-2.1-.733L216.9,83.611l2.724-.314L227.8,74.7l2.3-2.3h4.819l-.314,8.067,1.991,4.819,2.829-.524-.1,6.391,1.257,7.229-4.086,4.61-1.467,5.658-4.191,2.1-1.257-3.877-4.505.419-.419-.629.314-1.572-.524-1.257Z" transform="translate(9.514 3.168)"/>
    <path id="Path_438" data-name="Path 438" class="cls-1" d="M128.324,113.4l-.524-1.676,1.467-1.152.733-1.991,1.467-.629.943-2.829,2.3.419.419-1.152-.21-1.152,1.048.314.838-3.143.943.524,1.886-2.41L138.906,98l.21-.733.419-.21.943,1.152L141,96.85l.21,1.886.524.314,1.886-1.362-.629-1.362,1.886-1.572.1-.838-.838-1.257.943-.733-.733-1.781-1.257.1.524-1.257-1.467-1.467-.1-.943.314-.419.733.419.524-.629.419.314.524-.838h.524l.21-1.152.733-.733,1.781.524.629-1.152.838-.314.524-.838V80.3l.733-1.362.733.419.1-.943,1.257-.838L153.574,76l.314,5.972,5.762-.21.1,3.038.838-.629,1.362,2.724,4.3.1,4.3,2.934,1.362.314L170.652,91.4l3.457,5.762,9.639-1.676,10.268-3.877L191.5,94.335l-3.248,4.715-5.553,5.867-17.6,9.01-1.257.524h-2.934l-3.143-1.257-3.457,1.048-3.562,2.515-9.22-3.667-.733-.314Z" transform="translate(5.263 3.34)"/>
    <path id="Path_439" data-name="Path 439" class="cls-1" d="M105.9,113.922V101.14l.1-16.135,1.886-4.715,3.143-.21,3.457-1.152.1-2.829,21.688,1.886,7.753.943,3.038,4.61-.733.733-.21,1.152h-.524l-.524.838-.419-.314-.524.629-.733-.419-.314.419.1.943,1.467,1.467-.524,1.257,1.257-.1.733,1.781-.943.733.838,1.257-.1.838-1.886,1.572.629,1.362-1.886,1.362-.524-.314-.21-1.886-.524,1.362-.943-1.152-.419.21-.21.733.733.524-1.886,2.41-.943-.524-.838,3.143-1.048-.314.21,1.152-.419,1.152-2.3-.419-.943,2.829-1.467.629-.733,1.991-1.467,1.152.524,1.676.524.838-23.155.21Z" transform="translate(4.218 3.345)"/>
    <path id="Path_440" data-name="Path 440" class="cls-1" d="M296.069,97.259l-5.972,3.562-2.934,3.667-9.849,3.457-.838-2.41-3.877-7.02,1.886-1.152-.314-.524,2.2-1.257-5.762-7.334-.838-1.572-1.572-.733,2.2-2.1.314-1.152,2.934-4.086.524-.314,1.152.419,1.362-1.362,7.648-.1L296.279,76.2,294.6,83.639l4.086.524,2.934,4.61,2.619-1.362-.314,1.257,1.257-.1L303.3,90.03l-1.781,2.515L299.631,93.8l-2.515.733-1.257,1.676Z" transform="translate(11.962 3.35)"/>
    <path id="Path_441" data-name="Path 441" class="cls-1" d="M202.114,120.261l.733-1.362,1.467-1.048,2.515-3.667-.838-3.981,1.152-2.515,1.676-2.1v-2.829l-.838-.21-1.257-1.781-1.572-3.667,1.152-3.667V89.667l-.419-1.362-.838-.943-.838-3.143.838-1.362,5.658-1.257,2.2.524-.524,2.724.419,2.3-1.467,4.819-1.048,1.362.419,1.886-1.152,3.038,5.658-1.572,1.572.1.943.733.943-.21,1.467,1.152,1.991.419-.21,2.829,1.153,1.048h.943l1.152.629.524,1.257-.314,1.572.419.629,4.505-.419,1.257,3.877-16.449,8.067-.1.419-.838-.419-4.191,1.467-.733-.419-.629,1.362-1.572.314-.733-.524-2.515,1.781-1.467-.1-.524-.524Z" transform="translate(8.794 3.607)"/>
    <path id="Path_442" data-name="Path 442" class="cls-1" d="M36.838,117.637l-.524-13.1L36,94.063l3.248-4.715L44.7,81.91,61.25,81.7l-.1,36.775Z" transform="translate(0.883 3.612)"/>
    <path id="Path_443" data-name="Path 443" class="cls-1" d="M72.992,128.009l-1.467-.838-.419.838h-.629l-3.038-2.3-.629-1.362.419-1.572-1.048-.1-.1-1.886-1.467.1-.524-1.676L63.038,119l-.629-1.257-.733-.524L60,118.475,60.1,81.7l.838.943v4.819l.943,1.886L61.467,90.5l2.2,1.572,1.781.419-.943.419v.524l1.362.629.1.943-2.2-.1.838,1.467,3.038-.838,1.257.733.838-1.048.629.524.524-.314.629-1.362,1.048.419.524.943,1.362-.629.419-1.676v.943l.629.1V94.9l1.467-.524-.1.629-.733-.1.943,1.467,1.152-2.1h1.886l.838-.733L82,93.958l.943-1.572h.838l1.048-1.257,1.152-.21-.21,9.429v9.325Z" transform="translate(2.028 3.612)"/>
    <path id="Path_444" data-name="Path 444" class="cls-1" d="M223.658,102.74h-.943l-1.152-1.048.21-2.829-1.991-.419-1.467-1.152-.943.21-.943-.733-1.572-.1L209.2,98.235l1.153-3.038-.419-1.886,1.048-1.362,1.467-4.819-.419-2.3.524-2.724,2.934,1.152,1.781-.1,1.467,6.391,2.1.733L222.3,95.3l1.572,1.781Z" transform="translate(9.147 3.631)"/>
    <path id="Path_445" data-name="Path 445" class="cls-1" d="M180.2,104.559l5.553-5.867L189,93.977l2.514-2.724.524-.314-.1-1.991,3.562-.838,5.658-.21.733-4.4,3.353.629.838,3.143.838.943.419,1.362v3.772l-1.152,3.667,1.572,3.667,1.257,1.781-4.3.314-1.676-.524L200,103.407l-.943-.314-1.048,1.362L196.23,103.3l-15.82,4.4Z" transform="translate(7.763 3.698)"/>
    <path id="Path_446" data-name="Path 446" class="cls-1" d="M262.968,112.788l-8.067-6.6-4.4-5.762,7.124-3.248.943-1.048,5.658-2.2-.314-1.781-1.572-1.467.314-2.934,2.3-2.1.629.1.733-1.257,1.781.21.943.838,1.572.733.838,1.572,5.762,7.334-2.2,1.257.314.524-1.886,1.152,3.877,7.02.838,2.41-7.229,1.781-4.3,1.048Z" transform="translate(11.117 3.746)"/>
    <path id="Path_447" data-name="Path 447" class="cls-1" d="M37.192,104.392l-19.383.21-.1-3.038L17.6,84.8l13.83.1-.1.733,6.286.314L40.126,89.2l-3.248,4.715Z" transform="translate(0.005 3.76)"/>
    <path id="Path_448" data-name="Path 448" class="cls-1" d="M284.668,126.684l-3.457-3.143.733-2.515-2.2-3.667-2.724,1.257-.1-1.048-1.467-1.676-1.362-3.457-1.153,1.048-2.514-1.362L270,108.768l7.229-1.781,9.849-3.457,2.934-3.667,5.972-3.562,3.038,4.191.314,1.362.943.943.1,1.152-2.41,1.152.524,1.257-.629,2.2L296.3,109.92l-2.2-.21L292.84,111.7l.314,1.676-.943,2.724,1.152,1.152L292,118.616l.629,1.152-.1,1.362Z" transform="translate(12.048 4.309)"/>
    <path id="Path_449" data-name="Path 449" class="cls-1" d="M222.886,125.279l-8.067-6.182-.419-1.048.1-.419,16.449-8.067,4.191-2.1,1.467-5.658L240.7,97.2l9.744,3.353,1.781-.733,4.4,5.762,8.067,6.6-6.915,4.191-5.658,3.143-1.048,3.877-2.515-.419-.838,1.152-3.143.733-2.1,1.676-6.6,1.572-1.467-.21-5.972,1.676Z" transform="translate(9.395 4.352)"/>
    <path id="Path_450" data-name="Path 450" class="cls-1" d="M98.083,136.694l-1.152-1.467-1.781-.419-.524,1.886-.838.943H92.426l-1.886.943-.524-.419.21-1.676-1.048.629-.838-1.257-2.3.1-1.991-1.676-1.257,1.152-.629-1.467-1.048-.1-.419-1.257-1.152-.21-.419-.524-1.676.314-.943.943-1.362-.524-.314-.733-.943-.21-.419-1.257h-.838l-.524-1.781.314-1.467L85.2,108.825V99.5l22.316.524v12.782l-2.1,7.439Z" transform="translate(2.605 4.461)"/>
    <path id="Path_451" data-name="Path 451" class="cls-1" d="M203.135,119.316l-1.152-1.152-2.41.943-1.886-2.724-3.038-.21-.733-1.048-2.515,1.048-7.858-1.257-3.143-.524v-7.544l15.82-4.4L198,103.6l1.048-1.362.943.314,3.038-1.152,1.676.524,4.3-.314.838.21v2.829l-1.676,2.1-1.152,2.515.838,3.981-2.515,3.667-1.467,1.048Z" transform="translate(7.773 4.552)"/>
    <path id="Path_452" data-name="Path 452" class="cls-1" d="M26.091,130.531H17.5l.21-11.315.1-15.506L37.2,103.5l.524,13.1-.21,3.981Z" transform="translate(0 4.652)"/>
    <path id="Path_453" data-name="Path 453" class="cls-1" d="M160.258,137.651l-.314.524-3.143.314-2.1-.419-.419-1.676-1.257-.314-.629-1.991,2.1-2.829,2.41-2.2-1.257-3.667.21-.838,3.457-4.505,4.505-3.981v-.314l-.629.314-.419-.943.524-.21-.21-.733,1.362-.733-.524-.838,17.6-9.01.21,3.143v7.544l3.143.524-11.106,6.182,1.048,1.572-6.6,4.715-.419.524-.1,1.781Z" transform="translate(6.437 4.657)"/>
    <path id="Path_454" data-name="Path 454" class="cls-1" d="M275.287,132.717,255.8,115.848l6.915-4.191,3.667-2.41,4.3-1.048.419,3.353,2.514,1.362,1.152-1.048,1.362,3.457L277.592,117l.1,1.048,2.724-1.257,2.2,3.667-.733,2.515,3.457,3.143-4.191,3.562-3.772,4.819Z" transform="translate(11.37 4.876)"/>
    <path id="Path_455" data-name="Path 455" class="cls-1" d="M134.464,143.37l-1.572,3.143-7.334-3.981-.629,1.152-.314,2.934-3.038-2.829-1.362-.21L115.5,140.96l.733-1.991,2.41-1.257-.1-2.934.419-1.467-.419-.21.943-2.2.629-3.457,1.676-1.991,1.362-.419.419-1.781,1.362-1.991-.21-2.2.419-.733,1.467-.314,2.829-5.448-.524-.838,12.468-.629.733.314-.419,1.152-2.2.943-1.048,1.572h-.838l-.629,2.1,2.724,2.41-.838,1.991.419,1.048-.943,1.991.419,1.152,1.048.733,1.572-2.515-.733,5.029,1.362-.419-.21,2.515-4.086,7.648Z" transform="translate(4.676 5.015)"/>
    <path id="Path_456" data-name="Path 456" class="cls-1" d="M133.6,143.355l3.248-4.61,4.086-7.648.21-2.514-1.362.419.733-5.029-1.572,2.515-1.048-.733-.419-1.152.943-1.991L138,121.563l.838-1.991-2.724-2.41.629-2.1h.838l1.048-1.572,2.2-.943.419-1.152,9.22,3.667,3.562-2.515,3.457-1.048,3.143,1.257h2.934l1.257-.524.524.838-1.362.733.21.733-.524.21.419.943.629-.314v.314l-4.505,3.981-3.457,4.505-.21.838,1.257,3.667-2.41,2.2-2.1,2.829.629,1.991,1.257.314.419,1.676,2.1.419,3.143-.314.314-.524,2.724,7.963-5.029,7.229-3.562,7.229-3.038-2.724-8.8-2.2-2.619-2.2-5.448-4.3Z" transform="translate(5.54 5.029)"/>
    <path id="Path_457" data-name="Path 457" class="cls-1" d="M92.8,143.946l3.248-5.134,1.048-2.724,7.334-16.449,2.1-7.439.838.524,23.154-.21-2.829,5.448-1.467.314-.419.733.21,2.2-1.362,1.991-.419,1.781-1.362.419-1.676,1.991-.629,3.457-.943,2.2.419.21-.419,1.467.1,2.934-2.41,1.257-.733,1.991-.943,1.152v1.886l-.524.419v1.362l-.629.629-.1,1.152-9.22-.1-1.572-.733-1.572.419-.419-1.781-1.362-1.467Z" transform="translate(3.593 5.067)"/>
    <path id="Path_458" data-name="Path 458" class="cls-1" d="M162.624,145.1,159.9,137.14l7.439-8.067.1-1.781.419-.524,6.6-4.715-1.048-1.572,11.106-6.182,7.858,1.257,2.515-1.048.733,1.048,3.038.21,1.886,2.724,2.41-.943,1.152,1.152-6.705,2.515-6.391,1.048-.21,1.676-5.972,2.934-3.877,2.829-8.277,4.61-1.048.943-.1,1.781-4.819,3.143-2.3,3.038Z" transform="translate(6.795 5.167)"/>
    <path id="Path_459" data-name="Path 459" class="cls-1" d="M267.823,145.779l-.314.943-10.058,7.229L243.1,141.379l-2.934-3.143h-1.152L227.8,128.7l5.972-1.676,1.467.21,6.6-1.572,2.1-1.676,3.143-.733.838-1.152,2.514.419,1.048-3.877,5.658-3.143,19.487,16.868Z" transform="translate(10.034 5.225)"/>
    <path id="Path_460" data-name="Path 460" class="cls-1" d="M50.543,154.68l-.943-1.991,1.991.1.314-.419.524-1.572-.838-1.048,3.877-1.676-.733-1.257.629-3.038.838-.524-1.572-.524,1.257-1.467.838-4.61,1.467-1.048,1.467-1.886.314-7.334-1.886-1.676H56.305l-.21-1.886.314-.943,3.143-1.676.733-1.257.21-2.1,1.676-1.257.733.524.629,1.257,1.048.21.524,1.676,1.467-.1.1,1.886,1.048.1-.419,1.572.629,1.362,3.038,2.3H71.6l.419-.838,1.467.838-.314,1.467.524,1.781h.838l.419,1.257.943.21.314.733,1.362.524.943-.943,1.676-.314.419.524,1.153.21.419,1.257,1.048.1.629,1.467,1.257-1.152,1.991,1.676,2.3-.1.838,1.257,1.048-.629-.21,1.676.524.419,1.886-.943h1.362l.838-.943.524-1.886,1.781.419,1.152,1.467-1.048,2.724-3.248,5.134-3.981,7.439-1.152,1.048-1.362,3.353-.838.943-1.362-.314-1.991,1.362-1.991,3.772-2.3-.21-.943-2.1-2.619-2.2-1.048-.21-1.676-1.991-1.152-.419H70.554l-.419,1.152-1.048-.21-3.248,3.143L65,157.509l-.733.733-1.572-.1-.524-1.781-.838.21-.419-.524-1.572.1-.21-.733-1.467-.629-1.362.314-1.572-.524Z" transform="translate(1.532 5.229)"/>
    <path id="Path_461" data-name="Path 461" class="cls-1" d="M52.731,149.736l-2.619.1-3.353-1.676.419-1.048,2.2-.733.21-.524-14.039-5.553L25.7,129.935l11.42-9.953L37.33,116l24.307.838-.21,2.1-.733,1.257-3.143,1.676-.314.943.21,1.886h1.781l1.886,1.676-.314,7.334-1.467,1.886-1.467,1.048-.838,4.61-1.257,1.467,1.572.524-.838.524-.629,3.038.733,1.257Z" transform="translate(0.391 5.249)"/>
    <path id="Path_462" data-name="Path 462" class="cls-1" d="M221.726,150.122h-1.781l-.629.733-.838.1-.943,1.362-.733-.21-.629.943-1.257-.1-.524.838-1.362.21-.943-2.724-4.819-3.562-2.2-1.467-1.152-1.467L203.391,143l.314-2.1-1.362-2.619-4.3-.733L197,136.292l1.991-1.676,1.152-2.3,1.781-1.362-.314-1.781-1.467-2.1-.629-3.248,2.515-3.772.524.524,1.467.1,2.514-1.781.733.524,1.572-.314.629-1.362.733.419,4.191-1.467.838.419.419,1.048,8.067,6.182-7.544,6.077Z" transform="translate(8.565 5.282)"/>
    <path id="Path_463" data-name="Path 463" class="cls-1" d="M167.343,149.408v-1.467l-1.781.1.419-1.362-1.572-1.257.524-1.048-.733-1.362,2.3-3.038,4.819-3.143.1-1.781,1.048-.943,8.277-4.61,3.877-2.829,5.972-2.934.21-1.676,6.391-1.048,6.705-2.515-.314,1.467-2.515,3.772.629,3.248,1.467,2.1.314,1.781-1.781,1.362-1.152,2.3-1.991,1.676,1.048,1.257,4.3.733,1.362,2.619-2.934.419-2.1.943-2.514-.21-11.944,1.572-1.991.733h-.733l-.419-.943-.524-.21-3.667,2.3h-.419l.21-.419,2.619-2.829v-.733l-.629-.1-3.562,2.3-5.343,4.61-1.572.419-1.572,1.676Z" transform="translate(7 5.368)"/>
    <path id="Path_464" data-name="Path 464" class="cls-1" d="M301.859,154.156,276.4,133.935l3.772-4.819,4.191-3.562L292.22,120l.314,2.3-.209.838.838,1.048,3.143-.629,2.41,1.467.838,1.676-.314,4.61.629,2.619,1.991,1.362,1.152-.524,1.467.314,1.152,4.191.943.838.629,1.362,2.2,1.048,2.1,3.562,5.553,5.029.733,2.1-1.152,1.676-4.4.629-2.3,2.724-4.61,1.362-1.467,1.676-.419-.733,1.362-2.619v-1.991Z" transform="translate(12.353 5.439)"/>
    <path id="Path_465" data-name="Path 465" class="cls-1" d="M220.853,149.774l-5.553-19.7L222.844,124l5.553,4.3,11.211,9.534h1.152l2.934,3.143-8.8,4.4-6.915,1.467Z" transform="translate(9.438 5.63)"/>
    <path id="Path_466" data-name="Path 466" class="cls-1" d="M45.579,164.608l-1.991-.1-.629-1.362h-.943l-.524-.629-1.886,1.676-1.886-.21-.838-1.152-1.467.314-1.991-.629-1.781.419-2.1-1.152-.629.629-2.2.21-.419,1.048-1.676.21-1.676,1.048-2.3-.1L19.6,166.6l-2.1-.314V151.826l.1-17.183-.1-5.343h8.591l9.849,10.372,14.039,5.553-.21.524-2.2.733-.419,1.048,3.353,1.676,2.619-.1.838,1.048-.524,1.572-.314.419-1.991-.1.943,1.991-.1.629,2.1,1.676-.524,1.362-1.991-.524-.524.629.21.838,1.048.629-.21.943.524,1.152-1.886.419-1.676,2.2L46.1,162.617Z" transform="translate(0 5.883)"/>
    <path id="Path_467" data-name="Path 467" class="cls-1" d="M283.5,158.421l-.314-.629-1.886.629-.838-2.2-1.362.629-1.257-1.467.21-.943-2.1-.1-.1-2.41-.733.943h-.524v-1.257l-1.048-1.152-.1-1.152-.629-.733-1.152.21v-.838l-.733-1.152-.943.419-.314-.943h-.943l-1.152-1.362-1.572.1,8.8-13.411,2.1,1.781L302.356,153.6l-2.305,2.2-3.038,4.086-3.143-2.515-.733.733-1.886-1.467-2.3,2.829,2.829,2.619-3.667,2.3-1.781-2.41-.733.419Z" transform="translate(11.857 5.993)"/>
    <path id="Path_468" data-name="Path 468" class="cls-1" d="M128.659,182.347H105.4l3.248-6.915-.419-16.554.838-1.467.733.629,3.981-11.839.1-1.152.629-.629v-1.362l.524-.419v-1.886l.943-1.152,4.715,2.619,1.362.21,3.038,2.829.314-2.934.629-1.152,7.334,3.981,1.572-3.143,1.781,4.924,5.448,4.3-1.991,3.667-1.676,1.467-.21.943,1.257,1.572-1.362,1.152-.314,2.2-4.715,12.153-1.991,3.457-.838,2.514Z" transform="translate(4.194 6.375)"/>
    <path id="Path_469" data-name="Path 469" class="cls-1" d="M175.52,165.679l-.1-1.676-.838-.21-1.991-2.515-2.1-4.819-.629-2.724-2.41-1.048-.943-1.257-.21-1.676.943-1.362.838.943,1.572-1.676,1.572-.419,5.343-4.61,3.562-2.3.629.1v.733l-2.619,2.829-.21.419h.419l3.667-2.3.524.21.419.943h.733l1.991-.733,11.944-1.572,2.515.21,2.1-.943,2.934-.419-.314,2.1.524,1.781,1.152,1.467,2.2,1.467-.733.733-2.3-.1-.838.838.419,1.257-.838.21.629.524-.1.943-2.934-.1-.419,1.152-1.362-.314-1.257.314-6.286,5.658-2.515,2.724-11.315,2.3Z" transform="translate(7.1 6.384)"/>
    <path id="Path_470" data-name="Path 470" class="cls-1" d="M244.674,182.423h-5.134l-2.2-4.61-2.3-1.362-1.991-2.41-1.362-2.3-.524-2.829-3.772-1.781-.524-.733-2.2-5.029-1.467-2.3-2.1.21-4.819-1.781-3.143-3.143-.838-1.467,1.362-.21.524-.838,1.257.1.629-.943.733.21.943-1.362.838-.1.629-.733H221l7.124-2.934,6.915-1.467,8.8-4.4,14.354,12.573-2.829,2.3-.419,5.134-2.41,5.343.1,1.886-.943.838.733,3.457-1.048.629-.21.838-.733.1.21.943-.838.943-.1,1.362-1.676,2.934-.733.1-.21,1.152-1.048-.21.314,1.257-.314.21-.838-.733-.733.629Z" transform="translate(9.295 6.403)"/>
    <path id="Path_471" data-name="Path 471" class="cls-1" d="M176.551,182.447h-.629l-33.422-.419,2.3-2.41,3.457-6.391,3.248-9.953,3.353-5.029,3.562-7.229,5.029-7.229,1.781-1.886.733,1.362-.524,1.048,1.572,1.257-.419,1.362,1.781-.1v1.467l-.943,1.362.21,1.676.943,1.257,2.41,1.048.629,2.724,2.1,4.819,1.991,2.514.838.21.1,1.676-.838,1.572Z" transform="translate(5.964 6.484)"/>
    <path id="Path_472" data-name="Path 472" class="cls-1" d="M100.8,182.318l-25.145.21-.629-1.362.733-1.991-.21-1.152,1.886-.733.419-1.257-.838-.838-.943-.21.1-1.152-1.676-.943,1.362-4.4L81,160.106l1.991-3.772,1.991-1.362,1.362.314.838-.943,1.362-3.353,1.152-1.048,3.981-7.439,7.439-.1,1.362,1.467.419,1.781,1.572-.419,1.572.733,9.22.1-3.981,11.839-.733-.629-.838,1.467.419,16.554-3.248,6.915Z" transform="translate(2.72 6.508)"/>
    <path id="Path_473" data-name="Path 473" class="cls-1" d="M261.964,182.122l-18.754.1L243,181.7l.733-.629.838.733.314-.21-.314-1.257,1.048.21.21-1.152.733-.1,1.676-2.934.1-1.362.838-.943-.21-.943.733-.1.21-.838,1.048-.629-.733-3.457.943-.838-.1-1.886,2.41-5.343.419-5.134,2.829-2.3,10.058-7.229.314-.943,1.572-.1,1.152,1.362h.943l.314.943.943-.419.733,1.152v.838l1.152-.21.629.733.1,1.152,1.048,1.152v1.257h.524l.733-.943.1,2.41,2.1.1-.21.943,1.257,1.467,1.362-.629.838,2.2,1.886-.629.314.629-3.143,1.781.838,1.048-2.514,1.886.733,1.048-3.981,2.829-.733,1.781h-1.257l-1.257,2.2-1.781,1.152.629,1.572,1.048.733-3.353.1-2.724,1.362-2.724,3.143-1.572,3.562Z" transform="translate(10.76 6.599)"/>
    <path id="Path_474" data-name="Path 474" class="cls-1" d="M199.358,182.237l.21-7.439,1.467-2.829-1.362-1.781,1.048-2.515-.314-1.257-1.886-3.038-.629-2.3-2.1-.524-1.781-2.1-2.514-1.048,6.286-5.658,1.257-.314,1.362.314.419-1.152,2.934.1.1-.943-.629-.524.838-.21-.419-1.257.838-.838,2.3.1.733-.733,4.819,3.562.943,2.724.838,1.467,3.143,3.143,4.819,1.781,2.1-.21,1.467,2.3,2.2,5.029.524.733,3.772,1.781.524,2.829,1.362,2.3,1.991,2.41,2.3,1.362,2.2,4.61-18.125.1-11.839-.1Z" transform="translate(8.302 6.694)"/>
    <path id="Path_475" data-name="Path 475" class="cls-1" d="M127.6,181.817l1.676-1.991.838-2.514,1.991-3.457L136.82,161.7l.314-2.2,1.362-1.152-1.257-1.572.21-.943,1.676-1.467,1.991-3.667,2.619,2.2,8.8,2.2,3.038,2.724-3.353,5.029-3.248,9.953-3.457,6.391-2.3,2.41-12.887.1Z" transform="translate(5.253 6.904)"/>
    <path id="Path_476" data-name="Path 476" class="cls-1" d="M72.512,181.941l-15.3-.1H48.939l.419-1.467-1.467-1.048-.21-1.152.21-1.048,1.257-.419-.733-1.676.314-1.886-.629-.629.838-2.3-.733-.629V167.8l-1.886-1.991-2.3-.1-.314-.524.629-1.676.524-1.991,2.934,1.362,1.676-2.2,1.886-.419-.524-1.152.21-.943-1.048-.629-.21-.838.524-.629,1.991.524.524-1.362-2.1-1.676.1-.629,4.191-.1,1.572.524,1.362-.314,1.467.629.21.733,1.572-.1.419.524.838-.21.524,1.781,1.572.1.733-.733.838.838,3.248-3.143,1.048.21.419-1.152h1.886l1.152.419,1.676,1.991,1.048.21,2.619,2.2.943,2.1,2.3.21-5.134,8.382-1.362,4.4,1.676.943-.1,1.152.943.21.838.838-.419,1.257-1.886.733.21,1.152-.733,1.991.629,1.362Z" transform="translate(1.25 6.99)"/>
    <path id="Path_477" data-name="Path 477" class="cls-1" d="M294.748,170.516l-2.3.314-3.248,1.886-.1-1.152-.943-1.362,1.048-3.562-.524-1.467-1.572-1.781,3.667-2.3-2.829-2.619,2.3-2.829,1.886,1.467.733-.733,3.143,2.515,3.038-4.086,2.3-2.2,2.934,1.781v1.991l-1.362,2.619.419.733-3.353,1.886-1.152,1.572-.943.733-1.362-.1-1.572,1.467-.419,1.467.629,2.724Z" transform="translate(12.864 6.995)"/>
    <path id="Path_478" data-name="Path 478" class="cls-1" d="M175.033,181.731l-.733-15.3.838-1.572,3.353-2.934,11.315-2.3,2.515-2.724,2.515,1.048,1.781,2.1,2.1.524.629,2.3,1.886,3.038.314,1.257-1.048,2.515,1.362,1.781-1.467,2.829-.21,7.439H175.033Z" transform="translate(7.482 7.2)"/>
    <path id="Path_479" data-name="Path 479" class="cls-1" d="M280.572,176.164l-2.619-1.991-6.077-.943-1.048-.733-.629-1.572,1.781-1.153,1.257-2.2H274.5l.733-1.781,3.981-2.829-.733-1.048,2.514-1.886-.838-1.048L283.3,157.2l2.1,3.981.733-.419,1.781,2.41,1.572,1.781L290,166.42l-1.048,3.562.943,1.362.1,1.152-.419.419-4.924-.21Z" transform="translate(12.057 7.214)"/>
    <path id="Path_480" data-name="Path 480" class="cls-1" d="M50.189,181.464l-27.555.1-5.134-.1V164.805l2.1.314,1.048-1.781,2.3.1,1.676-1.048,1.676-.21.419-1.048,2.2-.21.629-.629,2.1,1.152,1.781-.419,1.991.629,1.467-.314.838,1.152,1.886.21,1.886-1.676.524.629h.943l.629,1.362,1.991.1-.629,1.676.314.524,2.3.1,1.886,1.991v1.781l.733.629-.838,2.3.629.629-.314,1.886.733,1.676-1.257.419-.21,1.048.21,1.152L50.608,180Z" transform="translate(0 7.362)"/>
    <path id="Path_481" data-name="Path 481" class="cls-1" d="M17.6,36.384l.1-9.849L58.566,6l.1,19.278,8.067.21-.419,10.791Z" transform="translate(0.005 0)"/>
    <path id="Path_482" data-name="Path 482" class="cls-1" d="M205.115,53.736,202.6,24.5l19.592-.1,22.631.21,1.257,25.25-4.086.1-1.257,7.858-32.27-3.562Z" transform="translate(8.832 0.878)"/>
    <path id="Path_483" data-name="Path 483" class="cls-1" d="M167.719,57.822,167.3,24.714l34.784-.314,2.2.1L206.8,53.736,202.4,57.3Z" transform="translate(7.148 0.878)"/>
    <path id="Path_484" data-name="Path 484" class="cls-1" d="M69.553,51.631,64,51.841l.1-16.449L64.524,24.6H94.279l7.648.1V35.811l-.629.1.1.838-1.362-.1-.314,15.087Z" transform="translate(2.219 0.887)"/>
    <path id="Path_485" data-name="Path 485" class="cls-1" d="M244.157,49.85,242.9,24.6l2.1.1,33.736.21.733,25.879-14.144-.1H244.262Z" transform="translate(10.755 0.887)"/>
    <path id="Path_486" data-name="Path 486" class="cls-1" d="M138.437,52.255l-11.42-.1-.1,1.048-3.562-.1V51.312l-25.25.419.314-15.087,1.362.1-.1-.838.629-.1V24.7h33l5.448.1Z" transform="translate(3.846 0.892)"/>
    <path id="Path_487" data-name="Path 487" class="cls-1" d="M169.184,62.627l-21.059.21-2.934-.21L136.6,52.255l.314-27.45H161.64l7.124-.1.419,33.108Z" transform="translate(5.683 0.892)"/>
    <path id="Path_488" data-name="Path 488" class="cls-1" d="M17.81,61.3l-.21-.419V35l48.719-.1-.1,16.449v.629H57.937v-.524l-3.248-.1-.1,1.362h-.733v.838L51.232,54.6v1.048h-.943v.733l-.838.1v.733l-1.048.1.1.943H47.46l.1.524-.943.1V59.94l-.943.21v1.257h-6.81v.629l-15.3-.314-.733-.629H21.477l-.1.419Z" transform="translate(0.005 1.379)"/>
  </g>
</svg>
