<svg xmlns="http://www.w3.org/2000/svg" viewBox="0 0 30.517 24.836">
  <defs>
    <style>
      .cls-1 {
        fill: #fff;
        fill-rule: evenodd;
      }
    </style>
  </defs>
  <path id="twitter_logo" class="cls-1" d="M17.768,27.518a6.305,6.305,0,0,1-5.838-4.347,6.2,6.2,0,0,0,2.694-.072c.018,0,.036-.018.09-.036a6.286,6.286,0,0,1-4.077-2.874,6,6,0,0,1-.916-3.341,6.1,6.1,0,0,0,2.784.754A6.353,6.353,0,0,1,9.919,13.8a6.274,6.274,0,0,1,.665-4.544,17.905,17.905,0,0,0,12.932,6.556c-.036-.251-.072-.467-.108-.683a6.26,6.26,0,0,1,5.173-6.933,6.147,6.147,0,0,1,5.5,1.742.342.342,0,0,0,.341.09,12.676,12.676,0,0,0,3.646-1.4c.036-.018.054-.036.09-.036h.036A6.483,6.483,0,0,1,35.514,12,11.642,11.642,0,0,0,39,11.065c.018.018.018.018.018.036-.234.323-.467.629-.718.934a11.9,11.9,0,0,1-2.281,2.173.225.225,0,0,0-.108.2A17.961,17.961,0,0,1,35.8,17.19a18.318,18.318,0,0,1-1.617,5.586,17.931,17.931,0,0,1-3.395,4.939,16.77,16.77,0,0,1-8.622,4.8,19.027,19.027,0,0,1-3.485.413A17.726,17.726,0,0,1,8.644,30.23c-.036-.018-.072-.054-.144-.09a12.8,12.8,0,0,0,6.269-.862A13.977,13.977,0,0,0,17.768,27.518Z" transform="translate(-8.5 -8.098)"/>
</svg>
