<svg xmlns="http://www.w3.org/2000/svg" viewBox="0 0 360 53.5">
  <defs>
    <style>
      .cls-1 {
        fill: #062d55;
      }

      .cls-2 {
        fill: #ccbf99;
      }

      .cls-3 {
        fill: none;
        stroke: #062d55;
        stroke-miterlimit: 10;
        stroke-width: 0.764px;
      }

      .cls-4 {
        fill: #2b468f;
      }
    </style>
  </defs>
  <g id="varilogo3" transform="translate(-23.33 -23.18)">
    <g id="Group_59" data-name="Group 59">
      <path id="Path_363" data-name="Path 363" class="cls-1" d="M24.13,53.08v-.41h1.08a.286.286,0,0,0,.32-.32V39.32c0-.18-.11-.28-.32-.28H24.13v-.41h4.68v.41H27.73c-.21,0-.32.09-.32.28V52.43h4.56c.4,0,.61-.17.64-.5l.34-2.68h.53v1.08a15.014,15.014,0,0,0,.21,2.96,10.516,10.516,0,0,0-2.54-.21Z"/>
      <path id="Path_364" data-name="Path 364" class="cls-1" d="M35.89,52.34V39.32c0-.18-.11-.28-.32-.28H34.5v-.41h4.68v.41H38.1c-.21,0-.32.09-.32.28V52.34a.286.286,0,0,0,.32.32h1.08v.41H34.5v-.41h1.08C35.79,52.67,35.89,52.56,35.89,52.34Z"/>
      <path id="Path_365" data-name="Path 365" class="cls-1" d="M45.66,53.35a6.294,6.294,0,0,1-3.03-.83,1.979,1.979,0,0,0-.69-.25c-.23,0-.35.16-.37.48l-.02.32h-.44V49.24h.41a3.611,3.611,0,0,0,1.32,2.6,4.249,4.249,0,0,0,2.64.84,3.035,3.035,0,0,0,2.32-.83,2.712,2.712,0,0,0,.79-1.95,2.945,2.945,0,0,0-2.06-2.71L43.8,45.98a4.216,4.216,0,0,1-1.86-1.5,3.707,3.707,0,0,1-.62-2.05,4.075,4.075,0,0,1,1.12-2.88,4.218,4.218,0,0,1,3.23-1.2,4.66,4.66,0,0,1,2.54.83,1.51,1.51,0,0,0,.6.25c.2,0,.31-.16.32-.48l.02-.46h.44v3.97h-.41a3.849,3.849,0,0,0-1.13-2.6,3.378,3.378,0,0,0-2.32-.84,2.884,2.884,0,0,0-2.11.74,2.334,2.334,0,0,0-.75,1.7,2.949,2.949,0,0,0,.52,1.71,3.429,3.429,0,0,0,1.52,1.19l2.75,1.22a4.794,4.794,0,0,1,2.07,1.62,3.648,3.648,0,0,1,.7,2.14,3.691,3.691,0,0,1-1.31,2.82A4.851,4.851,0,0,1,45.66,53.35Z"/>
      <path id="Path_366" data-name="Path 366" class="cls-1" d="M63.89,53.08h-4.7v-.41h1.49l-1.6-4.43H54.04l-1.6,4.43h1.49v.41H50.47v-.41h.85a.447.447,0,0,0,.44-.32L56.8,38.64h.78l5.04,13.71a.438.438,0,0,0,.44.32h.85v.41ZM56.57,41.34,54.28,47.6h4.56Z"/>
      <path id="Path_367" data-name="Path 367" class="cls-1" d="M81.33,53.08v-.41h1.08c.21,0,.32-.09.32-.28V40.68l-4.79,12.4h-.78L72.37,41.02V52.35a.286.286,0,0,0,.32.32h1.08v.41H70.19v-.41h1.08a.286.286,0,0,0,.32-.32V39.32c0-.18-.11-.28-.32-.28H70.19v-.41h3.28l4.68,11.85,4.58-11.85h3.28v.41H84.93a.286.286,0,0,0-.32.32V52.38c0,.18.11.28.32.28h1.08v.41H81.33Z"/>
      <path id="Path_368" data-name="Path 368" class="cls-1" d="M100.01,53.08h-4.7v-.41H96.8l-1.6-4.43H90.16l-1.6,4.43h1.49v.41H86.59v-.41h.85a.447.447,0,0,0,.44-.32l5.04-13.71h.78l5.04,13.71a.438.438,0,0,0,.44.32h.85v.41ZM92.7,41.34,90.41,47.6h4.56Z"/>
      <path id="Path_369" data-name="Path 369" class="cls-1" d="M110.86,52.6a.67.67,0,0,0,.56-.29,1.076,1.076,0,0,0,.22-.69,3.383,3.383,0,0,0-.07-.74l.44-.07a2.99,2.99,0,0,1,.09.76,1.668,1.668,0,0,1-1.76,1.79c-1.3,0-1.95-.79-1.95-2.36a7.627,7.627,0,0,0-.6-3.47,2.507,2.507,0,0,0-2.43-1.11h-1.49v5.94a.286.286,0,0,0,.32.32h1.54v.41H100.6v-.41h1.08a.286.286,0,0,0,.32-.32V39.32c0-.18-.11-.28-.32-.28H100.6v-.41h5.71a5.142,5.142,0,0,1,3.28,1.06,3.388,3.388,0,0,1,1.35,2.82,3.436,3.436,0,0,1-.88,2.4,4.517,4.517,0,0,1-2.33,1.34,2.963,2.963,0,0,1,2.06,1.97,9.85,9.85,0,0,1,.34,2.77C110.12,52.06,110.37,52.6,110.86,52.6Zm-4.68-13.32h-2.32v6.46h2.32a2.577,2.577,0,0,0,2.14-.96,3.731,3.731,0,0,0,0-4.54A2.577,2.577,0,0,0,106.18,39.28Z"/>
      <path id="Path_370" data-name="Path 370" class="cls-1" d="M114.14,52.34V39.32c0-.18-.11-.28-.32-.28h-1.08v-.41h4.68v.41h-1.08c-.21,0-.32.09-.32.28V52.34a.286.286,0,0,0,.32.32h1.08v.41h-4.68v-.41h1.08C114.03,52.67,114.14,52.56,114.14,52.34Z"/>
      <path id="Path_371" data-name="Path 371" class="cls-1" d="M119.02,53.08v-.41h1.08a.286.286,0,0,0,.32-.32V39.32c0-.18-.11-.28-.32-.28h-1.08v-.41h7.27a10.4,10.4,0,0,0,2.54-.21,12.641,12.641,0,0,0-.21,2.61v1.08h-.53l-.34-2.34c-.03-.34-.24-.5-.64-.5H122.3v6.26h4.61c.18,0,.29-.11.32-.32l.11-1.42h.41v4.13h-.41l-.11-1.42c-.03-.21-.14-.32-.32-.32H122.3v6.26h5.13c.4,0,.61-.17.64-.5l.34-2.68h.53v1.08a15.013,15.013,0,0,0,.21,2.96,10.516,10.516,0,0,0-2.54-.21h-7.59Z"/>
      <path id="Path_372" data-name="Path 372" class="cls-1" d="M135.91,38.63h4.36v.41h-1.15l3.74,11.19,3.83-11.19h-1.15v-.41h3.12v.41h-.85a.447.447,0,0,0-.44.32l-4.7,13.71h-.78l-4.7-13.71a.438.438,0,0,0-.44-.32h-.85v-.41Z"/>
      <path id="Path_373" data-name="Path 373" class="cls-1" d="M160.15,53.08h-4.7v-.41h1.49l-1.6-4.43H150.3l-1.6,4.43h1.49v.41h-3.46v-.41h.85a.447.447,0,0,0,.44-.32l5.04-13.71h.78l5.04,13.71a.438.438,0,0,0,.44.32h.85v.41Zm-7.32-11.74-2.29,6.26h4.56Z"/>
      <path id="Path_374" data-name="Path 374" class="cls-1" d="M170.99,52.6a.67.67,0,0,0,.56-.29,1.076,1.076,0,0,0,.22-.69,3.383,3.383,0,0,0-.07-.74l.44-.07a2.99,2.99,0,0,1,.09.76,1.668,1.668,0,0,1-1.76,1.79c-1.3,0-1.95-.79-1.95-2.36a7.627,7.627,0,0,0-.6-3.47,2.507,2.507,0,0,0-2.43-1.11H164v5.94a.286.286,0,0,0,.32.32h1.54v.41h-5.13v-.41h1.08a.286.286,0,0,0,.32-.32V39.32c0-.18-.11-.28-.32-.28h-1.08v-.41h5.71a5.142,5.142,0,0,1,3.28,1.06,3.388,3.388,0,0,1,1.35,2.82,3.436,3.436,0,0,1-.88,2.4,4.517,4.517,0,0,1-2.33,1.34,2.963,2.963,0,0,1,2.06,1.97,9.85,9.85,0,0,1,.34,2.77C170.26,52.06,170.5,52.6,170.99,52.6Zm-4.68-13.32H164v6.46h2.32a2.577,2.577,0,0,0,2.14-.96,3.731,3.731,0,0,0,0-4.54A2.61,2.61,0,0,0,166.31,39.28Z"/>
      <path id="Path_375" data-name="Path 375" class="cls-1" d="M174.27,52.34V39.32c0-.18-.11-.28-.32-.28h-1.08v-.41h4.68v.41h-1.08c-.21,0-.32.09-.32.28V52.34a.286.286,0,0,0,.32.32h1.08v.41h-4.68v-.41h1.08C174.16,52.67,174.27,52.56,174.27,52.34Z"/>
    </g>
    <g id="Group_60" data-name="Group 60">
      <path id="Path_376" data-name="Path 376" class="cls-1" d="M230.94,53.08h-4.7v-.41h1.49l-1.6-4.42h-5.04l-1.6,4.42h1.49v.41h-3.46v-.41h.85a.447.447,0,0,0,.44-.32l5.04-13.71h.78l5.04,13.71a.438.438,0,0,0,.44.32h.85v.41Zm-7.31-11.74-2.29,6.26h4.56Z"/>
      <path id="Path_377" data-name="Path 377" class="cls-1" d="M236.4,53.35a6.185,6.185,0,0,1-3.03-.83,1.979,1.979,0,0,0-.69-.25c-.23,0-.35.16-.37.48l-.02.32h-.44V49.24h.41a3.611,3.611,0,0,0,1.32,2.6,4.249,4.249,0,0,0,2.64.84,3.033,3.033,0,0,0,2.31-.83,2.712,2.712,0,0,0,.79-1.95,2.945,2.945,0,0,0-2.06-2.71L234.54,46a4.216,4.216,0,0,1-1.86-1.5,3.707,3.707,0,0,1-.62-2.05,4.075,4.075,0,0,1,1.12-2.88,4.218,4.218,0,0,1,3.23-1.2,4.66,4.66,0,0,1,2.54.83,1.51,1.51,0,0,0,.6.25c.2,0,.3-.16.32-.48l.02-.46h.44v3.97h-.41a3.849,3.849,0,0,0-1.13-2.6,3.371,3.371,0,0,0-2.31-.84,2.884,2.884,0,0,0-2.11.74,2.334,2.334,0,0,0-.75,1.7,2.949,2.949,0,0,0,.52,1.71,3.4,3.4,0,0,0,1.53,1.19l2.75,1.22a4.794,4.794,0,0,1,2.07,1.62,3.625,3.625,0,0,1,.7,2.14,3.691,3.691,0,0,1-1.31,2.82A5.018,5.018,0,0,1,236.4,53.35Z"/>
      <path id="Path_378" data-name="Path 378" class="cls-1" d="M247.79,53.35a6.185,6.185,0,0,1-3.03-.83,1.979,1.979,0,0,0-.69-.25c-.23,0-.35.16-.37.48l-.02.32h-.44V49.24h.41a3.611,3.611,0,0,0,1.32,2.6,4.249,4.249,0,0,0,2.64.84,3.033,3.033,0,0,0,2.31-.83,2.712,2.712,0,0,0,.79-1.95,2.945,2.945,0,0,0-2.06-2.71L245.94,46a4.216,4.216,0,0,1-1.86-1.5,3.707,3.707,0,0,1-.62-2.05,4.075,4.075,0,0,1,1.12-2.88,4.218,4.218,0,0,1,3.23-1.2,4.66,4.66,0,0,1,2.54.83,1.51,1.51,0,0,0,.6.25c.2,0,.3-.16.32-.48l.02-.46h.44v3.97h-.41a3.849,3.849,0,0,0-1.13-2.6,3.371,3.371,0,0,0-2.31-.84,2.884,2.884,0,0,0-2.11.74,2.334,2.334,0,0,0-.75,1.7,2.949,2.949,0,0,0,.52,1.71,3.391,3.391,0,0,0,1.53,1.19l2.75,1.22a4.794,4.794,0,0,1,2.07,1.62,3.625,3.625,0,0,1,.7,2.14,3.691,3.691,0,0,1-1.31,2.82A5.044,5.044,0,0,1,247.79,53.35Z"/>
      <path id="Path_379" data-name="Path 379" class="cls-1" d="M256.12,51.36a7.866,7.866,0,0,1-1.82-5.5,7.866,7.866,0,0,1,1.82-5.5,6.664,6.664,0,0,1,9.5,0,7.866,7.866,0,0,1,1.82,5.5,7.866,7.866,0,0,1-1.82,5.5,6.664,6.664,0,0,1-9.5,0Zm1.45-10.55a8.558,8.558,0,0,0-1.32,5.04,8.516,8.516,0,0,0,1.32,5.04,3.849,3.849,0,0,0,6.59,0,8.486,8.486,0,0,0,1.33-5.04,8.465,8.465,0,0,0-1.33-5.04,3.849,3.849,0,0,0-6.59,0Z"/>
      <path id="Path_380" data-name="Path 380" class="cls-1" d="M279.68,53.08l-.02-.32c-.02-.32-.14-.48-.37-.48a2.089,2.089,0,0,0-.67.25,6.308,6.308,0,0,1-7.73-1.16,7.772,7.772,0,0,1-1.84-5.49,7.9,7.9,0,0,1,1.82-5.5,6.114,6.114,0,0,1,4.76-2.01,6.467,6.467,0,0,1,2.98.76,1.745,1.745,0,0,0,.69.25c.23,0,.35-.16.37-.48l.02-.39h.44v3.97h-.41a3.611,3.611,0,0,0-1.32-2.6,4.442,4.442,0,0,0-2.76-.84,3.917,3.917,0,0,0-3.36,1.83,8.675,8.675,0,0,0-1.27,5.02,8.508,8.508,0,0,0,1.29,5,3.929,3.929,0,0,0,3.35,1.81,4.442,4.442,0,0,0,2.76-.84,3.63,3.63,0,0,0,1.32-2.6h.41v3.83h-.46Z"/>
      <path id="Path_381" data-name="Path 381" class="cls-1" d="M283.35,52.34V39.32c0-.18-.11-.28-.32-.28h-1.08v-.41h4.68v.41h-1.08c-.21,0-.32.09-.32.28V52.34a.286.286,0,0,0,.32.32h1.08v.41h-4.68v-.41h1.08C283.24,52.67,283.35,52.56,283.35,52.34Z"/>
      <path id="Path_382" data-name="Path 382" class="cls-1" d="M300.63,53.08h-4.7v-.41h1.49l-1.6-4.42h-5.04l-1.6,4.42h1.49v.41h-3.46v-.41h.85a.447.447,0,0,0,.44-.32l5.04-13.71h.78l5.04,13.71a.438.438,0,0,0,.44.32h.85v.41Zm-7.31-11.74-2.29,6.26h4.56Z"/>
      <path id="Path_383" data-name="Path 383" class="cls-1" d="M306.5,39.28V52.39c0,.18.11.27.32.27h1.99v.41H302.3v-.41h1.99c.21,0,.32-.09.32-.27V39.28h-2.96c-.4,0-.61.17-.64.5l-.34,2.68h-.53V41.38a15.015,15.015,0,0,0-.21-2.96,10.516,10.516,0,0,0,2.54.21h6.14a10.4,10.4,0,0,0,2.54-.21,14.943,14.943,0,0,0-.21,2.96v1.08h-.53l-.34-2.68c-.03-.34-.24-.5-.64-.5Z"/>
      <path id="Path_384" data-name="Path 384" class="cls-1" d="M312.1,53.08v-.41h1.08a.286.286,0,0,0,.32-.32V39.32c0-.18-.11-.28-.32-.28H312.1v-.41h7.27a10.4,10.4,0,0,0,2.54-.21,12.64,12.64,0,0,0-.21,2.61v1.08h-.53l-.34-2.34c-.03-.34-.24-.5-.64-.5h-4.81v6.26h4.61c.18,0,.29-.11.32-.32l.11-1.42h.41v4.13h-.41l-.11-1.42c-.03-.21-.14-.32-.32-.32h-4.61v6.26h5.13c.4,0,.61-.17.64-.5l.34-2.68h.53v1.08a15.015,15.015,0,0,0,.21,2.96,10.516,10.516,0,0,0-2.54-.21H312.1Z"/>
      <path id="Path_385" data-name="Path 385" class="cls-1" d="M328.83,53.35a6.185,6.185,0,0,1-3.03-.83,1.979,1.979,0,0,0-.69-.25c-.23,0-.35.16-.37.48l-.02.32h-.44V49.24h.41a3.611,3.611,0,0,0,1.32,2.6,4.249,4.249,0,0,0,2.64.84,3.033,3.033,0,0,0,2.31-.83,2.712,2.712,0,0,0,.79-1.95,2.945,2.945,0,0,0-2.06-2.71L326.97,46a4.216,4.216,0,0,1-1.86-1.5,3.707,3.707,0,0,1-.62-2.05,4.075,4.075,0,0,1,1.12-2.88,4.218,4.218,0,0,1,3.23-1.2,4.66,4.66,0,0,1,2.54.83,1.51,1.51,0,0,0,.6.25c.2,0,.3-.16.32-.48l.02-.46h.44v3.97h-.41a3.849,3.849,0,0,0-1.13-2.6,3.371,3.371,0,0,0-2.31-.84,2.884,2.884,0,0,0-2.11.74,2.334,2.334,0,0,0-.75,1.7,2.949,2.949,0,0,0,.52,1.71,3.391,3.391,0,0,0,1.53,1.19l2.75,1.22a4.794,4.794,0,0,1,2.07,1.62,3.625,3.625,0,0,1,.7,2.14,3.691,3.691,0,0,1-1.31,2.82A5.018,5.018,0,0,1,328.83,53.35Z"/>
      <path id="Path_386" data-name="Path 386" class="cls-1" d="M335.25,55.62a2.7,2.7,0,0,0,1.08-1.96,1.8,1.8,0,0,0-.83-1.57,1.351,1.351,0,0,1,.38-.93,1.145,1.145,0,0,1,.86-.38c.84,0,1.26.46,1.26,1.37a3.87,3.87,0,0,1-.7,2.05,5.047,5.047,0,0,1-1.8,1.73Z"/>
      <path id="Path_387" data-name="Path 387" class="cls-1" d="M345.47,39.05v-.41h5.59a4.779,4.779,0,0,1,3.29,1.18,4.443,4.443,0,0,1,0,6.36,4.779,4.779,0,0,1-3.29,1.18h-2.31v5a.286.286,0,0,0,.32.32h1.54v.41h-5.14v-.41h1.08a.286.286,0,0,0,.32-.32V39.32c0-.18-.11-.28-.32-.28h-1.08Zm5.48.23h-2.2v7.43h2.2a2.468,2.468,0,0,0,2.13-1.11,4.723,4.723,0,0,0,0-5.2A2.442,2.442,0,0,0,350.95,39.28Z"/>
      <path id="Path_388" data-name="Path 388" class="cls-1" d="M357.11,52.98a1.238,1.238,0,0,1-.38-.91,1.271,1.271,0,0,1,.38-.91,1.2,1.2,0,0,1,.9-.38,1.271,1.271,0,0,1,.91.38,1.2,1.2,0,0,1,.38.91,1.271,1.271,0,0,1-.38.91,1.2,1.2,0,0,1-.91.38A1.272,1.272,0,0,1,357.11,52.98Z"/>
      <path id="Path_389" data-name="Path 389" class="cls-1" d="M371.65,53.08l-.02-.32c-.01-.32-.14-.48-.37-.48a1.983,1.983,0,0,0-.66.25,6.308,6.308,0,0,1-7.73-1.16,7.776,7.776,0,0,1-1.85-5.49,7.9,7.9,0,0,1,1.82-5.5,6.128,6.128,0,0,1,4.76-2.01,6.467,6.467,0,0,1,2.98.76,1.745,1.745,0,0,0,.69.25c.23,0,.35-.16.37-.48l.02-.39h.44v3.97h-.41a3.611,3.611,0,0,0-1.32-2.6,4.442,4.442,0,0,0-2.76-.84,3.917,3.917,0,0,0-3.36,1.83,8.675,8.675,0,0,0-1.27,5.02,8.584,8.584,0,0,0,1.28,5,3.929,3.929,0,0,0,3.35,1.81,4.442,4.442,0,0,0,2.76-.84,3.63,3.63,0,0,0,1.32-2.6h.41v3.83h-.45Z"/>
      <path id="Path_390" data-name="Path 390" class="cls-1" d="M374.42,52.98a1.238,1.238,0,0,1-.38-.91,1.271,1.271,0,0,1,.38-.91,1.2,1.2,0,0,1,.91-.38,1.271,1.271,0,0,1,.91.38,1.238,1.238,0,0,1,.38.91,1.271,1.271,0,0,1-.38.91,1.255,1.255,0,0,1-.91.38A1.278,1.278,0,0,1,374.42,52.98Z"/>
    </g>
    <g id="Group_61" data-name="Group 61">
      <path id="Path_391" data-name="Path 391" class="cls-2" d="M219.57,63.45h5.78v1.08h-4.51v3.38h3.82v1.08h-3.82v4.48h-1.28V63.45Z"/>
      <path id="Path_392" data-name="Path 392" class="cls-2" d="M226.64,71.55c0-1.62,1.4-2.43,4.56-2.77,0-.96-.32-1.87-1.53-1.87a4.066,4.066,0,0,0-2.21.8l-.49-.86a5.443,5.443,0,0,1,2.92-.97c1.81,0,2.58,1.2,2.58,3.05v4.56h-1.04l-.11-.89h-.04a3.933,3.933,0,0,1-2.46,1.07A2.036,2.036,0,0,1,226.64,71.55Zm4.56.11V69.6c-2.49.3-3.33.91-3.33,1.86a1.139,1.139,0,0,0,1.3,1.19A3.085,3.085,0,0,0,231.2,71.66Z"/>
      <path id="Path_393" data-name="Path 393" class="cls-2" d="M235.42,66.05h1.04l.11,1.08h.04a3.316,3.316,0,0,1,2.31-1.26,1.964,1.964,0,0,1,2.05,1.41,3.488,3.488,0,0,1,2.45-1.41c1.53,0,2.26,1.01,2.26,2.9v4.7h-1.26V68.93c0-1.38-.44-1.97-1.38-1.97a2.727,2.727,0,0,0-1.86,1.14v5.38h-1.26V68.94c0-1.38-.44-1.97-1.38-1.97a2.767,2.767,0,0,0-1.86,1.14v5.38h-1.26V66.05Z"/>
      <path id="Path_394" data-name="Path 394" class="cls-2" d="M248.47,63.71a.872.872,0,0,1,1.74,0,.872.872,0,0,1-1.74,0Zm.23,2.34h1.26v7.43H248.7Z"/>
      <path id="Path_395" data-name="Path 395" class="cls-2" d="M253.08,71.98V62.59h1.26v9.48c0,.39.17.54.35.54a1.185,1.185,0,0,0,.28-.03l.17.96a1.876,1.876,0,0,1-.72.12C253.46,73.66,253.08,73.05,253.08,71.98Z"/>
      <path id="Path_396" data-name="Path 396" class="cls-2" d="M256.84,76.52l.24-1a1.924,1.924,0,0,0,.57.11c.84,0,1.37-.67,1.67-1.59l.17-.55-2.98-7.44h1.3l1.51,4.11c.23.64.48,1.41.72,2.09h.06c.21-.67.42-1.44.62-2.09l1.32-4.11h1.23l-2.8,8.04c-.52,1.47-1.29,2.59-2.78,2.59A2.679,2.679,0,0,1,256.84,76.52Z"/>
      <path id="Path_397" data-name="Path 397" class="cls-2" d="M269.12,63.45h1.28V72.4h4.37v1.08h-5.65Z"/>
      <path id="Path_398" data-name="Path 398" class="cls-2" d="M276.58,71.55c0-1.62,1.4-2.43,4.56-2.77,0-.96-.32-1.87-1.53-1.87a4.065,4.065,0,0,0-2.21.8l-.49-.86a5.443,5.443,0,0,1,2.92-.97c1.81,0,2.58,1.2,2.58,3.05v4.56h-1.04l-.11-.89h-.04a3.933,3.933,0,0,1-2.46,1.07A2.042,2.042,0,0,1,276.58,71.55Zm4.56.11V69.6c-2.49.3-3.33.91-3.33,1.86a1.139,1.139,0,0,0,1.3,1.19A3.086,3.086,0,0,0,281.14,71.66Z"/>
      <path id="Path_399" data-name="Path 399" class="cls-2" d="M284.48,66.05h1.28l1.1,4.29c.16.71.3,1.37.44,2.07h.06c.16-.7.32-1.38.51-2.07l1.15-4.29h1.23l1.16,4.29c.18.71.34,1.37.52,2.07h.06c.16-.7.3-1.36.46-2.07l1.08-4.29h1.2l-1.99,7.43h-1.53l-1.07-3.99c-.18-.7-.32-1.39-.5-2.14h-.06c-.16.75-.31,1.46-.51,2.16l-1.04,3.97h-1.47Z"/>
      <path id="Path_400" data-name="Path 400" class="cls-2" d="M300.16,71.55c0-1.62,1.4-2.43,4.56-2.77,0-.96-.32-1.87-1.53-1.87a4.065,4.065,0,0,0-2.21.8l-.49-.86a5.413,5.413,0,0,1,2.92-.97c1.81,0,2.58,1.2,2.58,3.05v4.56h-1.04l-.11-.89h-.04a3.933,3.933,0,0,1-2.46,1.07A2.036,2.036,0,0,1,300.16,71.55Zm4.56.11V69.6c-2.49.3-3.33.91-3.33,1.86a1.139,1.139,0,0,0,1.3,1.19A3.085,3.085,0,0,0,304.72,71.66Z"/>
      <path id="Path_401" data-name="Path 401" class="cls-2" d="M308.94,66.05h1.04l.11,1.07h.04a3.527,3.527,0,0,1,2.49-1.25c1.56,0,2.27,1.01,2.27,2.9v4.7h-1.26V68.93c0-1.38-.42-1.97-1.4-1.97a2.815,2.815,0,0,0-2.03,1.14v5.38h-1.26V66.05Z"/>
      <path id="Path_402" data-name="Path 402" class="cls-2" d="M317.38,69.77c0-2.41,1.52-3.9,3.21-3.9a3.024,3.024,0,0,1,2.08.86l-.05-1.27V62.6h1.26V73.48h-1.04l-.11-.88h-.04a3.282,3.282,0,0,1-2.25,1.06C318.58,73.66,317.38,72.24,317.38,69.77Zm5.24,1.82V67.7a2.617,2.617,0,0,0-1.81-.77c-1.19,0-2.13,1.14-2.13,2.84,0,1.78.74,2.84,2.04,2.84A2.619,2.619,0,0,0,322.62,71.59Z"/>
      <path id="Path_403" data-name="Path 403" class="cls-2" d="M330.78,63.45h2.51c3.08,0,4.74,1.79,4.74,4.98s-1.65,5.05-4.68,5.05h-2.56V63.45Zm2.41,8.98c2.34,0,3.51-1.47,3.51-4s-1.17-3.93-3.51-3.93h-1.14v7.93Z"/>
      <path id="Path_404" data-name="Path 404" class="cls-2" d="M340.45,63.71a.872.872,0,0,1,1.74,0,.872.872,0,0,1-1.74,0Zm.23,2.34h1.26v7.43h-1.26Z"/>
      <path id="Path_405" data-name="Path 405" class="cls-2" d="M343.99,66.05h1.3l1.4,4.22c.22.72.46,1.48.69,2.19h.06c.22-.71.46-1.47.69-2.19l1.4-4.22h1.23l-2.63,7.43h-1.46Z"/>
      <path id="Path_406" data-name="Path 406" class="cls-2" d="M352.19,69.77c0-2.48,1.62-3.9,3.44-3.9s3.44,1.43,3.44,3.9-1.62,3.89-3.44,3.89S352.19,72.23,352.19,69.77Zm5.58,0c0-1.7-.87-2.86-2.14-2.86s-2.14,1.16-2.14,2.86.86,2.84,2.14,2.84S357.77,71.47,357.77,69.77Z"/>
      <path id="Path_407" data-name="Path 407" class="cls-2" d="M361.64,66.05h1.04l.11,1.35h.04a2.563,2.563,0,0,1,2.11-1.53,1.716,1.716,0,0,1,.79.15l-.23,1.1a2.092,2.092,0,0,0-.72-.12c-.63,0-1.38.45-1.88,1.71v4.77h-1.26V66.05Z"/>
      <path id="Path_408" data-name="Path 408" class="cls-2" d="M366.85,69.77a3.594,3.594,0,0,1,3.57-3.9,3.114,3.114,0,0,1,2.17.87l-.64.83a2.152,2.152,0,0,0-1.47-.66c-1.34,0-2.33,1.16-2.33,2.86s.93,2.84,2.3,2.84a2.658,2.658,0,0,0,1.74-.74l.54.84a3.635,3.635,0,0,1-2.4.94C368.36,73.66,366.85,72.23,366.85,69.77Z"/>
      <path id="Path_409" data-name="Path 409" class="cls-2" d="M374.11,69.77c0-2.42,1.63-3.9,3.34-3.9,1.89,0,2.96,1.36,2.96,3.48a3.547,3.547,0,0,1-.06.71h-5a2.467,2.467,0,0,0,2.47,2.59,3.282,3.282,0,0,0,1.85-.59l.45.82a4.324,4.324,0,0,1-2.45.77C375.68,73.66,374.11,72.21,374.11,69.77Zm5.19-.61c0-1.49-.67-2.3-1.83-2.3a2.282,2.282,0,0,0-2.13,2.3Z"/>
    </g>
    <line id="Line_24" data-name="Line 24" class="cls-3" x2="167.48" transform="translate(215.85 57.42)"/>
    <line id="Line_25" data-name="Line 25" class="cls-3" x2="157.88" transform="translate(23.33 57.76)"/>
    <g id="Group_62" data-name="Group 62">
      <path id="Path_410" data-name="Path 410" class="cls-4" d="M196.61,23.18a8.552,8.552,0,0,1,5.97,1.95,6.2,6.2,0,0,1,2.15,4.76,8.662,8.662,0,0,1-1.93,5.34,11.821,11.821,0,0,1-5.45,3.85l6.88,9.68,2.86-7.32h-2.81v-.99h8.42v.99h-3.47c-.33,0-.59.26-.77.77l-3.19,7.98,5.01,6.93a.865.865,0,0,0,.77.44h1.98v.99h-3.08a18.018,18.018,0,0,0-4.02.33l-2.97-4.24a10.53,10.53,0,0,1-9.02,4.57,9.747,9.747,0,0,1-7.46-2.89,9.283,9.283,0,0,1-2.72-6.55,9.616,9.616,0,0,1,2.23-6.35,12.881,12.881,0,0,1,6.46-3.96l-1.71-2.48a11.142,11.142,0,0,1-2.31-6.49,6.907,6.907,0,0,1,2.17-5.28A8.507,8.507,0,0,1,196.61,23.18Zm-1.57,33.89a8.4,8.4,0,0,0,7.04-3.74l-8.75-12.6q-4.95,2.64-4.95,8.64a7.841,7.841,0,0,0,1.93,5.72A6.334,6.334,0,0,0,195.04,57.07Zm1.48-32.46q-4.62,0-4.62,4.57a8.7,8.7,0,0,0,1.93,4.95l2.7,3.85A7.9,7.9,0,0,0,200,34.76a8.923,8.923,0,0,0,1.21-4.51,6.439,6.439,0,0,0-1.24-4.02A4.134,4.134,0,0,0,196.52,24.61Z"/>
    </g>
  </g>
</svg>
