<svg id="varilogo3" xmlns="http://www.w3.org/2000/svg" viewBox="0 0 322 47.853">
  <defs>
    <style>
      .cls-1 {
        fill: #fff;
      }

      .cls-2 {
        fill: none;
        stroke: #fff;
        stroke-miterlimit: 10;
        stroke-width: 0.764px;
      }

      .cls-3 {
        fill: #2c458f;
      }
    </style>
  </defs>
  <g id="Group_59" data-name="Group 59" transform="translate(0.716 13.569)">
    <path id="Path_363" data-name="Path 363" class="cls-1" d="M24.13,51.555v-.367H25.1a.255.255,0,0,0,.286-.286V39.247c0-.161-.1-.25-.286-.25H24.13V38.63h4.186V39H27.35c-.188,0-.286.081-.286.25V50.973h4.079c.358,0,.546-.152.572-.447l.3-2.4h.474V49.1a13.429,13.429,0,0,0,.188,2.648,9.406,9.406,0,0,0-2.272-.188Z" transform="translate(-24.13 -38.38)"/>
    <path id="Path_364" data-name="Path 364" class="cls-1" d="M35.743,50.893V39.247c0-.161-.1-.25-.286-.25H34.5V38.63h4.186V39H37.72c-.188,0-.286.081-.286.25V50.893a.255.255,0,0,0,.286.286h.966v.367H34.5v-.367h.966C35.654,51.188,35.743,51.09,35.743,50.893Z" transform="translate(-25.225 -38.38)"/>
    <path id="Path_365" data-name="Path 365" class="cls-1" d="M45.18,51.767a5.63,5.63,0,0,1-2.71-.742,1.77,1.77,0,0,0-.617-.224c-.206,0-.313.143-.331.429l-.018.286H41.11V48.091h.367a3.23,3.23,0,0,0,1.181,2.326,3.8,3.8,0,0,0,2.361.751,2.714,2.714,0,0,0,2.075-.742,2.425,2.425,0,0,0,.707-1.744,2.634,2.634,0,0,0-1.843-2.424l-2.442-1.082a3.771,3.771,0,0,1-1.664-1.342A3.316,3.316,0,0,1,41.3,42a3.645,3.645,0,0,1,1-2.576,3.772,3.772,0,0,1,2.889-1.073,4.168,4.168,0,0,1,2.272.742,1.351,1.351,0,0,0,.537.224c.179,0,.277-.143.286-.429l.018-.411h.394v3.551h-.367A3.443,3.443,0,0,0,47.317,39.7a3.022,3.022,0,0,0-2.075-.751,2.58,2.58,0,0,0-1.887.662,2.087,2.087,0,0,0-.671,1.521,2.638,2.638,0,0,0,.465,1.53,3.067,3.067,0,0,0,1.36,1.064l2.46,1.091a4.287,4.287,0,0,1,1.851,1.449,3.263,3.263,0,0,1,.626,1.914A3.3,3.3,0,0,1,48.275,50.7,4.338,4.338,0,0,1,45.18,51.767Z" transform="translate(-25.922 -38.35)"/>
    <path id="Path_366" data-name="Path 366" class="cls-1" d="M62.473,51.556h-4.2v-.367H59.6l-1.431-3.962H53.663l-1.431,3.962h1.333v.367H50.47v-.367h.76a.4.4,0,0,0,.394-.286L56.132,38.64h.7L61.338,50.9a.392.392,0,0,0,.394.286h.76v.367Zm-6.547-10.5-2.048,5.6h4.079Z" transform="translate(-26.91 -38.381)"/>
    <path id="Path_367" data-name="Path 367" class="cls-1" d="M80.154,51.555v-.367h.966c.188,0,.286-.081.286-.25V40.464L77.122,51.555h-.7L72.14,40.768V50.9a.255.255,0,0,0,.286.286h.966v.367h-3.2v-.367h.966a.255.255,0,0,0,.286-.286V39.247c0-.161-.1-.25-.286-.25H70.19V38.63h2.934l4.186,10.6,4.1-10.6H84.34V39h-.966a.255.255,0,0,0-.286.286V50.929c0,.161.1.25.286.25h.966v.367H80.154Z" transform="translate(-28.992 -38.38)"/>
    <path id="Path_368" data-name="Path 368" class="cls-1" d="M98.593,51.556h-4.2v-.367h1.333l-1.431-3.962H89.783l-1.431,3.962h1.333v.367H86.59v-.367h.76a.4.4,0,0,0,.394-.286L92.252,38.64h.7L97.458,50.9a.392.392,0,0,0,.394.286h.76v.367Zm-6.538-10.5-2.048,5.6h4.079Z" transform="translate(-30.723 -38.381)"/>
    <path id="Path_369" data-name="Path 369" class="cls-1" d="M109.777,51.125a.6.6,0,0,0,.5-.259.962.962,0,0,0,.2-.617,3.025,3.025,0,0,0-.063-.662l.394-.063a2.673,2.673,0,0,1,.081.68,1.492,1.492,0,0,1-1.574,1.6c-1.163,0-1.744-.707-1.744-2.111a6.822,6.822,0,0,0-.537-3.1,2.242,2.242,0,0,0-2.173-.993h-1.333v5.313a.255.255,0,0,0,.286.286h1.377v.367H100.6V51.2h.966a.255.255,0,0,0,.286-.286V39.247c0-.161-.1-.25-.286-.25H100.6V38.63h5.107a4.6,4.6,0,0,1,2.934.948,3.031,3.031,0,0,1,1.208,2.522,3.073,3.073,0,0,1-.787,2.147,4.04,4.04,0,0,1-2.084,1.2,2.65,2.65,0,0,1,1.843,1.762,8.811,8.811,0,0,1,.3,2.478C109.115,50.642,109.339,51.125,109.777,51.125Zm-4.186-11.914h-2.075V44.99h2.075a2.305,2.305,0,0,0,1.914-.859,3.337,3.337,0,0,0,0-4.061A2.305,2.305,0,0,0,105.591,39.211Z" transform="translate(-32.202 -38.38)"/>
    <path id="Path_370" data-name="Path 370" class="cls-1" d="M113.992,50.893V39.247c0-.161-.1-.25-.286-.25h-.966V38.63h4.186V39h-.966c-.188,0-.286.081-.286.25V50.893a.255.255,0,0,0,.286.286h.966v.367H112.74v-.367h.966C113.894,51.188,113.992,51.09,113.992,50.893Z" transform="translate(-33.483 -38.38)"/>
    <path id="Path_371" data-name="Path 371" class="cls-1" d="M119.02,51.533v-.367h.966a.255.255,0,0,0,.286-.286V39.225c0-.161-.1-.25-.286-.25h-.966v-.367h6.5a9.3,9.3,0,0,0,2.272-.188,11.307,11.307,0,0,0-.188,2.335v.966h-.474l-.3-2.093c-.027-.3-.215-.447-.572-.447h-4.3v5.6h4.123c.161,0,.259-.1.286-.286l.1-1.27h.367v3.694h-.367l-.1-1.27c-.027-.188-.125-.286-.286-.286h-4.123v5.6h4.589c.358,0,.546-.152.572-.447l.3-2.4h.474v.966a13.43,13.43,0,0,0,.188,2.648,9.4,9.4,0,0,0-2.272-.188H119.02Z" transform="translate(-34.146 -38.357)"/>
    <path id="Path_372" data-name="Path 372" class="cls-1" d="M135.909,38.63h3.9V39H138.78l3.345,10.009L145.551,39h-1.029V38.63h2.791V39h-.76a.4.4,0,0,0-.394.286l-4.2,12.263h-.7l-4.2-12.263A.392.392,0,0,0,136.66,39h-.76V38.63Z" transform="translate(-35.928 -38.38)"/>
    <path id="Path_373" data-name="Path 373" class="cls-1" d="M158.733,51.556h-4.2v-.367h1.333l-1.431-3.962h-4.508l-1.431,3.962h1.333v.367H146.73v-.367h.76a.4.4,0,0,0,.394-.286l4.508-12.263h.7L157.6,50.9a.392.392,0,0,0,.394.286h.76v.367Zm-6.547-10.5-2.048,5.6h4.079Z" transform="translate(-37.071 -38.381)"/>
    <path id="Path_374" data-name="Path 374" class="cls-1" d="M169.907,51.125a.6.6,0,0,0,.5-.259.962.962,0,0,0,.2-.617,3.023,3.023,0,0,0-.063-.662l.394-.063a2.674,2.674,0,0,1,.08.68,1.492,1.492,0,0,1-1.574,1.6c-1.163,0-1.744-.707-1.744-2.111a6.822,6.822,0,0,0-.537-3.1,2.242,2.242,0,0,0-2.173-.993h-1.333v5.313a.255.255,0,0,0,.286.286h1.377v.367H160.73V51.2h.966a.255.255,0,0,0,.286-.286V39.247c0-.161-.1-.25-.286-.25h-.966V38.63h5.107a4.6,4.6,0,0,1,2.934.948,3.031,3.031,0,0,1,1.208,2.522,3.073,3.073,0,0,1-.787,2.147,4.04,4.04,0,0,1-2.084,1.2,2.65,2.65,0,0,1,1.843,1.762,8.811,8.811,0,0,1,.3,2.478C169.254,50.642,169.469,51.125,169.907,51.125Zm-4.186-11.914h-2.066V44.99h2.075a2.305,2.305,0,0,0,1.914-.859,3.337,3.337,0,0,0,0-4.061A2.335,2.335,0,0,0,165.721,39.211Z" transform="translate(-38.549 -38.38)"/>
    <path id="Path_375" data-name="Path 375" class="cls-1" d="M174.122,50.893V39.247c0-.161-.1-.25-.286-.25h-.966V38.63h4.186V39h-.966c-.188,0-.286.081-.286.25V50.893a.255.255,0,0,0,.286.286h.966v.367H172.87v-.367h.966C174.024,51.188,174.122,51.09,174.122,50.893Z" transform="translate(-39.83 -38.38)"/>
  </g>
  <g id="Group_60" data-name="Group 60" transform="translate(173.692 13.587)">
    <path id="Path_376" data-name="Path 376" class="cls-1" d="M229.523,51.556h-4.2v-.367h1.333l-1.431-3.953h-4.508l-1.431,3.953h1.333v.367H217.52v-.367h.76a.4.4,0,0,0,.394-.286l4.508-12.263h.7L228.387,50.9a.392.392,0,0,0,.394.286h.76v.367Zm-6.538-10.5-2.048,5.6h4.079Z" transform="translate(-217.52 -38.398)"/>
    <path id="Path_377" data-name="Path 377" class="cls-1" d="M235.92,51.769a5.532,5.532,0,0,1-2.71-.742,1.769,1.769,0,0,0-.617-.224c-.206,0-.313.143-.331.429l-.018.286h-.394V48.093h.367a3.23,3.23,0,0,0,1.181,2.326,3.8,3.8,0,0,0,2.361.751,2.713,2.713,0,0,0,2.066-.742,2.425,2.425,0,0,0,.707-1.744,2.634,2.634,0,0,0-1.843-2.424l-2.433-1.064a3.771,3.771,0,0,1-1.664-1.342,3.316,3.316,0,0,1-.555-1.834,3.645,3.645,0,0,1,1-2.576,3.772,3.772,0,0,1,2.889-1.073,4.168,4.168,0,0,1,2.272.742,1.351,1.351,0,0,0,.537.224c.179,0,.268-.143.286-.429l.018-.411h.394v3.551h-.367a3.443,3.443,0,0,0-1.011-2.326,3.015,3.015,0,0,0-2.066-.751,2.58,2.58,0,0,0-1.887.662,2.087,2.087,0,0,0-.671,1.521,2.638,2.638,0,0,0,.465,1.529,3.045,3.045,0,0,0,1.368,1.064l2.46,1.091a4.288,4.288,0,0,1,1.851,1.449A3.243,3.243,0,0,1,240.2,48.2a3.3,3.3,0,0,1-1.172,2.522A4.488,4.488,0,0,1,235.92,51.769Z" transform="translate(-219.033 -38.37)"/>
    <path id="Path_378" data-name="Path 378" class="cls-1" d="M247.31,51.769a5.532,5.532,0,0,1-2.71-.742,1.77,1.77,0,0,0-.617-.224c-.206,0-.313.143-.331.429l-.018.286h-.394V48.093h.367a3.23,3.23,0,0,0,1.181,2.326,3.8,3.8,0,0,0,2.361.751,2.713,2.713,0,0,0,2.066-.742,2.426,2.426,0,0,0,.707-1.744,2.634,2.634,0,0,0-1.843-2.424l-2.424-1.064a3.771,3.771,0,0,1-1.664-1.342,3.316,3.316,0,0,1-.555-1.834,3.645,3.645,0,0,1,1-2.576,3.773,3.773,0,0,1,2.889-1.073,4.168,4.168,0,0,1,2.272.742,1.351,1.351,0,0,0,.537.224c.179,0,.268-.143.286-.429l.018-.411h.394v3.551h-.367a3.442,3.442,0,0,0-1.011-2.326,3.015,3.015,0,0,0-2.066-.751,2.58,2.58,0,0,0-1.887.662,2.087,2.087,0,0,0-.671,1.521,2.638,2.638,0,0,0,.465,1.529,3.033,3.033,0,0,0,1.368,1.064l2.46,1.091a4.288,4.288,0,0,1,1.852,1.449A3.243,3.243,0,0,1,251.6,48.2a3.3,3.3,0,0,1-1.172,2.522A4.512,4.512,0,0,1,247.31,51.769Z" transform="translate(-220.235 -38.37)"/>
    <path id="Path_379" data-name="Path 379" class="cls-1" d="M255.928,49.989a7.036,7.036,0,0,1-1.628-4.919,7.036,7.036,0,0,1,1.628-4.919,5.961,5.961,0,0,1,8.5,0,7.036,7.036,0,0,1,1.628,4.919,7.036,7.036,0,0,1-1.628,4.919,5.961,5.961,0,0,1-8.5,0Zm1.3-9.436a7.655,7.655,0,0,0-1.181,4.508,7.617,7.617,0,0,0,1.181,4.508,3.442,3.442,0,0,0,5.894,0,7.59,7.59,0,0,0,1.19-4.508,7.572,7.572,0,0,0-1.19-4.508,3.442,3.442,0,0,0-5.894,0Z" transform="translate(-221.402 -38.37)"/>
    <path id="Path_380" data-name="Path 380" class="cls-1" d="M278.558,51.527l-.018-.286c-.018-.286-.125-.429-.331-.429a1.869,1.869,0,0,0-.6.224A5.642,5.642,0,0,1,270.7,50a6.952,6.952,0,0,1-1.646-4.911,7.066,7.066,0,0,1,1.628-4.919,5.468,5.468,0,0,1,4.258-1.8,5.784,5.784,0,0,1,2.665.68,1.56,1.56,0,0,0,.617.224c.206,0,.313-.143.331-.429l.018-.349h.394v3.551h-.367a3.23,3.23,0,0,0-1.181-2.326,3.973,3.973,0,0,0-2.469-.751,3.5,3.5,0,0,0-3.005,1.637A7.759,7.759,0,0,0,270.8,45.1a7.61,7.61,0,0,0,1.154,4.472,3.514,3.514,0,0,0,3,1.619,3.973,3.973,0,0,0,2.469-.751,3.247,3.247,0,0,0,1.181-2.326h.367v3.426h-.411Z" transform="translate(-222.959 -38.37)"/>
    <path id="Path_381" data-name="Path 381" class="cls-1" d="M283.2,50.893V39.247c0-.161-.1-.25-.286-.25h-.966V38.63h4.186V39h-.966c-.188,0-.286.081-.286.25V50.893a.255.255,0,0,0,.286.286h.966v.367H281.95v-.367h.966C283.1,51.188,283.2,51.09,283.2,50.893Z" transform="translate(-224.321 -38.397)"/>
    <path id="Path_382" data-name="Path 382" class="cls-1" d="M299.213,51.556h-4.2v-.367h1.333l-1.431-3.953H290.4l-1.431,3.953H290.3v.367H287.21v-.367h.76a.4.4,0,0,0,.394-.286l4.508-12.263h.7L298.078,50.9a.392.392,0,0,0,.394.286h.76v.367Zm-6.538-10.5-2.048,5.6h4.079Z" transform="translate(-224.876 -38.398)"/>
    <path id="Path_383" data-name="Path 383" class="cls-1" d="M305.807,39.189V50.915c0,.161.1.242.286.242h1.78v.367H302.05v-.367h1.78c.188,0,.286-.08.286-.242V39.189h-2.648c-.358,0-.546.152-.572.447l-.3,2.4h-.474v-.966a13.427,13.427,0,0,0-.188-2.648,9.406,9.406,0,0,0,2.272.188h5.492a9.306,9.306,0,0,0,2.272-.188,13.366,13.366,0,0,0-.188,2.648v.966H309.3l-.3-2.4c-.027-.3-.215-.447-.572-.447Z" transform="translate(-226.219 -38.375)"/>
    <path id="Path_384" data-name="Path 384" class="cls-1" d="M312.1,51.533v-.367h.966a.255.255,0,0,0,.286-.286V39.225c0-.161-.1-.25-.286-.25H312.1v-.367h6.5a9.306,9.306,0,0,0,2.272-.188,11.3,11.3,0,0,0-.188,2.335v.966h-.474l-.3-2.093c-.027-.3-.215-.447-.572-.447h-4.3v5.6h4.123c.161,0,.259-.1.286-.286l.1-1.27h.367v3.694h-.367l-.1-1.27c-.027-.188-.125-.286-.286-.286h-4.123v5.6h4.588c.358,0,.546-.152.573-.447l.3-2.4h.474v.966a13.429,13.429,0,0,0,.188,2.648,9.406,9.406,0,0,0-2.272-.188H312.1Z" transform="translate(-227.503 -38.375)"/>
    <path id="Path_385" data-name="Path 385" class="cls-1" d="M328.35,51.769a5.533,5.533,0,0,1-2.71-.742,1.769,1.769,0,0,0-.617-.224c-.206,0-.313.143-.331.429l-.018.286h-.394V48.093h.367a3.23,3.23,0,0,0,1.181,2.326,3.8,3.8,0,0,0,2.361.751,2.713,2.713,0,0,0,2.066-.742,2.426,2.426,0,0,0,.707-1.744,2.634,2.634,0,0,0-1.842-2.424l-2.433-1.064a3.772,3.772,0,0,1-1.664-1.342,3.316,3.316,0,0,1-.554-1.834,3.645,3.645,0,0,1,1-2.576,3.772,3.772,0,0,1,2.889-1.073,4.169,4.169,0,0,1,2.272.742,1.351,1.351,0,0,0,.537.224c.179,0,.268-.143.286-.429l.018-.411h.394v3.551H331.5a3.443,3.443,0,0,0-1.011-2.326,3.015,3.015,0,0,0-2.066-.751,2.58,2.58,0,0,0-1.887.662,2.088,2.088,0,0,0-.671,1.521,2.638,2.638,0,0,0,.465,1.529,3.033,3.033,0,0,0,1.368,1.064l2.46,1.091a4.288,4.288,0,0,1,1.852,1.449,3.243,3.243,0,0,1,.626,1.914,3.3,3.3,0,0,1-1.172,2.522A4.488,4.488,0,0,1,328.35,51.769Z" transform="translate(-228.789 -38.37)"/>
    <path id="Path_386" data-name="Path 386" class="cls-1" d="M335.25,55.109a2.414,2.414,0,0,0,.966-1.753,1.607,1.607,0,0,0-.742-1.4,1.208,1.208,0,0,1,.34-.832,1.025,1.025,0,0,1,.769-.34c.751,0,1.127.411,1.127,1.225a3.462,3.462,0,0,1-.626,1.834,4.514,4.514,0,0,1-1.61,1.547Z" transform="translate(-229.947 -39.68)"/>
    <path id="Path_387" data-name="Path 387" class="cls-1" d="M345.47,39.007V38.64h5a4.275,4.275,0,0,1,2.943,1.055,3.974,3.974,0,0,1,0,5.689,4.275,4.275,0,0,1-2.943,1.055H348.4v4.472a.255.255,0,0,0,.286.286h1.377v.367h-4.6V51.2h.966a.255.255,0,0,0,.286-.286V39.248c0-.161-.1-.25-.286-.25h-.966Zm4.9.206H348.4v6.646h1.968a2.207,2.207,0,0,0,1.905-.993,4.225,4.225,0,0,0,0-4.651A2.184,2.184,0,0,0,350.372,39.212Z" transform="translate(-231.026 -38.398)"/>
    <path id="Path_388" data-name="Path 388" class="cls-1" d="M357.07,52.748a1.108,1.108,0,0,1-.34-.814,1.137,1.137,0,0,1,.34-.814,1.069,1.069,0,0,1,.805-.34,1.137,1.137,0,0,1,.814.34,1.075,1.075,0,0,1,.34.814,1.137,1.137,0,0,1-.34.814,1.075,1.075,0,0,1-.814.34A1.138,1.138,0,0,1,357.07,52.748Z" transform="translate(-232.214 -39.68)"/>
    <path id="Path_389" data-name="Path 389" class="cls-1" d="M370.528,51.527l-.018-.286c-.009-.286-.125-.429-.331-.429a1.774,1.774,0,0,0-.59.224A5.642,5.642,0,0,1,362.675,50a6.956,6.956,0,0,1-1.655-4.911,7.066,7.066,0,0,1,1.628-4.919,5.481,5.481,0,0,1,4.257-1.8,5.783,5.783,0,0,1,2.665.68,1.561,1.561,0,0,0,.617.224c.206,0,.313-.143.331-.429l.018-.349h.394v3.551h-.367a3.23,3.23,0,0,0-1.181-2.326,3.973,3.973,0,0,0-2.469-.751,3.5,3.5,0,0,0-3.005,1.637,7.759,7.759,0,0,0-1.136,4.49,7.677,7.677,0,0,0,1.145,4.472,3.514,3.514,0,0,0,3,1.619,3.974,3.974,0,0,0,2.469-.751,3.247,3.247,0,0,0,1.181-2.326h.367v3.426h-.4Z" transform="translate(-232.667 -38.37)"/>
    <path id="Path_390" data-name="Path 390" class="cls-1" d="M374.38,52.748a1.108,1.108,0,0,1-.34-.814,1.137,1.137,0,0,1,.34-.814,1.074,1.074,0,0,1,.814-.34,1.137,1.137,0,0,1,.814.34,1.108,1.108,0,0,1,.34.814,1.137,1.137,0,0,1-.34.814,1.122,1.122,0,0,1-.814.34A1.143,1.143,0,0,1,374.38,52.748Z" transform="translate(-234.042 -39.68)"/>
  </g>
  <g id="Group_61" data-name="Group 61" transform="translate(175.517 35.25)">
    <path id="Path_391" data-name="Path 391" class="cls-1" d="M219.569,63.45h5.17v.966H220.7v3.023h3.417v.966H220.7v4.007H219.56V63.45Z" transform="translate(-219.56 -62.681)"/>
    <path id="Path_392" data-name="Path 392" class="cls-1" d="M226.64,70.952c0-1.449,1.252-2.174,4.079-2.478,0-.859-.286-1.673-1.368-1.673a3.636,3.636,0,0,0-1.977.716l-.438-.769a4.868,4.868,0,0,1,2.612-.868c1.619,0,2.308,1.073,2.308,2.728v4.079h-.93l-.1-.8h-.036a3.518,3.518,0,0,1-2.2.957A1.821,1.821,0,0,1,226.64,70.952Zm4.079.1V69.207c-2.227.268-2.978.814-2.978,1.664a1.019,1.019,0,0,0,1.163,1.064A2.76,2.76,0,0,0,230.719,71.05Z" transform="translate(-220.307 -62.937)"/>
    <path id="Path_393" data-name="Path 393" class="cls-1" d="M235.42,66.031h.93l.1.966h.036a2.966,2.966,0,0,1,2.066-1.127,1.757,1.757,0,0,1,1.834,1.261,3.12,3.12,0,0,1,2.191-1.261c1.369,0,2.021.9,2.021,2.594v4.2H243.47V68.607c0-1.234-.394-1.762-1.234-1.762a2.439,2.439,0,0,0-1.664,1.02v4.812h-1.127V68.616c0-1.234-.394-1.762-1.234-1.762a2.475,2.475,0,0,0-1.664,1.02v4.812H235.42Z" transform="translate(-221.234 -62.936)"/>
    <path id="Path_394" data-name="Path 394" class="cls-1" d="M248.47,63.624a.78.78,0,0,1,1.556,0,.78.78,0,0,1-1.556,0Zm.206,2.093H249.8v6.646h-1.127Z" transform="translate(-222.612 -62.623)"/>
    <path id="Path_395" data-name="Path 395" class="cls-1" d="M253.08,70.989v-8.4h1.127v8.479c0,.349.152.483.313.483a1.06,1.06,0,0,0,.25-.027l.152.859a1.678,1.678,0,0,1-.644.107C253.42,72.492,253.08,71.946,253.08,70.989Z" transform="translate(-223.098 -62.59)"/>
    <path id="Path_396" data-name="Path 396" class="cls-1" d="M256.805,75.415l.215-.894a1.721,1.721,0,0,0,.51.1c.751,0,1.225-.6,1.494-1.422l.152-.492L256.51,66.05h1.163l1.351,3.676c.206.572.429,1.261.644,1.869h.054c.188-.6.376-1.288.555-1.869l1.181-3.676h1.1l-2.5,7.191c-.465,1.315-1.154,2.317-2.487,2.317A2.4,2.4,0,0,1,256.805,75.415Z" transform="translate(-223.46 -62.955)"/>
    <path id="Path_397" data-name="Path 397" class="cls-1" d="M269.12,63.45h1.145v8.005h3.909v.966H269.12Z" transform="translate(-224.791 -62.681)"/>
    <path id="Path_398" data-name="Path 398" class="cls-1" d="M276.58,70.952c0-1.449,1.252-2.174,4.079-2.478,0-.859-.286-1.673-1.368-1.673a3.636,3.636,0,0,0-1.977.716l-.438-.769a4.868,4.868,0,0,1,2.612-.868c1.619,0,2.308,1.073,2.308,2.728v4.079h-.93l-.1-.8h-.036a3.517,3.517,0,0,1-2.2.957A1.826,1.826,0,0,1,276.58,70.952Zm4.079.1V69.207c-2.227.268-2.978.814-2.978,1.664a1.019,1.019,0,0,0,1.163,1.064A2.76,2.76,0,0,0,280.659,71.05Z" transform="translate(-225.579 -62.937)"/>
    <path id="Path_399" data-name="Path 399" class="cls-1" d="M284.48,66.05h1.145l.984,3.837c.143.635.268,1.225.394,1.852h.054c.143-.626.286-1.234.456-1.852l1.029-3.837h1.1l1.038,3.837c.161.635.3,1.225.465,1.852h.054c.143-.626.268-1.216.411-1.852l.966-3.837h1.073l-1.78,6.646H290.5l-.957-3.569c-.161-.626-.286-1.243-.447-1.914h-.054c-.143.671-.277,1.306-.456,1.932l-.93,3.551H286.34Z" transform="translate(-226.413 -62.955)"/>
    <path id="Path_400" data-name="Path 400" class="cls-1" d="M300.16,70.952c0-1.449,1.252-2.174,4.079-2.478,0-.859-.286-1.673-1.369-1.673a3.636,3.636,0,0,0-1.977.716l-.438-.769a4.842,4.842,0,0,1,2.612-.868c1.619,0,2.308,1.073,2.308,2.728v4.079h-.93l-.1-.8h-.036a3.517,3.517,0,0,1-2.2.957A1.821,1.821,0,0,1,300.16,70.952Zm4.079.1V69.207c-2.227.268-2.978.814-2.978,1.664a1.019,1.019,0,0,0,1.163,1.064A2.76,2.76,0,0,0,304.239,71.05Z" transform="translate(-228.068 -62.937)"/>
    <path id="Path_401" data-name="Path 401" class="cls-1" d="M308.94,66.031h.93l.1.957H310a3.155,3.155,0,0,1,2.227-1.118c1.4,0,2.03.9,2.03,2.594v4.2h-1.127V68.607c0-1.234-.376-1.762-1.252-1.762a2.518,2.518,0,0,0-1.816,1.02v4.812H308.94V66.031Z" transform="translate(-228.995 -62.936)"/>
    <path id="Path_402" data-name="Path 402" class="cls-1" d="M317.38,69.013c0-2.156,1.36-3.488,2.871-3.488a2.7,2.7,0,0,1,1.86.769l-.045-1.136V62.6h1.127v9.732h-.93l-.1-.787h-.036a2.936,2.936,0,0,1-2.012.948C318.453,72.493,317.38,71.222,317.38,69.013Zm4.687,1.628V67.162a2.341,2.341,0,0,0-1.619-.689c-1.064,0-1.905,1.02-1.905,2.54,0,1.592.662,2.54,1.825,2.54A2.343,2.343,0,0,0,322.067,70.641Z" transform="translate(-229.885 -62.591)"/>
    <path id="Path_403" data-name="Path 403" class="cls-1" d="M330.78,63.45h2.245c2.755,0,4.24,1.6,4.24,4.454s-1.476,4.517-4.186,4.517h-2.29V63.45Zm2.156,8.032c2.093,0,3.139-1.315,3.139-3.578s-1.047-3.515-3.139-3.515h-1.02v7.093Z" transform="translate(-231.3 -62.681)"/>
    <path id="Path_404" data-name="Path 404" class="cls-1" d="M340.45,63.624a.78.78,0,0,1,1.556,0,.78.78,0,0,1-1.556,0Zm.206,2.093h1.127v6.646h-1.127Z" transform="translate(-232.321 -62.623)"/>
    <path id="Path_405" data-name="Path 405" class="cls-1" d="M343.99,66.05h1.163l1.252,3.775c.2.644.411,1.324.617,1.959h.054c.2-.635.411-1.315.617-1.959l1.252-3.775h1.1L347.693,72.7h-1.306Z" transform="translate(-232.694 -62.955)"/>
    <path id="Path_406" data-name="Path 406" class="cls-1" d="M352.19,69.358a3.1,3.1,0,1,1,3.077,3.479A3.17,3.17,0,0,1,352.19,69.358Zm4.991,0c0-1.521-.778-2.558-1.914-2.558s-1.914,1.038-1.914,2.558.769,2.54,1.914,2.54S357.181,70.879,357.181,69.358Z" transform="translate(-233.56 -62.936)"/>
    <path id="Path_407" data-name="Path 407" class="cls-1" d="M361.64,66.031h.93l.1,1.208h.036a2.292,2.292,0,0,1,1.887-1.369A1.535,1.535,0,0,1,365.3,66l-.206.984a1.871,1.871,0,0,0-.644-.107c-.564,0-1.234.4-1.682,1.53v4.267H361.64Z" transform="translate(-234.557 -62.936)"/>
    <path id="Path_408" data-name="Path 408" class="cls-1" d="M366.85,69.358a3.214,3.214,0,0,1,3.193-3.488,2.786,2.786,0,0,1,1.941.778l-.572.742a1.925,1.925,0,0,0-1.315-.59c-1.2,0-2.084,1.038-2.084,2.558s.832,2.54,2.057,2.54a2.378,2.378,0,0,0,1.556-.662l.483.751a3.252,3.252,0,0,1-2.147.841C368.2,72.838,366.85,71.559,366.85,69.358Z" transform="translate(-235.107 -62.936)"/>
    <path id="Path_409" data-name="Path 409" class="cls-1" d="M374.11,69.358A3.2,3.2,0,0,1,377.1,65.87c1.691,0,2.648,1.216,2.648,3.113a3.174,3.174,0,0,1-.054.635h-4.472a2.207,2.207,0,0,0,2.209,2.317,2.936,2.936,0,0,0,1.655-.528l.4.733a3.868,3.868,0,0,1-2.191.689A3.164,3.164,0,0,1,374.11,69.358Zm4.642-.546c0-1.333-.6-2.057-1.637-2.057a2.041,2.041,0,0,0-1.905,2.057Z" transform="translate(-235.874 -62.936)"/>
  </g>
  <line id="Line_24" data-name="Line 24" class="cls-2" x2="149.802" transform="translate(172.198 30.626)"/>
  <line id="Line_25" data-name="Line 25" class="cls-2" x2="141.215" transform="translate(0 30.93)"/>
  <g id="Group_62" data-name="Group 62" transform="translate(143.496 0)">
    <path id="Path_410" data-name="Path 410" class="cls-3" d="M195.254,23.18a7.649,7.649,0,0,1,5.34,1.744,5.546,5.546,0,0,1,1.923,4.258,7.748,7.748,0,0,1-1.726,4.776,10.573,10.573,0,0,1-4.875,3.444l6.154,8.658,2.558-6.547h-2.513v-.885h7.531v.885h-3.1c-.3,0-.528.233-.689.689L203,47.339l4.481,6.2a.773.773,0,0,0,.689.394h1.771v.886h-2.755a16.116,16.116,0,0,0-3.6.3l-2.656-3.792a9.418,9.418,0,0,1-8.068,4.088,8.718,8.718,0,0,1-6.673-2.585,8.3,8.3,0,0,1-2.433-5.859,8.6,8.6,0,0,1,1.995-5.68,11.521,11.521,0,0,1,5.778-3.542L190,35.523a9.966,9.966,0,0,1-2.066-5.8A6.178,6.178,0,0,1,189.878,25,7.609,7.609,0,0,1,195.254,23.18Zm-1.4,30.313a7.51,7.51,0,0,0,6.3-3.345l-7.826-11.27a8.1,8.1,0,0,0-4.428,7.728,7.013,7.013,0,0,0,1.726,5.116A5.666,5.666,0,0,0,193.849,53.493Zm1.324-29.034q-4.132,0-4.132,4.088a7.78,7.78,0,0,0,1.726,4.428l2.415,3.444a7.066,7.066,0,0,0,3.1-2.88,7.981,7.981,0,0,0,1.082-4.034,5.759,5.759,0,0,0-1.109-3.6A3.7,3.7,0,0,0,195.173,24.459Z" transform="translate(-183.76 -23.18)"/>
  </g>
</svg>
