<svg xmlns="http://www.w3.org/2000/svg" viewBox="0 0 35.438 24.836">
  <defs>
    <style>
      .cls-1 {
        fill: #fff;
        fill-rule: evenodd;
      }
    </style>
  </defs>
  <path id="youtube_logo" class="cls-1" d="M11.166,32.456A4.156,4.156,0,0,1,8.44,29.8c-1.176-3.23-1.531-16.785.747-19.455a4.411,4.411,0,0,1,2.969-1.568c6.105-.653,24.982-.56,27.166.224a4.254,4.254,0,0,1,2.67,2.577c1.288,3.342,1.326,15.516-.168,18.746A4.128,4.128,0,0,1,39.9,32.27C37.6,33.464,14.153,33.446,11.166,32.456Zm9.69-6.348c3.678-1.9,7.319-3.79,11-5.713-3.7-1.923-7.338-3.828-11-5.751Z" transform="translate(-7.514 -8.348)"/>
</svg>
