<svg xmlns="http://www.w3.org/2000/svg" xmlns:xlink="http://www.w3.org/1999/xlink" viewBox="0 0 24 24"><defs><symbol id="a" viewBox="0 0 24 24"><path d="M0,0H24V24H0Z" fill="none"/><path d="M5.32,18.68V5.8h0A1.67,1.67,0,0,0,3.66,7.47V20.83A1.67,1.67,0,0,0,5.31,22.5h10A1.68,1.68,0,0,0,17,20.83v-.48H7A1.67,1.67,0,0,1,5.32,18.68Z" fill="#a6a9a6"/><path d="M8.66,1.5A1.67,1.67,0,0,0,7,3.17V16.53A1.67,1.67,0,0,0,8.65,18.2h10a1.68,1.68,0,0,0,1.67-1.67v-10l-5-5Zm5.85,5.85V2.75L19.1,7.35Z" fill="#a6a9a6"/><polyline points="10.62 12 12.83 14.21 17.53 9.51" fill="none" stroke="#fff" stroke-miterlimit="10"/></symbol></defs><title>02_ActionClosePacket</title><use width="24" height="24" xlink:href="#a"/></svg>