<svg xmlns="http://www.w3.org/2000/svg" xmlns:xlink="http://www.w3.org/1999/xlink" viewBox="0 0 75 75"><defs><symbol id="a" viewBox="0 0 75 75"><rect width="75" height="75" fill="none"/><path d="M45.69,64.45a9.51,9.51,0,0,1-3.46-1.21,11.37,11.37,0,0,0-4.72-1.5,11.37,11.37,0,0,0-4.72,1.5,9.52,9.52,0,0,1-3.46,1.21,1.74,1.74,0,0,1-.54-.08c-1.07-.35-1.9-1.89-2.69-3.38a11,11,0,0,0-2.83-3.87,11.11,11.11,0,0,0-4.6-1.52c-1.65-.3-3.35-.6-4-1.5s-.41-2.58-.18-4.23a11.24,11.24,0,0,0,0-4.88,10.85,10.85,0,0,0-2.77-3.83c-1.18-1.23-2.41-2.5-2.41-3.67s1.22-2.44,2.41-3.67A10.85,10.85,0,0,0,14.43,30a11.24,11.24,0,0,0,0-4.88c-.22-1.65-.45-3.35.18-4.23s2.36-1.2,4-1.5a11.11,11.11,0,0,0,4.6-1.52A11,11,0,0,0,26.08,14c.79-1.49,1.62-3,2.69-3.38a1.74,1.74,0,0,1,.54-.08,9.51,9.51,0,0,1,3.46,1.21,11.37,11.37,0,0,0,4.72,1.5,11.37,11.37,0,0,0,4.72-1.5,9.52,9.52,0,0,1,3.46-1.21,1.74,1.74,0,0,1,.54.08c1.07.35,1.9,1.89,2.69,3.38a11,11,0,0,0,2.83,3.87,11.11,11.11,0,0,0,4.6,1.52c1.65.3,3.35.6,4,1.5s.41,2.58.18,4.23a11.24,11.24,0,0,0,0,4.88,10.85,10.85,0,0,0,2.77,3.83c1.18,1.23,2.41,2.5,2.41,3.67s-1.22,2.44-2.41,3.67A10.85,10.85,0,0,0,60.57,45a11.24,11.24,0,0,0,0,4.88c.22,1.65.45,3.35-.18,4.23s-2.36,1.2-4,1.5a11.11,11.11,0,0,0-4.6,1.52A11,11,0,0,0,48.92,61c-.79,1.49-1.62,3-2.69,3.38A1.74,1.74,0,0,1,45.69,64.45Z" fill="#7dd796"/><path d="M29.31,11.8a9.28,9.28,0,0,1,2.92,1.08A12.46,12.46,0,0,0,37.5,14.5a12.46,12.46,0,0,0,5.27-1.62,9.31,9.31,0,0,1,2.92-1.08l.16,0c.6.19,1.39,1.69,2,2.78A11.91,11.91,0,0,0,51,18.89a12.19,12.19,0,0,0,5.11,1.74c1.21.22,2.86.51,3.21,1s.11,2.19,0,3.32a12.33,12.33,0,0,0,.08,5.44,11.75,11.75,0,0,0,3.06,4.31c.87.9,2.06,2.13,2.06,2.8s-1.19,1.9-2.06,2.8a11.75,11.75,0,0,0-3.06,4.31A12.33,12.33,0,0,0,59.3,50c.15,1.14.39,2.85,0,3.33s-2,.78-3.21,1A12.21,12.21,0,0,0,51,56.11a11.93,11.93,0,0,0-3.2,4.29c-.58,1.09-1.38,2.59-2,2.78l-.16,0a9.28,9.28,0,0,1-2.92-1.08A12.46,12.46,0,0,0,37.5,60.5a12.46,12.46,0,0,0-5.27,1.62,9.29,9.29,0,0,1-2.92,1.08l-.16,0c-.6-.19-1.39-1.69-2-2.78A11.91,11.91,0,0,0,24,56.11a12.19,12.19,0,0,0-5.11-1.74c-1.21-.22-2.86-.51-3.21-1s-.11-2.19,0-3.32a12.33,12.33,0,0,0-.08-5.44,11.75,11.75,0,0,0-3.06-4.31c-.87-.9-2.06-2.13-2.06-2.8s1.19-1.9,2.06-2.8a11.75,11.75,0,0,0,3.06-4.31A12.33,12.33,0,0,0,15.7,25c-.15-1.14-.39-2.85,0-3.33s2-.78,3.21-1A12.21,12.21,0,0,0,24,18.89a11.93,11.93,0,0,0,3.2-4.29c.58-1.09,1.38-2.59,2-2.78l.16,0M45.69,9.3c-2.52,0-5.55,2.7-8.19,2.7s-5.67-2.7-8.19-2.7a3,3,0,0,0-.93.14c-2.77.9-3.56,5.75-5.87,7.43s-7.18,1-8.88,3.29.51,6.68-.39,9.46S8,34.53,8,37.5s4.37,5.21,5.24,7.88-1.29,7.15.39,9.46,6.55,1.59,8.88,3.29,3.1,6.53,5.87,7.43a3,3,0,0,0,.93.14c2.52,0,5.55-2.7,8.19-2.7s5.67,2.7,8.19,2.7a3,3,0,0,0,.93-.14c2.77-.9,3.56-5.75,5.87-7.43s7.18-1,8.88-3.29-.51-6.68.39-9.46S67,40.47,67,37.5s-4.37-5.21-5.24-7.88,1.29-7.15-.39-9.46-6.55-1.59-8.88-3.29-3.1-6.53-5.87-7.43a3,3,0,0,0-.93-.14Z" fill="#414141"/><path d="M50.24,27a3.62,3.62,0,0,0-5.07.07L32.75,39.58l-3.41-3.25a3.62,3.62,0,0,0-5,.09h0a3.62,3.62,0,0,0,0,5.12l6,6a3.21,3.21,0,0,0,4.54,0L50.29,32.13A3.61,3.61,0,0,0,50.24,27Z" fill="#fff"/><path d="M50.24,27a3.62,3.62,0,0,0-5.07.07L32.75,39.58l-3.41-3.25a3.62,3.62,0,0,0-5,.09h0a3.62,3.62,0,0,0,0,5.12l6,6a3.21,3.21,0,0,0,4.54,0L50.29,32.13A3.61,3.61,0,0,0,50.24,27Z" fill="none" stroke="#414141" stroke-linecap="round" stroke-linejoin="round"/></symbol></defs><title>02_DashboardVerification</title><use width="75" height="75" xlink:href="#a"/></svg>