<svg xmlns="http://www.w3.org/2000/svg" xmlns:xlink="http://www.w3.org/1999/xlink" viewBox="0 0 75 75"><defs><symbol id="a" viewBox="0 0 75 75"><rect width="75" height="75" fill="none"/><path d="M65.24,45.23a13,13,0,0,1-10.68,5.33H20c-5.65,0-10.92-3.53-12.22-9.17a12.62,12.62,0,0,1,7.67-14.45c-1.35-8.66,8.45-15.18,15.9-10.42a15.19,15.19,0,0,1,27.92,9.73A12.58,12.58,0,0,1,65.24,45.23Z" fill="#f7f7f7" stroke="#414141" stroke-linecap="round" stroke-linejoin="round" stroke-width="2.5"/><path d="M51.08,43.06,37.5,28.53,23.92,43.06h8.71s.3,22.44,14,22.44c-7.61-9-3.57-24.26-4.28-22.44Z" fill="#c396d7" stroke="#414141" stroke-linecap="round" stroke-linejoin="round" stroke-width="2.5"/></symbol></defs><title>02_DashboardUploads</title><use width="75" height="75" xlink:href="#a"/></svg>