<svg xmlns="http://www.w3.org/2000/svg" xmlns:xlink="http://www.w3.org/1999/xlink" viewBox="0 0 75 75"><defs><symbol id="a" viewBox="0 0 75 75"><rect width="75" height="75" fill="none"/><rect x="14.98" y="46.69" width="7.35" height="19.31" rx="3" ry="3" fill="#64b4f5"/><rect x="14.98" y="46.69" width="7.35" height="19.31" rx="3" ry="3" fill="none" stroke="#414141" stroke-linecap="round" stroke-linejoin="round" stroke-width="2.5"/><rect x="27.85" y="33.82" width="7.35" height="32.18" rx="3" ry="3" fill="#64b4f5"/><rect x="27.85" y="33.82" width="7.35" height="32.18" rx="3" ry="3" fill="none" stroke="#414141" stroke-linecap="round" stroke-linejoin="round" stroke-width="2.5"/><rect x="40.72" y="40.26" width="7.35" height="25.74" rx="3" ry="3" fill="#64b4f5"/><rect x="40.72" y="40.26" width="7.35" height="25.74" rx="3" ry="3" fill="none" stroke="#414141" stroke-linecap="round" stroke-linejoin="round" stroke-width="2.5"/><rect x="52.67" y="27.39" width="7.35" height="38.61" rx="3" ry="3" fill="#64b4f5"/><rect x="52.67" y="27.39" width="7.35" height="38.61" rx="3" ry="3" fill="none" stroke="#414141" stroke-linecap="round" stroke-linejoin="round" stroke-width="2.5"/><polyline points="18.58 31.63 31.11 18.52 44.23 25.69 56.57 12.55" fill="none" stroke="#414141" stroke-miterlimit="10" stroke-width="2.5"/><circle cx="18.65" cy="31.98" r="3.68" fill="#ffd232" stroke="#414141" stroke-miterlimit="10" stroke-width="2.5"/><circle cx="31.52" cy="18.19" r="3.68" fill="#ffd232" stroke="#414141" stroke-miterlimit="10" stroke-width="2.5"/><circle cx="44.4" cy="25.55" r="3.68" fill="#ffd232" stroke="#414141" stroke-miterlimit="10" stroke-width="2.5"/><circle cx="56.35" cy="12.68" r="3.68" fill="#ffd232" stroke="#414141" stroke-miterlimit="10" stroke-width="2.5"/></symbol></defs><title>02_DashboardReports</title><use width="75" height="75" xlink:href="#a"/></svg>