<svg xmlns="http://www.w3.org/2000/svg" xmlns:xlink="http://www.w3.org/1999/xlink" viewBox="0 0 75 75"><defs><symbol id="a" viewBox="0 0 75 75"><rect width="75" height="75" fill="none"/><rect x="12.04" y="12.25" width="39.34" height="50.5" rx="1.54" ry="1.54" fill="#f7f8f7"/><path d="M49.84,13.5a.29.29,0,0,1,.29.29V61.21a.29.29,0,0,1-.29.29H13.58a.29.29,0,0,1-.29-.29V13.79a.29.29,0,0,1,.29-.29H49.84m0-2.5H13.58a2.79,2.79,0,0,0-2.79,2.79V61.21A2.79,2.79,0,0,0,13.58,64H49.84a2.79,2.79,0,0,0,2.79-2.79V13.79A2.79,2.79,0,0,0,49.84,11Z" fill="#414141"/><line x1="18.69" y1="18.9" x2="33.57" y2="18.9" fill="none" stroke="#b2b5b2" stroke-linecap="round" stroke-linejoin="round"/><line x1="18.69" y1="28.2" x2="36.36" y2="28.2" fill="none" stroke="#b2b5b2" stroke-linecap="round" stroke-linejoin="round"/><line x1="18.69" y1="23.55" x2="29.85" y2="23.55" fill="none" stroke="#b2b5b2" stroke-linecap="round" stroke-linejoin="round"/><line x1="18.69" y1="42.15" x2="32.64" y2="42.15" fill="none" stroke="#b2b5b2" stroke-linecap="round" stroke-linejoin="round"/><line x1="18.69" y1="37.5" x2="38.22" y2="37.5" fill="none" stroke="#b2b5b2" stroke-linecap="round" stroke-linejoin="round"/><line x1="18.69" y1="32.85" x2="41.01" y2="32.85" fill="none" stroke="#b2b5b2" stroke-linecap="round" stroke-linejoin="round"/><line x1="18.69" y1="46.8" x2="33.57" y2="46.8" fill="none" stroke="#b2b5b2" stroke-linecap="round" stroke-linejoin="round"/><line x1="18.69" y1="51.45" x2="47.52" y2="51.45" fill="none" stroke="#b2b5b2" stroke-linecap="round" stroke-linejoin="round"/><line x1="18.69" y1="56.1" x2="33.57" y2="56.1" fill="none" stroke="#b2b5b2" stroke-linecap="round" stroke-linejoin="round"/><path d="M69.54,19,42.38,46.14,31.29,50.2l4.06-11.09L62.51,12a2.29,2.29,0,0,1,3.25,0l3.79,3.79A2.29,2.29,0,0,1,69.54,19Z" fill="#ffd232" stroke="#414141" stroke-linecap="round" stroke-linejoin="round" stroke-width="2.5"/><polygon points="42.38 46.14 31.29 50.2 35.35 39.11 42.38 46.14" fill="#fff" stroke="#414141" stroke-linecap="round" stroke-linejoin="round" stroke-width="2.5"/><path d="M66.44,22.08l2.6-2.6a3,3,0,0,0,0-4.24l-2.79-2.79a3,3,0,0,0-4.24,0L59.41,15Z" fill="#ff8278" stroke="#414141" stroke-miterlimit="10" stroke-width="2.5"/></symbol></defs><title>02_DashboardDataEntry</title><use width="75" height="75" xlink:href="#a"/></svg>