<svg xmlns="http://www.w3.org/2000/svg" xmlns:xlink="http://www.w3.org/1999/xlink" viewBox="0 0 75 75"><defs><symbol id="a" viewBox="0 0 75 75"><rect width="75" height="75" fill="none"/><path d="M20.11,33.15a8.78,8.78,0,0,1,0-17.57H54.87a8.78,8.78,0,0,1,0,17.57Z" fill="#ff8278"/><path d="M54.87,16.83a7.53,7.53,0,0,1,0,15.07H20.11a7.53,7.53,0,0,1,0-15.07H54.87m0-2.5H20.11a10,10,0,0,0,0,20.07H54.87a10,10,0,0,0,0-20.07Z" fill="#414141"/><circle cx="20.07" cy="24.41" r="8.5" fill="#f9f9f9"/><path d="M20.07,16.41a8,8,0,1,1-8,8,8,8,0,0,1,8-8m0-1a9,9,0,1,0,9,9,9,9,0,0,0-9-9Z" fill="#414141"/><path d="M20.11,62.15a8.78,8.78,0,0,1,0-17.57H54.87a8.78,8.78,0,0,1,0,17.57Z" fill="#7dd796"/><path d="M54.87,45.83a7.53,7.53,0,0,1,0,15.07H20.11a7.53,7.53,0,0,1,0-15.07H54.87m0-2.5H20.11a10,10,0,0,0,0,20.07H54.87a10,10,0,0,0,0-20.07Z" fill="#414141"/><circle cx="54.9" cy="53.32" r="8.5" fill="#f9f9f9"/><path d="M54.9,45.32a8,8,0,1,1-8,8,8,8,0,0,1,8-8m0-1a9,9,0,1,0,9,9,9,9,0,0,0-9-9Z" fill="#414141"/></symbol></defs><title>02_DashboardSettings</title><use width="75" height="75" xlink:href="#a"/></svg>