<svg xmlns="http://www.w3.org/2000/svg" xmlns:xlink="http://www.w3.org/1999/xlink" viewBox="0 0 75 75"><defs><symbol id="a" viewBox="0 0 75 75"><rect width="75" height="75" fill="none"/><path d="M51.38,18.9S32.07,18.28,32.78,10C33,7.13,28,10.4,28,18.73" fill="#c6c6c6" stroke="#414141" stroke-linecap="round" stroke-linejoin="round" stroke-width="2.5"/><rect x="27.89" y="18.57" width="33.82" height="31.91" rx="0.75" ry="0.75" fill="#fff"/><path d="M60.46,19.82V49.23H29.14V19.82H60.46m.5-2.5H28.64a2,2,0,0,0-2,2V49.73a2,2,0,0,0,2,2H61a2,2,0,0,0,2-2V19.32a2,2,0,0,0-2-2Z" fill="#414141"/><line x1="60.74" y1="24.53" x2="29.51" y2="24.53" fill="none" stroke="#414141" stroke-linecap="round" stroke-linejoin="round"/><line x1="60.42" y1="29.53" x2="29.19" y2="29.53" fill="none" stroke="#414141" stroke-linecap="round" stroke-linejoin="round"/><line x1="60.09" y1="34.53" x2="28.86" y2="34.53" fill="none" stroke="#414141" stroke-linecap="round" stroke-linejoin="round"/><line x1="60.09" y1="39.53" x2="28.86" y2="39.53" fill="none" stroke="#414141" stroke-linecap="round" stroke-linejoin="round"/><line x1="60.09" y1="44.53" x2="28.86" y2="44.53" fill="none" stroke="#414141" stroke-linecap="round" stroke-linejoin="round"/><path d="M17.56,56.5l20.76,6.75a15.34,15.34,0,0,0,10.84-.51c8.09-3.5,20-10.08,19.85-10.31-1.83-3.65-4.79-4.59-8.74-3.6l-10,4.25c4.57-5.2.6-5.33-3.29-6.3l-6-3.12L23.18,39" fill="#ebbea5" stroke="#414141" stroke-linecap="round" stroke-linejoin="round" stroke-width="2.5"/><path d="M16.82,59a1.59,1.59,0,0,1-.6-.12L5.83,54.66a2,2,0,0,1-1.14-2.45l5.83-18.09a2.23,2.23,0,0,1,2.06-1.46,1.86,1.86,0,0,1,.36,0l10.61,2.11a1.42,1.42,0,0,1,1.12,1.87L18.2,58A1.44,1.44,0,0,1,16.82,59Z" fill="#64b4f5"/><path d="M12.58,33.91h.12L23.31,36a.18.18,0,0,1,.17.28L17,57.6c-.05.18-.15.18-.18.18l-.13,0L6.3,53.51a.8.8,0,0,1-.42-.91L11.7,34.51a1,1,0,0,1,.88-.6m0-2.5a3.48,3.48,0,0,0-3.25,2.33L3.5,51.83a3.3,3.3,0,0,0,1.86,4l10.39,4.25a2.83,2.83,0,0,0,1.07.21,2.68,2.68,0,0,0,2.58-2L25.87,37a2.67,2.67,0,0,0-2.07-3.46L13.19,31.47a3.12,3.12,0,0,0-.61-.06Z" fill="#414141"/><path d="M36.05,52.62l4.4,1.31c3.29,1,11.81,2.16,11.39-5.65" fill="none" stroke="#414141" stroke-linecap="round" stroke-linejoin="round" stroke-width="2.5"/></symbol></defs><title>02_DashboardClerkSubmittal</title><use width="75" height="75" xlink:href="#a"/></svg>