<svg xmlns="http://www.w3.org/2000/svg" xmlns:xlink="http://www.w3.org/1999/xlink" viewBox="0 0 24 24"><defs><symbol id="a" viewBox="0 0 24 24"><rect width="24" height="24" fill="none"/><path d="M5.79,4H6l3.13.5a.85.85,0,0,1,.77.9,7.55,7.55,0,0,0,.07,2.79A.69.69,0,0,1,9.58,9L7.35,10.31a12.87,12.87,0,0,0,5.08,6l2.23-1.35a1,1,0,0,1,.5-.13,1,1,0,0,1,.44.1,12,12,0,0,0,3.12.95.85.85,0,0,1,.77.9l-.43,2.65a.82.82,0,0,1-.85.63h-.17C9.67,18.64,3.8,11.76,4.94,4.63A.82.82,0,0,1,5.79,4m0-2A2.8,2.8,0,0,0,3,4.31,14.06,14.06,0,0,0,6.4,15.78,18.74,18.74,0,0,0,17.74,22a3,3,0,0,0,.48,0A2.8,2.8,0,0,0,21,19.69L21.47,17a2.72,2.72,0,0,0-.63-2.19,3,3,0,0,0-1.8-1,10,10,0,0,1-2.6-.79,3,3,0,0,0-1.28-.28,3,3,0,0,0-1.54.42l-1.11.67A11.2,11.2,0,0,1,10,11.06l.65-.4a2.69,2.69,0,0,0,1.27-2.83,5.62,5.62,0,0,1-.06-2.09,2.69,2.69,0,0,0-.49-2A3,3,0,0,0,9.4,2.54L6.28,2a3,3,0,0,0-.48,0Z" fill="#006e78"/></symbol></defs><title>02_FormPhone</title><use width="24" height="24" xlink:href="#a"/></svg>