<svg xmlns="http://www.w3.org/2000/svg" xmlns:xlink="http://www.w3.org/1999/xlink" viewBox="0 0 24 24"><defs><symbol id="a" viewBox="0 0 24 24"><rect width="24" height="24" fill="none"/><path d="M13.61,11.14c-.83.64-.93.82-.93,1.25a.9.9,0,0,1-1,.9.93.93,0,0,1-1-1,1.94,1.94,0,0,1,1-1.82c.56-.43,1-.74,1-1.3s-.43-.87-1-.87a1.68,1.68,0,0,0-.89.32,1,1,0,0,1-1.46-.78,1.13,1.13,0,0,1,.63-1,3.62,3.62,0,0,1,2-.47A2.57,2.57,0,0,1,14.91,8.9,2.8,2.8,0,0,1,13.61,11.14Zm-1.88,5.27a1.21,1.21,0,0,1,0-2.43,1.21,1.21,0,1,1,0,2.43Z" fill="#80b6bb"/><circle cx="12.18" cy="11.41" r="8.75" fill="none" stroke="#80b6bb" stroke-miterlimit="10" stroke-width="2"/></symbol></defs><title>02_MenuHelp</title><use width="24" height="24" xlink:href="#a"/></svg>