<svg xmlns="http://www.w3.org/2000/svg" xmlns:xlink="http://www.w3.org/1999/xlink" viewBox="0 0 24 24"><defs><symbol id="a" viewBox="0 0 24 24"><rect width="24" height="24" fill="none"/><g opacity="0"><line x1="9.25" y1="10.25" x2="12.75" y2="10.25" fill="none" stroke="#eb7819" stroke-linecap="round" stroke-linejoin="round" stroke-width="2"/><line x1="9.25" y1="14.25" x2="14.75" y2="14.25" fill="none" stroke="#eb7819" stroke-linecap="round" stroke-linejoin="round" stroke-width="2"/><path d="M4,15V6A2,2,0,0,1,6,4H18a2,2,0,0,1,2,2V18a2,2,0,0,1-2,2H6a2,2,0,0,1-2-2V14.5" fill="none" stroke="#eb7819" stroke-linecap="round" stroke-linejoin="round" stroke-width="2"/><line x1="2" y1="9.5" x2="5" y2="9.5" fill="none" stroke="#eb7819" stroke-linecap="round" stroke-linejoin="round" stroke-width="2"/><line x1="2" y1="14.5" x2="5" y2="14.5" fill="none" stroke="#eb7819" stroke-linecap="round" stroke-linejoin="round" stroke-width="2"/></g><polygon points="9.49 16.31 4.64 16.93 5.85 12.4 16.19 3.2 19.83 7.11 9.49 16.31" fill="none" stroke="#80b6bb" stroke-linecap="round" stroke-linejoin="round" stroke-width="2"/><line x1="4" y1="21.27" x2="20" y2="21.27" fill="none" stroke="#80b6bb" stroke-linecap="round" stroke-linejoin="round" stroke-width="2"/></symbol></defs><title>02_MenuDataEntry</title><use width="24" height="24" xlink:href="#a"/></svg>