<svg xmlns="http://www.w3.org/2000/svg" xmlns:xlink="http://www.w3.org/1999/xlink" viewBox="0 0 75 75"><defs><symbol id="a" viewBox="0 0 75 75"><rect width="75" height="75" fill="none"/><rect x="17.54" y="11.25" width="27.16" height="35.62" rx="1.75" ry="1.75" fill="#d9dad9"/><path d="M42.95,12.5a.51.51,0,0,1,.5.5V45.12a.51.51,0,0,1-.5.5H19.29a.51.51,0,0,1-.5-.5V13a.51.51,0,0,1,.5-.5H42.95m0-2.5H19.29a3,3,0,0,0-3,3V45.12a3,3,0,0,0,3,3H42.95a3,3,0,0,0,3-3V13a3,3,0,0,0-3-3Z" fill="#414141"/><path d="M25,21.22V17.13a4.09,4.09,0,1,0,4.09,4.09Z" fill="#b2b5b2"/><path d="M25.95,16.22h0v4.09H30A4.09,4.09,0,0,0,25.95,16.22Z" fill="#b2b5b2"/><line x1="21.16" y1="32.67" x2="32.15" y2="32.67" fill="none" stroke="#b2b5b2" stroke-linecap="round" stroke-linejoin="round"/><line x1="21.16" y1="29.17" x2="36.95" y2="29.17" fill="none" stroke="#b2b5b2" stroke-linecap="round" stroke-linejoin="round"/><line x1="21.16" y1="36.17" x2="34.62" y2="36.17" fill="none" stroke="#b2b5b2" stroke-linecap="round" stroke-linejoin="round"/><line x1="21.16" y1="43.17" x2="32.15" y2="43.17" fill="none" stroke="#b2b5b2" stroke-linecap="round" stroke-linejoin="round"/><line x1="21.16" y1="39.67" x2="36.95" y2="39.67" fill="none" stroke="#b2b5b2" stroke-linecap="round" stroke-linejoin="round"/><line x1="21.16" y1="46.67" x2="34.62" y2="46.67" fill="none" stroke="#b2b5b2" stroke-linecap="round" stroke-linejoin="round"/><path d="M36.88,27.31V23.22A4.09,4.09,0,1,0,41,27.31Z" fill="#ff8278"/><path d="M37.79,22.31h0V26.4h4.09A4.09,4.09,0,0,0,37.79,22.31Z" fill="#70cbf6"/><line x1="33" y1="38.73" x2="43.98" y2="38.73" fill="none" stroke="#b2b5b2" stroke-linecap="round" stroke-linejoin="round"/><line x1="33" y1="35.26" x2="48.79" y2="35.26" fill="none" stroke="#b2b5b2" stroke-linecap="round" stroke-linejoin="round"/><line x1="33" y1="42.2" x2="46.46" y2="42.2" fill="none" stroke="#b2b5b2" stroke-linecap="round" stroke-linejoin="round"/><polygon points="55.49 26.49 46.69 26.49 46.69 17.69 55.49 26.49" fill="#ffd232" stroke="#414141" stroke-linecap="round" stroke-linejoin="round"/><path d="M29.08,53.09a.91.91,0,0,1-.91-.91V18.38a.91.91,0,0,1,.91-.91H46.43a.91.91,0,0,1,.64.26l8.44,8.37a.92.92,0,0,1,.27.65V52.17a.91.91,0,0,1-.91.91Z" fill="#f7f8f7"/><path d="M46.29,18.72l8.25,8.17V51.84H29.42V18.72H46.29m.14-2.5H29.08a2.16,2.16,0,0,0-2.16,2.16V52.17a2.16,2.16,0,0,0,2.16,2.16h25.8A2.16,2.16,0,0,0,57,52.17V26.75a2.16,2.16,0,0,0-.64-1.54L48,16.85a2.16,2.16,0,0,0-1.52-.63Z" fill="#414141"/><path d="M36.88,27.31V23.22A4.09,4.09,0,1,0,41,27.31Z" fill="#ff8278"/><path d="M37.79,22.31h0V26.4h4.09A4.09,4.09,0,0,0,37.79,22.31Z" fill="#64b4f5"/><line x1="33" y1="38.73" x2="43.98" y2="38.73" fill="none" stroke="#b2b5b2" stroke-linecap="round" stroke-linejoin="round"/><line x1="33" y1="35.26" x2="48.79" y2="35.26" fill="none" stroke="#b2b5b2" stroke-linecap="round" stroke-linejoin="round"/><line x1="33" y1="42.2" x2="46.46" y2="42.2" fill="none" stroke="#b2b5b2" stroke-linecap="round" stroke-linejoin="round"/><rect x="11.5" y="47" width="52" height="20" fill="#ffd232" stroke="#414141" stroke-linecap="round" stroke-linejoin="round" stroke-width="2.5"/><line x1="28.95" y1="53.59" x2="46.05" y2="53.59" fill="none" stroke="#414141" stroke-linecap="round" stroke-linejoin="round" stroke-width="2.5"/></symbol></defs><title>02_ReportsCollectionRates</title><use width="75" height="75" xlink:href="#a"/></svg>