<svg xmlns="http://www.w3.org/2000/svg" xmlns:xlink="http://www.w3.org/1999/xlink" viewBox="0 0 75 75"><defs><symbol id="a" viewBox="0 0 75 75"><rect width="75" height="75" fill="none"/><path d="M57.2,42.88V62.26A3.76,3.76,0,0,1,53.42,66H45.85a3.76,3.76,0,0,1-3.77-3.74V42.88h-3.4V29.3a7.2,7.2,0,0,1,7.23-7.17h7.23a7.2,7.2,0,0,1,7.23,7.17V42.88Z" fill="#f9f9f9" stroke="#414141" stroke-linecap="round" stroke-linejoin="round" stroke-width="2.5" fill-rule="evenodd"/><path d="M42.07,57V42.88h-3.4V29.3a7.2,7.2,0,0,1,7.23-7.17h7.23a7.2,7.2,0,0,1,7.23,7.17V42.88H57.2V57" fill="#64b4f5" stroke="#414141" stroke-linecap="round" stroke-linejoin="round" stroke-width="2.5" fill-rule="evenodd"/><line x1="49.52" y1="66" x2="49.52" y2="42.88" fill="none" stroke="#414141" stroke-linecap="round" stroke-linejoin="round"/><path d="M33.16,42.88l3.29,8.47H33.16v10.9A3.76,3.76,0,0,1,29.39,66H21.81A3.76,3.76,0,0,1,18,62.26V51.36H14.75L18,42.88h-3.4V29.3a7.2,7.2,0,0,1,7.23-7.17H29.1a7.2,7.2,0,0,1,7.23,7.17V42.88Z" fill="#f9f9f9" stroke="#414141" stroke-linecap="round" stroke-linejoin="round" stroke-width="2.5" fill-rule="evenodd"/><path d="M18,51.36H14.75L18,42.88h-3.4V29.3a7.2,7.2,0,0,1,7.23-7.17H29.1a7.2,7.2,0,0,1,7.23,7.17V42.88H33.16l3.29,8.47H33.16" fill="#ff8278" stroke="#414141" stroke-linecap="round" stroke-linejoin="round" stroke-width="2.5" fill-rule="evenodd"/><line x1="25.54" y1="66" x2="25.54" y2="51.36" fill="none" stroke="#414141" stroke-linecap="round" stroke-linejoin="round"/><line x1="17.05" y1="51.36" x2="34.03" y2="51.36" fill="none" stroke="#414141" stroke-linecap="round" stroke-linejoin="round"/><line x1="42.07" y1="56.98" x2="57.2" y2="56.98" fill="none" stroke="#414141" stroke-linecap="round" stroke-linejoin="round"/><polygon points="25.27 22.13 29.82 22.13 27.54 26.07 25.27 30.01 23 26.07 20.72 22.13 25.27 22.13" fill="#f9f9f9" stroke="#414141" stroke-linecap="round" stroke-linejoin="round" fill-rule="evenodd"/><polygon points="49.31 22.13 53.85 22.13 51.58 26.07 49.31 30.01 47.03 26.07 44.76 22.13 49.31 22.13" fill="#f9f9f9" stroke="#414141" stroke-linecap="round" stroke-linejoin="round" fill-rule="evenodd"/><ellipse cx="49.31" cy="15.33" rx="6.38" ry="6.33" fill="#f9f9f9" stroke="#414141" stroke-linecap="round" stroke-linejoin="round" stroke-width="2.5"/><ellipse cx="25.27" cy="15.33" rx="6.38" ry="6.33" fill="#f9f9f9" stroke="#414141" stroke-linecap="round" stroke-linejoin="round" stroke-width="2.5"/><line x1="45.38" y1="66" x2="29.68" y2="66" fill="none" stroke="#414141" stroke-linecap="round" stroke-linejoin="round" stroke-width="2.5"/><path d="M42.31,53h0V63.67A2.34,2.34,0,0,1,40,66H35.25a2.34,2.34,0,0,1-2.35-2.33V53H30.78V43.15a4.49,4.49,0,0,1,4.5-4.47h4.5a4.49,4.49,0,0,1,4.5,4.47V53Z" fill="#f9f9f9" stroke="#414141" stroke-linecap="round" stroke-linejoin="round" fill-rule="evenodd"/><path d="M42.31,53h0v7.16H32.9V53H30.78V43.15a4.49,4.49,0,0,1,4.5-4.47h4.5a4.49,4.49,0,0,1,4.5,4.47V53Z" fill="#ffd232" stroke="#414141" stroke-linecap="round" stroke-linejoin="round" fill-rule="evenodd"/><ellipse cx="37.4" cy="34.74" rx="3.97" ry="3.94" fill="#f9f9f9" stroke="#414141" stroke-linecap="round" stroke-linejoin="round"/><line x1="37.53" y1="66" x2="37.53" y2="53.44" fill="none" stroke="#414141" stroke-linecap="round" stroke-linejoin="round"/></symbol></defs><title>02_ReportsRegistrationDemographics</title><use width="75" height="75" xlink:href="#a"/></svg>