<svg xmlns="http://www.w3.org/2000/svg" xmlns:xlink="http://www.w3.org/1999/xlink" viewBox="0 0 75 75"><defs><symbol id="a" viewBox="0 0 75 75"><rect width="75" height="75" fill="none"/><rect x="15.04" y="13.7" width="44.91" height="51.55" rx="1.75" ry="1.75" fill="#f7f8f7"/><path d="M58.21,15a.51.51,0,0,1,.5.5v48a.51.51,0,0,1-.5.5H16.79a.51.51,0,0,1-.5-.5v-48a.51.51,0,0,1,.5-.5H58.21m0-2.5H16.79a3,3,0,0,0-3,3v48a3,3,0,0,0,3,3H58.21a3,3,0,0,0,3-3v-48a3,3,0,0,0-3-3Z" fill="#414141"/><path d="M49.75,15.09v4.08A3.79,3.79,0,0,1,46,23H28.89a3.79,3.79,0,0,1-3.79-3.79V15.09" fill="#d9d9d9" stroke="#414141" stroke-miterlimit="10"/><circle cx="37.42" cy="13.29" r="3.79" fill="#fff" stroke="#414141" stroke-miterlimit="10" stroke-width="2.5"/><path d="M28.9,54.77a1.87,1.87,0,1,1-3.73,0V49.09a1.87,1.87,0,1,1,3.73,0Z" fill="#64b4f5"/><path d="M35.13,54.77a1.87,1.87,0,1,1-3.73,0v-12a1.87,1.87,0,1,1,3.73,0Z" fill="#64b4f5"/><path d="M41.64,54.77a1.87,1.87,0,1,1-3.73,0V46a1.87,1.87,0,1,1,3.73,0Z" fill="#64b4f5"/><path d="M47.77,54.77a1.87,1.87,0,1,1-3.73,0v-15a1.87,1.87,0,1,1,3.73,0Z" fill="#64b4f5"/><polyline points="27.03 38.76 33.26 32.25 39.78 35.81 45.91 29.28" fill="none" stroke="#ff8c00" stroke-miterlimit="10"/><circle cx="27.03" cy="38.76" r="1.87" fill="#ff8c00"/><circle cx="33.26" cy="32.25" r="1.87" fill="#ff8c00"/><circle cx="39.78" cy="35.81" r="1.87" fill="#ff8c00"/><circle cx="45.91" cy="29.28" r="1.87" fill="#ff8c00"/></symbol></defs><title>02_ReportsProgramSummary</title><use width="75" height="75" xlink:href="#a"/></svg>