<svg xmlns="http://www.w3.org/2000/svg" xmlns:xlink="http://www.w3.org/1999/xlink" viewBox="0 0 75 75"><defs><symbol id="a" viewBox="0 0 75 75"><rect width="75" height="75" fill="none"/><polyline points="47.98 26.48 51.73 24.58 63.19 47.24 33.98 62.01 22.52 39.34 26.62 37.29" fill="#d9d9d9" stroke="#414141" stroke-linecap="round" stroke-linejoin="round" stroke-width="2.5"/><polygon points="46.1 66.05 39.35 59.29 28.05 47.99 51.93 24.11 69.99 42.16 46.1 66.05" fill="#f9f9f9" stroke="#414141" stroke-linecap="round" stroke-linejoin="round"/><path d="M23.31,38.95" fill="#d9d9d9" stroke="#414141" stroke-linecap="round" stroke-linejoin="round" stroke-width="2.5"/><polyline points="52.16 24.34 69.99 42.16 46.1 66.05 39.35 59.29" fill="#f9f9f9" stroke="#414141" stroke-linecap="round" stroke-linejoin="round" stroke-width="2.5"/><line x1="51.71" y1="30.77" x2="57.64" y2="36.71" fill="none" stroke="#b2b5b2" stroke-linecap="round" stroke-linejoin="round"/><line x1="47.57" y1="34.9" x2="54.85" y2="42.19" fill="none" stroke="#b2b5b2" stroke-linecap="round" stroke-linejoin="round"/><line x1="49.64" y1="32.84" x2="54.21" y2="37.42" fill="none" stroke="#b2b5b2" stroke-linecap="round" stroke-linejoin="round"/><line x1="41.37" y1="41.1" x2="47.1" y2="46.85" fill="none" stroke="#b2b5b2" stroke-linecap="round" stroke-linejoin="round"/><line x1="43.44" y1="39.04" x2="51.42" y2="47.04" fill="none" stroke="#b2b5b2" stroke-linecap="round" stroke-linejoin="round"/><line x1="45.5" y1="36.97" x2="54.53" y2="46.01" fill="none" stroke="#b2b5b2" stroke-linecap="round" stroke-linejoin="round"/><line x1="39.3" y1="43.17" x2="45.15" y2="49.03" fill="none" stroke="#b2b5b2" stroke-linecap="round" stroke-linejoin="round"/><line x1="37.23" y1="45.23" x2="49.08" y2="57.11" fill="none" stroke="#b2b5b2" stroke-linecap="round" stroke-linejoin="round"/><line x1="35.16" y1="47.3" x2="41.01" y2="53.16" fill="none" stroke="#b2b5b2" stroke-linecap="round" stroke-linejoin="round"/><path d="M19.72,14.63l8.69,4.59,14.41,3.07,4.72,4.47L39.7,30.66l-7.42.69,8.17,6.46a2.54,2.54,0,0,1,.78,2.91h0a2.54,2.54,0,0,1-3.42,1.4L20.27,33.76l-5.57-6.52-3.72-3" fill="#ebbea5" stroke="#414141" stroke-linecap="round" stroke-linejoin="round" stroke-width="2.5"/><polygon points="11.87 27.81 3.91 23.13 12.76 8.07 20.72 12.74 11.87 27.81" fill="#64b4f5" stroke="#414141" stroke-linecap="round" stroke-linejoin="round" stroke-width="2.5"/></symbol></defs><title>02_ReportsDrop-offReport</title><use width="75" height="75" xlink:href="#a"/></svg>