<svg xmlns="http://www.w3.org/2000/svg" xmlns:xlink="http://www.w3.org/1999/xlink" viewBox="0 0 75 75"><defs><symbol id="a" viewBox="0 0 75 75"><rect width="75" height="75" fill="none"/><polygon points="9.43 64.5 34.6 64.5 34.6 24.51 9.43 24.51 9.43 64.5" fill="#f7f8f7"/><polygon points="40.4 64.5 65.57 64.5 65.57 24.51 40.4 24.51 40.4 64.5" fill="#f7f8f7"/><polygon points="24.5 64.5 50.5 64.5 50.5 10.5 24.5 10.5 24.5 64.5" fill="#e5e6e5"/><polygon points="29.5 64.5 45.5 64.5 45.5 54.5 29.5 54.5 29.5 64.5" fill="#64b4f5"/><polygon points="36.5 64.5 38.5 64.5 38.5 54.5 36.5 54.5 36.5 64.5" fill="#4b5eff"/><path d="M65.57,64.5V25.17a.93.93,0,0,0-.93-.93H50.5V11.43a.93.93,0,0,0-.93-.93H25.43a.93.93,0,0,0-.93.93v12.8H10.37a.93.93,0,0,0-.93.93V64.5H65.57Z" fill="none" stroke="#414141" stroke-linecap="round" stroke-linejoin="round" stroke-width="2.5"/><polygon points="29.5 64.5 45.5 64.5 45.5 54.5 29.5 54.5 29.5 64.5" fill="none" stroke="#414141" stroke-linecap="round" stroke-linejoin="round"/><path d="M33.91,17.5h-2a1,1,0,0,0-1,1v2a1,1,0,0,0,1,1h2a1,1,0,0,0,1-1v-2a1,1,0,0,0-1-1" fill="#a0a0a0"/><path d="M43.09,17.5h-2a1,1,0,0,0-1,1v2a1,1,0,0,0,1,1h2a1,1,0,0,0,1-1v-2a1,1,0,0,0-1-1" fill="#a0a0a0"/><path d="M33.91,25.5h-2a1,1,0,0,0-1,1v2a1,1,0,0,0,1,1h2a1,1,0,0,0,1-1v-2a1,1,0,0,0-1-1" fill="#a0a0a0"/><path d="M43.09,25.5h-2a1,1,0,0,0-1,1v2a1,1,0,0,0,1,1h2a1,1,0,0,0,1-1v-2a1,1,0,0,0-1-1" fill="#a0a0a0"/><path d="M33.91,33.5h-2a1,1,0,0,0-1,1v2a1,1,0,0,0,1,1h2a1,1,0,0,0,1-1v-2a1,1,0,0,0-1-1" fill="#a0a0a0"/><path d="M43.09,33.5h-2a1,1,0,0,0-1,1v2a1,1,0,0,0,1,1h2a1,1,0,0,0,1-1v-2a1,1,0,0,0-1-1" fill="#a0a0a0"/><path d="M33.91,41.5h-2a1,1,0,0,0-1,1v2a1,1,0,0,0,1,1h2a1,1,0,0,0,1-1v-2a1,1,0,0,0-1-1" fill="#a0a0a0"/><path d="M43.09,41.5h-2a1,1,0,0,0-1,1v2a1,1,0,0,0,1,1h2a1,1,0,0,0,1-1v-2a1,1,0,0,0-1-1" fill="#a0a0a0"/><path d="M58.45,30.1h-2a1,1,0,0,0-1,1v2a1,1,0,0,0,1,1h2a1,1,0,0,0,1-1v-2a1,1,0,0,0-1-1" fill="#cccecc"/><path d="M58.45,38.1h-2a1,1,0,0,0-1,1v2a1,1,0,0,0,1,1h2a1,1,0,0,0,1-1v-2a1,1,0,0,0-1-1" fill="#cccecc"/><path d="M58.45,46.1h-2a1,1,0,0,0-1,1v2a1,1,0,0,0,1,1h2a1,1,0,0,0,1-1v-2a1,1,0,0,0-1-1" fill="#cccecc"/><path d="M18.38,30.1h-2a1,1,0,0,0-1,1v2a1,1,0,0,0,1,1h2a1,1,0,0,0,1-1v-2a1,1,0,0,0-1-1" fill="#cccecc"/><path d="M18.38,38.1h-2a1,1,0,0,0-1,1v2a1,1,0,0,0,1,1h2a1,1,0,0,0,1-1v-2a1,1,0,0,0-1-1" fill="#cccecc"/><path d="M18.38,46.1h-2a1,1,0,0,0-1,1v2a1,1,0,0,0,1,1h2a1,1,0,0,0,1-1v-2a1,1,0,0,0-1-1" fill="#cccecc"/><line x1="25.18" y1="20.5" x2="25.18" y2="64.5" fill="none" stroke="#414141" stroke-miterlimit="10"/><line x1="49.82" y1="20.5" x2="49.82" y2="64.5" fill="none" stroke="#414141" stroke-miterlimit="10"/></symbol></defs><title>02_ReportsOfficeStatistics</title><use width="75" height="75" xlink:href="#a"/></svg>