<svg xmlns="http://www.w3.org/2000/svg" xmlns:xlink="http://www.w3.org/1999/xlink" viewBox="0 0 75 75"><defs><clipPath id="a"><polygon points="63.73 54.96 37.89 54.96 38.63 12.64 64.06 17.93 63.73 54.96" fill="none"/></clipPath><symbol id="b" viewBox="0 0 75 75"><rect width="75" height="75" fill="none"/><polygon points="46.69 9.95 28.32 16.43 9.95 9.95 9.95 58.57 28.32 65.06 46.69 58.57 65.06 65.06 65.06 16.43 46.69 9.95" fill="#f7f7f7"/><polygon points="46.69 9.95 28.32 16.43 9.95 9.95 9.95 58.57 28.32 65.06 46.69 58.57 65.06 65.06 65.06 16.43 46.69 9.95" fill="none" stroke="#414141" stroke-linecap="round" stroke-linejoin="round" stroke-width="2.5"/><polygon points="46.69 57.66 28.17 63.82 28.17 17.98 46.69 11.47 46.69 57.66" fill="#cfcfcf"/><circle cx="20.27" cy="27.26" r="4.97" fill="#64b4f5"/><circle cx="20.27" cy="27.26" r="3.38" fill="#32be5a"/><circle cx="20.27" cy="27.26" r="2.08" fill="#ffd232"/><circle cx="20.27" cy="27.26" r="0.84" fill="#ff8278"/><circle cx="32.3" cy="47.23" r="8.2" fill="#64b4f5"/><circle cx="32.3" cy="47.23" r="5.58" fill="#32be5a"/><circle cx="32.3" cy="47.23" r="3.43" fill="#ffd232"/><circle cx="32.3" cy="47.23" r="1.39" fill="#ff8278"/><line x1="28.17" y1="16.51" x2="28.17" y2="64.58" fill="none" stroke="#414141" stroke-miterlimit="10"/><g clip-path="url(#a)"><circle cx="58.88" cy="29.9" r="14.98" fill="#64b4f5"/><circle cx="58.88" cy="29.9" r="10.2" fill="#32be5a"/><circle cx="58.88" cy="29.9" r="6.27" fill="#ffd232"/><circle cx="58.88" cy="29.9" r="2.53" fill="#ff8278"/></g><line x1="46.69" y1="9.94" x2="46.69" y2="58.01" fill="none" stroke="#414141" stroke-miterlimit="10"/></symbol></defs><title>02_ReportsCollectionMap</title><use width="75" height="75" xlink:href="#b"/></svg>