<svg xmlns="http://www.w3.org/2000/svg" xmlns:xlink="http://www.w3.org/1999/xlink" viewBox="0 0 75 75"><defs><symbol id="a" viewBox="0 0 75 75"><rect width="75" height="75" fill="none"/><path d="M18.15,64.75a1.92,1.92,0,0,1-1.92-1.92V12.23a2,2,0,0,1,2-2H56.79a2,2,0,0,1,2,2V62.77a2,2,0,0,1-2,2Z" fill="#f7f8f7"/><path d="M56.79,11.5a.73.73,0,0,1,.73.73V62.77a.73.73,0,0,1-.73.73H18.15a.67.67,0,0,1-.67-.67V12.23a.73.73,0,0,1,.73-.73H56.79m0-2.5H18.21A3.23,3.23,0,0,0,15,12.23v50.6A3.17,3.17,0,0,0,18.15,66H56.79A3.23,3.23,0,0,0,60,62.77V12.23A3.23,3.23,0,0,0,56.79,9Z" fill="#414141"/><line x1="21.69" y1="26.87" x2="45.18" y2="26.87" fill="none" stroke="#b2b5b2" stroke-linecap="round" stroke-linejoin="round"/><line x1="21.69" y1="21.78" x2="50.07" y2="21.78" fill="none" stroke="#b2b5b2" stroke-linecap="round" stroke-linejoin="round"/><line x1="21.69" y1="42.14" x2="43.15" y2="42.14" fill="none" stroke="#b2b5b2" stroke-linecap="round" stroke-linejoin="round"/><line x1="21.69" y1="37.05" x2="31.85" y2="37.05" fill="none" stroke="#b2b5b2" stroke-linecap="round" stroke-linejoin="round"/><line x1="21.69" y1="31.96" x2="52.66" y2="31.96" fill="none" stroke="#b2b5b2" stroke-linecap="round" stroke-linejoin="round"/><line x1="21.69" y1="47.23" x2="36.27" y2="47.23" fill="none" stroke="#b2b5b2" stroke-linecap="round" stroke-linejoin="round"/><line x1="21.69" y1="52.32" x2="33.26" y2="52.32" fill="none" stroke="#b2b5b2" stroke-linecap="round" stroke-linejoin="round"/><line x1="21.69" y1="57.4" x2="37.31" y2="57.4" fill="none" stroke="#b2b5b2" stroke-linecap="round" stroke-linejoin="round"/><path d="M38.76,50.73s3.49-2.28,3.6-2.08c0,0-2.57,1.57-2.45,1.78a27.84,27.84,0,0,1,2.6-1.5s-.81,1.59-.78,1.64S43,49.82,43,49.83s-1.18.92-1.11,1l1.28-.74a11.63,11.63,0,0,1-.78,1.57c.06.11,1.26-.74,1.26-.73S42.76,52,42.76,52a6.19,6.19,0,0,1,1-.59" fill="none" stroke="#eb503c" stroke-linecap="round" stroke-linejoin="round"/><path d="M38.46,45.25s1.22-.86,1.28-.74-.46,2-.46,2a11.2,11.2,0,0,0,1.3-.75,8.91,8.91,0,0,0-.79,1.52,8.52,8.52,0,0,0,1.31-.76l-1.28.8a11.56,11.56,0,0,1,1.31-.76c0,.08-.52,1.95-.52,1.95s1.23-.78,1.26-.73l-1.19.83s1.23-.76,1.25-.72" fill="none" stroke="#eb503c" stroke-linecap="round" stroke-linejoin="round"/><path d="M37.15,43.32s1-.6,1-.6l-1.28,2.09s2.19-1.29,2.2-1.27c.16.28-2.31,2.28-2.31,2.28.15.25,2.66-1.84,2.79-1.61s-3.09,2.93-3,3.16a10.57,10.57,0,0,0,1.56-.9c0,.06-1.62,1.39-1.62,1.39s1.51-1,1.58-.91-1.67,2.22-1.65,2.25l1.55-.9s-1.64,1.27-1.57,1.41A10.8,10.8,0,0,0,38,48.83,12.57,12.57,0,0,0,36.48,50c.07.12,1.52-.88,1.52-.88a16.67,16.67,0,0,1-1.57,2.55c.22.38,5.49-3.75,5.74-3.32.13.22-5.77,4.14-5.77,4.14s1.36-1,1.44-.83-1.34,1.54-1.33,1.56,1.25-.88,1.31-.76a14,14,0,0,0-1,1.05l.91-.52" fill="none" stroke="#eb503c" stroke-linecap="round" stroke-linejoin="round"/><path d="M44.13,47.43s1.33-.93,1.4-.81l.8,1.26a29.62,29.62,0,0,0,3.44-2s-3.17,2.54-3,2.81A8.21,8.21,0,0,0,48,48l-1.24.79A11.13,11.13,0,0,1,48,48a19.08,19.08,0,0,1-.63,1.85c0,.06.83-.53.85-.49" fill="none" stroke="#eb503c" stroke-linecap="round" stroke-linejoin="round"/><path d="M45.85,44.58s.87-.5.87-.5L46,45.82s1.25-.74,1.26-.73-1.17,1.09-1.17,1.09,1.21-.83,1.26-.73" fill="none" stroke="#eb503c" stroke-linecap="round" stroke-linejoin="round"/><path d="M39.34,37.74c.17.29,2.95-1.7,2.95-1.7a19.68,19.68,0,0,0-2.56,1.55,19.26,19.26,0,0,1,2.66-1.54s0,1.2,0,1.22a12.83,12.83,0,0,1,1.73-1c.06.1,1.06,1.32,1.06,1.32s1-.68,1-.6l.8,1.27.74-.43.77,1.33s.42-.29.44-.25S50,40.49,50,40.49a1.55,1.55,0,0,1,.26-.15s.08.49.1.51l.18-.1c.07.12.79,1.52.83,1.59s.12-.08.12-.07l-.06.17s.1-.06.1-.06.63,1.82.63,1.82l0,0,.05.24,0,0c.06.1.21,1.34.21,1.34l0,0s.09,1,.11,1l0,0a17.43,17.43,0,0,0-.2,2.25l.05,0a10.08,10.08,0,0,0-.38,1.24s.1-.06.1-.06l-.44,1S52,51,52,51s-.49.71-.49.71a1.24,1.24,0,0,1,.22-.13s-.49.54-.46.6A1.77,1.77,0,0,0,51.5,52S49.86,53.69,50,53.85c0,0,.69-.48.72-.42L49.33,54.6l.91-.53" fill="none" stroke="#eb503c" stroke-linecap="round" stroke-linejoin="round"/><path d="M34.59,38.83l4-2.3c.11.19-6.79,5-6.46,5.61,0,0,2.77-1.6,2.77-1.6s-3.51,2.74-3.37,3l2-1.13c0,.07-2.36,2.83-2.36,2.83l1.5-.87s-1.63.88-1.54,1l1.5-.86S31,46,31,46a13.28,13.28,0,0,1,1.35-.78L31,47.87l1.15-.66L31,47.9s1.09-.75,1.14-.66-1,2-.91,2.1a8.78,8.78,0,0,0,1-.59,9.44,9.44,0,0,0-.71,1.72c0,.07.92-.59.95-.55l-.16,2.38s.85-.54.87-.5-.75.69-.7.77.83-.49.83-.48l-.59.88a7,7,0,0,1,.86-.5s.07,1.75.09,1.78.83-.5.84-.48.48,1.71.55,1.83.87-.5.87-.5l1,1.7s.82-.59.87-.5S39,57.58,39,57.63l1-.55a15.83,15.83,0,0,0,1.76.94A13.39,13.39,0,0,1,43,57.32l.46.61,1.91-1.1s-.11.67-.09.69S49,55.35,49,55.35" fill="none" stroke="#eb503c" stroke-linecap="round" stroke-linejoin="round"/><circle cx="24.78" cy="15.63" r="1.41" fill="none" stroke="#414141" stroke-linecap="round" stroke-linejoin="round"/><circle cx="33.26" cy="15.63" r="1.41" fill="none" stroke="#414141" stroke-linecap="round" stroke-linejoin="round"/><circle cx="41.74" cy="15.63" r="1.41" fill="none" stroke="#414141" stroke-linecap="round" stroke-linejoin="round"/><circle cx="50.22" cy="15.63" r="1.41" fill="none" stroke="#414141" stroke-linecap="round" stroke-linejoin="round"/><line x1="24.85" y1="10.61" x2="24.85" y2="14.22" fill="none" stroke="#414141" stroke-linecap="round" stroke-linejoin="round"/><line x1="33.26" y1="10.61" x2="33.26" y2="14.22" fill="none" stroke="#414141" stroke-linecap="round" stroke-linejoin="round"/><line x1="41.66" y1="10.61" x2="41.66" y2="14.22" fill="none" stroke="#414141" stroke-linecap="round" stroke-linejoin="round"/><line x1="50.07" y1="10.61" x2="50.07" y2="14.22" fill="none" stroke="#414141" stroke-linecap="round" stroke-linejoin="round"/></symbol></defs><title>02_ReportsCanvassReportCard</title><use width="75" height="75" xlink:href="#a"/></svg>