<svg xmlns="http://www.w3.org/2000/svg" xmlns:xlink="http://www.w3.org/1999/xlink" viewBox="0 0 75 75"><defs><symbol id="a" viewBox="0 0 75 75"><rect width="75" height="75" fill="none"/><path d="M11.33,63.75a1.87,1.87,0,0,1-1.87-1.87V13.12a1.87,1.87,0,0,1,1.87-1.87h25a1.86,1.86,0,0,1,1.32.54L49.87,23.87a1.88,1.88,0,0,1,.55,1.33V61.88a1.87,1.87,0,0,1-1.87,1.87Z" fill="#f7f8f7"/><path d="M36.37,12.5a.61.61,0,0,1,.44.18L49,24.75a.61.61,0,0,1,.18.44V61.88a.62.62,0,0,1-.62.62H11.33a.62.62,0,0,1-.62-.62V13.12a.62.62,0,0,1,.62-.62h25m0-2.5h-25a3.12,3.12,0,0,0-3.12,3.12V61.88A3.12,3.12,0,0,0,11.33,65H48.55a3.12,3.12,0,0,0,3.12-3.12V25.19A3.12,3.12,0,0,0,50.75,23L38.56,10.9a3.12,3.12,0,0,0-2.2-.9Z" fill="#414141"/><polygon points="49.43 24.82 36.73 24.82 36.73 12.12 49.43 24.82" fill="#ffd232" stroke="#414141" stroke-linecap="round" stroke-linejoin="round"/><line x1="16.7" y1="18.29" x2="30.12" y2="18.29" fill="none" stroke="#b2b5b2" stroke-linecap="round" stroke-linejoin="round"/><line x1="16.7" y1="27.8" x2="33.16" y2="27.8" fill="none" stroke="#b2b5b2" stroke-linecap="round" stroke-linejoin="round"/><line x1="16.7" y1="23.05" x2="27.05" y2="23.05" fill="none" stroke="#b2b5b2" stroke-linecap="round" stroke-linejoin="round"/><line x1="16.7" y1="42.06" x2="29.68" y2="42.06" fill="none" stroke="#b2b5b2" stroke-linecap="round" stroke-linejoin="round"/><line x1="16.7" y1="37.31" x2="34.78" y2="37.31" fill="none" stroke="#b2b5b2" stroke-linecap="round" stroke-linejoin="round"/><line x1="16.7" y1="32.55" x2="37.13" y2="32.55" fill="none" stroke="#b2b5b2" stroke-linecap="round" stroke-linejoin="round"/><line x1="16.7" y1="46.82" x2="29.96" y2="46.82" fill="none" stroke="#b2b5b2" stroke-linecap="round" stroke-linejoin="round"/><line x1="16.7" y1="51.57" x2="43.53" y2="51.57" fill="none" stroke="#b2b5b2" stroke-linecap="round" stroke-linejoin="round"/><line x1="16.7" y1="56.32" x2="29.96" y2="56.32" fill="none" stroke="#b2b5b2" stroke-linecap="round" stroke-linejoin="round"/><path d="M58.78,50.11l14-13-14-13v8.34s-21.66.29-21.66,13.54c8.64-7.34,23.41-3.44,21.66-4.13Z" fill="#c396d7" stroke="#414141" stroke-linecap="round" stroke-linejoin="round" stroke-width="2.5"/></symbol></defs><title>02_ReportsExportData</title><use width="75" height="75" xlink:href="#a"/></svg>