<svg xmlns="http://www.w3.org/2000/svg" xmlns:xlink="http://www.w3.org/1999/xlink" viewBox="0 0 75 75"><defs><symbol id="a" viewBox="0 0 75 75"><rect width="75" height="75" fill="none"/><path d="M49.79,11.62c2-.76,7-.74,7.89,4.07,1.27,6.74-7.51,10.56.51,15.39.11.07-8.14-1.65-9-4.58" fill="#ffd232" stroke="#414141" stroke-linecap="round" stroke-linejoin="round" stroke-width="2.5"/><path d="M33.76,36.3s-9.27,3.06-13.25,4.57a7.88,7.88,0,0,0-5.09,7.37V58.36H59.58l-.05-10.13a7.89,7.89,0,0,0-5.08-7.37L41,36.55" fill="#7dd796" stroke="#414141" stroke-linecap="round" stroke-linejoin="round" stroke-width="2.5"/><polygon points="37.48 36.04 43.23 36.04 40.35 41.44 37.48 46.83 34.6 41.44 31.73 36.04 37.48 36.04" fill="#fff" stroke="#414141" stroke-linecap="round" stroke-linejoin="round"/><path d="M49.58,21.53c0,.2,0,.4,0,.6A16.1,16.1,0,0,1,45,32.63,17.45,17.45,0,0,1,40.88,36a7.47,7.47,0,0,1-3.41,1.12A7.47,7.47,0,0,1,34.07,36a17.49,17.49,0,0,1-4.14-3.37,16.34,16.34,0,0,1-4.57-12S31.26,7.13,38.16,7.12C47.95,7.12,49.58,21.53,49.58,21.53Z" fill="#fff" stroke="#414141" stroke-linecap="round" stroke-linejoin="round" stroke-width="2.5"/><path d="M48.67,20c-.61-1.64-1.53-3.39-3.26-4.05-2-.76-4.2.13-5.94,1.08a28.6,28.6,0,0,1-8.86,3.11,45.32,45.32,0,0,1-5.93.44S23.7,5.44,37.53,5.44s12.72,16.7,12.72,16.7A10.76,10.76,0,0,1,48.67,20Z" fill="#ffd232" stroke="#414141" stroke-linecap="round" stroke-linejoin="round" stroke-width="2.5"/><path d="M41.66,15.28c3.33-1.28,5-4.91,2.75-7.12" fill="none" stroke="#414141" stroke-linecap="round" stroke-linejoin="round"/><rect x="26.53" y="43.9" width="21.88" height="25.29" rx="1.75" ry="1.75" fill="#f7f8f7"/><path d="M46.65,45.15a.51.51,0,0,1,.5.5V67.44a.51.51,0,0,1-.5.5H28.28a.51.51,0,0,1-.5-.5V45.65a.51.51,0,0,1,.5-.5H46.65m0-2.5H28.28a3,3,0,0,0-3,3V67.44a3,3,0,0,0,3,3H46.65a3,3,0,0,0,3-3V45.65a3,3,0,0,0-3-3Z" fill="#414141"/><circle cx="37.42" cy="44.16" r="3.24" fill="#fff" stroke="#414141" stroke-miterlimit="10" stroke-width="2.5"/><path d="M37.13,57.86V52.41a5.44,5.44,0,1,0,5.44,5.44Z" fill="#ff8278"/><path d="M38.34,51.2h0v5.44h5.44A5.44,5.44,0,0,0,38.34,51.2Z" fill="#70cbf6"/></symbol></defs><title>02_ReportsCanvasserStatistics</title><use width="75" height="75" xlink:href="#a"/></svg>