<svg xmlns="http://www.w3.org/2000/svg" xmlns:xlink="http://www.w3.org/1999/xlink" viewBox="0 0 75 75"><defs><symbol id="a" viewBox="0 0 75 75"><rect width="75" height="75" fill="none"/><path d="M28.68,34.61l0,6.08A74.38,74.38,0,0,0,19,43.42a8.61,8.61,0,0,0-5.56,8.05v8.62H61.59V51.46A8.61,8.61,0,0,0,56,43.41l-9.67-2.72-.05-5.82" fill="#ececec" stroke="#414141" stroke-linecap="round" stroke-linejoin="round" stroke-width="2.5"/><path d="M50.72,23.41c0,.22,0,.43,0,.65,0,3.83-1.82,8-5,11.47a19.05,19.05,0,0,1-4.52,3.68,8.16,8.16,0,0,1-3.72,1.23,8.16,8.16,0,0,1-3.72-1.23,19.1,19.1,0,0,1-4.52-3.68,17.85,17.85,0,0,1-5-13.1s6.45-14.75,14-14.76C48.94,7.67,50.72,23.41,50.72,23.41Z" fill="#fff" stroke="#414141" stroke-linecap="round" stroke-linejoin="round" stroke-width="2.5"/><polyline points="27.93 40.44 34.73 46.28 37.41 41.2 40.33 46.28 47.13 40.44" fill="none" stroke="#414141" stroke-linecap="round" stroke-linejoin="round"/><path d="M49.73,21.75c-.66-1.79-1.68-3.7-3.57-4.43-2.16-.83-4.58.14-6.48,1.18A31.24,31.24,0,0,1,30,21.9a49.49,49.49,0,0,1-6.48.48s-1.08-16.54,14-16.54,13.9,18.24,13.9,18.24A11.75,11.75,0,0,1,49.73,21.75Z" fill="#ebbea5" stroke="#414141" stroke-linecap="round" stroke-linejoin="round" stroke-width="2.5"/><path d="M42.07,16.59c3.64-1.4,5.41-5.36,3-7.78" fill="none" stroke="#414141" stroke-linecap="round" stroke-linejoin="round"/><path d="M32.62,59.79H31.27v7.45a1.6,1.6,0,0,1-1.61,1.6H26.42a1.6,1.6,0,0,1-1.61-1.6V59.79H23.36" fill="#ffd232" stroke="#414141" stroke-linecap="round" stroke-linejoin="round" stroke-width="2.5" fill-rule="evenodd"/><path d="M51.64,59.79H50.29v7.45a1.6,1.6,0,0,1-1.61,1.6H45.44a1.6,1.6,0,0,1-1.61-1.6V59.79H42.38" fill="#ffd232" stroke="#414141" stroke-linecap="round" stroke-linejoin="round" stroke-width="2.5" fill-rule="evenodd"/><path d="M42.71,59.79H41.19V67a1.8,1.8,0,0,1-1.81,1.8H35.74A1.8,1.8,0,0,1,33.93,67V59.79H32.29" fill="#ffd232" stroke="#414141" stroke-linecap="round" stroke-linejoin="round" stroke-width="2.5" fill-rule="evenodd"/><path d="M31.27,59.79h0v7.45a1.6,1.6,0,0,1-1.61,1.6H26.42a1.6,1.6,0,0,1-1.61-1.6V59.79H23.36V53.17a3.07,3.07,0,0,1,3.09-3.06h3.09a3.07,3.07,0,0,1,3.09,3.06v6.61Z" fill="#ffd232" stroke="#414141" stroke-linecap="round" stroke-linejoin="round" fill-rule="evenodd"/><ellipse cx="27.9" cy="47.21" rx="2.72" ry="2.7" fill="#ffd232" stroke="#414141" stroke-linecap="round" stroke-linejoin="round"/><line x1="27.99" y1="68.84" x2="27.99" y2="59.79" fill="#ffd232" stroke="#414141" stroke-linecap="round" stroke-linejoin="round"/><path d="M50.29,59.79h0v7.45a1.6,1.6,0,0,1-1.61,1.6H45.44a1.6,1.6,0,0,1-1.61-1.6V59.79H42.38V53.17a3.07,3.07,0,0,1,3.09-3.06h3.09a3.07,3.07,0,0,1,3.09,3.06v6.61Z" fill="#ffd232" stroke="#414141" stroke-linecap="round" stroke-linejoin="round" fill-rule="evenodd"/><ellipse cx="46.92" cy="47.21" rx="2.72" ry="2.7" fill="#ffd232" stroke="#414141" stroke-linecap="round" stroke-linejoin="round"/><line x1="47.01" y1="68.84" x2="47.01" y2="59.79" fill="#ffd232" stroke="#414141" stroke-linecap="round" stroke-linejoin="round"/><path d="M41.19,59.79h0V67a1.8,1.8,0,0,1-1.81,1.8H35.74A1.8,1.8,0,0,1,33.93,67V59.79H32.29V51.22a3.46,3.46,0,0,1,3.47-3.44h3.47a3.46,3.46,0,0,1,3.47,3.44v8.57Z" fill="#ffd232" stroke="#414141" stroke-linecap="round" stroke-linejoin="round" fill-rule="evenodd"/><ellipse cx="37.4" cy="44.51" rx="3.06" ry="3.04" fill="#ffd232" stroke="#414141" stroke-linecap="round" stroke-linejoin="round"/><line x1="37.5" y1="68.84" x2="37.5" y2="59.79" fill="#ffd232" stroke="#414141" stroke-linecap="round" stroke-linejoin="round"/></symbol></defs><title>02_ReportsSupervisorStatistics</title><use width="75" height="75" xlink:href="#a"/></svg>