<svg xmlns="http://www.w3.org/2000/svg" xmlns:xlink="http://www.w3.org/1999/xlink" viewBox="0 0 76.86 75"><defs><symbol id="a" viewBox="0 0 76.86 75"><rect width="75" height="75" fill="none"/><path d="M8.9,63.75A1.87,1.87,0,0,1,7,61.88V25.19a1.88,1.88,0,0,1,.55-1.33L19.77,11.79a1.86,1.86,0,0,1,1.32-.54h25A1.87,1.87,0,0,1,48,13.12V61.88a1.87,1.87,0,0,1-1.87,1.87Z" fill="#f7f8f7"/><path d="M46.12,12.5a.62.62,0,0,1,.62.62V61.88a.62.62,0,0,1-.62.62H8.9a.62.62,0,0,1-.62-.62V25.19a.62.62,0,0,1,.18-.44L20.65,12.68a.61.61,0,0,1,.44-.18h25m0-2.5h-25a3.12,3.12,0,0,0-2.2.9L6.7,23a3.12,3.12,0,0,0-.92,2.22V61.88A3.12,3.12,0,0,0,8.9,65H46.12a3.12,3.12,0,0,0,3.12-3.12V13.12A3.12,3.12,0,0,0,46.12,10Z" fill="#414141"/><polygon points="8.01 24.82 20.72 24.82 20.72 12.12 8.01 24.82" fill="#ffd232" stroke="#414141" stroke-linecap="round" stroke-linejoin="round"/><path d="M18.87,36.93v5.41H13.46a5.41,5.41,0,1,0,5.41-5.41Z" fill="#ff8278"/><path d="M17.67,35.73a5.41,5.41,0,0,0-5.41,5.41h5.41V35.73Z" fill="#70cbf6"/><line x1="40.74" y1="18.29" x2="34.26" y2="18.29" fill="none" stroke="#b2b5b2" stroke-linecap="round" stroke-linejoin="round"/><line x1="40.74" y1="27.8" x2="24.28" y2="27.8" fill="none" stroke="#b2b5b2" stroke-linecap="round" stroke-linejoin="round"/><line x1="40.74" y1="23.05" x2="24.28" y2="23.05" fill="none" stroke="#b2b5b2" stroke-linecap="round" stroke-linejoin="round"/><line x1="40.74" y1="42.06" x2="27.77" y2="42.06" fill="none" stroke="#b2b5b2" stroke-linecap="round" stroke-linejoin="round"/><line x1="40.74" y1="37.31" x2="27.77" y2="37.31" fill="none" stroke="#b2b5b2" stroke-linecap="round" stroke-linejoin="round"/><line x1="40.74" y1="32.55" x2="13.23" y2="32.55" fill="none" stroke="#b2b5b2" stroke-linecap="round" stroke-linejoin="round"/><line x1="40.74" y1="46.82" x2="27.49" y2="46.82" fill="none" stroke="#b2b5b2" stroke-linecap="round" stroke-linejoin="round"/><line x1="40.74" y1="51.57" x2="13.91" y2="51.57" fill="none" stroke="#b2b5b2" stroke-linecap="round" stroke-linejoin="round"/><line x1="40.74" y1="56.32" x2="27.49" y2="56.32" fill="none" stroke="#b2b5b2" stroke-linecap="round" stroke-linejoin="round"/><path d="M73.87,63.26h0c-2.06,2.06-5.09,2.34-6.69.61L51.34,46.76l6-6L74.48,56.56C76.21,58.16,75.93,61.19,73.87,63.26Z" fill="#f7f7f7" stroke="#414141" stroke-miterlimit="10" stroke-width="2.5"/><circle cx="46.86" cy="35.88" r="18.08" fill="#f7f7f7" stroke="#414141" stroke-miterlimit="10" stroke-width="2.5"/><line x1="54.26" y1="42.39" x2="54.26" y2="30.66" fill="none" stroke="#ff8278" stroke-linecap="round" stroke-linejoin="round" stroke-width="2.5"/><line x1="47.28" y1="42.39" x2="47.28" y2="33.18" fill="none" stroke="#ff8c00" stroke-linecap="round" stroke-linejoin="round" stroke-width="2.5"/><line x1="40.31" y1="42.39" x2="40.31" y2="28.45" fill="none" stroke="#32be5a" stroke-linecap="round" stroke-linejoin="round" stroke-width="2.5"/></symbol></defs><title>02_ReportsDetailedProjectOverview</title><use width="76.86" height="75" xlink:href="#a"/></svg>