<svg xmlns="http://www.w3.org/2000/svg" xmlns:xlink="http://www.w3.org/1999/xlink" viewBox="0 0 75 75"><defs><symbol id="a" viewBox="0 0 75 75"><rect width="75" height="75" fill="none"/><path d="M63.41,16.7a5.22,5.22,0,0,0-5.2-5.2H22a5.22,5.22,0,0,0-5.2,5.2v39H12.45v2.6a5.22,5.22,0,0,0,5.2,5.2H50.59a5.22,5.22,0,0,0,5.2-5.2V37.5h7.63Z" fill="#f7f8f7"/><path d="M49.72,62.79c-1.91,0-3.7-1.24-3.7-4.77V55.74H12.61s-2.08,7.76,4.25,7.76" fill="#e0e2e0" stroke="#414141" stroke-linecap="round" stroke-linejoin="round"/><path d="M57.87,12.39c-1.86,0-3.63,1.23-3.63,5.28,0,.08,0,19.83,0,19.83h8.32V17S62.36,12.39,57.87,12.39Z" fill="#e0e2e0" stroke="#414141" stroke-miterlimit="10"/><path d="M62.55,16.7c0-2.86-1.3-5.2-4.16-5.2H21.12a5.22,5.22,0,0,0-5.2,5.2v39H11.59v2.6a5.22,5.22,0,0,0,5.2,5.2H49.72a5.22,5.22,0,0,0,5.2-5.2V37.5h7.63Z" fill="none" stroke="#414141" stroke-linecap="round" stroke-linejoin="round" stroke-width="2.5"/><line x1="23.11" y1="18.3" x2="36.76" y2="18.3" fill="none" stroke="#b2b5b2" stroke-linecap="round" stroke-linejoin="round"/><line x1="23.11" y1="26.09" x2="39.86" y2="26.09" fill="none" stroke="#b2b5b2" stroke-linecap="round" stroke-linejoin="round"/><line x1="23.11" y1="22.19" x2="35.46" y2="22.19" fill="none" stroke="#b2b5b2" stroke-linecap="round" stroke-linejoin="round"/><line x1="23.11" y1="37.76" x2="27.06" y2="37.76" fill="none" stroke="#b2b5b2" stroke-linecap="round" stroke-linejoin="round"/><line x1="23.11" y1="33.87" x2="32.85" y2="33.87" fill="none" stroke="#b2b5b2" stroke-linecap="round" stroke-linejoin="round"/><line x1="23.11" y1="29.98" x2="28.2" y2="29.98" fill="none" stroke="#b2b5b2" stroke-linecap="round" stroke-linejoin="round"/><line x1="23.11" y1="41.65" x2="32.85" y2="41.65" fill="none" stroke="#b2b5b2" stroke-linecap="round" stroke-linejoin="round"/><line x1="23.11" y1="45.54" x2="28.89" y2="45.54" fill="none" stroke="#b2b5b2" stroke-linecap="round" stroke-linejoin="round"/><line x1="41.81" y1="45.54" x2="47.58" y2="45.54" fill="none" stroke="#b2b5b2" stroke-linecap="round" stroke-linejoin="round"/><line x1="47.58" y1="18.3" x2="35.8" y2="18.3" fill="none" stroke="#b2b5b2" stroke-linecap="round" stroke-linejoin="round"/><line x1="47.58" y1="26.09" x2="43.04" y2="26.09" fill="none" stroke="#b2b5b2" stroke-linecap="round" stroke-linejoin="round"/><line x1="47.58" y1="22.19" x2="38.5" y2="22.19" fill="none" stroke="#b2b5b2" stroke-linecap="round" stroke-linejoin="round"/><line x1="47.58" y1="37.76" x2="30.2" y2="37.76" fill="none" stroke="#b2b5b2" stroke-linecap="round" stroke-linejoin="round"/><line x1="47.58" y1="33.87" x2="36.67" y2="33.87" fill="none" stroke="#b2b5b2" stroke-linecap="round" stroke-linejoin="round"/><line x1="47.58" y1="29.98" x2="40.85" y2="29.98" fill="none" stroke="#b2b5b2" stroke-linecap="round" stroke-linejoin="round"/><line x1="37.3" y1="29.98" x2="31.48" y2="29.98" fill="none" stroke="#b2b5b2" stroke-linecap="round" stroke-linejoin="round"/><line x1="47.58" y1="41.65" x2="35.94" y2="41.65" fill="none" stroke="#b2b5b2" stroke-linecap="round" stroke-linejoin="round"/><line x1="38.46" y1="45.54" x2="32.71" y2="45.54" fill="none" stroke="#b2b5b2" stroke-linecap="round" stroke-linejoin="round"/><line x1="47.58" y1="49.43" x2="45.06" y2="49.43" fill="none" stroke="#b2b5b2" stroke-linecap="round" stroke-linejoin="round"/><line x1="23.11" y1="49.43" x2="42.12" y2="49.43" fill="none" stroke="#b2b5b2" stroke-linecap="round" stroke-linejoin="round"/></symbol></defs><title>02_ReportsClerkFileTurnover</title><use width="75" height="75" xlink:href="#a"/></svg>