<svg xmlns="http://www.w3.org/2000/svg" xmlns:xlink="http://www.w3.org/1999/xlink" viewBox="0 0 75 75"><defs><symbol id="a" viewBox="0 0 75 75"><rect width="75" height="75" fill="none"/><rect x="15.04" y="13.7" width="44.91" height="51.55" rx="1.75" ry="1.75" fill="#f7f8f7"/><path d="M58.21,15a.51.51,0,0,1,.5.5v48a.51.51,0,0,1-.5.5H16.79a.51.51,0,0,1-.5-.5v-48a.51.51,0,0,1,.5-.5H58.21m0-2.5H16.79a3,3,0,0,0-3,3v48a3,3,0,0,0,3,3H58.21a3,3,0,0,0,3-3v-48a3,3,0,0,0-3-3Z" fill="#414141"/><path d="M49.75,14.69v4.08A3.79,3.79,0,0,1,46,22.57H28.89a3.79,3.79,0,0,1-3.79-3.79V14.69" fill="#ffd232" stroke="#414141" stroke-miterlimit="10"/><circle cx="37.42" cy="13.29" r="3.79" fill="#fff" stroke="#414141" stroke-miterlimit="10" stroke-width="2.5"/><line x1="37.5" y1="54.62" x2="24.75" y2="54.62" fill="none" stroke="#64b4f5" stroke-linecap="round" stroke-linejoin="round" stroke-width="2.5"/><line x1="37.5" y1="43.6" x2="24.75" y2="43.6" fill="none" stroke="#64b4f5" stroke-linecap="round" stroke-linejoin="round" stroke-width="2.5"/><line x1="37.5" y1="32.57" x2="24.75" y2="32.57" fill="none" stroke="#64b4f5" stroke-linecap="round" stroke-linejoin="round" stroke-width="2.5"/><polyline points="43.27 31.44 45.63 33.81 50.37 29.07" fill="none" stroke="#32be5a" stroke-linecap="round" stroke-linejoin="round" stroke-width="2.5"/><polyline points="43.27 41.87 45.63 44.24 50.37 39.5" fill="none" stroke="#32be5a" stroke-linecap="round" stroke-linejoin="round" stroke-width="2.5"/><line x1="44.45" y1="56.99" x2="49.19" y2="52.25" fill="none" stroke="#ff8278" stroke-linecap="round" stroke-linejoin="round" stroke-width="2.5"/><line x1="49.19" y1="56.99" x2="44.45" y2="52.25" fill="none" stroke="#ff8278" stroke-linecap="round" stroke-linejoin="round" stroke-width="2.5"/></symbol></defs><title>02_ReportsCompletionReport</title><use width="75" height="75" xlink:href="#a"/></svg>