<svg xmlns="http://www.w3.org/2000/svg" xmlns:xlink="http://www.w3.org/1999/xlink" viewBox="0 0 75 75"><defs><symbol id="a" viewBox="0 0 75 75"><rect width="75" height="75" fill="none"/><g opacity="0"><rect x="11.86" y="10.32" width="37.13" height="42.67" rx="1.75" ry="1.75" fill="#969696"/><path d="M47.24,11.57a.51.51,0,0,1,.5.5V51.24a.51.51,0,0,1-.5.5H13.61a.51.51,0,0,1-.5-.5V12.07a.51.51,0,0,1,.5-.5H47.24m0-2.5H13.61a3,3,0,0,0-3,3V51.24a3,3,0,0,0,3,3H47.24a3,3,0,0,0,3-3V12.07a3,3,0,0,0-3-3Z" fill="#414141"/><path d="M40.66,12v2.69a3.17,3.17,0,0,1-3.17,3.17H23.23a3.17,3.17,0,0,1-3.17-3.17V12" fill="#7a7a7a" stroke="#414141" stroke-miterlimit="10"/><circle cx="30.36" cy="9.78" r="3.17" fill="#bcbcbc" stroke="#414141" stroke-miterlimit="10" stroke-width="2.5"/><rect x="18.86" y="17.32" width="37.13" height="42.67" rx="1.75" ry="1.75" fill="#bcbcbc"/><path d="M54.24,18.57a.51.51,0,0,1,.5.5V58.24a.51.51,0,0,1-.5.5H20.61a.51.51,0,0,1-.5-.5V19.07a.51.51,0,0,1,.5-.5H54.24m0-2.5H20.61a3,3,0,0,0-3,3V58.24a3,3,0,0,0,3,3H54.24a3,3,0,0,0,3-3V19.07a3,3,0,0,0-3-3Z" fill="#414141"/><path d="M47.66,19v2.69a3.17,3.17,0,0,1-3.17,3.17H30.23a3.17,3.17,0,0,1-3.17-3.17V19" fill="#a9a9a9" stroke="#414141" stroke-miterlimit="10"/><circle cx="37.36" cy="16.78" r="3.17" fill="#bcbcbc" stroke="#414141" stroke-miterlimit="10" stroke-width="2.5"/><rect x="26.12" y="24.58" width="37.13" height="42.67" rx="1.75" ry="1.75" fill="#f7f8f7"/><path d="M61.5,25.83a.51.51,0,0,1,.5.5V65.5a.51.51,0,0,1-.5.5H27.87a.51.51,0,0,1-.5-.5V26.33a.51.51,0,0,1,.5-.5H61.5m0-2.5H27.87a3,3,0,0,0-3,3V65.5a3,3,0,0,0,3,3H61.5a3,3,0,0,0,3-3V26.33a3,3,0,0,0-3-3Z" fill="#414141"/><path d="M37.49,58.37a1.83,1.83,0,0,1-1.56,2,1.83,1.83,0,0,1-1.56-2V54.28a1.83,1.83,0,0,1,1.56-2,1.83,1.83,0,0,1,1.56,2Z" fill="#64b4f5"/><path d="M42.7,58.37a1.83,1.83,0,0,1-1.56,2,1.83,1.83,0,0,1-1.56-2V49a1.83,1.83,0,0,1,1.56-2,1.83,1.83,0,0,1,1.56,2Z" fill="#64b4f5"/><path d="M48.14,58.37a1.83,1.83,0,0,1-1.56,2,1.83,1.83,0,0,1-1.56-2v-6.7a1.83,1.83,0,0,1,1.56-2,1.83,1.83,0,0,1,1.56,2Z" fill="#64b4f5"/><path d="M53.27,58.37a1.61,1.61,0,1,1-3.12,0V46.53a1.61,1.61,0,1,1,3.12,0Z" fill="#64b4f5"/><polyline points="35.93 45.31 41.14 39.87 46.59 42.85 51.71 37.39" fill="none" stroke="#ff8c00" stroke-miterlimit="10"/><circle cx="35.93" cy="45.31" r="1.56" fill="#ff8c00"/><circle cx="41.14" cy="39.87" r="1.56" fill="#ff8c00"/><circle cx="46.59" cy="42.85" r="1.56" fill="#ff8c00"/><circle cx="51.71" cy="37.39" r="1.56" fill="#ff8c00"/><path d="M54.92,26.25v2.69a3.17,3.17,0,0,1-3.17,3.17H37.48a3.17,3.17,0,0,1-3.17-3.17V26.25" fill="#d9d9d9" stroke="#414141" stroke-miterlimit="10"/><circle cx="44.62" cy="24.03" r="3.17" fill="#fff" stroke="#414141" stroke-miterlimit="10" stroke-width="2.5"/></g><rect x="11.25" y="10" width="37.5" height="42.5" rx="1.75" ry="1.75" fill="#f7f8f7"/><path d="M47,11.25a.51.51,0,0,1,.5.5v39a.51.51,0,0,1-.5.5H13a.51.51,0,0,1-.5-.5v-39a.51.51,0,0,1,.5-.5H47m0-2.5H13a3,3,0,0,0-3,3v39a3,3,0,0,0,3,3H47a3,3,0,0,0,3-3v-39a3,3,0,0,0-3-3Z" fill="#d9d9d9"/><path d="M23,43.75c0,1.1-.68,2-1.5,2s-1.5-.9-1.5-2v-4c0-1.1.68-2,1.5-2s1.5.9,1.5,2Z" fill="#64b4f5"/><path d="M28,43.75c0,1.1-.68,2-1.5,2s-1.5-.9-1.5-2v-9c0-1.1.68-2,1.5-2s1.5.9,1.5,2Z" fill="#64b4f5"/><path d="M34,43.75c0,1.1-.67,2-1.5,2s-1.5-.9-1.5-2v-7c0-1.1.68-2,1.5-2s1.5.9,1.5,2Z" fill="#64b4f5"/><path d="M39,43.75c0,1.1-.67,2-1.5,2s-1.5-.9-1.5-2v-12c0-1.1.67-2,1.5-2s1.5.9,1.5,2Z" fill="#64b4f5"/><polyline points="21.42 30.85 26.63 25.41 32.08 28.39 37.2 22.93" fill="none" stroke="#ff8c00" stroke-miterlimit="10"/><circle cx="21.5" cy="31.25" r="1.5" fill="#ff8c00"/><circle cx="26.5" cy="25.25" r="1.5" fill="#ff8c00"/><circle cx="32.5" cy="28.25" r="1.5" fill="#ff8c00"/><circle cx="37.5" cy="23.25" r="1.5" fill="#ff8c00"/><path d="M40.5,11.75v2.33a3.17,3.17,0,0,1-3.17,3.17H22.67a3.17,3.17,0,0,1-3.17-3.17V11.75" fill="#ececec" stroke="#d9d9d9" stroke-miterlimit="10"/><circle cx="30.5" cy="9.25" r="3" fill="#fff" stroke="#d9d9d9" stroke-miterlimit="10" stroke-width="2.5"/><rect x="18.25" y="17" width="37.5" height="42.5" rx="1.75" ry="1.75" fill="#f7f8f7"/><path d="M54,18.25a.51.51,0,0,1,.5.5v39a.51.51,0,0,1-.5.5H20a.51.51,0,0,1-.5-.5v-39a.51.51,0,0,1,.5-.5H54m0-2.5H20a3,3,0,0,0-3,3v39a3,3,0,0,0,3,3H54a3,3,0,0,0,3-3v-39a3,3,0,0,0-3-3Z" fill="#a0a0a0"/><path d="M30,50.75c0,1.1-.68,2-1.5,2s-1.5-.9-1.5-2v-4c0-1.1.68-2,1.5-2s1.5.9,1.5,2Z" fill="#64b4f5"/><path d="M35,50.75c0,1.1-.67,2-1.5,2s-1.5-.9-1.5-2v-9c0-1.1.67-2,1.5-2s1.5.9,1.5,2Z" fill="#64b4f5"/><path d="M41,50.75c0,1.1-.67,2-1.5,2s-1.5-.9-1.5-2v-7c0-1.1.67-2,1.5-2s1.5.9,1.5,2Z" fill="#64b4f5"/><path d="M46,50.75c0,1.1-.67,2-1.5,2s-1.5-.9-1.5-2v-12c0-1.1.67-2,1.5-2s1.5.9,1.5,2Z" fill="#64b4f5"/><polyline points="28.53 37.96 33.74 32.52 39.18 35.49 44.31 30.04" fill="none" stroke="#ff8c00" stroke-miterlimit="10"/><circle cx="28.5" cy="38.25" r="1.5" fill="#ff8c00"/><circle cx="33.5" cy="32.25" r="1.5" fill="#ff8c00"/><circle cx="39.5" cy="35.25" r="1.5" fill="#ff8c00"/><circle cx="44.5" cy="30.25" r="1.5" fill="#ff8c00"/><path d="M47.5,19.75v2.33a3.17,3.17,0,0,1-3.17,3.17H29.67a3.17,3.17,0,0,1-3.17-3.17V19.75" fill="#d9d9d9" stroke="#a0a0a0" stroke-miterlimit="10"/><circle cx="37.5" cy="16.25" r="3" fill="#fff" stroke="#a0a0a0" stroke-miterlimit="10" stroke-width="2.5"/><rect x="26.25" y="25" width="37.5" height="42.5" rx="1.75" ry="1.75" fill="#f7f8f7"/><path d="M62,26.25a.51.51,0,0,1,.5.5v39a.51.51,0,0,1-.5.5H28a.51.51,0,0,1-.5-.5v-39a.51.51,0,0,1,.5-.5H62m0-2.5H28a3,3,0,0,0-3,3v39a3,3,0,0,0,3,3H62a3,3,0,0,0,3-3v-39a3,3,0,0,0-3-3Z" fill="#414141"/><path d="M37,57.75c0,1.1-.67,2-1.5,2s-1.5-.9-1.5-2v-4c0-1.1.67-2,1.5-2s1.5.9,1.5,2Z" fill="#64b4f5"/><path d="M42,57.75c0,1.1-.67,2-1.5,2s-1.5-.9-1.5-2v-9c0-1.1.67-2,1.5-2s1.5.9,1.5,2Z" fill="#64b4f5"/><path d="M48,58.75c0,1.1-.67,2-1.5,2s-1.5-.9-1.5-2v-7c0-1.1.67-2,1.5-2s1.5.9,1.5,2Z" fill="#64b4f5"/><path d="M53,58.75c0,1.1-.67,2-1.5,2s-1.5-.9-1.5-2v-12c0-1.1.67-2,1.5-2s1.5.9,1.5,2Z" fill="#64b4f5"/><polyline points="35.79 45.21 40.99 39.77 46.44 42.75 51.57 37.29" fill="none" stroke="#ff8c00" stroke-miterlimit="10"/><circle cx="35.5" cy="45.25" r="1.5" fill="#ff8c00"/><circle cx="40.5" cy="40.25" r="1.5" fill="#ff8c00"/><circle cx="46.5" cy="43.25" r="1.5" fill="#ff8c00"/><circle cx="51.5" cy="37.25" r="1.5" fill="#ff8c00"/><path d="M54.5,26.75v2.33a3.17,3.17,0,0,1-3.17,3.17H36.67a3.17,3.17,0,0,1-3.17-3.17V26.75" fill="#d9d9d9" stroke="#414141" stroke-miterlimit="10"/><circle cx="44.5" cy="24.25" r="3" fill="#fff" stroke="#414141" stroke-miterlimit="10" stroke-width="2.5"/></symbol></defs><title>02_ReportsMultipleProgramSumamry</title><use width="75" height="75" xlink:href="#a"/></svg>