<svg xmlns="http://www.w3.org/2000/svg" xmlns:xlink="http://www.w3.org/1999/xlink" viewBox="0 0 75 75"><defs><symbol id="a" viewBox="0 0 75 75"><rect width="75" height="75" fill="none"/><path d="M13.33,59.85A1.81,1.81,0,0,1,11.52,58V10.19a1.81,1.81,0,0,1,1.81-1.81H37.9a1.8,1.8,0,0,1,1.27.52l12,11.85A1.82,1.82,0,0,1,51.67,22V58a1.81,1.81,0,0,1-1.81,1.81Z" fill="#f7f8f7"/><path d="M37.9,9.63a.55.55,0,0,1,.39.16l12,11.85a.56.56,0,0,1,.17.4V58a.56.56,0,0,1-.56.56H13.33a.56.56,0,0,1-.56-.56V10.19a.56.56,0,0,1,.56-.56H37.9m0-2.5H13.33a3.06,3.06,0,0,0-3.06,3.06V58a3.06,3.06,0,0,0,3.06,3.06H49.86A3.06,3.06,0,0,0,52.92,58V22A3.06,3.06,0,0,0,52,19.87L40.06,8a3.06,3.06,0,0,0-2.15-.89Z" fill="#414141"/><polygon points="50.73 21.67 38.26 21.67 38.26 9.21 50.73 21.67" fill="#ffd232" stroke="#414141" stroke-linecap="round" stroke-linejoin="round"/><line x1="18.61" y1="15.27" x2="31.77" y2="15.27" fill="none" stroke="#b2b5b2" stroke-linecap="round" stroke-linejoin="round"/><line x1="18.61" y1="24.6" x2="34.76" y2="24.6" fill="none" stroke="#b2b5b2" stroke-linecap="round" stroke-linejoin="round"/><line x1="18.61" y1="19.93" x2="28.76" y2="19.93" fill="none" stroke="#b2b5b2" stroke-linecap="round" stroke-linejoin="round"/><line x1="18.61" y1="38.59" x2="31.35" y2="38.59" fill="none" stroke="#b2b5b2" stroke-linecap="round" stroke-linejoin="round"/><line x1="18.61" y1="33.93" x2="36.35" y2="33.93" fill="none" stroke="#b2b5b2" stroke-linecap="round" stroke-linejoin="round"/><line x1="18.61" y1="29.26" x2="38.65" y2="29.26" fill="none" stroke="#b2b5b2" stroke-linecap="round" stroke-linejoin="round"/><line x1="18.61" y1="43.26" x2="31.61" y2="43.26" fill="none" stroke="#b2b5b2" stroke-linecap="round" stroke-linejoin="round"/><line x1="18.61" y1="47.92" x2="44.94" y2="47.92" fill="none" stroke="#b2b5b2" stroke-linecap="round" stroke-linejoin="round"/><line x1="18.61" y1="52.59" x2="31.61" y2="52.59" fill="none" stroke="#b2b5b2" stroke-linecap="round" stroke-linejoin="round"/><path d="M48.73,67.62a5.44,5.44,0,0,1-2.84-1.49,11.09,11.09,0,0,0-2.43-1.55,11.66,11.66,0,0,0-2.91-.65,5.46,5.46,0,0,1-3-.92,5.46,5.46,0,0,1-.92-3A11.66,11.66,0,0,0,36,57.13a11.09,11.09,0,0,0-1.55-2.43A5.44,5.44,0,0,1,33,51.87,5.44,5.44,0,0,1,34.47,49,11.09,11.09,0,0,0,36,46.61a11.66,11.66,0,0,0,.65-2.91,5.46,5.46,0,0,1,.92-3,5.46,5.46,0,0,1,3-.92,11.66,11.66,0,0,0,2.91-.65,11.09,11.09,0,0,0,2.43-1.55,5.44,5.44,0,0,1,2.84-1.49,5.44,5.44,0,0,1,2.84,1.49A11.09,11.09,0,0,0,54,39.16a11.66,11.66,0,0,0,2.91.65,5.46,5.46,0,0,1,3,.92,5.46,5.46,0,0,1,.92,3,11.66,11.66,0,0,0,.65,2.91A11.09,11.09,0,0,0,63,49a5.44,5.44,0,0,1,1.49,2.84A5.44,5.44,0,0,1,63,54.7a11.09,11.09,0,0,0-1.55,2.43A11.66,11.66,0,0,0,60.78,60a5.46,5.46,0,0,1-.92,3,5.46,5.46,0,0,1-3,.92,11.66,11.66,0,0,0-2.91.65,11.09,11.09,0,0,0-2.43,1.55A5.44,5.44,0,0,1,48.73,67.62Z" fill="#7dd796"/><path d="M48.73,37.37A5.45,5.45,0,0,1,50.8,38.6a12.22,12.22,0,0,0,2.71,1.72,12.8,12.8,0,0,0,3.22.74,5.8,5.8,0,0,1,2.25.56,5.79,5.79,0,0,1,.56,2.25,12.79,12.79,0,0,0,.74,3.22A12.21,12.21,0,0,0,62,49.8a5.45,5.45,0,0,1,1.23,2.07A5.45,5.45,0,0,1,62,53.94a12.2,12.2,0,0,0-1.72,2.71,12.79,12.79,0,0,0-.74,3.22A5.79,5.79,0,0,1,59,62.12a5.79,5.79,0,0,1-2.25.56,12.81,12.81,0,0,0-3.22.74,12.24,12.24,0,0,0-2.71,1.72,5.44,5.44,0,0,1-2.07,1.23,5.45,5.45,0,0,1-2.07-1.23,12.22,12.22,0,0,0-2.71-1.72,12.81,12.81,0,0,0-3.22-.74,5.79,5.79,0,0,1-2.25-.56,5.79,5.79,0,0,1-.56-2.25,12.81,12.81,0,0,0-.74-3.22,12.24,12.24,0,0,0-1.72-2.71,5.44,5.44,0,0,1-1.23-2.07,5.45,5.45,0,0,1,1.23-2.07,12.21,12.21,0,0,0,1.72-2.71,12.78,12.78,0,0,0,.74-3.22,5.78,5.78,0,0,1,.56-2.25,5.8,5.8,0,0,1,2.25-.56,12.79,12.79,0,0,0,3.22-.74,12.19,12.19,0,0,0,2.71-1.72,5.45,5.45,0,0,1,2.07-1.23m0-2.5c-2.17,0-3.85,2.36-5.74,3.14s-4.81.37-6.28,1.84-1,4.32-1.84,6.28-3.14,3.57-3.14,5.74,2.36,3.85,3.14,5.74.37,4.81,1.84,6.28,4.32,1,6.28,1.84,3.57,3.14,5.74,3.14,3.85-2.36,5.74-3.14,4.81-.37,6.28-1.84,1-4.32,1.84-6.28,3.14-3.57,3.14-5.74S63.37,48,62.59,46.13s-.37-4.81-1.84-6.28-4.32-1-6.28-1.84-3.57-3.14-5.74-3.14Z" fill="#414141"/><polyline points="42.52 52.59 46.32 56.39 55.92 46.79" fill="none" stroke="#fff" stroke-linecap="round" stroke-linejoin="round" stroke-width="2.5"/></symbol></defs><title>02_ReportsVerificationStatistics</title><use width="75" height="75" xlink:href="#a"/></svg>