<svg xmlns="http://www.w3.org/2000/svg" viewBox="0 0 534.95 1089.32"><defs><style>.cls-1{fill:#fff;}</style></defs><title>Asset 1</title><g id="Layer_2" data-name="Layer 2"><g id="Layer_1-2" data-name="Layer 1"><path class="cls-1" d="M6.8,0H157.54q46.08,0,71.78,14.55T255,58.94q0,60.44-86.89,66.49v.75q42.69.38,68,17.19t25.31,48.55q0,35.13-25.49,54.4t-71.22,19.27H6.8v-.76l20.78-27.2a15.25,15.25,0,0,0,3-9.82v-190a15.31,15.31,0,0,0-3-9.83L6.8.75ZM115.22,14.73V122.78h15.49q36.64,0,36.65-58.93,0-24.18-8.69-40T132.22,7.93H121.64c-3,0-4.85.38-5.47,1.14S115.22,11.71,115.22,14.73Zm15.49,116H115.22V250.85q0,4.92,1,5.86c.62.63,2.45,1,5.47,1h11q20.4,0,29.47-16.44t9.06-48.54Q171.13,130.72,130.71,130.71Z"/><path class="cls-1" d="M331.7,173l-5.3,17c-1.5,4.53-.88,9.06,1.9,13.6l34.37,61.2v.76h-91.8v-.76l39.67-61.2a61.57,61.57,0,0,0,7.93-17L364.56,41.18c1.26-3.53,1.76-5.91,1.52-7.18s-1.4-3.15-3.41-5.67L339.63.75V0H446.17L511.9,218a112.69,112.69,0,0,0,6.8,16.25l15.49,30.6v.76h-122v-.76l13.23-28.33a14.43,14.43,0,0,0,.75-10.2L410.27,173Zm40-127.69L334,165.09h73.67Z"/><path class="cls-1" d="M133,604q-66.49,0-99.73-35.69T0,468q0-64.61,34.19-100.87T133,330.84q49.49,0,89.92,6.8V437.75h-.76l-68.38-94.82a11.73,11.73,0,0,0-4-3.78c-1.13-.5-3.72-.76-7.74-.76h-.38q-16.63,0-26.83,16.25t-14.35,44Q96.34,426.43,96.33,468q0,62.32,10.39,95.39t34.57,33.06h.38q6,0,7.74-.76a11.78,11.78,0,0,0,4-3.77l68.76-96.35h.76V597.18Q183.22,604,133,604Z"/><path class="cls-1" d="M301.28,365q35.33-34.2,99.18-34.19T499.63,365Q534.94,399.22,535,467.6T499.63,570q-35.34,34-99.17,34t-99.18-34Q266,536,266,467.6T301.28,365ZM371,566.58q8.67,29.85,29.47,29.85t29.46-29.85q8.68-29.83,8.69-99.36t-8.69-99.17q-8.69-29.66-29.46-29.66T371,368.05q-8.7,29.65-8.69,99.17T371,566.58Z"/><path class="cls-1" d="M267.48,983.21a88.64,88.64,0,0,1-88.54-88.54h46.89a41.65,41.65,0,1,0,83.29,0H356A88.64,88.64,0,0,1,267.48,983.21Z"/><circle class="cls-1" cx="267.47" cy="1063.6" r="25.72"/></g></g></svg>