<?xml version="1.0" encoding="UTF-8"?>
<svg width="7px" height="12px" viewBox="0 0 7 12" version="1.1" xmlns="http://www.w3.org/2000/svg" xmlns:xlink="http://www.w3.org/1999/xlink">
    <!-- Generator: Sketch 50.2 (55047) - http://www.bohemiancoding.com/sketch -->
    <title>ArrowRight</title>
    <desc>Created with Sketch.</desc>
    <defs></defs>
    <g id="Symbols" stroke="none" stroke-width="1" fill="none" fill-rule="evenodd">
        <g id="UI-/-FeatureTile" transform="translate(-230.000000, -329.000000)" fill="#2CB7F2" fill-rule="nonzero">
            <g id="ArrowRight">
                <g transform="translate(229.163377, 328.728266)">
                    <path d="M-0.983051505,2.74910636 L-0.983051505,2.74910636 C-1.3735758,3.13963065 -1.3735758,3.77279563 -0.983051505,4.16331992 L3.83252222,8.97889364 C4.22304651,9.36941794 4.85621149,9.36941794 5.24673578,8.97889364 C5.25799062,8.96763881 5.26897513,8.95611688 5.27967995,8.94433768 L9.62608534,4.16170812 C9.9975249,3.75298926 9.96730407,3.12054591 9.55858522,2.74910636 L9.55858522,2.74910636 C9.14986637,2.3776668 8.51742302,2.40788763 8.14598346,2.81660648 L5.21048916,6.04671977 C4.8390496,6.45543862 4.20660625,6.48565945 3.7978874,6.1142199 C3.7861082,6.10351508 3.77458627,6.09253056 3.76333143,6.08127573 L0.431162057,2.74910636 C0.0406377655,2.35858206 -0.592527213,2.35858206 -0.983051505,2.74910636 Z" transform="translate(4.305048, 5.864000) rotate(-90.000000) translate(-4.305048, -5.864000) "></path>
                </g>
            </g>
        </g>
    </g>
</svg>