<?xml version="1.0" encoding="UTF-8"?>
<svg width="20px" height="19px" viewBox="0 0 20 19" version="1.1" xmlns="http://www.w3.org/2000/svg" xmlns:xlink="http://www.w3.org/1999/xlink">
    <!-- Generator: Sketch 50.2 (55047) - http://www.bohemiancoding.com/sketch -->
    <title>call</title>
    <desc>Created with Sketch.</desc>
    <defs>
        <polygon id="path-1" points="0 0.0470369535 0 18.7233236 18.6491941 18.7233236 18.6491941 0.0470369535"></polygon>
    </defs>
    <g id="Symbols" stroke="none" stroke-width="1" fill="none" fill-rule="evenodd">
        <g id="UI-/FeatureDropdown" transform="translate(-11.000000, -40.000000)">
            <g id="call">
                <g transform="translate(11.500000, 39.881000)">
                    <mask id="mask-2" fill="white">
                        <use xlink:href="#path-1"></use>
                    </mask>
                    <g id="Clip-2"></g>
                    <path d="M14.7466166,11.6164053 C14.364166,11.2183848 13.9030279,11.005529 13.4143465,11.005529 C12.9295084,11.005529 12.46433,11.2143444 12.0663094,11.6125621 L10.8206106,12.8541713 C10.7180259,12.7989372 10.6156384,12.7477434 10.517094,12.6965497 C10.3752395,12.6255485 10.2411207,12.5585383 10.12676,12.4875371 C8.96004441,11.7465331 7.89970744,10.7807001 6.88272999,9.53120733 C6.39000835,8.90835791 6.05894868,8.38405281 5.8185498,7.85211053 C6.14167665,7.55647755 6.44134995,7.24887144 6.73294261,6.95323845 C6.84346007,6.84296735 6.95373118,6.72865593 7.06419937,6.61818774 C7.8918239,5.79056321 7.8918239,4.71830239 7.06419937,3.89048077 L5.98789822,2.81437671 C5.86590035,2.69218175 5.73961579,2.56609428 5.62146114,2.44005609 C5.38490549,2.19561688 5.13662305,1.94329413 4.88045708,1.70673847 C4.49800654,1.32832826 4.04071159,1.12739638 3.55991382,1.12739638 C3.07891896,1.12739638 2.61393755,1.32832826 2.21976024,1.70673847 L2.2118767,1.71462202 L0.87152603,3.06674873 C0.367028347,3.57119715 0.0792789112,4.18611375 0.0161612697,4.89962395 C-0.0783427401,6.05057242 0.260600473,7.12283324 0.520806769,7.82437031 C1.15922619,9.54697442 2.11333237,11.143294 3.53626318,12.8541713 C5.26271052,14.9157186 7.34002494,16.5436216 9.71297234,17.6907269 C10.6194816,18.1203309 11.8297538,18.6288196 13.1816341,18.7154401 C13.2646084,18.7194804 13.3512289,18.7233236 13.4301136,18.7233236 C14.3407125,18.7233236 15.1053672,18.3963535 15.7045167,17.7457639 C15.7084092,17.7378803 15.7162927,17.7340371 15.7203331,17.7261536 C15.9253053,17.4778711 16.1616638,17.2530423 16.4101434,17.0126926 C16.5794918,16.8509814 16.7529298,16.681633 16.9224753,16.5041546 C17.3128094,16.0982506 17.5175845,15.6251392 17.5175845,15.1403504 C17.5175845,14.6516691 17.3087691,14.182401 16.9107485,13.7882237 L14.7466166,11.6164053 Z M16.1578206,15.7669938 C16.1537803,15.7669938 16.1537803,15.7710341 16.1578206,15.7669938 C16.0040422,15.9327454 15.8463713,16.0824835 15.6768257,16.2479887 C15.4206598,16.4924279 15.1604535,16.7485938 14.9161621,17.0363433 C14.5179445,17.462104 14.0489227,17.6630359 13.4339569,17.6630359 C13.3748795,17.6630359 13.3117619,17.6630359 13.2526846,17.6591927 C12.0820765,17.584299 10.9940486,17.1270041 10.1781508,16.7368671 C7.94705799,15.6567227 5.98789822,14.1233237 4.35999521,12.1801281 C3.01599841,10.5599608 2.1171756,9.06213633 1.52206641,7.45389291 C1.15538296,6.47248995 1.02141195,5.70758889 1.08053855,4.98639223 C1.11995628,4.52505696 1.29723752,4.14280351 1.62445396,3.81563635 L2.96864786,2.47139318 C3.16169619,2.29012089 3.36666839,2.19157656 3.56779737,2.19157656 C3.8160798,2.19157656 4.01701168,2.34151176 4.14329624,2.46754995 L4.15502301,2.479326 C4.39561899,2.70410561 4.62409401,2.93662095 4.86464071,3.18490338 C4.98688495,3.31113867 5.11297242,3.43722613 5.23901061,3.56735392 L6.31511466,4.64345797 C6.73294261,5.06128592 6.73294261,5.44757968 6.31511466,5.86540763 C6.20080324,5.97976832 6.09048287,6.09407974 5.97617145,6.20435084 C5.64511178,6.54329405 5.32967139,6.85873444 4.98688495,7.16614347 C4.9790014,7.17402702 4.97111786,7.17806734 4.96707754,7.18575379 C4.62813433,7.5248941 4.69125197,7.85595376 4.76205607,8.08053628 L4.7740292,8.11616006 C5.05384582,8.79404649 5.44802313,9.432663 6.04717264,10.1934745 L6.05106514,10.1973177 C7.13909306,11.5374713 8.28600121,12.5822382 9.55131037,13.3823196 C9.71297234,13.4849043 9.87847753,13.5676815 10.0361485,13.6463692 C10.1781508,13.7174196 10.3121218,13.7843805 10.4264333,13.8553817 C10.4422496,13.8633145 10.4580167,13.8750413 10.4737838,13.8829248 C10.6077548,13.9498857 10.7338423,13.9814691 10.8639208,13.9814691 C11.1911372,13.9814691 11.3961094,13.7764969 11.4630703,13.7095361 L12.8111567,12.3614497 C12.9452755,12.2272816 13.1581806,12.0658167 13.406463,12.0658167 C13.6509022,12.0658167 13.8518341,12.219398 13.974029,12.3535661 L16.1537803,14.5332681 C16.5598815,14.935329 16.5598815,15.3493629 16.1578206,15.7669938 Z" id="Fill-1" fill="#2CB7F2" mask="url(#mask-2)"></path>
                    <path d="M10.0796065,4.48963027 C11.1122032,4.66306829 12.0504931,5.1519467 12.7994299,5.90083431 C13.5483176,6.64972193 14.0331556,7.58781465 14.2105847,8.62060847 C14.2538949,8.88086404 14.4785267,9.06213633 14.7348898,9.06213633 C14.7662762,9.06213633 14.7939671,9.05809601 14.8255506,9.05425278 C15.1171432,9.00690223 15.3103394,8.73107666 15.2630381,8.43933618 C15.0501331,7.18979411 14.4588671,6.05057242 13.5562011,5.14790638 C12.6535351,4.24519107 11.5143134,3.65392511 10.2647713,3.44106936 C9.97317863,3.3939159 9.70124556,3.58696424 9.6498547,3.87471367 C9.59866092,4.16246311 9.78781675,4.44227973 10.0796065,4.48963027 Z" id="Fill-3" fill="#2CB7F2" mask="url(#mask-2)"></path>
                    <path d="M18.6410391,8.28550849 C18.2903691,6.22805075 17.3204959,4.35570853 15.8306042,2.86557049 C14.3407125,1.37567881 12.4683703,0.4060519 10.4106662,0.0551355511 C10.1229167,0.00394177309 9.85098367,0.201030427 9.79978989,0.488779863 C9.75243934,0.780372527 9.94548768,1.05255196 10.2372774,1.10374574 C12.074193,1.41514581 13.7494465,2.28627766 15.0817166,3.61470447 C16.4139866,4.9469745 17.2812259,6.62222806 17.5926753,8.45914359 C17.6359855,8.7191528 17.860568,8.90047436 18.1167833,8.90047436 C18.1483175,8.90047436 18.1760577,8.89663113 18.2073948,8.89259081 C18.4953413,8.84928058 18.69243,8.57325792 18.6410391,8.28550849 Z" id="Fill-4" fill="#2CB7F2" mask="url(#mask-2)"></path>
                </g>
            </g>
        </g>
    </g>
</svg>