<?xml version="1.0" encoding="UTF-8"?>
<svg width="20px" height="17px" viewBox="0 0 20 17" version="1.1" xmlns="http://www.w3.org/2000/svg" xmlns:xlink="http://www.w3.org/1999/xlink">
    <!-- Generator: Sketch 50.2 (55047) - http://www.bohemiancoding.com/sketch -->
    <title>inbox</title>
    <desc>Created with Sketch.</desc>
    <defs></defs>
    <g id="Symbols" stroke="none" stroke-width="1" fill="none" fill-rule="evenodd">
        <g id="UI-/FeatureDropdown" transform="translate(-9.000000, -73.000000)" fill="#FFFFFF" stroke="#3D3D3D">
            <g id="inbox">
                <g transform="translate(9.500000, 74.000000)">
                    <path d="M16.1042716,12.4396153 C16.1042716,13.2962526 16.7482982,14.0458247 17.7356609,14.4573199 L17.7356609,14.7872051 C15.9070473,14.751606 14.2285795,14.509953 12.6441357,13.1622775 C12.2692367,13.2028145 11.8853387,13.2240592 11.4939489,13.2240592 C9.80111817,13.2240592 8.24176516,12.829751 6.99688936,12.1670332 C9.56231231,12.1591095 11.9841946,11.4494621 13.8207876,10.1662477 C14.7465316,9.51922407 15.4769131,8.76023548 15.9915404,7.91002892 C16.5370213,7.00872039 16.813552,6.04846278 16.813552,5.05589801 C16.813552,4.89589336 16.805617,4.73680739 16.791387,4.57860183 C18.078199,5.49640844 18.8705982,6.74716254 18.8705982,8.12595865 C18.8705982,9.72589037 17.8038848,11.1534152 16.1356129,12.0881027 C16.1153541,12.2027854 16.1042716,12.3201477 16.1042716,12.4396153 Z" id="Path"></path>
                    <path d="M8.95464285,0.108203403 C13.6553545,0.108203403 17.4660079,2.77109429 17.4660079,6.05589801 C17.4660079,9.34066346 13.6553545,12.0035926 8.95464285,12.0035926 C8.50318586,12.0035926 8.06006292,11.9787498 7.62766784,11.931514 C5.7994089,13.5039234 3.68819139,13.7857689 1.57821513,13.8271864 L1.57821513,13.4424862 C2.71745248,12.9623574 3.63503969,12.0879204 3.63503969,11.0886186 C3.63503969,10.9491313 3.62240563,10.8121704 3.59904371,10.6783483 C1.67414531,9.58782855 0.443277798,7.92244037 0.443277798,6.05589801 C0.443277798,2.77109429 4.25393119,0.108203403 8.95464285,0.108203403 Z" id="speech-bubbles"></path>
                </g>
            </g>
        </g>
    </g>
</svg>