<?xml version="1.0" encoding="UTF-8"?>
<svg width="15px" height="11px" viewBox="0 0 15 11" version="1.1" xmlns="http://www.w3.org/2000/svg" xmlns:xlink="http://www.w3.org/1999/xlink">
    <!-- Generator: Sketch 50.2 (55047) - http://www.bohemiancoding.com/sketch -->
    <title>sort-button-with-three-lines</title>
    <desc>Created with Sketch.</desc>
    <defs></defs>
    <g id="Symbols" stroke="none" stroke-width="1" fill="none" fill-rule="evenodd">
        <g id="UI-/FeatureDropdown" transform="translate(-13.000000, -111.000000)" fill="#002D48">
            <g id="sort-button-with-three-lines">
                <g transform="translate(13.500000, 111.380914)">
                    <path d="M0.801,10.002 L4,10.002 C4.44238008,10.002 4.801,9.64338008 4.801,9.201 L4.801,9.201 C4.801,8.75861992 4.44238008,8.4 4,8.4 L0.801,8.4 C0.358619915,8.4 -5.41759355e-17,8.75861992 0,9.201 L0,9.201 C5.41759355e-17,9.64338008 0.358619915,10.002 0.801,10.002 Z M0.801,2.002 L13.597,2.002 C14.0393801,2.002 14.398,1.64338008 14.398,1.201 L14.398,1.201 C14.398,0.758619915 14.0393801,0.4 13.597,0.4 L0.801,0.4 C0.358619915,0.4 -5.41759355e-17,0.758619915 0,1.201 L0,1.201 C5.41759355e-17,1.64338008 0.358619915,2.002 0.801,2.002 Z M0.801,6.002 L8.801,6.002 C9.24338008,6.002 9.602,5.64338008 9.602,5.201 L9.602,5.201 C9.602,4.75861992 9.24338008,4.4 8.801,4.4 L0.801,4.4 C0.358619915,4.4 -5.41759355e-17,4.75861992 0,5.201 L0,5.201 C5.41759355e-17,5.64338008 0.358619915,6.002 0.801,6.002 Z" id="Fill-1"></path>
                </g>
            </g>
        </g>
    </g>
</svg>