<?xml version="1.0" standalone="no"?>
<!DOCTYPE svg PUBLIC "-//W3C//DTD SVG 1.1//EN" "http://www.w3.org/Graphics/SVG/1.1/DTD/svg11.dtd" >
<svg xmlns="http://www.w3.org/2000/svg">
<metadata></metadata>
<defs>
<font id="expresswaycondensed_regular" horiz-adv-x="1003" >
<font-face units-per-em="2048" ascent="1638" descent="-410" />
<missing-glyph horiz-adv-x="419" />
<glyph horiz-adv-x="0" />
<glyph horiz-adv-x="682" />
<glyph horiz-adv-x="479" />
<glyph unicode=" "  horiz-adv-x="419" />
<glyph unicode="&#x09;" horiz-adv-x="419" />
<glyph unicode="&#xa0;" horiz-adv-x="419" />
<glyph unicode="!" horiz-adv-x="391" d="M96 1442h195l-31 -1020h-133zM195 219q43 0 70.5 -32.5t27.5 -84.5q0 -51 -27.5 -83.5t-70.5 -32.5q-44 0 -71.5 32.5t-27.5 83.5q0 52 27.5 84.5t71.5 32.5z" />
<glyph unicode="&#x22;" horiz-adv-x="536" d="M311 1513h168l-28 -677h-109zM55 1513h168l-28 -677h-109z" />
<glyph unicode="#" d="M57 502h187l57 393h-188v111h204l62 411h98l-59 -411h270l60 411h100l-60 -411h156v-111h-172l-57 -393h174v-111h-191l-57 -391h-100l57 391h-270l-58 -391h-100l57 391h-170v111zM401 895l-57 -393h270l58 393h-271z" />
<glyph unicode="$" d="M455 1550h141v-202q180 -33 274 -187l-114 -112q-101 143 -248 143q-83 0 -131.5 -46t-48.5 -122q0 -92 86 -137q44 -23 148.5 -51t154.5 -54q180 -95 180 -309q0 -152 -82 -246t-219 -118v-242h-141v237q-117 11 -206 70.5t-143 149.5l123 112q115 -172 289 -172 q100 0 157.5 54.5t57.5 152.5q0 120 -96 166q-37 19 -141 48.5t-158 57.5q-82 43 -125 106.5t-43 166.5q0 136 75 227.5t210 108.5v198z" />
<glyph unicode="%" d="M782 1417h125l-684 -1417h-125zM780 750q100 0 160.5 -106t60.5 -300q0 -193 -60.5 -298t-160.5 -105t-160.5 105t-60.5 298q0 194 60.5 300t160.5 106zM780 629q-53 0 -81.5 -72.5t-28.5 -212.5t28.5 -211.5t81.5 -71.5t83 72t30 211t-30 212t-83 73zM221 1477 q100 0 160.5 -106t60.5 -300q0 -193 -60.5 -298t-160.5 -105t-160.5 105t-60.5 298q0 194 60.5 300t160.5 106zM221 1356q-53 0 -81.5 -72.5t-28.5 -212.5t28.5 -211.5t81.5 -71.5t83 72t30 211t-30 212t-83 73z" />
<glyph unicode="&#x26;" horiz-adv-x="1075" d="M778 1296l-131 -116q-44 168 -160 168q-72 0 -114.5 -60t-42.5 -153q0 -174 178 -433q90 -131 221 -272q45 140 45 309h178q-3 -257 -84 -450q97 -89 187 -156l-90 -178q-103 80 -195 170q-126 -152 -321 -152q-180 0 -285 124t-105 339q0 267 183 391q-74 169 -74 320 q0 172 83 276.5t226 104.5q112 0 188.5 -63.5t112.5 -168.5zM451 154q110 0 190 104q-125 138 -235 295q-40 53 -91 135q-86 -89 -86 -237q0 -129 60.5 -213t161.5 -84z" />
<glyph unicode="'" horiz-adv-x="278" d="M55 1513h168l-28 -677h-109z" />
<glyph unicode="(" horiz-adv-x="600" d="M426 1827h131q-272 -517 -272 -1127q0 -609 272 -1126h-131q-260 521 -260 1126q0 606 260 1127z" />
<glyph unicode=")" horiz-adv-x="600" d="M174 -426h-131q272 517 272 1126q0 610 -272 1127h131q260 -521 260 -1127q0 -605 -260 -1126z" />
<glyph unicode="*" horiz-adv-x="720" d="M47 1298l272 -120l-18 335h117l-19 -335l273 120l39 -106l-285 -86l188 -262l-96 -68l-156 281l-157 -281l-96 66l186 262l-285 84z" />
<glyph unicode="+" d="M442 1257h119v-481h359v-133h-359v-481h-119v481h-358v133h358v481z" />
<glyph unicode="," horiz-adv-x="319" d="M111 225l172 -59l-150 -453l-102 37z" />
<glyph unicode="-" horiz-adv-x="571" d="M43 750h485v-152h-485v152z" />
<glyph unicode="." horiz-adv-x="319" d="M160 219q43 0 70.5 -32.5t27.5 -84.5q0 -51 -27.5 -83.5t-70.5 -32.5t-71 32.5t-28 83.5q0 52 28 84.5t71 32.5z" />
<glyph unicode="/" horiz-adv-x="532" d="M399 1622h127l-395 -1843h-125z" />
<glyph unicode="0" horiz-adv-x="1015" d="M506 1444q182 0 293.5 -192t111.5 -545q0 -351 -111.5 -542.5t-293.5 -191.5q-180 0 -291 191.5t-111 542.5q0 352 111 544.5t291 192.5zM506 1260q-108 0 -170 -142t-62 -411q0 -268 62 -408.5t170 -140.5q110 0 173.5 140.5t63.5 408.5t-63.5 410.5t-173.5 142.5z" />
<glyph unicode="1" horiz-adv-x="491" d="M49 1264h53q48 0 72.5 37.5t30.5 115.5h160v-1417h-181v1087h-135v177z" />
<glyph unicode="2" horiz-adv-x="917" d="M211 1063l-121 131q64 122 163.5 186t219.5 64q75 0 140 -25.5t115 -75.5t79 -129t29 -180q0 -200 -123 -317q-44 -40 -160.5 -110t-167.5 -120q-65 -63 -88 -133t-23 -168h560v-186h-758v66q0 175 31 299.5t106 207.5q41 46 102.5 86.5t130.5 80t107 69.5 q60 45 88.5 95.5t28.5 123.5q0 110 -56 171t-143 61q-81 0 -148 -51.5t-112 -145.5z" />
<glyph unicode="3" horiz-adv-x="923" d="M244 1124l-97 136q66 91 152 137.5t180 46.5q66 0 123.5 -22.5t104 -68t73.5 -122t27 -176.5q0 -179 -84 -273q147 -85 147 -331q0 -220 -107.5 -349t-293.5 -129q-73 0 -134.5 20t-109.5 59t-84.5 84t-72.5 106l137 127q42 -93 115 -152t161 -59q98 0 163 71.5t65 216.5 q0 125 -55.5 176.5t-174.5 51.5h-106v178h106q81 0 125.5 43t44.5 147q0 113 -50 165.5t-124 52.5q-67 0 -128.5 -37t-102.5 -99z" />
<glyph unicode="4" horiz-adv-x="950" d="M610 1417h168v-956h111v-168h-111v-293h-176v293h-541v184zM225 461h377v624z" />
<glyph unicode="5" horiz-adv-x="983" d="M170 1417h649v-186h-504l-20 -316q102 76 231 76q169 0 269 -119t100 -360q0 -140 -35.5 -246.5t-97 -169t-136.5 -93t-161 -30.5q-74 0 -137 22t-111 63t-82 84t-67 100l137 129q40 -97 108 -154t158 -57q113 0 181.5 91.5t68.5 254.5q0 155 -61 234t-162 79 q-136 0 -224 -151l-153 53z" />
<glyph unicode="6" horiz-adv-x="980" d="M721 1417v-186q-376 -6 -438 -434q107 143 270 143q153 0 245.5 -124.5t92.5 -326.5q0 -219 -108 -367.5t-287 -148.5q-101 0 -178.5 52t-123 142.5t-68 202.5t-22.5 242q0 238 71 417.5t211.5 282.5t334.5 105zM526 778q-145 0 -256 -170q2 -206 59.5 -328t174.5 -122 q104 0 165.5 97t61.5 239q0 128 -54 206t-151 78z" />
<glyph unicode="7" horiz-adv-x="839" d="M43 1417h754v-162q-174 -276 -258.5 -571t-122.5 -684h-178q29 366 108 669.5t225 561.5h-528v186z" />
<glyph unicode="8" horiz-adv-x="901" d="M53 416q0 257 162 360q-100 97 -100 289q0 79 19 143.5t51 107.5t76 72.5t91.5 42.5t98.5 13t98.5 -13t91 -42.5t75.5 -72.5t51 -107.5t19 -143.5q0 -192 -100 -289q164 -102 164 -360q0 -200 -103.5 -321.5t-295.5 -121.5q-193 0 -295.5 121t-102.5 322zM225 426 q0 -125 63.5 -196.5t162.5 -71.5t162 71.5t63 196.5q0 123 -62 187.5t-163 64.5t-163.5 -64.5t-62.5 -187.5zM279 1049q0 -101 49.5 -153t122.5 -52t121.5 52t48.5 153q0 103 -49.5 157t-120.5 54q-72 0 -122 -54t-50 -157z" />
<glyph unicode="9" horiz-adv-x="980" d="M258 186q191 1 299.5 112.5t138.5 317.5q-107 -139 -266 -139q-156 0 -249 124.5t-93 326.5q0 142 46.5 258t138.5 187t212 71q101 0 178.5 -52t123 -142.5t68 -202.5t22.5 -242q0 -237 -71.5 -417t-212.5 -283t-335 -105v186zM453 639q145 0 256 166q-1 135 -24.5 234.5 t-76 160t-129.5 60.5q-106 0 -167.5 -96t-61.5 -236q0 -131 53.5 -210t149.5 -79z" />
<glyph unicode=":" horiz-adv-x="370" d="M186 1038q43 0 71 -32t28 -84q0 -51 -28 -84t-71 -33t-70.5 33t-27.5 84q0 52 27.5 84t70.5 32zM186 362q43 0 71 -32t28 -84q0 -51 -28 -84t-71 -33t-70.5 33t-27.5 84q0 52 27.5 84t70.5 32z" />
<glyph unicode=";" horiz-adv-x="370" d="M117 369l172 -60l-150 -452l-102 37zM186 1038q43 0 71 -32t28 -84q0 -51 -28 -84t-71 -33t-70.5 33t-27.5 84q0 52 27.5 84t70.5 32z" />
<glyph unicode="&#x3c;" d="M84 778l836 432v-141l-709 -360l709 -357v-141l-836 430v137z" />
<glyph unicode="=" d="M84 1020h836v-131h-836v131zM84 528h836v-131h-836v131z" />
<glyph unicode="&#x3e;" d="M920 643l-836 -432v141l707 359l-707 358v141l836 -430v-137z" />
<glyph unicode="?" horiz-adv-x="761" d="M147 1133l-129 116q50 105 136 168.5t211 63.5q159 0 247 -104t88 -273q0 -152 -65 -260q-23 -39 -80.5 -105t-81.5 -104q-30 -47 -38.5 -92t-8.5 -121h-158q0 177 58 278q23 39 78.5 105.5t70.5 87.5q57 85 57 190q0 98 -48.5 157.5t-133.5 59.5q-137 0 -203 -167z M338 219q43 0 70.5 -32.5t27.5 -84.5q0 -51 -27.5 -83.5t-70.5 -32.5t-70.5 32.5t-27.5 83.5q0 52 27.5 84.5t70.5 32.5z" />
<glyph unicode="@" horiz-adv-x="1204" d="M729 838h109v-490q0 -104 57 -104q60 0 92.5 92.5t32.5 243.5q0 140 -31 246.5t-85 168.5t-120.5 92.5t-144.5 30.5q-132 0 -228 -81.5t-145 -225t-49 -332.5q0 -136 26 -247.5t68.5 -185.5t100 -126t117 -77t122.5 -29l-35 -131q-82 8 -157 39.5t-144 94t-120 150.5 t-81 217t-30 285q0 187 42.5 336.5t117.5 246.5t175.5 148t217.5 51q103 0 191.5 -39.5t158.5 -117.5t110 -206.5t40 -293.5q0 -218 -69 -343.5t-187 -125.5q-112 0 -148 102q-55 -102 -149 -102q-51 0 -89.5 31.5t-61 84.5t-33.5 115.5t-11 132.5q0 95 18.5 175t64 136 t112.5 56q86 0 145 -92v74zM612 244q70 0 109 104v285q-42 106 -109 106q-112 0 -112 -247q0 -70 10 -123t36 -89t66 -36z" />
<glyph unicode="A" horiz-adv-x="1067" d="M430 1417h205l412 -1417h-203l-84 305h-455l-82 -305h-203zM530 1130l-174 -638h353z" />
<glyph unicode="B" horiz-adv-x="1026" d="M127 1417h469q158 0 249 -97.5t91 -281.5q0 -223 -139 -303q178 -89 178 -340q0 -187 -96.5 -291t-270.5 -104h-481v1417zM313 637v-449h285q197 0 197 224q0 115 -51 170t-154 55h-277zM313 1227v-418h285q77 0 121.5 54.5t44.5 156.5t-44.5 154.5t-123.5 52.5h-283z " />
<glyph unicode="C" horiz-adv-x="1075" d="M1001 1130l-139 -114q-45 118 -109.5 175.5t-156.5 57.5q-143 0 -225 -138.5t-82 -403.5q0 -264 82 -402.5t225 -138.5q84 0 147.5 52t112.5 165l141 -113q-139 -297 -403 -297q-220 0 -358 192.5t-138 543.5q0 350 138 542.5t360 192.5q146 0 246.5 -84t158.5 -230z" />
<glyph unicode="D" horiz-adv-x="1126" d="M127 1417h338q250 0 406.5 -186.5t156.5 -517.5q0 -166 -42.5 -301.5t-118 -225t-178.5 -138t-224 -48.5h-338v1417zM319 1223v-1030h146q165 0 268 134t103 382q0 249 -104 381.5t-267 132.5h-146z" />
<glyph unicode="E" horiz-adv-x="915" d="M127 1417h702v-194h-512v-404h373v-188h-373v-436h523v-195h-713v1417z" />
<glyph unicode="F" horiz-adv-x="833" d="M127 1417h670v-194h-480v-426h349v-191h-349v-606h-190v1417z" />
<glyph unicode="G" horiz-adv-x="1126" d="M627 756h411v-166q0 -282 -117 -449.5t-327 -167.5q-222 0 -359 191.5t-137 540.5q0 351 138 545t360 194q146 0 246.5 -84t158.5 -230l-139 -114q-78 233 -266 233q-143 0 -225 -139t-82 -401t82 -402.5t219 -140.5q120 0 191.5 105.5t74.5 303.5h-229v181z" />
<glyph unicode="H" horiz-adv-x="1089" d="M127 1417h190v-596h455v596h191v-1417h-191v627h-455v-627h-190v1417z" />
<glyph unicode="I" horiz-adv-x="444" d="M127 1417h190v-1417h-190v1417z" />
<glyph unicode="J" horiz-adv-x="919" d="M616 1417h191v-887q0 -244 -112.5 -393t-295.5 -149q-133 0 -235 82t-146 225l144 117q27 -115 87 -173.5t142 -58.5q104 0 164.5 93t60.5 257v887z" />
<glyph unicode="K" horiz-adv-x="1019" d="M733 1417h209l-344 -551l403 -866h-210l-310 682l-164 -262v-420h-190v1417h190v-682z" />
<glyph unicode="L" horiz-adv-x="894" d="M127 1417h190v-1222h541v-195h-731v1417z" />
<glyph unicode="M" horiz-adv-x="1302" d="M127 1417h197l340 -1038l340 1038h188v-1417h-180v905l-314 -905h-80l-313 913v-913h-178v1417z" />
<glyph unicode="N" horiz-adv-x="1095" d="M127 1417h190l484 -999v999h184v-1417h-176l-498 989v-989h-184v1417z" />
<glyph unicode="O" horiz-adv-x="1165" d="M582 1444q219 0 352 -192t133 -545q0 -351 -133 -542.5t-352 -191.5t-351.5 191t-132.5 543q0 353 132.5 545t351.5 192zM582 1249q-135 0 -214 -139.5t-79 -402.5q0 -261 79 -401t214 -140q134 0 213 140t79 401q0 262 -79 402t-213 140z" />
<glyph unicode="P" horiz-adv-x="1026" d="M127 1417h459q176 0 278.5 -114.5t102.5 -329.5q0 -216 -102.5 -330.5t-278.5 -114.5h-269v-528h-190v1417zM315 1227v-514h275q90 0 142 65.5t52 192.5q0 126 -52 191t-142 65h-275z" />
<glyph unicode="Q" horiz-adv-x="1165" d="M582 1444q219 0 352 -191.5t133 -543.5q0 -364 -145 -562l100 -172l-127 -100l-94 158q-102 -60 -219 -60q-219 0 -351.5 191t-132.5 543q0 353 132.5 545t351.5 192zM541 475l131 100l139 -241q68 142 68 375q0 260 -81 400t-216 140q-136 0 -216.5 -140t-80.5 -402 q0 -261 80.5 -402t214.5 -141q66 0 122 35z" />
<glyph unicode="R" horiz-adv-x="1042" d="M127 1417h453q172 0 273 -111.5t101 -324.5q0 -162 -60 -266.5t-167 -145.5l281 -569h-211l-258 545h-222v-545h-190v1417zM315 1227v-502h267q88 0 140 63.5t52 188.5q0 123 -52 186.5t-140 63.5h-267z" />
<glyph unicode="S" horiz-adv-x="1013" d="M47 240l141 127q126 -199 334 -199q117 0 185.5 65t68.5 175q0 132 -117 192q-43 22 -161 57.5t-181 67.5q-97 50 -146.5 124t-49.5 191q0 173 106.5 282.5t292.5 109.5q77 0 144.5 -19.5t117.5 -53t85.5 -71.5t62.5 -82l-133 -129q-44 73 -116 119.5t-165 46.5 q-99 0 -155 -52.5t-56 -141.5q0 -109 98 -164q44 -24 168.5 -58t182.5 -63q204 -101 204 -354q0 -202 -123.5 -314t-322.5 -112q-158 0 -277 70.5t-188 185.5z" />
<glyph unicode="T" horiz-adv-x="909" d="M37 1417h835v-194h-321v-1223h-191v1223h-323v194z" />
<glyph unicode="U" horiz-adv-x="1067" d="M113 1417h192v-909q0 -165 61.5 -246.5t163.5 -81.5q104 0 168 82t64 246v909h192v-909q0 -132 -32 -233.5t-90 -163t-133.5 -92.5t-166.5 -31q-188 0 -303.5 130.5t-115.5 389.5v909z" />
<glyph unicode="V" horiz-adv-x="1067" d="M20 1417h207l308 -1114l305 1114h207l-412 -1417h-203z" />
<glyph unicode="W" horiz-adv-x="1415" d="M23 1417h198l174 -1007l221 1007h185l217 -1011l178 1011h197l-275 -1417h-184l-227 1012l-234 -1012h-182z" />
<glyph unicode="X" horiz-adv-x="1034" d="M778 1417h211l-358 -674l383 -743h-228l-278 555l-268 -555h-220l383 743l-350 674h217l254 -504z" />
<glyph unicode="Y" horiz-adv-x="1024" d="M12 1417h219l283 -669l287 669h211l-406 -895v-522h-188v522z" />
<glyph unicode="Z" horiz-adv-x="944" d="M115 1417h741v-200l-541 -1022h541v-195h-764v207l549 1016h-526v194z" />
<glyph unicode="[" horiz-adv-x="600" d="M197 1827h325v-133h-207v-1987h207v-133h-325v2253z" />
<glyph unicode="\" horiz-adv-x="532" d="M6 1622h125l395 -1843h-127z" />
<glyph unicode="]" horiz-adv-x="600" d="M403 -426h-325v133h207v1987h-207v133h325v-2253z" />
<glyph unicode="^" d="M440 1417h123l307 -850h-127l-241 686l-244 -686h-125z" />
<glyph unicode="_" horiz-adv-x="841" d="M0 -145h848v-134h-848v134z" />
<glyph unicode="`" horiz-adv-x="458" d="M78 1591l125 92l180 -446l-90 -63z" />
<glyph unicode="a" horiz-adv-x="892" d="M217 840l-70 155q123 115 304 115q156 0 242.5 -97.5t86.5 -324.5v-688h-164v70q-108 -84 -235 -84q-132 0 -215.5 88.5t-83.5 259.5q0 173 88 267.5t231 94.5q108 0 205 -51v31q0 137 -44.5 193.5t-135.5 56.5q-120 0 -209 -86zM426 147q95 0 180 54v317q-75 35 -157 35 q-90 0 -144.5 -52.5t-54.5 -156.5q0 -99 48.5 -148t127.5 -49z" />
<glyph unicode="b" horiz-adv-x="933" d="M119 1446l178 67v-536q90 133 231 133q83 0 145.5 -48.5t99 -130.5t54 -180t17.5 -208q0 -111 -17.5 -209.5t-54 -181t-99 -131t-145.5 -48.5q-149 0 -241 150v-123h-168v1446zM483 932q-118 0 -186 -164v-455q65 -159 182 -159q53 0 92 31.5t61 87t32 122.5t10 148 q0 80 -10 147t-31.5 123t-59.5 87.5t-90 31.5z" />
<glyph unicode="c" horiz-adv-x="808" d="M774 885l-129 -115q-51 160 -170 160q-94 0 -153.5 -100.5t-59.5 -288.5q0 -187 58.5 -287t148.5 -100q56 0 101 40t73 111l125 -102q-15 -36 -39 -71.5t-61.5 -73.5t-92 -61.5t-116.5 -23.5q-160 0 -265.5 150.5t-105.5 419.5t108 418t277 149q111 0 188 -61.5 t113 -163.5z" />
<glyph unicode="d" horiz-adv-x="931" d="M635 1448l178 65v-1513h-168v121q-95 -148 -239 -148q-82 0 -145.5 49t-100 131.5t-54.5 181t-18 208.5q0 109 18 207t54 180.5t98.5 131t144.5 48.5q138 0 232 -133v471zM451 154q115 0 184 159v457q-71 162 -184 162q-52 0 -91 -31.5t-60.5 -87t-31.5 -123t-10 -149.5 q0 -80 10 -146t31 -122t60 -87.5t92 -31.5z" />
<glyph unicode="e" horiz-adv-x="897" d="M803 475h-549q11 -161 69.5 -243t141.5 -82q56 0 103 34t71 88l113 -108q-41 -78 -115 -134.5t-178 -56.5q-161 0 -266 149.5t-105 424.5q0 266 98.5 414.5t259.5 148.5q162 0 261.5 -149t99.5 -420q0 -43 -4 -66zM449 934q-79 0 -132 -82.5t-63 -230.5h387 q-10 152 -61.5 232.5t-130.5 80.5z" />
<glyph unicode="f" horiz-adv-x="491" d="M463 1509v-159q-35 10 -70 10q-42 0 -64 -26.5t-22 -92.5v-158h152v-159h-152v-924h-178v924h-98v159h98v189q0 144 56 198t163 54q72 0 115 -15z" />
<glyph unicode="g" horiz-adv-x="931" d="M645 1083h168v-876q0 -289 -107.5 -430.5t-357.5 -202.5l-20 174q175 54 246 145t71 285q-94 -133 -239 -133q-83 0 -146.5 46t-99.5 124t-54 169.5t-18 193.5t18 193.5t54 169t99.5 123.5t146.5 46q144 0 239 -135v108zM451 215q123 0 194 166v387q-71 166 -194 166 q-69 0 -114 -53.5t-62 -130.5t-17 -175q0 -73 10 -134.5t31.5 -113.5t60.5 -82t91 -30z" />
<glyph unicode="h" horiz-adv-x="935" d="M119 1448l178 65v-532q91 129 244 129q133 0 207.5 -103t74.5 -321v-686h-178v666q0 260 -162 260q-130 0 -186 -172v-754h-178v1448z" />
<glyph unicode="i" horiz-adv-x="415" d="M119 1083h178v-1083h-178v1083zM207 1497q43 0 70.5 -32.5t27.5 -84.5q0 -51 -27.5 -83.5t-70.5 -32.5t-70.5 32.5t-27.5 83.5q0 52 27.5 84.5t70.5 32.5z" />
<glyph unicode="j" horiz-adv-x="438" d="M141 1083h178v-1204q0 -61 -8 -108t-20.5 -79t-35.5 -54t-46 -34.5t-60 -19.5t-68.5 -8.5t-80.5 -1.5v176q81 0 111 30.5t30 119.5v1183zM231 1497q43 0 71 -32.5t28 -84.5q0 -51 -28 -83.5t-71 -32.5t-70.5 32.5t-27.5 83.5q0 52 27.5 84.5t70.5 32.5z" />
<glyph unicode="k" horiz-adv-x="870" d="M616 1083h191l-279 -421l324 -662h-190l-240 500l-125 -189v-311h-178v1448l178 65v-921z" />
<glyph unicode="l" horiz-adv-x="415" d="M119 1448l178 65v-1513h-178v1448z" />
<glyph unicode="m" horiz-adv-x="1427" d="M119 1083h168v-114q90 141 243 141q176 0 240 -184q93 184 268 184q129 0 202 -103.5t73 -320.5v-686h-176v666q0 260 -156 260q-123 0 -178 -174v-752h-172v666q0 260 -160 260q-119 0 -174 -168v-758h-178v1083z" />
<glyph unicode="n" horiz-adv-x="935" d="M119 1083h168v-118q92 145 252 145q134 0 209 -103t75 -321v-686h-178v666q0 260 -162 260q-130 0 -186 -172v-754h-178v1083z" />
<glyph unicode="o" horiz-adv-x="897" d="M446 1110q163 0 262 -149t99 -420t-98.5 -419.5t-259.5 -148.5q-163 0 -262 148.5t-99 421.5q0 271 98.5 419t259.5 148zM449 930q-88 0 -139.5 -100.5t-51.5 -286.5q0 -187 51.5 -288t139.5 -101q87 0 138.5 100.5t51.5 286.5q0 188 -51.5 288.5t-138.5 100.5z" />
<glyph unicode="p" horiz-adv-x="933" d="M119 1083h168v-122q92 149 239 149q83 0 146.5 -48.5t99.5 -130.5t54 -180t18 -208t-17.5 -208.5t-54 -181t-99.5 -131.5t-145 -49q-141 0 -231 133v-466l-178 -66v1509zM481 932q-114 0 -184 -160v-457q67 -161 186 -161q52 0 90 31.5t59.5 87.5t31.5 123t10 147 q0 108 -17 191.5t-62 140.5t-114 57z" />
<glyph unicode="q" horiz-adv-x="931" d="M645 1083h168v-1423l-178 -68v514q-94 -133 -232 -133q-82 0 -144.5 49t-98.5 131.5t-54 181t-18 208.5t18 208t54.5 180t99.5 130.5t146 48.5q145 0 239 -147v120zM451 154q115 0 184 159v459q-70 160 -184 160q-53 0 -92 -31.5t-60 -87.5t-31 -123t-10 -147 q0 -81 10 -148.5t31.5 -123t60.5 -86.5t91 -31z" />
<glyph unicode="r" horiz-adv-x="684" d="M659 1044l-65 -172q-40 54 -115 54q-62 0 -106.5 -39t-75.5 -135v-752h-178v1083h168v-114q87 141 227 141q90 0 145 -66z" />
<glyph unicode="s" horiz-adv-x="759" d="M700 967l-63 -168q-48 60 -114.5 98.5t-135.5 38.5q-68 0 -104.5 -37t-36.5 -94q0 -74 69 -115q26 -15 130 -55t151 -70q65 -41 95 -102t30 -152t-29 -158.5t-78.5 -105.5t-107 -56t-123.5 -18q-109 0 -201 44.5t-141 109.5l70 164q45 -57 118 -97t152 -40q76 0 124 41.5 t48 115.5q0 46 -21.5 74.5t-70.5 54.5q-32 17 -129.5 53.5t-138.5 65.5q-117 80 -117 240q0 145 89.5 228t227.5 83q98 0 177.5 -41t129.5 -102z" />
<glyph unicode="t" horiz-adv-x="540" d="M31 1083h98v293l178 64v-357h201v-159h-201v-615q0 -131 92 -131q67 0 115 66l-29 -178q-23 -34 -68.5 -55t-92.5 -21q-84 0 -139.5 71.5t-55.5 204.5v658h-98v159z" />
<glyph unicode="u" horiz-adv-x="935" d="M113 1083h178v-682q0 -123 44.5 -183t119.5 -60q127 0 184 172v753h178v-1083h-168v119q-93 -146 -252 -146q-131 0 -207.5 99.5t-76.5 296.5v714z" />
<glyph unicode="v" horiz-adv-x="837" d="M18 1083h181l221 -813l219 813h180l-313 -1083h-172z" />
<glyph unicode="w" horiz-adv-x="1110" d="M23 1083h167l125 -731l170 731h140l168 -733l129 733h165l-208 -1083h-154l-172 762l-174 -762h-154z" />
<glyph unicode="x" horiz-adv-x="880" d="M627 1083h192l-278 -491l319 -592h-196l-224 440l-225 -440h-197l324 594l-268 489h192l183 -350z" />
<glyph unicode="y" horiz-adv-x="851" d="M18 1083h183l219 -776l235 776h179l-449 -1464h-176l125 412z" />
<glyph unicode="z" horiz-adv-x="839" d="M111 1083h641v-163l-455 -760h463v-160h-672v168l463 756h-440v159z" />
<glyph unicode="{" horiz-adv-x="600" d="M522 1812v-135q-26 15 -63 15q-18 0 -32 -5t-25 -19t-19 -30t-13.5 -45.5t-9.5 -58.5t-6.5 -77t-4 -91t-3.5 -111q-8 -284 -29.5 -393.5t-91.5 -163.5q22 -17 39 -40t29 -47t20.5 -64.5t13.5 -73.5t9 -94t5.5 -107t4.5 -131q2 -68 3.5 -111t4 -91t6.5 -76.5t9.5 -58.5 t13.5 -46t19 -29.5t25 -18.5t32 -5q41 0 63 16v-135q-22 -12 -71 -12q-50 0 -86 15t-59.5 54.5t-37.5 77t-22 115.5t-11 135.5t-6 169.5q-8 308 -30.5 403t-112.5 95h-31v121h31q90 0 112.5 94t30.5 403q3 111 6 166.5t10.5 135t21 117t36.5 78t58.5 56t84.5 15.5 q47 0 76 -13z" />
<glyph unicode="|" d="M440 1622h121v-1843h-121v1843z" />
<glyph unicode="}" horiz-adv-x="600" d="M78 -414v135q24 -14 63 -14q18 0 32 5t25 18.5t19 29.5t13.5 46t9.5 58.5t6.5 76.5t4 91t3.5 111q8 284 29.5 393.5t91.5 163.5q-22 17 -39 40t-29 47t-20.5 64.5t-13.5 73.5t-9 94t-5.5 107t-4.5 131q-2 68 -3.5 111t-4 91t-6.5 77t-9.5 58.5t-13.5 45.5t-19 30t-25 19 t-32 5q-39 0 -63 -17v135q23 13 72 13q50 0 86 -15t59.5 -54.5t37.5 -77t21.5 -116.5t10.5 -135.5t6 -169.5q8 -308 30.5 -402.5t112.5 -94.5h31v-121h-31q-89 0 -112 -94t-31 -404q-3 -111 -6 -166.5t-10.5 -134.5t-21 -116.5t-36.5 -78t-58.5 -56t-84.5 -15.5t-76 12z" />
<glyph unicode="~" d="M182 571l-96 74q72 219 221 219q47 0 92 -20t79.5 -48.5t67 -57t70 -48.5t74.5 -20q98 0 133 168l95 -74q-32 -112 -92.5 -168.5t-133.5 -56.5q-56 0 -111 30.5t-92.5 66.5t-85 66.5t-90.5 30.5q-92 0 -131 -162z" />
<glyph unicode="&#xa1;" horiz-adv-x="391" d="M295 -279h-195l31 1020h133zM197 944q-43 0 -71 32.5t-28 84.5q0 51 28 84t71 33q44 0 71 -33t27 -84q0 -53 -27 -85t-71 -32z" />
<glyph unicode="&#xa2;" d="M465 1550h143v-200q98 -18 167.5 -86t111.5 -174l-121 -101q-69 199 -225 199q-122 0 -191 -118t-69 -343q0 -224 68.5 -340.5t189.5 -116.5q150 0 225 183l119 -99q-100 -210 -275 -245v-242h-143v242q-160 32 -255 191t-95 427t95 428.5t255 192.5v202z" />
<glyph unicode="&#xa3;" d="M125 772h149v256q0 205 82 310.5t226 105.5q218 0 299 -250l-107 -121q-24 95 -65 141t-111 46q-80 0 -112.5 -58.5t-32.5 -181.5v-248h323v-113h-323v-204q0 -181 -64 -269h492v-186h-758v162q80 19 115.5 86t35.5 213v198h-149v113z" />
<glyph unicode="&#xa4;" horiz-adv-x="954" d="M123 1176l127 -140q101 88 227 88q122 0 225 -90l132 142l90 -84l-140 -152q66 -109 66 -233q0 -127 -66 -236l140 -149l-90 -84l-132 139q-102 -86 -225 -86q-126 0 -225 86l-129 -139l-90 84l139 149q-66 106 -66 236q0 126 66 235l-139 150zM475 999 q-106 0 -181 -86.5t-75 -207.5q0 -123 75 -208t181 -85q107 0 183.5 86t76.5 207q0 120 -76.5 207t-183.5 87z" />
<glyph unicode="&#xa5;" d="M84 350h330v223h-330v134h276l-319 710h203l260 -620l262 620h197l-320 -710h275v-134h-328v-223h328v-133h-328v-217h-176v217h-330v133z" />
<glyph unicode="&#xa6;" d="M442 1622h119v-758h-119v758zM442 537h119v-758h-119v758z" />
<glyph unicode="&#xa7;" horiz-adv-x="831" d="M750 1257l-111 -108q-89 135 -225 135q-73 0 -117.5 -39t-44.5 -108q0 -54 28.5 -90.5t74 -56.5t100.5 -37.5t110 -41t100.5 -57.5t74 -96.5t28.5 -149.5q0 -181 -113 -280q111 -86 111 -254q0 -157 -92 -243.5t-246 -86.5q-126 0 -217 57t-148 144l115 108 q106 -153 256 -153q88 0 137.5 46t49.5 124q0 45 -17.5 79t-47.5 55.5t-69 38t-82 31.5t-85.5 32t-81.5 43t-69 60.5t-47.5 88.5t-17.5 123q0 181 113 270q-111 83 -111 237q0 143 83.5 229.5t230.5 86.5q118 0 200 -54.5t130 -132.5zM618 592q0 48 -15.5 84.5t-37.5 59 t-62.5 41t-74 28t-88.5 22.5q-86 -77 -86 -200q0 -34 6.5 -61.5t16.5 -46.5t27.5 -35t33 -26t41 -19.5t44.5 -15t48.5 -14t48.5 -14.5q98 70 98 197z" />
<glyph unicode="&#xa8;" horiz-adv-x="690" d="M524 1497q43 0 71 -32.5t28 -84.5q0 -51 -28 -83.5t-71 -32.5t-70.5 32.5t-27.5 83.5q0 52 27.5 84.5t70.5 32.5zM166 1497q43 0 70.5 -32.5t27.5 -84.5q0 -51 -27.5 -83.5t-70.5 -32.5t-70.5 32.5t-27.5 83.5q0 52 27.5 84.5t70.5 32.5z" />
<glyph unicode="&#xa9;" horiz-adv-x="1269" d="M635 1444q154 0 277 -97t191 -265t68 -373t-68 -373t-191 -265.5t-277 -97.5q-155 0 -278 97.5t-191 265.5t-68 373t68 373t191 265t278 97zM635 1333q-126 0 -226.5 -82.5t-156 -225t-55.5 -316.5q0 -175 55.5 -317.5t156 -225t226.5 -82.5t226.5 82.5t156 225 t55.5 317.5q0 174 -55.5 316.5t-156 225t-226.5 82.5zM897 969l-82 -68q-53 137 -156 137q-85 0 -132.5 -81t-47.5 -238q0 -155 47.5 -235.5t132.5 -80.5q97 0 152 127l84 -67q-82 -174 -238 -174q-129 0 -209.5 113t-80.5 319q0 205 81 318.5t211 113.5q163 0 238 -184z " />
<glyph unicode="&#xaa;" horiz-adv-x="714" d="M201 1235l-51 121q88 88 221 88q115 0 179 -74t64 -246v-522h-125v47q-78 -59 -167 -59q-98 0 -160 67.5t-62 196.5q0 132 65.5 204t170.5 72q80 0 145 -36v20q0 106 -31 148.5t-96 42.5q-86 0 -153 -70zM354 713q66 0 127 37v245q-58 25 -110 25q-65 0 -104.5 -39.5 t-39.5 -120.5q0 -74 35 -110.5t92 -36.5z" />
<glyph unicode="&#xab;" horiz-adv-x="634" d="M483 1083h125l-194 -540l194 -543h-125l-194 543zM219 1083h125l-194 -540l194 -543h-125l-194 543z" />
<glyph unicode="&#xac;" d="M84 811h836v-811h-119v678h-717v133z" />
<glyph unicode="&#xad;" horiz-adv-x="571" d="M43 750h485v-152h-485v152z" />
<glyph unicode="&#xae;" horiz-adv-x="1269" d="M635 1444q154 0 277 -97t191 -265t68 -373t-68 -373t-191 -265.5t-277 -97.5q-155 0 -278 97.5t-191 265.5t-68 373t68 373t191 265t278 97zM635 1333q-126 0 -226.5 -82.5t-156 -225t-55.5 -316.5q0 -175 55.5 -317.5t156 -225t226.5 -82.5t226.5 82.5t156 225 t55.5 317.5q0 174 -55.5 316.5t-156 225t-226.5 82.5zM416 1137h266q101 0 160 -66t59 -190q0 -95 -35 -156.5t-98 -85.5l166 -334h-125l-152 320h-129v-320h-112v832zM526 1024v-293h158q51 0 82 37.5t31 110.5q0 72 -30.5 108.5t-82.5 36.5h-158z" />
<glyph unicode="&#xaf;" horiz-adv-x="800" d="M68 1483h665v-137h-665v137z" />
<glyph unicode="&#xb0;" horiz-adv-x="671" d="M336 1430q101 0 175.5 -74.5t74.5 -177.5q0 -102 -74 -175t-176 -73q-103 0 -176.5 72.5t-73.5 175.5t73.5 177.5t176.5 74.5zM336 1333q-66 0 -108 -42t-42 -113q0 -72 42 -112t108 -40q67 0 109 40t42 112q0 71 -42.5 113t-108.5 42z" />
<glyph unicode="&#xb1;" horiz-adv-x="966" d="M424 1401h119v-481h358v-134h-358v-481h-119v481h-358v134h358v481zM66 168h835v-133h-835v133z" />
<glyph unicode="&#xb2;" horiz-adv-x="587" d="M166 1208l-74 80q72 144 219 144q89 0 139 -58t50 -166q0 -115 -70 -182q-24 -24 -83.5 -63.5t-88.5 -69.5q-51 -51 -51 -135h293v-121h-418q0 128 17.5 198.5t60.5 120.5q35 41 105.5 87t74.5 49q51 42 51 110q0 56 -25 82.5t-65 26.5q-81 0 -135 -103z" />
<glyph unicode="&#xb3;" horiz-adv-x="587" d="M178 1237l-57 92q80 103 184 103q78 0 131 -55t53 -163q0 -96 -45 -147q76 -53 76 -186q0 -121 -59 -189.5t-162 -68.5q-142 0 -221 147l78 88q22 -57 61.5 -86t85.5 -29q53 0 84 35t31 103q0 63 -28 89.5t-85 26.5h-59v119h55q48 0 70 19t22 71q0 54 -25.5 79.5 t-66.5 25.5q-73 0 -123 -74z" />
<glyph unicode="&#xb4;" horiz-adv-x="458" d="M258 1683l125 -92l-215 -417l-90 63z" />
<glyph unicode="&#xb6;" horiz-adv-x="968" d="M287 1513h555v-1941h-101v1831h-241v-1831h-101v1417h-112q-99 0 -158 68.5t-59 195.5q0 126 59 193t158 67z" />
<glyph unicode="&#xb7;" horiz-adv-x="319" d="M160 784q43 0 70.5 -32t27.5 -84q0 -51 -27.5 -84t-70.5 -33t-71 33t-28 84q0 52 28 84t71 32z" />
<glyph unicode="&#xb8;" horiz-adv-x="350" d="M125 -39l141 -39l-92 -371l-96 27z" />
<glyph unicode="&#xb9;" horiz-adv-x="413" d="M66 1296h63q32 0 47.5 29.5t18.5 91.5h96v-780h-115v543h-110v116z" />
<glyph unicode="&#xba;" horiz-adv-x="716" d="M358 1444q118 0 190.5 -112t72.5 -320q0 -206 -72 -318t-191 -112q-120 0 -193 112.5t-73 317.5q0 207 73 319.5t193 112.5zM358 1307q-64 0 -100.5 -75.5t-36.5 -219.5q0 -142 36.5 -217.5t100.5 -75.5q62 0 99 76t37 217q0 142 -37 218.5t-99 76.5z" />
<glyph unicode="&#xbb;" horiz-adv-x="634" d="M289 1083h125l194 -540l-194 -543h-125l194 543zM25 1083h125l194 -540l-194 -543h-125l194 543z" />
<glyph unicode="&#xbc;" d="M733 1417h125l-684 -1417h-125zM29 1296h63q32 0 47.5 29.5t18.5 91.5h96v-780h-115v543h-110v116zM817 780h98v-510h60v-102h-60v-168h-104v168h-289v111zM629 270h182v301z" />
<glyph unicode="&#xbd;" d="M707 1417h124l-684 -1417h-124zM18 1296h64q32 0 47 29t18 92h97v-780h-115v543h-111v116zM651 571l-73 80q72 144 219 144q89 0 138.5 -58t49.5 -166q0 -115 -70 -182q-24 -24 -83.5 -63.5t-88.5 -69.5q-51 -51 -51 -135h293v-121h-418q0 128 17.5 198.5t60.5 120.5 q35 41 105.5 87t74.5 49q52 42 52 110q0 56 -25.5 82.5t-65.5 26.5q-81 0 -135 -103z" />
<glyph unicode="&#xbe;" d="M842 1417h125l-684 -1417h-125zM846 780h98v-510h60v-102h-60v-168h-104v168h-289v111zM657 270h183v301zM100 1237l-57 92q80 103 184 103q78 0 131.5 -55.5t53.5 -162.5q0 -96 -45 -147q75 -53 75 -186q0 -121 -59 -189.5t-162 -68.5q-142 0 -221 147l78 88 q22 -57 61.5 -86t85.5 -29q53 0 84 35t31 103q0 63 -28 89.5t-85 26.5h-59v119h55q48 0 70 19t22 71q0 54 -25.5 79.5t-66.5 25.5q-73 0 -123 -74z" />
<glyph unicode="&#xbf;" horiz-adv-x="761" d="M604 27l129 -117q-111 -232 -346 -232q-159 0 -247.5 104t-88.5 273q0 150 66 260q23 39 80.5 105t81.5 104q30 47 38.5 92t8.5 121h157q0 -179 -57 -278q-23 -39 -79 -105t-71 -88q-57 -85 -57 -190q0 -98 48.5 -157.5t133.5 -59.5q137 0 203 168zM414 940 q-43 0 -71 32.5t-28 84.5q0 51 28 84t71 33t70.5 -33t27.5 -84q0 -52 -27.5 -84.5t-70.5 -32.5z" />
<glyph unicode="&#xc0;" horiz-adv-x="1067" d="M430 1417h205l412 -1417h-203l-84 305h-455l-82 -305h-203zM530 1130l-174 -638h353zM336 1917l125 92l180 -446l-90 -64z" />
<glyph unicode="&#xc1;" horiz-adv-x="1067" d="M430 1417h205l412 -1417h-203l-84 305h-455l-82 -305h-203zM530 1130l-174 -638h353zM606 2009l125 -92l-215 -418l-90 64z" />
<glyph unicode="&#xc2;" horiz-adv-x="1067" d="M430 1417h205l412 -1417h-203l-84 305h-455l-82 -305h-203zM530 1130l-174 -638h353zM477 2009h111l241 -403l-79 -88l-218 294l-215 -294l-81 88z" />
<glyph unicode="&#xc3;" horiz-adv-x="1067" d="M430 1417h205l412 -1417h-203l-84 305h-455l-82 -305h-203zM530 1130l-174 -638h353zM287 1620l-84 92q66 162 188 162q42 0 83 -20.5t68.5 -45t61.5 -45t64 -20.5q39 0 66 31.5t48 95.5l84 -90q-34 -85 -83 -126.5t-107 -41.5q-41 0 -82 20.5t-69.5 45t-64 45 t-65.5 20.5q-69 0 -108 -123z" />
<glyph unicode="&#xc4;" horiz-adv-x="1067" d="M430 1417h205l412 -1417h-203l-84 305h-455l-82 -305h-203zM530 1130l-174 -638h353zM711 1823q43 0 70.5 -32.5t27.5 -84.5q0 -51 -27.5 -84t-70.5 -33t-71 33t-28 84q0 52 28 84.5t71 32.5zM352 1823q43 0 71 -32.5t28 -84.5q0 -51 -28 -84t-71 -33t-70.5 33t-27.5 84 q0 52 27.5 84.5t70.5 32.5z" />
<glyph unicode="&#xc5;" horiz-adv-x="1067" d="M430 1417h205l412 -1417h-203l-84 305h-455l-82 -305h-203zM530 1130l-174 -638h353zM532 1964q98 0 161 -65t63 -162q0 -98 -63 -163t-161 -65q-97 0 -160 65t-63 163q0 97 62.5 162t160.5 65zM532 1876q-59 0 -92.5 -38.5t-33.5 -100.5q0 -64 34 -103t92 -39t92.5 39 t34.5 103q0 62 -33.5 100.5t-93.5 38.5z" />
<glyph unicode="&#xc6;" horiz-adv-x="1454" d="M430 1417h938v-194h-512v-404h371v-188h-371v-436h522v-195h-712v305h-361l-82 -305h-203zM666 1223h-113l-197 -731h310v731z" />
<glyph unicode="&#xc7;" horiz-adv-x="1075" d="M1001 1130l-139 -114q-45 118 -109.5 175.5t-156.5 57.5q-143 0 -225 -138.5t-82 -403.5q0 -264 82 -402.5t225 -138.5q84 0 147.5 52t112.5 165l141 -113q-139 -297 -403 -297q-220 0 -358 192.5t-138 543.5q0 350 138 542.5t360 192.5q146 0 246.5 -84t158.5 -230z M508 -39l141 -39l-92 -371l-96 27z" />
<glyph unicode="&#xc8;" horiz-adv-x="915" d="M127 1417h702v-194h-512v-404h373v-188h-373v-436h523v-195h-713v1417zM291 1917l125 92l180 -446l-90 -64z" />
<glyph unicode="&#xc9;" horiz-adv-x="915" d="M127 1417h702v-194h-512v-404h373v-188h-373v-436h523v-195h-713v1417zM561 2009l125 -92l-215 -418l-90 64z" />
<glyph unicode="&#xca;" horiz-adv-x="915" d="M127 1417h702v-194h-512v-404h373v-188h-373v-436h523v-195h-713v1417zM432 2009h111l241 -403l-79 -88l-218 294l-215 -294l-82 88z" />
<glyph unicode="&#xcb;" horiz-adv-x="915" d="M127 1417h702v-194h-512v-404h373v-188h-373v-436h523v-195h-713v1417zM666 1823q43 0 70.5 -32.5t27.5 -84.5q0 -51 -27.5 -84t-70.5 -33t-71 33t-28 84q0 52 28 84.5t71 32.5zM307 1823q43 0 71 -32.5t28 -84.5q0 -51 -28 -84t-71 -33t-70.5 33t-27.5 84 q0 52 27.5 84.5t70.5 32.5z" />
<glyph unicode="&#xcc;" horiz-adv-x="450" d="M131 1417h191v-1417h-191v1417zM29 1917l125 92l180 -446l-90 -64z" />
<glyph unicode="&#xcd;" horiz-adv-x="450" d="M127 1417h190v-1417h-190v1417zM299 2009l125 -92l-215 -418l-90 64z" />
<glyph unicode="&#xce;" horiz-adv-x="561" d="M184 1417h191v-1417h-191v1417zM225 2009h111l242 -403l-80 -88l-217 294l-215 -294l-82 88z" />
<glyph unicode="&#xcf;" horiz-adv-x="509" d="M160 1417h190v-1417h-190v1417zM434 1823q43 0 70.5 -32.5t27.5 -84.5q0 -51 -27.5 -84t-70.5 -33t-70.5 33t-27.5 84q0 52 27.5 84.5t70.5 32.5zM76 1823q43 0 70.5 -32.5t27.5 -84.5q0 -51 -27.5 -84t-70.5 -33t-71 33t-28 84q0 52 28 84.5t71 32.5z" />
<glyph unicode="&#xd0;" horiz-adv-x="1126" d="M127 1417h338q250 0 406.5 -186.5t156.5 -517.5q0 -166 -42.5 -301.5t-118 -225t-178.5 -138t-224 -48.5h-338v631h-104v188h104v598zM319 1223v-404h234v-188h-234v-438h146q165 0 268 134t103 382q0 249 -104 381.5t-267 132.5h-146z" />
<glyph unicode="&#xd1;" horiz-adv-x="1095" d="M127 1417h190l484 -999v999h184v-1417h-176l-498 989v-989h-184v1417zM301 1593l-84 93q66 161 189 161q42 0 83 -20.5t68 -45t61 -45t64 -20.5q73 0 115 127l84 -90q-34 -85 -83.5 -126.5t-107.5 -41.5q-41 0 -82 20.5t-69 45t-63.5 45t-65.5 20.5q-70 0 -109 -123z" />
<glyph unicode="&#xd2;" horiz-adv-x="1165" d="M582 1444q219 0 352 -192t133 -545q0 -351 -133 -542.5t-352 -191.5t-351.5 191t-132.5 543q0 353 132.5 545t351.5 192zM582 1249q-135 0 -214 -139.5t-79 -402.5q0 -261 79 -401t214 -140q134 0 213 140t79 401q0 262 -79 402t-213 140zM385 1917l125 92l180 -446 l-90 -64z" />
<glyph unicode="&#xd3;" horiz-adv-x="1165" d="M582 1444q219 0 352 -192t133 -545q0 -351 -133 -542.5t-352 -191.5t-351.5 191t-132.5 543q0 353 132.5 545t351.5 192zM582 1249q-135 0 -214 -139.5t-79 -402.5q0 -261 79 -401t214 -140q134 0 213 140t79 401q0 262 -79 402t-213 140zM655 2009l125 -92l-215 -418 l-90 64z" />
<glyph unicode="&#xd4;" horiz-adv-x="1165" d="M582 1444q219 0 352 -192t133 -545q0 -351 -133 -542.5t-352 -191.5t-351.5 191t-132.5 543q0 353 132.5 545t351.5 192zM582 1249q-135 0 -214 -139.5t-79 -402.5q0 -261 79 -401t214 -140q134 0 213 140t79 401q0 262 -79 402t-213 140zM526 2009h111l242 -403l-80 -88 l-217 294l-215 -294l-82 88z" />
<glyph unicode="&#xd5;" horiz-adv-x="1165" d="M582 1444q219 0 352 -192t133 -545q0 -351 -133 -542.5t-352 -191.5t-351.5 191t-132.5 543q0 353 132.5 545t351.5 192zM582 1249q-135 0 -214 -139.5t-79 -402.5q0 -261 79 -401t214 -140q134 0 213 140t79 401q0 262 -79 402t-213 140zM334 1620l-84 92 q66 162 188 162q42 0 83 -20.5t68.5 -45t61.5 -45t64 -20.5q39 0 66 31.5t48 95.5l84 -90q-34 -85 -83 -126.5t-107 -41.5q-41 0 -82 20.5t-69.5 45t-64 45t-65.5 20.5q-69 0 -108 -123z" />
<glyph unicode="&#xd6;" horiz-adv-x="1165" d="M582 1444q219 0 352 -192t133 -545q0 -351 -133 -542.5t-352 -191.5t-351.5 191t-132.5 543q0 353 132.5 545t351.5 192zM582 1249q-135 0 -214 -139.5t-79 -402.5q0 -261 79 -401t214 -140q134 0 213 140t79 401q0 262 -79 402t-213 140zM762 1823q43 0 70.5 -32.5 t27.5 -84.5q0 -51 -27.5 -84t-70.5 -33t-70.5 33t-27.5 84q0 52 27.5 84.5t70.5 32.5zM403 1823q43 0 71 -32.5t28 -84.5q0 -51 -28 -84t-71 -33t-70.5 33t-27.5 84q0 52 27.5 84.5t70.5 32.5z" />
<glyph unicode="&#xd7;" d="M242 1096l260 -305l258 305l84 -82l-258 -305l258 -303l-84 -82l-258 305l-260 -305l-84 82l258 303l-258 305z" />
<glyph unicode="&#xd8;" horiz-adv-x="1165" d="M582 1444q150 0 262 -92l94 188h115l-135 -268q149 -195 149 -565q0 -351 -133 -542.5t-352 -191.5q-152 0 -267 95l-94 -191h-115l136 270q-144 197 -144 560q0 353 132.5 545t351.5 192zM874 707q0 227 -59 360l-409 -819q70 -82 176 -82q134 0 213 140t79 401z M582 1249q-135 0 -214 -139.5t-79 -402.5q0 -224 55 -355l408 817q-71 80 -170 80z" />
<glyph unicode="&#xd9;" horiz-adv-x="1067" d="M113 1417h192v-909q0 -165 61.5 -246.5t163.5 -81.5q104 0 168 82t64 246v909h192v-909q0 -132 -32 -233.5t-90 -163t-133.5 -92.5t-166.5 -31q-188 0 -303.5 130.5t-115.5 389.5v909zM336 1917l125 92l180 -446l-90 -64z" />
<glyph unicode="&#xda;" horiz-adv-x="1067" d="M113 1417h192v-909q0 -165 61.5 -246.5t163.5 -81.5q104 0 168 82t64 246v909h192v-909q0 -132 -32 -233.5t-90 -163t-133.5 -92.5t-166.5 -31q-188 0 -303.5 130.5t-115.5 389.5v909zM606 2009l125 -92l-215 -418l-90 64z" />
<glyph unicode="&#xdb;" horiz-adv-x="1067" d="M113 1417h192v-909q0 -165 61.5 -246.5t163.5 -81.5q104 0 168 82t64 246v909h192v-909q0 -132 -32 -233.5t-90 -163t-133.5 -92.5t-166.5 -31q-188 0 -303.5 130.5t-115.5 389.5v909zM477 2009h111l241 -403l-79 -88l-218 294l-215 -294l-81 88z" />
<glyph unicode="&#xdc;" horiz-adv-x="1067" d="M113 1417h192v-909q0 -165 61.5 -246.5t163.5 -81.5q104 0 168 82t64 246v909h192v-909q0 -132 -32 -233.5t-90 -163t-133.5 -92.5t-166.5 -31q-188 0 -303.5 130.5t-115.5 389.5v909zM713 1823q43 0 70.5 -32.5t27.5 -84.5q0 -51 -27.5 -84t-70.5 -33t-71 33t-28 84 q0 52 28 84.5t71 32.5zM354 1823q43 0 71 -32.5t28 -84.5q0 -51 -28 -84t-71 -33t-70.5 33t-27.5 84q0 52 27.5 84.5t70.5 32.5z" />
<glyph unicode="&#xdd;" horiz-adv-x="1024" d="M12 1417h219l283 -669l287 669h211l-406 -895v-522h-188v522zM586 2009l125 -92l-215 -418l-90 64z" />
<glyph unicode="&#xde;" horiz-adv-x="1044" d="M127 1417h188v-282h271q176 0 278.5 -114t102.5 -329t-102.5 -327.5t-278.5 -112.5h-269v-252h-190v1417zM315 946v-510h275q91 0 143.5 63t52.5 191q0 129 -52.5 192.5t-143.5 63.5h-275z" />
<glyph unicode="&#xdf;" horiz-adv-x="952" d="M297 1112v-1112h-178v1110q0 204 87.5 310t235.5 106q142 0 229 -100.5t87 -299.5q0 -191 -90 -278q198 -77 198 -383q0 -225 -95.5 -358.5t-254.5 -133.5q-86 0 -158 45l17 179q53 -43 117 -43q93 0 146.5 82.5t53.5 226.5q0 158 -58 225.5t-190 67.5h-38v149h47 q147 0 147 211q0 118 -44 174t-107 56q-67 0 -109.5 -58.5t-42.5 -175.5z" />
<glyph unicode="&#xe0;" horiz-adv-x="892" d="M217 840l-70 155q123 115 304 115q156 0 242.5 -97.5t86.5 -324.5v-688h-164v70q-108 -84 -235 -84q-132 0 -215.5 88.5t-83.5 259.5q0 173 88 267.5t231 94.5q108 0 205 -51v31q0 137 -44.5 193.5t-135.5 56.5q-120 0 -209 -86zM426 147q95 0 180 54v317q-75 35 -157 35 q-90 0 -144.5 -52.5t-54.5 -156.5q0 -99 48.5 -148t127.5 -49zM248 1591l125 92l180 -446l-90 -63z" />
<glyph unicode="&#xe1;" horiz-adv-x="892" d="M217 840l-70 155q123 115 304 115q156 0 242.5 -97.5t86.5 -324.5v-688h-164v70q-108 -84 -235 -84q-132 0 -215.5 88.5t-83.5 259.5q0 173 88 267.5t231 94.5q108 0 205 -51v31q0 137 -44.5 193.5t-135.5 56.5q-120 0 -209 -86zM426 147q95 0 180 54v317q-75 35 -157 35 q-90 0 -144.5 -52.5t-54.5 -156.5q0 -99 48.5 -148t127.5 -49zM518 1683l125 -92l-215 -417l-90 63z" />
<glyph unicode="&#xe2;" horiz-adv-x="892" d="M217 840l-70 155q123 115 304 115q156 0 242.5 -97.5t86.5 -324.5v-688h-164v70q-108 -84 -235 -84q-132 0 -215.5 88.5t-83.5 259.5q0 173 88 267.5t231 94.5q108 0 205 -51v31q0 137 -44.5 193.5t-135.5 56.5q-120 0 -209 -86zM426 147q95 0 180 54v317q-75 35 -157 35 q-90 0 -144.5 -52.5t-54.5 -156.5q0 -99 48.5 -148t127.5 -49zM391 1683h111l241 -403l-79 -88l-218 295l-215 -295l-81 88z" />
<glyph unicode="&#xe3;" horiz-adv-x="892" d="M217 840l-70 155q123 115 304 115q156 0 242.5 -97.5t86.5 -324.5v-688h-164v70q-108 -84 -235 -84q-132 0 -215.5 88.5t-83.5 259.5q0 173 88 267.5t231 94.5q108 0 205 -51v31q0 137 -44.5 193.5t-135.5 56.5q-120 0 -209 -86zM426 147q95 0 180 54v317q-75 35 -157 35 q-90 0 -144.5 -52.5t-54.5 -156.5q0 -99 48.5 -148t127.5 -49zM199 1294l-84 92q66 162 188 162q42 0 83 -20.5t68.5 -45t61.5 -45t64 -20.5q39 0 66 31.5t48 95.5l84 -90q-34 -85 -83 -126.5t-107 -41.5q-41 0 -82 20.5t-69.5 45t-64 45t-65.5 20.5q-69 0 -108 -123z" />
<glyph unicode="&#xe4;" horiz-adv-x="892" d="M217 840l-70 155q123 115 304 115q156 0 242.5 -97.5t86.5 -324.5v-688h-164v70q-108 -84 -235 -84q-132 0 -215.5 88.5t-83.5 259.5q0 173 88 267.5t231 94.5q108 0 205 -51v31q0 137 -44.5 193.5t-135.5 56.5q-120 0 -209 -86zM426 147q95 0 180 54v317q-75 35 -157 35 q-90 0 -144.5 -52.5t-54.5 -156.5q0 -99 48.5 -148t127.5 -49zM627 1497q43 0 70.5 -32.5t27.5 -84.5q0 -51 -27.5 -83.5t-70.5 -32.5t-71 32.5t-28 83.5q0 52 28 84.5t71 32.5zM268 1497q43 0 71 -32.5t28 -84.5q0 -51 -28 -83.5t-71 -32.5t-70.5 32.5t-27.5 83.5 q0 52 27.5 84.5t70.5 32.5z" />
<glyph unicode="&#xe5;" horiz-adv-x="892" d="M217 840l-70 155q123 115 304 115q156 0 242.5 -97.5t86.5 -324.5v-688h-164v70q-108 -84 -235 -84q-132 0 -215.5 88.5t-83.5 259.5q0 173 88 267.5t231 94.5q108 0 205 -51v31q0 137 -44.5 193.5t-135.5 56.5q-120 0 -209 -86zM426 147q95 0 180 54v317q-75 35 -157 35 q-90 0 -144.5 -52.5t-54.5 -156.5q0 -99 48.5 -148t127.5 -49zM444 1638q98 0 161 -65t63 -162t-63 -162t-161 -65t-160.5 64.5t-62.5 162.5q0 97 62.5 162t160.5 65zM444 1550q-59 0 -93 -39t-34 -100q0 -63 34.5 -102t92.5 -39t92.5 39t34.5 102q0 62 -33.5 100.5 t-93.5 38.5z" />
<glyph unicode="&#xe6;" horiz-adv-x="1417" d="M1325 475h-549q11 -161 69.5 -243t141.5 -82q56 0 103 34t71 88l113 -108q-41 -78 -115 -134.5t-178 -56.5q-156 0 -254 133q-78 -61 -169 -90.5t-171 -29.5q-137 0 -221 88t-84 258q0 175 88 269.5t231 94.5q108 0 205 -51v31q0 137 -44.5 193.5t-135.5 56.5 q-120 0 -209 -86l-70 155q123 115 304 115q190 0 266 -139q97 139 252 139q162 0 261 -149t99 -420q0 -43 -4 -66zM432 147q104 0 234 68q-53 132 -56 309q-77 29 -143 29q-217 0 -217 -209q0 -100 48 -148.5t134 -48.5zM971 934q-79 0 -132 -82.5t-63 -230.5h387 q-10 152 -61.5 232.5t-130.5 80.5z" />
<glyph unicode="&#xe7;" horiz-adv-x="808" d="M774 885l-129 -115q-51 160 -170 160q-94 0 -153.5 -100.5t-59.5 -288.5q0 -187 58.5 -287t148.5 -100q56 0 101 40t73 111l125 -102q-15 -36 -39 -71.5t-61.5 -73.5t-92 -61.5t-116.5 -23.5q-160 0 -265.5 150.5t-105.5 419.5t108 418t277 149q111 0 188 -61.5 t113 -163.5zM385 -39l141 -39l-92 -371l-96 27z" />
<glyph unicode="&#xe8;" horiz-adv-x="897" d="M803 475h-549q11 -161 69.5 -243t141.5 -82q56 0 103 34t71 88l113 -108q-41 -78 -115 -134.5t-178 -56.5q-161 0 -266 149.5t-105 424.5q0 266 98.5 414.5t259.5 148.5q162 0 261.5 -149t99.5 -420q0 -43 -4 -66zM449 934q-79 0 -132 -82.5t-63 -230.5h387 q-10 152 -61.5 232.5t-130.5 80.5zM250 1591l125 92l180 -446l-90 -63z" />
<glyph unicode="&#xe9;" horiz-adv-x="897" d="M803 475h-549q11 -161 69.5 -243t141.5 -82q56 0 103 34t71 88l113 -108q-41 -78 -115 -134.5t-178 -56.5q-161 0 -266 149.5t-105 424.5q0 266 98.5 414.5t259.5 148.5q162 0 261.5 -149t99.5 -420q0 -43 -4 -66zM449 934q-79 0 -132 -82.5t-63 -230.5h387 q-10 152 -61.5 232.5t-130.5 80.5zM520 1683l125 -92l-215 -417l-90 63z" />
<glyph unicode="&#xea;" horiz-adv-x="897" d="M803 475h-549q11 -161 69.5 -243t141.5 -82q56 0 103 34t71 88l113 -108q-41 -78 -115 -134.5t-178 -56.5q-161 0 -266 149.5t-105 424.5q0 266 98.5 414.5t259.5 148.5q162 0 261.5 -149t99.5 -420q0 -43 -4 -66zM449 934q-79 0 -132 -82.5t-63 -230.5h387 q-10 152 -61.5 232.5t-130.5 80.5zM391 1683h111l241 -403l-79 -88l-218 295l-215 -295l-81 88z" />
<glyph unicode="&#xeb;" horiz-adv-x="897" d="M803 475h-549q11 -161 69.5 -243t141.5 -82q56 0 103 34t71 88l113 -108q-41 -78 -115 -134.5t-178 -56.5q-161 0 -266 149.5t-105 424.5q0 266 98.5 414.5t259.5 148.5q162 0 261.5 -149t99.5 -420q0 -43 -4 -66zM449 934q-79 0 -132 -82.5t-63 -230.5h387 q-10 152 -61.5 232.5t-130.5 80.5zM629 1497q43 0 70.5 -32.5t27.5 -84.5q0 -51 -27.5 -83.5t-70.5 -32.5t-71 32.5t-28 83.5q0 52 28 84.5t71 32.5zM270 1497q43 0 71 -32.5t28 -84.5q0 -51 -28 -83.5t-71 -32.5t-70.5 32.5t-27.5 83.5q0 52 27.5 84.5t70.5 32.5z" />
<glyph unicode="&#xec;" horiz-adv-x="419" d="M14 1591l125 92l180 -446l-90 -63zM127 1083h178v-1083h-178v1083z" />
<glyph unicode="&#xed;" horiz-adv-x="421" d="M281 1683l125 -92l-216 -417l-90 63zM119 1083h178v-1083h-178v1083z" />
<glyph unicode="&#xee;" horiz-adv-x="548" d="M184 1083h178v-1083h-178v1083zM219 1683h111l241 -403l-79 -88l-218 295l-215 -295l-82 88z" />
<glyph unicode="&#xef;" horiz-adv-x="563" d="M461 1497q43 0 70.5 -32.5t27.5 -84.5q0 -51 -27.5 -83.5t-70.5 -32.5t-71 32.5t-28 83.5q0 52 28 84.5t71 32.5zM102 1497q43 0 71 -32.5t28 -84.5q0 -51 -28 -83.5t-71 -32.5t-70.5 32.5t-27.5 83.5q0 52 27.5 84.5t70.5 32.5zM193 1083h178v-1083h-178v1083z" />
<glyph unicode="&#xf0;" horiz-adv-x="917" d="M586 1647l63 -31l-61 -162q119 -101 172 -278t53 -447q0 -756 -360 -756q-113 0 -196.5 72.5t-126 196t-42.5 280.5q0 220 83 345.5t224 125.5q147 0 248 -149q-6 169 -33.5 273.5t-87.5 168.5l-69 -186l-66 30l78 203q-54 37 -139 62l22 176q101 -27 180 -76zM449 154 q52 0 89 36t59.5 106t34 161.5t13.5 212.5q-104 174 -221 174q-82 0 -126 -86.5t-44 -229.5q0 -102 20.5 -184.5t65.5 -136t109 -53.5z" />
<glyph unicode="&#xf1;" horiz-adv-x="935" d="M119 1083h168v-118q92 145 252 145q134 0 209 -103t75 -321v-686h-178v666q0 260 -162 260q-130 0 -186 -172v-754h-178v1083zM219 1294l-84 92q66 162 189 162q42 0 83 -20.5t68 -45t61 -45t64 -20.5q73 0 115 127l84 -90q-34 -85 -83.5 -126.5t-107.5 -41.5 q-41 0 -82 20.5t-69 45t-63.5 45t-65.5 20.5q-70 0 -109 -123z" />
<glyph unicode="&#xf2;" horiz-adv-x="897" d="M446 1110q163 0 262 -149t99 -420t-98.5 -419.5t-259.5 -148.5q-163 0 -262 148.5t-99 421.5q0 271 98.5 419t259.5 148zM449 930q-88 0 -139.5 -100.5t-51.5 -286.5q0 -187 51.5 -288t139.5 -101q87 0 138.5 100.5t51.5 286.5q0 188 -51.5 288.5t-138.5 100.5zM250 1591 l125 92l180 -446l-90 -63z" />
<glyph unicode="&#xf3;" horiz-adv-x="897" d="M446 1110q163 0 262 -149t99 -420t-98.5 -419.5t-259.5 -148.5q-163 0 -262 148.5t-99 421.5q0 271 98.5 419t259.5 148zM449 930q-88 0 -139.5 -100.5t-51.5 -286.5q0 -187 51.5 -288t139.5 -101q87 0 138.5 100.5t51.5 286.5q0 188 -51.5 288.5t-138.5 100.5zM520 1683 l125 -92l-215 -417l-90 63z" />
<glyph unicode="&#xf4;" horiz-adv-x="897" d="M446 1110q163 0 262 -149t99 -420t-98.5 -419.5t-259.5 -148.5q-163 0 -262 148.5t-99 421.5q0 271 98.5 419t259.5 148zM449 930q-88 0 -139.5 -100.5t-51.5 -286.5q0 -187 51.5 -288t139.5 -101q87 0 138.5 100.5t51.5 286.5q0 188 -51.5 288.5t-138.5 100.5zM391 1683 h111l241 -403l-79 -88l-218 295l-215 -295l-81 88z" />
<glyph unicode="&#xf5;" horiz-adv-x="897" d="M446 1110q163 0 262 -149t99 -420t-98.5 -419.5t-259.5 -148.5q-163 0 -262 148.5t-99 421.5q0 271 98.5 419t259.5 148zM449 930q-88 0 -139.5 -100.5t-51.5 -286.5q0 -187 51.5 -288t139.5 -101q87 0 138.5 100.5t51.5 286.5q0 188 -51.5 288.5t-138.5 100.5zM201 1294 l-84 92q66 162 188 162q42 0 83 -20.5t68.5 -45t61.5 -45t64 -20.5q39 0 66 31.5t48 95.5l84 -90q-34 -85 -83 -126.5t-107 -41.5q-41 0 -82 20.5t-69.5 45t-64 45t-65.5 20.5q-69 0 -108 -123z" />
<glyph unicode="&#xf6;" horiz-adv-x="897" d="M446 1110q163 0 262 -149t99 -420t-98.5 -419.5t-259.5 -148.5q-163 0 -262 148.5t-99 421.5q0 271 98.5 419t259.5 148zM449 930q-88 0 -139.5 -100.5t-51.5 -286.5q0 -187 51.5 -288t139.5 -101q87 0 138.5 100.5t51.5 286.5q0 188 -51.5 288.5t-138.5 100.5zM627 1497 q43 0 70.5 -32.5t27.5 -84.5q0 -51 -27.5 -83.5t-70.5 -32.5t-71 32.5t-28 83.5q0 52 28 84.5t71 32.5zM268 1497q43 0 71 -32.5t28 -84.5q0 -51 -28 -83.5t-71 -32.5t-70.5 32.5t-27.5 83.5q0 52 27.5 84.5t70.5 32.5z" />
<glyph unicode="&#xf7;" horiz-adv-x="966" d="M66 776h835v-133h-835v133zM483 369q43 0 71 -32.5t28 -84.5q0 -51 -28 -84t-71 -33t-70.5 33t-27.5 84q0 52 27.5 84.5t70.5 32.5zM483 1274q43 0 71 -32.5t28 -84.5q0 -51 -28 -84t-71 -33t-70.5 33t-27.5 84q0 52 27.5 84.5t70.5 32.5z" />
<glyph unicode="&#xf8;" horiz-adv-x="897" d="M446 1110q94 0 168 -53l80 184h90l-104 -244q127 -149 127 -456q0 -271 -98.5 -419.5t-259.5 -148.5q-101 0 -181 58l-65 -154h-92l94 219q-117 149 -117 447q0 271 98.5 419t259.5 148zM639 541q0 159 -41 262l-256 -600q46 -49 107 -49q87 0 138.5 100.5t51.5 286.5z M449 930q-88 0 -139.5 -100.5t-51.5 -286.5q0 -156 33 -246l252 592q-41 41 -94 41z" />
<glyph unicode="&#xf9;" horiz-adv-x="935" d="M113 1083h178v-682q0 -123 44.5 -183t119.5 -60q127 0 184 172v753h178v-1083h-168v119q-93 -146 -252 -146q-131 0 -207.5 99.5t-76.5 296.5v714zM268 1591l125 92l180 -446l-90 -63z" />
<glyph unicode="&#xfa;" horiz-adv-x="935" d="M113 1083h178v-682q0 -123 44.5 -183t119.5 -60q127 0 184 172v753h178v-1083h-168v119q-93 -146 -252 -146q-131 0 -207.5 99.5t-76.5 296.5v714zM541 1683l125 -92l-215 -417l-91 63z" />
<glyph unicode="&#xfb;" horiz-adv-x="935" d="M113 1083h178v-682q0 -123 44.5 -183t119.5 -60q127 0 184 172v753h178v-1083h-168v119q-93 -146 -252 -146q-131 0 -207.5 99.5t-76.5 296.5v714zM412 1683h110l242 -403l-80 -88l-217 295l-215 -295l-82 88z" />
<glyph unicode="&#xfc;" horiz-adv-x="935" d="M113 1083h178v-682q0 -123 44.5 -183t119.5 -60q127 0 184 172v753h178v-1083h-168v119q-93 -146 -252 -146q-131 0 -207.5 99.5t-76.5 296.5v714zM647 1497q43 0 70.5 -32.5t27.5 -84.5q0 -51 -27.5 -83.5t-70.5 -32.5t-70.5 32.5t-27.5 83.5q0 52 27.5 84.5t70.5 32.5z M289 1497q43 0 70.5 -32.5t27.5 -84.5q0 -51 -27.5 -83.5t-70.5 -32.5t-71 32.5t-28 83.5q0 52 28 84.5t71 32.5z" />
<glyph unicode="&#xfd;" horiz-adv-x="851" d="M18 1083h183l219 -776l235 776h179l-449 -1464h-176l125 412zM500 1683l125 -92l-215 -417l-91 63z" />
<glyph unicode="&#xfe;" horiz-adv-x="933" d="M119 1446l178 67v-536q90 133 231 133q82 0 145 -48.5t99.5 -131t54 -180.5t17.5 -207q0 -111 -17.5 -209.5t-54 -181t-99 -131t-145.5 -48.5q-141 0 -231 136v-469l-178 -66v1872zM483 932q-116 0 -186 -164v-457q68 -157 182 -157q53 0 92 31.5t61 87t32 122.5t10 148 q0 80 -10 147t-31.5 123t-59.5 87.5t-90 31.5z" />
<glyph unicode="&#xff;" horiz-adv-x="851" d="M18 1083h183l219 -776l235 776h179l-449 -1464h-176l125 412zM602 1497q43 0 70.5 -32.5t27.5 -84.5q0 -51 -27.5 -83.5t-70.5 -32.5t-70.5 32.5t-27.5 83.5q0 52 27.5 84.5t70.5 32.5zM244 1497q43 0 70.5 -32.5t27.5 -84.5q0 -51 -27.5 -83.5t-70.5 -32.5t-71 32.5 t-28 83.5q0 52 28 84.5t71 32.5z" />
<glyph unicode="&#x152;" horiz-adv-x="1669" d="M582 1444q175 0 299 -127v100h702v-194h-512v-404h373v-188h-373v-436h522v-195h-712v98q-125 -125 -299 -125q-219 0 -351.5 191t-132.5 543q0 353 132.5 545t351.5 192zM582 1249q-135 0 -214 -139.5t-79 -402.5q0 -261 79 -401t214 -140q134 0 213 140t79 401 q0 262 -79 402t-213 140z" />
<glyph unicode="&#x153;" horiz-adv-x="1452" d="M446 1110q179 0 279 -178q96 178 276 178q162 0 261.5 -149t99.5 -420q0 -43 -4 -66h-549q11 -161 69.5 -243t141.5 -82q56 0 103 34t71 88l113 -108q-41 -78 -115 -134.5t-178 -56.5q-183 0 -287 183q-47 -90 -118.5 -136.5t-159.5 -46.5q-163 0 -262 148.5t-99 421.5 q0 271 98.5 419t259.5 148zM449 930q-88 0 -139.5 -100.5t-51.5 -286.5q0 -187 51.5 -288t139.5 -101q87 0 138.5 100.5t51.5 286.5q0 188 -51.5 288.5t-138.5 100.5zM1004 934q-79 0 -132 -82.5t-63 -230.5h387q-10 152 -61.5 232.5t-130.5 80.5z" />
<glyph unicode="&#x178;" horiz-adv-x="1024" d="M12 1417h219l283 -669l287 669h211l-406 -895v-522h-188v522zM692 1823q43 0 71 -32.5t28 -84.5q0 -51 -28 -84t-71 -33t-70.5 33t-27.5 84q0 52 27.5 84.5t70.5 32.5zM334 1823q43 0 70.5 -32.5t27.5 -84.5q0 -51 -27.5 -84t-70.5 -33t-70.5 33t-27.5 84q0 52 27.5 84.5 t70.5 32.5z" />
<glyph unicode="&#x2c6;" horiz-adv-x="655" d="M285 1683h110l242 -403l-80 -88l-217 295l-215 -295l-82 88z" />
<glyph unicode="&#x2dc;" horiz-adv-x="798" d="M152 1294l-84 92q66 162 188 162q42 0 83 -20.5t68 -45t61 -45t64 -20.5q73 0 115 127l84 -90q-34 -85 -83 -126.5t-107 -41.5q-41 0 -82 20.5t-69.5 45t-64 45t-65.5 20.5q-69 0 -108 -123z" />
<glyph unicode="&#x2000;" horiz-adv-x="1004" />
<glyph unicode="&#x2001;" horiz-adv-x="2009" />
<glyph unicode="&#x2002;" horiz-adv-x="1004" />
<glyph unicode="&#x2003;" horiz-adv-x="2009" />
<glyph unicode="&#x2004;" horiz-adv-x="669" />
<glyph unicode="&#x2005;" horiz-adv-x="502" />
<glyph unicode="&#x2006;" horiz-adv-x="334" />
<glyph unicode="&#x2007;" horiz-adv-x="334" />
<glyph unicode="&#x2008;" horiz-adv-x="251" />
<glyph unicode="&#x2009;" horiz-adv-x="401" />
<glyph unicode="&#x200a;" horiz-adv-x="111" />
<glyph unicode="&#x2010;" horiz-adv-x="571" d="M43 750h485v-152h-485v152z" />
<glyph unicode="&#x2011;" horiz-adv-x="571" d="M43 750h485v-152h-485v152z" />
<glyph unicode="&#x2012;" horiz-adv-x="571" d="M43 750h485v-152h-485v152z" />
<glyph unicode="&#x2013;" horiz-adv-x="811" d="M43 750h725v-152h-725v152z" />
<glyph unicode="&#x2014;" horiz-adv-x="1134" d="M43 750h1047v-152h-1047v152z" />
<glyph unicode="&#x2018;" horiz-adv-x="319" d="M211 1014l-172 59l149 453l103 -37z" />
<glyph unicode="&#x2019;" horiz-adv-x="319" d="M111 1524l172 -60l-150 -452l-102 37z" />
<glyph unicode="&#x201a;" horiz-adv-x="319" d="M111 225l172 -59l-150 -453l-102 37z" />
<glyph unicode="&#x201c;" horiz-adv-x="595" d="M485 1014l-172 59l150 453l102 -37zM211 1014l-172 59l149 453l103 -37z" />
<glyph unicode="&#x201d;" horiz-adv-x="593" d="M387 1524l172 -60l-149 -452l-103 37zM111 1524l172 -60l-150 -452l-102 37z" />
<glyph unicode="&#x201e;" horiz-adv-x="593" d="M387 225l172 -59l-149 -453l-103 37zM111 225l172 -59l-150 -453l-102 37z" />
<glyph unicode="&#x2022;" horiz-adv-x="493" d="M102 725q0 60 38 103.5t106 43.5t106.5 -43.5t38.5 -103.5q0 -61 -38.5 -107.5t-106.5 -46.5t-106 46.5t-38 107.5z" />
<glyph unicode="&#x2026;" horiz-adv-x="1200" d="M1044 219q43 0 71 -32.5t28 -84.5q0 -51 -28 -83.5t-71 -32.5t-70.5 32.5t-27.5 83.5q0 52 27.5 84.5t70.5 32.5zM164 219q43 0 70.5 -32.5t27.5 -84.5q0 -51 -27.5 -83.5t-70.5 -32.5t-70.5 32.5t-27.5 83.5q0 52 27.5 84.5t70.5 32.5zM602 219q43 0 70.5 -32.5 t27.5 -84.5q0 -51 -27.5 -83.5t-70.5 -32.5t-70.5 32.5t-27.5 83.5q0 52 27.5 84.5t70.5 32.5z" />
<glyph unicode="&#x202f;" horiz-adv-x="401" />
<glyph unicode="&#x2039;" horiz-adv-x="368" d="M219 1083h125l-194 -540l194 -543h-125l-194 543z" />
<glyph unicode="&#x203a;" horiz-adv-x="368" d="M25 1083h125l194 -540l-194 -543h-125l194 543z" />
<glyph unicode="&#x205f;" horiz-adv-x="502" />
<glyph unicode="&#x20ac;" d="M88 913h88q35 257 154 394t293 137q204 0 327 -182l-92 -144q-43 70 -95 107t-124 37q-114 0 -186.5 -88.5t-98.5 -260.5h455l-49 -112h-418q-2 -29 -2 -90q0 -70 2 -103h373l-47 -114h-314q26 -163 92 -250.5t164 -87.5q73 0 129.5 39.5t87.5 113.5l134 -98 q-51 -111 -142.5 -174.5t-212.5 -63.5q-177 0 -286 138t-142 383h-137l47 114h78q-2 31 -2 97q0 65 2 96h-125z" />
<glyph unicode="&#x2122;" horiz-adv-x="1212" d="M565 1516h99l170 -521l170 521h94v-709h-90v453l-158 -453h-39l-158 457v-457h-88v709zM37 1516h418v-99h-162v-610h-94v610h-162v99z" />
<glyph unicode="&#x25fc;" horiz-adv-x="1085" d="M0 1085h1085v-1085h-1085v1085z" />
</font>
</defs>
</svg>
