<?xml version="1.0" standalone="no"?>
<!DOCTYPE svg PUBLIC "-//W3C//DTD SVG 1.1//EN" "http://www.w3.org/Graphics/SVG/1.1/DTD/svg11.dtd" >
<svg xmlns="http://www.w3.org/2000/svg">
<metadata></metadata>
<defs>
<font id="expresswaybold" horiz-adv-x="1275" >
<font-face units-per-em="2048" ascent="1638" descent="-410" />
<missing-glyph horiz-adv-x="561" />
<glyph horiz-adv-x="0" />
<glyph horiz-adv-x="682" />
<glyph horiz-adv-x="638" />
<glyph unicode=" "  horiz-adv-x="561" />
<glyph unicode="&#x09;" horiz-adv-x="561" />
<glyph unicode="&#xa0;" horiz-adv-x="561" />
<glyph unicode="!" horiz-adv-x="569" d="M131 1442h305l-49 -965h-207zM283 291q66 0 107.5 -43t41.5 -111t-41.5 -110.5t-107.5 -42.5t-108 43t-42 110q0 68 42 111t108 43z" />
<glyph unicode="&#x22;" horiz-adv-x="759" d="M430 1513h262l-47 -677h-168zM68 1513h262l-47 -677h-168z" />
<glyph unicode="#" d="M74 518h241l70 356h-235v148h264l78 395h153l-78 -395h285l78 395h151l-77 -395h198v-148h-227l-70 -356h221v-147h-249l-72 -371h-152l72 371h-287l-71 -371h-152l72 371h-213v147zM539 874l-72 -356h287l69 356h-284z" />
<glyph unicode="$" d="M565 1526h217v-180q119 -19 206.5 -69.5t141.5 -115.5l-182 -160q-123 123 -307 123q-92 0 -144.5 -28t-52.5 -84q0 -63 101 -101q50 -18 182 -47t193 -53q241 -92 241 -324q0 -157 -101.5 -252t-277.5 -122v-222h-217v215q-152 13 -266.5 71.5t-185.5 146.5l192 157 q141 -151 361 -151q118 0 180.5 41t62.5 114q0 53 -30 81.5t-86 45.5q-25 8 -159 42t-206 63q-114 44 -172.5 111t-58.5 176q0 141 95.5 233.5t272.5 112.5v176z" />
<glyph unicode="%" d="M999 1417h193l-911 -1417h-193zM981 725q133 0 214 -106t81 -300q0 -193 -81 -298t-214 -105q-132 0 -213.5 105.5t-81.5 297.5q0 194 81.5 300t213.5 106zM981 563q-62 0 -95.5 -62.5t-33.5 -181.5q0 -241 129 -241q63 0 98 61t35 180q0 118 -35.5 181t-97.5 63z M293 1501q133 0 214 -105.5t81 -299.5q0 -193 -81 -298.5t-214 -105.5q-132 0 -213.5 105.5t-81.5 298.5q0 194 81.5 299.5t213.5 105.5zM293 1339q-62 0 -95.5 -62t-33.5 -181q0 -120 33.5 -181t95.5 -61q63 0 98 61.5t35 180.5q0 118 -35 180.5t-98 62.5z" />
<glyph unicode="&#x26;" horiz-adv-x="1419" d="M1030 1296l-201 -166q-28 64 -78.5 103t-117.5 39q-70 0 -109 -42t-39 -110q0 -63 44 -145.5t165 -206.5q97 -102 254 -236q39 103 39 207h275q-3 -213 -82 -387q134 -95 221 -141l-144 -256q-138 85 -245 168q-170 -150 -424 -150q-237 0 -375.5 125t-138.5 342 q0 270 233 404q-90 159 -90 301q0 175 110.5 279t301.5 104q148 0 251 -64t150 -168zM580 227q112 0 208 80q-135 119 -253 246q-54 57 -101 113q-96 -79 -96 -201q0 -115 72.5 -176.5t169.5 -61.5z" />
<glyph unicode="'" horiz-adv-x="397" d="M68 1513h262l-47 -677h-168z" />
<glyph unicode="(" horiz-adv-x="788" d="M541 1827h198q-346 -506 -346 -1127q0 -620 346 -1126h-198q-328 523 -328 1126q0 604 328 1127z" />
<glyph unicode=")" horiz-adv-x="788" d="M248 -426h-199q346 506 346 1126q0 621 -346 1127h199q327 -521 327 -1127q0 -605 -327 -1126z" />
<glyph unicode="*" horiz-adv-x="948" d="M66 1280l346 -143l-29 376h178l-26 -374l346 143l57 -170l-363 -88l242 -289l-145 -104l-197 319l-194 -321l-148 104l242 287l-365 88z" />
<glyph unicode="+" d="M547 1268h182v-467h463v-183h-463v-468h-182v468h-463v183h463v467z" />
<glyph unicode="," horiz-adv-x="452" d="M152 299l264 -88l-223 -498l-156 51z" />
<glyph unicode="-" horiz-adv-x="749" d="M53 780h643v-213h-643v213z" />
<glyph unicode="." horiz-adv-x="452" d="M225 291q66 0 109 -43.5t43 -110.5t-43 -110t-109 -43q-65 0 -107 43t-42 110t42 110.5t107 43.5z" />
<glyph unicode="/" horiz-adv-x="724" d="M528 1622h193l-524 -1843h-193z" />
<glyph unicode="0" horiz-adv-x="1339" d="M670 1444q242 0 389 -192t147 -545q0 -177 -39.5 -317t-111 -231t-169.5 -138.5t-216 -47.5q-117 0 -215 47.5t-170 138.5t-112 231t-40 317q0 352 148 544.5t389 192.5zM670 1182q-131 0 -203 -121t-72 -354t72 -353.5t203 -120.5q130 0 203 121t73 353t-73 353.5 t-203 121.5z" />
<glyph unicode="1" horiz-adv-x="673" d="M61 1278h60q121 0 137 139h250v-1417h-277v1028h-170v250z" />
<glyph unicode="2" horiz-adv-x="1208" d="M301 1008l-186 186q84 122 217 186t293 64q100 0 186 -25.5t152.5 -75t104.5 -130.5t38 -185q0 -101 -38 -174.5t-118 -134.5q-62 -48 -211 -128.5t-196 -113.5q-77 -53 -105 -103.5t-28 -111.5h692v-262h-1008v84q0 170 40.5 295.5t135.5 210.5q51 45 131 92t176 95.5 t121 62.5q75 43 105.5 83t30.5 95q0 82 -54.5 123t-146.5 41q-192 0 -332 -174z" />
<glyph unicode="3" horiz-adv-x="1216" d="M340 1069l-152 191q204 184 449 184q67 0 129 -14t117.5 -45t96.5 -76t65 -112t24 -148q0 -155 -86 -254q170 -93 170 -330q0 -223 -143 -357.5t-394 -134.5q-182 0 -307.5 71t-224.5 198l215 182q50 -84 142.5 -137.5t193.5 -53.5q105 0 176.5 58t71.5 168 q0 89 -56 133.5t-174 44.5h-164v252h158q168 0 168 141q0 81 -53 116.5t-135 35.5q-87 0 -163 -31.5t-124 -81.5z" />
<glyph unicode="4" horiz-adv-x="1253" d="M776 1417h264v-911h138v-238h-138v-268h-276v268h-688v262zM360 506h404v506z" />
<glyph unicode="5" horiz-adv-x="1298" d="M221 1417h864v-262h-639l-20 -231q154 67 303 67q77 0 144.5 -17.5t125 -55.5t99 -93.5t65 -135.5t23.5 -177q0 -139 -47.5 -245.5t-129.5 -169t-181.5 -93.5t-213.5 -31q-98 0 -181 22t-147.5 63t-109.5 83.5t-92 100.5l215 182q51 -82 141.5 -134t194.5 -52 q125 0 198.5 75.5t73.5 196.5q0 114 -64.5 176t-178.5 62q-72 0 -144.5 -26.5t-126.5 -74.5l-237 74z" />
<glyph unicode="6" horiz-adv-x="1294" d="M954 1417v-262q-434 -6 -532 -311q140 96 311 96q205 0 327 -122t122 -324q0 -144 -62.5 -262t-183.5 -188.5t-281 -70.5q-136 0 -239 52t-163.5 142.5t-90 202t-29.5 242.5q0 237 95 417.5t282 283.5t444 104zM696 711q-175 0 -305 -121q5 -170 74 -263.5t201 -93.5 q123 0 194.5 75.5t71.5 187.5q0 98 -60.5 156.5t-175.5 58.5z" />
<glyph unicode="7" horiz-adv-x="1107" d="M53 1417h1002v-229q-114 -133 -195 -267t-136 -281.5t-88 -298t-56 -341.5h-279q35 355 129.5 635.5t269.5 519.5h-647v262z" />
<glyph unicode="8" horiz-adv-x="1189" d="M66 436q0 241 180 350q-96 104 -96 265q0 101 38 178.5t102.5 123t141.5 68.5t162 23t162.5 -23t142 -68.5t103 -123t38.5 -178.5q0 -159 -98 -265q182 -108 182 -350q0 -209 -135 -336t-395 -127t-394 127t-134 336zM334 446q0 -100 71.5 -156.5t188.5 -56.5t188.5 56.5 t71.5 156.5q0 98 -70 148.5t-190 50.5q-119 0 -189.5 -50.5t-70.5 -148.5zM403 1028q0 -75 54.5 -113t136.5 -38t137 38t55 113t-55.5 114.5t-136.5 39.5q-80 0 -135.5 -39.5t-55.5 -114.5z" />
<glyph unicode="9" horiz-adv-x="1294" d="M340 262q430 3 528 309q-133 -94 -309 -94q-204 0 -325 122.5t-121 324.5q0 144 62 261.5t183 188t281 70.5q135 0 238 -52t163.5 -142.5t90.5 -202.5t30 -242q0 -237 -95 -417.5t-282 -283.5t-444 -104v262zM598 707q169 0 303 118q-6 171 -73.5 264t-198.5 93 q-125 0 -197 -74t-72 -186q0 -99 60.5 -157t177.5 -58z" />
<glyph unicode=":" horiz-adv-x="522" d="M260 1110q66 0 109 -43.5t43 -110.5t-43 -110t-109 -43q-65 0 -107 43t-42 110t42 110.5t107 43.5zM260 434q66 0 109 -43t43 -110t-43 -110.5t-109 -43.5q-65 0 -107 43.5t-42 110.5t42 110t107 43z" />
<glyph unicode=";" horiz-adv-x="522" d="M160 442l264 -88l-223 -497l-156 51zM260 1110q66 0 109 -43.5t43 -110.5t-43 -110t-109 -43q-65 0 -107 43t-42 110t42 110.5t107 43.5z" />
<glyph unicode="&#x3c;" d="M84 805l1108 405v-192l-868 -307l868 -308v-192l-1108 405v189z" />
<glyph unicode="=" d="M84 1044h1108v-180h-1108v180zM84 553h1108v-180h-1108v180z" />
<glyph unicode="&#x3e;" d="M1192 616l-1108 -405v192l866 308l-866 307v192l1108 -405v-189z" />
<glyph unicode="?" horiz-adv-x="1003" d="M221 1083l-201 166q147 232 461 232q213 0 330 -103t117 -278q0 -143 -80 -250q-32 -44 -109 -115.5t-96 -93.5q-38 -43 -49.5 -80t-11.5 -84h-244q0 80 17.5 138.5t56.5 111.5q31 42 100 106t82 78q72 78 72 156q0 74 -55 116t-150 42q-163 0 -240 -142zM446 291 q65 0 107.5 -43.5t42.5 -110.5t-42.5 -110t-107.5 -43q-66 0 -108.5 43t-42.5 110t42.5 110.5t108.5 43.5z" />
<glyph unicode="@" horiz-adv-x="1593" d="M946 844h164v-469q0 -47 22 -66.5t52 -19.5q68 0 107.5 76.5t39.5 212.5q0 105 -26 189t-70.5 139t-107 92t-131.5 53t-148 16q-172 0 -295 -77.5t-182.5 -209t-59.5 -303.5q0 -125 34 -228t89 -171.5t128.5 -117t150 -71t155.5 -26.5l-53 -180q-109 8 -208.5 39.5 t-192 94t-160 150.5t-108 217t-40.5 285q0 187 57 336.5t157 246.5t234.5 148t291.5 51q136 0 253.5 -39t210 -116.5t146 -204.5t53.5 -291q0 -223 -95.5 -346t-250.5 -123q-145 0 -202 100q-73 -100 -195 -100q-66 0 -116.5 31.5t-79.5 84.5t-43.5 116t-14.5 133 q0 55 8.5 106.5t28.5 99t49 83t72 56.5t96 21q105 0 180 -82v64zM811 289q78 0 125 80v254q-49 79 -127 79q-68 0 -99.5 -56.5t-31.5 -147.5q0 -93 32 -151t101 -58z" />
<glyph unicode="A" horiz-adv-x="1409" d="M543 1417h317l526 -1417h-317l-94 268h-545l-92 -268h-315zM700 1057l-180 -527h365z" />
<glyph unicode="B" horiz-adv-x="1355" d="M164 1417h641q199 0 317.5 -101.5t118.5 -285.5q0 -200 -147 -285q198 -93 198 -333q0 -196 -127 -304t-360 -108h-641v1417zM457 600v-332h346q207 0 207 162q0 170 -230 170h-323zM457 1147v-303h354q63 0 106.5 42.5t43.5 114.5q0 69 -40.5 107.5t-109.5 38.5h-354z " />
<glyph unicode="C" horiz-adv-x="1419" d="M1327 1130l-217 -161q-61 99 -136 148.5t-188 49.5q-172 0 -267 -117t-95 -343t95 -342.5t267 -116.5q104 0 178 44t138 138l219 -160q-185 -297 -535 -297q-143 0 -263.5 47.5t-209 138.5t-138.5 232t-50 318q0 176 49.5 316.5t138.5 231.5t210 139t265 48 q195 0 329.5 -84.5t209.5 -229.5z" />
<glyph unicode="D" horiz-adv-x="1488" d="M164 1417h434q161 0 301 -49.5t243 -138.5t162.5 -222.5t59.5 -293.5q0 -161 -60 -296t-163.5 -225.5t-243.5 -141t-299 -50.5h-434v1417zM467 1141v-867h133q130 0 233.5 49.5t166.5 150t63 235.5q0 202 -131.5 317t-331.5 115h-133z" />
<glyph unicode="E" horiz-adv-x="1208" d="M164 1417h934v-276h-635v-285h450v-266h-450v-314h649v-276h-948v1417z" />
<glyph unicode="F" horiz-adv-x="1099" d="M164 1417h891v-276h-592v-303h420v-271h-420v-567h-299v1417z" />
<glyph unicode="G" horiz-adv-x="1488" d="M829 780h547v-190q0 -281 -156 -449t-434 -168q-144 0 -265 47.5t-209 138t-137.5 230.5t-49.5 316q0 177 49.5 318t138.5 232.5t210 140t265 48.5q195 0 329.5 -84.5t209.5 -229.5l-217 -161q-61 99 -136 148.5t-188 49.5q-172 0 -267 -116.5t-95 -341.5 q0 -226 95.5 -343.5t266.5 -117.5q124 0 204.5 66.5t94.5 209.5h-256v256z" />
<glyph unicode="H" horiz-adv-x="1441" d="M164 1417h299v-555h514v555h301v-1417h-301v586h-514v-586h-299v1417z" />
<glyph unicode="I" horiz-adv-x="628" d="M164 1417h301v-1417h-301v1417z" />
<glyph unicode="J" horiz-adv-x="1212" d="M768 1417h301v-887q0 -155 -67.5 -278t-194 -193.5t-291.5 -70.5q-106 0 -203.5 35t-175.5 105.5t-117 166.5l226 166q39 -94 114 -146.5t164 -52.5q114 0 179 67t65 201v887z" />
<glyph unicode="K" horiz-adv-x="1366" d="M942 1417h324l-420 -530l500 -887h-330l-361 649l-192 -243v-406h-299v1417h299v-612z" />
<glyph unicode="L" horiz-adv-x="1183" d="M164 1417h299v-1141h676v-276h-975v1417z" />
<glyph unicode="M" horiz-adv-x="1724" d="M164 1417h309l408 -897l407 897h293v-1417h-299v731l-346 -731h-127l-346 741v-741h-299v1417z" />
<glyph unicode="N" horiz-adv-x="1447" d="M164 1417h299l545 -868v868h297v-1417h-273l-569 862v-862h-299v1417z" />
<glyph unicode="O" horiz-adv-x="1538" d="M768 1444q142 0 260 -48t204 -139t133.5 -231.5t47.5 -318.5q0 -177 -47.5 -317t-133.5 -231t-204 -138.5t-260 -47.5t-259.5 47.5t-203 138.5t-133 231t-47.5 317q0 178 47.5 318.5t133 231.5t203 139t259.5 48zM768 1167q-161 0 -252.5 -117.5t-91.5 -342.5t91 -342 t253 -117q161 0 254.5 117.5t93.5 341.5t-93.5 342t-254.5 118z" />
<glyph unicode="P" horiz-adv-x="1355" d="M164 1417h606q236 0 374 -116.5t138 -335.5t-138 -335t-374 -116h-307v-514h-299v1417zM461 1147v-373h315q103 0 163 47.5t60 141.5q0 92 -59.5 138t-163.5 46h-315z" />
<glyph unicode="Q" horiz-adv-x="1538" d="M768 1444q142 0 260 -48t204 -139t133.5 -231.5t47.5 -318.5q0 -343 -174 -539l102 -131l-204 -158l-111 139q-121 -45 -258 -45q-142 0 -259.5 47.5t-203 138.5t-133 231t-47.5 317q0 178 47.5 318.5t133 231.5t203 139t259.5 48zM680 463l205 155l166 -210 q65 117 65 299q0 224 -93.5 342t-254.5 118t-252.5 -117.5t-91.5 -342.5t91 -342t253 -117q40 0 74 6z" />
<glyph unicode="R" horiz-adv-x="1378" d="M164 1417h594q235 0 372.5 -114.5t137.5 -331.5q0 -156 -71.5 -259.5t-201.5 -150.5l342 -561h-338l-305 524h-231v-524h-299v1417zM461 1147v-369h303q101 0 160 47t59 140q0 92 -59 137t-160 45h-303z" />
<glyph unicode="S" horiz-adv-x="1337" d="M57 240l222 182q171 -178 419 -178q136 0 209.5 48t73.5 134q0 62 -34.5 92.5t-102.5 52.5q-32 10 -185 48.5t-237 72.5q-127 51 -195.5 127t-68.5 205q0 184 139.5 296t390.5 112q102 0 191.5 -19.5t156 -53t114 -71.5t83.5 -82l-209 -182q-141 141 -350 141 q-106 0 -168 -33.5t-62 -95.5q0 -47 31 -73t84 -45q53 -20 204.5 -54t227.5 -63q62 -24 109.5 -54.5t87 -74.5t61 -106t21.5 -138q0 -143 -76 -244.5t-207.5 -150.5t-306.5 -49q-213 0 -371.5 70.5t-251.5 185.5z" />
<glyph unicode="T" horiz-adv-x="1202" d="M45 1417h1112v-276h-405v-1141h-299v1141h-408v276z" />
<glyph unicode="U" horiz-adv-x="1409" d="M145 1417h299v-887q0 -126 72 -197t186 -71q112 0 186.5 71.5t74.5 196.5v887h301v-887q0 -132 -44.5 -237t-122 -170.5t-178 -100t-217.5 -34.5q-115 0 -215 34.5t-177 100t-121 170.5t-44 237v887z" />
<glyph unicode="V" horiz-adv-x="1409" d="M23 1417h323l359 -1036l358 1036h323l-522 -1417h-319z" />
<glyph unicode="W" horiz-adv-x="1871" d="M27 1417h313l207 -864l248 864h284l246 -866l211 866h309l-352 -1417h-285l-272 881l-283 -881h-282z" />
<glyph unicode="X" horiz-adv-x="1366" d="M981 1417h330l-451 -678l483 -739h-354l-317 526l-307 -526h-342l475 750l-432 667h340l282 -461z" />
<glyph unicode="Y" horiz-adv-x="1353" d="M12 1417h344l326 -633l328 633h331l-516 -921v-496h-295v498z" />
<glyph unicode="Z" horiz-adv-x="1245" d="M150 1417h985v-287l-664 -854h664v-276h-1018v293l680 848h-647v276z" />
<glyph unicode="[" horiz-adv-x="788" d="M256 1827h434v-182h-254v-1889h254v-182h-434v2253z" />
<glyph unicode="\" horiz-adv-x="724" d="M4 1622h193l524 -1843h-193z" />
<glyph unicode="]" horiz-adv-x="788" d="M532 -426h-434v182h254v1889h-254v182h434v-2253z" />
<glyph unicode="^" d="M543 1417h190l361 -850h-193l-264 637l-262 -637h-193z" />
<glyph unicode="_" horiz-adv-x="1120" d="M0 -121h1128v-182h-1128v182z" />
<glyph unicode="`" horiz-adv-x="600" d="M90 1577l195 125l225 -428l-139 -88z" />
<glyph unicode="a" horiz-adv-x="1177" d="M299 797l-111 219q164 119 404 119q101 0 178.5 -22.5t137.5 -72.5t92 -137.5t32 -210.5v-692h-254v59q-130 -73 -284 -73q-112 0 -198 37t-139 118.5t-53 198.5q0 178 114.5 274.5t303.5 96.5q123 0 238 -41v4q0 112 -48 156t-149 44q-149 0 -264 -77zM559 211 q94 0 201 39v242q-86 22 -170 22q-100 0 -162.5 -38.5t-62.5 -119.5q0 -74 55 -109.5t139 -35.5z" />
<glyph unicode="b" horiz-adv-x="1228" d="M154 1419l276 94v-491q116 113 277 113q86 0 156 -33.5t116.5 -89t78 -131.5t45 -158t13.5 -170t-13.5 -169.5t-45 -157t-78 -131t-116.5 -89t-156 -33.5q-177 0 -295 131v-104h-258v1419zM637 881q-130 0 -207 -123v-408q76 -125 207 -125q78 0 128 46.5t69.5 116.5 t19.5 165t-19.5 165t-69.5 116.5t-128 46.5z" />
<glyph unicode="c" horiz-adv-x="1067" d="M1024 905l-201 -166q-30 67 -82 103.5t-120 36.5q-103 0 -169.5 -83.5t-66.5 -244.5q0 -159 65.5 -241.5t167.5 -82.5q129 0 201 123l197 -143q-21 -37 -53 -73t-82 -74.5t-123 -62.5t-156 -24q-101 0 -189.5 38t-155.5 109.5t-105.5 183t-38.5 249.5q0 277 143 429.5 t369 152.5q146 0 249 -63.5t150 -166.5z" />
<glyph unicode="d" horiz-adv-x="1228" d="M799 1419l278 94v-1513h-260v104q-118 -131 -295 -131q-86 0 -155.5 33.5t-116 89t-78 131t-45.5 157t-14 169.5t14 170t45.5 158t78 131.5t116 89t155.5 33.5q161 0 277 -113v397zM592 225q127 0 207 123v412q-81 121 -207 121q-78 0 -128 -46.5t-69.5 -116.5 t-19.5 -165t19.5 -165t69.5 -116.5t128 -46.5z" />
<glyph unicode="e" horiz-adv-x="1181" d="M1063 469h-690q19 -125 86.5 -186.5t158.5 -61.5q118 0 191 107l184 -160q-27 -36 -60.5 -67t-81.5 -61.5t-112.5 -48.5t-136.5 -18q-101 0 -189.5 38t-155.5 109.5t-105.5 183.5t-38.5 251q0 276 131 428t344 152q216 0 348.5 -151.5t132.5 -422.5q0 -49 -6 -92z M590 885q-83 0 -139 -56t-76 -159h432q-22 105 -78 160t-139 55z" />
<glyph unicode="f" horiz-adv-x="659" d="M629 1511v-223q-48 6 -90 6q-95 0 -95 -94v-92h181v-225h-181v-883h-278v883h-129v225h129v139q0 81 21 136.5t62 86t91.5 43.5t118.5 13q108 0 170 -15z" />
<glyph unicode="g" horiz-adv-x="1228" d="M817 1108h260v-887q0 -151 -35 -259t-112.5 -184.5t-191 -124t-279.5 -79.5l-31 246q211 47 300 120t89 207v31q-119 -119 -293 -119q-86 0 -156.5 31t-117 83t-78 122.5t-45.5 146t-14 156.5t14 156t45.5 145t78 122t117 83t156.5 31q175 0 293 -121v94zM592 301 q144 0 225 135v316q-83 135 -223 135q-78 0 -129 -41.5t-70.5 -104.5t-19.5 -147q0 -62 11.5 -113t36 -92.5t67.5 -64.5t102 -23z" />
<glyph unicode="h" horiz-adv-x="1232" d="M154 1419l276 94v-487q112 109 291 109q173 0 271 -106t98 -327v-702h-279v670q0 108 -47.5 156t-136.5 48q-139 0 -197 -135v-739h-276v1419z" />
<glyph unicode="i" horiz-adv-x="581" d="M154 1108h276v-1108h-276v1108zM291 1550q66 0 108.5 -43t42.5 -110t-42.5 -110.5t-108.5 -43.5t-108 43t-42 111q0 67 42 110t108 43z" />
<glyph unicode="j" horiz-adv-x="622" d="M193 1108h276v-1204q0 -66 -11 -116.5t-28 -85t-49 -58.5t-63.5 -38t-83 -21t-95 -9t-110.5 -2v248q94 0 129 25.5t35 89.5v1171zM330 1550q66 0 108.5 -43t42.5 -110t-42.5 -110.5t-108.5 -43.5t-108 43t-42 111q0 67 42 110t108 43z" />
<glyph unicode="k" horiz-adv-x="1148" d="M772 1108h295l-332 -416l393 -692h-297l-268 479l-133 -166v-313h-276v1419l276 94v-839z" />
<glyph unicode="l" horiz-adv-x="581" d="M154 1419l276 94v-1513h-276v1419z" />
<glyph unicode="m" horiz-adv-x="1871" d="M154 1108h258v-98q116 125 303 125q222 0 309 -170q120 170 340 170q170 0 266 -105.5t96 -327.5v-702h-276v670q0 204 -180 204q-133 0 -191 -135v-739h-278v670q0 204 -178 204q-64 0 -112 -29.5t-81 -105.5v-739h-276v1108z" />
<glyph unicode="n" horiz-adv-x="1232" d="M154 1108h258v-100q118 127 309 127q173 0 271 -106t98 -327v-702h-279v670q0 108 -47.5 156t-136.5 48q-139 0 -197 -135v-739h-276v1108z" />
<glyph unicode="o" horiz-adv-x="1181" d="M590 1135q216 0 347.5 -152t131.5 -430q0 -277 -131 -428.5t-348 -151.5q-216 0 -346.5 151t-130.5 429q0 279 131 430.5t346 151.5zM590 879q-99 0 -157 -84.5t-58 -243.5q0 -156 58 -240t157 -84q100 0 158.5 83.5t58.5 240.5q0 159 -59 243.5t-158 84.5z" />
<glyph unicode="p" horiz-adv-x="1228" d="M154 1108h258v-107q120 134 295 134q86 0 156 -33.5t116.5 -89t78 -131.5t45 -158t13.5 -170t-13.5 -169.5t-45 -157t-78 -131t-116.5 -89t-156 -33.5q-164 0 -277 113v-418l-276 -94v1534zM637 881q-130 0 -207 -123v-408q78 -125 207 -125q78 0 128 46.5t69.5 116.5 t19.5 165t-19.5 165t-69.5 116.5t-128 46.5z" />
<glyph unicode="q" horiz-adv-x="1228" d="M817 1108h260v-1411l-278 -94v481q-118 -111 -277 -111q-86 0 -155.5 33.5t-116 89t-78 131t-45.5 157t-14 169.5t14 170t45.5 158t78 131.5t116 89t155.5 33.5q174 0 295 -131v104zM592 225q127 0 207 123v410q-80 123 -207 123q-78 0 -128 -46.5t-69.5 -116.5 t-19.5 -165t19.5 -165t69.5 -116.5t128 -46.5z" />
<glyph unicode="r" horiz-adv-x="899" d="M870 1067l-102 -244q-51 51 -143 51q-64 0 -112.5 -30t-82.5 -107v-737h-276v1108h258v-96q108 123 270 123q116 0 188 -68z" />
<glyph unicode="s" horiz-adv-x="999" d="M924 1010l-97 -236q-60 52 -145.5 83.5t-173.5 31.5q-72 0 -104.5 -21.5t-32.5 -54.5q0 -49 69 -80q22 -10 155 -57t198 -82q85 -47 123 -108t38 -158q0 -81 -26.5 -144t-69 -102t-102 -64t-120.5 -35t-130 -10q-145 0 -268.5 40.5t-188.5 97.5l103 231q66 -49 161.5 -82 t194.5 -33q81 0 126.5 25t45.5 74q0 33 -23 53t-79 43q-23 9 -97 36t-134.5 51t-98.5 44q-154 83 -154 252q0 108 58.5 184t153.5 111t218 35q125 0 231 -35.5t169 -89.5z" />
<glyph unicode="t" horiz-adv-x="729" d="M37 1108h129v289l278 94v-383h248v-225h-248v-531q0 -94 107 -94q84 0 147 57l-45 -243q-32 -36 -94 -59t-127 -23q-115 0 -190.5 76.5t-75.5 220.5v596h-129v225z" />
<glyph unicode="u" horiz-adv-x="1232" d="M145 1108h277v-696q0 -89 51.5 -134t134.5 -45q133 0 195 134v741h278v-1108h-260v98q-116 -125 -309 -125q-170 0 -268.5 98.5t-98.5 290.5v746z" />
<glyph unicode="v" horiz-adv-x="1105" d="M20 1108h279l254 -762l252 762h280l-397 -1108h-270z" />
<glyph unicode="w" horiz-adv-x="1466" d="M25 1108h260l149 -645l193 645h215l190 -645l152 645h258l-266 -1108h-238l-205 682l-211 -682h-239z" />
<glyph unicode="x" horiz-adv-x="1161" d="M788 1108h297l-344 -508l400 -600h-307l-256 412l-252 -412h-306l404 621l-332 487h297l201 -313z" />
<glyph unicode="y" horiz-adv-x="1122" d="M20 1108h287l246 -717l272 717h279l-572 -1497h-276l164 430z" />
<glyph unicode="z" horiz-adv-x="1107" d="M141 1108h852v-229l-553 -656h564v-223h-891v233l567 650h-539v225z" />
<glyph unicode="{" horiz-adv-x="788" d="M690 1815v-185q-27 12 -74 12q-24 0 -43 -5.5t-33 -20t-24 -29t-17 -44.5t-11 -53t-7 -68t-4.5 -76.5t-3.5 -90.5q-8 -251 -38 -372.5t-120 -184.5q90 -63 120 -183.5t38 -371.5q2 -59 3.5 -90.5t4.5 -76.5t7 -68t11 -53t17 -44.5t24 -29t33 -20t43 -5.5q45 0 74 13v-185 q-31 -10 -92 -10q-47 0 -85.5 10.5t-67 26.5t-51.5 45.5t-38 56.5t-26.5 71.5t-17.5 78.5t-10 89.5t-5.5 91.5t-3.5 97q-2 84 -5 136.5t-8.5 109.5t-14 89t-22 63t-33.5 46t-47 24t-63 9h-32v162h32q42 0 72 10t50.5 37t33 59t20.5 93t11 120t6 158q2 61 3.5 97.5t5.5 92 t10 89t17.5 78t26.5 71.5t38 57t51.5 46t67 26.5t85.5 10.5q61 0 92 -10z" />
<glyph unicode="|" d="M547 1622h182v-1843h-182v1843z" />
<glyph unicode="}" horiz-adv-x="788" d="M98 -416v185q29 -13 74 -13q24 0 43 5.5t33 20t24 29t17 44.5t11 53t7 68t4.5 76.5t3.5 90.5q8 251 38 372.5t120 184.5q-90 63 -120 183.5t-38 371.5q-2 59 -3.5 90.5t-4.5 76.5t-7 68t-11 53t-17 44.5t-24 29t-33 20t-43 5.5q-47 0 -74 -12v185q31 10 92 10 q47 0 85.5 -10.5t67 -26.5t51.5 -45.5t38.5 -57t26.5 -72t17.5 -78.5t10.5 -89t5.5 -91.5t3.5 -97.5q2 -74 4 -121t6.5 -99.5t10.5 -84t16 -64t23 -50t32.5 -32.5t43.5 -20.5t56 -5.5h33v-162h-33q-32 0 -56 -5.5t-43.5 -20.5t-32.5 -32t-23 -49.5t-16 -64t-10.5 -84 t-6.5 -100t-4 -121.5q-2 -61 -3.5 -97.5t-5.5 -91.5t-10.5 -89t-17.5 -78.5t-26.5 -71.5t-38.5 -56.5t-51.5 -45.5t-67 -26.5t-85.5 -10.5q-61 0 -92 10z" />
<glyph unicode="~" d="M233 549l-147 98q127 238 330 238q57 0 110.5 -19.5t95.5 -46.5t80.5 -54.5t80.5 -47t81 -19.5q111 0 180 164l146 -98q-56 -119 -143.5 -181.5t-190.5 -62.5q-55 0 -108 19t-95 46t-81 54.5t-81.5 46.5t-82.5 19q-107 0 -175 -156z" />
<glyph unicode="&#xa1;" horiz-adv-x="569" d="M436 -279h-305l49 965h207zM285 872q-66 0 -108 43t-42 111t42 111t108 43t107.5 -43t41.5 -111t-41.5 -111t-107.5 -43z" />
<glyph unicode="&#xa2;" d="M573 1526h220v-178q242 -40 358 -258l-186 -140q-53 85 -117.5 127.5t-159.5 42.5q-147 0 -228 -100t-81 -295q0 -192 81 -289.5t228 -97.5q89 0 152 37t118 117l187 -138q-127 -205 -352 -243v-220h-220v222q-205 35 -326.5 193t-121.5 421t121 423t327 196v180z" />
<glyph unicode="&#xa3;" d="M135 791h187v237q0 204 110.5 310t286.5 106q136 0 246 -65t178 -185l-174 -186q-96 174 -234 174q-137 0 -137 -168v-223h403v-152h-403v-174q0 -118 -68 -203h611v-262h-1008v229q90 14 139.5 84.5t49.5 161.5v164h-187v152z" />
<glyph unicode="&#xa4;" horiz-adv-x="1261" d="M213 1255l176 -178q113 76 242 76q126 0 239 -76l181 178l129 -129l-181 -180q72 -112 72 -239q0 -128 -72 -240l181 -178l-129 -129l-179 178q-112 -76 -241 -76q-132 0 -242 74l-176 -176l-129 129l176 178q-70 114 -70 240q0 129 72 241l-178 178zM631 985 q-115 0 -196 -83t-81 -200t80.5 -197.5t196.5 -80.5q111 0 192.5 81t81.5 197t-81.5 199.5t-192.5 83.5z" />
<glyph unicode="&#xa5;" d="M84 399h418v183h-418v182h315l-374 653h317l299 -567l303 567h307l-374 -653h315v-182h-418v-183h418v-182h-418v-217h-272v217h-418v182z" />
<glyph unicode="&#xa6;" d="M547 1622h182v-758h-182v758zM547 537h182v-758h-182v758z" />
<glyph unicode="&#xa7;" horiz-adv-x="1097" d="M997 1257l-170 -151q-108 115 -280 115q-82 0 -129 -26t-47 -77q0 -63 90 -98q39 -15 108.5 -33t125.5 -31.5t120 -41t107.5 -61.5t72.5 -93.5t29 -136.5q0 -169 -127 -277q127 -91 127 -260q0 -173 -125 -265.5t-336 -92.5q-171 0 -294 57.5t-197 151.5l178 151 q133 -143 328 -143q106 0 160.5 37t54.5 104q0 48 -27.5 75t-77.5 44q-37 13 -106.5 31.5t-122.5 32t-116.5 42t-105 64t-70 96.5t-28.5 139q0 174 125 267q-125 82 -125 233t111.5 242.5t310.5 91.5q155 0 264.5 -54.5t171.5 -132.5zM684 731q-35 11 -115 32.5t-108 29.5 q-90 -70 -90 -166q0 -38 14 -66.5t33.5 -45t55.5 -30t64 -19.5t76 -15.5t76 -16.5q103 61 103 166q0 57 -28 85t-81 46z" />
<glyph unicode="&#xa8;" horiz-adv-x="960" d="M725 1550q66 0 107.5 -42.5t41.5 -110.5t-41.5 -111t-107.5 -43t-108 43t-42 111q0 67 42 110t108 43zM233 1550q66 0 109 -43t43 -110t-43 -110.5t-109 -43.5t-107.5 43t-41.5 111t41.5 110.5t107.5 42.5z" />
<glyph unicode="&#xa9;" horiz-adv-x="1679" d="M840 1444q205 0 369 -97t254.5 -265t90.5 -373t-90.5 -373t-254.5 -265.5t-369 -97.5t-369.5 97.5t-255 265.5t-90.5 373q0 153 53.5 289t147 234t227 155t287.5 57zM840 1292q-162 0 -291.5 -77t-201 -210t-71.5 -296t71.5 -296t201 -210.5t291.5 -77.5t291.5 77.5 t200.5 210.5t71 296q0 122 -42 229.5t-115.5 185.5t-179 123t-226.5 45zM1153 954l-119 -88q-35 55 -76 82t-102 27q-94 0 -146.5 -64t-52.5 -188t52.5 -188t146.5 -64q57 0 97.5 24t74.5 76l121 -88q-100 -161 -293 -161q-161 0 -261.5 104.5t-100.5 296.5t100.5 297.5 t263.5 105.5q204 0 295 -172z" />
<glyph unicode="&#xaa;" horiz-adv-x="942" d="M272 1194l-82 162q123 88 297 88q154 0 239 -75.5t85 -252.5v-514h-188v43q-92 -53 -207 -53q-127 0 -207 66.5t-80 195.5q0 133 84.5 204.5t222.5 71.5q92 0 174 -30v2q0 84 -35 116.5t-110 32.5q-110 0 -193 -57zM463 760q74 0 147 26v181q-62 16 -123 16 q-75 0 -120 -28t-45 -89q0 -106 141 -106z" />
<glyph unicode="&#xab;" horiz-adv-x="872" d="M651 1108h193l-258 -555l258 -553h-193l-258 553zM285 1108h192l-258 -555l258 -553h-192l-258 553z" />
<glyph unicode="&#xac;" d="M84 811h1108v-811h-180v629h-928v182z" />
<glyph unicode="&#xad;" horiz-adv-x="749" d="M53 780h643v-213h-643v213z" />
<glyph unicode="&#xae;" horiz-adv-x="1679" d="M840 1444q205 0 369 -97t254.5 -265t90.5 -373t-90.5 -373t-254.5 -265.5t-369 -97.5t-369.5 97.5t-255 265.5t-90.5 373q0 153 53.5 289t147 234t227 155t287.5 57zM840 1292q-162 0 -291.5 -77t-201 -210t-71.5 -296t71.5 -296t201 -210.5t291.5 -77.5t291.5 77.5 t200.5 210.5t71 296q0 122 -42 229.5t-115.5 185.5t-179 123t-226.5 45zM555 1112h326q128 0 203 -63t75 -183q0 -84 -39 -141t-110 -82l186 -307h-184l-166 287h-127v-287h-164v776zM717 965v-203h166q121 0 121 102q0 51 -32.5 76t-88.5 25h-166z" />
<glyph unicode="&#xaf;" horiz-adv-x="1054" d="M84 1528h887v-189h-887v189z" />
<glyph unicode="&#xb0;" horiz-adv-x="884" d="M442 1430q125 0 217.5 -93.5t92.5 -220.5q0 -128 -92.5 -219.5t-217.5 -91.5q-129 0 -219 91t-90 220q0 128 90.5 221t218.5 93zM442 1280q-67 0 -114 -48.5t-47 -117.5t46.5 -116.5t114.5 -47.5q66 0 114 48t48 116q0 69 -48 117.5t-114 48.5z" />
<glyph unicode="&#xb1;" horiz-adv-x="1273" d="M545 1411h182v-467h463v-182h-463v-469h-182v469h-463v182h463v467zM82 193h1108v-183h-1108v183z" />
<glyph unicode="&#xb2;" horiz-adv-x="761" d="M223 1182l-110 106q44 64 117 104t173 40q119 0 185.5 -59.5t66.5 -170.5q0 -110 -82 -176q-31 -25 -111 -68t-114 -67q-32 -22 -44.5 -41.5t-12.5 -48.5h362v-164h-555q0 135 22.5 209.5t76.5 124.5q34 32 79.5 58t90.5 46.5t61 30.5q55 35 55 88q0 37 -21.5 55.5 t-72.5 18.5q-96 0 -166 -86z" />
<glyph unicode="&#xb3;" horiz-adv-x="751" d="M233 1204l-83 125q111 103 245 103q100 0 169 -56t69 -164q0 -85 -43 -137q90 -57 90 -184q0 -122 -79 -195t-216 -73q-185 0 -295 147l119 119q27 -47 78 -75t106 -28q54 0 85.5 27t31.5 78q0 44 -26 65t-81 21h-90v160h88q74 0 74 63q0 68 -86 68q-96 0 -156 -64z" />
<glyph unicode="&#xb4;" horiz-adv-x="600" d="M317 1702l193 -125l-279 -391l-141 88z" />
<glyph unicode="&#xb6;" horiz-adv-x="1280" d="M383 1513h731v-1941h-145v1794h-312v-1794h-147v1386h-127q-135 0 -215 72.5t-80 206.5q0 133 80 204.5t215 71.5z" />
<glyph unicode="&#xb7;" horiz-adv-x="452" d="M225 856q66 0 109 -43.5t43 -110.5t-43 -110t-109 -43q-65 0 -107 43t-42 110t42 110.5t107 43.5z" />
<glyph unicode="&#xb8;" horiz-adv-x="456" d="M143 -39l217 -53l-118 -357l-152 37z" />
<glyph unicode="&#xb9;" horiz-adv-x="542" d="M70 1329h80q74 0 83 88h148v-780h-172v534h-139v158z" />
<glyph unicode="&#xba;" horiz-adv-x="942" d="M471 1444q157 0 253.5 -112.5t96.5 -317.5q0 -207 -96 -319.5t-254 -112.5q-160 0 -256 112.5t-96 319.5q0 206 96 318t256 112zM471 1255q-73 0 -115.5 -62.5t-42.5 -180.5t42 -180t116 -62q72 0 114 62.5t42 179.5q0 118 -42.5 180.5t-113.5 62.5z" />
<glyph unicode="&#xbb;" horiz-adv-x="872" d="M393 1108h193l258 -555l-258 -553h-193l258 553zM27 1108h192l258 -555l-258 -553h-192l258 553z" />
<glyph unicode="&#xbc;" d="M952 1417h193l-912 -1417h-192zM20 1329h80q75 0 84 88h148v-780h-172v534h-140v158zM1032 780h148v-481h75v-149h-75v-150h-172v150h-357v147zM842 299h166v211z" />
<glyph unicode="&#xbd;" d="M918 1417h192l-911 -1417h-193zM6 1329h80q75 0 84 88h147v-780h-172v534h-139v158zM838 545l-111 106q44 63 117.5 103.5t173.5 40.5q119 0 185.5 -59.5t66.5 -170.5q0 -110 -82 -176q-31 -25 -111 -68t-114 -67q-32 -23 -45 -42.5t-13 -47.5h363v-164h-555 q0 136 22 210t76 124q34 32 79.5 58t90.5 46.5t61 30.5q56 35 56 88q0 37 -21.5 55.5t-72.5 18.5q-96 0 -166 -86z" />
<glyph unicode="&#xbe;" d="M1067 1417h193l-912 -1417h-192zM1053 780h147v-481h76v-149h-76v-150h-172v150h-356v147zM862 299h166v211zM141 1204l-84 125q111 103 246 103q100 0 169 -56t69 -164q0 -85 -43 -137q90 -57 90 -184q0 -122 -79 -195t-216 -73q-185 0 -295 147l119 119q27 -47 78 -75 t106 -28q54 0 85.5 27t31.5 78q0 44 -26 65t-81 21h-90v160h88q74 0 74 63q0 68 -86 68q-96 0 -156 -64z" />
<glyph unicode="&#xbf;" horiz-adv-x="1001" d="M768 76l201 -166q-147 -232 -461 -232q-213 0 -330 103t-117 278q0 143 80 250q32 44 109 115.5t96 93.5q38 43 50 80.5t12 83.5h243q0 -81 -17 -139t-56 -111q-31 -42 -100 -105.5t-83 -78.5q-71 -77 -71 -156q0 -74 54.5 -116t149.5 -42q163 0 240 142zM543 868 q-65 0 -107.5 43.5t-42.5 110.5t42.5 110.5t107.5 43.5q66 0 108.5 -43.5t42.5 -110.5t-42.5 -110.5t-108.5 -43.5z" />
<glyph unicode="&#xc0;" horiz-adv-x="1409" d="M543 1417h317l526 -1417h-317l-94 268h-545l-92 -268h-315zM700 1057l-180 -527h365zM434 1884l195 125l225 -428l-139 -88z" />
<glyph unicode="&#xc1;" horiz-adv-x="1409" d="M543 1417h317l526 -1417h-317l-94 268h-545l-92 -268h-315zM700 1057l-180 -527h365zM782 2009l193 -125l-279 -391l-141 88z" />
<glyph unicode="&#xc2;" horiz-adv-x="1409" d="M543 1417h317l526 -1417h-317l-94 268h-545l-92 -268h-315zM700 1057l-180 -527h365zM618 2009h170l320 -385l-125 -125l-281 270l-276 -270l-127 125z" />
<glyph unicode="&#xc3;" horiz-adv-x="1409" d="M543 1417h317l526 -1417h-317l-94 268h-545l-92 -268h-315zM700 1057l-180 -527h365zM393 1591l-131 117q96 184 264 184q52 0 104 -20t86 -43.5t76 -43.5t78 -20q91 0 144 131l131 -114q-45 -94 -114.5 -144.5t-149.5 -50.5q-51 0 -103.5 20t-88.5 43.5t-79 43.5t-78 20 q-87 0 -139 -123z" />
<glyph unicode="&#xc4;" horiz-adv-x="1409" d="M543 1417h317l526 -1417h-317l-94 268h-545l-92 -268h-315zM700 1057l-180 -527h365zM948 1858q66 0 108 -43t42 -111t-42 -111t-108 -43t-107.5 43t-41.5 111t41.5 111t107.5 43zM457 1858q66 0 108.5 -43.5t42.5 -110.5t-42.5 -110.5t-108.5 -43.5t-108 43t-42 111 t42 111t108 43z" />
<glyph unicode="&#xc5;" horiz-adv-x="1409" d="M543 1417h317l526 -1417h-317l-94 268h-545l-92 -268h-315zM700 1057l-180 -527h365zM705 2007q109 0 188.5 -80.5t79.5 -189.5q0 -112 -80 -191.5t-188 -79.5q-110 0 -188.5 79.5t-78.5 191.5q0 109 78.5 189.5t188.5 80.5zM705 1876q-58 0 -98 -41t-40 -100t40 -100.5 t98 -41.5q57 0 98 42t41 100t-41 99.5t-98 41.5z" />
<glyph unicode="&#xc6;" horiz-adv-x="1925" d="M543 1417h1272v-276h-637v-285h450v-266h-450v-314h649v-276h-946v268h-453l-90 -268h-315zM881 1141h-154l-209 -611h363v611z" />
<glyph unicode="&#xc7;" horiz-adv-x="1419" d="M1327 1130l-217 -161q-61 99 -136 148.5t-188 49.5q-172 0 -267 -117t-95 -343t95 -342.5t267 -116.5q104 0 178 44t138 138l219 -160q-185 -297 -535 -297q-143 0 -263.5 47.5t-209 138.5t-138.5 232t-50 318q0 176 49.5 316.5t138.5 231.5t210 139t265 48 q195 0 329.5 -84.5t209.5 -229.5zM659 -39l218 -53l-119 -357l-152 37z" />
<glyph unicode="&#xc8;" horiz-adv-x="1208" d="M164 1417h934v-276h-635v-285h450v-266h-450v-314h649v-276h-948v1417zM373 1884l194 125l226 -428l-140 -88z" />
<glyph unicode="&#xc9;" horiz-adv-x="1208" d="M164 1417h934v-276h-635v-285h450v-266h-450v-314h649v-276h-948v1417zM721 2009l192 -125l-278 -391l-141 88z" />
<glyph unicode="&#xca;" horiz-adv-x="1208" d="M164 1417h934v-276h-635v-285h450v-266h-450v-314h649v-276h-948v1417zM559 2009h170l320 -385l-125 -125l-281 270l-276 -270l-127 125z" />
<glyph unicode="&#xcb;" horiz-adv-x="1208" d="M164 1417h934v-276h-635v-285h450v-266h-450v-314h649v-276h-948v1417zM889 1858q66 0 107.5 -43t41.5 -111t-41.5 -111t-107.5 -43t-108 43t-42 111t42 111t108 43zM397 1858q66 0 109 -43.5t43 -110.5t-43 -110.5t-109 -43.5t-107.5 43t-41.5 111t41.5 111t107.5 43z " />
<glyph unicode="&#xcc;" horiz-adv-x="630" d="M166 1417h301v-1417h-301v1417zM45 1884l195 125l225 -428l-139 -88z" />
<glyph unicode="&#xcd;" horiz-adv-x="632" d="M164 1417h301v-1417h-301v1417zM393 2009l193 -125l-279 -391l-141 88z" />
<glyph unicode="&#xce;" horiz-adv-x="753" d="M227 1417h301v-1417h-301v1417zM293 2009h170l319 -385l-125 -125l-280 270l-277 -270l-127 125z" />
<glyph unicode="&#xcf;" horiz-adv-x="718" d="M209 1417h301v-1417h-301v1417zM606 1858q66 0 108 -43t42 -111t-42 -111t-108 -43t-107.5 43t-41.5 111t41.5 111t107.5 43zM115 1858q66 0 108.5 -43.5t42.5 -110.5t-42.5 -110.5t-108.5 -43.5t-108 43t-42 111t42 111t108 43z" />
<glyph unicode="&#xd0;" horiz-adv-x="1488" d="M164 1417h434q161 0 301 -49.5t243 -138.5t162.5 -222.5t59.5 -293.5q0 -161 -60 -296t-163.5 -225.5t-243.5 -141t-299 -50.5h-434v590h-139v266h139v561zM467 1141v-285h264v-266h-264v-316h133q130 0 233.5 49.5t166.5 150t63 235.5q0 202 -131.5 317t-331.5 115h-133 z" />
<glyph unicode="&#xd1;" horiz-adv-x="1447" d="M164 1417h299l545 -868v868h297v-1417h-273l-569 862v-862h-299v1417zM414 1583l-131 117q96 184 264 184q52 0 104 -20t86 -43.5t76 -43.5t78 -20q90 0 143 131l131 -114q-45 -94 -114.5 -144.5t-149.5 -50.5q-51 0 -103.5 20t-88 43.5t-78.5 43.5t-78 20 q-87 0 -139 -123z" />
<glyph unicode="&#xd2;" horiz-adv-x="1538" d="M768 1444q142 0 260 -48t204 -139t133.5 -231.5t47.5 -318.5q0 -177 -47.5 -317t-133.5 -231t-204 -138.5t-260 -47.5t-259.5 47.5t-203 138.5t-133 231t-47.5 317q0 178 47.5 318.5t133 231.5t203 139t259.5 48zM768 1167q-161 0 -252.5 -117.5t-91.5 -342.5t91 -342 t253 -117q161 0 254.5 117.5t93.5 341.5t-93.5 342t-254.5 118zM498 1884l194 125l226 -428l-140 -88z" />
<glyph unicode="&#xd3;" horiz-adv-x="1538" d="M768 1444q142 0 260 -48t204 -139t133.5 -231.5t47.5 -318.5q0 -177 -47.5 -317t-133.5 -231t-204 -138.5t-260 -47.5t-259.5 47.5t-203 138.5t-133 231t-47.5 317q0 178 47.5 318.5t133 231.5t203 139t259.5 48zM768 1167q-161 0 -252.5 -117.5t-91.5 -342.5t91 -342 t253 -117q161 0 254.5 117.5t93.5 341.5t-93.5 342t-254.5 118zM846 2009l192 -125l-278 -391l-142 88z" />
<glyph unicode="&#xd4;" horiz-adv-x="1538" d="M768 1444q142 0 260 -48t204 -139t133.5 -231.5t47.5 -318.5q0 -177 -47.5 -317t-133.5 -231t-204 -138.5t-260 -47.5t-259.5 47.5t-203 138.5t-133 231t-47.5 317q0 178 47.5 318.5t133 231.5t203 139t259.5 48zM768 1167q-161 0 -252.5 -117.5t-91.5 -342.5t91 -342 t253 -117q161 0 254.5 117.5t93.5 341.5t-93.5 342t-254.5 118zM684 2009h170l320 -385l-125 -125l-281 270l-276 -270l-127 125z" />
<glyph unicode="&#xd5;" horiz-adv-x="1538" d="M768 1444q142 0 260 -48t204 -139t133.5 -231.5t47.5 -318.5q0 -177 -47.5 -317t-133.5 -231t-204 -138.5t-260 -47.5t-259.5 47.5t-203 138.5t-133 231t-47.5 317q0 178 47.5 318.5t133 231.5t203 139t259.5 48zM768 1167q-161 0 -252.5 -117.5t-91.5 -342.5t91 -342 t253 -117q161 0 254.5 117.5t93.5 341.5t-93.5 342t-254.5 118zM459 1591l-131 117q96 184 264 184q52 0 104 -20t86 -43.5t76 -43.5t78 -20q90 0 143 131l131 -114q-45 -94 -114.5 -144.5t-149.5 -50.5q-51 0 -103.5 20t-88 43.5t-78.5 43.5t-78 20q-87 0 -139 -123z" />
<glyph unicode="&#xd6;" horiz-adv-x="1538" d="M768 1444q142 0 260 -48t204 -139t133.5 -231.5t47.5 -318.5q0 -177 -47.5 -317t-133.5 -231t-204 -138.5t-260 -47.5t-259.5 47.5t-203 138.5t-133 231t-47.5 317q0 178 47.5 318.5t133 231.5t203 139t259.5 48zM768 1167q-161 0 -252.5 -117.5t-91.5 -342.5t91 -342 t253 -117q161 0 254.5 117.5t93.5 341.5t-93.5 342t-254.5 118zM1014 1858q66 0 107.5 -43t41.5 -111t-41.5 -111t-107.5 -43t-108 43t-42 111t42 111t108 43zM522 1858q66 0 109 -43.5t43 -110.5t-43 -110.5t-109 -43.5t-107.5 43t-41.5 111t41.5 111t107.5 43z" />
<glyph unicode="&#xd7;" d="M307 1171l330 -333l334 333l127 -129l-330 -333l330 -334l-127 -129l-334 334l-330 -334l-129 129l332 334l-332 333z" />
<glyph unicode="&#xd8;" horiz-adv-x="1538" d="M768 1444q180 0 324 -78l112 174h211l-184 -283q182 -198 182 -550q0 -177 -47.5 -317t-133.5 -231t-204 -138.5t-260 -47.5q-179 0 -322 76l-112 -172h-211l182 281q-180 193 -180 549q0 178 47.5 318.5t133 231.5t203 139t259.5 48zM1116 707q0 166 -59 284l-457 -702 q69 -41 168 -41q161 0 254.5 117.5t93.5 341.5zM768 1167q-161 0 -252.5 -117.5t-91.5 -342.5q0 -174 53 -283l457 700q-70 43 -166 43z" />
<glyph unicode="&#xd9;" horiz-adv-x="1409" d="M145 1417h299v-887q0 -126 72 -197t186 -71q112 0 186.5 71.5t74.5 196.5v887h301v-887q0 -132 -44.5 -237t-122 -170.5t-178 -100t-217.5 -34.5q-115 0 -215 34.5t-177 100t-121 170.5t-44 237v887zM434 1884l195 125l225 -428l-139 -88z" />
<glyph unicode="&#xda;" horiz-adv-x="1409" d="M145 1417h299v-887q0 -126 72 -197t186 -71q112 0 186.5 71.5t74.5 196.5v887h301v-887q0 -132 -44.5 -237t-122 -170.5t-178 -100t-217.5 -34.5q-115 0 -215 34.5t-177 100t-121 170.5t-44 237v887zM782 2009l193 -125l-279 -391l-141 88z" />
<glyph unicode="&#xdb;" horiz-adv-x="1409" d="M145 1417h299v-887q0 -126 72 -197t186 -71q112 0 186.5 71.5t74.5 196.5v887h301v-887q0 -132 -44.5 -237t-122 -170.5t-178 -100t-217.5 -34.5q-115 0 -215 34.5t-177 100t-121 170.5t-44 237v887zM618 2009h170l320 -385l-125 -125l-281 270l-276 -270l-127 125z" />
<glyph unicode="&#xdc;" horiz-adv-x="1409" d="M145 1417h299v-887q0 -126 72 -197t186 -71q112 0 186.5 71.5t74.5 196.5v887h301v-887q0 -132 -44.5 -237t-122 -170.5t-178 -100t-217.5 -34.5q-115 0 -215 34.5t-177 100t-121 170.5t-44 237v887zM950 1858q66 0 108 -43t42 -111t-42 -111t-108 -43t-107.5 43 t-41.5 111t41.5 111t107.5 43zM459 1858q66 0 108.5 -43.5t42.5 -110.5t-42.5 -110.5t-108.5 -43.5t-108 43t-42 111t42 111t108 43z" />
<glyph unicode="&#xdd;" horiz-adv-x="1353" d="M12 1417h344l326 -633l328 633h331l-516 -921v-496h-295v498zM754 2009l192 -125l-278 -391l-142 88z" />
<glyph unicode="&#xde;" horiz-adv-x="1380" d="M164 1417h297v-272h311q235 0 372.5 -117t137.5 -336t-137.5 -334.5t-372.5 -115.5h-309v-242h-299v1417zM461 874v-370h315q104 0 163.5 46t59.5 140q0 92 -59.5 138t-163.5 46h-315z" />
<glyph unicode="&#xdf;" horiz-adv-x="1257" d="M430 1102v-1102h-276v1102q0 205 115.5 315.5t305.5 110.5q184 0 299 -102t115 -291q0 -177 -102 -265q258 -90 258 -399q0 -224 -124 -361t-343 -137q-119 0 -201 37l43 248q55 -31 127 -31q113 0 170 68.5t57 189.5q0 132 -70.5 193t-225.5 61h-37v211h39 q149 0 149 160q0 78 -39 120t-108 42q-68 0 -110 -43t-42 -127z" />
<glyph unicode="&#xe0;" horiz-adv-x="1177" d="M299 797l-111 219q164 119 404 119q101 0 178.5 -22.5t137.5 -72.5t92 -137.5t32 -210.5v-692h-254v59q-130 -73 -284 -73q-112 0 -198 37t-139 118.5t-53 198.5q0 178 114.5 274.5t303.5 96.5q123 0 238 -41v4q0 112 -48 156t-149 44q-149 0 -264 -77zM559 211 q94 0 201 39v242q-86 22 -170 22q-100 0 -162.5 -38.5t-62.5 -119.5q0 -74 55 -109.5t139 -35.5zM317 1577l195 125l225 -428l-139 -88z" />
<glyph unicode="&#xe1;" horiz-adv-x="1177" d="M299 797l-111 219q164 119 404 119q101 0 178.5 -22.5t137.5 -72.5t92 -137.5t32 -210.5v-692h-254v59q-130 -73 -284 -73q-112 0 -198 37t-139 118.5t-53 198.5q0 178 114.5 274.5t303.5 96.5q123 0 238 -41v4q0 112 -48 156t-149 44q-149 0 -264 -77zM559 211 q94 0 201 39v242q-86 22 -170 22q-100 0 -162.5 -38.5t-62.5 -119.5q0 -74 55 -109.5t139 -35.5zM666 1702l192 -125l-278 -391l-142 88z" />
<glyph unicode="&#xe2;" horiz-adv-x="1177" d="M299 797l-111 219q164 119 404 119q101 0 178.5 -22.5t137.5 -72.5t92 -137.5t32 -210.5v-692h-254v59q-130 -73 -284 -73q-112 0 -198 37t-139 118.5t-53 198.5q0 178 114.5 274.5t303.5 96.5q123 0 238 -41v4q0 112 -48 156t-149 44q-149 0 -264 -77zM559 211 q94 0 201 39v242q-86 22 -170 22q-100 0 -162.5 -38.5t-62.5 -119.5q0 -74 55 -109.5t139 -35.5zM504 1702h170l319 -385l-125 -125l-280 270l-277 -270l-127 125z" />
<glyph unicode="&#xe3;" horiz-adv-x="1177" d="M299 797l-111 219q164 119 404 119q101 0 178.5 -22.5t137.5 -72.5t92 -137.5t32 -210.5v-692h-254v59q-130 -73 -284 -73q-112 0 -198 37t-139 118.5t-53 198.5q0 178 114.5 274.5t303.5 96.5q123 0 238 -41v4q0 112 -48 156t-149 44q-149 0 -264 -77zM559 211 q94 0 201 39v242q-86 22 -170 22q-100 0 -162.5 -38.5t-62.5 -119.5q0 -74 55 -109.5t139 -35.5zM276 1284l-131 117q45 86 112 135t153 49q52 0 104 -20t86 -43.5t76 -43.5t78 -20q90 0 143 131l131 -114q-45 -94 -114.5 -144.5t-149.5 -50.5q-51 0 -103.5 20t-88 43.5 t-78.5 43.5t-78 20q-88 0 -140 -123z" />
<glyph unicode="&#xe4;" horiz-adv-x="1177" d="M299 797l-111 219q164 119 404 119q101 0 178.5 -22.5t137.5 -72.5t92 -137.5t32 -210.5v-692h-254v59q-130 -73 -284 -73q-112 0 -198 37t-139 118.5t-53 198.5q0 178 114.5 274.5t303.5 96.5q123 0 238 -41v4q0 112 -48 156t-149 44q-149 0 -264 -77zM559 211 q94 0 201 39v242q-86 22 -170 22q-100 0 -162.5 -38.5t-62.5 -119.5q0 -74 55 -109.5t139 -35.5zM836 1550q66 0 107.5 -42.5t41.5 -110.5t-41.5 -111t-107.5 -43t-108 43t-42 111q0 67 42 110t108 43zM344 1550q66 0 109 -43t43 -110t-43 -110.5t-109 -43.5t-107.5 43 t-41.5 111t41.5 110.5t107.5 42.5z" />
<glyph unicode="&#xe5;" horiz-adv-x="1177" d="M299 797l-111 219q164 119 404 119q101 0 178.5 -22.5t137.5 -72.5t92 -137.5t32 -210.5v-692h-254v59q-130 -73 -284 -73q-112 0 -198 37t-139 118.5t-53 198.5q0 178 114.5 274.5t303.5 96.5q123 0 238 -41v4q0 112 -48 156t-149 44q-149 0 -264 -77zM559 211 q94 0 201 39v242q-86 22 -170 22q-100 0 -162.5 -38.5t-62.5 -119.5q0 -74 55 -109.5t139 -35.5zM588 1700q109 0 188.5 -80.5t79.5 -189.5q0 -112 -80 -191.5t-188 -79.5q-110 0 -188 79.5t-78 191.5q0 109 78 189.5t188 80.5zM588 1569q-58 0 -97.5 -41.5t-39.5 -100.5 t39.5 -100t97.5 -41q57 0 98 41.5t41 99.5t-41 100t-98 42z" />
<glyph unicode="&#xe6;" horiz-adv-x="1839" d="M1720 469h-690q19 -125 87 -186.5t159 -61.5q117 0 190 107l185 -160q-37 -49 -84 -89t-129 -73t-176 -33q-105 0 -197.5 40t-157.5 116q-188 -143 -407 -143q-177 0 -286.5 90t-109.5 264q0 178 114.5 274.5t303.5 96.5q123 0 238 -41v4q0 112 -48.5 156t-150.5 44 q-147 0 -262 -77l-111 219q164 119 404 119q233 0 338 -121q124 121 315 121q217 0 349 -152t132 -428q0 -43 -6 -86zM559 211q109 0 260 63q-38 93 -47 213q-99 27 -158 27q-249 0 -249 -158q0 -74 55 -109.5t139 -35.5zM1247 885q-83 0 -139 -56t-76 -159h432 q-22 105 -78 160t-139 55z" />
<glyph unicode="&#xe7;" horiz-adv-x="1067" d="M1024 905l-201 -166q-30 67 -82 103.5t-120 36.5q-103 0 -169.5 -83.5t-66.5 -244.5q0 -159 65.5 -241.5t167.5 -82.5q129 0 201 123l197 -143q-21 -37 -53 -73t-82 -74.5t-123 -62.5t-156 -24q-101 0 -189.5 38t-155.5 109.5t-105.5 183t-38.5 249.5q0 277 143 429.5 t369 152.5q146 0 249 -63.5t150 -166.5zM489 -39l218 -53l-119 -357l-152 37z" />
<glyph unicode="&#xe8;" horiz-adv-x="1181" d="M1063 469h-690q19 -125 86.5 -186.5t158.5 -61.5q118 0 191 107l184 -160q-27 -36 -60.5 -67t-81.5 -61.5t-112.5 -48.5t-136.5 -18q-101 0 -189.5 38t-155.5 109.5t-105.5 183.5t-38.5 251q0 276 131 428t344 152q216 0 348.5 -151.5t132.5 -422.5q0 -49 -6 -92z M590 885q-83 0 -139 -56t-76 -159h432q-22 105 -78 160t-139 55zM319 1577l195 125l225 -428l-139 -88z" />
<glyph unicode="&#xe9;" horiz-adv-x="1181" d="M1063 469h-690q19 -125 86.5 -186.5t158.5 -61.5q118 0 191 107l184 -160q-27 -36 -60.5 -67t-81.5 -61.5t-112.5 -48.5t-136.5 -18q-101 0 -189.5 38t-155.5 109.5t-105.5 183.5t-38.5 251q0 276 131 428t344 152q216 0 348.5 -151.5t132.5 -422.5q0 -49 -6 -92z M590 885q-83 0 -139 -56t-76 -159h432q-22 105 -78 160t-139 55zM668 1702l192 -125l-278 -391l-142 88z" />
<glyph unicode="&#xea;" horiz-adv-x="1181" d="M1063 469h-690q19 -125 86.5 -186.5t158.5 -61.5q118 0 191 107l184 -160q-27 -36 -60.5 -67t-81.5 -61.5t-112.5 -48.5t-136.5 -18q-101 0 -189.5 38t-155.5 109.5t-105.5 183.5t-38.5 251q0 276 131 428t344 152q216 0 348.5 -151.5t132.5 -422.5q0 -49 -6 -92z M590 885q-83 0 -139 -56t-76 -159h432q-22 105 -78 160t-139 55zM506 1702h170l319 -385l-125 -125l-280 270l-277 -270l-127 125z" />
<glyph unicode="&#xeb;" horiz-adv-x="1181" d="M1063 469h-690q19 -125 86.5 -186.5t158.5 -61.5q118 0 191 107l184 -160q-27 -36 -60.5 -67t-81.5 -61.5t-112.5 -48.5t-136.5 -18q-101 0 -189.5 38t-155.5 109.5t-105.5 183.5t-38.5 251q0 276 131 428t344 152q216 0 348.5 -151.5t132.5 -422.5q0 -49 -6 -92z M590 885q-83 0 -139 -56t-76 -159h432q-22 105 -78 160t-139 55zM838 1550q66 0 107.5 -42.5t41.5 -110.5t-41.5 -111t-107.5 -43t-108 43t-42 111q0 67 42 110t108 43zM346 1550q66 0 109 -43t43 -110t-43 -110.5t-109 -43.5t-107.5 43t-41.5 111t41.5 110.5t107.5 42.5z " />
<glyph unicode="&#xec;" horiz-adv-x="585" d="M25 1577l194 125l225 -428l-139 -88zM158 1108h276v-1108h-276v1108z" />
<glyph unicode="&#xed;" horiz-adv-x="585" d="M369 1702l192 -125l-278 -391l-142 88zM154 1108h276v-1108h-276v1108z" />
<glyph unicode="&#xee;" horiz-adv-x="733" d="M229 1108h277v-1108h-277v1108zM283 1702h170l319 -385l-125 -125l-280 270l-277 -270l-127 125z" />
<glyph unicode="&#xef;" horiz-adv-x="804" d="M647 1550q66 0 108 -43t42 -110q0 -68 -42 -111t-108 -43t-107.5 43t-41.5 111t41.5 110.5t107.5 42.5zM156 1550q66 0 108.5 -43t42.5 -110t-42.5 -110.5t-108.5 -43.5t-108 43t-42 111q0 67 42 110t108 43zM264 1108h277v-1108h-277v1108z" />
<glyph unicode="&#xf0;" horiz-adv-x="1208" d="M762 1642l94 -47l-74 -147q156 -100 225.5 -277t69.5 -446q0 -176 -27.5 -312t-84.5 -235.5t-150 -152t-219 -52.5q-150 0 -260.5 73t-166.5 196.5t-56 281.5q0 219 108.5 344t296.5 125q164 0 293 -106q-9 134 -40.5 213.5t-96.5 126.5l-68 -137l-94 47l70 141 q-68 24 -156 45l31 248q136 -28 233 -72zM586 229q80 0 130 52.5t71.5 144t25.5 233.5q-125 125 -254 125q-94 0 -142 -69.5t-48 -190.5q0 -132 56.5 -213.5t160.5 -81.5z" />
<glyph unicode="&#xf1;" horiz-adv-x="1232" d="M154 1108h258v-100q118 127 309 127q173 0 271 -106t98 -327v-702h-279v670q0 108 -47.5 156t-136.5 48q-139 0 -197 -135v-739h-276v1108zM305 1284l-131 117q96 184 264 184q52 0 104 -20t86 -43.5t76 -43.5t78 -20q91 0 144 131l131 -114q-45 -94 -114.5 -144.5 t-149.5 -50.5q-51 0 -103.5 20t-88.5 43.5t-79 43.5t-78 20q-87 0 -139 -123z" />
<glyph unicode="&#xf2;" horiz-adv-x="1181" d="M590 1135q216 0 347.5 -152t131.5 -430q0 -277 -131 -428.5t-348 -151.5q-216 0 -346.5 151t-130.5 429q0 279 131 430.5t346 151.5zM590 879q-99 0 -157 -84.5t-58 -243.5q0 -156 58 -240t157 -84q100 0 158.5 83.5t58.5 240.5q0 159 -59 243.5t-158 84.5zM319 1577 l195 125l225 -428l-139 -88z" />
<glyph unicode="&#xf3;" horiz-adv-x="1181" d="M590 1135q216 0 347.5 -152t131.5 -430q0 -277 -131 -428.5t-348 -151.5q-216 0 -346.5 151t-130.5 429q0 279 131 430.5t346 151.5zM590 879q-99 0 -157 -84.5t-58 -243.5q0 -156 58 -240t157 -84q100 0 158.5 83.5t58.5 240.5q0 159 -59 243.5t-158 84.5zM668 1702 l192 -125l-278 -391l-142 88z" />
<glyph unicode="&#xf4;" horiz-adv-x="1181" d="M590 1135q216 0 347.5 -152t131.5 -430q0 -277 -131 -428.5t-348 -151.5q-216 0 -346.5 151t-130.5 429q0 279 131 430.5t346 151.5zM590 879q-99 0 -157 -84.5t-58 -243.5q0 -156 58 -240t157 -84q100 0 158.5 83.5t58.5 240.5q0 159 -59 243.5t-158 84.5zM506 1702h170 l319 -385l-125 -125l-280 270l-277 -270l-127 125z" />
<glyph unicode="&#xf5;" horiz-adv-x="1181" d="M590 1135q216 0 347.5 -152t131.5 -430q0 -277 -131 -428.5t-348 -151.5q-216 0 -346.5 151t-130.5 429q0 279 131 430.5t346 151.5zM590 879q-99 0 -157 -84.5t-58 -243.5q0 -156 58 -240t157 -84q100 0 158.5 83.5t58.5 240.5q0 159 -59 243.5t-158 84.5zM279 1284 l-132 117q45 86 112 135t153 49q52 0 104 -20t86 -43.5t76 -43.5t78 -20q90 0 143 131l131 -114q-45 -94 -114.5 -144.5t-149.5 -50.5q-51 0 -103.5 20t-88 43.5t-78.5 43.5t-78 20q-87 0 -139 -123z" />
<glyph unicode="&#xf6;" horiz-adv-x="1181" d="M590 1135q216 0 347.5 -152t131.5 -430q0 -277 -131 -428.5t-348 -151.5q-216 0 -346.5 151t-130.5 429q0 279 131 430.5t346 151.5zM590 879q-99 0 -157 -84.5t-58 -243.5q0 -156 58 -240t157 -84q100 0 158.5 83.5t58.5 240.5q0 159 -59 243.5t-158 84.5zM836 1550 q66 0 107.5 -42.5t41.5 -110.5t-41.5 -111t-107.5 -43t-108 43t-42 111q0 67 42 110t108 43zM344 1550q66 0 109 -43t43 -110t-43 -110.5t-109 -43.5t-107.5 43t-41.5 111t41.5 110.5t107.5 42.5z" />
<glyph unicode="&#xf7;" horiz-adv-x="1273" d="M82 801h1108v-183h-1108v183zM635 393q66 0 108.5 -43t42.5 -110t-42.5 -110.5t-108.5 -43.5q-65 0 -107.5 43.5t-42.5 110.5t42.5 110t107.5 43zM635 1327q66 0 108.5 -43t42.5 -110t-42.5 -110.5t-108.5 -43.5q-65 0 -107.5 43.5t-42.5 110.5t42.5 110t107.5 43z" />
<glyph unicode="&#xf8;" horiz-adv-x="1181" d="M590 1135q108 0 198 -41l80 147h193l-135 -246q143 -156 143 -442q0 -277 -131 -428.5t-348 -151.5q-113 0 -203 41l-76 -137h-192l131 238q-137 153 -137 438q0 279 131 430.5t346 151.5zM807 551q0 99 -27 178l-268 -487q34 -15 78 -15q100 0 158.5 83.5t58.5 240.5z M590 879q-99 0 -157 -84.5t-58 -243.5q0 -95 22 -166l265 479q-34 15 -72 15z" />
<glyph unicode="&#xf9;" horiz-adv-x="1232" d="M145 1108h277v-696q0 -89 51.5 -134t134.5 -45q133 0 195 134v741h278v-1108h-260v98q-116 -125 -309 -125q-170 0 -268.5 98.5t-98.5 290.5v746zM344 1577l195 125l225 -428l-139 -88z" />
<glyph unicode="&#xfa;" horiz-adv-x="1232" d="M145 1108h277v-696q0 -89 51.5 -134t134.5 -45q133 0 195 134v741h278v-1108h-260v98q-116 -125 -309 -125q-170 0 -268.5 98.5t-98.5 290.5v746zM692 1702l193 -125l-279 -391l-141 88z" />
<glyph unicode="&#xfb;" horiz-adv-x="1232" d="M145 1108h277v-696q0 -89 51.5 -134t134.5 -45q133 0 195 134v741h278v-1108h-260v98q-116 -125 -309 -125q-170 0 -268.5 98.5t-98.5 290.5v746zM530 1702h170l320 -385l-125 -125l-281 270l-276 -270l-127 125z" />
<glyph unicode="&#xfc;" horiz-adv-x="1232" d="M145 1108h277v-696q0 -89 51.5 -134t134.5 -45q133 0 195 134v741h278v-1108h-260v98q-116 -125 -309 -125q-170 0 -268.5 98.5t-98.5 290.5v746zM862 1550q66 0 108 -43t42 -110q0 -68 -42 -111t-108 -43t-107.5 43t-41.5 111t41.5 110.5t107.5 42.5zM371 1550 q66 0 108.5 -43t42.5 -110t-42.5 -110.5t-108.5 -43.5t-108 43t-42 111q0 67 42 110t108 43z" />
<glyph unicode="&#xfd;" horiz-adv-x="1122" d="M20 1108h287l246 -717l272 717h279l-572 -1497h-276l164 430zM639 1702l192 -125l-278 -391l-141 88z" />
<glyph unicode="&#xfe;" horiz-adv-x="1228" d="M154 1419l276 94v-491q116 113 277 113q86 0 156 -33.5t116.5 -89t78 -131.5t45 -158t13.5 -170t-13.5 -169.5t-45 -157t-78 -131t-116.5 -89t-156 -33.5q-164 0 -277 113v-418l-276 -94v1845zM637 881q-130 0 -207 -123v-408q76 -125 207 -125q78 0 128 46.5t69.5 116.5 t19.5 165t-19.5 165t-69.5 116.5t-128 46.5z" />
<glyph unicode="&#xff;" horiz-adv-x="1122" d="M20 1108h287l246 -717l272 717h279l-572 -1497h-276l164 430zM805 1550q66 0 107.5 -42.5t41.5 -110.5t-41.5 -111t-107.5 -43t-108 43t-42 111q0 67 42 110t108 43zM313 1550q66 0 109 -43t43 -110t-43 -110.5t-109 -43.5t-107.5 43t-41.5 111t41.5 110.5t107.5 42.5z " />
<glyph unicode="&#x152;" horiz-adv-x="2166" d="M768 1444q198 0 352 -94v67h934v-276h-635v-285h451v-266h-451v-314h649v-276h-948v66q-152 -93 -352 -93q-142 0 -259.5 47.5t-203 138.5t-133 231t-47.5 317q0 178 47.5 318.5t133 231.5t203 139t259.5 48zM768 1167q-161 0 -252.5 -117.5t-91.5 -342.5t91 -342 t253 -117q161 0 254.5 117.5t93.5 341.5t-93.5 342t-254.5 118z" />
<glyph unicode="&#x153;" horiz-adv-x="1882" d="M590 1135q222 0 350 -158q133 158 348 158q216 0 348.5 -151.5t132.5 -422.5q0 -49 -6 -92h-690q19 -125 87 -186.5t159 -61.5q117 0 190 107l185 -160q-27 -36 -60.5 -67t-81.5 -61.5t-112.5 -48.5t-136.5 -18q-107 0 -199.5 40.5t-157.5 119.5q-130 -160 -356 -160 q-216 0 -346.5 151t-130.5 429q0 279 131 430.5t346 151.5zM590 879q-99 0 -157 -84.5t-58 -243.5q0 -156 58 -240t157 -84q100 0 158.5 83.5t58.5 240.5q0 159 -59 243.5t-158 84.5zM1290 885q-83 0 -139 -56t-76 -159h432q-22 105 -78 160t-139 55z" />
<glyph unicode="&#x178;" horiz-adv-x="1353" d="M12 1417h344l326 -633l328 633h331l-516 -921v-496h-295v498zM922 1858q66 0 107.5 -43t41.5 -111t-41.5 -111t-107.5 -43t-108 43t-42 111t42 111t108 43zM430 1858q66 0 109 -43.5t43 -110.5t-43 -110.5t-109 -43.5t-107.5 43t-41.5 111t41.5 111t107.5 43z" />
<glyph unicode="&#x2c6;" horiz-adv-x="862" d="M362 1702h170l320 -385l-125 -125l-281 270l-276 -270l-127 125z" />
<glyph unicode="&#x2dc;" horiz-adv-x="1050" d="M215 1284l-131 117q96 184 264 184q52 0 104 -20t86 -43.5t76 -43.5t78 -20q91 0 144 131l131 -114q-45 -94 -114.5 -144.5t-150.5 -50.5q-51 0 -103.5 20t-88 43.5t-78.5 43.5t-78 20q-87 0 -139 -123z" />
<glyph unicode="&#x2000;" horiz-adv-x="1004" />
<glyph unicode="&#x2001;" horiz-adv-x="2009" />
<glyph unicode="&#x2002;" horiz-adv-x="1004" />
<glyph unicode="&#x2003;" horiz-adv-x="2009" />
<glyph unicode="&#x2004;" horiz-adv-x="669" />
<glyph unicode="&#x2005;" horiz-adv-x="502" />
<glyph unicode="&#x2006;" horiz-adv-x="334" />
<glyph unicode="&#x2007;" horiz-adv-x="334" />
<glyph unicode="&#x2008;" horiz-adv-x="251" />
<glyph unicode="&#x2009;" horiz-adv-x="401" />
<glyph unicode="&#x200a;" horiz-adv-x="111" />
<glyph unicode="&#x2010;" horiz-adv-x="749" d="M53 780h643v-213h-643v213z" />
<glyph unicode="&#x2011;" horiz-adv-x="749" d="M53 780h643v-213h-643v213z" />
<glyph unicode="&#x2012;" horiz-adv-x="749" d="M53 780h643v-213h-643v213z" />
<glyph unicode="&#x2013;" horiz-adv-x="1067" d="M53 780h961v-213h-961v213z" />
<glyph unicode="&#x2014;" horiz-adv-x="1499" d="M53 780h1393v-213h-1393v213z" />
<glyph unicode="&#x2018;" horiz-adv-x="452" d="M305 946l-264 88l223 498l156 -51z" />
<glyph unicode="&#x2019;" horiz-adv-x="452" d="M152 1530l264 -88l-223 -498l-156 51z" />
<glyph unicode="&#x201a;" horiz-adv-x="452" d="M152 299l264 -88l-223 -498l-156 51z" />
<glyph unicode="&#x201c;" horiz-adv-x="845" d="M696 946l-264 88l223 498l156 -51zM305 946l-264 88l223 498l156 -51z" />
<glyph unicode="&#x201d;" horiz-adv-x="845" d="M545 1530l264 -88l-223 -498l-156 51zM152 1530l264 -88l-223 -498l-156 51z" />
<glyph unicode="&#x201e;" horiz-adv-x="845" d="M545 299l264 -88l-223 -498l-156 51zM152 299l264 -88l-223 -498l-156 51z" />
<glyph unicode="&#x2022;" horiz-adv-x="679" d="M338 932q85 0 143 -60.5t58 -148.5t-58.5 -150.5t-142.5 -62.5t-143.5 62.5t-59.5 150.5t59 148.5t144 60.5z" />
<glyph unicode="&#x2026;" horiz-adv-x="1738" d="M1491 291q66 0 108.5 -43.5t42.5 -110.5t-42.5 -110t-108.5 -43q-65 0 -107.5 43t-42.5 110t42.5 110.5t107.5 43.5zM264 291q66 0 109 -43.5t43 -110.5t-43 -110t-109 -43q-65 0 -107 43t-42 110t42 110.5t107 43.5zM887 291q66 0 108.5 -43.5t42.5 -110.5t-42.5 -110 t-108.5 -43q-65 0 -107.5 43t-42.5 110t42.5 110.5t107.5 43.5z" />
<glyph unicode="&#x202f;" horiz-adv-x="401" />
<glyph unicode="&#x2039;" horiz-adv-x="505" d="M285 1108h192l-258 -555l258 -553h-192l-258 553z" />
<glyph unicode="&#x203a;" horiz-adv-x="505" d="M27 1108h192l258 -555l-258 -553h-192l258 553z" />
<glyph unicode="&#x205f;" horiz-adv-x="502" />
<glyph unicode="&#x20ac;" d="M117 932h90q50 249 206.5 380.5t385.5 131.5q272 0 436 -182l-145 -203q-53 64 -114 95.5t-153 31.5q-260 0 -331 -254h559l-74 -152h-510q-2 -23 -2 -71q0 -55 2 -82h459l-74 -154h-358q35 -119 109.5 -180.5t182.5 -61.5q85 0 154.5 32.5t101.5 86.5l207 -139 q-66 -111 -189.5 -174.5t-283.5 -63.5q-230 0 -375 133t-192 367h-166l74 154h71q-2 25 -2 78q0 50 2 75h-145z" />
<glyph unicode="&#x2122;" horiz-adv-x="1603" d="M750 1516h153l205 -449l203 449h147v-709h-149v364l-174 -364h-64l-172 371v-371h-149v709zM47 1516h555v-140h-203v-569h-149v569h-203v140z" />
<glyph unicode="&#x25fc;" horiz-adv-x="1105" d="M0 1106h1106v-1106h-1106v1106z" />
</font>
</defs>
</svg>
