<?xml version="1.0" standalone="no"?>
<!DOCTYPE svg PUBLIC "-//W3C//DTD SVG 1.1//EN" "http://www.w3.org/Graphics/SVG/1.1/DTD/svg11.dtd" >
<svg xmlns="http://www.w3.org/2000/svg">
<metadata></metadata>
<defs>
<font id="expresswayregular" horiz-adv-x="1245" >
<font-face units-per-em="2048" ascent="1638" descent="-410" />
<missing-glyph horiz-adv-x="536" />
<glyph horiz-adv-x="0" />
<glyph horiz-adv-x="682" />
<glyph horiz-adv-x="612" />
<glyph unicode=" "  horiz-adv-x="536" />
<glyph unicode="&#x09;" horiz-adv-x="536" />
<glyph unicode="&#xa0;" horiz-adv-x="536" />
<glyph unicode="!" horiz-adv-x="462" d="M123 1442h215l-35 -1020h-145zM229 219q50 0 81.5 -32.5t31.5 -84.5q0 -51 -31.5 -83.5t-81.5 -32.5q-49 0 -79.5 32.5t-30.5 83.5q0 53 30.5 85t79.5 32z" />
<glyph unicode="&#x22;" horiz-adv-x="647" d="M385 1513h188l-34 -677h-119zM74 1513h188l-35 -677h-118z" />
<glyph unicode="#" d="M74 502h243l74 393h-246v111h267l77 411h115l-78 -411h324l78 411h112l-77 -411h208v-111h-229l-74 -393h232v-111h-252l-72 -391h-112l71 391h-323l-74 -391h-113l72 391h-223v111zM506 895l-74 -393h324l73 393h-323z" />
<glyph unicode="$" d="M571 1550h156v-198q237 -30 367 -191l-127 -112q-132 143 -338 143q-118 0 -187 -46.5t-69 -123.5q0 -89 116 -137q56 -21 201 -50t211 -55q223 -90 223 -303q0 -160 -108 -253.5t-289 -114.5v-242h-156v237q-152 10 -266.5 69.5t-185.5 150.5l137 112q142 -172 385 -172 q139 0 222 55.5t83 155.5q0 116 -133 162q-49 19 -191.5 49.5t-213.5 58.5q-103 40 -157 104.5t-54 164.5q0 141 98 232t276 106v198z" />
<glyph unicode="%" d="M989 1417h141l-872 -1417h-139zM963 750q128 0 206 -106t78 -300q0 -193 -78 -298t-206 -105q-126 0 -203.5 105.5t-77.5 297.5q0 194 77.5 300t203.5 106zM963 629q-74 0 -117 -73.5t-43 -211.5t43 -210.5t117 -72.5q75 0 119 72.5t44 210.5t-44 211.5t-119 73.5z M279 1477q128 0 206 -106t78 -300q0 -193 -78 -298t-206 -105q-126 0 -203.5 105.5t-77.5 297.5q0 194 77.5 300t203.5 106zM279 1356q-74 0 -117 -73.5t-43 -211.5t43 -210.5t117 -72.5q75 0 119 72.5t44 210.5t-44 211.5t-119 73.5z" />
<glyph unicode="&#x26;" horiz-adv-x="1378" d="M995 1296l-141 -116q-34 77 -95 122.5t-143 45.5q-96 0 -153 -61t-57 -157q0 -178 229 -428q127 -138 309 -286q80 151 80 323h193q-3 -250 -109 -448q120 -90 242 -158l-101 -178q-130 77 -262 176q-161 -158 -414 -158q-228 0 -360.5 123.5t-132.5 339.5q0 273 231 393 q-94 165 -94 318q0 172 106 276.5t289 104.5q141 0 239.5 -64t143.5 -168zM565 154q144 0 260 106q-170 144 -305 293q-69 72 -125 147q-129 -84 -129 -245q0 -140 86 -220.5t213 -80.5z" />
<glyph unicode="'" horiz-adv-x="335" d="M74 1513h188l-35 -677h-118z" />
<glyph unicode="(" horiz-adv-x="772" d="M561 1827h148q-363 -520 -363 -1127q0 -606 363 -1126h-148q-348 521 -348 1126q0 606 348 1127z" />
<glyph unicode=")" horiz-adv-x="772" d="M211 -426h-148q363 520 363 1126q0 607 -363 1127h148q348 -521 348 -1127q0 -605 -348 -1126z" />
<glyph unicode="*" horiz-adv-x="925" d="M55 1262l363 -140l-23 391h133l-20 -389l360 140l43 -127l-372 -99l241 -305l-106 -78l-209 328l-209 -330l-109 78l242 305l-373 99z" />
<glyph unicode="+" d="M557 1257h131v-481h467v-133h-467v-481h-131v481h-465v133h465v481z" />
<glyph unicode="," horiz-adv-x="387" d="M141 225l193 -59l-178 -453l-111 37z" />
<glyph unicode="-" horiz-adv-x="735" d="M59 750h617v-152h-617v152z" />
<glyph unicode="." horiz-adv-x="385" d="M193 219q50 0 81 -32.5t31 -84.5q0 -51 -31.5 -83.5t-80.5 -32.5q-48 0 -79.5 32.5t-31.5 83.5q0 52 31.5 84.5t79.5 32.5z" />
<glyph unicode="/" horiz-adv-x="669" d="M514 1622h141l-501 -1843h-142z" />
<glyph unicode="0" horiz-adv-x="1302" d="M649 1444q233 0 374.5 -192t141.5 -545q0 -351 -141.5 -542.5t-374.5 -191.5q-230 0 -371 191.5t-141 542.5q0 352 141 544.5t371 192.5zM649 1260q-151 0 -239 -142.5t-88 -410.5t87.5 -408.5t239.5 -140.5q153 0 242.5 141t89.5 408q0 268 -89.5 410.5t-242.5 142.5z " />
<glyph unicode="1" horiz-adv-x="610" d="M68 1264h77q59 0 88 37.5t35 115.5h174v-1417h-194v1087h-180v177z" />
<glyph unicode="2" horiz-adv-x="1175" d="M250 1063l-131 131q81 122 207.5 186t279.5 64q95 0 178 -26t147 -75t101 -129t37 -180q0 -104 -41 -181t-125 -136q-59 -40 -213 -111t-221 -119q-88 -63 -119 -133t-31 -168h746v-186h-965v66q0 177 41.5 299t141.5 208q57 46 142 89.5t174.5 82.5t131.5 64 q76 44 111 94.5t35 122.5q0 115 -75 174.5t-190 59.5q-110 0 -203 -52t-159 -145z" />
<glyph unicode="3" horiz-adv-x="1183" d="M299 1124l-109 136q194 184 433 184q80 0 151.5 -22.5t130 -68t93 -122t34.5 -176.5q0 -182 -108 -273q188 -85 188 -331q0 -220 -138 -349t-374 -129q-175 0 -295.5 71t-214.5 198l150 127q60 -94 157.5 -152.5t214.5 -58.5q132 0 222 74t90 214q0 119 -72.5 173.5 t-226.5 54.5h-146v178h148q107 0 166 43t59 147q0 113 -68 165.5t-168 52.5q-92 0 -176 -37t-141 -99z" />
<glyph unicode="4" horiz-adv-x="1218" d="M805 1417h184v-956h148v-168h-148v-293h-194v293h-713v184zM283 461h512v661z" />
<glyph unicode="5" horiz-adv-x="1261" d="M221 1417h828v-186h-668l-29 -338q156 98 340 98q95 0 175 -28.5t143 -85.5t99 -151.5t36 -217.5q0 -111 -30.5 -201.5t-82 -151.5t-122 -103t-149 -60.5t-165.5 -18.5q-94 0 -174 22t-141.5 63.5t-105 84.5t-85.5 99l150 129q60 -94 155 -152.5t215 -58.5q148 0 243 92 t95 256q0 154 -83 232.5t-218 78.5q-186 0 -321 -151l-168 53z" />
<glyph unicode="6" horiz-adv-x="1257" d="M924 1417v-186q-259 -3 -405.5 -119t-184.5 -330q147 158 366 158q199 0 320 -124.5t121 -326.5q0 -105 -35 -199t-99 -164.5t-160 -111.5t-210 -41q-130 0 -228.5 52t-156.5 142.5t-86.5 202.5t-28.5 242q0 238 90.5 417.5t270 282.5t426.5 105zM676 778 q-105 0 -197.5 -49t-159.5 -137q2 -96 22.5 -174t59 -136.5t100.5 -91t142 -32.5q147 0 234.5 96t87.5 235q0 130 -76.5 209.5t-212.5 79.5z" />
<glyph unicode="7" horiz-adv-x="1079" d="M59 1417h959v-162q-122 -143 -210.5 -290.5t-146.5 -305.5t-93 -313t-60 -346h-197q42 370 149 672.5t306 558.5h-707v186z" />
<glyph unicode="8" horiz-adv-x="1157" d="M72 418q0 254 209 358q-129 98 -129 291q0 97 36.5 171.5t98 118t136 65.5t157.5 22q81 0 154.5 -22t135 -65.5t98 -118t36.5 -171.5q0 -95 -33.5 -169.5t-93.5 -121.5q208 -103 208 -358q0 -202 -131.5 -323.5t-373.5 -121.5q-243 0 -375.5 121.5t-132.5 323.5zM262 426 q0 -124 89.5 -196t228.5 -72q137 0 226 72t89 196q0 122 -88 187t-227 65q-140 0 -229 -65t-89 -187zM332 1049q0 -101 71 -153t177 -52q105 0 175 52t70 153q0 103 -71 157t-174 54q-105 0 -176.5 -54t-71.5 -157z" />
<glyph unicode="9" horiz-adv-x="1257" d="M334 186q258 1 405 117.5t185 331.5q-147 -158 -369 -158q-197 0 -317.5 124.5t-120.5 326.5q0 105 35.5 199t99 164.5t160 111.5t211.5 41q128 0 226 -52t156 -142.5t86.5 -202.5t28.5 -242q0 -237 -91 -417t-270 -283t-425 -105v186zM582 639q105 0 196.5 48.5 t159.5 135.5q-5 198 -86 317.5t-238 119.5q-147 0 -234 -96.5t-87 -235.5q0 -130 76.5 -209.5t212.5 -79.5z" />
<glyph unicode=":" horiz-adv-x="452" d="M225 1038q50 0 81.5 -32t31.5 -84q0 -51 -32 -84t-81 -33q-47 0 -78.5 33t-31.5 84q0 52 31 84t79 32zM225 362q50 0 81.5 -32t31.5 -84q0 -51 -32 -84t-81 -33q-47 0 -78.5 33t-31.5 84q0 52 31 84t79 32z" />
<glyph unicode=";" horiz-adv-x="452" d="M150 369l192 -60l-178 -452l-111 37zM225 1038q50 0 81.5 -32t31.5 -84q0 -51 -32 -84t-81 -33q-47 0 -78.5 33t-31.5 84q0 52 31 84t79 32z" />
<glyph unicode="&#x3c;" d="M92 778l1063 432v-141l-903 -360l903 -357v-141l-1063 430v137z" />
<glyph unicode="=" d="M92 1020h1063v-131h-1063v131zM92 528h1063v-131h-1063v131z" />
<glyph unicode="&#x3e;" d="M1153 643l-1063 -432v141l901 359l-901 358v141l1063 -430v-137z" />
<glyph unicode="?" horiz-adv-x="978" d="M170 1133l-141 116q139 232 440 232q203 0 315.5 -103.5t112.5 -273.5q0 -152 -90 -260q-34 -43 -110.5 -110t-102.5 -99q-40 -48 -53 -94t-13 -119h-172q0 98 17 160t59 118q34 44 107.5 107.5t93.5 85.5q80 90 80 188q0 99 -68.5 159t-187.5 60q-195 0 -287 -167z M436 219q48 0 79.5 -32.5t31.5 -84.5q0 -51 -31.5 -83.5t-79.5 -32.5q-51 0 -81.5 32.5t-30.5 83.5q0 53 30.5 85t81.5 32z" />
<glyph unicode="@" horiz-adv-x="1544" d="M946 838h121v-490q0 -104 80 -104q88 0 133 91.5t45 242.5q0 141 -41 247.5t-112.5 169t-159.5 93t-191 30.5q-260 0 -411.5 -176t-151.5 -467q0 -134 34.5 -244.5t91 -184.5t132 -126t154 -77t159.5 -29l-38 -131q-104 8 -200 39.5t-184.5 94t-153.5 150.5t-103.5 217 t-38.5 285q0 187 54.5 336.5t150 246.5t224 148t279.5 51q104 0 197 -24t173.5 -76t139 -128t92 -186.5t33.5 -244.5q0 -217 -86 -342t-233 -125q-143 0 -183 111q-76 -111 -200 -111q-65 0 -115 31.5t-79 84.5t-43.5 115.5t-14.5 132.5t14 133t43 116.5t79.5 85.5t115.5 32 q118 0 194 -100v82zM782 244q102 0 156 112v269q-60 114 -158 114q-57 0 -93.5 -36.5t-50 -89.5t-13.5 -121t15 -122t52 -90t92 -36z" />
<glyph unicode="A" horiz-adv-x="1368" d="M569 1417h224l544 -1417h-221l-112 305h-642l-110 -305h-221zM680 1178l-250 -686h504z" />
<glyph unicode="B" horiz-adv-x="1316" d="M166 1417h614q191 0 304.5 -97.5t113.5 -279.5q0 -222 -176 -303q223 -88 223 -340q0 -190 -120.5 -293.5t-344.5 -103.5h-614v1417zM371 637v-449h407q134 0 202.5 57t68.5 165q0 227 -293 227h-385zM371 1227v-418h415q94 0 154.5 55.5t60.5 157.5q0 100 -59 152.5 t-156 52.5h-415z" />
<glyph unicode="C" horiz-adv-x="1378" d="M1280 1130l-152 -114q-64 115 -151 174t-213 59q-197 0 -311.5 -139.5t-114.5 -402.5t114.5 -402t311.5 -139q116 0 201 51.5t155 165.5l156 -113q-179 -297 -516 -297q-136 0 -250.5 47.5t-199.5 138.5t-133 232t-48 318q0 176 47.5 316.5t132.5 231.5t201 139t254 48 q186 0 315 -84.5t201 -229.5z" />
<glyph unicode="D" horiz-adv-x="1443" d="M166 1417h416q154 0 288 -49.5t233 -138.5t155.5 -222.5t56.5 -293.5q0 -129 -37 -242t-104 -198.5t-157.5 -147.5t-201.5 -93.5t-233 -31.5h-416v1417zM377 1223v-1030h207q146 0 263 60.5t187 179.5t70 278q0 236 -147.5 374t-372.5 138h-207z" />
<glyph unicode="E" horiz-adv-x="1175" d="M166 1417h895v-194h-686v-404h510v-188h-510v-436h700v-195h-909v1417z" />
<glyph unicode="F" horiz-adv-x="1071" d="M166 1417h852v-194h-643v-426h479v-191h-479v-606h-209v1417z" />
<glyph unicode="G" horiz-adv-x="1443" d="M805 756h522v-166q0 -281 -149.5 -449t-415.5 -168q-138 0 -253.5 47.5t-200.5 138t-132 230.5t-47 316q0 177 47.5 318t132.5 232.5t201 140t254 48.5q186 0 315 -84.5t201 -229.5l-152 -114q-61 115 -149.5 174t-216.5 59q-195 0 -309.5 -139.5t-114.5 -402.5 q0 -261 114.5 -401t309.5 -140q164 0 262 105t102 304h-321v181z" />
<glyph unicode="H" horiz-adv-x="1398" d="M166 1417h209v-596h649v596h209v-1417h-209v627h-649v-627h-209v1417z" />
<glyph unicode="I" horiz-adv-x="542" d="M166 1417h211v-1417h-211v1417z" />
<glyph unicode="J" horiz-adv-x="1179" d="M823 1417h209v-887q0 -236 -145.5 -389t-380.5 -153q-158 0 -289 81.5t-188 225.5l157 117q44 -113 131.5 -172.5t192.5 -59.5q143 0 228 93t85 257v887z" />
<glyph unicode="K" horiz-adv-x="1298" d="M963 1417h231l-453 -557l529 -860h-234l-426 698l-235 -288v-410h-209v1417h209v-731z" />
<glyph unicode="L" horiz-adv-x="1150" d="M166 1417h209v-1222h725v-195h-934v1417z" />
<glyph unicode="M" horiz-adv-x="1669" d="M166 1417h217l467 -1050l467 1050h207v-1417h-209v928l-424 -928h-92l-424 934v-934h-209v1417z" />
<glyph unicode="N" horiz-adv-x="1404" d="M166 1417h209l676 -1044v1044h209v-1417h-195l-690 1034v-1034h-209v1417z" />
<glyph unicode="O" horiz-adv-x="1492" d="M743 1444q136 0 249.5 -48t196 -139t128 -231.5t45.5 -318.5q0 -177 -45.5 -317t-128 -231t-196 -138.5t-249.5 -47.5q-135 0 -247 47.5t-194 138.5t-127.5 231t-45.5 317q0 178 45.5 318.5t127.5 231.5t194 139t247 48zM743 1249q-186 0 -295.5 -140t-109.5 -402 q0 -261 109.5 -401t295.5 -140q188 0 300 140t112 401q0 262 -112 402t-300 140z" />
<glyph unicode="P" horiz-adv-x="1316" d="M166 1417h590q222 0 350.5 -114.5t128.5 -329.5q0 -217 -128.5 -331t-350.5 -114h-381v-528h-209v1417zM375 1227v-514h383q130 0 205 65.5t75 192.5q0 126 -75 191t-205 65h-383z" />
<glyph unicode="Q" horiz-adv-x="1492" d="M743 1444q136 0 249.5 -48t196 -139t128 -231.5t45.5 -318.5q0 -363 -184 -560l116 -155l-147 -113l-119 158q-131 -64 -285 -64q-135 0 -247 47.5t-194 138.5t-127.5 231t-45.5 317q0 178 45.5 318.5t127.5 231.5t194 139t247 48zM709 463l147 112l195 -260 q104 142 104 392q0 262 -112 402t-300 140q-186 0 -295.5 -140t-109.5 -402q0 -261 109.5 -401t295.5 -140q92 0 162 33z" />
<glyph unicode="R" horiz-adv-x="1337" d="M166 1417h579q221 0 349.5 -111.5t128.5 -324.5q0 -165 -78.5 -270t-218.5 -144l364 -567h-237l-340 545h-338v-545h-209v1417zM375 1227v-502h375q127 0 200.5 63.5t73.5 188.5q0 124 -73.5 187t-200.5 63h-375z" />
<glyph unicode="S" horiz-adv-x="1300" d="M63 240l156 127q167 -199 451 -199q161 0 256.5 64.5t95.5 181.5q0 74 -39.5 116t-114.5 70q-60 22 -222.5 57t-244.5 68q-119 47 -180 121t-61 192q0 176 135 285t373 109q187 0 317.5 -65t204.5 -161l-146 -129q-148 166 -385 166q-138 0 -218.5 -53t-80.5 -143 q0 -62 36.5 -99.5t99.5 -62.5q62 -24 226.5 -57.5t246.5 -65.5q55 -22 97.5 -49t80 -67.5t58 -99t20.5 -130.5q0 -105 -43.5 -188t-120 -136t-179.5 -80.5t-225 -27.5q-201 0 -353 70.5t-241 185.5z" />
<glyph unicode="T" horiz-adv-x="1169" d="M51 1417h1065v-194h-426v-1223h-209v1223h-430v194z" />
<glyph unicode="U" horiz-adv-x="1368" d="M147 1417h211v-887q0 -166 91 -258t233 -92q141 0 234.5 92.5t93.5 257.5v887h209v-887q0 -132 -42 -237t-116 -170.5t-170.5 -100t-208.5 -34.5q-89 0 -168.5 21.5t-146.5 65.5t-116 107.5t-76.5 152.5t-27.5 195v887z" />
<glyph unicode="V" horiz-adv-x="1368" d="M31 1417h225l430 -1165l424 1165h227l-540 -1417h-224z" />
<glyph unicode="W" horiz-adv-x="1810" d="M33 1417h221l252 -1038l299 1038h203l295 -1038l258 1038h217l-357 -1417h-202l-314 1038l-323 -1038h-199z" />
<glyph unicode="X" horiz-adv-x="1327" d="M1032 1417h234l-473 -684l503 -733h-249l-392 582l-383 -582h-241l510 754l-469 663h239l363 -530z" />
<glyph unicode="Y" horiz-adv-x="1314" d="M20 1417h242l397 -704l402 704h233l-532 -895v-522h-207v522z" />
<glyph unicode="Z" horiz-adv-x="1210" d="M152 1417h944v-200l-727 -1022h727v-195h-975v207l739 1016h-708v194z" />
<glyph unicode="[" horiz-adv-x="772" d="M254 1827h416v-133h-285v-1987h285v-133h-416v2253z" />
<glyph unicode="\" horiz-adv-x="669" d="M12 1622h142l501 -1843h-141z" />
<glyph unicode="]" horiz-adv-x="772" d="M518 -426h-416v133h285v1987h-285v133h416v-2253z" />
<glyph unicode="^" d="M553 1417h139l369 -850h-141l-297 695l-297 -695h-142z" />
<glyph unicode="_" horiz-adv-x="1073" d="M0 -145h1081v-134h-1081v134z" />
<glyph unicode="`" horiz-adv-x="593" d="M109 1591l139 92l237 -446l-98 -63z" />
<glyph unicode="a" horiz-adv-x="1144" d="M268 840l-78 155q156 115 388 115q96 0 170 -21.5t131.5 -69.5t87.5 -131t30 -200v-688h-180v78q-140 -92 -319 -92q-172 0 -280.5 88.5t-108.5 259.5q0 174 113.5 268t299.5 94q153 0 285 -57v37q0 138 -63.5 194t-188.5 56q-162 0 -287 -86zM541 147q141 0 266 64v301 q-112 41 -238 41q-124 0 -200 -52.5t-76 -156.5q0 -99 69 -148t179 -49z" />
<glyph unicode="b" horiz-adv-x="1196" d="M156 1446l194 67v-555q124 152 316 152q87 0 158 -32.5t117.5 -86.5t78.5 -128.5t45.5 -154.5t13.5 -167q0 -110 -23 -208t-70 -180.5t-129.5 -131t-190.5 -48.5q-204 0 -326 164v-137h-184v1446zM621 932q-174 0 -271 -176v-426q91 -176 268 -176q75 0 130 31.5t85.5 87 t45 122.5t14.5 148q0 80 -14 147t-44.5 123t-85 87.5t-128.5 31.5z" />
<glyph unicode="c" horiz-adv-x="1040" d="M989 885l-141 -115q-35 78 -97.5 119t-144.5 41q-131 0 -215 -101t-84 -288q0 -186 82.5 -286.5t206.5 -100.5q159 0 248 151l139 -102q-21 -36 -51.5 -71.5t-78.5 -73.5t-118 -61.5t-149 -23.5q-98 0 -182.5 37t-148.5 107.5t-101 180t-37 245.5q0 270 136 418.5 t353 148.5q142 0 241 -61.5t142 -163.5z" />
<glyph unicode="d" horiz-adv-x="1196" d="M846 1448l194 65v-1513h-182v139q-127 -166 -330 -166q-87 0 -157 32.5t-116.5 86.5t-77.5 128t-44.5 154t-13.5 167t13.5 167t44.5 154.5t77.5 128.5t116.5 86.5t157 32.5q194 0 318 -152v490zM578 154q173 0 268 174v428q-100 176 -271 176q-74 0 -128.5 -32t-85 -88 t-44.5 -123.5t-14 -147.5t14.5 -146.5t45 -122t85.5 -87t130 -31.5z" />
<glyph unicode="e" horiz-adv-x="1148" d="M1028 475h-729q11 -108 55 -183t105 -108.5t135 -33.5q76 0 137 34.5t100 91.5l130 -112q-56 -77 -150 -134t-225 -57q-98 0 -182.5 36.5t-148.5 106.5t-101 181t-37 250q0 266 125.5 414.5t330.5 148.5t332 -149t127 -414q0 -26 -4 -72zM575 934q-114 0 -187.5 -82 t-88.5 -231h551q-17 152 -90.5 232.5t-184.5 80.5z" />
<glyph unicode="f" horiz-adv-x="618" d="M580 1509v-159q-45 10 -99 10q-119 0 -119 -119v-158h213v-159h-213v-924h-194v924h-123v159h123v189q0 141 68 196.5t194 55.5q96 0 150 -15z" />
<glyph unicode="g" horiz-adv-x="1196" d="M858 1083h182v-876q0 -196 -63 -322t-189 -198t-339 -113l-23 174q232 53 332 145.5t100 264.5v39q-124 -152 -328 -152q-87 0 -158 30.5t-117 82t-77.5 121t-45 144t-13.5 155.5t13.5 155.5t45 144t77.5 120.5t117 81.5t158 30.5q202 0 328 -154v127zM578 215 q181 0 280 178v365q-96 176 -278 176q-61 0 -109 -20t-79 -53.5t-51.5 -80t-29 -97t-8.5 -108.5q0 -73 14.5 -135t45 -114t85.5 -81.5t130 -29.5z" />
<glyph unicode="h" horiz-adv-x="1200" d="M156 1448l194 65v-550q122 147 332 147q173 0 272 -103t99 -321v-686h-195v666q0 260 -237 260q-192 0 -271 -191v-735h-194v1448z" />
<glyph unicode="i" horiz-adv-x="505" d="M156 1083h194v-1083h-194v1083zM252 1497q50 0 81.5 -32.5t31.5 -84.5q0 -51 -31.5 -83.5t-81.5 -32.5q-49 0 -80 32.5t-31 83.5q0 52 30.5 84.5t80.5 32.5z" />
<glyph unicode="j" horiz-adv-x="585" d="M233 1083h195v-1204q0 -54 -6.5 -96t-21.5 -73.5t-32.5 -54t-46.5 -37.5t-56 -24t-69 -13t-77 -5.5t-88 -1.5v176q117 0 159.5 30.5t42.5 119.5v1183zM332 1497q50 0 81 -32.5t31 -84.5q0 -51 -31.5 -83.5t-80.5 -32.5t-80 32.5t-31 83.5q0 52 30.5 84.5t80.5 32.5z" />
<glyph unicode="k" horiz-adv-x="1118" d="M819 1083h211l-375 -426l435 -657h-211l-344 518l-185 -209v-309h-194v1448l194 65v-966z" />
<glyph unicode="l" horiz-adv-x="505" d="M156 1448l194 65v-1513h-194v1448z" />
<glyph unicode="m" horiz-adv-x="1837" d="M156 1083h184v-129q116 156 324 156q238 0 317 -197q119 197 352 197q167 0 262 -103t95 -321v-686h-195v666q0 260 -223 260q-86 0 -148.5 -43.5t-103.5 -143.5v-739h-195v666q0 260 -221 260q-180 0 -254 -185v-741h-194v1083z" />
<glyph unicode="n" horiz-adv-x="1200" d="M156 1083h184v-133q123 160 342 160q173 0 272 -103t99 -321v-686h-195v666q0 260 -237 260q-192 0 -271 -191v-735h-194v1083z" />
<glyph unicode="o" horiz-adv-x="1148" d="M575 1110q205 0 331 -148t126 -419q0 -272 -125.5 -421t-331.5 -149q-208 0 -333 148.5t-125 421.5q0 271 125.5 419t332.5 148zM575 930q-125 0 -198.5 -100.5t-73.5 -288.5q0 -187 73 -287t199 -100q124 0 198.5 100.5t74.5 286.5q0 187 -74.5 288t-198.5 101z" />
<glyph unicode="p" horiz-adv-x="1196" d="M156 1083h184v-137q122 164 326 164q108 0 190.5 -48.5t129.5 -130.5t70 -180t23 -208q0 -87 -13.5 -167.5t-45.5 -154.5t-78.5 -128.5t-117.5 -87t-158 -32.5q-195 0 -316 152v-485l-194 -66v1509zM618 932q-174 0 -268 -178v-426q96 -174 271 -174q74 0 128.5 31.5 t85 87t44.5 122.5t14 148t-14.5 148t-45 122.5t-85.5 87t-130 31.5z" />
<glyph unicode="q" horiz-adv-x="1196" d="M858 1083h182v-1423l-194 -68v531q-126 -150 -318 -150q-87 0 -157 32.5t-116.5 87t-77.5 128.5t-44.5 154.5t-13.5 167.5t13.5 167t44.5 154t77.5 128t116.5 86t157 32q203 0 330 -166v139zM578 154q169 0 268 174v430q-97 174 -268 174q-75 0 -130 -31.5t-85.5 -87 t-45 -122.5t-14.5 -148t14.5 -148t45 -122.5t85.5 -87t130 -31.5z" />
<glyph unicode="r" horiz-adv-x="878" d="M842 1044l-72 -172q-54 54 -156 54q-90 0 -155.5 -43.5t-108.5 -151.5v-731h-194v1083h184v-131q118 158 311 158q121 0 191 -66z" />
<glyph unicode="s" horiz-adv-x="974" d="M899 967l-72 -168q-57 61 -144 99t-187 38q-99 0 -151 -37.5t-52 -95.5q0 -73 92 -113q39 -16 173.5 -54t201.5 -71q85 -42 124.5 -101t39.5 -151q0 -74 -24.5 -133t-65.5 -97t-97.5 -63.5t-117 -36t-127.5 -10.5q-140 0 -256 44.5t-181 109.5l76 164q63 -59 158 -98 t200 -39q108 0 175 41.5t67 117.5q0 44 -27.5 73t-89.5 54q-53 21 -182 58t-178 61q-154 75 -154 240q0 146 113 228.5t291 82.5q128 0 230.5 -41t164.5 -102z" />
<glyph unicode="t" horiz-adv-x="681" d="M45 1083h123v293l194 64v-357h277v-159h-277v-615q0 -64 32.5 -97.5t94.5 -33.5q87 0 156 66l-33 -178q-29 -34 -85 -55t-115 -21q-106 0 -175 71.5t-69 204.5v658h-123v159z" />
<glyph unicode="u" horiz-adv-x="1200" d="M147 1083h195v-682q0 -123 64.5 -183t173.5 -60q92 0 159 44t111 148v733h194v-1083h-184v135q-125 -162 -342 -162q-171 0 -271 99.5t-100 296.5v714z" />
<glyph unicode="v" horiz-adv-x="1077" d="M29 1083h196l314 -858l311 858h199l-414 -1083h-193z" />
<glyph unicode="w" horiz-adv-x="1421" d="M33 1083h184l186 -761l232 761h156l227 -761l190 761h183l-273 -1083h-170l-237 784l-242 -784h-170z" />
<glyph unicode="x" horiz-adv-x="1130" d="M836 1083h213l-367 -499l420 -584h-219l-320 455l-317 -455h-217l422 596l-353 487h211l264 -368z" />
<glyph unicode="y" horiz-adv-x="1093" d="M29 1083h200l310 -823l331 823h197l-590 -1464h-196l163 408z" />
<glyph unicode="z" horiz-adv-x="1079" d="M143 1083h818v-163l-615 -760h625v-160h-854v168l622 756h-596v159z" />
<glyph unicode="{" horiz-adv-x="772" d="M670 1812v-135q-34 15 -84 15q-88 0 -117 -91.5t-37 -345.5q-8 -270 -34.5 -389.5t-108.5 -167.5q82 -48 108.5 -168t34.5 -389q8 -253 37 -344.5t117 -91.5q55 0 84 16v-135q-28 -12 -99 -12q-40 0 -73 9t-58 22t-44.5 39.5t-33.5 51t-24 67.5t-16 76.5t-10.5 91 t-6.5 99t-4 111.5q-4 113 -6.5 166t-9.5 123t-18 99t-30 60t-47 40.5t-69 9.5h-47v121h47q41 0 69 9.5t47 40.5t30 59.5t18 98.5t9.5 123.5t6.5 165.5q4 106 7.5 164.5t13.5 135t27.5 116.5t45.5 80t72 56t104 16q62 0 99 -13z" />
<glyph unicode="|" d="M557 1622h131v-1843h-131v1843z" />
<glyph unicode="}" horiz-adv-x="772" d="M102 -414v135q31 -14 84 -14q88 0 117 91.5t37 344.5q8 270 34.5 389.5t108.5 167.5q-82 48 -108.5 168t-34.5 389q-8 254 -37 345.5t-117 91.5q-53 0 -84 -17v135q30 13 99 13q60 0 104 -16t72 -56t45.5 -80t27.5 -116.5t13.5 -135t7.5 -164.5q4 -112 6.5 -165.5 t9.5 -123.5t18 -98.5t30 -59.5t47 -40.5t69 -9.5h47v-121h-47q-41 0 -69 -9.5t-47 -40.5t-30 -60t-18 -99t-9.5 -123t-6.5 -166q-2 -70 -4 -111.5t-6.5 -99t-10.5 -91t-16 -76.5t-24 -67.5t-33.5 -51t-44.5 -39.5t-58 -22t-73 -9q-65 0 -99 12z" />
<glyph unicode="~" d="M201 584l-107 73q106 222 289 222q59 0 115 -23t99.5 -55.5t85 -65t88.5 -55.5t93 -23q119 0 183 168l106 -73q-48 -109 -122.5 -167.5t-170.5 -58.5q-58 0 -113.5 22.5t-99 55t-85.5 64.5t-89 54.5t-94 22.5q-64 0 -105.5 -40.5t-72.5 -120.5z" />
<glyph unicode="&#xa1;" horiz-adv-x="462" d="M340 -279h-215l35 1020h145zM233 944q-50 0 -81 32.5t-31 84.5q0 51 31.5 84t80.5 33t80 -33t31 -84q0 -52 -30.5 -84.5t-80.5 -32.5z" />
<glyph unicode="&#xa2;" d="M590 1550h155v-198q251 -32 369 -262l-133 -101q-53 99 -127 149t-180 50q-168 0 -265.5 -119t-97.5 -344q0 -222 96.5 -338.5t262.5 -116.5q100 0 174 44.5t133 138.5l131 -99q-132 -221 -363 -248v-239h-155v239q-208 27 -333.5 187.5t-125.5 433.5q0 272 125 434 t334 189v200z" />
<glyph unicode="&#xa3;" d="M141 772h205v256q0 206 96 311t269 105q268 0 395 -250l-121 -131q-94 197 -264 197q-97 0 -139.5 -59.5t-42.5 -180.5v-248h432v-113h-432v-204q0 -182 -84 -269h649v-186h-965v162q106 19 156.5 91t50.5 208v198h-205v113z" />
<glyph unicode="&#xa4;" horiz-adv-x="1224" d="M184 1231l174 -174q115 90 254 90q140 0 256 -92l176 176l95 -94l-181 -181q80 -118 80 -249q0 -134 -80 -252l181 -179l-95 -94l-176 176q-118 -90 -256 -90q-142 0 -254 88l-174 -174l-94 94l176 177q-78 115 -78 254q0 136 78 251l-176 179zM612 1022 q-126 0 -214.5 -93t-88.5 -224q0 -132 88.5 -224t214.5 -92q124 0 213.5 92.5t89.5 223.5q0 130 -90 223.5t-213 93.5z" />
<glyph unicode="&#xa5;" d="M92 350h434v223h-434v134h363l-420 710h225l365 -651l368 651h217l-419 -710h362v-134h-434v-223h434v-133h-434v-217h-193v217h-434v133z" />
<glyph unicode="&#xa6;" d="M557 1622h131v-758h-131v758zM557 537h131v-758h-131v758z" />
<glyph unicode="&#xa7;" horiz-adv-x="1069" d="M956 1257l-120 -108q-115 135 -308 135q-104 0 -164.5 -38.5t-60.5 -110.5q0 -54 37.5 -91.5t97 -59t131.5 -40t144 -42.5t131.5 -58t97 -95t37.5 -145q0 -86 -37 -157.5t-106 -118.5q137 -84 137 -252q0 -158 -114.5 -245t-307.5 -87q-160 0 -275.5 57t-183.5 144 l127 108q134 -153 340 -153q118 0 184 46.5t66 125.5q0 58 -37.5 96t-97 58.5t-131.5 37t-144 39.5t-131.5 57.5t-97 100t-37.5 157.5q0 184 143 275q-137 80 -137 235q0 143 106.5 229.5t291.5 86.5q150 0 254.5 -54.5t164.5 -132.5zM813 590q0 40 -13 72t-39 54t-54 37.5 t-69 27t-73 19t-76 16.5t-69 15q-121 -76 -121 -202q0 -40 10.5 -70.5t33 -51t47 -35t62.5 -26t69 -18.5t77.5 -17t77.5 -18q137 65 137 197z" />
<glyph unicode="&#xa8;" horiz-adv-x="847" d="M647 1497q50 0 80.5 -32.5t30.5 -84.5q0 -51 -31 -83.5t-80 -32.5t-80.5 32.5t-31.5 83.5q0 52 31 84.5t81 32.5zM201 1497q50 0 81 -32.5t31 -84.5q0 -51 -31.5 -83.5t-80.5 -32.5t-80 32.5t-31 83.5q0 52 30.5 84.5t80.5 32.5z" />
<glyph unicode="&#xa9;" horiz-adv-x="1628" d="M813 1444q196 0 353.5 -97t245 -265t87.5 -373t-87.5 -373t-245 -265.5t-353.5 -97.5q-197 0 -354 97.5t-243.5 265.5t-86.5 373t86.5 373t243.5 265t354 97zM813 1333q-165 0 -296.5 -82.5t-204 -224.5t-72.5 -317t72.5 -317.5t204 -225t296.5 -82.5t296.5 82.5t204 225 t72.5 317.5t-72.5 317t-204 224.5t-296.5 82.5zM1137 969l-90 -68q-75 137 -213 137q-116 0 -183 -82t-67 -237q0 -154 67 -235t183 -81q68 0 117.5 30t90.5 97l91 -67q-104 -174 -302 -174q-165 0 -267.5 113t-102.5 319q0 205 103.5 318.5t269.5 113.5q109 0 185 -49.5 t118 -134.5z" />
<glyph unicode="&#xaa;" horiz-adv-x="919" d="M252 1235l-59 121q114 88 284 88q146 0 227.5 -74t81.5 -246v-522h-137v55q-103 -67 -231 -67q-125 0 -205 67.5t-80 196.5q0 133 84 204.5t221 71.5q110 0 203 -43v27q0 105 -45 148t-135 43q-117 0 -209 -70zM453 713q100 0 188 45v233q-85 29 -168 29 q-91 0 -146 -39.5t-55 -120.5q0 -74 49.5 -110.5t131.5 -36.5z" />
<glyph unicode="&#xab;" horiz-adv-x="786" d="M610 1083h140l-248 -540l248 -543h-140l-248 543zM283 1083h139l-248 -540l248 -543h-139l-248 543z" />
<glyph unicode="&#xac;" d="M92 811h1063v-811h-133v678h-930v133z" />
<glyph unicode="&#xad;" horiz-adv-x="735" d="M59 750h617v-152h-617v152z" />
<glyph unicode="&#xae;" horiz-adv-x="1628" d="M813 1444q196 0 353.5 -97t245 -265t87.5 -373t-87.5 -373t-245 -265.5t-353.5 -97.5q-197 0 -354 97.5t-243.5 265.5t-86.5 373t86.5 373t243.5 265t354 97zM813 1333q-165 0 -296.5 -82.5t-204 -224.5t-72.5 -317t72.5 -317.5t204 -225t296.5 -82.5t296.5 82.5t204 225 t72.5 317.5t-72.5 317t-204 224.5t-296.5 82.5zM520 1137h340q129 0 204 -65.5t75 -190.5q0 -97 -46 -158.5t-128 -85.5l215 -332h-140l-200 320h-199v-320h-121v832zM641 1024v-293h221q74 0 117 37.5t43 110.5t-42.5 109t-117.5 36h-221z" />
<glyph unicode="&#xaf;" horiz-adv-x="1028" d="M90 1483h848v-137h-848v137z" />
<glyph unicode="&#xb0;" horiz-adv-x="864" d="M432 1430q122 0 210.5 -91t88.5 -215q0 -126 -88.5 -215.5t-210.5 -89.5q-123 0 -210 89.5t-87 215.5q0 125 87 215.5t210 90.5zM432 1317q-78 0 -132 -56.5t-54 -138.5q0 -81 54 -136.5t132 -55.5q77 0 131.5 55.5t54.5 136.5t-54.5 138t-131.5 57z" />
<glyph unicode="&#xb1;" horiz-adv-x="1236" d="M553 1401h131v-481h467v-134h-467v-481h-131v481h-465v134h465v481zM88 168h1063v-133h-1063v133z" />
<glyph unicode="&#xb2;" horiz-adv-x="765" d="M209 1208l-80 80q41 65 110.5 104.5t163.5 39.5q114 0 179 -58.5t65 -167.5q0 -118 -90 -182q-30 -22 -112.5 -61t-120.5 -66q-39 -29 -54.5 -60.5t-15.5 -78.5h391v-121h-530q0 132 22.5 203t79.5 121q46 39 135.5 79.5t106.5 51.5q35 21 48 46.5t13 61.5 q0 58 -30.5 84.5t-92.5 26.5q-118 0 -188 -103z" />
<glyph unicode="&#xb3;" horiz-adv-x="770" d="M227 1237l-63 92q106 103 239 103q97 0 164.5 -55.5t67.5 -162.5q0 -96 -57 -147q96 -56 96 -186q0 -121 -77 -189.5t-206 -68.5q-180 0 -282 147l86 88q32 -56 85.5 -85.5t116.5 -29.5q71 0 111.5 34.5t40.5 103.5q0 63 -36 89.5t-110 26.5h-81v119h84q60 0 86 20t26 70 q0 105 -119 105q-98 0 -172 -74z" />
<glyph unicode="&#xb4;" horiz-adv-x="593" d="M346 1683l139 -92l-276 -417l-100 63z" />
<glyph unicode="&#xb6;" horiz-adv-x="1243" d="M362 1513h715v-1941h-110v1831h-342v-1831h-111v1417h-152q-124 0 -196 68t-72 196q0 126 72 193t196 67z" />
<glyph unicode="&#xb7;" horiz-adv-x="385" d="M193 784q50 0 81 -32t31 -84q0 -51 -31.5 -84t-80.5 -33q-48 0 -79.5 33t-31.5 84q0 52 31.5 84t79.5 32z" />
<glyph unicode="&#xb8;" horiz-adv-x="454" d="M176 -39l156 -39l-115 -371l-108 27z" />
<glyph unicode="&#xb9;" horiz-adv-x="528" d="M94 1296h84q43 0 63 29t25 92h109v-780h-127v543h-154v116z" />
<glyph unicode="&#xba;" horiz-adv-x="919" d="M461 1444q150 0 243 -112.5t93 -317.5q0 -207 -92.5 -319.5t-243.5 -112.5q-153 0 -245.5 112.5t-92.5 319.5q0 206 92.5 318t245.5 112zM461 1307q-90 0 -143.5 -76t-53.5 -219q0 -142 53 -217.5t144 -75.5q89 0 141.5 76t52.5 217q0 142 -53 218.5t-141 76.5z" />
<glyph unicode="&#xbb;" horiz-adv-x="786" d="M362 1083h140l248 -540l-248 -543h-140l248 543zM35 1083h139l248 -540l-248 -543h-139l248 543z" />
<glyph unicode="&#xbc;" d="M926 1417h141l-872 -1417h-140zM33 1296h84q43 0 63 29t25 92h108v-780h-127v543h-153v116zM1022 780h108v-501h80v-111h-80v-168h-126v168h-371v111zM772 279h232v296z" />
<glyph unicode="&#xbd;" d="M893 1417h141l-872 -1417h-139zM12 1296h84q43 0 63 29t25 92h109v-780h-127v543h-154v116zM795 571l-80 80q41 65 110.5 104.5t163.5 39.5q114 0 179 -58.5t65 -167.5q0 -118 -90 -182q-30 -22 -112.5 -61t-121.5 -66q-39 -29 -54 -60.5t-15 -78.5h391v-121h-531 q0 131 23 202.5t80 121.5q46 39 135 79.5t106 51.5q35 21 48.5 46.5t13.5 61.5q0 58 -30.5 84.5t-92.5 26.5q-118 0 -188 -103z" />
<glyph unicode="&#xbe;" d="M1055 1417h141l-872 -1417h-140zM1057 780h108v-501h80v-111h-80v-168h-127v168h-370v111zM807 279h231v296zM117 1237l-64 92q106 103 240 103q97 0 164 -55.5t67 -162.5q0 -96 -57 -147q96 -56 96 -186q0 -121 -76.5 -189.5t-205.5 -68.5q-181 0 -283 147l86 88 q31 -56 85.5 -85.5t117.5 -29.5q70 0 110.5 34t40.5 104q0 63 -35.5 89.5t-109.5 26.5h-82v119h84q60 0 86.5 20t26.5 70q0 105 -119 105q-98 0 -172 -74z" />
<glyph unicode="&#xbf;" horiz-adv-x="976" d="M795 27l141 -117q-139 -232 -440 -232q-203 0 -315.5 103.5t-112.5 273.5q0 152 90 260q34 43 110.5 110t102.5 99q40 48 52.5 93.5t12.5 119.5h172q0 -98 -17 -160t-59 -118q-34 -44 -107 -108t-93 -85q-80 -90 -80 -188q0 -99 68.5 -159t187.5 -60q195 0 287 168z M528 940q-48 0 -79 32.5t-31 84.5q0 51 31.5 84t78.5 33q51 0 82 -33t31 -84q0 -53 -31 -85t-82 -32z" />
<glyph unicode="&#xc0;" horiz-adv-x="1368" d="M569 1417h224l544 -1417h-221l-112 305h-642l-110 -305h-221zM680 1178l-250 -686h504zM436 1917l139 92l238 -446l-98 -64z" />
<glyph unicode="&#xc1;" horiz-adv-x="1368" d="M569 1417h224l544 -1417h-221l-112 305h-642l-110 -305h-221zM680 1178l-250 -686h504zM791 2009l139 -92l-277 -418l-100 64z" />
<glyph unicode="&#xc2;" horiz-adv-x="1368" d="M569 1417h224l544 -1417h-221l-112 305h-642l-110 -305h-221zM680 1178l-250 -686h504zM621 2009h124l310 -403l-88 -88l-285 307l-281 -307l-90 88z" />
<glyph unicode="&#xc3;" horiz-adv-x="1368" d="M569 1417h224l544 -1417h-221l-112 305h-642l-110 -305h-221zM680 1178l-250 -686h504zM354 1620l-92 92q83 162 234 162q53 0 107 -20.5t91 -45t83.5 -45t86.5 -20.5q99 0 150 127l92 -90q-39 -83 -99.5 -125.5t-134.5 -42.5q-52 0 -106.5 20.5t-92 45t-85 45 t-88.5 20.5q-94 0 -146 -123z" />
<glyph unicode="&#xc4;" horiz-adv-x="1368" d="M569 1417h224l544 -1417h-221l-112 305h-642l-110 -305h-221zM680 1178l-250 -686h504zM905 1823q50 0 80.5 -32.5t30.5 -84.5q0 -51 -31 -84t-80 -33t-80.5 33t-31.5 84q0 52 31 84.5t81 32.5zM459 1823q50 0 81 -32.5t31 -84.5q0 -51 -31.5 -84t-80.5 -33t-80 33 t-31 84q0 52 30.5 84.5t80.5 32.5z" />
<glyph unicode="&#xc5;" horiz-adv-x="1368" d="M569 1417h224l544 -1417h-221l-112 305h-642l-110 -305h-221zM680 1178l-250 -686h504zM682 2001q106 0 182 -78.5t76 -185.5q0 -109 -77 -188t-181 -79q-106 0 -182 79t-76 188q0 108 75.5 186t182.5 78zM682 1903q-67 0 -113.5 -49.5t-46.5 -118.5t47 -118.5t113 -49.5 t113 49.5t47 118.5t-47 118.5t-113 49.5z" />
<glyph unicode="&#xc6;" horiz-adv-x="1861" d="M569 1417h1178v-194h-686v-404h508v-188h-508v-436h698v-195h-907v305h-490l-110 -305h-221zM852 1223h-158l-264 -731h422v731z" />
<glyph unicode="&#xc7;" horiz-adv-x="1378" d="M1280 1130l-152 -114q-64 115 -151 174t-213 59q-197 0 -311.5 -139.5t-114.5 -402.5t114.5 -402t311.5 -139q116 0 201 51.5t155 165.5l156 -113q-179 -297 -516 -297q-136 0 -250.5 47.5t-199.5 138.5t-133 232t-48 318q0 176 47.5 316.5t132.5 231.5t201 139t254 48 q186 0 315 -84.5t201 -229.5zM659 -39l156 -39l-115 -371l-108 27z" />
<glyph unicode="&#xc8;" horiz-adv-x="1175" d="M166 1417h895v-194h-686v-404h510v-188h-510v-436h700v-195h-909v1417zM379 1917l139 92l238 -446l-99 -64z" />
<glyph unicode="&#xc9;" horiz-adv-x="1175" d="M166 1417h895v-194h-686v-404h510v-188h-510v-436h700v-195h-909v1417zM733 2009l139 -92l-276 -418l-100 64z" />
<glyph unicode="&#xca;" horiz-adv-x="1175" d="M166 1417h895v-194h-686v-404h510v-188h-510v-436h700v-195h-909v1417zM563 2009h125l309 -403l-88 -88l-284 307l-281 -307l-90 88z" />
<glyph unicode="&#xcb;" horiz-adv-x="1175" d="M166 1417h895v-194h-686v-404h510v-188h-510v-436h700v-195h-909v1417zM844 1823q49 0 79.5 -32t30.5 -85q0 -51 -30.5 -84t-79.5 -33t-81 33t-32 84q0 52 31.5 84.5t81.5 32.5zM397 1823q50 0 81.5 -32.5t31.5 -84.5q0 -51 -32 -84t-81 -33t-79.5 33t-30.5 84 q0 53 30.5 85t79.5 32z" />
<glyph unicode="&#xcc;" horiz-adv-x="548" d="M172 1417h211v-1417h-211v1417zM29 1917l139 92l238 -446l-99 -64z" />
<glyph unicode="&#xcd;" horiz-adv-x="550" d="M166 1417h211v-1417h-211v1417zM381 2009l139 -92l-276 -418l-101 64z" />
<glyph unicode="&#xce;" horiz-adv-x="708" d="M250 1417h211v-1417h-211v1417zM291 2009h125l309 -403l-88 -88l-285 307l-280 -307l-90 88z" />
<glyph unicode="&#xcf;" horiz-adv-x="620" d="M205 1417h211v-1417h-211v1417zM535 1823q49 0 79.5 -32t30.5 -85q0 -51 -30.5 -84t-79.5 -33t-81 33t-32 84q0 52 31.5 84.5t81.5 32.5zM88 1823q50 0 81.5 -32.5t31.5 -84.5q0 -51 -32 -84t-81 -33t-80 33t-31 84q0 52 30.5 84.5t80.5 32.5z" />
<glyph unicode="&#xd0;" horiz-adv-x="1443" d="M166 1417h416q154 0 288 -49.5t233 -138.5t155.5 -222.5t56.5 -293.5q0 -129 -37 -242t-104 -198.5t-157.5 -147.5t-201.5 -93.5t-233 -31.5h-416v631h-135v188h135v598zM377 1223v-404h332v-188h-332v-438h207q146 0 263 60.5t187 179.5t70 278q0 236 -147.5 374 t-372.5 138h-207z" />
<glyph unicode="&#xd1;" horiz-adv-x="1404" d="M166 1417h209l676 -1044v1044h209v-1417h-195l-690 1034v-1034h-209v1417zM373 1593l-92 93q82 161 233 161q53 0 107 -20.5t91.5 -45t84 -45t86.5 -20.5q52 0 87.5 31.5t61.5 95.5l92 -90q-39 -83 -99.5 -125.5t-133.5 -42.5q-52 0 -106.5 20.5t-92.5 45t-85.5 45 t-88.5 20.5q-50 0 -84.5 -31t-60.5 -92z" />
<glyph unicode="&#xd2;" horiz-adv-x="1492" d="M743 1444q136 0 249.5 -48t196 -139t128 -231.5t45.5 -318.5q0 -177 -45.5 -317t-128 -231t-196 -138.5t-249.5 -47.5q-135 0 -247 47.5t-194 138.5t-127.5 231t-45.5 317q0 178 45.5 318.5t127.5 231.5t194 139t247 48zM743 1249q-186 0 -295.5 -140t-109.5 -402 q0 -261 109.5 -401t295.5 -140q188 0 300 140t112 401q0 262 -112 402t-300 140zM500 1917l139 92l238 -446l-99 -64z" />
<glyph unicode="&#xd3;" horiz-adv-x="1492" d="M743 1444q136 0 249.5 -48t196 -139t128 -231.5t45.5 -318.5q0 -177 -45.5 -317t-128 -231t-196 -138.5t-249.5 -47.5q-135 0 -247 47.5t-194 138.5t-127.5 231t-45.5 317q0 178 45.5 318.5t127.5 231.5t194 139t247 48zM743 1249q-186 0 -295.5 -140t-109.5 -402 q0 -261 109.5 -401t295.5 -140q188 0 300 140t112 401q0 262 -112 402t-300 140zM852 2009l139 -92l-276 -418l-101 64z" />
<glyph unicode="&#xd4;" horiz-adv-x="1492" d="M743 1444q136 0 249.5 -48t196 -139t128 -231.5t45.5 -318.5q0 -177 -45.5 -317t-128 -231t-196 -138.5t-249.5 -47.5q-135 0 -247 47.5t-194 138.5t-127.5 231t-45.5 317q0 178 45.5 318.5t127.5 231.5t194 139t247 48zM743 1249q-186 0 -295.5 -140t-109.5 -402 q0 -261 109.5 -401t295.5 -140q188 0 300 140t112 401q0 262 -112 402t-300 140zM682 2009h125l309 -403l-88 -88l-285 307l-280 -307l-90 88z" />
<glyph unicode="&#xd5;" horiz-adv-x="1492" d="M743 1444q136 0 249.5 -48t196 -139t128 -231.5t45.5 -318.5q0 -177 -45.5 -317t-128 -231t-196 -138.5t-249.5 -47.5q-135 0 -247 47.5t-194 138.5t-127.5 231t-45.5 317q0 178 45.5 318.5t127.5 231.5t194 139t247 48zM743 1249q-186 0 -295.5 -140t-109.5 -402 q0 -261 109.5 -401t295.5 -140q188 0 300 140t112 401q0 262 -112 402t-300 140zM416 1620l-92 92q83 162 233 162q53 0 107 -20.5t91.5 -45t84 -45t86.5 -20.5q52 0 87.5 31.5t61.5 95.5l92 -90q-39 -83 -99.5 -125.5t-133.5 -42.5q-52 0 -106.5 20.5t-92.5 45t-85.5 45 t-88.5 20.5q-50 0 -84.5 -31t-60.5 -92z" />
<glyph unicode="&#xd6;" horiz-adv-x="1492" d="M743 1444q136 0 249.5 -48t196 -139t128 -231.5t45.5 -318.5q0 -177 -45.5 -317t-128 -231t-196 -138.5t-249.5 -47.5q-135 0 -247 47.5t-194 138.5t-127.5 231t-45.5 317q0 178 45.5 318.5t127.5 231.5t194 139t247 48zM743 1249q-186 0 -295.5 -140t-109.5 -402 q0 -261 109.5 -401t295.5 -140q188 0 300 140t112 401q0 262 -112 402t-300 140zM969 1823q49 0 79.5 -32t30.5 -85q0 -51 -30.5 -84t-79.5 -33t-81 33t-32 84q0 52 31.5 84.5t81.5 32.5zM522 1823q50 0 81.5 -32.5t31.5 -84.5q0 -51 -32 -84t-81 -33t-79.5 33t-30.5 84 q0 53 30.5 85t79.5 32z" />
<glyph unicode="&#xd7;" d="M283 1149l340 -346l342 346l92 -92l-340 -348l340 -347l-92 -92l-342 346l-340 -346l-95 92l342 347l-342 348z" />
<glyph unicode="&#xd8;" horiz-adv-x="1492" d="M743 1444q194 0 340 -96l125 192h156l-182 -278q180 -196 180 -555q0 -177 -45.5 -317t-128 -231t-196 -138.5t-249.5 -47.5q-195 0 -337 95l-125 -191h-154l180 277q-178 194 -178 553q0 178 45.5 318.5t127.5 231.5t194 139t247 48zM1155 707q0 232 -92 372l-547 -841 q93 -72 227 -72q188 0 300 140t112 401zM743 1249q-186 0 -295.5 -140t-109.5 -402q0 -232 88 -371l547 842q-95 71 -230 71z" />
<glyph unicode="&#xd9;" horiz-adv-x="1368" d="M147 1417h211v-887q0 -166 91 -258t233 -92q141 0 234.5 92.5t93.5 257.5v887h209v-887q0 -132 -42 -237t-116 -170.5t-170.5 -100t-208.5 -34.5q-89 0 -168.5 21.5t-146.5 65.5t-116 107.5t-76.5 152.5t-27.5 195v887zM436 1917l139 92l238 -446l-98 -64z" />
<glyph unicode="&#xda;" horiz-adv-x="1368" d="M147 1417h211v-887q0 -166 91 -258t233 -92q141 0 234.5 92.5t93.5 257.5v887h209v-887q0 -132 -42 -237t-116 -170.5t-170.5 -100t-208.5 -34.5q-89 0 -168.5 21.5t-146.5 65.5t-116 107.5t-76.5 152.5t-27.5 195v887zM791 2009l139 -92l-277 -418l-100 64z" />
<glyph unicode="&#xdb;" horiz-adv-x="1368" d="M147 1417h211v-887q0 -166 91 -258t233 -92q141 0 234.5 92.5t93.5 257.5v887h209v-887q0 -132 -42 -237t-116 -170.5t-170.5 -100t-208.5 -34.5q-89 0 -168.5 21.5t-146.5 65.5t-116 107.5t-76.5 152.5t-27.5 195v887zM621 2009h124l310 -403l-88 -88l-285 307 l-281 -307l-90 88z" />
<glyph unicode="&#xdc;" horiz-adv-x="1368" d="M147 1417h211v-887q0 -166 91 -258t233 -92q141 0 234.5 92.5t93.5 257.5v887h209v-887q0 -132 -42 -237t-116 -170.5t-170.5 -100t-208.5 -34.5q-89 0 -168.5 21.5t-146.5 65.5t-116 107.5t-76.5 152.5t-27.5 195v887zM909 1823q50 0 80.5 -32.5t30.5 -84.5 q0 -51 -31 -84t-80 -33t-80.5 33t-31.5 84q0 52 31 84.5t81 32.5zM463 1823q50 0 81 -32.5t31 -84.5q0 -51 -31.5 -84t-80.5 -33t-80 33t-31 84q0 52 30.5 84.5t80.5 32.5z" />
<glyph unicode="&#xdd;" horiz-adv-x="1314" d="M20 1417h242l397 -704l402 704h233l-532 -895v-522h-207v522zM764 2009l139 -92l-276 -418l-101 64z" />
<glyph unicode="&#xde;" horiz-adv-x="1339" d="M166 1417h209v-282h381q222 0 350.5 -114t128.5 -329t-128.5 -327.5t-350.5 -112.5h-381v-252h-209v1417zM375 946v-510h385q130 0 204 64t74 190t-74 191t-204 65h-385z" />
<glyph unicode="&#xdf;" horiz-adv-x="1222" d="M350 1100v-1100h-194v1100q0 205 115.5 315.5t299.5 110.5q84 0 157 -24.5t130 -72t90 -125t33 -176.5q0 -195 -127 -282q254 -82 254 -381q0 -226 -126 -359t-341 -133q-122 0 -217 45l33 177q74 -41 164 -41q137 0 217 83.5t80 235.5q0 150 -83 216.5t-260 66.5h-63 v149h70q215 0 215 207q0 116 -64 175t-158 59q-97 0 -161 -63.5t-64 -182.5z" />
<glyph unicode="&#xe0;" horiz-adv-x="1144" d="M268 840l-78 155q156 115 388 115q96 0 170 -21.5t131.5 -69.5t87.5 -131t30 -200v-688h-180v78q-140 -92 -319 -92q-172 0 -280.5 88.5t-108.5 259.5q0 174 113.5 268t299.5 94q153 0 285 -57v37q0 138 -63.5 194t-188.5 56q-162 0 -287 -86zM541 147q141 0 266 64v301 q-112 41 -238 41q-124 0 -200 -52.5t-76 -156.5q0 -99 69 -148t179 -49zM326 1591l139 92l237 -446l-98 -63z" />
<glyph unicode="&#xe1;" horiz-adv-x="1144" d="M268 840l-78 155q156 115 388 115q96 0 170 -21.5t131.5 -69.5t87.5 -131t30 -200v-688h-180v78q-140 -92 -319 -92q-172 0 -280.5 88.5t-108.5 259.5q0 174 113.5 268t299.5 94q153 0 285 -57v37q0 138 -63.5 194t-188.5 56q-162 0 -287 -86zM541 147q141 0 266 64v301 q-112 41 -238 41q-124 0 -200 -52.5t-76 -156.5q0 -99 69 -148t179 -49zM678 1683l139 -92l-276 -417l-101 63z" />
<glyph unicode="&#xe2;" horiz-adv-x="1144" d="M268 840l-78 155q156 115 388 115q96 0 170 -21.5t131.5 -69.5t87.5 -131t30 -200v-688h-180v78q-140 -92 -319 -92q-172 0 -280.5 88.5t-108.5 259.5q0 174 113.5 268t299.5 94q153 0 285 -57v37q0 138 -63.5 194t-188.5 56q-162 0 -287 -86zM541 147q141 0 266 64v301 q-112 41 -238 41q-124 0 -200 -52.5t-76 -156.5q0 -99 69 -148t179 -49zM510 1683h125l309 -403l-88 -88l-285 307l-280 -307l-90 88z" />
<glyph unicode="&#xe3;" horiz-adv-x="1144" d="M268 840l-78 155q156 115 388 115q96 0 170 -21.5t131.5 -69.5t87.5 -131t30 -200v-688h-180v78q-140 -92 -319 -92q-172 0 -280.5 88.5t-108.5 259.5q0 174 113.5 268t299.5 94q153 0 285 -57v37q0 138 -63.5 194t-188.5 56q-162 0 -287 -86zM541 147q141 0 266 64v301 q-112 41 -238 41q-124 0 -200 -52.5t-76 -156.5q0 -99 69 -148t179 -49zM242 1294l-92 92q83 162 233 162q53 0 107 -20.5t91.5 -45t84 -45t86.5 -20.5q52 0 87.5 31.5t61.5 95.5l92 -90q-39 -83 -99.5 -125.5t-133.5 -42.5q-52 0 -106.5 20.5t-92.5 45t-85.5 45t-88.5 20.5 q-50 0 -84.5 -31t-60.5 -92z" />
<glyph unicode="&#xe4;" horiz-adv-x="1144" d="M268 840l-78 155q156 115 388 115q96 0 170 -21.5t131.5 -69.5t87.5 -131t30 -200v-688h-180v78q-140 -92 -319 -92q-172 0 -280.5 88.5t-108.5 259.5q0 174 113.5 268t299.5 94q153 0 285 -57v37q0 138 -63.5 194t-188.5 56q-162 0 -287 -86zM541 147q141 0 266 64v301 q-112 41 -238 41q-124 0 -200 -52.5t-76 -156.5q0 -99 69 -148t179 -49zM799 1497q49 0 79.5 -32t30.5 -85q0 -51 -30.5 -83.5t-79.5 -32.5q-50 0 -81.5 32.5t-31.5 83.5q0 52 31.5 84.5t81.5 32.5zM352 1497q50 0 81.5 -32.5t31.5 -84.5q0 -51 -31.5 -83.5t-81.5 -32.5 q-49 0 -79.5 32.5t-30.5 83.5q0 53 30.5 85t79.5 32z" />
<glyph unicode="&#xe5;" horiz-adv-x="1144" d="M268 840l-78 155q156 115 388 115q96 0 170 -21.5t131.5 -69.5t87.5 -131t30 -200v-688h-180v78q-140 -92 -319 -92q-172 0 -280.5 88.5t-108.5 259.5q0 174 113.5 268t299.5 94q153 0 285 -57v37q0 138 -63.5 194t-188.5 56q-162 0 -287 -86zM541 147q141 0 266 64v301 q-112 41 -238 41q-124 0 -200 -52.5t-76 -156.5q0 -99 69 -148t179 -49zM571 1675q106 0 182 -78.5t76 -185.5q0 -108 -76.5 -187t-181.5 -79q-106 0 -182 78.5t-76 187.5q0 108 75.5 186t182.5 78zM571 1577q-67 0 -113 -49t-46 -119q0 -69 46.5 -118.5t112.5 -49.5 t113 49.5t47 118.5t-47 118.5t-113 49.5z" />
<glyph unicode="&#xe6;" horiz-adv-x="1845" d="M1724 475h-729q11 -108 55 -183t105 -108.5t135 -33.5q76 0 137.5 34.5t100.5 91.5l129 -112q-56 -77 -150 -134t-225 -57q-210 0 -340 154q-97 -68 -215.5 -104.5t-228.5 -36.5q-172 0 -280.5 88.5t-108.5 259.5q0 174 113.5 268t299.5 94q153 0 285 -57v37 q0 138 -63.5 194t-188.5 56q-162 0 -287 -86l-78 155q156 115 388 115q257 0 348 -166q125 166 344 166q205 0 332 -149t127 -414q0 -15 -5 -72zM541 147q146 0 331 93q-50 106 -59 254q-154 59 -244 59q-124 0 -200 -52.5t-76 -156.5q0 -99 69 -148t179 -49zM1272 934 q-114 0 -188 -82t-89 -231h551q-17 152 -90 232.5t-184 80.5z" />
<glyph unicode="&#xe7;" horiz-adv-x="1040" d="M989 885l-141 -115q-35 78 -97.5 119t-144.5 41q-131 0 -215 -101t-84 -288q0 -186 82.5 -286.5t206.5 -100.5q159 0 248 151l139 -102q-21 -36 -51.5 -71.5t-78.5 -73.5t-118 -61.5t-149 -23.5q-98 0 -182.5 37t-148.5 107.5t-101 180t-37 245.5q0 270 136 418.5 t353 148.5q142 0 241 -61.5t142 -163.5zM506 -39l156 -39l-115 -371l-109 27z" />
<glyph unicode="&#xe8;" horiz-adv-x="1148" d="M1028 475h-729q11 -108 55 -183t105 -108.5t135 -33.5q76 0 137 34.5t100 91.5l130 -112q-56 -77 -150 -134t-225 -57q-98 0 -182.5 36.5t-148.5 106.5t-101 181t-37 250q0 266 125.5 414.5t330.5 148.5t332 -149t127 -414q0 -26 -4 -72zM575 934q-114 0 -187.5 -82 t-88.5 -231h551q-17 152 -90.5 232.5t-184.5 80.5zM328 1591l139 92l238 -446l-99 -63z" />
<glyph unicode="&#xe9;" horiz-adv-x="1148" d="M1028 475h-729q11 -108 55 -183t105 -108.5t135 -33.5q76 0 137 34.5t100 91.5l130 -112q-56 -77 -150 -134t-225 -57q-98 0 -182.5 36.5t-148.5 106.5t-101 181t-37 250q0 266 125.5 414.5t330.5 148.5t332 -149t127 -414q0 -26 -4 -72zM575 934q-114 0 -187.5 -82 t-88.5 -231h551q-17 152 -90.5 232.5t-184.5 80.5zM680 1683l139 -92l-276 -417l-101 63z" />
<glyph unicode="&#xea;" horiz-adv-x="1148" d="M1028 475h-729q11 -108 55 -183t105 -108.5t135 -33.5q76 0 137 34.5t100 91.5l130 -112q-56 -77 -150 -134t-225 -57q-98 0 -182.5 36.5t-148.5 106.5t-101 181t-37 250q0 266 125.5 414.5t330.5 148.5t332 -149t127 -414q0 -26 -4 -72zM575 934q-114 0 -187.5 -82 t-88.5 -231h551q-17 152 -90.5 232.5t-184.5 80.5zM512 1683h125l309 -403l-88 -88l-285 307l-280 -307l-90 88z" />
<glyph unicode="&#xeb;" horiz-adv-x="1148" d="M1028 475h-729q11 -108 55 -183t105 -108.5t135 -33.5q76 0 137 34.5t100 91.5l130 -112q-56 -77 -150 -134t-225 -57q-98 0 -182.5 36.5t-148.5 106.5t-101 181t-37 250q0 266 125.5 414.5t330.5 148.5t332 -149t127 -414q0 -26 -4 -72zM575 934q-114 0 -187.5 -82 t-88.5 -231h551q-17 152 -90.5 232.5t-184.5 80.5zM801 1497q49 0 79.5 -32t30.5 -85q0 -51 -30.5 -83.5t-79.5 -32.5q-50 0 -81.5 32.5t-31.5 83.5q0 52 31.5 84.5t81.5 32.5zM354 1497q50 0 81.5 -32.5t31.5 -84.5q0 -51 -31.5 -83.5t-81.5 -32.5q-49 0 -79.5 32.5 t-30.5 83.5q0 53 30.5 85t79.5 32z" />
<glyph unicode="&#xec;" horiz-adv-x="516" d="M16 1591l140 92l237 -446l-98 -63zM166 1083h194v-1083h-194v1083z" />
<glyph unicode="&#xed;" horiz-adv-x="518" d="M360 1683l140 -92l-277 -417l-100 63zM156 1083h194v-1083h-194v1083z" />
<glyph unicode="&#xee;" horiz-adv-x="694" d="M250 1083h194v-1083h-194v1083zM285 1683h125l309 -403l-88 -88l-285 307l-280 -307l-91 88z" />
<glyph unicode="&#xef;" horiz-adv-x="677" d="M561 1497q50 0 80.5 -32.5t30.5 -84.5q0 -51 -31 -83.5t-80 -32.5t-80.5 32.5t-31.5 83.5q0 52 31 84.5t81 32.5zM115 1497q50 0 81 -32.5t31 -84.5q0 -51 -31.5 -83.5t-80.5 -32.5t-80 32.5t-31 83.5q0 52 30.5 84.5t80.5 32.5zM242 1083h194v-1083h-194v1083z" />
<glyph unicode="&#xf0;" horiz-adv-x="1175" d="M754 1642l71 -36l-75 -150q154 -100 222 -278t68 -453q0 -176 -26 -312t-80.5 -235.5t-143.5 -152t-210 -52.5q-214 0 -338.5 154.5t-124.5 394.5q0 221 106 346t291 125q204 0 340 -172q-6 188 -48 301t-136 178l-101 -200l-69 37l100 202q-75 35 -176 56l22 176 q135 -28 232 -76zM575 154q139 0 204.5 125.5t74.5 367.5q-137 197 -311 197q-117 0 -181.5 -87.5t-64.5 -230.5q0 -101 30 -184t94.5 -135.5t153.5 -52.5z" />
<glyph unicode="&#xf1;" horiz-adv-x="1200" d="M156 1083h184v-133q123 160 342 160q173 0 272 -103t99 -321v-686h-195v666q0 260 -237 260q-192 0 -271 -191v-735h-194v1083zM268 1294l-92 92q83 162 234 162q53 0 107 -20.5t91 -45t83.5 -45t86.5 -20.5q99 0 150 127l92 -90q-39 -83 -99.5 -125.5t-134.5 -42.5 q-52 0 -106.5 20.5t-92 45t-85 45t-88.5 20.5q-94 0 -146 -123z" />
<glyph unicode="&#xf2;" horiz-adv-x="1148" d="M575 1110q205 0 331 -148t126 -419q0 -272 -125.5 -421t-331.5 -149q-208 0 -333 148.5t-125 421.5q0 271 125.5 419t332.5 148zM575 930q-125 0 -198.5 -100.5t-73.5 -288.5q0 -187 73 -287t199 -100q124 0 198.5 100.5t74.5 286.5q0 187 -74.5 288t-198.5 101z M328 1591l139 92l238 -446l-99 -63z" />
<glyph unicode="&#xf3;" horiz-adv-x="1148" d="M575 1110q205 0 331 -148t126 -419q0 -272 -125.5 -421t-331.5 -149q-208 0 -333 148.5t-125 421.5q0 271 125.5 419t332.5 148zM575 930q-125 0 -198.5 -100.5t-73.5 -288.5q0 -187 73 -287t199 -100q124 0 198.5 100.5t74.5 286.5q0 187 -74.5 288t-198.5 101z M680 1683l139 -92l-276 -417l-101 63z" />
<glyph unicode="&#xf4;" horiz-adv-x="1148" d="M575 1110q205 0 331 -148t126 -419q0 -272 -125.5 -421t-331.5 -149q-208 0 -333 148.5t-125 421.5q0 271 125.5 419t332.5 148zM575 930q-125 0 -198.5 -100.5t-73.5 -288.5q0 -187 73 -287t199 -100q124 0 198.5 100.5t74.5 286.5q0 187 -74.5 288t-198.5 101z M512 1683h125l309 -403l-88 -88l-285 307l-280 -307l-90 88z" />
<glyph unicode="&#xf5;" horiz-adv-x="1148" d="M575 1110q205 0 331 -148t126 -419q0 -272 -125.5 -421t-331.5 -149q-208 0 -333 148.5t-125 421.5q0 271 125.5 419t332.5 148zM575 930q-125 0 -198.5 -100.5t-73.5 -288.5q0 -187 73 -287t199 -100q124 0 198.5 100.5t74.5 286.5q0 187 -74.5 288t-198.5 101z M244 1294l-92 92q83 162 233 162q53 0 107 -20.5t91.5 -45t84 -45t86.5 -20.5q52 0 87.5 31.5t61.5 95.5l92 -90q-39 -83 -99.5 -125.5t-133.5 -42.5q-52 0 -106.5 20.5t-92.5 45t-85.5 45t-88.5 20.5q-50 0 -84.5 -31t-60.5 -92z" />
<glyph unicode="&#xf6;" horiz-adv-x="1148" d="M575 1110q205 0 331 -148t126 -419q0 -272 -125.5 -421t-331.5 -149q-208 0 -333 148.5t-125 421.5q0 271 125.5 419t332.5 148zM575 930q-125 0 -198.5 -100.5t-73.5 -288.5q0 -187 73 -287t199 -100q124 0 198.5 100.5t74.5 286.5q0 187 -74.5 288t-198.5 101z M797 1497q49 0 79.5 -32t30.5 -85q0 -51 -30.5 -83.5t-79.5 -32.5q-50 0 -81.5 32.5t-31.5 83.5q0 52 31.5 84.5t81.5 32.5zM350 1497q50 0 81.5 -32.5t31.5 -84.5q0 -51 -31.5 -83.5t-81.5 -32.5q-49 0 -79.5 32.5t-30.5 83.5q0 53 30.5 85t79.5 32z" />
<glyph unicode="&#xf7;" horiz-adv-x="1236" d="M88 776h1063v-133h-1063v133zM618 369q50 0 81.5 -32.5t31.5 -84.5q0 -51 -32 -84t-81 -33q-47 0 -78.5 33t-31.5 84q0 52 31 84.5t79 32.5zM618 1274q50 0 81.5 -32.5t31.5 -84.5q0 -51 -32 -84t-81 -33q-47 0 -78.5 33t-31.5 84q0 52 31 84.5t79 32.5z" />
<glyph unicode="&#xf8;" horiz-adv-x="1148" d="M575 1110q118 0 209 -49l101 180h141l-143 -256q149 -149 149 -442q0 -272 -125.5 -421t-331.5 -149q-125 0 -225 56l-86 -152h-141l129 232q-135 151 -135 434q0 271 125.5 419t332.5 148zM848 541q0 165 -64 268l-344 -619q56 -36 135 -36q124 0 198.5 100.5 t74.5 286.5zM575 930q-125 0 -198.5 -100.5t-73.5 -288.5q0 -156 51 -250l340 608q-54 31 -119 31z" />
<glyph unicode="&#xf9;" horiz-adv-x="1200" d="M147 1083h195v-682q0 -123 64.5 -183t173.5 -60q92 0 159 44t111 148v733h194v-1083h-184v135q-125 -162 -342 -162q-171 0 -271 99.5t-100 296.5v714zM352 1591l140 92l237 -446l-98 -63z" />
<glyph unicode="&#xfa;" horiz-adv-x="1200" d="M147 1083h195v-682q0 -123 64.5 -183t173.5 -60q92 0 159 44t111 148v733h194v-1083h-184v135q-125 -162 -342 -162q-171 0 -271 99.5t-100 296.5v714zM707 1683l139 -92l-277 -417l-100 63z" />
<glyph unicode="&#xfb;" horiz-adv-x="1200" d="M147 1083h195v-682q0 -123 64.5 -183t173.5 -60q92 0 159 44t111 148v733h194v-1083h-184v135q-125 -162 -342 -162q-171 0 -271 99.5t-100 296.5v714zM537 1683h125l309 -403l-88 -88l-285 307l-281 -307l-90 88z" />
<glyph unicode="&#xfc;" horiz-adv-x="1200" d="M147 1083h195v-682q0 -123 64.5 -183t173.5 -60q92 0 159 44t111 148v733h194v-1083h-184v135q-125 -162 -342 -162q-171 0 -271 99.5t-100 296.5v714zM823 1497q50 0 80.5 -32.5t30.5 -84.5q0 -51 -31 -83.5t-80 -32.5t-80.5 32.5t-31.5 83.5q0 52 31 84.5t81 32.5z M377 1497q50 0 81 -32.5t31 -84.5q0 -51 -31.5 -83.5t-80.5 -32.5t-80 32.5t-31 83.5q0 52 30.5 84.5t80.5 32.5z" />
<glyph unicode="&#xfd;" horiz-adv-x="1093" d="M29 1083h200l310 -823l331 823h197l-590 -1464h-196l163 408zM653 1683l140 -92l-277 -417l-100 63z" />
<glyph unicode="&#xfe;" horiz-adv-x="1196" d="M156 1446l194 67v-555q124 152 316 152q87 0 158 -32.5t117.5 -86.5t78.5 -128t45.5 -153.5t13.5 -166.5q0 -111 -23 -209.5t-70 -181t-129.5 -131t-190.5 -48.5q-195 0 -316 152v-485l-194 -66v1872zM621 932q-174 0 -271 -176v-426q91 -176 268 -176q75 0 130 31.5 t85.5 87t45 122.5t14.5 148q0 80 -14 147t-44.5 123t-85 87.5t-128.5 31.5z" />
<glyph unicode="&#xff;" horiz-adv-x="1093" d="M29 1083h200l310 -823l331 823h197l-590 -1464h-196l163 408zM768 1497q50 0 80.5 -32.5t30.5 -84.5q0 -51 -31 -83.5t-80 -32.5q-50 0 -81.5 32.5t-31.5 83.5q0 52 31.5 84.5t81.5 32.5zM322 1497q50 0 81 -32.5t31 -84.5q0 -51 -31.5 -83.5t-80.5 -32.5t-80 32.5 t-31 83.5q0 52 30.5 84.5t80.5 32.5z" />
<glyph unicode="&#x152;" horiz-adv-x="2170" d="M743 1444q255 0 416 -158v131h895v-194h-686v-404h510v-188h-510v-436h700v-195h-909v129q-159 -156 -416 -156q-135 0 -247 47.5t-194 138.5t-127.5 231t-45.5 317q0 178 45.5 318.5t127.5 231.5t194 139t247 48zM743 1249q-186 0 -295.5 -140t-109.5 -402 q0 -261 109.5 -401t295.5 -140q188 0 300 140t112 401q0 262 -112 402t-300 140z" />
<glyph unicode="&#x153;" horiz-adv-x="1886" d="M575 1110q118 0 212.5 -51.5t154.5 -149.5q61 98 155.5 149.5t213.5 51.5q205 0 331.5 -149t126.5 -414q0 -26 -4 -72h-729q11 -108 55 -183t105 -108.5t135 -33.5q76 0 137.5 34.5t100.5 91.5l129 -112q-56 -77 -150 -134t-225 -57q-118 0 -216 52t-161 153 q-61 -101 -156.5 -153t-214.5 -52q-208 0 -333 148.5t-125 421.5q0 271 125.5 419t332.5 148zM575 930q-125 0 -198.5 -100.5t-73.5 -288.5q0 -187 73 -287t199 -100q124 0 198.5 100.5t74.5 286.5q0 187 -74.5 288t-198.5 101zM1313 934q-114 0 -188 -82t-89 -231h551 q-17 152 -90 232.5t-184 80.5z" />
<glyph unicode="&#x178;" horiz-adv-x="1314" d="M20 1417h242l397 -704l402 704h233l-532 -895v-522h-207v522zM881 1823q49 0 79.5 -32t30.5 -85q0 -51 -30.5 -84t-79.5 -33t-81 33t-32 84q0 52 31.5 84.5t81.5 32.5zM434 1823q50 0 81.5 -32.5t31.5 -84.5q0 -51 -32 -84t-81 -33t-79.5 33t-30.5 84q0 53 30.5 85 t79.5 32z" />
<glyph unicode="&#x2c6;" horiz-adv-x="843" d="M375 1683h125l309 -403l-88 -88l-285 307l-280 -307l-90 88z" />
<glyph unicode="&#x2dc;" horiz-adv-x="1026" d="M182 1294l-92 92q83 162 234 162q53 0 107 -20.5t91 -45t83.5 -45t86.5 -20.5q99 0 150 127l92 -90q-39 -83 -99.5 -125.5t-134.5 -42.5q-52 0 -106.5 20.5t-92 45t-85 45t-88.5 20.5q-94 0 -146 -123z" />
<glyph unicode="&#x2000;" horiz-adv-x="1004" />
<glyph unicode="&#x2001;" horiz-adv-x="2009" />
<glyph unicode="&#x2002;" horiz-adv-x="1004" />
<glyph unicode="&#x2003;" horiz-adv-x="2009" />
<glyph unicode="&#x2004;" horiz-adv-x="669" />
<glyph unicode="&#x2005;" horiz-adv-x="502" />
<glyph unicode="&#x2006;" horiz-adv-x="334" />
<glyph unicode="&#x2007;" horiz-adv-x="334" />
<glyph unicode="&#x2008;" horiz-adv-x="251" />
<glyph unicode="&#x2009;" horiz-adv-x="401" />
<glyph unicode="&#x200a;" horiz-adv-x="111" />
<glyph unicode="&#x2010;" horiz-adv-x="735" d="M59 750h617v-152h-617v152z" />
<glyph unicode="&#x2011;" horiz-adv-x="735" d="M59 750h617v-152h-617v152z" />
<glyph unicode="&#x2012;" horiz-adv-x="735" d="M59 750h617v-152h-617v152z" />
<glyph unicode="&#x2013;" horiz-adv-x="1040" d="M59 750h922v-152h-922v152z" />
<glyph unicode="&#x2014;" horiz-adv-x="1452" d="M59 750h1336v-152h-1336v152z" />
<glyph unicode="&#x2018;" horiz-adv-x="387" d="M248 1014l-193 59l178 453l111 -37z" />
<glyph unicode="&#x2019;" horiz-adv-x="387" d="M141 1524l193 -60l-178 -452l-111 37z" />
<glyph unicode="&#x201a;" horiz-adv-x="387" d="M141 225l193 -59l-178 -453l-111 37z" />
<glyph unicode="&#x201c;" horiz-adv-x="716" d="M578 1014l-193 59l178 453l111 -37zM248 1014l-193 59l178 453l111 -37z" />
<glyph unicode="&#x201d;" horiz-adv-x="716" d="M471 1524l193 -60l-179 -452l-110 37zM141 1524l193 -60l-178 -452l-111 37z" />
<glyph unicode="&#x201e;" horiz-adv-x="716" d="M471 225l193 -59l-179 -453l-110 37zM141 225l193 -59l-178 -453l-111 37z" />
<glyph unicode="&#x2022;" horiz-adv-x="612" d="M162 723q0 60 42.5 104.5t102.5 44.5q62 0 102 -45.5t40 -105.5q0 -63 -44.5 -106.5t-101.5 -43.5q-59 0 -100 47t-41 105z" />
<glyph unicode="&#x2026;" horiz-adv-x="1421" d="M1210 219q50 0 81.5 -32.5t31.5 -84.5q0 -51 -31.5 -83.5t-81.5 -32.5q-48 0 -79 32.5t-31 83.5q0 52 31 84.5t79 32.5zM223 219q50 0 81.5 -32.5t31.5 -84.5q0 -51 -31.5 -83.5t-81.5 -32.5q-48 0 -79 32.5t-31 83.5q0 52 31 84.5t79 32.5zM723 219q50 0 81.5 -32.5 t31.5 -84.5q0 -51 -31.5 -83.5t-81.5 -32.5q-48 0 -79.5 32.5t-31.5 83.5q0 52 31.5 84.5t79.5 32.5z" />
<glyph unicode="&#x202f;" horiz-adv-x="401" />
<glyph unicode="&#x2039;" horiz-adv-x="458" d="M283 1083h139l-248 -540l248 -543h-139l-248 543z" />
<glyph unicode="&#x203a;" horiz-adv-x="458" d="M35 1083h139l248 -540l-248 -543h-139l248 543z" />
<glyph unicode="&#x205f;" horiz-adv-x="502" />
<glyph unicode="&#x20ac;" d="M100 913h107q45 258 195.5 394.5t373.5 136.5q262 0 418 -182l-102 -144q-121 144 -299 144q-151 0 -250.5 -89t-136.5 -260h604l-54 -112h-567q-2 -31 -2 -94q0 -68 4 -99h500l-53 -114h-430q34 -163 125 -250.5t229 -87.5q101 0 178 39.5t123 113.5l145 -98 q-63 -111 -181 -174.5t-271 -63.5q-225 0 -366 138.5t-183 382.5h-160l53 114h93q-3 46 -3 97q0 49 3 96h-146z" />
<glyph unicode="&#x2122;" horiz-adv-x="1552" d="M721 1516h108l234 -527l233 527h105v-709h-105v463l-213 -463h-45l-213 467v-467h-104v709zM47 1516h533v-99h-213v-610h-105v610h-215v99z" />
<glyph unicode="&#x25fc;" horiz-adv-x="1085" d="M0 1085h1085v-1085h-1085v1085z" />
</font>
</defs>
</svg>
