<?xml version="1.0" standalone="no"?>
<!DOCTYPE svg PUBLIC "-//W3C//DTD SVG 1.1//EN" "http://www.w3.org/Graphics/SVG/1.1/DTD/svg11.dtd" >
<svg>
<metadata>
Created by FontForge 20120731 at Tue Oct 11 09:00:11 2016
 By ,,,
Tabitazn
</metadata>
<defs>
<font id="Lemonfish" horiz-adv-x="430" >
  <font-face 
    font-family="Lemonfish"
    font-weight="400"
    font-stretch="normal"
    units-per-em="1024"
    panose-1="0 0 0 0 0 0 0 0 0 0"
    ascent="819"
    descent="-205"
    x-height="429"
    cap-height="780"
    bbox="-281 -454 714.235 819"
    underline-thickness="1"
    underline-position="-2"
    unicode-range="U+0020-20AC"
  />
<missing-glyph horiz-adv-x="543" 
d="M51 102v429v145h307v-574h-307zM0 727v-676h204h206v676h-410z" />
    <glyph glyph-name=".notdef" horiz-adv-x="543" 
d="M51 102v429v145h307v-574h-307zM0 727v-676h204h206v676h-410z" />
    <glyph glyph-name="glyph1" horiz-adv-x="0" 
 />
    <glyph glyph-name="nonmarkingreturn" horiz-adv-x="341" 
 />
    <glyph glyph-name="space" unicode=" " horiz-adv-x="266" 
 />
    <glyph glyph-name="exclam" unicode="!" horiz-adv-x="245" 
d="M170 33q2 4 2 11q0 8 -4 15q-6 13 -22 18q-7 4 -17 4q-12 0 -22 -5q-20 -9 -26 -26q0 -2 -0.5 -5.5t-0.5 -5.5q0 -4 4 -16q8 -12 21 -18q12 -4 16 -4q11 0 22 6q21 9 27 26zM152 134q9 3 13 13q6 11 6 16q0 2 2 20q1 3 8 66l10 70l13 104q9 70 12 128q8 104 10 127
q1 6 1 18q0 17 -2 25q-2 30 -4 43q0 14 -25 14h-5q-21 0 -33 -4q-18 -4 -21 -15q-3 -9 -3 -19q0 -12 -0.5 -36.5t-0.5 -37.5q0 -49 -2 -74q-8 -127 -14 -189q-4 -63 -14 -189q0 -24 -1 -36v-9q0 -4 0.5 -12.5t0.5 -12.5q0 -6 16 -9q16 -2 22 -2q2 0 6 0.5t5 0.5z" />
    <glyph glyph-name="quotedbl" unicode="&#x22;" horiz-adv-x="225" 
d="M89 653q6 39 6 63q0 16 -2 22q-6 26 -32 35q-10 5 -19 5q-6 0 -9 -3q-7 -7 -1 -28q2 -6 0 -21q-2 -17 -6 -34q-5 -32 -5 -44v-6q3 -15 17 -27q14 -11 18 -12l3 -1q3 0 13 4q6 2 10 10q5 14 7 37zM191 653q6 39 6 63q0 16 -2 22q-5 26 -31 35q-10 5 -20 5q-5 0 -8 -3
q-8 -6 -2 -28q3 -6 0 -21q-2 -17 -6 -34q-5 -32 -5 -44v-6q3 -15 17 -27q14 -11 19 -12q1 0 3 -1q4 0 12 4q6 2 10 10q5 14 7 37z" />
    <glyph glyph-name="numbersign" unicode="#" horiz-adv-x="738" 
d="M365 740q3 18 -15 27q-16 11 -31 11h-3q-12 0 -18 -9q-6 -18 -7 -22q-14 -58 -21 -88q-9 -43 -21 -88q-3 -12 -11 -38q-6 -24 -10 -37q-18 0 -28 -1q-9 0 -29 -2q-16 0 -34 -3q-11 -1 -33 -5q-6 0 -10 -15t-5 -29q2 -7 11 -10t15 -3q4 1 28 1h67l-9 -33l-9 -33
q-9 0 -29 -2q-8 0 -28 -2q-22 -2 -34 -4q-8 -1 -33 -5q-5 -1 -10 -18q-4 -19 -5 -34q1 -7 11 -12q10 -3 15 -3h22q3 0 26 0.5t43 0.5q-16 -60 -22 -79q-16 -60 -22 -79q-7 -32 -10 -43l-9 -42q-2 -9 10 -18q16 -10 26 -15q6 0 14 11t8 18q1 2 2 5.5t2.5 9t3.5 10.5t9 27.5
t13 40.5q3 9 9.5 31t10.5 34q4 13 14 43t15 46h35q12 1 42 1h25q8 1 24 1q-10 -45 -21 -93q-7 -30 -21 -92q-2 -10 -8 -43q-1 -7 -2.5 -21t-2.5 -21q0 -7 19 -13q15 -4 43 -7q10 1 19 14q8 10 10 19q0 2 2 9.5t3 13.5q1 4 20 69q10 33 21 70q2 7 12.5 42.5t16.5 58.5l39 3
q26 2 41 2q20 1 40 6q28 8 41 11t16 27q4 25 1 38q-3 19 -12 20q-7 3 -17 1q-20 -2 -62 -8q-23 -2 -61 -8q3 15 6 27q3 9 7 25q24 2 37 2q26 2 40 2q20 1 40 6q7 1 20.5 4t20.5 5q13 3 16 23q2 8 2 21q0 9 -1 12q-3 16 -12 16q-7 3 -17 1q-42 -4 -64 -7q-42 -4 -64 -6
q5 20 15 62q10 44 15 67q7 32 7 52q2 34 2 52q1 18 -30 21q-28 4 -49 1q-24 -3 -30 -15q-4 -8 -7 -22q-3 -15 -8 -44.5t-7 -44.5q-4 -27 -16 -89q-1 -8 -5 -24q-1 -4 -2.5 -12t-2.5 -12q-28 0 -56 -3q-36 -2 -55 -3q3 11 9 32.5t9 32.5q2 7 20 69q7 23 10 52q6 38 8 53z
M357 430h23q8 1 23 1q-4 -18 -6 -28q-1 -4 -3.5 -13t-3.5 -14q-40 -2 -60 -4q-40 -2 -60 -4q3 7 10 31q3 11 9 31h30h38z" />
    <glyph glyph-name="dollar" unicode="$" horiz-adv-x="450" 
d="M72 227q-11 -17 -11 -34q0 -5 4 -21q12 -28 34 -45q18 -9 25 -16q10 -8 14 -21q4 -10 7 -30q5 -15 -3 -27q-9 -19 3 -43q12 -20 26 -22h2q4 1 10 5q6 5 9 13q9 15 6 33q0 25 2 35q4 12 7 16q7 8 15 11q23 8 43 24q24 19 38 36q19 18 29 39q11 22 11 48q6 45 3 93
q-1 48 -31 86q-20 27 -44 40q-8 5 -25 15.5t-26 15.5q-18 18 -9 54q11 37 25 52q10 10 26 22q8 7 28 19q15 7 36 9q22 3 34 -3q16 -13 35 -4q9 5 9 11q0 8 -13 17q-4 3 -12.5 9t-12.5 9q-5 4 -13 11t-9 8q-4 11 -1 20q3 11 6 29q5 14 -12 41q-9 18 -23 18q-8 0 -15 -5
q-17 -25 -17 -55q0 -32 -17 -56q-20 -23 -42 -37q-24 -16 -41 -40q-16 -28 -23 -43q-9 -21 -3 -47q7 -25 26 -52q19 -25 34 -31q22 -10 41 -33q19 -21 22 -53q3 -34 -2 -62q-3 -28 -22 -57q-13 -19 -41 -55q-21 -26 -57 -28q-25 -3 -45 8q-20 12 -24 40q1 6 1 31q0 22 -17 2
z" />
    <glyph glyph-name="percent" unicode="%" horiz-adv-x="451" 
d="M131 -36q7 0 14 10q9 12 9 20q1 2 3.5 10t4.5 14q2 4 25 80q3 7 28 86q5 17 18.5 59.5t21.5 67.5q33 107 47 158q8 28 23.5 84t20.5 74q9 27 12 55q6 38 8 57q1 2 1 5q0 15 -17 24q-18 11 -33 11h-3q-13 0 -19 -10q-5 -13 -8 -23q-14 -62 -22 -94q-5 -25 -22 -93
q-21 -78 -65 -236q-11 -39 -32.5 -117.5t-32.5 -117.5q-2 -8 -5.5 -23t-5.5 -22q-4 -15 -10 -45v-2q0 -7 11 -16q14 -10 28 -16zM14 654q0 -23 9 -38q11 -15 31 -23q22 -8 28 -9h2q8 0 19 6q16 6 27 28q10 21 13 46v12q0 12 -2 18q-1 15 -10 22q-5 4 -12 9q-5 5 -11 7
q-2 2 -12 4q-5 1 -16 1t-18 -4q-6 -3 -17 -17q-21 -25 -26 -34q-5 -10 -5 -28zM65 646q0 7 15 22q12 13 16 13q1 0 1 -1q1 -1 1 -5q0 -7 -6 -19q-9 -18 -17 -18q-4 0 -7 3t-3 5zM430 114q-3 15 -11 25q-5 8 -21 19q-8 7 -19 13q-7 5 -13 5q-20 0 -41 -34q-20 -34 -20 -68
q0 -16 2 -28q3 -6 14 -20q22 -22 42 -22h4q22 3 44 31q20 28 23 41q1 4 1 10q0 16 -5 28zM391 102h1q0 -12 -12 -28q-12 -17 -21 -17q-8 0 -8 19v3q2 23 10 37q10 16 18 16q3 0 4 -1q8 -3 8 -29z" />
    <glyph glyph-name="ampersand" unicode="&#x26;" horiz-adv-x="553" 
d="M394 655q-26 40 -51 52q-17 10 -45 10q-12 0 -18 -1q-11 -3 -32 -11q-31 -9 -61 -45q-16 -17 -30 -47q-13 -29 -17 -66q-2 -21 1 -51q2 -20 14 -70q10 -36 19 -75q-20 -23 -28 -34q-25 -29 -46 -64q-16 -27 -26 -60q-6 -14 -9 -34q-3 -19 -3 -33q0 -2 -0.5 -5.5
t-0.5 -5.5q0 -12 3 -18q4 -7 17 -19q17 -12 26 -14q16 -2 45 1q36 5 49 8t46 11q33 12 41 12q8 1 13 -8q4 -6 11 -17t10 -15q2 -3 17 -24q22 -22 42 -28q22 -4 65 -6q21 0 49 2q21 3 23 5q4 4 4 13q2 12 -4 25q-1 15 -14 31q-17 21 -37 40q-23 20 -34 32q-13 14 -13 18
q0 3 19 22q30 27 46 41q50 41 59 57q2 4 2 8q0 12 -20 13q-9 1 -26 -8q-22 -13 -43 -32q-34 -31 -55 -46q-15 -9 -30 10q-1 2 -13 23q-11 22 -19 35q-12 22 -31 60q-13 31 -13 32q0 6 9 18q6 9 22 25q7 5 29 29q28 33 32 38q23 29 26 42q5 13 5 44q0 29 -4 42q-5 16 -21 38z
M266 151q0 -9 -22 -15q-21 -6 -66 -18q-4 -1 -35 -7q-2 0 -5.5 -0.5t-5.5 -0.5q-14 2 -15 9q-2 16 -3 23q0 10 3 23q1 7 7 24q3 7 11 21q10 16 16 24q18 27 29 39q15 18 21 18q5 0 10 -8q7 -6 11 -17q12 -22 27 -66q17 -40 17 -49zM301 666q9 8 20 8q14 0 26 -16
q22 -26 25 -65v-9q0 -11 -1 -17q-1 -12 -7 -23q-12 -21 -41 -54q-27 -30 -38 -30q-1 0 -7 6q-4 6 -6 16q-4 30 -4 43v1q0 16 2 42q6 41 16 65q10 27 15 33z" />
    <glyph glyph-name="quotesingle" unicode="'" horiz-adv-x="122" 
d="M89 653q6 39 6 63q0 16 -2 22q-6 26 -32 35q-10 5 -19 5q-6 0 -9 -3q-7 -7 -1 -28q2 -6 0 -21q-2 -17 -6 -34q-5 -32 -5 -44v-6q3 -15 17 -27q14 -11 18 -12l3 -1q3 0 13 4q6 2 10 10q5 14 7 37z" />
    <glyph glyph-name="parenleft" unicode="(" horiz-adv-x="307" 
d="M97 -61q1 0 2.5 -0.5t2.5 -0.5q12 0 6 22q-2 10 -4.5 23t-3.5 17q-2 73 1 130q3 65 21 128q35 127 80 253q45 124 131 230q11 11 11 24q0 15 -11 23q-10 10 -21 10h-2q-11 0 -21 -10q-9 -9 -27 -29q-13 -13 -25 -31q-46 -72 -85 -156q-40 -90 -64 -166q-29 -94 -41 -186
q-6 -46 -6 -94q0 -47 6 -98q3 -21 11 -48q9 -23 39 -41z" />
    <glyph glyph-name="parenright" unicode=")" horiz-adv-x="307" 
d="M48 -9q-8 -9 -27 -30q-10 -10 -10 -16t8 -9q36 2 55 17q21 18 35 36q61 77 99 166q40 91 62 183q19 83 29 178q8 64 8 142v38q0 18 -5 40l-9 39q-3 13 -13 19q-5 5 -16 5q-5 0 -9 -1q-14 -3 -22 -14q-6 -10 -3 -27q19 -136 -6 -268q-22 -118 -61 -262q-17 -64 -48 -122
q-35 -63 -67 -114z" />
    <glyph glyph-name="asterisk" unicode="*" horiz-adv-x="369" 
d="M65 703q-4 -4 -4 -7q0 -2 7 -13q10 -12 36 -30q8 -5 12 -9q5 -4 5 -7q0 -1 -3 -6l-6 -9l-8 -8q-10 -15 -13 -20q-11 -6 -11 -16q0 -8 10 -16q9 -6 11 -7q5 -2 13 -4h6q2 0 4 1h2q4 3 9 9q2 3 5 6t4.5 5t2.5 3l17 17q7 8 15 16q7 -11 8 -13q16 -16 25 -24q17 -10 24 -10
h10h6q1 0 3 4q2 8 2 12q3 9 1 16q0 7 -3 15q-6 17 -3 20q4 3 32 3q26 0 39 16q7 10 7 19q0 7 -2 10q-6 14 -26 20l-18 7q-9 6 -9 10q0 5 11 18q8 8 8 12q2 6 -3 15q-3 11 -14 16q-7 4 -15 4h-6q-11 -5 -14 -8q-7 -5 -18 -19q-14 -18 -18 -20q-3 -3 -10 -1q-3 0 -11 5
q-4 4 -14 10q-16 14 -25 17q-10 4 -22 0q-10 -3 -14 -10q-2 -6 5 -16q6 -8 6 -14q1 -5 -2 -8q-3 -1 -9 -2q-8 -2 -18 -3q-12 -2 -18 -4q-7 0 -9 -2z" />
    <glyph glyph-name="plus" unicode="+" horiz-adv-x="471" 
d="M83 295q5 -7 36 -16q30 -9 40 -4q13 5 14 -7q1 -8 -11 -33q-3 -9 -3 -13t3 -15q7 -13 19 -27q15 -15 21 -15h8h6l8 2q3 3 12 40q11 36 13 51q5 20 13 24q8 5 45 7q47 3 53 5q9 3 9 12q0 14 -25 27q-23 13 -51 13h-9l-4 1q-1 3 0 10q6 29 6 35q0 8 -11 24q-12 17 -13 23
q-2 7 -11 13q-2 2 -9 4q-3 2 -8 2q-19 0 -22 -25q-3 -27 -7 -37q-2 -7 -6 -23q0 -3 -0.5 -6.5t-1 -5.5t-0.5 -3q0 -12 -7 -18q-7 -4 -28 -5q-34 -4 -51 -8q-23 -3 -30 -8q-5 -3 -5 -10v-1q0 -2 7 -13z" />
    <glyph glyph-name="comma" unicode="," horiz-adv-x="122" 
d="M88 -15q8 14 14 54q1 6 1 15q0 24 -17 27q-2 1 -8 1q-9 0 -14 -2q-10 -1 -22 -8q-10 -5 -14 -16q-3 -12 3 -22q17 -20 11 -37q-4 -14 -17 -34q-11 -19 -26 -38q-15 -23 -27 -37q-1 -1 -4.5 -6t-5.5 -8q-3 -3 -3 -6t6 -9q3 -3 10 -3h4q13 2 17 4l18 12q9 6 15 15
q11 16 31 48q20 34 28 50z" />
    <glyph glyph-name="hyphen" unicode="-" horiz-adv-x="471" 
d="M88 306q15 -37 55 -49q38 -11 123 -11q4 0 11.5 0.5t11.5 0.5q48 0 64 2q13 3 19 12q8 9 8 18q2 2 0 2q-1 8 -18 28q-20 24 -43 27q-23 6 -86 3q-22 -1 -60 -1q-26 0 -35 3q-20 7 -35 7q-9 0 -15 -3q-6 -5 -6 -15q0 -9 6 -24z" />
    <glyph glyph-name="period" unicode="." horiz-adv-x="122" 
d="M110 47v2q0 13 -10 22q-9 11 -26 11h-4q-18 0 -32 -14q-18 -13 -18 -32q0 -12 11 -25q13 -10 25 -11h4q16 0 32 14q18 15 18 33z" />
    <glyph glyph-name="slash" unicode="/" horiz-adv-x="307" 
d="M55 -36h1q6 0 14 10q7 12 9 20q1 4 7 24q2 5 5 15.5t9 28.5l12 36q11 32 27 86q4 11 41 127q33 107 47 158q10 36 44 158q8 29 11 55q6 28 9 57v5q0 16 -17 24q-16 11 -32 11h-3q-15 0 -19 -10q-5 -13 -8 -23q-9 -37 -22 -94q-3 -15 -23 -93q-21 -78 -65 -236
q-27 -100 -65 -235q-2 -8 -5.5 -23t-5.5 -22l-9 -45v-2q0 -7 10 -16q18 -12 28 -16z" />
    <glyph glyph-name="zero" unicode="0" horiz-adv-x="410" 
d="M40 58q9 -15 35 -38q26 -20 39 -20q34 0 80 35q46 36 76 85q24 38 49 86q22 45 38 96q8 27 18 65q7 29 16 78q8 40 8 86q0 36 -5 61q-9 69 -41 116q-17 26 -39 42q-22 18 -51 24q-4 2 -18 2h-4q-10 0 -14 -1q-14 -1 -41 -21q-26 -18 -42 -39q-39 -51 -42 -82
q-3 -34 -14 -63q-13 -45 -24 -88q-8 -39 -18 -101q-3 -31 -9 -59q-1 -9 -5 -37t-6 -45q0 -2 -0.5 -6.5t-1.5 -14t-2 -18.5q-2 -20 -2 -34q0 -10 2 -34q1 -14 5 -40q8 -24 13 -35zM105 60q-2 8 -2 18q0 5 2 33q3 37 11 94q5 37 10 58q5 27 12 55q2 10 6 29t5 25q8 31 9 44
q8 38 27 127l12 59q20 78 22 95q6 26 11 31q13 8 32 8q16 0 29 -5q34 -12 43 -43q25 -94 25 -181v-16q-3 -90 -39 -195q-25 -66 -42 -98q-20 -36 -52 -74q-35 -41 -74 -62q-22 -10 -32 -10t-15 8z" />
    <glyph glyph-name="one" unicode="1" horiz-adv-x="328" 
d="M131 605q11 18 27 37q20 24 22 27q12 15 19 22q-1 -19 -3 -32q0 -10 -5 -35q-2 -16 -8 -39q-1 -6 -10 -42q-2 -8 -4.5 -21.5t-3.5 -18.5q-3 -14 -9 -43q-2 -10 -10 -45q-3 -19 -9 -51q-6 -28 -9 -55q-1 -6 -3.5 -22t-3.5 -26q-3 -24 -6 -36q0 -2 -1 -7t-1.5 -10.5
t-1.5 -10.5q-2 -9 -4 -30q0 -4 -1 -8.5t-2 -11.5t-2 -12q-1 -15 -5 -32q-9 -42 -6 -71q6 -28 21 -31q4 0 10 -4q8 -4 10 -6q1 -1 11 -5q2 0 6 -0.5t6 -0.5h4q10 1 15 5q6 4 12 15q5 9 6 16q1 8 0 11q2 16 4 48q5 53 16 108q1 4 3.5 13.5t3.5 15.5q4 13 15 73q2 10 11 59
q3 12 16 84q6 29 8 48q3 27 6 39q1 5 2.5 16.5t2.5 14.5q1 4 2 10.5t2 11t1 8.5q0 1 1.5 13.5t2.5 20.5q3 24 6 42q1 12 6 24q2 5 2 12t-2 9q-15 22 -24 33q-7 12 -18 25q-3 4 -13 14q-5 4 -12 4t-11 -2q-12 -4 -18 -21q-5 -11 -30 -44q-43 -55 -70 -88q-62 -74 -77 -101
q-7 -14 -7 -20q0 -8 9 -10q10 -1 27 17q9 11 74 96z" />
    <glyph glyph-name="two" unicode="2" 
d="M22 22q12 -24 26 -41q15 -17 28 -17q6 0 15 6q12 8 18 14l19 19q74 -2 82 -2q41 -2 59 -4q25 -3 27 -3h6q5 -1 10 -1q20 2 30 2l36 6q6 3 6 11q0 18 -13 22q-12 4 -64 4q-27 0 -85 4q-45 5 -62 10q-10 4 8 28t18 27q3 4 8 12q6 8 23 49q2 5 8 18t9 20q12 25 23 43
q11 19 18 35q7 15 7 20q0 4 7 21q10 24 16 36t22 47q4 10 11 25.5t9 21.5q5 14 15 38q8 20 12 25q21 30 24 68q2 8 2 21q0 29 -10 55q-13 38 -26 59q-12 22 -32 37q-22 19 -38 19h-3q-16 0 -36 -13q-28 -18 -39 -35q-11 -15 -9 -43q4 -7 12 -10q11 -1 14 4q3 8 28 27
q26 20 31 20q7 0 7 -30q0 -29 -9 -58q-5 -19 -23 -65q-18 -45 -35 -79q-2 -5 -7.5 -17t-8.5 -19q-10 -24 -11 -27q-13 -36 -45 -104q-26 -56 -65 -132q-19 -39 -41 -77q-16 -30 -29 -48q-12 -16 -14 -18q11 -30 11 -31z" />
    <glyph glyph-name="three" unicode="3" horiz-adv-x="450" 
d="M32 127q4 -9 15 -24q4 -4 12.5 -13.5t13.5 -14.5q30 -28 46 -41q28 -21 37 -25q18 -9 37 -9q12 0 25 5q30 10 86 53q34 26 55 59q23 34 40 86q14 37 19 62q6 23 6 58v20q0 20 -1 29q-1 19 -5 34q-9 32 -13 54q-1 17 -36 49q-19 19 -35 33q10 20 18 34q2 3 6.5 13.5
t6.5 15.5q5 11 5 16q0 1 4 11q1 3 7 15q10 16 7 30q-2 16 -22 58q-8 20 -17 30q-4 7 -17 7q-6 0 -9 -1q-9 0 -35 -3q-34 -2 -51 -4q-45 0 -63 -7q-13 -6 0 -16q4 -3 21 -6q35 -3 42 -4q30 0 54 -2q-2 -12 -2 -15q-2 -10 -27 -53q-5 -8 -68 -113q-9 -16 -2 -39q10 -26 29 -45
q18 -17 33 -20q14 0 24 16q12 15 23 19q12 6 20 -2q9 -8 11 -35q3 -27 -3 -68q-9 -70 -36 -127q-28 -58 -71 -98q-37 -35 -78 -43q-39 -6 -72 18q-16 13 -22 22q-4 10 -12 38q-6 31 -9 34q-1 1 -3 -1t-5 -8q-4 -12 -4 -25q0 -2 0.5 -6.5t0.5 -7.5q3 -24 14 -43z" />
    <glyph glyph-name="four" unicode="4" 
d="M45 278q24 -24 38 -27q16 -3 19 15q1 2 3.5 8t3.5 9q2 4 8 22q3 7 6.5 15t4.5 10q22 3 33 3q40 6 62 4q21 0 23 -8q3 -4 -6 -46q-8 -36 -23 -81q-1 -3 -3.5 -11.5t-3.5 -12.5q-1 -5 -4 -14t-3 -10q-1 -3 -7 -27q-4 -15 -11 -29q-3 -12 -6 -27q-2 -13 0 -19q3 -14 24 -35
q22 -17 31 -17h2q11 1 20 23q11 31 22 78q6 27 17 65q15 42 19 51q1 3 11 29q3 7 14 40q4 10 9.5 26.5t7.5 21.5l24 6q30 8 33 18l1 2q0 10 -24 11q-12 3 -15 7t-6 33q0 17 -6 34q-3 17 -9 26q-6 16 -12 19q-4 3 -14 3q-14 -2 -29 -27q-13 -24 -19 -54q-4 -36 -14 -42
q-9 -6 -59 -6q-37 0 -49 2q-9 3 -9 8q0 6 10 34q3 6 9.5 21.5t15.5 35t18 40.5q2 4 13 32q7 18 9 24q2 9 7 21q8 20 12 28q16 32 16 54q0 24 -13 44q-6 12 -10 16q-1 3 -2 5t-2 3v2q0 3 -4 8q-1 2 -3.5 6t-3.5 6q-6 7 -13 10q-2 2 -10 2h-4q-8 0 -13 -9q-3 -5 -13 -38
q-5 -22 -13 -43q-4 -14 -14 -38q-5 -11 -15 -38q-3 -9 -9 -23.5t-8 -19.5q-34 -88 -49 -123q-12 -29 -27 -64q-12 -27 -12 -44v-5q3 -16 24 -43z" />
    <glyph glyph-name="five" unicode="5" horiz-adv-x="451" 
d="M13 48q3 -27 30 -42q27 -13 85 -18q4 1 10 1q10 0 27 5q31 9 71 39q42 31 69 108q17 49 23 71q9 31 21 97q7 42 7 82q1 47 -38 85q-20 20 -32 28q-9 6 -26 6q-24 -4 -40 -4q-14 3 -18 8q-4 24 -4 56q0 28 14 118q2 28 2 31q50 3 73 3q31 3 65 3q24 1 52 1q34 0 43 7
q3 3 3 7q0 8 -7 18t-11 13h-118q-37 0 -85 2q-35 1 -38 3q0 1 -7 1q-8 0 -14 -1q-20 -2 -32 -7q-3 0 -6 -15q-1 -6 -2.5 -19t-2.5 -17q-3 -48 -19 -116q-14 -64 -43 -152q-9 -31 -8 -49q2 -15 22 -44q27 -37 48 -34q22 5 29 49q9 47 25 75q18 27 42 30q20 4 30 -2
q9 -5 15 -21q9 -28 -9 -105q-19 -80 -49 -151q-13 -32 -35 -76q-14 -29 -37 -59q-31 -37 -60 -44q-30 -6 -45 18q-10 18 -11 32q-2 15 6 53q6 28 4 34q-1 8 -10 -8q-4 -7 -7 -40q-2 -28 -2 -41v-19z" />
    <glyph glyph-name="six" unicode="6" horiz-adv-x="369" 
d="M135 417q9 25 12 37q6 19 12 43q17 46 22 67q2 7 5 15l2 8q21 60 23 77q3 23 30 47q16 14 27 19t28 6q22 3 26 1q7 -2 13 -13q5 -5 8 -16q5 -10 5 -19q3 -17 9 -18q7 0 12 15q4 9 4 22q0 10 -1 15q-3 21 -13 30q-9 6 -17 10q-12 7 -23 11q-21 9 -42 9q-7 0 -11 -1
q-27 -3 -59 -19q-33 -15 -55 -43q-20 -26 -42 -82q-1 -4 -7.5 -20.5t-8.5 -24.5q-6 -18 -6 -20q-1 -6 -5 -18q-10 -29 -14 -39q-31 -92 -48 -174q-13 -76 -13 -129v-18q3 -67 26 -112q23 -42 71 -71q37 -20 60 -20q2 0 5.5 0.5t4.5 0.5q26 6 59 45q26 29 37 56q14 29 19 64
q11 61 -1 113q-11 54 -37 69q-18 10 -56 10q-39 1 -56 -8q-10 -4 -14 -6q-4 -1 -7 -1q-3 3 3 33q4 23 13 49zM99 216q6 11 15 26q2 3 10 14.5t13 17.5q19 27 28 34q9 8 28 11q17 3 23 3h3q7 0 17 -10q9 -9 12 -20q4 -9 7 -40q2 -12 2 -35q0 -42 -11 -72q-16 -47 -50 -74
q-27 -19 -43 -23q-3 0 -9 -2q-8 0 -19 7q-14 14 -23 42q-8 28 -10 61v10q0 4 0.5 12t0.5 11q3 15 6 27z" />
    <glyph glyph-name="seven" unicode="7" horiz-adv-x="389" 
d="M155 364q-1 -9 -6 -33q-3 -23 -9 -46q-17 -91 -31 -139q-12 -50 -23 -63q-7 -7 -6 -28q3 -19 12 -34q6 -7 13 -28q6 -18 29 -18q10 0 16 6t15 33q8 26 11 38q6 24 15 57q34 125 41 158q11 44 16 81q2 17 6 35l4 16q3 3 17 4q10 2 34 2q38 0 48 5q4 3 4 6q0 6 -10 13
q-4 5 -14 7q-11 4 -31 1q-24 0 -30 1q-8 1 -10 6q-2 3 3 33q2 10 6.5 33.5t7.5 36.5q17 83 14 124q-1 44 -9 65q-3 11 -6 16l-4 7q-9 15 -29 18q-6 1 -18 1q-11 0 -17 -2q-5 0 -29 -3q-20 -1 -55 -3t-53 -4q-22 -3 -25 -6t-3 -8q0 -4 3 -11q6 -10 11 -12q6 -1 21 0
q48 7 89 8q45 1 48 -2q3 -4 -2 -36q-3 -31 -12 -64q-3 -10 -5 -26q-1 -7 -4 -22l-4 -20q-2 -11 -5.5 -33.5t-5.5 -33.5q-5 -37 -5 -40t-2 -6q-4 -6 -6 -8q-4 -4 -20 -7q-20 -2 -51 -2q-36 0 -48 -1q-16 -1 -23 -5q-8 -6 -8 -13v-1q1 -1 1 -2q3 -8 17 -19q10 -5 19 -5
q1 0 43 4q46 6 54 1q10 -3 1 -32z" />
    <glyph glyph-name="eight" unicode="8" horiz-adv-x="327" 
d="M22 90q5 -20 19 -46q15 -21 37 -33q16 -10 35 -12q9 0 16 3q29 8 47 24q26 28 45 60q24 40 35 65q17 53 20 64q6 22 18 64q10 40 10 86q2 45 -29 79q-13 14 -33 31q-19 15 7 38q19 38 42 71q24 37 23 78v8q0 23 -13 40q-15 23 -35 38q-17 17 -39 25q-9 3 -17 3
q-12 0 -24 -6q-20 -9 -38 -22q-16 -11 -25 -35q-18 -40 -29 -76q-12 -38 1 -80q3 -14 14 -35q14 -20 22 -30q-29 -23 -49 -59q-12 -22 -36 -68q-29 -62 -34 -135q0 -5 -0.5 -15.5t-0.5 -16.5q0 -51 11 -108zM160 555q-2 20 -2 27q0 10 2 22q1 7 4.5 26.5t5.5 30.5q3 18 6 37
l7 49q11 8 25 8q11 0 16 -2q23 -8 35 -24q16 -17 28 -38q6 -9 6 -23q0 -8 -3 -19q-6 -31 -27 -58q-17 -26 -42 -49q-13 -10 -30 -10h-6q-22 3 -25 23zM85 151q3 43 12 83q10 48 23 81q14 42 22 62q11 26 26 59q15 27 29 30q2 1 6 1q13 0 25 -12q18 -14 30 -34t12 -44
q1 -9 1 -29q0 -21 -2 -33q-2 -31 -13 -60q-8 -27 -28 -81q-16 -43 -47 -71q-19 -19 -36 -31q-17 -11 -36 -11h-9q-17 14 -17 34q0 2 0.5 4.5t0.5 3.5q3 31 1 48z" />
    <glyph glyph-name="nine" unicode="9" horiz-adv-x="450" 
d="M43 33q3 -12 23 -29q22 -15 39 -18q1 0 3 -0.5t3 -0.5q34 0 87 56q59 64 111 157q29 51 51 108q26 62 37 114q8 28 11 87q1 14 1 40q0 30 -3 54q-9 88 -28 120q-17 30 -70 45q-40 12 -61 11h-8q-22 -3 -49 -27q-25 -20 -44 -51q-18 -33 -32 -76q-24 -70 -18 -121
q6 -49 42 -76q35 -25 68 -13q34 13 78 68l28 35q11 14 14 14q2 0 4 -6q1 -4 1 -15q-2 -26 -16 -77q-9 -36 -29 -108q-9 -30 -21 -65q-8 -24 -17 -43q-37 -76 -59 -107q-21 -32 -45 -52q-28 -26 -46 -32q-16 -3 -29 11q-12 14 -20 12q-6 0 -6 -11v-4zM340 612q-4 -16 -23 -41
q-13 -17 -39 -47q-35 -35 -66 -56q-21 -13 -30 -13q-7 0 -10 5q-2 8 -2 15q0 12 5 42q9 45 21 72q14 29 34 61q22 36 39 54q9 12 27 15q5 1 12 1q13 0 21 -4q12 -6 15 -41q1 -8 1 -24q0 -24 -5 -39z" />
    <glyph glyph-name="colon" unicode=":" horiz-adv-x="266" 
d="M159 47v2q0 13 -9 22q-9 11 -26 11h-4q-18 0 -33 -14q-17 -14 -17 -32q0 -12 11 -25q13 -10 25 -11h4q16 0 32 14q17 14 17 33zM211 354v2q0 13 -10 22q-9 11 -26 11h-4q-18 0 -32 -13q-17 -15 -17 -33q0 -12 10 -24q12 -11 25 -12h4q16 0 32 14q18 15 18 33z" />
    <glyph glyph-name="semicolon" unicode=";" horiz-adv-x="246" 
d="M211 354v2q0 13 -10 22q-9 11 -26 11h-4q-18 0 -32 -13q-17 -15 -17 -33q0 -12 10 -24q12 -11 25 -12h4q16 0 32 14q18 15 18 33zM128 -15q8 14 14 54q1 6 1 15q0 24 -17 27q-2 1 -8 1q-9 0 -14 -2q-10 -1 -22 -8q-10 -5 -14 -16q-3 -12 4 -22q16 -20 10 -37
q-4 -14 -17 -34q-11 -19 -26 -38q-15 -23 -27 -37q-2 -4 -10 -14q-3 -3 -3 -6q1 -3 6 -9q4 -3 10 -3h4q13 2 17 4l18 12q11 7 16 15q11 16 31 48q13 23 27 50z" />
    <glyph glyph-name="less" unicode="&#x3c;" horiz-adv-x="389" 
d="M110 282l18 12t17 12q19 14 31 21q39 26 84 64q41 37 73 77q4 5 10 15q7 14 8 17q6 12 3 19q-1 9 -11 12q-5 3 -9 3q-5 0 -7 -2q-4 -3 -12 -11q-8 -9 -24 -29q-16 -18 -26 -26q-60 -52 -91 -78q-21 -18 -93 -76q-18 -15 -20 -29q0 -12 22 -28q9 -4 23 -15q4 -2 12 -6.5
t12 -6.5q53 -25 94 -46q53 -25 94 -46q9 -3 18 -9q4 -2 7 -2q5 0 13 4q-1 17 -11 30t-25 20q-24 12 -72 34q-48 24 -72 35q-15 9 -32 16q-20 12 -34 19z" />
    <glyph glyph-name="equal" unicode="=" horiz-adv-x="533" 
d="M97 367q16 -37 62 -49q44 -11 139 -11h26q58 0 73 3t21 12q9 10 9 17v3q-1 8 -20 27q-22 24 -49 28q-25 6 -97 3q-48 -2 -68 -2q-32 2 -40 4q-22 7 -39 7q-12 0 -17 -4q-7 -3 -7 -14q0 -7 7 -24zM97 244q16 -37 62 -49q44 -11 139 -11h26q58 0 73 3t21 12q9 11 9 18v2
q-1 8 -20 28q-23 23 -49 27q-25 6 -97 3q-24 -1 -68 -1q-29 0 -40 3q-22 7 -39 7q-12 0 -17 -4q-7 -4 -7 -14q0 -6 7 -24z" />
    <glyph glyph-name="greater" unicode="&#x3e;" horiz-adv-x="389" 
d="M241 327q15 -8 31 -21q20 -13 35 -24q-7 -3 -19 -10t-15 -9t-9.5 -5t-12 -5.5t-10.5 -5.5q-24 -11 -72 -35q-48 -22 -72 -34q-14 -7 -24 -20q-9 -12 -12 -30q10 -4 13 -4q4 0 8 2q8 6 17 9q32 16 94 46q16 8 47.5 23.5t46.5 22.5q5 2 14 7t11 6q14 11 23 15q21 15 21 28
q0 15 -20 29q-30 26 -92 76q-15 13 -45.5 39t-45.5 39q-14 12 -26 26q-16 20 -24 29q-8 8 -12 11q-2 2 -7 2q-4 0 -10 -3q-7 -3 -10 -12q-1 -6 2 -19q2 -3 5 -8.5t4 -8.5q6 -10 10 -15q28 -35 73 -77q47 -38 83 -64z" />
    <glyph glyph-name="question" unicode="?" horiz-adv-x="348" 
d="M263 757q-12 11 -26 16q-7 5 -21 5h-2q-9 0 -18 -4q-7 -2 -21 -11q-33 -21 -45 -39q-12 -17 -10 -49q3 -8 14 -11q12 -3 15 5q3 9 32 30q29 22 35 22q9 0 9 -34q0 -35 -10 -65q-11 -36 -26 -74q-24 -56 -41 -89q-21 -54 -46 -102q-20 -36 -23 -70q0 -11 -7 -41
q-3 -9 -3 -17q0 -13 8 -24q15 -15 33 -21q8 -2 12 -2q10 0 18 5q13 9 19 30q6 23 6 26q0 4 8 23q6 13 18 41q9 16 25 53q9 18 23 54q12 33 17 43q10 23 13 27q23 33 32 79q9 45 12 87q-3 49 -16 69q-12 20 -34 38zM141 53l1 3q0 14 -11 24q-11 12 -29 12h-4q-18 0 -36 -15
q-18 -17 -18 -36q0 -14 11 -27q12 -10 28 -12h4q20 0 35 15q19 16 19 36z" />
    <glyph glyph-name="at" unicode="@" horiz-adv-x="573" 
d="M135 374q-48 -51 -66 -127q-5 -20 -5 -37q0 -53 40 -105q8 -8 19 -10q12 -2 20 1q19 6 36 21q13 13 27 25q0 -5 -0.5 -11.5t-0.5 -7.5q0 -6 -3 -22q0 -20 -3 -44q-2 -30 -2 -45q1 -40 17 -71q15 -29 61 -31q26 6 43 18q18 11 35 28q31 31 52 70q19 37 44 75q48 95 88 202
q37 98 37 202q0 10 -1 14q0 41 -29 78q-26 34 -67 50q-21 9 -43 9h-3q-23 0 -42 -8q-1 -8 0 -12q4 -4 7 -5q14 -4 34 -1q26 3 43 -1q11 0 17 -6q9 -5 12 -13q38 -29 44 -73q8 -42 0 -87q-4 -32 -8 -48q-2 -10 -10 -45q-28 -109 -79 -206t-126 -180q-17 -7 -29 -7
q-10 2 -17 8q-5 8 -5 23q0 5 5 32q7 24 17 55q10 22 14 43q2 7 29 96q16 54 16 100q2 29 -4 53q-5 28 -18 52q-24 33 -64 28q-38 -3 -73 -24q-15 -9 -34 -26q-13 -13 -25 -30zM166 248q3 6 14 35q12 29 32 66q10 19 26 41q16 21 28 26q6 3 11 3q6 0 12 -3q11 -4 20 -26
q-19 -53 -40 -100q-19 -45 -45 -98q-9 -16 -21 -26q-9 -8 -18 -9h-2q-17 0 -25 27q-3 9 -3 20q0 19 11 44z" />
    <glyph glyph-name="A" unicode="A" horiz-adv-x="532" 
d="M517 372q15 2 22 7q7 6 6 11v2q-3 10 -22 13q-21 5 -51 8q-6 1 -30 4l-13 3q0 7 2 17t7 62q6 48 9 81q3 36 3 59q3 48 -6 70q-6 23 -24 44q-19 25 -25 25q0 1 -2 1q-8 0 -28 -7q-3 0 -7 -6l-6 -12q-1 -4 -8 -18q-9 -18 -11 -21t-6.5 -11.5t-7.5 -13.5l-13 -26
q-10 -22 -16 -36q-4 -8 -11.5 -24t-11.5 -24q-13 -31 -25 -55q-13 -27 -24 -53q-12 -26 -19 -40q-10 -20 -15 -25q-6 -8 -14 -20q-4 -7 -17 -9q-31 -3 -45 -7q-4 -1 -12.5 -3.5t-11.5 -3.5q-16 -6 -11 -16q4 -8 27 -13q6 -1 21 -1q14 1 18 5q0 -2 3 -2h6q-20 -44 -23 -50
q-3 -7 -12 -27q-3 -9 -17 -41q-5 -14 -28 -69l-21 -51q-18 -36 -22 -46q-10 -23 -10 -26l-1 -1v-3q0 -5 4 -11q5 -3 11 3q1 1 3.5 5t4.5 6q2 3 7 8t7 8q7 11 13 25q9 16 15 35q20 48 28 72q18 44 23 54q6 9 12 24q9 15 12 26q6 11 10 23q2 5 6 12l4 7q2 3 4.5 8.5t3.5 6.5
q104 17 148 24q2 -15 0 -53q0 -14 -0.5 -31.5t-0.5 -21.5q2 -50 0 -104t3 -95q3 -27 6 -39q4 -12 16 -32q12 -17 22 -26q14 -11 29 -16q15 -6 20 -6q3 0 11 4q6 6 4 15q0 8 -10 28q-1 1 -5 14q-2 6 -4 18q-4 34 -6 95q-1 58 2 99q2 16 4 68q3 48 3 57q0 5 0.5 11t1 8.5
t0.5 3.5q3 4 12 6q14 4 42 7q24 3 37 3zM262 492q13 36 29 69q12 27 32 65q11 21 14 28q2 4 3.5 7.5t2.5 5.5l1 2l4 10l8 16q9 12 11 14l1 1q3 0 3 -4v-1q0 -11 -4 -48q-4 -53 -10 -106q-7 -68 -10 -86q-2 -10 -4 -22t-2 -13q0 -4 -0.5 -11t-0.5 -8q-30 -3 -45 -6
q-13 -3 -29.5 -6.5t-20.5 -4.5t-13.5 -2.5t-13.5 -2.5v1q0 6 2 10q2 7 10 21q6 12 15 33q4 11 17 38z" />
    <glyph glyph-name="B" unicode="B" horiz-adv-x="533" 
d="M488 198q5 20 5 52v19q-1 39 -11 64q0 1 -1.5 4.5t-2.5 6.5q-1 2 -2.5 7.5t-2.5 8.5q-5 17 -31 46q-25 31 -40 37q-10 6 -10 10q1 6 16 16q22 18 36 54q15 35 13 74q0 37 -11 60q-11 28 -34 54q-7 9 -17 19q-11 11 -14 13q-36 25 -80 30q-47 5 -70 5q-28 0 -42 -2
q-9 -1 -17 -8q-11 -9 -6 -17q7 -7 26 -7h21q0 -8 -0.5 -19.5t-0.5 -14.5q0 -14 -3 -27v-16q0 -3 -3 -21q-1 -4 -8 -38q-2 -14 -8 -42q-4 -27 -5 -31q0 -11 -4 -30q-3 -21 -9 -42q-4 -21 -12 -60q-8 -37 -15 -72q-10 -61 -32 -172q-25 -125 -29 -143q-4 -15 -8.5 -35.5
t-4.5 -21.5h-18q-3 0 -19 2q-14 2 -20 3q-11 3 -17 1q-2 0 -2 -1v-2q3 -8 23 -18q26 -11 46 -13q32 -4 44 -4q3 0 7.5 0.5t6.5 0.5q28 2 55 6q30 6 60 15q20 7 58 21q11 4 33 10q15 6 31 15q24 15 48 36q22 19 35 39q4 6 9 18q4 8 12 28q8 21 16 47q9 24 9 35zM407 275
q1 -3 1 -10q0 -26 -5 -46q-4 -26 -14 -55q-4 -10 -14 -32q-6 -16 -16 -31q-5 -11 -16 -25q-10 -16 -19 -25q-20 -20 -41 -32q-25 -14 -47 -23q-8 -3 -43 -18q-14 -4 -18 -4q-9 0 -9 10v6q34 167 44 223q15 75 43 223q5 1 14 1q33 0 63 -15q36 -17 56 -50q14 -21 18 -46
q4 -24 3 -51zM351 702q16 -22 22 -57q2 -8 2 -25q0 -22 -6 -43q-5 -18 -22 -40q-17 -23 -38 -38q-13 -10 -26 -10h-2q-11 0 -14 8v1q0 5 3 20q6 25 8 43q16 64 20 102q4 42 1 57l-5 17q1 2 7 2q8 0 23 -12q17 -11 27 -25z" />
    <glyph glyph-name="C" unicode="C" horiz-adv-x="348" 
d="M311 96q11 32 21 75q11 46 5 52q-3 3 -12 -10q-8 -11 -21 -38q-12 -21 -13 -23q-2 -3 -6 -10t-5 -9q-8 -16 -24 -50t-26 -50q-18 -23 -35 -38q-22 -19 -33 -23q-28 -10 -36 -3q-3 4 -20 41q-7 22 -8 36v67q0 14 3 35q1 10 8 45q10 48 21 95q12 51 24 84q6 18 7 23
q6 20 8 29q7 28 22 78q21 67 43 124q13 33 32 73q19 34 33 43q10 6 15 5q6 0 14 -18q10 -18 17 -46q6 -22 4 -51q0 -25 3 -37q6 -12 15 -10q3 1 9 5q6 6 8 13q5 10 5 21v1q0 9 -3 32q-9 53 -31 83q-21 32 -51 37q-2 1 -7 1q-13 0 -34 -6q-26 -8 -38 -18q-8 -7 -24 -31
q-23 -37 -31 -52q-12 -24 -14 -29q-9 -20 -10 -24q-5 -13 -10.5 -29.5l-9 -27t-6.5 -17.5q-15 -48 -17 -55q-6 -18 -12 -39q-8 -27 -10 -33q-22 -75 -34 -128q-15 -76 -20 -121q-7 -58 -7 -73q1 -1 1 -3q0 -18 7 -56q9 -40 30 -72q22 -29 53 -48q18 -9 33 -9h5q18 3 43 19
q21 14 38 31q19 21 29 37q19 25 30 49q17 39 22 53z" />
    <glyph glyph-name="D" unicode="D" horiz-adv-x="492" 
d="M466 241q13 40 20 91q5 43 7 94v10q0 72 -8 125q-9 66 -24 84q-15 30 -38 53q-20 23 -44 42q-39 40 -86 44q-52 5 -89 5q-1 1 -4 1q-2 0 -4 -1q-4 0 -8 -4q-7 -6 -9 -11q0 -8 2 -17q3 -8 -12 -44q-16 -36 -24 -61q-40 -121 -53 -159q-27 -80 -50 -174q-12 -62 -19 -100
q-10 -59 -19 -129q-4 -42 -4 -53q0 -4 0.5 -12t0.5 -11q4 -23 18 -37q13 -10 21 -11h1q9 0 22 8q37 22 58 52q22 31 39 83q2 5 5.5 17.5t5.5 19.5t5 15l3 8q6 12 16 49q8 27 22 89q2 9 6.5 27t6.5 27q2 7 4.5 15.5t3.5 13t2 7.5q7 25 11 52q6 31 9 68q7 63 7 135q0 68 -9 97
q6 6 11 6q7 2 13 -1q12 -2 20 -10q12 -8 21 -18q17 -16 34 -41q17 -21 20 -31q10 -15 13 -36q1 -6 3.5 -18t3.5 -18q11 -56 8 -134q-3 -80 -18 -153q-7 -41 -24 -88q-16 -48 -43 -82q-30 -38 -70 -75q-41 -39 -83 -32q-12 3 -16 -1q-3 -5 -3 -16q3 -13 19 -22q16 -8 49 -11
q38 -2 59 7q22 10 59 42q47 42 81 101q36 60 51 123zM58 285q16 81 34 137q7 23 21 67t20 64q5 13 22 52q16 35 19 37h1q2 0 2 -3q1 -2 1 -7q0 -3 -1 -6q1 -17 -2 -46q-3 -25 -12 -82q-2 -9 -13 -69q-4 -28 -17 -95q-13 -64 -33 -136q-23 -83 -41 -130q-5 -15 -14 -33
q-8 -14 -10 -15h-1q-7 0 -7 26v4q0 18 7 91q8 66 11 83q7 38 13 61z" />
    <glyph glyph-name="E" unicode="E" horiz-adv-x="328" 
d="M458 737q9 7 9 13q0 3 -1 4q-4 8 -30 15q-27 9 -71 9q-15 0 -23 -1q-61 -3 -121 -19q-20 -6 -35 -8q-22 -4 -26 -4q-20 0 -32 -4q-11 -3 -14 -12v-4q-1 -5 -1 -10v-24q0 -13 -1 -25q-2 -30 -4 -42q-4 -37 -14 -109l-18 -126q-11 -69 -21 -122q-8 -51 -17 -86q0 -1 -3 -14
t-5 -23l-7 -42q-5 -33 -8 -43q-3 -19 -8 -39q-7 -42 -7 -48v-1q0 -8 7 -15q6 -4 9 -5h4q2 0 4 0.5t3 0.5t5 0.5t12.5 1t17.5 0.5q22 1 75 1q29 0 58 0.5t31 0.5q19 3 34 9q18 9 21 12q4 4 -2 13q-6 8 -23 9q-16 1 -40 -5q-6 -2 -22 -3q-5 0 -17 -0.5t-18 -0.5
q-10 0 -28.5 0.5t-27.5 0.5q-27 2 -29 4q0 5 2 13q4 12 9 30q17 48 38 145q23 105 42 221q6 34 11 71h38q37 2 61 6q25 6 25 13q0 3 -3 8q-2 7 -6 10q-8 8 -16 9q-6 2 -41 2h-45q0 5 0.5 10.5t0.5 6.5q0 2 0.5 12.5t0.5 19.5q1 17 1 51q0 10 0.5 25.5t0.5 21.5l2 21
q22 5 40 5q17 1 41 8t54 12q24 4 73 8q28 2 38 4q12 3 17 8z" />
    <glyph glyph-name="F" unicode="F" horiz-adv-x="328" 
d="M429 718q20 3 29 12q6 6 6 13q2 5 -1 7q-2 7 -9 11q-6 4 -23 9q-32 2 -36 2q-6 2 -18 2h-7q-18 -3 -38 -5q-10 -1 -31 -2.5t-30 -2.5l-39 -3q-6 0 -16 -0.5t-14 -0.5q-19 0 -24 -1q-6 -1 -13 -10q-2 -2 -10 -8q-6 -3 -9 -3q-12 0 -46 -10q-36 -9 -45 -15q-8 -5 -11 -10
q0 -3 3 -15q3 -11 18 -16q15 -4 50 -4q18 1 40 1q-1 -15 -3 -24q0 -7 -5 -27q-4 -20 -6 -29q-1 -4 -4.5 -17t-6.5 -23q-2 -9 -5.5 -27t-5.5 -27q-3 -16 -7.5 -37t-5.5 -26q-8 -1 -28 -7q-35 -8 -47 -16q-8 -6 -2 -23q6 -11 12 -14t15 0q8 4 22 4q13 0 16 -4q1 -2 -8 -50
q-17 -85 -34 -164q-19 -85 -31 -133q-11 -52 -19 -74q-2 -4 -2 -8t4 -12q10 -8 28 -13q5 -2 11 -3.5t9 -3t5 -1.5h1q2 0 10 4q7 5 16 33q10 24 20 69q4 20 9 40q6 27 12 44q4 12 13 53q8 28 13 62q2 10 5.5 26.5t4.5 23.5q5 19 5 24q1 1 4 18q2 8 7 31q7 45 14 55t33 16
q16 4 25 6q15 3 22 3q6 1 16 3q8 3 10 5q8 7 10 21q3 14 -4 21q-6 7 -18 7q-13 0 -38 -7q-20 -5 -35 -5q-12 0 -9 8q0 2 3 17t6 33t6 33q1 3 1.5 5.5t1 4.5t1 3.5t0.5 2.5v1q1 2 4 17q4 20 6 31q9 42 12 57q5 15 13 18q1 1 20 4q24 4 38 5q28 2 42 4l12 2t11 2t7 1q7 2 20 4
q8 2 22 2z" />
    <glyph glyph-name="G" unicode="G" horiz-adv-x="451" 
d="M367 199q28 1 44 14q9 7 9 14q0 6 -6 12q-9 13 -52 17q-42 5 -89 -3q-45 -6 -54 -9q-7 -1 -9 -11q0 -15 5 -21t25 -13q7 -2 19 -6q13 -4 14 -5q12 0 16 -2q7 0 10 -5q0 -5 -9 -26q-3 -9 -16 -42q-2 -4 -5.5 -13t-5.5 -14q-2 -4 -5 -10.5t-4 -8.5q-14 -26 -32 -48
q-19 -23 -35 -36q-20 -17 -45 -22q-21 -5 -30 6q-6 7 -16 37q-8 27 -8 38q-6 77 4 134q13 72 22 112q4 15 6 29q1 4 2 8.5t1.5 6.5t0.5 3q27 68 45 146q19 75 48 142q5 11 13.5 30.5t11.5 26.5q14 28 39 47q7 5 15 7q16 4 20 4q21 3 29 -5q8 -7 14 -37q6 -22 11 -28
q5 -5 19 -2q11 3 11 10q1 7 -5 24q-4 20 -17 42q-10 21 -32 27q-17 7 -39 7q-18 0 -32 -5q-35 -9 -70 -42q-24 -25 -41 -50q-19 -30 -40 -79q-36 -79 -74 -207q-34 -118 -46 -236q-2 -23 -4 -65v-4q0 -27 13 -63q12 -25 21 -42q8 -15 24 -31q19 -21 39 -35q21 -13 38 -16
q2 0 4.5 -0.5t3.5 -0.5q13 0 28 3q23 5 35 13q26 15 45 49t37 65q15 29 28 66q14 40 16 68q3 21 10 28q8 7 25 7z" />
    <glyph glyph-name="H" unicode="H" horiz-adv-x="471" 
d="M467 525q8 29 13 58q7 29 8 43q2 10 2 27q0 16 -3 25q-5 18 -21 39q-9 13 -17 18q-5 4 -18 4q-8 0 -11 -10q-2 -7 -7 -45q0 -8 -4 -36q-4 -22 -7 -31q-2 -14 -7 -31q-7 -30 -8 -36q-7 -33 -20 -81q-9 -37 -13 -41q0 -2 -12 -5l-24 -8q-14 -3 -33 -9t-33 -9q-36 -9 -42 -9
q-4 1 -3 19q0 2 1.5 11l2.5 15q1 5 3.5 18t3.5 20q2 12 6.5 33t6.5 29q2 11 5.5 26t4.5 19q5 20 8 36q5 23 7 46q6 42 4 52q0 10 -24 47q-2 5 -7 9q-4 4 -10 8q-4 2 -10 2h-1q-3 0 -10 -4t-10 -16q-1 -5 -8 -56q-4 -36 -8 -54q-3 -21 -8 -42q-10 -48 -18 -81q-1 -5 -6 -29.5
t-8 -39.5q-4 -28 -8 -41q-4 -17 -8 -30q-1 -4 -1.5 -7.5t-1.5 -7.5t-1 -5q-30 -11 -31 -11q-30 -9 -39 -15q-10 -7 -10 -13q0 -10 11 -13q12 -1 30 3q12 4 17 5q8 2 8 0q1 0 1 -1.5t-0.5 -5t-1.5 -8.5q-2 -16 -7 -32q-2 -15 -11 -48q-6 -28 -12 -51q-8 -33 -22 -86
q-2 -11 -7 -33.5t-8 -33.5q-8 -31 -10 -37q18 -20 20 -23q17 -20 30 -23q13 0 20 16q4 7 5 14q2 5 2 12q0 5 3 18q4 18 8 27q1 4 10 37q2 10 6 25l5 15q2 5 11 40q2 8 11 38q12 47 18 72q3 9 13 51q1 4 2.5 8.5l3 9t2.5 6.5q1 3 2 6.5t1.5 5t0.5 2.5q3 3 14 7q10 4 28 8
q6 2 19.5 6t18.5 5q27 9 36 13q16 7 25 9q12 4 12 3q3 -1 -6 -40q-5 -30 -16 -71q-1 -3 -3 -14.5t-4 -18.5q-3 -16 -6 -31q-2 -16 -7 -36q-6 -34 -8 -46q-12 -54 -20 -106q-10 -62 -10 -76q0 -16 4 -21q6 -5 26 -9q22 -4 25 -4q8 0 12 4q8 7 13 47q12 67 22 119
q17 77 33 161l9 42q6 22 6 31q3 11 13 61q9 38 11 40q0 2 8 32q10 33 18 68z" />
    <glyph glyph-name="I" unicode="I" horiz-adv-x="205" 
d="M254 663q7 27 7 45v4q0 17 -13 27q-6 4 -9 8l-5 10q0 4 -6 10t-12 9q-9 4 -14 4q-4 0 -10 -5q-2 -1 -8 -21q-3 -9 -16 -69q-7 -42 -13 -70q-3 -16 -10 -52t-10 -49q-23 -118 -36 -184q-13 -70 -19 -91q-1 -5 -3 -14.5t-6 -26t-7 -30.5q-14 -72 -22 -109q-15 -74 -16 -78
q-2 -9 -3.5 -18t-2.5 -13t-1 -5v-1q0 -10 8 -20q4 -4 24 -20q22 -10 23 -10h1q5 0 14 6q6 5 10 16q5 12 11 53q4 15 8 46q4 20 4 25q0 1 0.5 3.5t1.5 7t2 9.5q5 21 8 40q2 6 4 14t4.5 19.5t4.5 18.5q7 28 12 53q3 11 10 44q2 6 3.5 13t2.5 11t2 7q2 5 13 63q13 58 24 121
q13 71 24 125q5 24 10.5 48.5t5.5 25.5z" />
    <glyph glyph-name="J" unicode="J" horiz-adv-x="451" 
d="M416 449l16 80t18 88q16 79 17 101q0 15 3 30q2 4 2 10q0 10 -7 14q-4 4 -10 4q-4 2 -14 2q-9 0 -17 -3q-10 -5 -18 -11q-12 -10 -31 -20q-13 -7 -60 -25q-74 -30 -104 -49q-32 -20 -47 -45q-10 -18 -14 -31q0 -10 8 -14q10 -4 24 2q13 6 25 21q6 8 9 11q7 5 8 5
q66 31 106 47q16 7 27.5 11t17 5.5t5.5 0.5q4 -7 2 -28q0 -19 -6 -30q-1 -2 -5.5 -18.5t-7.5 -30.5q-7 -26 -22 -100q-5 -21 -9 -45q-3 -21 -12 -57q-1 -4 -6.5 -30t-9.5 -41q-9 -42 -12 -55q-19 -98 -50 -169q-29 -68 -66 -97q-11 -10 -21 -13q-4 -2 -34 -5q-12 -2 -26 9
q-14 13 -22 23q-6 10 -6 24q0 16 -2 21q-2 10 -4 17q-1 8 -3 13q0 4 -3 10q-3 7 -9 9q-4 3 -11 3q-6 2 -11 -3q-8 -6 -10 -16v-5q0 -3 2 -25q7 -39 16 -65q6 -15 23 -32q37 -29 57 -36q21 -6 50 -9h7q8 0 22 2q18 5 26 9q21 10 43 34q21 23 38 51q22 44 36 90q15 48 24 90
q25 105 34 149q17 77 24 122z" />
    <glyph glyph-name="K" unicode="K" 
d="M293 -83q2 0 4.5 -0.5t3.5 -0.5q10 0 23 8q21 12 9 25q-5 6 -5 43q3 36 9 114q4 30 4 40q1 6 4 30q3 41 3 56q0 23 -1 38q-5 94 -9 138q-3 42 -11 55q-7 17 -23 33q-15 17 -29 21q-2 1 -6.5 3t-6.5 3q-6 5 -6 6q0 2 8 10q10 13 18 19q37 37 55 58q25 29 46 57
q34 47 50 74q5 7 5 15q1 4 -2 7q-4 4 -10 0q-7 -3 -15 -17q-22 -32 -59 -76q-34 -40 -75 -80q-20 -19 -51 -44q-26 -20 -35 -20q-1 0 -1 2t0.5 5.5t1.5 8.5q6 36 8 45q1 6 8 46q4 17 6 31q6 30 4 39q0 9 -4 16q-4 10 -11 17q-5 9 -14 18q-9 12 -15 15q-3 3 -9 3h-3
q-12 0 -17 -8q-4 -7 -3 -25q1 -7 -2 -32q-1 -18 -8 -55q-6 -42 -28 -145q-14 -70 -38 -167q-4 -17 -16 -65l-18 -72q-11 -46 -26 -105q-3 -16 -9 -39q-1 -5 -3.5 -12.5t-4 -13t-2.5 -9.5q-7 -26 -7 -35v-6q3 -9 18 -15q23 -6 37 7q17 14 20 43q2 5 4 19q3 11 6 16
q6 12 12 36q7 22 18 68q1 4 3 10.5t3 12t2 9.5q5 18 5 19q2 5 5 18q6 18 8 32q8 32 10 39q6 23 12 37l10 40q2 9 5.5 23.5t4.5 19.5q1 6 4 18.5t4 17.5q4 18 7 19q4 6 8 8q8 6 11 8q7 5 14 7l20 -10q19 -9 23 -18q5 -8 7 -40q2 -16 2 -26q2 -16 2 -20q7 -32 7 -87
q2 -55 -4 -106q-2 -30 -4 -45v-11t-0.5 -8t-0.5 -4q0 -6 -1 -11q0 -2 -0.5 -6t-1.5 -11.5t-2 -14.5q-7 -73 0 -109q9 -37 35 -57z" />
    <glyph glyph-name="L" unicode="L" horiz-adv-x="369" 
d="M348 20q4 3 4 7q0 2 -1 3q-1 6 -8 9q-25 12 -75 11q-43 -1 -114 -8l-24 -2h-6q-2 3 6 30q7 24 17 55q6 16 11 31q9 26 11 34q9 27 18 51q3 8 11.5 28t13.5 34q4 11 9 27q5 15 7 32q4 22 5 27q1 4 2 8.5t1.5 7t0.5 4.5q1 6 3 15q3 9 3 14q0 1 5 17q2 6 4 21q1 4 2.5 11.5
t2.5 11.5q5 15 5 21q6 19 9 34q5 18 12 54q3 10 6 31q2 7 4 17.5t3 13.5q6 27 3 47q-3 19 -12 41q-6 13 -21 17q-7 3 -14 3t-10 -1q-8 -3 -12 -13q-3 -9 -6 -33q0 -6 -4 -30q-5 -24 -7 -32q-6 -20 -12 -44q-4 -19 -12 -55q-3 -17 -11 -51q-2 -6 -3.5 -14t-2.5 -12.5t-2 -7.5
q-3 -9 -6 -24q-1 -3 -2.5 -11.5t-2.5 -12.5q-1 -3 -9 -31q-4 -14 -12 -38q-4 -16 -12 -40q-2 -7 -5.5 -17.5t-4.5 -14.5q-2 -7 -9 -28q-6 -14 -9 -29q-6 -16 -10 -26q-5 -14 -7 -23q-9 -24 -15 -45t-15 -42q-4 -16 -8 -24q-3 -12 -6 -18q-3 -10 -14 -40q-10 -25 -14 -29
q-2 -4 -2 -9q0 -1 0.5 -4t0.5 -5q4 -10 15 -22q10 -10 14 -12q8 -4 11 -4q9 0 12 3t10 17q6 10 25 22q21 12 48 21q18 6 45 12q25 5 80 5q44 2 55 2q7 0 13 0.5t9 1.5h3z" />
    <glyph glyph-name="M" unicode="M" horiz-adv-x="594" 
d="M621 603q11 35 14 69q1 10 1 25q0 20 -4 29q-5 21 -13 29q-6 10 -16 10q-9 0 -17 -8q-7 -8 -10 -19q-5 -28 -22 -48q-18 -22 -26 -35q-15 -22 -34 -42q-16 -17 -59 -52q-16 -14 -39 -31q-16 -12 -20 -12q-1 0 -14 16q-4 6 -12.5 19t-13.5 21q-11 20 -30 49q-17 29 -23 36
q-14 22 -19 39q-3 15 -8 25q-5 11 -9 28q-3 17 -17 31q-15 18 -24 18q-4 0 -7 -4q-8 -11 -22 -91q-16 -88 -30 -164q-13 -67 -19 -87q0 -1 -3 -13.5t-5 -20.5q-3 -9 -8 -35q-1 -5 -3 -14.5t-3 -14.5l-5 -20q0 -1 -1 -3.5t-2.5 -8.5t-3.5 -11q-6 -18 -12 -42q-1 -4 -3 -12.5
t-4 -16t-4 -15.5q-8 -34 -12 -52q-15 -65 -16 -69l-7 -30q-1 -4 -10 -34q-2 -5 -5 -16t-5 -15q-4 -17 -6 -24v-2q0 -5 6 -17q11 -11 30 -20q21 -7 29 -6q11 3 15 12q7 13 10 36q5 23 8 34q4 14 11 35q5 11 13 52q6 24 16 72q1 3 4 17t4 20q5 19 6 28q0 1 1.5 5.5t3.5 13
t5 17.5q11 35 39 145q7 26 15 65q3 12 14 71q3 18 6 30q3 13 3 20q3 19 3 26t5 -3q2 -4 17 -28q18 -27 33 -52q9 -13 18 -31q9 -15 12 -27q2 -4 11 -19q8 -8 13 -12q10 -6 13 -6t9 6q3 3 4 7q3 4 3 6q0 3 9 12q8 8 20 17q7 5 23 19q3 3 6 5.5t4.5 4.5t3 3.5l2.5 2.5
q2 2 6 6.5t6 6.5q3 3 8 7.5t7 6.5q4 5 14 17l6 9t6 8q17 20 25 31q9 10 12 10q1 -1 0 -7t-5 -22q-7 -29 -12 -40l-1 -2q0 -2 -1 -5.5t-2 -6.5l-7 -28q-2 -15 -12 -53q-9 -32 -24 -131q-6 -44 -18 -128q-3 -28 -11 -90.5t-12 -91.5q-9 -69 -6 -87q3 -17 23 -31q17 -11 29 -11
h2q12 0 18 8q3 5 6 11q3 4 0 13q0 12 4 59q2 17 6.5 57t7.5 64q3 21 10 74q2 10 10 72q14 95 33 188q19 87 35 143z" />
    <glyph glyph-name="N" unicode="N" horiz-adv-x="553" 
d="M198 761q-6 9 -12 12q-4 5 -9 5h-1q-4 1 -8 -4t-7 -16q-5 -21 -12 -75q-14 -101 -24 -161q-7 -50 -16 -86q-8 -38 -12 -58q-3 -24 -11 -58q-11 -44 -19 -73q-10 -40 -18 -76q-2 -15 -7 -33q-4 -17 -9 -34q-3 -14 -9 -34q-4 -18 -9 -30q-1 -5 -3.5 -15l-3.5 -14
q7 -8 9 -13q9 -9 24 -19q15 -8 23 -6q10 3 15 13q5 8 8 35q6 28 7 34q9 31 10 34q13 54 17 69q13 55 17 78q15 45 24 90q8 45 18 88q8 31 13 66q6 28 4 35q0 4 2 16q1 7 3 19q4 11 5 22q4 20 4 25q3 20 7 25q5 7 11 -2q0 -1 2 -4t3 -5q5 -5 7 -9q3 -3 14 -52q19 -78 28 -118
q2 -8 17 -78q8 -32 19 -82q21 -91 33 -145q22 -88 25 -99q1 -9 8 -26q12 -18 19 -26q4 -5 12 -13q7 -5 9 -5h1q9 0 14 20q8 29 13 75q4 28 12.5 83.5t11.5 77.5q12 69 16 86q3 13 9.5 44t9.5 48q2 8 9 40t11 48q11 41 18 77q4 15 11 42.5t8 32.5q5 18 8 34q7 24 10 30
q6 26 7 29l-5 7.5t-4 5.5q-8 11 -24 19q-15 9 -23 6q-9 -3 -15 -13q-5 -10 -8 -35q-2 -16 -7 -34q-5 -21 -10 -34q-8 -50 -26 -108q-15 -54 -27 -105q0 -2 -3 -16t-5 -26q-6 -31 -15 -70q-10 -29 -13 -68q-1 -35 -9 -68q0 -1 -5 -22q-2 -9 -4 -25v1h1q-1 -1 -1 -3
q0 -1 -2 -3q-19 43 -38 118q-15 59 -34 150q-12 56 -19 84q-12 56 -20 82q-16 67 -35 111q-19 53 -45 82z" />
    <glyph glyph-name="O" unicode="O" horiz-adv-x="427" 
d="M412 592q1 6 1 16q0 46 -20 89q-23 56 -64 74q-16 8 -40 8q-11 0 -18 -1q-32 -5 -56 -19q-62 -44 -104 -117q-44 -77 -67 -159q-12 -45 -21 -93q-8 -65 -10 -94q0 -7 -0.5 -22.5t-0.5 -23.5q0 -41 5 -88q9 -62 27 -109l26 -52q14 -26 40 -37q21 -7 38 -7q9 0 25 2
q36 8 61 25q46 49 74 123t44 133q24 88 39 175q18 89 21 177zM285 758h7q28 0 49 -30q24 -33 33 -64q15 -48 15 -97v-13q0 -44 -7 -85q-14 -94 -49 -183q-13 -34 -68 -178q-4 -6 -13 -24q-5 -10 -17 -30q-10 -18 -28 -42q-15 -18 -28 -18q-17 3 -24 21q-9 28 -11 34
q-21 69 -21 141q0 4 0.5 11t0.5 10q3 84 12 165q6 48 20 95q2 8 28 93q15 30 29 77q11 38 28 74q5 11 19 29q11 11 25 14z" />
    <glyph glyph-name="P" unicode="P" horiz-adv-x="512" 
d="M229 746q-1 -7 -4 -34q-1 -14 -6 -27l-72 -321l-72 -321q-1 -4 -3.5 -13.5t-3.5 -14.5q-3 -12 -6 -27q0 -1 -0.5 -3.5t-0.5 -3.5q2 -16 12 -28q15 -15 39 -18q2 0 4.5 -0.5t3.5 -0.5q14 1 24 8q13 10 17 32q6 25 9 46q2 16 10 46l45 165q25 88 45 166q4 15 14 29
q7 9 25 22q22 14 62 42q30 22 56 47q46 43 66 92q14 31 14 69q0 22 -4 38q-7 44 -39 65q-27 18 -72 18h-14q-64 -3 -129 -25q-60 -20 -114 -57q-16 -12 -25 -22q-13 -13 -16 -33q51 23 67 31q42 20 68 33zM291 480q12 52 17 77q12 50 18 76q9 33 12 67q4 32 -11 69
q36 18 69 18h3q37 0 52 -22q9 -9 12 -22q5 -10 5 -25v-5q0 -60 -29 -108q-31 -51 -83 -93q-8 -6 -28 -20q-13 -8 -29 -19q-1 3 -4 4q-2 2 -4 3z" />
    <glyph glyph-name="Q" unicode="Q" horiz-adv-x="471" 
d="M332 -13q18 0 30 19q12 22 4 44q-2 14 -8 32q-1 5 -3.5 15.5t-3.5 15.5q0 3 -0.5 9t-0.5 9q0 11 3 18q16 42 25 62q12 28 22 63q8 26 31 109q15 55 24 111q6 27 6 53q0 39 -12 73q-18 59 -60 112q-21 28 -57 39q-21 7 -46 7q-15 0 -23 -1q-20 -3 -34 -11q-16 -8 -28 -20
q-19 -20 -32 -39q-13 -17 -26 -43q-32 -69 -62 -156q-25 -72 -44 -163q-9 -49 -15 -106q-2 -32 -2 -48q0 -29 3 -59q3 -27 9 -58q6 -28 15 -57q13 -38 48 -52q26 -8 50 -8q9 0 25 2q20 3 41 11q22 8 36 19q16 11 29 30q16 24 26 36q9 -18 9 -43q3 -23 21 -25zM328 190
q-12 16 -13 18q-7 10 -13 15q-4 4 -12 5q-8 2 -13 -1q-5 0 -9 -9q-3 -6 -3 -13q2 -16 4 -25q1 -3 3.5 -12t3.5 -14q6 -18 3 -36q-3 -16 -15 -33q-18 -23 -49 -49q-26 -22 -58 -36q-11 -6 -20 -6q-7 0 -13 3q-13 6 -19 27q-11 44 -12 87v10q0 38 3 77q9 96 38 176
q10 28 58 170q2 6 5.5 18t5.5 17q9 31 11 41q7 26 21 74q11 39 19 53q22 9 42 9q18 0 29 -5q35 -11 57 -45q34 -48 46 -105q8 -31 8 -71q0 -22 -3 -44q-9 -75 -33 -144q-26 -75 -58 -136q-1 -2 -5 -6q-1 -1 -4 -4.5t-5 -5.5z" />
    <glyph glyph-name="R" unicode="R" horiz-adv-x="574" 
d="M338 358v-21q2 -10 -1 -18q-4 -24 -8 -36q-6 -17 -9 -37q-12 -60 -27 -123q-14 -63 -24 -124q-4 -29 -1 -52q3 -28 10 -51q15 -39 50 -45q3 0 7 -0.5t6 -0.5q30 0 57 24q21 20 9 33q-12 15 -37 -7q-1 -1 -4.5 -3.5t-5.5 -3.5q-6 -3 -15 0q4 31 5 38q1 10 5 35
q15 74 20 101q14 68 21 101q4 18 10 52q5 21 5 51q0 22 -7 40q-2 6 -6.5 19t-6.5 20q-2 10 -4 16q-1 6 -1 16q14 10 33 30q26 26 36 38q9 9 19 21q9 9 9 12q28 47 32 101q1 7 1 21q0 43 -18 82q-21 49 -66 73q-32 19 -81 19q-17 0 -26 -2q-91 -9 -158 -48t-120 -99
q-2 -2 -4 -8q0 -3 -2 -9q30 14 52 28q26 18 47 31q24 16 48 30q28 16 57 19q0 -2 0.5 -5.5t0.5 -4.5q0 -6 -1 -8q-14 -107 -42 -212q-26 -99 -60 -209q-28 -90 -40 -136q-17 -63 -39 -136q-4 -18 5 -30q13 -13 26 -21q18 -11 32 -6q15 6 21 23q13 41 28 95q9 32 27 94l24 75
q17 56 22 75q6 20 18 29q13 11 36 11q2 0 6.5 0.5t7.5 0.5q12 2 21 2zM290 445q10 77 24 147q15 72 11 145q18 7 34 9h7q13 0 31 -6q25 -9 39 -26q16 -17 23 -39q9 -25 9 -54q0 -19 -2 -29q-6 -43 -21 -65q-3 -5 -11 -17q-8 -11 -16 -21q-18 -20 -48 -34q-24 -11 -58 -11
q-3 0 -10.5 0.5t-11.5 0.5z" />
    <glyph glyph-name="S" unicode="S" horiz-adv-x="594" 
d="M264 230q-3 25 -13 35q-8 10 -31 11q-34 3 -63 -7q-24 -7 -58 -25q-46 -25 -67 -75q-12 -29 -12 -58q0 -21 6 -43q6 -15 8 -27q8 -20 12 -31q16 -30 45 -59q32 -29 95 -50q20 -4 29 -4q16 0 39 5q41 11 74 33q18 12 33 27q15 14 25 32q22 41 40 92q17 46 25 97
q5 32 15.5 91.5t15.5 86.5l30 177q2 12 6 35.5t6 35.5q8 48 12 71q4 14 7 21q4 11 10 20q3 5 11 6q6 2 13 2q5 0 8 -7q5 -5 5 -12q0 -13 -2 -20q-2 -6 -2 -20q0 -2 2 -14q3 -7 9 -10q7 -2 13 4q7 6 9 11l6 27q1 6 1 16q0 8 -1 12q-3 22 -18 36q-16 14 -35 21q-9 4 -20 4
q-8 0 -15 -3q-15 -6 -28 -19q-18 -16 -32 -43q-10 -23 -16 -50q-15 -78 -30 -159q-6 -29 -15.5 -84.5t-13.5 -74.5q-7 -52 -25 -131q-13 -62 -38 -127q-20 -54 -58 -81q-37 -25 -93 -31q-38 -3 -75 19q-35 23 -44 56q-6 35 0 65q6 28 22 54q31 47 80 64q52 18 93 -2z" />
    <glyph glyph-name="T" unicode="T" horiz-adv-x="635" 
d="M620 773h-4h-2h-1h-11q-2 0 -5.5 -0.5t-5.5 -0.5q-47 -2 -123.5 -5.5t-94.5 -4.5q-36 -1 -218 -10q-34 -2 -51 -4q-34 -2 -50 -4q-9 0 -18 -3q-6 -1 -16 -5q-5 -3 -12 -11q-4 -6 -4 -9v-3q3 -7 10 -12q3 -2 15 -8q8 -2 25 -2q16 2 25 2q11 1 32.5 2.5t32.5 2.5q44 4 66 5
q-21 -124 -46 -241q-23 -119 -53 -234q-5 -19 -26 -114q-5 -25 -12.5 -64t-9.5 -50q-4 -24 23 -48q22 -16 38 -16q5 0 13 2q5 2 9 6t6 8t7 19q4 9 6 19q40 205 80 365q40 164 82 349q3 2 9 4q8 2 11 2q34 3 79.5 7.5t53.5 5.5q28 4 58 7q6 1 25.5 3.5t33.5 4.5q5 1 14.5 2.5
t13.5 2.5q14 3 20 17q-4 7 -12 10q-6 3 -13 3z" />
    <glyph glyph-name="U" unicode="U" horiz-adv-x="471" 
d="M332 331q2 0 8 15q4 10 4 2q0 -5 -2 -15q0 -9 -1 -14q0 -9 -2 -14q-18 -90 -28 -135q-15 -69 -27 -136q-8 -54 -12 -84q-3 -30 20 -33h7q15 0 27 5q14 8 23 21q17 27 24 79q9 65 22 135q12 60 38 178q28 118 40 177q5 24 14.5 70t10.5 49q13 63 13 121q0 15 -11 23
q-10 10 -39 19q-13 0 -16 -12q-1 -10 -6 -26q-10 -32 -15 -49q-2 -8 -6.5 -24.5t-6.5 -24.5q-26 -114 -63 -220q-34 -101 -86 -211q-32 -67 -57 -115q-31 -57 -77 -103q-14 -14 -27 -22q-15 -10 -37 -7q0 9 -1 13v11q6 35 18 103q6 35 20 103q14 66 33 136q26 98 34 136
q10 39 19 89q6 30 18 88q6 35 2 63q-3 30 -25 57q-5 8 -16 12q-8 4 -20 4q-5 0 -11 -10q-3 -7 -7 -19q-34 -148 -51 -223q-34 -148 -50 -222q-10 -43 -22 -107q-12 -60 -17 -108q-3 -18 -3 -36q0 -4 0.5 -12t0.5 -12q2 -20 10 -60q8 -33 39 -48q32 -14 55 1q15 9 31 24
q17 16 26 28q45 60 74 110q31 51 61 118q3 6 11.5 26t13.5 30q1 3 10.5 24t14.5 32z" />
    <glyph glyph-name="V" unicode="V" 
d="M342 319q12 19 33 87q22 67 42 146q18 67 32 144q7 35 7 58q0 17 -4 22q-3 4 -5 4q-4 0 -7 -16q-3 -21 -8 -37l-12 -48q-2 -8 -5.5 -24t-5.5 -23q-20 -105 -54 -212q-28 -98 -73 -203q-29 -70 -50 -111q-25 -52 -66 -98q-16 -16 -25 -24q-11 -11 -33 -17v20v18
q9 52 15 100q2 13 8 47t9 52q18 88 28 131q20 88 28 132q12 58 17 86q3 14 8 42.5t7 42.5q6 30 1 61q-3 29 -22 56q-5 7 -15 12q-8 5 -17 5q-4 0 -10 -10q-5 -9 -6 -18q-7 -36 -21.5 -107.5t-21.5 -107.5t-21 -107.5t-21 -107.5q-3 -15 -9.5 -50t-9.5 -54q-6 -34 -14 -104
q-2 -20 -2 -33q0 -4 0.5 -12.5t0.5 -13.5q3 -29 9 -58q5 -18 12 -36q10 -18 23 -30l25 5q5 2 24 13q17 12 27 22q12 11 22 27q34 48 64 105q32 59 53 114q13 30 21 55q5 11 22 55z" />
    <glyph glyph-name="W" unicode="W" horiz-adv-x="574" 
d="M173 762q-5 6 -14 11q-7 5 -17 5q-3 0 -9 -10q-4 -12 -6 -17q-26 -136 -40 -204q-26 -136 -40 -204q-3 -18 -9 -52t-8 -47q-6 -34 -14 -99q0 -5 -0.5 -15t-0.5 -15q0 -4 0.5 -12t0.5 -13q4 -38 8 -55q8 -30 34 -45q27 -15 45 -1q13 8 26 21q9 9 21 25q37 55 61 101
q30 54 50 107q14 36 20 53q18 46 20 52q4 7 9 20q8 20 12 32q-1 -8 -5 -26q-1 -10 -5 -25q-3 -18 -9 -52t-8 -47q-6 -34 -14 -99q-1 -11 -1 -50q0 -23 2 -65q1 -11 3 -31q1 -4 1.5 -8.5t1.5 -9t1 -6.5q7 -30 33 -45q16 -8 26 -8t20 7q15 10 26 21q9 9 21 25q22 35 42 80
q24 54 39 95q12 31 18 50q4 9 10 25.5t7 18.5q2 5 21 56q28 79 40 118l24 75q11 35 21 76q22 83 29 125q6 27 6 44q0 15 -4 20q-2 3 -7 -6q0 -1 -1 -3q-6 -14 -12 -34q-2 -8 -6.5 -23.5t-6.5 -23.5l-6 -23q-12 -66 -36 -147q-16 -58 -43 -144q-7 -22 -20 -61q-9 -27 -15 -42
q-7 -18 -31 -83q-16 -51 -36 -94q-9 -20 -23 -45q-13 -23 -25 -36q-10 -11 -33 -21q-11 -5 -15.5 -6t-5.5 2q0 8 -1 12v10q2 32 6 77q2 14 5.5 44t5.5 45q3 24 6 45q2 8 4 21t3 16q3 14 10 54q4 17 16 92q6 28 12 66q4 19 16 89q2 12 5.5 31t4.5 24q5 28 -13 51
q-26 26 -44 11q-18 -13 -24 -38l-12 -45q-4 -15 -10 -45q-6 -31 -10 -47q-3 -19 -9 -37q-10 -45 -28 -91l-45 -108q-19 -47 -47 -105q-25 -53 -62 -93q-11 -11 -32 -23q-21 -10 -22 -2q0 8 -1 12v10q11 68 14 95q9 59 16 93q9 50 26 125q15 63 27 126q12 54 16 81
q10 54 14 80q6 29 1 59q-3 29 -21 53z" />
    <glyph glyph-name="X" unicode="X" horiz-adv-x="533" 
d="M234 752q-3 13 -10 18q-6 6 -13 5q-1 0 -5 -2l-4 -4q-13 -11 -13 -23q0 -8 2 -24q3 -14 8.5 -45t8.5 -47q12 -60 17 -92q6 -30 9 -60q6 -30 9 -60q-34 -59 -48 -82q-8 -14 -56 -94q-19 -33 -57 -101q-18 -34 -56 -102q-7 -14 -7 -31q0 -10 5 -27q11 -26 26 -26h7q3 1 9 5
q4 3 8 7q10 14 14 20q8 11 12 21q52 98 78 146q43 77 84 143q11 -72 17 -116q6 -38 18 -116q6 -30 8 -45q2 -7 5 -21.5t4 -21.5q1 -3 2.5 -8.5t2.5 -7.5q3 -8 17 -3v18q0 12 -1 16q-4 56 -14 153q-6 75 -15 152q0 14 -3 29q-2 18 -4 29q2 4 4.5 7.5t5.5 7.5t4 6q7 12 15 21
q9 13 25 41q9 14 25 42q34 61 80 133q41 63 71 139q2 2 2 6q0 13 -31 17q-21 3 -33 3q-9 0 -11 -2q-10 -7 -14 -17q-3 -8 -11 -22l-28 -49q-5 -10 -10 -18.5t-7.5 -12.5t-2.5 -5q-30 -48 -54 -90q-23 -37 -47 -79q-8 56 -12 83q-3 28 -11 82q-3 25 -11 53q-4 17 -14 51z" />
    <glyph glyph-name="Y" unicode="Y" 
d="M469 765q-6 9 -12 15q-3 6 -27 6q-4 0 -6 -1q-5 0 -8 -13q-4 -16 -7 -22q-8 -26 -10 -32q-6 -15 -9 -32q-19 -76 -38 -121q-17 -44 -59 -121q-17 -33 -46 -80q-25 -40 -64 -78q-16 -14 -23 -19q-12 -9 -34 -12q0 5 -1 7q0 2 -0.5 4t-0.5 3q4 22 10 64q2 12 6.5 34t6.5 31
q7 29 23 87q20 75 23 87t13 57q7 33 11 55q5 21 -1 38q-6 18 -26 28q-6 3 -16 3q-12 0 -18 -2q-4 0 -10 -8q-2 -5 -6 -13q-14 -67 -33 -142q-18 -70 -33 -141q-5 -22 -15 -68q-8 -43 -10 -67v-12q0 -8 2 -24q8 -22 13 -32q9 -17 38 -20q31 -2 50 13q13 8 27 20q14 13 22 23
q37 43 62 81q29 42 49 83l12 24l12 24q-10 -42 -47 -190q-19 -75 -46 -190l-8.5 -42.5t-8.5 -39.5q-2 -10 -6.5 -37.5t-6.5 -43.5q-3 -22 22 -40q19 -13 33 -13q4 0 12 2q4 2 8 5q5 5 5 7q5 10 6 17q4 12 4 16q29 180 80 364q49 179 87 351q7 29 11 61v7q0 20 -12 39z" />
    <glyph glyph-name="Z" unicode="Z" 
d="M451 771q-40 2 -61 2q-16 1 -49 1h-12q-48 0 -72 -2q-35 0 -71 -3q-10 0 -22 -3q-4 -1 -11.5 -2.5t-10.5 -2.5q-7 -2 -10 -7q-3 -4 -1 -11q3 -9 7 -10h10q6 1 19 2.5t19 2.5q19 3 38 3q48 5 96 6q33 2 97 6q-3 -3 -7 -8.5t-11.5 -15.5l-13.5 -18q-18 -24 -43 -65
q-28 -52 -43 -78q-18 -30 -39 -68q-11 -20 -33.5 -60t-33.5 -60q-3 -5 -31 -55.5t-46 -81.5q-10 -18 -53 -99q-2 -4 -53 -100q-10 -22 -10 -44q0 -2 0.5 -6.5t0.5 -7.5q2 -16 7 -23.5t13 -5.5q30 2 73 0q47 0 63 4q43 8 81 8q37 0 76 -10q7 -2 25 -4h6q3 0 9 0.5t9 0.5
q9 2 12 6q3 5 2 10q-1 9 -8 9q-3 1 -10 1q-20 0 -50 3q-27 6 -50 4q-57 1 -107 -8q-49 -8 -94 -5q32 61 115 214q61 115 117 200q16 26 23 40q16 28 23 42q52 92 79 136q41 66 72 141q2 3 2 7q0 7 -8 10q-11 4 -19 4q-1 0 -3 0.5t-3 0.5h-5z" />
    <glyph glyph-name="bracketleft" unicode="[" horiz-adv-x="450" 
d="M350 762q-14 1 -42 1q-20 0 -41 8q-11 7 -16 7h-3q-6 0 -10 -2q-11 -7 -16 -30q-4 -21 -6 -36q-4 -38 -17 -79q-12 -40 -18 -80q-8 -26 -22 -80t-20 -81q-23 -97 -58 -187q-33 -86 -58 -186q0 -2 -0.5 -6t-0.5 -6q0 -20 14 -42q19 -26 41 -39q2 0 6 -0.5t6 -0.5
q16 0 31 12q20 16 45 13q50 9 95 15q32 4 94 16q16 3 29 23q13 21 -18 15q-53 5 -107 3q-53 -1 -107 3q-18 12 -6 38q13 29 14 44l40 104q19 49 32 107q2 9 8 32t9 35q10 38 14 68q16 66 20 85q10 35 17 86q3 20 0 41q-3 22 23 22q18 0 66 12q43 12 43 31q0 4 -1 6
q-8 25 -34 25q-23 1 -46 3z" />
    <glyph glyph-name="backslash" unicode="\" horiz-adv-x="307" 
d="M229 -6q2 -8 9 -20q8 -10 14 -10q13 5 28 16q11 8 11 16v2q-2 15 -10 45q-3 15 -11 45q-27 100 -65 235q-9 33 -31 113t-34 123q-5 18 -22 93q-13 57 -22 94q-4 16 -8 23q-4 10 -19 10h-3q-14 0 -33 -11q-16 -9 -17 -24q0 -1 0.5 -2.5t0.5 -2.5q6 -38 8 -57q5 -30 12 -55
q34 -122 44 -158q32 -109 47 -158q33 -102 40 -127q13 -38 28 -86q18 -52 25 -80q7 -20 8 -24z" />
    <glyph glyph-name="bracketright" unicode="]" 
d="M325 685q0 -13 -7 -60q-7 -43 -16 -78q-17 -83 -22 -105q-2 -10 -17 -82q-12 -56 -22 -111q-8 -44 -12 -77q-2 -25 -7 -47q-1 -6 -3.5 -14.5t-4 -15t-2.5 -10.5q-6 -15 -8 -27q-1 -3 -2 -7.5t-1.5 -7t-0.5 -3.5q0 -10 -12 -14q-20 -5 -81 -13q-62 -9 -73 -12
q-9 -3 -9 -14q0 -15 21 -21q23 -6 65 -3q23 2 38 3q18 3 19 4q8 1 23 3q24 3 51 -6q12 -8 18 -11q8 -2 11 -2h3l2 1q9 1 13 5q4 5 5 22q13 73 14 103q2 37 7 60q6 18 9 38q5 22 6 31q1 6 2.5 17t2.5 15q1 6 3.5 18.5t3.5 18.5q2 14 7 38t6 31q6 22 12 46q11 37 19 79
q9 42 16 95q4 25 6 47q2 14 2 37t-10 57q-9 35 -29 54q-11 11 -22 11q-10 0 -58 -9q-2 0 -13.5 -1.5t-20.5 -2.5q-28 -2 -42 -2q-38 0 -48 -5q-13 -6 -13 -19q0 -12 17 -17q16 -3 65 2q14 2 48 4q16 2 28 2q14 2 15 2q0 -25 -2 -47z" />
    <glyph glyph-name="asciicircum" unicode="^" horiz-adv-x="327" 
d="M159 742q2 -2 14 -35q19 -42 33 -71q17 -27 29 -44q16 -21 29 -26q10 -3 15 -2q6 1 9 8q2 3 2 11q0 7 -1 10q-2 15 -13 28q-41 67 -48 79q-16 27 -46 63q-12 15 -22 15q-9 0 -21 -16l-6 -9t-5 -8q-4 -6 -10 -18q-5 -12 -35 -71q-17 -36 -34 -71q-4 -8 -7 -13
q0 -1 -0.5 -3t-0.5 -3t2 -9q13 1 23 8q9 8 15 19q18 36 26 54q18 36 26 54l12 24q8 14 14 26z" />
    <glyph glyph-name="underscore" unicode="_" horiz-adv-x="553" 
d="M60 14q10 -13 19 -21q13 -10 29 -15q33 -10 93 -15q51 -3 129 -3h36q72 0 98 2q23 3 29 11q13 10 13 16q0 3 -1 3q-1 7 -27 25q-21 15 -40 20q-20 7 -54 8q-18 2 -44 0h-59q-66 -2 -91 -2q-40 1 -54 3q-31 7 -53 7q-14 0 -23 -3t-9 -13q0 -8 9 -23z" />
    <glyph glyph-name="quoteleft" unicode="`" horiz-adv-x="184" 
d="M44 716q32 -53 50 -68q15 -10 29 -10q8 0 17 3q22 6 24 16v1q0 11 -17 22q-2 1 -13 16q-4 5 -17 30q-18 34 -28 42q-9 10 -30 10h-2q-16 0 -20 -2q-4 -1 -10 -12q-2 -4 -2 -9q0 -1 0.5 -3t0.5 -3q3 -6 18 -33z" />
    <glyph glyph-name="a" unicode="a" 
d="M459 332q-5 8 -6 13q0 6 -7 -6l-4 -8q-1 -3 -3.5 -8.5t-5 -10.5t-5.5 -9q-9 -18 -13 -25q-1 -3 -16 -33q-8 -15 -24 -47q-13 -27 -30 -54q-17 -29 -31 -48q-27 -39 -48 -60q-20 -22 -20 -4q0 6 6 44q1 9 6 36t7 42q1 8 3.5 21t4.5 23.5t3 18.5q7 35 8 38q10 33 10 46
q0 14 -10 34q-9 19 -21 29t-21 7q-6 -1 -12 -9q-2 -4 -18 -44q-13 -35 -35 -64q-26 -35 -64 -70q-24 -22 -39 -30q-15 -6 -20 2t16 60q24 55 52 94q16 22 44 42q30 23 46 27q26 5 30 15q6 12 -13 24q-11 8 -40 8h-8q-31 0 -59 -11q-34 -16 -65 -58q-30 -40 -49 -98
q-9 -27 -9 -43v-1q0 -10 7 -38q4 -10 11 -21q5 -7 18 -17q25 -19 51 -12q26 9 65 48q23 23 26 25q10 7 10 3q1 -1 0 -18q0 -7 -4 -35q-6 -42 -4 -81q2 -36 10 -56l11 -22q13 -22 40 -22q10 0 32 14q22 15 27 26q4 5 37 49q19 26 28 46q3 6 15 32t18 40q6 13 15 33.5t11 25.5
q10 23 13 33q8 17 14 35q9 23 9 29z" />
    <glyph glyph-name="b" unicode="b" horiz-adv-x="368" 
d="M341 301q32 13 51 25q18 12 18 19v3q-4 6 -15 0q-11 -4 -19 -9l-9 -4.5t-13 -5.5q-16 -5 -25 -10l-25 -10q-20 -9 -23 -11q-5 -2 -15 -8q-6 -3 -8 -3l-4 4q0 1 -1.5 4.5t-2.5 5.5q-3 17 -31 37q-28 21 -49 23q-7 3 -26 -10q-20 -11 -41 -30l-12 -9q-4 -2 -8 -2q0 5 1 9
q3 6 3 13q0 2 1 7t2 11l2 12q4 14 10 46q9 28 14 49q5 24 9 35q4 13 5 27q4 24 4 33q4 19 5 32q4 22 4 24q4 11 5 24q4 20 4 27q3 25 2 32q0 8 -11 25q-12 24 -24 36q-8 11 -16 13h-2q-11 0 -17 -13q-7 -15 -13 -53q-5 -19 -12 -57q-6 -36 -12 -66q-1 -6 -4.5 -25.5
t-5.5 -27.5q-3 -21 -3 -24q2 -1 -4 -40q-9 -59 -14 -81q-6 -34 -12 -63q-7 -31 -8 -34q-1 -2 -2.5 -7t-4 -14.5t-4.5 -17.5q-4 -20 -14 -64q-3 -19 -8 -40q-3 -18 -3 -28q0 -2 -0.5 -5.5t-0.5 -5.5t0.5 -5.5t0.5 -4.5q1 -5 5 -15q5 -5 7 -11q3 -1 11 -3q10 0 13 1q7 4 14 12
l8 12q7 14 15 34q10 22 19 64q4 17 9 34q7 18 8 19q21 30 33 45q14 15 27 24q28 18 37 12q11 -6 17 -41q5 -27 -1 -38q-5 -9 -35 -38q-42 -42 -64 -79q-24 -40 -22 -65q3 -17 11 -30t19 -17q7 -2 25 -4q1 0 3.5 0.5t3.5 0.5q17 2 26 6q6 5 14 6q11 3 17 3q17 3 37 18
q20 17 28 39q5 10 9 26q5 16 7 34q6 27 6 47q1 18 -2 60q0 14 2 16q5 5 20 13q3 2 11.5 6.5t12.5 7.5q14 7 30 13zM187 190q-6 -28 -7 -32q-6 -33 -16 -55q-10 -21 -30 -43q-18 -21 -26 -22q-1 -1 -2 -1q-7 1 -10 15v5q0 21 21 56q24 41 52 63q13 12 18 14z" />
    <glyph glyph-name="c" unicode="c" horiz-adv-x="328" 
d="M369 323q-1 0 -11 -8q-5 -5 -8 -9q-3 -3 -10.5 -12t-11.5 -13q-14 -18 -20 -27q-14 -22 -38 -47l-44 -44l-26 -26q-9 -9 -29 -25q-17 -13 -32 -21q-15 -9 -35 -12q-1 0 -4 -0.5t-5 -0.5q-5 0 -10 3q-5 5 -8 11q-2 10 -2 14q-3 53 13 101q20 55 37 97q5 12 15 34
q10 17 19 31l3 3l1 2q4 4 6 4q7 4 12 1q5 -1 13 -5q5 -1 10 -6q2 -1 5.5 -4t4.5 -3q4 -2 13 -2q7 3 10 6q3 5 3 10t-3 11q-3 4 -7 7q-3 5 -8 8q-12 9 -24 14q-13 8 -25 11q-11 4 -28 4q-16 0 -28 -4q-12 -5 -25 -15q-13 -13 -20 -21q-35 -42 -59 -99q-21 -54 -21 -107v-10
q1 -28 11 -60q13 -31 32 -54q4 -2 9.5 -7t6.5 -6q11 -7 19 -10q12 -2 16 -2q1 0 3 0.5t3 0.5q11 1 22 5q36 11 70 37q33 29 57 55q29 32 59 75q28 38 53 79q10 15 11 17q5 8 5 19z" />
    <glyph glyph-name="d" unicode="d" 
d="M351 652q9 40 -7 65q-15 27 -44 46h-2q-12 0 -18 -13q-8 -16 -15 -56q-2 -11 -11 -60q-3 -15 -13 -70q-2 -12 -4 -17q0 -7 -3 -16q-5 -20 -17 -62q-3 -11 -9 -32t-8 -29q-1 -4 -5 -14q-3 -8 -10 -11q-9 -4 -22 -1q-8 4 -22 7q-26 9 -54 -1q-28 -9 -48 -28
q-21 -19 -32 -43q-16 -34 -23 -50q-12 -34 -16 -43q-6 -21 -9 -45v-9q0 -10 4 -32q6 -20 15 -39q3 -4 8.5 -12t8.5 -12q10 -12 22 -22q12 -8 19 -12q12 -4 23 -3q7 1 14 5q8 5 12 10q22 19 42 46q21 30 14 37q-7 -7 -21 -22q-17 -18 -37 -35q-3 -4 -11 -9q-6 -3 -12 -3
t-13 5q-6 6 -9 14q-4 9 -8 27v28q2 47 15 89q13 37 35 85q9 17 16 27q9 14 22 20q15 7 31 6q18 -2 24 -15q5 -7 5 -16q0 -11 -1 -17q-1 -31 -11 -71q-9 -36 -12 -64q-2 -18 -2 -47v-41q0 -18 -1 -28q0 -8 2 -28q3 -18 9 -56q6 -27 23 -52q11 -14 21 -22q12 -9 24 -9h4
q14 1 29 12q17 13 30 28q29 34 56 83q33 62 50 101q35 74 49 114q18 47 21 53q7 10 8 20q1 2 1 4q0 8 -7 11q-11 -22 -23 -48q-36 -75 -43 -89l-28 -56l-30 -57q-27 -51 -54 -93q-26 -39 -44 -50q-1 -1 -3 -2t-3 -2q-4 -2 -7 -2l-6 6l-3 9q-6 101 17 193q22 90 39 171
q3 15 7 33q2 8 6 24.5t6 24.5q8 27 12 51q6 27 9 35q0 1 5 29q4 26 4 34l6 33l2.5 15t1.5 11q4 11 5 25q4 22 4 29z" />
    <glyph glyph-name="e" unicode="e" horiz-adv-x="286" 
d="M330 321h-1q0 1 -1 1q-2 3 -4 3q-2 1 -4 1q-1 0 -3 -1l-3 -3q-7 -8 -11 -17q-4 -12 -8 -19q-6 -12 -13.5 -28t-18.5 -39t-18 -38q-28 -58 -61 -99q-12 -15 -36 -43q-17 -20 -44 -32q-11 -4 -22 -1q-12 4 -20 11q-2 2 -4 8q-2 7 -4 9q-6 41 -1 75q6 39 15 75q6 27 18 39
q22 19 33 28q21 17 39 33q16 15 34 38q4 6 10 18q5 9 7 20q1 22 -15 40q-15 18 -37 24q-12 6 -26 6h-4q-11 0 -23 -6q-4 -2 -12 -10q-7 -7 -11 -13q-41 -57 -69 -123q-26 -63 -32 -137v-20q0 -24 7 -61q9 -41 39 -68q13 -11 25 -18q13 -7 30 -10q12 -2 17 -2h2q7 0 15 4
q16 8 21 11q15 9 19 13q66 60 105 142q40 80 68 175q1 2 1 7q1 3 1 7zM100 272q2 8 4 22q3 21 8 37q16 55 26 67q6 8 12 6q10 0 23 -12q9 -9 9 -21v-4q-1 -15 -19 -38q-4 -6 -16 -20q-8 -9 -13 -12q-1 -1 -2 -2.5t-2 -2.5t-3 -2.5t-3 -2.5q-4 -3 -12 -7q-2 -1 -4.5 -2.5
t-4.5 -3t-3 -2.5z" />
    <glyph glyph-name="f" unicode="f" horiz-adv-x="266" 
d="M288 287q20 24 28 34q4 5 4 10q0 3 -1 3q-5 5 -8 0q-1 -1 -3 -3.5t-5.5 -7t-7.5 -8.5q-21 -29 -53 -52q-36 -24 -58 -35q-23 -10 -25 -11q-12 -4 -15 -4q-2 2 -4 5q-1 1 -1.5 3t-1.5 4l-2 4q-3 17 -12 29q-9 14 -22 22q-14 10 -16 11q2 5 4.5 13.5t3.5 11.5q17 58 26 75
q7 15 39 48q30 34 55 69q24 33 34 56q3 5 9 17q5 10 7 16q10 17 13 41q5 28 2 50q0 18 -4 26q-3 9 -11 17q-13 15 -29 21q-9 3 -19 3t-16 -2q-21 -3 -34 -14q-11 -9 -27 -40q-3 -5 -16 -34q-3 -8 -21 -53q-2 -6 -31 -81q-4 -11 -8 -21.5t-6 -15t-2 -5.5q-2 -5 -6 -17
q-2 -8 -10 -28q-3 -12 -10.5 -39.5t-9.5 -36.5q-7 -30 -21 -86q-2 -9 -10 -42q-5 -20 -9 -33q-4 -16 -10 -47.5t-7 -38.5q-9 -56 -14 -91q-11 -78 -16 -161q0 -10 -0.5 -29t-0.5 -27q0 -37 3 -63q6 -55 19 -85q14 -27 40 -41q3 -1 8 -3.5l7 -3.5q10 -2 12 -2q23 3 29 16
q6 9 18 25q11 16 23 47q12 30 22 69q2 11 10 53q4 25 10 72q8 58 12 106q6 49 4 59v20q0 4 0.5 11t0.5 9v51q0 35 17 44q24 11 64 38q31 21 59 52zM167 501q-13 -19 -18 -19h-2l-1 2v3q0 6 5 26q4 9 5 25q4 24 4 35q2 12 4 34q3 19 3 27q2 15 13 47q10 26 17 38q7 7 23 12
q5 1 11 1q7 0 8 -3q14 -17 14 -46q0 -22 -7 -44q-17 -55 -79 -138zM115 118q4 -1 4 -39v-4q0 -43 -5 -54v-4q-1 -4 -2 -11.5t-2 -16.5q-5 -51 -7 -64q-1 -10 -3.5 -28t-3.5 -24q-4 -30 -5 -34q-6 -40 -23 -87q-17 -45 -31 -64q-8 -13 -17 -17h-2q-6 0 -9 11q-1 6 -3 36
q0 8 -0.5 24t-0.5 24v14q0 8 0.5 21t0.5 19q2 19 3 26q0 4 3 40q3 24 7 74q5 41 5 47q3 21 3 29q6 48 13 69q6 23 12 23q1 0 1 -1q4 2 13 -1q8 0 20 -2q8 0 18 -2q9 0 11 -4zM100 244q8 -13 10 -32q1 -3 1 -10q0 -8 -4 -11q-2 -1 -25 -8q-15 -3 -20 -3h-1l-1 1v2t0.5 4.5
t0.5 6.5q2 9 6 29q9 32 14 35l2 1q7 0 17 -15z" />
    <glyph glyph-name="g" unicode="g" 
d="M465 283q-5 0 -8 -2q-1 -1 -3.5 -3t-3.5 -3q-14 -11 -40.5 -30.5t-36.5 -27.5q-36 -26 -73 -63q-3 34 4 72q6 36 9 72q3 37 -6 76q-9 40 -38 63q-3 3 -9 6q-2 2 -7 2h-3q-14 -3 -14 -22t-12 -30q-23 31 -62 37t-74 -10q-33 -15 -57 -45q-25 -33 -38 -65q-10 -26 -14 -51
q-4 -24 -1 -52q3 -24 16 -50q17 -25 35 -38q14 -8 28 -12q15 -3 30 3q8 4 14 10q2 2 6 6.5t6 6.5q24 25 53 65q28 37 48 70q3 -35 1 -71q0 -31 -6 -71q0 -7 -3 -19q-2 -10 -6 -19t-12 -15q-12 -9 -15 -11q-59 -50 -119 -117q-57 -63 -100 -134q-28 -49 -44 -103
q-7 -26 -7 -44q0 -32 15 -64q9 -14 17 -25q11 -11 23 -17q18 -7 34 -7q20 0 43 9q44 14 69 40q43 43 78 97q39 62 58 112q25 65 32 136q10 86 19 138q2 13 3 20q2 10 7 18q10 16 21 26q9 8 27 22q27 24 58 45q27 18 53 44q7 7 10 13q1 2 1 4q0 5 -6 8zM203 323q-3 -3 -6 -11
q-2 -8 -4 -12q-19 -41 -49 -74t-69 -57q-2 -2 -8 -4t-9 -2q-14 3 -14 19q0 12 6 30q4 14 8.5 26t7.5 20.5t3 9.5q11 29 27 61q15 30 40 49q6 4 10 6q5 4 11 4h3q15 0 23 -11q12 -12 18 -27q2 -4 2 -7q2 -2 2 -9q0 -3 -1 -5q0 -1 -0.5 -3t-0.5 -3zM209 43q-2 -14 -7 -28
q-4 -12 -10 -36q-2 -12 -6 -38q-3 -19 -9 -39q-6 -29 -18 -58q-3 -9 -20 -58q-20 -55 -55 -112q-32 -53 -84 -91q-6 -4 -10 -6q-9 -3 -11 -4q-6 0 -16 4q-2 1 -6.5 4t-6.5 5q-14 18 -18 39q-3 16 -3 32v11q6 53 30 100q22 41 56 89q43 54 91 98q52 47 103 88v0z" />
    <glyph glyph-name="h" unicode="h" horiz-adv-x="389" 
d="M144 726q-13 26 -25 38q-11 13 -16 13q0 1 -2 1q-11 0 -17 -17q-5 -21 -16 -52q-2 -8 -7 -22.5t-6 -18.5q-3 -11 -11 -51q-7 -28 -13 -60q-3 -27 -9 -55q-2 -8 -6.5 -24t-6.5 -24q-8 -32 -12 -49q0 -9 -7 -42q-5 -28 -12 -53q-8 -36 -12 -56q-6 -28 -9 -45
q-2 -16 -10 -42q-2 -9 -6 -27.5t-6 -27.5q-2 -22 -2 -31v-3q0 -14 6 -22q7 -9 27 -21q19 -10 34 -4q8 3 8 11q0 5 2 19q0 1 0.5 4.5t0.5 5.5l3 12q4 8 10 35q0 2 5.5 24t7.5 34q2 11 6 31q4 15 6 26q1 4 2 9t2.5 10.5t2.5 8.5q1 4 3.5 10.5t3.5 9.5q20 24 53 52q32 26 47 26
q7 0 7 -35q0 -37 -7 -69q-1 -3 -2 -9.5t-2.5 -13t-2.5 -12.5q-1 -7 -3.5 -19.5t-3.5 -16.5q-2 -18 -10 -48q-4 -22 -12 -64q-18 -79 -16 -112q3 -30 23 -44q2 -1 7 -3t8 -4q14 -4 17 -4q15 0 45 15q31 15 38 27q128 181 172 279q33 72 33 82l-1 1l-2 -2q-15 -23 -37 -62
q-28 -49 -68 -113q-20 -34 -39 -62q-14 -23 -35 -52q-26 -38 -51 -61t-39 -18q-4 4 8 54q12 52 15 58q1 3 7 25q2 7 4.5 17t3.5 13q12 30 22 85q10 50 10 84q0 36 -9 57q-6 20 -29 39q-10 12 -20 15q-7 4 -18 4q-17 0 -34 -10q-14 -7 -42 -28q-3 -2 -8 -5.5t-6 -4.5
q-2 -1 -5 -3t-4 -2q0 1 0.5 3.5t0.5 4.5q2 8 2 10v3l1 1l2 4q7 20 14 53q11 51 11 52q1 7 3.5 22t3.5 23q5 26 10 44q2 4 6 23q8 28 11 42q5 15 9 31l3 14q3 26 2 33q-2 10 -12 26z" />
    <glyph glyph-name="i" unicode="i" horiz-adv-x="246" 
d="M281 279q2 3 2 7q0 3 -2 4q-3 5 -7 3q-18 -16 -28 -40q-8 -21 -24 -46q-22 -36 -35 -55q-23 -33 -40 -53q-16 -16 -34 -33q-25 -24 -36 1q0 32 4 56q5 23 14 56q10 34 28 102q15 52 1 102q-4 16 -8 22q-5 11 -15 17q-9 6 -22 6q-11 0 -20 -9q-1 -1 -5 -7q-2 -3 -3 -9
q-25 -68 -42 -143q-14 -66 -22 -145q0 -3 -0.5 -8.5t-0.5 -8.5q0 -18 3 -39q3 -28 24 -46q19 -13 40 -13h5q26 3 47 15q33 22 53 52q24 36 38 63q2 3 4.5 8t7 13.5t8.5 15.5q22 38 32 57q10 16 18 30zM156 529q-1 6 -7 10q-3 4 -11 10q-9 5 -18 6q-2 1 -6 1q-6 0 -14 -3
q-26 -9 -26 -34q0 -1 0.5 -5t0.5 -6q8 -34 36 -43q8 -2 12 -2q8 2 12 2q11 3 20 12q8 11 8 25v3q0 14 -7 24z" />
    <glyph glyph-name="j" unicode="j" horiz-adv-x="226" 
d="M294 253q-12 9 -37 -12q-23 -18 -55 -48l-31 -31q-10 -10 -30 -28q-12 -10 -31 -24q-10 -8 -30 -26q8 56 10 137q2 84 -1 137q0 8 -2 24q0 12 -8 22q-6 11 -18 14q-2 2 -8 2q-7 0 -13 -3q-9 -4 -13 -16q-2 -7 -4 -23q-9 -72 -15 -147q-5 -73 -15 -146q0 -13 -3 -24
q-1 -10 -8 -23q-5 -12 -13 -20q-2 -3 -7 -8.5t-8 -8.5q-19 -20 -57.5 -60t-57.5 -60q-59 -62 -92 -137q-14 -32 -25 -71q-3 -12 -3 -23q0 -24 15 -50q17 -28 53 -44q27 -10 47 -10q12 0 22 3q46 11 78 46q32 34 50 79q20 46 28 88q4 15 12 45.5t12 45.5q6 21 7 26q3 11 7 33
q4 18 13 68q1 9 3 20l3 16.5t2 9.5q5 28 22 44q20 18 38 31q6 5 18.5 16t18.5 16q6 6 19 17.5t20 17.5q36 33 63 57q24 24 24 27v1zM-37 -42q2 0 2 -8v-10q-1 -13 -11 -64q-9 -48 -28 -115q-15 -51 -33 -88q-13 -27 -33 -49q-20 -20 -45 -33q-15 -6 -28 -6t-23 8q-8 9 -9 14
q0 1 -0.5 4.5t-0.5 5.5v14q2 9 4 27l5 25q8 28 23 58q17 37 30 53q2 2 18 22l24 33q3 3 6 7t7 9t7 9q4 5 13 14t13 14q28 30 37 39q17 17 22 17zM104 521q-1 5 -6 11q-4 6 -10 10q-10 7 -18 8q-2 2 -8 2q-8 0 -12 -2q-29 -8 -29 -35q0 -1 0.5 -3.5t0.5 -4.5q4 -34 32 -46
q9 -3 16 -3q2 0 4.5 0.5t3.5 0.5q13 3 21 11q8 10 10 24v6q0 14 -5 21z" />
    <glyph glyph-name="k" unicode="k" horiz-adv-x="348" 
d="M157 724q-13 26 -25 38q-11 13 -17 13h-2q-11 2 -18 -13q-7 -16 -14 -55q-1 -8 -10 -48q-2 -10 -5.5 -30.5t-5.5 -28.5q-3 -22 -9 -54l-6 -33t-5 -29q-9 -52 -21 -112q-11 -56 -16 -67q0 -2 -3 -10t-5 -16q-8 -39 -10 -46q-1 -2 -3.5 -10t-3.5 -13q-3 -13 -7 -23
q-2 -7 -7.5 -28.5t-8.5 -35.5q-5 -21 -17 -64q-3 -7 -3 -15q0 -13 10 -20q12 -7 39 -14q4 -2 6 -2q3 0 7 2q3 2 5 5q3 5 3 8q7 21 8 25q7 21 8 25l22 66q14 38 19 64q2 6 2 7q2 6 2 8q1 3 3.5 8.5t3.5 8.5t4 8.5t5 8.5q14 26 38 52q31 31 47 45q30 24 45 35q25 19 50 27
q-20 -48 -61 -94q-40 -43 -89 -69q-2 -2 -8 -6t-9 -7q-8 -7 -8 -18q3 -14 17 -17q11 -2 29 -2q-12 -55 -21 -109q-8 -62 -11 -112q0 -5 3 -24q6 -19 22 -36q10 -8 23 -14q17 -5 34 -5h1q16 0 36 17q14 12 26 24q25 31 52 68q20 27 37 61q9 18 18 39q14 32 19 47q1 1 13 29
q10 21 22 54q15 41 16 43q7 20 7 27q-12 0 -15 -6q-1 -2 -2.5 -7t-2.5 -7q-20 -67 -68 -159q-44 -87 -96 -148q-20 -25 -42 -31q-20 -5 -20 10v36q0 20 6 59q8 42 8 78q0 40 -15 76q-1 2 -2.5 6t-2.5 6q-2 8 1 13q1 2 5 4q1 1 3 2.5t3 2.5q37 19 65 45t49 62q8 12 12 24
q5 10 5 25q0 16 -5 26q-7 15 -17 20q-6 4 -11 4q-3 1 -10 1q-17 0 -31 -11q-5 -3 -15 -9.5t-15 -9.5q-4 -2 -50 -31q-17 -12 -52 -41q-2 -2 -4 -3q-2 -2 -4 -3q7 48 12 93q5 38 19 92q1 4 4.5 14t5.5 15q8 19 8 34q10 49 10 63l1 13q3 26 1 33q0 9 -11 26z" />
    <glyph glyph-name="l" unicode="l" horiz-adv-x="246" 
d="M171 651q9 36 -6 60q-14 23 -43 41h-2q-11 0 -17 -12q-7 -14 -14 -51q-1 -8 -11 -55q-2 -14 -7 -37.5t-6 -26.5q-1 -6 -3 -16q0 -6 -3 -14q-12 -44 -16 -56q-3 -10 -9 -29t-8 -27q-14 -61 -25 -99q-11 -41 -19 -105q-2 -34 -2 -43v-37v-26q0 -1 -0.5 -2.5t-0.5 -2.5
q0 -7 2 -21q5 -24 9 -51q6 -25 21 -48q7 -10 21 -20q13 -8 23 -8h4q37 3 77 58q38 55 66 116q25 51 39 88q13 35 17 42q7 10 8 18v3q1 7 -6 10q-1 -2 -6.5 -12t-13.5 -26l-17 -34q-34 -68 -65 -121q-24 -42 -45 -71q-23 -32 -39 -41q-3 0 -6 -3q-4 -2 -7 -2q-2 1 -6 5
q-1 6 -3 9q-5 97 16 176q26 103 37 157q2 4 7 29q8 30 12 46t12 46q1 6 3 13.5t3 11.5t2 7q1 2 5 26q2 12 4 32q4 20 5 30q4 22 4 24q4 12 5 22q4 20 4 27z" />
    <glyph glyph-name="m" unicode="m" horiz-adv-x="635" 
d="M689 313q1 0 1 2v2q0 3 -5 6t-11 0q-5 -3 -7 -10q-5 -16 -25 -49q-17 -27 -38 -56q-12 -18 -18 -26q-9 -10 -15 -18q-35 -45 -53 -68q-30 -34 -58 -63q-10 43 -9 88t3 87q1 13 1 40q0 18 -5 38q-4 16 -15 35q-10 19 -27 28q-6 6 -13 6q-4 2 -15 2q-6 0 -13 -5
q-5 -3 -10 -9q-11 -9 -31 -27q-20 -16 -31 -27q0 24 -7 44q-6 23 -21 38q-6 7 -13 13q-7 5 -17 7q-9 1 -20 -5q-12 -8 -17 -13q-18 -14 -49 -39q-30 -24 -49 -41q0 14 2 40q2 23 -4 40q-3 21 -14 36q-12 19 -31 23q-2 2 -7 2t-7 -2q-5 -1 -8 -8q-2 -3 -4 -11
q-13 -69 -27 -141q-12 -69 -27 -141q-2 -9 -4 -25v-3q0 -8 4 -20q6 -14 21 -22q5 -2 14.5 -6t14.5 -6q1 0 3.5 -0.5t3.5 -0.5q2 0 4 0.5t3 0.5q4 4 4 5q2 3 4 7q8 26 12 52q5 28 12 53q16 56 53 105q39 51 88 80q-4 -17 -12 -50.5t-11 -47.5q-4 -18 -23 -99q-1 -4 -2.5 -13
t-2.5 -13q0 -15 5 -25q6 -12 26 -42q18 -23 26 -12q21 39 30 84q9 44 31 85q15 26 41 52q19 18 50 45q-7 -77 -7 -135q0 -56 7 -135q2 -7 4 -25q2 -8 10 -22q9 -13 23 -21q5 -2 14.5 -6.5t14.5 -6.5q4 -2 12 -4h3l2 -1q1 0 3 1h2q7 2 11 6q3 4 9 10q28 36 53 77q32 52 49 79
q3 5 10.5 15.5t10.5 13.5q5 6 13 19t10 16q23 33 42 68q20 32 23 49z" />
    <glyph glyph-name="n" unicode="n" horiz-adv-x="369" 
d="M403 268q7 10 7 19v2q0 9 -7 12q-10 -9 -38 -49q-17 -25 -55 -82q-40 -60 -67 -96q-15 -21 -24.5 -30.5t-13.5 -7.5q-3 14 1 32q3 17 9 31q14 48 21 70q13 39 21 71q4 12 10 36q5 15 5 36q0 23 -14 57q-12 37 -41 31q-8 -1 -18 -8q-3 -2 -8 -5.5t-7 -5.5q-16 -14 -48 -44
q-18 -17 -49 -44q3 21 0 43q-2 22 -9 43q-6 18 -18 33q-10 15 -30 18h-6q-3 0 -5 -2q-5 -3 -6 -8q0 -3 -2 -9q-4 -84 -7 -126q-2 -41 -6 -125v-25q0 -11 7 -23q10 -13 35 -21l14 -3.5t9 -1.5t3 1q12 59 42 131q30 74 90 115q-24 -57 -42 -117q-18 -70 -25 -121
q-4 -36 -1 -64q4 -32 30 -50q6 -4 18 -8q2 0 4.5 -0.5t3.5 -0.5q2 0 5.5 0.5t4.5 0.5q2 1 6.5 2.5t6.5 2.5q4 3 10 9q17 14 52 66q24 36 68 106q10 16 40 66q15 25 24 43z" />
    <glyph glyph-name="o" unicode="o" horiz-adv-x="307" 
d="M341 307q11 13 14 19q2 2 2 6q0 6 -6 11q-5 3 -17 -6q-7 -5 -22 -20q-23 -22 -49 -37q-23 -13 -49 -13q-1 5 -3 15.5t-3 15.5q-4 18 -11 29q-7 13 -21 23q-11 10 -29 10q-17 0 -31 -14q-13 -13 -16 -30q-3 -16 3 -34q4 -11 16 -31q13 -13 26 -23l30 -18q3 0 5 -3
q3 -2 5 -5q1 -1 1 -5t-1 -6q-7 -34 -23 -59q-16 -29 -39 -52l-13 -13q-8 -6 -16 -9q-6 -2 -19 -2q-10 2 -17 7q-6 8 -9 16q0 4 -0.5 10t-0.5 9q-1 45 5 96q8 50 21 94q9 26 23 53q15 25 40 37q8 4 17 7t15 9q6 5 10 16q3 9 -4 15q-5 5 -13 5q-9 0 -13 -1q-53 -13 -94 -56
q-39 -42 -50 -97q-7 -18 -15 -42q-6 -22 -9 -48q0 -5 -0.5 -15t-0.5 -15q0 -29 6 -59q11 -43 45 -71q25 -17 52 -20q2 0 5.5 -0.5t4.5 -0.5q23 1 42 14q14 11 23 26q11 18 17 32q13 35 16 45q6 15 14 45q2 5 4 15q1 3 3.5 7.5t3.5 5.5q5 26 7 30q3 8 18 16q10 5 28.5 16
t26.5 15q20 11 45 35zM188 308q3 -14 3 -27v-6q0 -12 -1 -18l-1 -1v-1q-1 0 -3 -1h-3q-2 1 -6.5 2.5t-6.5 2.5q-4 2 -10 8q-5 8 -7 21q0 16 -1 23v2q0 4 2 10q3 8 9 8q2 1 4 1q4 0 6 -1q5 -1 8 -6q4 -4 4 -8q3 -5 3 -9z" />
    <glyph glyph-name="p" unicode="p" horiz-adv-x="451" 
d="M464 253q26 49 33 71q2 5 2 11q0 8 -12 -4q-6 -9 -16 -26q-2 -3 -4 -7t-5 -10.5t-5 -10.5q-29 -54 -57 -96q-20 -29 -66 -91q-16 -22 -25 -33q-14 -16 -29 -32q-1 -1 -6 -5q-4 -2 -6 -2q-6 3 -7 8v10q3 30 11 63q9 31 15 63q7 28 10 64q4 33 -3 64q-6 33 -25 59
q-18 29 -48 41q-4 2 -10 4q-3 1 -10 1q-6 0 -10 -1q-5 0 -9 -3q-17 -5 -39 -17q-16 -9 -34 -24q-3 9 -11 25q-1 2 -5 11t-6 14l-7 14q-3 6 -10 12q-6 6 -14 6h-2q-8 0 -13 -5q-3 -2 -4 -7l-3 -9q-31 -129 -91 -389q-42 -194 -84 -390q-2 -12 -2 -20v-1q0 -9 6 -16
q7 -7 15 -7h2q7 0 15 2q15 5 28 20q12 14 18 30t9 33q4 25 5 34q13 84 38 176q24 83 48 173q8 23 13 55q2 9 5.5 28t5.5 29q11 49 34 100q20 47 73 73q8 5 18 7q11 3 18 -2q10 -3 13 -15q5 -10 5 -20q1 -15 -2 -35q-1 -9 -5 -34q-4 -19 -12 -59q-2 -10 -5.5 -29.5
t-5.5 -28.5q-3 -16 -7 -50q-1 -25 6 -49q9 -24 32 -39q24 -15 47 -6q11 4 19 12q11 11 15 17q13 17 37 51q12 18 34 52q29 42 44 69q31 53 41 71z" />
    <glyph glyph-name="q" unicode="q" horiz-adv-x="451" 
d="M516 328q3 5 3 14q0 10 -7 6q-4 0 -44 -31q-38 -30 -81 -54q-30 -12 -60 -36q-28 -21 -46 -46q-9 -13 -10 -8q-2 9 4 29q21 68 27 104q8 33 5 55q-3 34 -16 54q-10 18 -26 18h-4q-5 0 -9 -6q-1 -1 -3.5 -6t-4.5 -8q-1 -7 -5 -14q-1 -6 -3 -6t-6 2q-2 3 -11 10
q-22 22 -57 26q-35 6 -66 -8q-11 -5 -23 -15q-17 -15 -25 -25q-22 -24 -42 -59q-18 -33 -24 -61q-4 -24 -4 -37q0 -25 8 -54q14 -44 49 -78q21 -18 25 -20q8 -3 23 -3q16 0 24 4q7 4 25 23q17 17 20 19q2 2 2.5 1t-0.5 -5q-1 -3 -20 -93q-9 -42 -15 -72q-17 -92 -31 -142
q-10 -45 -23 -85q-5 -19 -10 -31q-1 -4 -3.5 -12.5t-3.5 -12.5q-1 -3 -4.5 -15t-5.5 -19q-1 -6 -2.5 -12l-3 -12t-2.5 -8q-1 -5 -2 -11.5t-1.5 -10t-0.5 -5.5q2 -6 10 -11q12 -9 24 -9q2 0 6 0.5t5 0.5q21 6 39 36q8 23 17 55q14 54 21 80q12 40 16 58q11 41 17 70
q4 15 10.5 45t9.5 43q3 11 8.5 32t7.5 30q3 8 6 18q1 4 3 10t2 8q4 15 28 53q26 42 39 55q34 43 65 72q31 28 70 48q48 27 66 42q15 12 20 20zM211 351q4 -11 4 -21v-3q0 -8 -8 -35q-4 -14 -6 -25q0 -7 -5 -20q-4 -10 -11 -21q-1 -2 -17 -26q-8 -13 -25 -35q-10 -12 -24 -23
q-18 -12 -28 -15h-3q-6 0 -17 7q-16 13 -16 32q0 2 0.5 4.5t0.5 3.5q3 24 9 55q6 34 18 62q14 30 33 53q12 14 21 27q12 13 33 13q25 0 30 -5q8 -7 11 -28z" />
    <glyph glyph-name="r" unicode="r" horiz-adv-x="286" 
d="M352 324q0 3 -2 3h-4q-5 0 -28 -35q-21 -32 -55 -91q-23 -41 -55 -82q-23 -32 -68 -80q-34 -36 -47 -46q-16 -11 -28 -11q-7 0 -7 3q0 10 1 22q3 24 12 60q13 44 25 78q5 15 9 25q4 9 5 18q4 13 10 39q16 55 17 57q13 38 10 50q-3 13 -15 13q-6 1 -14 0q-2 0 -8 -0.5
t-9 -0.5q-8 3 -10 8q0 1 -0.5 10.5t-0.5 18.5q0 27 -6 37q-4 12 -21 18q-3 1 -10 1q-16 0 -40 -21q-29 -27 -29 -55q0 -9 8 -27q8 -17 15 -23q21 -17 34 -20q3 0 6.5 -0.5t5.5 -0.5l2 -1q5 0 2 -9q-7 -21 -17 -43q-16 -37 -31 -89q-9 -36 -17 -88q-3 -21 -3 -39q0 -16 3 -28
q4 -12 17 -29q12 -15 28 -23q4 -2 14 -6q9 -3 14 -3q15 0 37 16q22 14 40 39q17 24 35 46q30 36 41 49q4 6 14 18q8 10 9 15q1 2 11 18q1 2 6.5 11t7.5 14q5 7 20 31q4 7 11 19t9 16q9 15 15 24q2 3 6 9.5t6 9.5q5 9 11 29q8 20 8 26zM65 407q1 -2 1 -7q0 -9 -4 -21
q-5 -21 -13 -33q-10 -13 -14 -14l-1 -1q-5 0 -8 9q-5 15 -5 23q0 2 1 4v2q3 14 14 27q10 12 19 17h4q5 0 6 -6z" />
    <glyph glyph-name="s" unicode="s" horiz-adv-x="245" 
d="M261 198q13 22 22 42q6 10 6 18q0 6 -2 8q-7 6 -15 -8l-14 -28q-8 -21 -28 -43q-19 -21 -37 -34q-23 -13 -51 -19q-26 -4 -34 -1q-6 4 -13 25q-10 29 -17 56q-5 21 -12 48.5t-11.5 45t-7.5 28.5q23 30 33 45q16 24 23 36q11 17 13 24q6 25 -11 43q-14 17 -48 20
q-3 1 -11 1q-17 0 -27 -5q-17 -7 -31 -24q-15 -18 -21 -46q-4 -25 -1 -71q6 -27 24 -79q19 -48 33 -98q9 -26 12 -49q6 -21 4 -39q0 -3 -11 -11q-10 -10 -25 -19q-32 -22 -71 -57q-36 -33 -49 -52q-16 -26 -16 -54q0 -5 2 -21q9 -40 41 -58q9 -3 21 -9q20 -4 24 -5
q3 0 8.5 -0.5t7.5 -0.5q8 0 20 2q20 5 34 12q29 14 55 34q25 21 40 44q18 30 21 49q3 24 -2 62q-3 21 -6 39q-2 22 -4 27q-2 13 -3 17q33 22 93 61q10 8 25 23q13 13 17 21zM46 51h1q4 0 4 -5q2 -3 2 -24v-7q0 -40 -16 -78q-19 -42 -49 -65q-13 -11 -29 -17q-10 -2 -15 -2
t-13 2q-13 12 -18 26q-1 5 -1 15q0 3 0.5 7.5t0.5 6.5q8 34 39 65q32 31 49 43q12 7 23 17q10 10 22 16zM44 374q-2 0 -8 14q-6 19 -8 33q0 3 -0.5 7t-0.5 5q0 2 0.5 4.5t0.5 3.5q5 10 11 18q6 7 14 13q7 6 12 6q2 1 6 1q21 0 19 -21q0 -24 -27 -60q-4 -6 -12 -16
q-6 -8 -7 -8z" />
    <glyph glyph-name="t" unicode="t" horiz-adv-x="266" 
d="M472 642q22 14 25 22q2 2 2 5q0 8 -7 16q-9 12 -21 11q-12 0 -30 -12q-25 -17 -56 -32t-59 -21q-4 -1 -67 -10q-42 -3 -44 -2v7v14q11 61 -1 105q-10 43 -33 43h-3q-13 -2 -22 -24q-9 -24 -20 -88q-5 -23 -7 -30q-4 -18 -7 -25q-4 -14 -6 -19q-27 -3 -43 -6
q-61 -9 -75 -16q-3 -1 -17 -7t-24 -11q-28 -14 -39 -23q-4 -4 -4 -8q0 -3 3 -7q7 -8 19 -11q15 0 29 7q10 4 20 9q6 3 22 8q18 8 59 16q38 7 41 4q2 -2 0 -8q0 -2 -4 -14q-1 -2 -2.5 -7t-2.5 -8l-2 -8q0 -7 -5 -25q-4 -16 -11 -36q0 -1 -8 -35q-15 -63 -17 -72
q-6 -31 -16.5 -79.5t-12.5 -57.5q-3 -16 -10 -49t-10 -48q-4 -23 -9 -47l-6 -34q-4 -28 -6 -41q0 -9 -1 -12q-3 -32 -1 -45q2 -11 19 -38q11 -15 20 -24q12 -8 20 -11q15 -5 25 -5q4 0 12 2q17 5 38 21q28 25 52 61t76 130q13 24 37 74q20 40 51 124q8 20 11 32q4 15 3 15
q-1 3 -11 -13q-7 -11 -17 -37q-1 -3 -3 -7t-5 -11t-5 -12q-10 -25 -19 -41q-17 -36 -31 -64q-17 -34 -23 -40q-3 -5 -34 -48q-8 -11 -17 -23.5t-13 -18t-5 -7.5q-11 -16 -35 -46q-15 -19 -24 -28q-15 -12 -27 -17q-13 -4 -19 0q-1 2 5 42q2 13 8 41.5t9 44.5q3 13 10 50
q2 8 5 23t5 21q5 22 15 64q12 42 16 63q8 36 11 57q2 9 14 67l21 84q10 35 14 63q10 46 11 49q72 10 81 11q66 10 112 26q46 18 76 37z" />
    <glyph glyph-name="u" unicode="u" horiz-adv-x="451" 
d="M492 307v8q0 5 -1 6q-1 4 -7 4q-5 0 -10 -8q-3 -4 -16 -26q-2 -4 -10 -18.5t-14 -25.5q-9 -17 -28 -48q-15 -30 -33 -63q-18 -35 -33 -59q-18 -32 -28 -45q-12 -15 -40 -43q-29 -27 -31 -28q-15 -12 -17 -12h-6l-2 1q0 6 8 40q9 33 12 39t6 18q5 13 5 21q3 9 6 26
q1 4 8 27q20 62 30 107q10 41 14 82q3 22 -8 53q-9 30 -23 36q-8 6 -13 4q-3 0 -12 -10q-6 -8 -8 -13q-3 -8 -3 -13q0 -9 -11 -34q-14 -29 -27 -53q-10 -18 -16 -27q-10 -16 -15 -22q-16 -22 -50 -49q-31 -24 -36 -19q-2 4 -2 9q0 6 2 18l4 24q5 22 5 26q2 16 3 23q3 9 5 14
q7 13 11 41q6 28 4 51q0 27 -7 42q-6 16 -18 22q-4 2 -12 2q-8 1 -14 -5q-8 -8 -20 -46q-2 -4 -3.5 -9.5t-4 -12.5t-3.5 -11q-4 -15 -8 -23q-1 -2 -2.5 -7t-2.5 -9q-1 -3 -3 -9.5t-3 -9.5t-2.5 -9.5t-2.5 -9.5q-1 -5 -4 -18q-5 -17 -5 -40v-6q2 -30 7 -46q12 -31 34 -47
q23 -17 49 -17q10 0 16 7l13 13q24 20 45 47l26 28q2 0 0 -7q0 -3 -4 -15q-6 -20 -12 -44q-2 -8 -4.5 -19.5t-6 -27.5t-6.5 -28q-11 -57 -5 -89q8 -34 34 -57q12 -11 25 -14h5q9 0 19 5q4 2 17 13q4 3 7.5 7t8 8.5l7.5 7.5q26 28 38 42q20 25 26 36q9 13 25 41q10 20 24 41
q2 3 10 16q11 18 16 31q9 15 17 31q3 5 13 20q14 20 30 61q18 42 18 53z" />
    <glyph glyph-name="v" unicode="v" horiz-adv-x="389" 
d="M451 325q1 2 1 5q0 7 -8 4t-30 -20q-19 -13 -35 -18q-18 -5 -33 -5q-27 1 -49 14q-20 12 -22 24q5 20 7 37q4 24 4 35q0 7 -3 13q-2 7 -7 10q-9 10 -27 9h-7q-23 -2 -40 -16q-26 -22 -26 -54q0 -29 28 -59q15 -12 15 -22q2 -10 -9 -28q-2 -8 -10 -20q-7 -15 -15 -29
q-9 -18 -15 -29q-3 -6 -9.5 -17t-9.5 -16q-12 -20 -38 -60q-20 -30 -28 -38q-5 -5 -13 -11q-5 -4 -8 -4q-2 1 -5 20q-2 28 -2 45q0 6 0.5 16.5t0.5 15.5q1 15 3 28q3 13 6 34q2 11 7 43q10 60 12 94q3 34 -5 47q-5 18 -12 33q-6 17 -22 22q-8 3 -15 1q-5 0 -12 -8
q-6 -6 -9 -15q-1 -7 -3 -29q0 -12 -5 -35q-4 -24 -7 -36q-7 -30 -14 -90q-3 -36 -3 -71q0 -4 0.5 -13.5t0.5 -14.5q2 -32 3 -47q1 -3 7 -36q10 -25 20 -40q11 -17 28 -27q11 -5 12 -5q6 -3 7 -3q7 0 15 6q9 9 17 21q32 43 35 47q18 24 30 48q27 51 48 93q24 45 35 71
q11 22 17 31q6 6 17 7q12 -12 39 -15q38 -2 59 -2q27 3 54 25q25 22 28 34zM252 392q2 0 2 -6q0 -7 -1 -13q-1 -19 -8 -32q-3 -14 -10 -14q-3 0 -6 3q-6 6 -6 19q0 5 2 13q1 10 11 20q9 10 16 10z" />
    <glyph glyph-name="w" unicode="w" horiz-adv-x="594" 
d="M655 330q-1 11 -13 -1q-35 -31 -44 -38q-29 -22 -65 -31t-45 -9q-2 5 -3 15q0 2 -0.5 16t-0.5 26q2 38 0 45q0 8 -9 14q-12 11 -27 9q-15 0 -27 -12q-18 -20 -27 -51q-8 -31 1 -52q3 -5 10 -13q3 -2 8 -7t8 -7q17 -12 19 -22q3 -9 -6 -40q-7 -30 -27 -73q-20 -46 -38 -76
q-12 -22 -21 -35q-9 -15 -18 -24q-15 -15 -33 -28q-16 -11 -22 -8q-6 6 -9 34q-2 20 -2 65q1 13 3 37l6 34q8 30 16 79q7 37 13 76q2 14 -1 22q0 9 -8 25q-10 22 -17 26q-6 6 -21 1q-7 0 -13 -13q-2 -5 -19 -54q-5 -18 -15 -50q-7 -26 -7 -29q-5 -29 -22 -49
q-10 -13 -32 -39q-21 -29 -53 -55q-30 -24 -45 -24q-7 0 -8 3q-2 4 -2 15q0 14 6 50q2 15 5.5 34t4.5 24q6 21 12 43q8 24 34 113q11 36 12 48q3 11 -2 38q-3 29 -11 39q-6 9 -21 9h-3q-8 0 -14 -9q-5 -7 -16 -36q-1 -3 -3 -8.5t-3 -8.5q-2 -6 -5 -12q-2 -4 -3 -7
q0 -1 -0.5 -3t-0.5 -3t-3 -9q-1 -5 -6 -13q-9 -17 -21 -54q-17 -51 -25 -79q-10 -44 -12 -81v-6q0 -32 8 -70q2 -9 10 -27q10 -16 16 -23q14 -13 19 -15q7 -3 27 -3q21 0 27 3q6 2 26 17q14 12 27 28t30 41q5 8 13.5 20t9.5 14l11 14q1 0 1 -11v-26q0 -7 0.5 -19t0.5 -17
q5 -27 8 -38q8 -33 17 -54q8 -15 25 -30q19 -17 26 -23q6 -3 22 -7q10 -2 13 -2q11 0 20 7q5 4 14.5 11t10.5 8q12 11 15 22q3 7 14 28q2 3 9 15t10 19q12 20 15 28q12 30 15 37q3 8 11.5 28t13.5 31q6 9 9 23q3 8 8 27q9 33 12 39q4 9 20 12q1 0 7 2t12.5 4t13.5 5
q23 9 50 23q5 3 13.5 8t10.5 6q13 8 19 14q12 14 20 31q11 19 11 29zM452 285q0 -15 -3 -20q0 -2 -3 -2q-2 0 -5 3t-3 15v2q0 11 2 19q3 7 6 7q2 0 2 -1q4 -4 4 -23z" />
    <glyph glyph-name="x" unicode="x" horiz-adv-x="410" 
d="M188 410q-2 6 -7 9q-4 3 -11 1h-2q-1 -1 -2 -1l-3 -3q-10 -7 -10 -13l3 -12q8 -21 16 -47q9 -23 15 -46q6 -18 8 -28q6 -18 8 -28q-24 -32 -38 -49q-6 -7 -20.5 -26.5t-23.5 -30.5q-21 -27 -42 -57q-18 -23 -40 -57q-4 -8 -4 -11q0 -8 10 -18q14 -11 28 -11q2 0 5.5 0.5
t4.5 0.5l9 3q3 2 6 5q2 2 6 5.5t6 5.5q6 6 9 12q25 39 51 75q28 40 56 74q9 -25 15 -53q9 -27 15 -54q6 -14 8 -22q6 -14 8 -22q1 -1 2.5 -4t2.5 -4q3 -3 13 0q0 2 -0.5 5t-0.5 4q0 6 -1 8q-5 27 -15 79q-6 39 -15 78l-3 9q0 3 -2 9q3 3 8.5 9.5t8.5 9.5q7 7 17 19
q11 11 20 23l18 24l18 24t17.5 23.5t12.5 16.5q20 27 37 66q3 6 2 8q0 10 -19 10q-25 0 -48 -12q-15 -9 -28 -28t-15 -21q-27 -36 -37 -47l-33 -42q-4 17 -11 39q-5 25 -10 40q-2 11 -10 26q-8 18 -13 26z" />
    <glyph glyph-name="y" unicode="y" horiz-adv-x="471" 
d="M526 330q6 6 7 10q1 2 1 5t-2 3q-3 6 -26 -13q-23 -18 -50 -50q-22 -26 -46 -53q-17 -19 -38 -39l-21 -21q-2 -3 -29 -32q-7 -8 -22 -24.5t-22 -24.5q-6 -6 -11.5 -12.5t-8.5 -9.5l-4 -4q-22 -23 -25 -14t12 53q4 14 6 22q1 4 3 10.5t2 8.5q3 12 6 23q4 12 10 34
q17 53 20 77q3 26 -3 56q-6 34 -12 46q-5 13 -14 16q-8 6 -17 0q-9 -7 -17 -26q-8 -23 -37 -59q-25 -31 -55 -59q-16 -16 -34 -29q-16 -11 -25 -11q-4 0 -8 4q0 11 2 23q2 14 4 23q4 16 5 19q5 13 7 21q5 17 5 29q7 21 7 36q1 18 -3 34q-3 16 -6 21q-3 6 -11 8q-3 1 -9 1
q-11 0 -18 -5q-10 -7 -19 -32q-5 -10 -10 -25q-2 -5 -4.5 -11.5t-3.5 -7.5q-1 -3 -4 -10.5t-4 -10.5q-3 -12 -12 -51q-12 -45 10 -91q25 -44 65 -55q19 -3 31 -1q11 3 35 17q13 8 19 17q4 5 19 32q6 10 13 24q5 8 5 4q0 -6 -12 -54t-42 -153q-3 -18 -8 -25q-2 -4 -10 -12
q-10 -8 -26 -21q-19 -17 -47 -38q-46 -37 -71 -59q-25 -21 -47 -46q-14 -16 -22 -25q-13 -14 -23 -30q-41 -55 -54 -80q-11 -22 -11 -50v-3q0 -26 8 -44q10 -17 25 -22q3 0 16 -5q12 -4 14 -5q7 0 20 -3q14 0 28 -3q21 0 33 2q7 2 27 13q24 13 48 39q27 29 46 57
q16 27 20 34q12 21 21 45q18 38 37 94q16 44 23 84q3 8 6 21q7 23 8 28q7 22 20 28q12 6 38 29q17 17 32 27q12 9 36 29q0 2 30 35q11 13 32.5 39.5t32.5 39.5q16 19 39 47q3 4 34 44q16 20 22 29q3 3 6 7.5t5 7t3 3.5zM-97 -405q-27 -10 -40 -10q-1 1 -3 1q-15 2 -24 15
q-4 10 -4 18q0 10 5 27q11 30 36 63q23 31 69 80q40 43 68 66q33 26 52 38q21 14 27 14q1 0 1 -1t-3 -13q-4 -18 -10 -31q-2 -5 -6 -15.5t-6 -15.5q-5 -15 -5 -17q0 -11 -20 -52q-21 -46 -36 -70q-18 -28 -49 -58q-29 -29 -52 -39z" />
    <glyph glyph-name="z" unicode="z" 
d="M432 69q14 3 17 10q2 2 2 8q0 7 -4 14q-6 15 -17 16q-8 3 -30 -7t-47 -12q-26 0 -57 8q-15 6 -36 9q-8 3 -32 8q-5 1 -12 4t-8 3q-8 3 -8 5l5 5q4 4 12 10q29 18 64 60q40 47 60 83q12 22 14 31q4 11 4 33q3 28 -4 45q-6 17 -25 23q-8 5 -18 5t-28 -5q-15 -3 -42 -6
q-23 -3 -56 -6q-47 -5 -82 -13q-36 -6 -33 -21q1 -6 29 -6q28 1 61 6q8 1 22.5 3.5t19.5 3.5q28 6 32 7q9 2 20 5l16.5 4.5t7.5 1.5q8 3 19 1q9 0 6 -10q-4 -12 -23 -39q-31 -44 -73 -87q-43 -43 -100 -85q-10 -8 -62 -50q-30 -24 -55 -47q-9 -7 -9 -19v-2q1 -1 1 -2
q3 -14 15 -26q10 -9 18 -9t22 8q8 4 11 5q1 1 5 2.5t6 2.5q15 6 34 17q13 8 41 28q7 5 17 5q9 1 39 -3t45 -8q27 -6 41 -12q39 -13 74 -18q36 -3 51 3q3 1 8.5 2.5t7.5 2.5q10 5 14 5z" />
    <glyph glyph-name="braceleft" unicode="{" horiz-adv-x="266" 
d="M151 10q-8 1 -23 1q-12 2 -19 2q-23 3 -31 11q-7 10 -4 31q1 11 5 26q2 6 7 26q12 50 18 74q10 41 14 74q3 19 -4 38q-7 21 -4 37q5 21 16 37q13 19 17 37q7 26 8 50q3 26 3 51q3 65 23 127q21 60 80 101q5 4 8 13q1 4 1 11v5q-2 11 -11 14q-3 2 -10 2q-5 0 -8 -1
q-8 -2 -24 -10q-14 -5 -23 -13q-23 -19 -40 -45q-16 -24 -28 -55q-15 -36 -21 -73q-7 -42 -7 -75q0 -41 -13 -74q-13 -35 -47 -58q-16 -12 -16 -25q0 -11 17 -25q2 -1 5.5 -3t5.5 -3q8 -4 13 -7l-9 -45q-6 -28 -10 -44q-3 -18 -16 -69q-10 -46 -14 -70q-2 -12 -2 -18
q0 -31 22 -66q29 -40 67 -47q21 -3 36 -3h7q18 1 21 27q2 7 -1 19q0 15 -9 15z" />
    <glyph glyph-name="bar" unicode="|" horiz-adv-x="205" 
d="M72 -23q0 -3 4 -21q4 -13 11 -15q21 3 31 8q15 6 15 15q4 30 4 45q2 32 2 47q0 41 0.5 122.5t0.5 121.5q2 164 3 245q2 64 4 96q4 64 4 96q1 2 1 5q0 13 -2 19q-2 13 -18 16q-3 1 -11 1q-9 0 -24 -3q-21 -6 -24 -24q-4 -39 -7 -56q-4 -36 -4 -56q0 -115 -1 -165v-41
q0 -36 2 -124q1 -29 4 -133q2 -72 2 -90q3 -66 3 -84q1 -18 0 -25z" />
    <glyph glyph-name="braceright" unicode="}" horiz-adv-x="327" 
d="M97 22q-12 2 -18 4t-22 6q-8 2 -14 -13q-6 -12 -6 -17q0 -2 -0.5 -5t-0.5 -4q0 -18 13 -23t42 -10q2 0 6 -0.5t6 -0.5q32 0 65 25q39 30 45 74q4 25 8 71q1 12 2.5 35.5t2.5 35.5q2 15 4 45q4 30 5 45q9 3 15 3l12 3q20 8 24 19q1 2 1 6q0 10 -9 22q-25 34 -28 70
q-2 38 10 74q13 40 17 74q4 35 1 75q-2 34 -10 61q-7 30 -25 56q-5 9 -17 19q-14 12 -21 16q-5 5 -15 5h-2q-8 0 -15 -10q-3 -6 -3 -16q0 -8 3 -14q44 -58 46 -121q2 -64 -16 -128q-2 -6 -6.5 -23t-6.5 -27q-5 -21 -7 -50q0 -22 5 -40q7 -22 4 -40q-3 -17 -15 -35
q-12 -17 -15 -34q-6 -36 -9 -75q-4 -50 -6 -76q0 -4 -0.5 -13t-0.5 -14q0 -17 -2 -26q-3 -23 -14 -29q-9 -4 -33 0z" />
    <glyph glyph-name="asciitilde" unicode="~" 
d="M379 308q-2 2 -3 2q0 3 -2 3q-12 13 -25 3q-12 -9 -18 -21q-11 -11 -22 -26q-12 -16 -29 -5q-6 6 -20 18q-10 10 -21 17q-41 32 -77 32h-35h-1q-23 -3 -45 -17q-21 -12 -39 -30q-9 -9 -9 -27v-1q0 -18 19 -18q15 3 26 10q13 8 26 11q22 12 32 19q16 13 35 13q18 3 33 -6
q29 -16 31 -17q24 -16 34 -25q18 -13 39 -18q17 3 29 15q12 14 24 24q1 1 7 8t10 12q5 5 5 12t-4 12z" />
    <glyph glyph-name="section" unicode="&#xa7;" horiz-adv-x="574" 
d="M119 149q-17 -14 -17 -33v-4q3 -23 20 -44q45 -30 105 -57q28 -11 51 -11q33 2 61 19q54 33 57 97t-39 108q0 26 17 48q12 14 36 46q10 12 19 28q10 19 13 35q3 15 3 27q0 30 -13 53q-17 37 -53 70q-16 19 -51 34q-32 15 -49 36q-10 13 -10 26q0 17 11 35q9 26 29 40
q22 14 42 20q13 3 31 -1q19 -4 26 -4q12 3 13 7q2 5 -1 10q-18 38 -57 45q-15 3 -32 3q-24 0 -45 -7q-22 -6 -40 -16t-31 -25q-17 -15 -23 -34q-6 -18 -6 -37q2 -35 13 -68q13 -32 13 -57q-20 -10 -37 -28q-16 -16 -30 -38q-22 -38 -25 -83q-1 -44 29 -77q27 -24 59 -41
q37 -18 62 -43q18 -18 24 -40q6 -23 -8 -53q-7 -19 -17 -29t-25 -16q-26 -9 -54 0q-28 12 -43 40q-4 10 -11 18q-8 12 -17 1zM352 465v-9q0 -45 -25 -89q-27 -46 -85 -48q-59 6 -68 46q-3 12 -3 26q0 33 15 72q15 35 59 50q18 7 37 7q24 0 40 -11q12 -6 19 -17q8 -9 11 -27z
" />
    <glyph glyph-name="hyphentwo" unicode="&#x2010;" horiz-adv-x="512" 
d="M88 306q15 -37 55 -49q38 -11 123 -11q4 0 11.5 0.5t11.5 0.5q48 0 64 2q13 3 19 12q8 9 8 18q2 2 0 2q-1 8 -18 28q-20 24 -43 27q-23 6 -86 3q-22 -1 -60 -1q-26 0 -35 3q-20 7 -35 7q-9 0 -15 -3q-6 -5 -6 -15q0 -9 6 -24z" />
    <glyph glyph-name="uni2011" unicode="&#x2011;" horiz-adv-x="450" 
d="M88 306q15 -37 55 -49q38 -11 123 -11q4 0 11.5 0.5t11.5 0.5q48 0 64 2q13 3 19 12q8 9 8 18q2 2 0 2q-1 8 -18 28q-20 24 -43 27q-23 6 -86 3q-22 -1 -60 -1q-26 0 -35 3q-20 7 -35 7q-9 0 -15 -3q-6 -5 -6 -15q0 -9 6 -24z" />
    <glyph glyph-name="figuredash" unicode="&#x2012;" horiz-adv-x="573" 
d="M467 306q-18 -37 -72 -49q-50 -11 -162 -11q-5 0 -15 0.5t-15 0.5q-61 0 -85 2q-17 3 -25 12q-11 13 -11 18v2q3 8 24 28q27 24 57 27q30 6 114 3q29 -1 78 -1q35 0 47 3q27 7 46 7q13 0 19 -3q8 -4 8 -15t-8 -24z" />
    <glyph glyph-name="endash" unicode="&#x2013;" horiz-adv-x="512" 
d="M432 306q-16 -37 -66 -49q-44 -11 -147 -11q-4 0 -13 0.5t-14 0.5q-55 0 -77 2q-16 3 -23 12q-10 13 -10 18v2q2 7 22 28q24 24 51 27q29 6 104 3q26 -1 71 -1q33 0 42 3q25 7 43 7q11 0 17 -3q7 -4 7 -15q0 -10 -7 -24z" />
    <glyph glyph-name="emdash" unicode="&#x2014;" horiz-adv-x="778" 
d="M702 305q-11 -13 -27 -23q-12 -7 -40 -16q-47 -13 -130 -17q-67 -3 -177 -3h-52h-65q-10 0 -25 0.5t-20 0.5q-37 2 -46 4q-13 3 -20 9q-18 12 -18 18l1 3q4 9 38 27q29 16 55 22q27 7 76 9q27 1 61 0h82q46 -2 126 -2q57 1 75 3q43 8 75 8q22 0 30 -4q15 -4 13 -14
q0 -10 -12 -25z" />
    <glyph glyph-name="quoteright" unicode="&#x2019;" horiz-adv-x="184" 
d="M131 694q8 15 12 47q1 4 1 12q0 22 -15 25h-7q-8 0 -12 -1q-12 -3 -19 -7q-8 -4 -13 -15q-3 -8 4 -18q14 -18 9 -33q-4 -13 -15 -29q-14 -22 -17 -28q-10 -15 -18 -26q-2 -5 -9 -13q-2 -2 -2 -5q0 -2 5 -7q3 -3 9 -3h3q9 1 14 4q6 2 20 16q16 14 50 81z" />
    <glyph glyph-name="quotedblleft" unicode="&#x201c;" horiz-adv-x="287" 
d="M146 677q-7 -12 -13 -47q0 -2 -0.5 -6t-0.5 -6q0 -22 15 -25h7q2 0 6 0.5t6 0.5q12 3 20 7q9 6 12 15t-3 18q-13 18 -9 32q4 15 14 30q7 10 17 28q7 12 18 26l9 12q2 2 2 6t-5 7q-3 3 -9 3h-3q-6 0 -14 -4q-2 0 -20 -16q-16 -13 -49 -81zM57 677q-7 -10 -13 -46
q0 -2 -0.5 -6.5t-0.5 -6.5q0 -20 15 -25h7q2 0 6 0.5t6 0.5q5 1 12 4t8 3q9 6 12 15q3 10 -3 18q-14 18 -9 33q4 13 14 30q7 10 17 27q6 12 18 27l9 12q2 2 2 5q0 6 -5 8q-2 2 -9 2h-3q-8 0 -14 -3q-5 -3 -20 -16q-16 -15 -49 -82z" />
    <glyph glyph-name="quotedblright" unicode="&#x201d;" horiz-adv-x="286" 
d="M141 694q7 14 13 47q1 4 1 12q0 22 -16 25h-6q-8 0 -13 -1q-15 -5 -19 -7q-9 -4 -12 -15q-3 -9 3 -18q15 -18 9 -33q-3 -13 -14 -29q-14 -22 -17 -28q-10 -15 -18 -26q-1 -1 -10 -13q-2 -2 -2 -5q1 -1 2.5 -3.5t2.5 -3.5q5 -3 10 -3h3q9 1 14 4q6 2 20 16q16 14 49 81z
M230 694q7 12 13 46q1 5 1 13q0 21 -16 24q-2 1 -6 1q-8 0 -13 -2q-11 -2 -19 -7q-9 -3 -12 -14q-3 -10 3 -19q15 -17 9 -32q-3 -14 -14 -30q-15 -24 -17 -27q-6 -11 -18 -27q-2 -4 -10 -12q-2 -2 -2 -5q1 -2 5 -8q3 -2 10 -2h3q8 0 14 3q9 6 20 16q16 15 49 82z" />
    <glyph glyph-name="Euro" unicode="&#x20ac;" horiz-adv-x="451" 
d="M59 347q-21 -3 -24 -15l-1 -1v-2q0 -8 14 -17q6 -3 9 -6q4 -3 4 -7q-5 -20 -5 -68q0 -49 3 -82q6 -49 26 -85q18 -31 53 -53q21 -11 28 -14q15 -5 48 -5q32 0 45 5q17 7 30 16q38 27 65 65q28 34 40 54q7 11 11 22q-5 -1 -13 -3q-5 0 -24 -11q-2 -1 -15.5 -8t-21.5 -12
q-54 -32 -71 -39q-24 -10 -47 -14q-29 -6 -47 0q-16 6 -32 24q-10 14 -13 25q-2 14 -2 54q2 41 4 55q3 17 11 44q13 35 17 38q6 5 46 11q18 4 36 11q16 8 13 13q0 3 -13 5q-14 4 -30 4q-18 1 -30 3l-12 4q0 12 11 39q10 26 16 29q1 0 6 1.5t9 2.5q12 3 23 3q8 2 31 4
q8 1 33 4q32 5 39 9q9 6 2 15q-5 6 -15 6q-13 2 -45 -1q-18 -1 -42 -1q-13 0 -16 3q-3 5 15 38t33 63q19 35 32 65q15 33 24 54q7 13 14 23q7 8 29 11q25 5 37 -1q13 -3 16 -19q3 -13 10 -21q9 -6 13 -1q4 3 4 10q0 8 -3 15q-4 20 -17 33q-3 7 -16 13q-14 9 -23 11
q-23 10 -39 10h-7q-16 0 -31 -5q-32 -9 -65 -51q-34 -48 -85 -151q-6 -11 -31 -61q-14 -28 -16 -30q0 -4 -9 -7t-20 -3q-17 -2 -22 -4q-4 -4 -4 -11q0 -6 4 -12q2 -1 4 -2.5t5.5 -4t5.5 -3.5q18 -7 19 -16q2 -7 -9 -39q-5 -17 -10 -22q-3 -5 -12 -7z" />
    <glyph glyph-name="controlCR" horiz-adv-x="0" 
 />
    <glyph glyph-name="tt" horiz-adv-x="471" 
d="M200 609q10 59 -2 105q-11 46 -34 43q-12 -1 -21 -23q-8 -23 -20 -88q-3 -14 -6 -30q-4 -18 -7 -25q-1 -5 -3 -11t-2 -8q-27 -3 -43 -6q-61 -9 -81 -16q-21 -6 -48 -18q-30 -15 -37 -22q-4 -4 -4 -8q0 -2 3 -7q6 -10 18 -11q14 0 28 7q79 35 117 35q38 2 38 0q2 0 0 -7
q0 -5 -5 -15q-3 -11 -4 -14l-2 -8q0 -7 -5 -25q-2 -13 -10 -37q0 -1 -1 -4.5t-3 -12.5l-4 -18q-4 -16 -16 -72q-34 -161 -51 -248q-13 -72 -13 -83q0 -6 -1 -13q0 -7 -2 -23q-3 -32 -1 -44q3 -14 18 -38q12 -18 19 -25q6 -4 20 -11q15 -5 24 -5q4 0 12 2q15 5 36 21
q20 17 44 52q25 36 58 99v-12q0 -3 -2 -13q-3 -32 -1 -44q3 -14 18 -38q13 -19 19 -24q12 -8 20 -12q21 -6 36 -3q17 5 36 21q25 23 51 61q30 48 73 130q29 51 47 94q13 30 32 82q8 20 11 32q5 15 3 15q-1 1 -3.5 -1.5t-7.5 -11.5q-7 -12 -16 -37q-1 -3 -4.5 -10.5
t-5.5 -12.5q-1 -2 -14 -31l-30 -60q-11 -20 -23 -40q-11 -22 -32 -50q-24 -30 -35 -46q-17 -25 -34 -46q-15 -19 -24 -28q-14 -12 -26 -17t-17 0q-2 4 4 42q2 12 7.5 41t8.5 45q4 18 10 50q6 24 9 44q5 22 15 64q9 31 15 63q8 36 11 57q6 36 13 66q12 50 20 85q9 36 13 62
q2 7 10 49q13 2 31 4.5t29 4t19 2.5q69 11 107 25q42 17 71 36q21 12 24 21q1 2 1 6q0 8 -7 15q-9 13 -23 12q-14 0 -32 -12q-8 -5 -24.5 -15.5t-24.5 -15.5q-20 -14 -51 -20q-19 -2 -27 -4q-5 -1 -15.5 -2.5t-15.5 -2.5q-35 -6 -41 0q-4 8 -7 35q6 57 -5 94q-10 37 -30 37
h-3q-12 -1 -21 -23q-8 -23 -20 -88q-3 -14 -6 -30q-3 -18 -6 -25q-2 -8 -3 -10q-10 -2 -15 -4q-2 -1 -6.5 -2t-6.5 -1q-10 -2 -33.5 -5.5t-32.5 -4.5q-40 -3 -42 -2q0 3 -1 7q0 3 0.5 7.5t0.5 6.5zM245 545q16 2 23 3q12 3 21 3q10 2 24 2h4q7 2 7 -1v-3v-4q0 -3 -4 -15
q-1 -2 -2.5 -7t-2.5 -7l-2 -8q2 -5 -4 -25q-3 -13 -11 -37l-8 -34q-6 -32 -15 -72q-26 -127 -39 -185q-8 -48 -20 -104q-1 -1 -2 -4t-2.5 -5.5t-2.5 -4.5q-4 -8 -7 -12q-1 -1 -17 -21q-6 -7 -32 -44q-22 -32 -34 -46q-19 -24 -24 -28q-13 -11 -26 -17q-6 -3 -12 -3
q-3 0 -6 3v3q0 6 5 39q2 12 7.5 41t8.5 45q4 18 10 50q6 23 9 44q7 33 15 63q9 34 15 64q8 35 11 56q2 17 13 67q7 35 20 85q9 36 13 62l9 42q4 2 5 2q4 2 5 2q12 4 20 5q18 4 28 6z" />
    </font>
</defs>
</svg>
