<?xml version="1.0" encoding="UTF-8"?>
<svg width="76px" height="76px" viewBox="0 0 76 76" version="1.1" xmlns="http://www.w3.org/2000/svg" xmlns:xlink="http://www.w3.org/1999/xlink">
    <!-- Generator: Sketch 44.1 (41455) - http://www.bohemiancoding.com/sketch -->
    <title>icon</title>
    <desc>Created with Sketch.</desc>
    <defs></defs>
    <g id="pages" stroke="none" stroke-width="1" fill="none" fill-rule="evenodd">
        <g id="enterprise-page" transform="translate(-322.000000, -3992.000000)">
            <g id="🦉-personal-touch" transform="translate(0.000000, 3755.000000)">
                <g id="line-1" transform="translate(180.000000, 238.000000)">
                    <g id="item">
                        <g id="icon" transform="translate(143.000000, 0.000000)">
                            <circle stroke-opacity="0.2" stroke="#FFFFFF" stroke-width="2" cx="37" cy="37" r="37"></circle>
                            <rect id="bg" stroke="#FFFFFF" stroke-width="2" stroke-linecap="round" stroke-linejoin="round" x="23" y="18" width="28" height="38" rx="2"></rect>
                            <rect fill="#FFFFFF" x="32" y="21" width="10" height="2" rx="1"></rect>
                            <rect id="bg" fill-opacity="0.400000006" fill="#FFFFFF" x="27" y="34" width="20" height="18" rx="1"></rect>
                            <path d="M31.0829584,52 C31.5590365,49.1622867 34.0270037,47 37,47 C39.9729963,47 42.4409635,49.1622867 42.9170416,52 L31.0829584,52 Z M37,45 C35.3431458,45 34,43.6568542 34,42 C34,40.3431458 35.3431458,39 37,39 C38.6568542,39 40,40.3431458 40,42 C40,43.6568542 38.6568542,45 37,45 Z" id="profil" fill="#FFFFFF"></path>
                        </g>
                    </g>
                </g>
            </g>
        </g>
    </g>
</svg>