<?xml version="1.0" encoding="UTF-8"?>
<svg width="46px" height="32px" viewBox="0 0 46 32" version="1.1" xmlns="http://www.w3.org/2000/svg" xmlns:xlink="http://www.w3.org/1999/xlink">
    <!-- Generator: Sketch 44.1 (41455) - http://www.bohemiancoding.com/sketch -->
    <title>logo</title>
    <desc>Created with Sketch.</desc>
    <defs></defs>
    <g id="pages" stroke="none" stroke-width="1" fill="none" fill-rule="evenodd" fill-opacity="0.300000012">
        <g id="enterprise-page" transform="translate(-697.000000, -2686.000000)" fill="#8E9BAC">
            <g id="ðŸ’ªðŸ½-how-we-get-it-done" transform="translate(180.000000, 2546.000000)">
                <g id="title" transform="translate(419.000000, 140.000000)">
                    <path d="M98,4.00281647 C98,1.79212198 99.787167,0 102.007236,0 L115,0 C118.313708,0 121,2.68411517 121,5.99565125 L121,6 L121,32 L119.980281,30.2154925 C118.334317,27.3350555 114.318062,25 111.001324,25 L102.006195,25 C99.7936345,25 98,23.2020617 98,20.9971835 L98,4.00281647 Z M104,11 C104,11.5561352 104.447045,12 104.998502,12 L116.001498,12 C116.552511,12 117,11.5522847 117,11 C117,10.4438648 116.552955,10 116.001498,10 L104.998502,10 C104.447489,10 104,10.4477153 104,11 Z M104,15 C104,15.5561352 104.447045,16 104.998502,16 L116.001498,16 C116.552511,16 117,15.5522847 117,15 C117,14.4438648 116.552955,14 116.001498,14 L104.998502,14 C104.447489,14 104,14.4477153 104,15 Z M104,19 C104,19.5561352 104.447045,20 104.998502,20 L116.001498,20 C116.552511,20 117,19.5522847 117,19 C117,18.4438648 116.552955,18 116.001498,18 L104.998502,18 C104.447489,18 104,18.4477153 104,19 Z M144,4.00281647 L144,20.9971835 C144,23.2020617 142.206366,25 139.993805,25 L130.998676,25 C127.681938,25 123.665683,27.3350555 122.019719,30.2154925 L121,32 L121,6 L121,5.99565125 C121,2.68411517 123.686292,0 127,0 L139.992764,0 C142.212833,0 144,1.79212198 144,4.00281647 Z M138,11 C138,10.4477153 137.552511,10 137.001498,10 L125.998502,10 C125.447045,10 125,10.4438648 125,11 C125,11.5522847 125.447489,12 125.998502,12 L137.001498,12 C137.552955,12 138,11.5561352 138,11 Z M138,15 C138,14.4477153 137.552511,14 137.001498,14 L125.998502,14 C125.447045,14 125,14.4438648 125,15 C125,15.5522847 125.447489,16 125.998502,16 L137.001498,16 C137.552955,16 138,15.5561352 138,15 Z M138,19 C138,18.4477153 137.552511,18 137.001498,18 L125.998502,18 C125.447045,18 125,18.4438648 125,19 C125,19.5522847 125.447489,20 125.998502,20 L137.001498,20 C137.552955,20 138,19.5561352 138,19 Z" id="logo"></path>
                </g>
            </g>
        </g>
    </g>
</svg>