<?xml version="1.0" encoding="UTF-8"?>
<svg width="76px" height="76px" viewBox="0 0 76 76" version="1.1" xmlns="http://www.w3.org/2000/svg" xmlns:xlink="http://www.w3.org/1999/xlink">
    <!-- Generator: Sketch 44.1 (41455) - http://www.bohemiancoding.com/sketch -->
    <title>icon</title>
    <desc>Created with Sketch.</desc>
    <defs>
        <path d="M22.9119153,6.99999949 C21.0159007,2.86894 16.8429888,0 12,0 C5.372583,0 0,5.372583 0,12 C0,18.627417 5.372583,24 12,24 C16.4416941,24 20.3197571,21.5868082 22.3946137,18 L27,18 L32,15 L40,18 L44,15 L48,18 L54,12 L49,7 L22.9119181,7 Z" id="path-1"></path>
    </defs>
    <g id="pages" stroke="none" stroke-width="1" fill="none" fill-rule="evenodd">
        <g id="enterprise-page" transform="translate(-219.000000, -3076.000000)">
            <g id="ðŸ’ªðŸ½-how-we-get-it-done" transform="translate(180.000000, 2546.000000)">
                <g id="user-management" transform="translate(40.000000, 276.000000)">
                    <g id="item" transform="translate(0.000000, 255.000000)">
                        <g id="icon">
                            <circle stroke-opacity="0.2" stroke="#138EF2" stroke-width="2" cx="37" cy="37" r="37"></circle>
                            <g id="key" transform="translate(10.000000, 25.000000)">
                                <mask id="mask-2" fill="white">
                                    <use xlink:href="#path-1"></use>
                                </mask>
                                <use stroke="#138EF2" stroke-width="2" xlink:href="#path-1"></use>
                                <circle fill="#138EF2" mask="url(#mask-2)" cx="9" cy="12" r="3"></circle>
                                <rect id="sep" fill="#138EF2" opacity="0.5" mask="url(#mask-2)" x="17" y="1" width="2" height="22"></rect>
                            </g>
                        </g>
                    </g>
                </g>
            </g>
        </g>
    </g>
</svg>