<?xml version="1.0" encoding="UTF-8"?>
<svg width="76px" height="76px" viewBox="0 0 76 76" version="1.1" xmlns="http://www.w3.org/2000/svg" xmlns:xlink="http://www.w3.org/1999/xlink">
    <!-- Generator: Sketch 44.1 (41455) - http://www.bohemiancoding.com/sketch -->
    <title>icon</title>
    <desc>Created with Sketch.</desc>
    <defs></defs>
    <g id="pages" stroke="none" stroke-width="1" fill="none" fill-rule="evenodd">
        <g id="enterprise-page" transform="translate(-219.000000, -2966.000000)">
            <g id="ðŸ’ªðŸ½-how-we-get-it-done" transform="translate(180.000000, 2546.000000)">
                <g id="user-management" transform="translate(40.000000, 276.000000)">
                    <g id="item" transform="translate(0.000000, 145.000000)">
                        <g id="icon">
                            <circle stroke-opacity="0.2" stroke="#138EF2" stroke-width="2" cx="37" cy="37" r="37"></circle>
                            <g id="logo" transform="translate(12.000000, 28.000000)" fill-rule="nonzero" fill="#138EF2">
                                <path d="M6.2875,4.2562963 C2.8125,4.2562963 0,7.08962963 0,10.5903704 C0,14.0911111 2.8125,16.9244444 6.2875,16.9244444 C9.7625,16.9244444 12.575,14.0911111 12.575,10.5903704 C12.575,7.08962963 9.7625,4.2562963 6.2875,4.2562963 Z M6.2875,13.7637037 C4.55,13.7637037 3.1375,12.3407407 3.1375,10.5903704 C3.1375,8.84 4.55,7.41703704 6.2875,7.41703704 C8.025,7.41703704 9.4375,8.84 9.4375,10.5903704 C9.4375,12.3407407 8.025,13.7637037 6.2875,13.7637037 Z" id="Shape"></path>
                                <path d="M17.3375,12.7185185 C17.3375,12.2148148 17.9375,11.9755556 18.2875,12.3281481 C19.8625,13.94 22.4625,16.7103704 22.475,16.722963 C22.5125,16.7607407 22.55,16.8237037 22.7,16.8740741 C22.7625,16.8992593 22.8625,16.8992593 22.975,16.8992593 L25.8125,16.8992593 C26.325,16.8992593 26.475,16.3074074 26.2375,16.0051852 L21.5375,11.157037 L21.2875,10.9051852 C20.75,10.262963 20.8125,10.0111111 21.425,9.3562963 L25.15,5.16296296 C25.3875,4.86074074 25.2375,4.28148148 24.7125,4.28148148 L22.1375,4.28148148 C22.0375,4.28148148 21.9625,4.28148148 21.8875,4.30666667 C21.7375,4.35703704 21.675,4.40740741 21.6375,4.45777778 C21.625,4.47037037 19.5625,6.71185185 18.2875,8.08444444 C17.9375,8.46222222 17.3125,8.21037037 17.3125,7.69407407 L17.3125,0.503703704 C17.3125,0.138518519 17.0125,0 16.775,0 L14.675,0 C14.3125,0 14.1375,0.239259259 14.1375,0.453333333 L14.1375,16.3955556 C14.1375,16.7607407 14.4375,16.8614815 14.6875,16.8614815 L16.7875,16.8614815 C17.1125,16.8614815 17.325,16.6222222 17.325,16.382963 L17.325,16.2192593 L17.325,12.7185185 L17.3375,12.7185185 Z" id="Shape"></path>
                                <path d="M34.4875,16.32 L34.2625,14.2044444 C34.2375,13.9148148 33.9625,13.7133333 33.675,13.7637037 C33.5125,13.7888889 33.35,13.8014815 33.1875,13.8014815 C31.5125,13.8014815 30.15,12.4792593 30.05,10.8044444 L30.05,10.6281481 L30.05,8.03407407 C30.05,7.69407407 30.3,7.41703704 30.6375,7.41703704 L33.45,7.41703704 C33.65,7.41703704 33.95,7.24074074 33.95,6.87555556 L33.95,4.87333333 C33.95,4.48296296 33.7,4.28148148 33.475,4.28148148 L30.6375,4.28148148 C30.3125,4.28148148 30.05,4.04222222 30.0375,3.71481481 L30.0375,0.503703704 C30.0375,0.302222222 29.8875,0 29.5,0 L27.4125,0 C27.15,0 26.9,0.163703704 26.9,0.491111111 L26.9,10.8044444 C26.9875,14.2296296 29.775,16.9622222 33.1875,16.9622222 C33.475,16.9622222 33.75,16.937037 34.025,16.8992593 C34.325,16.8614815 34.525,16.6096296 34.4875,16.32 Z" id="Shape"></path>
                                <path d="M49.6375,13.662963 C47.8625,13.662963 47.5875,13.0207407 47.5875,10.6155556 L47.5875,10.5903704 L47.5875,4.81037037 C47.5875,4.60888889 47.4375,4.26888889 47.0375,4.26888889 L44.9375,4.26888889 C44.675,4.26888889 44.3875,4.48296296 44.3875,4.81037037 L44.3875,5.07481481 C43.475,4.54592593 42.4125,4.2437037 41.2875,4.2437037 C37.8125,4.2437037 35,7.07703704 35,10.5777778 C35,14.0785185 37.8125,16.9118519 41.2875,16.9118519 C42.85,16.9118519 44.275,16.3325926 45.375,15.3881481 C45.9625,16.2948148 46.9125,16.8992593 48.4,16.9118519 C48.65,16.9118519 50,16.9622222 50,16.32 L50,14.0659259 C50,13.877037 49.85,13.662963 49.6375,13.662963 Z M41.3,13.7637037 C39.5625,13.7637037 38.15,12.3407407 38.15,10.5903704 C38.15,8.84 39.5625,7.41703704 41.3,7.41703704 C43.0375,7.41703704 44.45,8.84 44.45,10.5903704 C44.4375,12.3407407 43.025,13.7637037 41.3,13.7637037 Z" id="Shape"></path>
                            </g>
                        </g>
                    </g>
                </g>
            </g>
        </g>
    </g>
</svg>