<?xml version="1.0" encoding="UTF-8"?>
<svg width="76px" height="76px" viewBox="0 0 76 76" version="1.1" xmlns="http://www.w3.org/2000/svg" xmlns:xlink="http://www.w3.org/1999/xlink">
    <!-- Generator: Sketch 44.1 (41455) - http://www.bohemiancoding.com/sketch -->
    <title>icon</title>
    <desc>Created with Sketch.</desc>
    <defs></defs>
    <g id="pages" stroke="none" stroke-width="1" fill="none" fill-rule="evenodd">
        <g id="enterprise-page" transform="translate(-179.000000, -1687.000000)">
            <g id="ℹ-how-readme-can-help" transform="translate(180.000000, 705.000000)">
                <g id="🔄-stay-up-to-date" transform="translate(0.000000, 800.000000)">
                    <g id="more" transform="translate(0.000000, 183.000000)">
                        <g id="item">
                            <g id="icon">
                                <circle stroke-opacity="0.2" stroke="#138EF2" stroke-width="2" fill="#FFFFFF" cx="37" cy="37" r="37"></circle>
                                <rect stroke="#138EF2" stroke-width="2" fill="#FFFFFF" stroke-linecap="round" stroke-linejoin="round" x="27" y="18" width="20" height="25" rx="10"></rect>
                                <rect stroke="#138EF2" stroke-width="2" fill="#FFFFFF" stroke-linecap="round" stroke-linejoin="round" x="22" y="35" width="30" height="21" rx="3"></rect>
                                <path d="M36,45.7324356 C35.4021986,45.3866262 35,44.7402824 35,44 C35,42.8954305 35.8954305,42 37,42 C38.1045695,42 39,42.8954305 39,44 C39,44.7402824 38.5978014,45.3866262 38,45.7324356 L38,48.0001925 C38,48.5523709 37.5561352,49 37,49 C36.4477153,49 36,48.5562834 36,48.0001925 L36,45.7324356 Z" fill="#138EF2" opacity="0.5"></path>
                            </g>
                        </g>
                    </g>
                </g>
            </g>
        </g>
    </g>
</svg>