<?xml version="1.0" encoding="UTF-8"?>
<svg width="76px" height="76px" viewBox="0 0 76 76" version="1.1" xmlns="http://www.w3.org/2000/svg" xmlns:xlink="http://www.w3.org/1999/xlink">
    <!-- Generator: Sketch 44.1 (41455) - http://www.bohemiancoding.com/sketch -->
    <title>icon</title>
    <desc>Created with Sketch.</desc>
    <defs></defs>
    <g id="pages" stroke="none" stroke-width="1" fill="none" fill-rule="evenodd">
        <g id="enterprise-page" transform="translate(-1042.000000, -3992.000000)">
            <g id="🦉-personal-touch" transform="translate(0.000000, 3755.000000)">
                <g id="line-1" transform="translate(180.000000, 238.000000)">
                    <g id="item" transform="translate(720.000000, 0.000000)">
                        <g id="icon" transform="translate(143.000000, 0.000000)">
                            <circle stroke-opacity="0.2" stroke="#FFFFFF" stroke-width="2" cx="37" cy="37" r="37"></circle>
                            <path d="M37,47.6297757 L29.2364218,51.7113303 C27.5281258,52.6094347 26.0318209,51.5272308 26.3588275,49.6206357 L27.841539,40.9757644 L21.5606723,34.8534324 C20.1786319,33.5062759 20.7454853,31.748786 22.6598155,31.4706175 L31.3397598,30.2093478 L35.2215489,22.343984 C36.0756969,20.6132911 37.9223365,20.6093065 38.7784511,22.343984 L42.6602402,30.2093478 L51.3401845,31.4706175 C53.2501174,31.748147 53.8245501,33.5031743 52.4393277,34.8534324 L46.158461,40.9757644 L47.6411725,49.6206357 C47.967428,51.5228513 46.4758072,52.6115024 44.7635782,51.7113303 L37,47.6297757 Z" id="star" stroke="#FFFFFF" stroke-width="2"></path>
                            <polygon id="light" fill="#FFFFFF" opacity="0.5" points="46 26 49 19 52 21"></polygon>
                            <polygon id="light" fill="#FFFFFF" opacity="0.5" transform="translate(25.000000, 22.500000) scale(-1, 1) translate(-25.000000, -22.500000) " points="22 26 25 19 28 21"></polygon>
                            <polygon id="light" fill="#FFFFFF" opacity="0.5" transform="translate(54.500000, 44.000000) scale(1, -1) translate(-54.500000, -44.000000) " points="52 46 55 42 57 45"></polygon>
                            <polygon id="light" fill="#FFFFFF" opacity="0.5" transform="translate(19.500000, 44.000000) scale(-1, -1) translate(-19.500000, -44.000000) " points="17 46 20 42 22 45"></polygon>
                            <polygon id="light" fill="#FFFFFF" opacity="0.5" points="37 51 35 55 39 55"></polygon>
                        </g>
                    </g>
                </g>
            </g>
        </g>
    </g>
</svg>