<?xml version="1.0" encoding="utf-8"?>
<!-- Generator: Adobe Illustrator 16.0.0, SVG Export Plug-In . SVG Version: 6.00 Build 0)  -->
<!DOCTYPE svg PUBLIC "-//W3C//DTD SVG 1.1//EN" "http://www.w3.org/Graphics/SVG/1.1/DTD/svg11.dtd">
<svg version="1.1" id="Layer_1" xmlns="http://www.w3.org/2000/svg" xmlns:xlink="http://www.w3.org/1999/xlink" x="0px" y="0px"
	 width="1440px" height="5533px" viewBox="0 0 1440 5533" enable-background="new 0 0 1440 5533" xml:space="preserve">
<g>
	<defs>
		<rect id="SVGID_1_" x="180" y="2546" width="1080" height="1000"/>
	</defs>
	<clipPath id="SVGID_2_">
		<use xlink:href="#SVGID_1_"  overflow="visible"/>
	</clipPath>
</g>
<circle opacity="0.2" fill="none" stroke="#4386C6" stroke-width="2" stroke-miterlimit="10" cx="807" cy="3224" r="37"/>
<g>
	<defs>
		<path id="SVGID_3_" d="M796.99,3212.428c-4.061,0-6.721,2.212-5.601,6.524l0.252,1.764c0.448,1.765-0.867,2.744-2.604,3.136v0.112
			c1.736,0.392,3.052,1.372,2.604,3.136l-0.252,1.765c-1.12,4.312,1.54,6.523,5.601,6.523v-2.239c-1.933,0-3.5-1.064-3.024-3.78
			l0.252-1.82c0.504-1.987-0.364-3.164-1.596-3.64c1.231-0.477,2.1-1.652,1.596-3.641l-0.252-1.819
			c-0.476-2.716,1.092-3.78,3.024-3.78V3212.428z"/>
	</defs>
	<clipPath id="SVGID_4_">
		<use xlink:href="#SVGID_3_"  overflow="visible"/>
	</clipPath>
	<g clip-path="url(#SVGID_4_)">
		<defs>
			<rect id="SVGID_5_" width="1440" height="5533"/>
		</defs>
		<clipPath id="SVGID_6_">
			<use xlink:href="#SVGID_5_"  overflow="visible"/>
		</clipPath>
		<rect x="784.038" y="3207.428" clip-path="url(#SVGID_6_)" fill="#4386C6" width="17.952" height="32.96"/>
	</g>
</g>
<g>
	<defs>
		<path id="SVGID_7_" d="M817.038,3212.428c4.06,0,6.72,2.212,5.6,6.524l-0.252,1.764c-0.448,1.765,0.868,2.744,2.604,3.136v0.112
			c-1.736,0.392-3.053,1.372-2.604,3.136l0.252,1.765c1.12,4.312-1.54,6.523-5.6,6.523v-2.239c1.932,0,3.5-1.064,3.024-3.78
			l-0.253-1.82c-0.504-1.987,0.364-3.164,1.597-3.64c-1.232-0.477-2.101-1.652-1.597-3.641l0.253-1.819
			c0.476-2.716-1.093-3.78-3.024-3.78V3212.428z"/>
	</defs>
	<clipPath id="SVGID_8_">
		<use xlink:href="#SVGID_7_"  overflow="visible"/>
	</clipPath>
	<g clip-path="url(#SVGID_8_)">
		<defs>
			<rect id="SVGID_9_" width="1440" height="5533"/>
		</defs>
		<clipPath id="SVGID_10_">
			<use xlink:href="#SVGID_9_"  overflow="visible"/>
		</clipPath>
		<rect x="812.038" y="3207.428" clip-path="url(#SVGID_10_)" fill="#4386C6" width="17.952" height="32.96"/>
	</g>
</g>
<g>
	<defs>
		<circle id="SVGID_11_" cx="800" cy="3224" r="2"/>
	</defs>
	<clipPath id="SVGID_12_">
		<use xlink:href="#SVGID_11_"  overflow="visible"/>
	</clipPath>
	<g clip-path="url(#SVGID_12_)">
		<defs>
			<rect id="SVGID_13_" width="1440" height="5533"/>
		</defs>
		<clipPath id="SVGID_14_">
			<use xlink:href="#SVGID_13_"  overflow="visible"/>
		</clipPath>
		<rect x="793" y="3217" opacity="0.5" clip-path="url(#SVGID_14_)" fill="#4386C6" width="14" height="14"/>
	</g>
</g>
<g>
	<defs>
		<circle id="SVGID_15_" cx="807" cy="3224" r="2"/>
	</defs>
	<clipPath id="SVGID_16_">
		<use xlink:href="#SVGID_15_"  overflow="visible"/>
	</clipPath>
	<g clip-path="url(#SVGID_16_)">
		<defs>
			<rect id="SVGID_17_" width="1440" height="5533"/>
		</defs>
		<clipPath id="SVGID_18_">
			<use xlink:href="#SVGID_17_"  overflow="visible"/>
		</clipPath>
		<rect x="800" y="3217" opacity="0.5" clip-path="url(#SVGID_18_)" fill="#4386C6" width="14" height="14"/>
	</g>
</g>
<g>
	<defs>
		<circle id="SVGID_19_" cx="814" cy="3224" r="2"/>
	</defs>
	<clipPath id="SVGID_20_">
		<use xlink:href="#SVGID_19_"  overflow="visible"/>
	</clipPath>
	<g clip-path="url(#SVGID_20_)">
		<defs>
			<rect id="SVGID_21_" width="1440" height="5533"/>
		</defs>
		<clipPath id="SVGID_22_">
			<use xlink:href="#SVGID_21_"  overflow="visible"/>
		</clipPath>
		<rect x="807" y="3217" opacity="0.5" clip-path="url(#SVGID_22_)" fill="#4386C6" width="14" height="14"/>
	</g>
</g>
</svg>
