<?xml version="1.0" encoding="UTF-8"?>
<svg width="76px" height="76px" viewBox="0 0 76 76" version="1.1" xmlns="http://www.w3.org/2000/svg" xmlns:xlink="http://www.w3.org/1999/xlink">
    <!-- Generator: Sketch 44.1 (41455) - http://www.bohemiancoding.com/sketch -->
    <title>icon</title>
    <desc>Created with Sketch.</desc>
    <defs></defs>
    <g id="pages" stroke="none" stroke-width="1" fill="none" fill-rule="evenodd">
        <g id="enterprise-page" transform="translate(-739.000000, -1061.000000)">
            <g id="â„¹-how-readme-can-help" transform="translate(180.000000, 705.000000)">
                <g id="ðŸ†-reason-#1">
                    <g id="more" transform="translate(560.000000, 247.000000)">
                        <g id="item" transform="translate(0.000000, 110.000000)">
                            <g id="icon">
                                <circle stroke-opacity="0.2" stroke="#138EF2" stroke-width="2" fill="#FFFFFF" cx="37" cy="37" r="37"></circle>
                                <path d="M37,25.9964905 C37,24.3415745 38.3417706,23 39.9910904,23 L58.0089096,23 C59.6608432,23 61,24.3342595 61,25.9961002 L61,55 L59.7970711,53.3960948 C58.8045761,52.0727682 56.6544098,51 54.991212,51 L40.008788,51 C38.3470803,51 37,49.6495018 37,48.0035095 L37,25.9964905 Z" id="book" stroke="#138EF2" stroke-width="2" fill="#FFFFFF" stroke-linecap="round" stroke-linejoin="round" transform="translate(49.000000, 39.000000) scale(-1, 1) translate(-49.000000, -39.000000) "></path>
                                <path d="M13,25.9964905 C13,24.3415745 14.3417706,23 15.9910904,23 L34.0089096,23 C35.6608432,23 37,24.3342595 37,25.9961002 L37,55 L35.7970711,53.3960948 C34.8045761,52.0727682 32.6544098,51 30.991212,51 L16.008788,51 C14.3470803,51 13,49.6495018 13,48.0035095 L13,25.9964905 Z" id="book" stroke="#138EF2" stroke-width="2" fill="#FFFFFF" stroke-linecap="round" stroke-linejoin="round"></path>
                                <path d="M41,30 C41,29.4477153 41.4446309,29 42.0008717,29 L55.9991283,29 C56.5518945,29 57,29.4438648 57,30 C57,30.5522847 56.5553691,31 55.9991283,31 L42.0008717,31 C41.4481055,31 41,30.5561352 41,30 Z M41,36 C41,35.4477153 41.4446309,35 42.0008717,35 L55.9991283,35 C56.5518945,35 57,35.4438648 57,36 C57,36.5522847 56.5553691,37 55.9991283,37 L42.0008717,37 C41.4481055,37 41,36.5561352 41,36 Z M41,42 C41,41.4477153 41.4446309,41 42.0008717,41 L55.9991283,41 C56.5518945,41 57,41.4438648 57,42 C57,42.5522847 56.5553691,43 55.9991283,43 L42.0008717,43 C41.4481055,43 41,42.5561352 41,42 Z M23,30 C23,29.4477153 23.4556644,29 23.9953976,29 L32.0046024,29 C32.5543453,29 33,29.4438648 33,30 C33,30.5522847 32.5443356,31 32.0046024,31 L23.9953976,31 C23.4456547,31 23,30.5561352 23,30 Z M17,36 C17,35.4477153 17.4446309,35 18.0008717,35 L31.9991283,35 C32.5518945,35 33,35.4438648 33,36 C33,36.5522847 32.5553691,37 31.9991283,37 L18.0008717,37 C17.4481055,37 17,36.5561352 17,36 Z M17,42 C17,41.4477153 17.4446309,41 18.0008717,41 L31.9991283,41 C32.5518945,41 33,41.4438648 33,42 C33,42.5522847 32.5553691,43 31.9991283,43 L18.0008717,43 C17.4481055,43 17,42.5561352 17,42 Z" id="lines" fill-opacity="0.5" fill="#138EF2"></path>
                                <polyline id="arrow" stroke="#138EF2" stroke-width="2" stroke-linecap="round" stroke-linejoin="round" points="18 28 20 30 18 32"></polyline>
                            </g>
                        </g>
                    </g>
                </g>
            </g>
        </g>
    </g>
</svg>