<svg xmlns="http://www.w3.org/2000/svg" width="50" height="55" viewBox="0 0 50 55">
    <path fill="#0494D8" fill-rule="evenodd" d="M.891 15.443s-.38.914-.59 2.622c-1.146 6.93 1.051 12.962 5.282 18.77 2.785 4.5 2.653 12.577 1.303 17.646l-.015.061H29.84l.483-2.203c.453-2.297 1.682-3.27 4.533-3.27l6.421-.008a3.465 3.465 0 0 0 3.356-3.463l.002-.215c-.024-3.076-.047-8.62-.055-10.932l3.286-.018h.306A2.01 2.01 0 0 0 50 32.432c0-.343-.067-.667-.219-.948-.801-1.47-2.507-4.48-3.69-6.425-1.353-2.225-1.296-2.56-.775-4.267.67-2.191.004-5.543-1.778-8.944C40.068 4.872 32.098 0 22.874 0 13.148 0 4.834 5.451 1.687 13.045c-.318.78-.586 1.58-.796 2.398m39.445 7.897a2.48 2.48 0 1 1-4.958-.003 2.48 2.48 0 0 1 4.958.003"/>
</svg>
