<svg xmlns="http://www.w3.org/2000/svg" width="50" height="50" viewBox="0 0 50 50">
    <path fill="#05A5F0" fill-rule="evenodd" d="M17.666 25A7.331 7.331 0 0 1 25 17.666 7.33 7.33 0 0 1 32.333 25a7.333 7.333 0 1 1-14.667 0zM6.564 29.485a19.232 19.232 0 0 0 2.473 5.757L5.922 38.37c-1.398 1.399-1.384 2.232-.153 3.462l3.038 3.04c1.244 1.244 2.09 1.218 3.462-.154l3.269-3.282a19.182 19.182 0 0 0 4.974 1.999v4c0 1.988.603 2.565 2.335 2.565h4.307c1.756 0 2.334-.617 2.334-2.564v-4.001a19.174 19.174 0 0 0 4.973-2l3.348 3.359c1.383 1.373 2.217 1.398 3.46.168l3.052-3.052c1.217-1.217 1.243-2.05-.168-3.46l-3.205-3.206a18.918 18.918 0 0 0 2.488-5.756h4.23C49.423 29.486 50 28.87 50 26.923v-3.846c0-1.899-.5-2.565-2.334-2.565h-4.231a19.222 19.222 0 0 0-2-4.974l3.053-3.038c1.346-1.346 1.46-2.18.166-3.462l-3.051-3.052c-1.219-1.217-2.09-1.204-3.462.167l-2.897 2.885a19.202 19.202 0 0 0-5.756-2.474v-4C29.488.665 28.986 0 27.154 0h-4.308c-1.73 0-2.334.627-2.334 2.563v4a19.2 19.2 0 0 0-5.756 2.474l-2.897-2.884c-1.373-1.371-2.244-1.385-3.462-.167l-3.051 3.05c-1.295 1.283-1.18 2.118.166 3.463l3.04 3.038a19.606 19.606 0 0 0-1.988 4.974H2.333C.602 20.512 0 21.141 0 23.077v3.846c0 1.987.602 2.563 2.334 2.563h4.23z"/>
</svg>
