<svg xmlns="http://www.w3.org/2000/svg" xmlns:xlink="http://www.w3.org/1999/xlink" width="112" height="34" viewBox="0 0 112 34">
    <defs>
        <path id="a" d="M13.078 15.454V.084H.159v15.37h12.919z"/>
    </defs>
    <g fill="none" fill-rule="evenodd">
        <path fill="#05A5F0" d="M9.106 20.194a1.677 1.677 0 0 1-1.64-1.36 9.443 9.443 0 0 1 3.375-9.225 9.246 9.246 0 0 1 9.812-1.087 1.694 1.694 0 0 1 .783 2.252c-.4.84-1.4 1.194-2.232.79a5.931 5.931 0 0 0-6.293.698c-.528.42-.978.92-1.336 1.485a6.138 6.138 0 0 0-.826 4.43 1.688 1.688 0 0 1-1.643 2.017M16.62 26.405a9.304 9.304 0 0 1-3.565-.71 1.693 1.693 0 0 1-.91-2.204 1.667 1.667 0 0 1 2.184-.919 5.94 5.94 0 0 0 5.978-.838 5.97 5.97 0 0 0 1.536-1.824 6.12 6.12 0 0 0 .66-3.907 1.686 1.686 0 0 1 1.377-1.942 1.674 1.674 0 0 1 1.924 1.39c.157.951.168 1.92.032 2.878a9.441 9.441 0 0 1-1.062 3.21 9.334 9.334 0 0 1-2.396 2.847 9.23 9.23 0 0 1-5.759 2.019"/>
        <path fill="#05A5F0" d="M16.414 33.6c-6.202 0-11.979-3.54-14.771-9.356a1.696 1.696 0 0 1 .776-2.256 1.666 1.666 0 0 1 2.235.784c2.635 5.49 8.61 8.431 14.532 7.154a13.067 13.067 0 0 0 3.455-1.275 1.664 1.664 0 0 1 2.264.691c.437.822.13 1.845-.684 2.286a16.462 16.462 0 0 1-7.807 1.972M28.703 27.008c-.32 0-.645-.094-.932-.288a1.698 1.698 0 0 1-.454-2.343 13.215 13.215 0 0 0 1.943-10.15c-.749-3.531-2.832-6.531-5.867-8.447a1.697 1.697 0 0 1-.531-2.327 1.663 1.663 0 0 1 2.305-.536c3.81 2.405 6.425 6.17 7.365 10.605.941 4.444.075 8.968-2.439 12.74a1.667 1.667 0 0 1-1.39.746M1.674 18.173l-.057-.001a1.682 1.682 0 0 1-1.616-1.744C.253 8.8 5.601 2.357 13.005.758a16.38 16.38 0 0 1 4.592-.33 1.683 1.683 0 0 1 1.552 1.802 1.678 1.678 0 0 1-1.785 1.567 13.01 13.01 0 0 0-3.66.264C7.807 5.334 3.547 10.466 3.346 16.54a1.68 1.68 0 0 1-1.671 1.632"/>
        <path fill="#FFF" d="M59.382 17.057c0 .658.059 1.266.178 1.824.118.558.296 1.047.534 1.465.236.419.548.743.933.972.385.23.844.344 1.377.344 1.008 0 1.759-.369 2.252-1.107.494-.736.741-1.903.741-3.498 0-1.376-.227-2.487-.681-3.334-.456-.848-1.226-1.271-2.312-1.271-.948 0-1.689.359-2.222 1.076-.533.718-.8 1.894-.8 3.529m-3.97 0c0-2.532.612-4.48 1.836-5.846 1.225-1.365 2.944-2.049 5.156-2.049 1.185 0 2.212.19 3.082.569.87.378 1.59.912 2.163 1.6.573.687 1.002 1.52 1.289 2.496.286.977.43 2.054.43 3.23 0 2.532-.608 4.48-1.823 5.846-1.215 1.366-2.929 2.048-5.14 2.048-1.186 0-2.213-.19-3.082-.568a5.882 5.882 0 0 1-2.178-1.6c-.583-.688-1.017-1.52-1.304-2.496-.286-.977-.43-2.054-.43-3.23M75.09 18.343v6.19h-3.852V3.6h3.853v12.35l4.266-6.37h4.238l-5.068 6.82 5.63 8.132h-4.414z"/>
        <path fill="#FFF" d="M90.831 12.272c-1.003 0-1.744.304-2.226.912-.481.609-.77 1.42-.868 2.437h5.481c.08-1.076-.083-1.903-.486-2.481-.403-.578-1.037-.868-1.9-.868zm5.498 10.975c-.592.478-1.397.882-2.414 1.211a10.5 10.5 0 0 1-3.245.493c-2.39 0-4.139-.702-5.245-2.108-1.106-1.405-1.66-3.334-1.66-5.786 0-2.632.623-4.605 1.867-5.92 1.245-1.317 2.993-1.975 5.245-1.975.75 0 1.482.1 2.193.3a5.1 5.1 0 0 1 1.897.986c.552.459.997 1.077 1.333 1.854.336.778.503 1.745.503 2.9 0 .42-.024.868-.074 1.347-.049.478-.123.977-.22 1.495h-8.862c.06 1.256.38 2.202.96 2.84.58.64 1.521.957 2.82.957.807 0 1.531-.124 2.17-.373.64-.25 1.128-.503 1.462-.763l1.27 2.542z"/>
        <g transform="translate(98.734 9.078)">
            <mask id="b" fill="#fff">
                <use xlink:href="#a"/>
            </mask>
            <path fill="#FFF" d="M9.226 15.454V6.962c0-1.216-.173-2.093-.519-2.632-.345-.538-.933-.807-1.762-.807-.732 0-1.349.214-1.852.643a3.57 3.57 0 0 0-1.082 1.6v9.688H.16V.503h3.494l.003 1.973h.118C4.228 1.838 4.831 1.28 5.581.801c.75-.478 1.72-.717 2.904-.717.731 0 1.383.1 1.956.3a3.33 3.33 0 0 1 1.452.986c.395.459.691 1.081.889 1.869.197.788.296 1.76.296 2.915v9.3H9.226z" mask="url(#b)"/>
        </g>
        <path fill="#FFF" d="M52.244 21.512c-.573 0-.963-.224-1.17-.673-.208-.448-.312-1.19-.312-2.227V12.87h3.615V9.58h-3.615V6.084l-3.851.687v2.81h-2.045v3.29h2.045v7.536c0 1.615.32 2.777.963 3.484.641.707 1.644 1.061 3.007 1.061.73 0 1.452-.09 2.163-.269.234-.059.455-.124.67-.191v-3.245a5.576 5.576 0 0 1-.448.147c-.286.08-.627.12-1.022.12z"/>
    </g>
</svg>
