<svg xmlns="http://www.w3.org/2000/svg" width="16" height="16" viewBox="0 0 16 16">
    <g fill="none" fill-rule="evenodd">
        <rect width="14" height="14" x="1" y="1" fill="#EB5C63" stroke="#EB5C63" stroke-width="2" rx="2"/>
        <path fill="#FFF" d="M11.93 4.066A.236.236 0 0 1 12.105 4a.32.32 0 0 1 .196.066l.612.633a.207.207 0 0 1 .087.174c0 .073-.03.139-.087.197l-6.55 6.55a.236.236 0 0 1-.175.066.32.32 0 0 1-.197-.066L3.087 8.694A.207.207 0 0 1 3 8.52c0-.073.03-.139.087-.197l.612-.611a.272.272 0 0 1 .196-.088c.073 0 .131.03.175.088L6.188 9.83l5.742-5.764z"/>
    </g>
</svg>
