<svg xmlns="http://www.w3.org/2000/svg" width="322" height="177" viewBox="0 0 322 177">
    <g fill="none" fill-rule="evenodd" transform="translate(1)">
        <g fill-rule="nonzero">
            <path fill="#4DBAB4" d="M135.17 73.276l-56.072 15.85-22.897-8.01z"/>
            <path fill="#FCE998" d="M79.092 89.126l56.062-15.846-54.06 38.715z"/>
            <path fill="#FFCA00" d="M86.904 97.447l-5.726 14.582 12.876-6.115z"/>
            <path fill="#067" d="M135.17 73.274L86.886 97.452l22.312 26.393z"/>
        </g>
        <g transform="translate(149 55)">
            <path fill="#FFF" d="M132.75 121.183c4.785.191 9.588-.558 12.943-2.235 4.495-2.246 5.092-5.508 2.065-8.19l-1.372-1.126c-8.387-7.115 4.264-9.593 8.035-17.135 3.771-7.542 12.206-9.788.678-19.411-32.267-26.936-98.903 2.016-98.857 10.417.056 10.087 9.421 20.315 27.64 27.836 13.75 5.675 30.4 8.923 47.247 9.771l1.62.073z"/>
            <path fill="#FCE998" d="M171.6 68.5c-.043-2.338-2.418-4.417-6.937-5.54-6.054-1.506-14.209-.862-20.532 1.345l-2.642.975c-27.832 10.021-64.411 12.99-91.55 6.24-51.137-7.828-62.22 31.85-23.304 41.528 38.918 9.678 95.252 1.427 125.825-18.428 12.59-8.176 18.846-17.045 19.132-25.326l.007-.794z"/>
            <ellipse cx="89.5" cy="89" fill="#000" fill-opacity=".5" fill-rule="nonzero" rx="7.5" ry="2"/>
            <g fill-rule="nonzero" transform="translate(29)">
                <path fill="#9DD7EF" d="M34.584.347H80c8.284 0 15 6.715 15 15V39H19.584V15.347c0-8.285 6.716-15 15-15z"/>
                <path fill="#EB5C63" d="M34.5 3C41.404 3 47 8.596 47 15.5v20.47H22V15.5C22 8.596 27.596 3 34.5 3z"/>
                <path fill="#E62156" d="M36.113 3c6.137 0 11.113 4.975 11.113 11.113V35.97H25V14.113C25 7.975 29.975 3 36.113 3z"/>
                <path fill="#9DD7EF" d="M0 36h95v3H0z"/>
                <path fill="#FFF" d="M55 20h3v14h-3z"/>
                <path fill="#516E99" d="M55 20h11v4H55z"/>
                <path fill="#D8D8D8" d="M57 39h7v50h-7z"/>
                <path fill="#777A7B" d="M57 39h7v1h-7z"/>
                <path fill="#777A7B" d="M57 39h3v50h-3z" opacity=".5"/>
                <circle cx="56.5" cy="32.5" r="1" fill="#D8D8D8"/>
            </g>
        </g>
        <circle cx="157" cy="36" r="3" fill="#D8D8D8" fill-rule="nonzero"/>
        <circle cx="122.5" cy="112.5" r="2.5" fill="#D8D8D8" fill-rule="nonzero"/>
        <circle cx="290" cy="11" r="7" fill="#9DD7EF" fill-rule="nonzero"/>
        <circle cx="6" cy="32" r="2" fill="#D8D8D8" fill-rule="nonzero"/>
        <circle cx="277" cy="2" r="2" fill="#D8D8D8" fill-rule="nonzero"/>
        <circle cx="300" cy="33" r="3" fill="#9DD7EF" fill-rule="nonzero"/>
        <circle cx="146" cy="26" r="4" fill="#9DD7EF" fill-rule="nonzero"/>
        <circle cx="14.5" cy="23.5" r="3.5" fill="#9DD7EF" fill-rule="nonzero"/>
        <circle cx="293.5" cy="93.5" r="3.5" fill="#9DD7EF" fill-rule="nonzero"/>
        <path stroke="#979797" stroke-dasharray="2,4" stroke-linecap="round" stroke-linejoin="round" d="M67.437 121.37c-6.674 6.285-15.093 9.427-25.256 9.427-15.245 0-30.896-21.613-39.54-6.33-5.761 10.189-2.097 17.527 10.993 22.014"/>
    </g>
</svg>
