<svg xmlns="http://www.w3.org/2000/svg" width="14" height="13" viewBox="0 0 14 13">
    <path fill="#4A4A4A" fill-rule="evenodd" d="M6.398 8.914a3.024 3.024 0 0 1-1.652-.68 3.23 3.23 0 0 1-1.02-1.453A3.007 3.007 0 0 1 3.657 5l2.742 3.914zm.352.774h.187l.75 1.078a9.416 9.416 0 0 1-.937.047A7.46 7.46 0 0 1 2.906 9.78 7.502 7.502 0 0 1 .164 7.063 1.027 1.027 0 0 1 0 6.5c0-.203.055-.39.164-.562a7.484 7.484 0 0 1 2.39-2.508l.633.914A6.477 6.477 0 0 0 1.125 6.5 6.512 6.512 0 0 0 3.48 8.82a6.378 6.378 0 0 0 3.27.868zm6.586-2.625a7.4 7.4 0 0 1-1.441 1.78 7.664 7.664 0 0 1-1.91 1.266l1.124 1.618c.047.062.063.128.047.199a.296.296 0 0 1-.117.176l-.492.351a.254.254 0 0 1-.211.047.22.22 0 0 1-.164-.117L2.39 1.273a.235.235 0 0 1-.047-.199.296.296 0 0 1 .117-.176l.492-.351A.254.254 0 0 1 3.164.5a.22.22 0 0 1 .164.117L4.641 2.47a7.981 7.981 0 0 1 2.109-.281 7.46 7.46 0 0 1 3.844 1.03 7.502 7.502 0 0 1 2.742 2.72c.11.171.164.359.164.562 0 .203-.055.39-.164.563zm-.961-.563a6.465 6.465 0 0 0-2.133-2.18 6.473 6.473 0 0 0-2.93-.984c-.25.25-.375.555-.375.914 0 .36.13.668.387.926.258.258.567.387.926.387.36 0 .668-.13.926-.387.258-.258.386-.567.386-.926.36.672.461 1.39.305 2.156a3.084 3.084 0 0 1-1.172 1.875l.633.89a6.873 6.873 0 0 0 1.746-1.1A6.12 6.12 0 0 0 12.375 6.5z"/>
</svg>
