<svg xmlns="http://www.w3.org/2000/svg" width="14" height="9" viewBox="0 0 14 9">
    <path fill="#4A4A4A" fill-rule="evenodd" d="M13.336 3.938c.11.171.164.359.164.562 0 .203-.055.39-.164.563a7.502 7.502 0 0 1-2.742 2.718A7.46 7.46 0 0 1 6.75 8.813 7.46 7.46 0 0 1 2.906 7.78 7.502 7.502 0 0 1 .164 5.063 1.027 1.027 0 0 1 0 4.5c0-.203.055-.39.164-.562a7.502 7.502 0 0 1 2.742-2.72A7.46 7.46 0 0 1 6.75.189a7.46 7.46 0 0 1 3.844 1.03 7.502 7.502 0 0 1 2.742 2.72zM6.75 7.688c1.187 0 2.277-.29 3.27-.868a6.512 6.512 0 0 0 2.355-2.32 6.762 6.762 0 0 0-1.324-1.582 6.58 6.58 0 0 0-1.77-1.113c.438.578.656 1.226.656 1.945 0 .578-.144 1.11-.433 1.594a3.3 3.3 0 0 1-1.16 1.16 3.053 3.053 0 0 1-1.594.434c-.578 0-1.11-.145-1.594-.434a3.3 3.3 0 0 1-1.16-1.16 3.053 3.053 0 0 1-.434-1.594c0-.531.125-1.031.375-1.5 0 .36.13.668.387.926.258.258.567.387.926.387.36 0 .668-.13.926-.387.258-.258.386-.567.386-.926 0-.36-.125-.664-.375-.914a6.473 6.473 0 0 0-2.93.984A6.465 6.465 0 0 0 1.126 4.5 6.512 6.512 0 0 0 3.48 6.82a6.378 6.378 0 0 0 3.27.868z"/>
</svg>
