<svg xmlns="http://www.w3.org/2000/svg" width="24" height="24" viewBox="0 0 24 24">
    <g fill="none" fill-rule="evenodd">
        <circle cx="12" cy="12" r="12" fill="#4DBAB4" fill-rule="nonzero"/>
        <path fill="#FFF" d="M15.93 9.066A.236.236 0 0 1 16.105 9a.32.32 0 0 1 .196.066l.612.633a.207.207 0 0 1 .087.174c0 .073-.03.139-.087.197l-6.55 6.55a.236.236 0 0 1-.175.066.32.32 0 0 1-.197-.066l-2.904-2.926A.207.207 0 0 1 7 13.52c0-.073.03-.139.087-.197l.612-.611a.272.272 0 0 1 .196-.088c.073 0 .131.03.175.088l2.118 2.118 5.742-5.764z"/>
    </g>
</svg>
